<?xml version="1.0" ?>
<svg xmlns="http://www.w3.org/2000/svg" xmlns:ev="http://www.w3.org/2001/xml-events" xmlns:xlink="http://www.w3.org/1999/xlink" baseProfile="full" height="513px" version="1.1" viewBox="45.028499999999994 60.338950000000004 411.943 351.5836" width="600px">
	<defs/>
	<path d="M 79.5,172.5 L 84.005,170.941 L 92.9913,167.322 L 106.06,163.037 L 113.895,160.229 L 126.117,156.441 L 134.913,153.297 L 149.864,149.113 L 160.001,145.433 L 175.123,140.555 L 184.098,137.29 L 193.624,134.054 L 207.149,130.451 L 216.976,127.327 L 226.182,124.756 L 229.522,123.542 L 238.049,119.922 L 243.258,117.98 L 247.044,116.808 L 255.186,114.619 L 266.916,110.895 L 280.142,107.179 L 303.138,99.1942 L 310.823,96.7165 L 323.962,91.9905 L 329.263,90.4479 L 332.424,89.8205 L 335.098,89.7805 L 338.144,90.5332 L 356.155,97.0656 L 359.069,98.4174 L 365.965,102.597 L 370.555,104.979 L 382.051,110.24 L 393.865,115.928 L 398.516,117.947 L 407.419,121.48 L 411.41,122.866 L 415.07,123.807 L 419.131,124.367 L 422.5,124.5" fill="none" stroke="rgb(31,119,180)" stroke-width="3"/>
	<path d="M 156.431,241.457 L 159.79,241.798 L 161.936,241.619 L 167.019,240.474 L 170.351,239.415 L 176.198,236.967 L 186.132,232.144 L 198.299,226.916 L 211.983,221.662 L 221.004,218.554 L 225.854,216.696 L 234.081,213.033 L 242.768,208.914 L 252.931,204.796 L 262.159,200.513 L 268.943,197.633 L 275.785,194.985 L 286.036,191.286 L 305.915,183.319 L 322.0,175.463 L 324.786,174.266 L 337.059,169.605 L 344.963,165.695 L 350.811,163.04 L 372.02,155.19 L 377.886,152.865 L 382.085,150.923 L 394.047,144.756 L 406.082,139.014 L 416.494,133.813 L 417.648,133.284 L 422.5,124.5" fill="none" stroke="rgb(174,199,232)" stroke-width="3"/>
	<path d="M 121.515,174.174 L 127.491,172.762 L 143.875,167.959 L 176.88,157.574 L 183.845,155.002 L 192.172,151.613 L 201.168,148.358 L 212.942,143.571 L 217.018,142.076 L 232.011,137.36 L 243.915,133.964 L 250.234,131.974 L 262.001,128.712 L 277.128,123.82 L 295.088,117.687 L 309.135,112.303 L 320.833,107.243 L 323.182,106.408 L 326.5,105.5" fill="none" stroke="rgb(255,127,14)" stroke-width="3"/>
	<path d="M 79.5,172.5 L 83.8267,185.409 L 83.7578,189.098 L 83.899,190.954 L 85.3105,201.581 L 87.3549,213.373 L 88.3756,218.805 L 89.8226,225.174 L 92.7545,235.932 L 94.9462,245.183 L 100.336,274.868 L 101.369,278.835 L 102.813,282.633 L 103.989,284.79 L 105.004,286.152 L 109.249,290.934 L 118.245,301.84 L 129.078,316.264 L 136.341,324.965 L 154.229,345.101 L 165.946,357.673 L 168.383,359.736 L 172.482,362.214" fill="none" stroke="rgb(255,187,120)" stroke-width="3"/>
	<path d="M 165.5,214.5 L 172.146,212.806 L 181.719,209.975 L 188.827,206.986 L 196.161,203.47 L 202.043,200.963 L 210.09,196.907 L 214.498,195.012 L 233.157,188.451 L 244.158,184.323 L 254.968,179.822 L 263.501,175.936 L 285.938,166.497 L 291.837,164.229 L 299.911,161.401 L 323.5,152.5" fill="none" stroke="rgb(44,160,44)" stroke-width="3"/>
	<path d="M 299.5,300.5 L 283.953,285.878 L 279.644,282.697 L 276.719,280.774 L 273.229,278.987 L 271.011,278.176 L 268.943,277.703 L 266.02,277.345 L 263.084,277.438 L 259.289,277.991 L 255.11,279.025 L 249.898,280.771 L 246.185,282.448 L 242.898,284.246 L 237.897,287.251 L 233.111,290.37 L 228.021,293.919 L 225.421,296.031 L 222.049,299.367 L 219.872,301.954 L 217.089,305.891 L 214.924,309.378 L 211.526,315.917 L 209.498,320.558 L 205.974,329.994 L 205.257,332.83 L 204.636,337.651 L 204.66,341.823 L 204.903,343.993 L 207.5,354.5" fill="none" stroke="rgb(152,223,138)" stroke-width="3"/>
	<path d="M 223.223,369.656 L 227.186,374.714 L 229.189,376.858 L 231.774,379.047 L 233.394,380.074 L 235.87,381.182 L 238.871,381.914 L 245.105,382.421 L 249.139,382.481 L 252.849,382.237 L 256.917,381.398 L 259.805,380.317 L 262.551,379.028 L 266.293,376.923 L 269.979,374.501 L 279.114,367.546 L 289.99,357.904 L 292.285,355.456 L 293.797,353.566 L 301.196,343.042 L 303.691,338.902 L 305.803,334.884 L 306.857,332.385 L 307.656,329.876 L 308.058,327.97 L 308.282,324.663 L 308.303,319.889 L 308.08,317.094 L 306.766,311.029 L 305.498,306.994 L 299.5,300.5" fill="none" stroke="rgb(214,39,40)" stroke-width="3"/>
	<path d="M 401.5,242.5 L 385.83,233.052 L 380.461,230.019 L 377.83,228.843 L 375.591,228.175 L 373.846,227.913 L 371.85,227.897 L 368.083,228.527 L 363.864,229.652 L 359.905,231.052 L 357.214,232.282 L 351.908,234.981 L 346.715,237.891 L 342.991,240.152 L 336.007,244.735 L 333.979,246.248 L 331.375,248.624 L 329.001,251.283 L 326.63,254.488 L 324.02,258.797 L 320.558,265.067 L 318.447,269.178 L 317.26,271.874 L 315.512,278.527 L 314.567,283.839 L 314.207,289.516 L 314.5,296.5" fill="none" stroke="rgb(255,152,150)" stroke-width="3"/>
	<path d="M 401.5,242.5 L 404.868,249.103 L 405.807,251.894 L 406.309,254.847 L 406.698,258.84 L 406.579,261.745 L 405.995,266.154 L 405.036,269.906 L 403.762,273.519 L 402.35,277.044 L 399.81,282.328 L 397.057,287.463 L 394.998,290.78 L 392.694,294.03 L 389.076,298.538 L 382.958,305.958 L 380.153,309.115 L 375.087,313.805 L 371.933,316.142 L 368.113,318.554 L 363.906,320.787 L 361.134,322.036 L 357.576,323.179 L 354.006,323.936 L 349.519,324.159 L 348.424,323.98 L 347.49,323.595 L 344.488,321.973 L 342.13,320.403 L 336.548,315.73" fill="none" stroke="rgb(148,103,189)" stroke-width="3"/>
	<path d="M 156.431,241.457 L 160.006,254.93 L 162.299,267.023 L 164.231,282.974 L 166.763,299.061 L 168.321,313.051 L 169.231,317.952 L 170.292,325.282 L 172.925,337.04 L 174.19,344.195 L 174.719,349.95 L 174.647,354.327 L 174.183,358.39 L 173.156,361.095 L 172.482,362.214" fill="none" stroke="rgb(197,176,213)" stroke-width="3"/>
	<path d="M 401.5,242.5 L 403.348,238.12 L 403.801,233.16 L 406.238,219.145 L 408.198,202.76 L 410.071,191.19 L 410.562,187.191 L 414.065,166.919 L 415.506,160.052 L 417.574,151.819 L 418.515,147.381 L 419.511,141.133 L 422.5,124.5" fill="none" stroke="rgb(140,86,75)" stroke-width="3"/>
	<path d="M 299.5,300.5 L 292.893,296.905 L 290.983,297.689 L 288.103,298.538 L 281.785,300.03 L 273.382,302.578 L 266.886,305.311 L 262.028,308.003 L 254.947,312.497 L 251.883,314.867 L 248.943,317.66 L 240.184,326.92 L 236.586,331.098 L 232.44,336.98 L 230.498,340.182 L 229.065,342.911 L 227.332,346.907 L 225.236,355.074 L 224.559,359.008 L 223.87,365.884 L 223.223,369.656" fill="none" stroke="rgb(196,156,148)" stroke-width="3"/>
	<path d="M 336.548,315.73 L 337.638,313.063 L 337.85,312.016 L 337.92,305.015 L 338.225,301.84 L 339.198,297.903 L 341.973,289.132 L 343.467,285.089 L 345.225,281.109 L 347.308,277.544 L 351.211,272.096 L 355.306,267.05 L 361.802,259.973 L 366.765,255.566 L 370.077,252.92 L 375.999,249.093 L 380.826,246.349 L 382.896,245.39 L 401.5,242.5" fill="none" stroke="rgb(227,119,194)" stroke-width="3"/>
	<path d="M 156.431,241.457 L 149.818,236.744 L 145.067,232.749 L 135.1,223.194 L 130.924,219.467 L 122.995,211.16 L 110.465,199.016 L 106.079,195.476 L 100.915,191.811 L 94.5876,186.506 L 90.2534,183.204 L 87.6879,181.721 L 87.2305,181.945 L 85.8508,181.391 L 79.5,172.5" fill="none" stroke="rgb(247,182,210)" stroke-width="3"/>
	<path d="M 323.5,152.5 L 330.079,149.783 L 346.039,142.638 L 355.15,139.02 L 379.5,128.5" fill="none" stroke="rgb(127,127,127)" stroke-width="3"/>
	<path d="M 121.515,174.174 L 128.631,180.09 L 136.256,186.933 L 140.744,190.377 L 143.243,192.622 L 165.5,214.5" fill="none" stroke="rgb(199,199,199)" stroke-width="3"/>
	<path d="M 326.5,105.5 L 330.066,106.211 L 333.828,107.295 L 337.822,108.99 L 354.129,117.168 L 363.943,121.234 L 376.244,125.803 L 377.721,126.853 L 379.5,128.5" fill="none" stroke="rgb(188,189,34)" stroke-width="3"/>
	<path d="M 323.5,152.5 L 323.742,149.326 L 324.058,147.983 L 324.772,138.067 L 325.869,117.061 L 325.987,109.204 L 326.5,105.5" fill="none" stroke="rgb(219,219,141)" stroke-width="3"/>
	<path d="M 172.482,362.214 L 181.956,368.65 L 184.959,367.123 L 207.5,354.5" fill="none" stroke="rgb(23,190,207)" stroke-width="3"/>
	<path d="M 336.548,315.73 L 329.056,310.964 L 326.525,308.843 L 320.373,303.012 L 314.5,296.5" fill="none" stroke="rgb(158,218,229)" stroke-width="3"/>
	<path d="M 223.223,369.656 L 219.852,367.466 L 216.617,364.996 L 214.897,363.375 L 211.972,360.145 L 207.5,354.5" fill="none" stroke="rgb(31,119,180)" stroke-width="3"/>
	<path d="M 299.5,300.5 L 314.5,296.5" fill="none" stroke="rgb(174,199,232)" stroke-width="3"/>
</svg>
