<?xml version="1.0" ?>
<svg xmlns="http://www.w3.org/2000/svg" xmlns:ev="http://www.w3.org/2001/xml-events" xmlns:xlink="http://www.w3.org/1999/xlink" baseProfile="full" height="344px" version="1.1" viewBox="-27.74375305 1.1751269499999992 566.9754061 324.34644610000004" width="600px">
	<defs/>
	<path d="M 390.5,30.5 L 387.274,30.9019 L 382.8,30.2051 L 373.565,29.2888 L 364.126,28.8023 L 339.495,28.4007 L 299.302,28.5787 L 285.528,29.387 L 272.55,29.8144 L 253.794,31.1883 L 225.719,32.7193 L 204.333,34.3305 L 169.951,36.3398 L 148.093,36.9194 L 139.232,37.3417 L 122.468,37.5341 L 107.119,37.9582 L 87.6591,38.074 L 77.4073,38.5861 L 64.7494,39.6716 L 59.815,40.3061 L 56.1181,41.0541 L 51.6114,42.6378 L 49.666,43.5944 L 47.4422,44.9501 L 45.3399,46.6262 L 43.3863,48.4673 L 39.6936,52.7253 L 37.4941,56.6279 L 34.3182,63.0751 L 32.6985,67.3228 L 28.585,81.4305 L 25.8805,92.0726 L 24.5561,99.3121 L 21.9327,119.021 L 21.512,122.797 L 20.4643,136.801 L 19.8223,152.176 L 19.7009,192.372 L 20.0274,202.565 L 20.5018,210.207 L 21.3496,220.326 L 21.8874,224.302 L 24.146,232.415 L 28.571,246.602 L 31.1188,253.482 L 33.1569,257.837 L 35.8022,262.05 L 41.2792,269.134 L 47.9916,276.8 L 49.9983,278.746 L 52.2416,280.61 L 60.4296,285.804 L 63.6312,287.516 L 68.012,289.517 L 75.1144,291.794 L 82.1723,293.291 L 88.4441,294.201 L 103.519,295.635 L 109.614,296.378 L 119.767,297.175 L 131.178,297.98 L 135.079,298.086 L 162.229,298.296 L 208.771,297.951 L 220.427,298.012 L 229.497,297.812 L 233.403,297.945 L 276.019,297.222 L 314.376,295.833 L 338.981,295.174 L 369.954,293.99 L 378.7,293.305 L 386.637,292.41 L 389.089,292.008 L 389.773,291.058" fill="none" stroke="rgb(31,119,180)" stroke-width="3"/>
	<path d="M 390.5,30.5 L 397.044,30.0854 L 408.761,30.0897 L 411.733,30.5278 L 417.054,31.8344 L 420.043,32.366 L 423.277,33.2091 L 426.793,34.3992 L 434.941,37.5246 L 438.062,38.935 L 442.105,41.092 L 445.083,43.0058 L 451.377,47.7629 L 460.015,55.1856 L 464.798,60.0213 L 468.238,64.2332 L 473.106,71.2213 L 475.944,76.2259 L 479.971,85.4607 L 481.603,89.7565 L 484.947,100.49 L 488.012,112.52 L 489.005,117.017 L 489.88,122.791 L 491.431,138.748 L 491.764,144.265 L 491.787,166.872 L 491.485,176.044 L 491.078,183.275 L 490.048,193.24 L 486.974,212.182 L 486.043,216.762 L 484.655,221.695 L 478.364,241.148 L 477.134,244.383 L 472.685,254.169 L 469.681,260.094 L 464.112,270.169 L 461.319,274.15 L 459.643,276.213 L 455.331,280.113 L 446.87,287.051 L 444.343,288.879 L 438.821,292.045 L 435.517,293.156 L 432.5,291.5" fill="none" stroke="rgb(174,199,232)" stroke-width="3"/>
	<path d="M 389.773,291.058 L 381.154,284.306 L 376.297,280.475 L 367.677,272.173 L 363.889,267.789 L 362.545,265.878 L 359.907,261.727 L 355.958,254.687 L 352.962,248.005 L 351.389,243.953 L 348.914,236.275 L 347.051,228.51 L 346.711,226.046 L 346.462,222.301 L 346.23,203.083 L 346.308,191.926 L 346.714,183.242 L 348.304,164.723 L 349.921,149.925 L 352.531,132.168 L 354.166,124.289 L 355.843,115.121 L 358.8,101.826 L 361.845,89.8613 L 365.593,76.0788 L 368.397,67.152 L 370.36,61.9803 L 372.604,56.8925 L 375.547,50.7833 L 378.634,44.8756 L 379.796,42.9261 L 386.147,34.809 L 386.783,33.7596 L 390.5,30.5" fill="none" stroke="rgb(255,127,14)" stroke-width="3"/>
	<path d="M 426.985,106.149 L 432.829,106.047 L 435.918,106.62 L 437.94,107.291 L 441.729,108.908 L 443.61,110.145 L 446.766,112.613 L 449.99,116.454 L 451.608,119.156 L 453.064,122.06 L 454.353,125.072 L 455.617,129.024 L 455.936,130.972 L 456.207,135.08 L 456.497,149.912 L 456.37,160.955 L 455.972,166.711 L 455.651,169.163 L 454.268,177.924 L 452.936,183.292 L 451.289,187.674 L 448.35,194.1 L 446.894,196.863 L 445.596,198.83 L 443.138,201.87 L 439.595,205.153 L 432.841,210.104 L 427.785,213.242" fill="none" stroke="rgb(255,187,120)" stroke-width="3"/>
	<path d="M 427.785,213.242 L 423.607,213.433 L 419.039,213.241 L 417.784,213.106 L 416.148,212.667 L 414.661,212.044 L 413.631,211.404 L 412.081,210.124 L 411.12,208.987 L 408.309,204.933 L 406.252,201.082 L 405.344,199.035 L 400.891,187.047 L 400.026,184.346 L 399.515,181.829 L 399.188,178.589 L 399.034,168.762 L 399.746,149.783 L 400.175,146.147 L 401.264,139.985 L 401.936,137.079 L 406.721,121.763 L 407.283,120.228 L 408.345,118.051 L 409.577,116.266 L 411.1,114.749 L 426.985,106.149" fill="none" stroke="rgb(44,160,44)" stroke-width="3"/>
	<path d="M 432.5,291.5 L 420.371,293.648 L 412.309,293.626 L 400.237,292.617 L 392.232,291.61 L 389.773,291.058" fill="none" stroke="rgb(152,223,138)" stroke-width="3"/>
</svg>
