<?xml version="1.0" standalone="no" ?>
<!DOCTYPE svg PUBLIC "-//W3C//DTD SVG 1.1//EN" "http://www.w3.org/Graphics/SVG/1.1/DTD/svg11.dtd">
<svg width="512px" height="512px" xmlns="http://www.w3.org/2000/svg" xmlns:xlink="http://www.w3.org/1999/xlink" version="1.1" >

<g>	<image style="overflow: visible; opacity: 0.4" width="512" height="512" xlink:href="Cylindrical_Parts_011_1_512_erode.png" />

</g>
<g>	<polyline points="432.5,291.5 432.966,293.27 " fill="none" stroke-width="1" stroke="rgb(0,0,255)" />
	<polyline points="390.5,30.5 391.081,30.4477 391.633,30.3848 392.185,30.3223 392.746,30.2614 393.337,30.2302 393.927,30.1992 394.552,30.1704 395.176,30.1419 395.798,30.114 396.421,30.0994 397.044,30.0854 397.666,30.0819 398.288,30.0789 398.879,30.0707 399.467,30.0645 400.056,30.0587 400.63,30.0567 401.204,30.0552 401.786,30.0512 402.372,30.0515 402.959,30.0523 403.566,30.0514 404.175,30.0512 404.805,30.0593 405.453,30.0578 406.105,30.0572 406.769,30.0594 407.433,30.063 408.104,30.068 408.761,30.0897 409.381,30.1564 410.005,30.2274 410.576,30.3215 411.154,30.4169 411.733,30.5278 412.285,30.6426 412.842,30.7585 413.352,30.8831 413.863,31.0087 414.405,31.1741 414.951,31.3419 415.461,31.4613 415.974,31.5818 416.512,31.7072 417.054,31.8344 417.605,31.9444 418.163,32.0559 418.777,32.1551 419.406,32.2595 420.043,32.366 420.581,32.4964 421.125,32.6286 421.684,32.7653 422.25,32.904 422.766,33.0554 423.277,33.2091 423.792,33.365 424.288,33.5313 424.788,33.6998 425.288,33.8734 425.791,34.0488 426.291,34.2233 426.793,34.3992 427.283,34.5842 427.774,34.7712 428.282,34.9561 428.828,35.1959 429.319,35.3739 429.81,35.5529 430.342,35.7582 430.874,35.9649 431.37,36.1418 431.866,36.3195 432.39,36.5169 432.913,36.7157 433.403,36.9109 433.89,37.1136 434.416,37.3191 434.941,37.5246 435.422,37.7301 435.902,37.9353 436.509,38.2228 437.112,38.5095 437.588,38.7228 438.062,38.935 438.644,39.2566 439.222,39.5782 439.707,39.815 440.189,40.0507 440.669,40.304 441.147,40.5571 441.628,40.8241 442.105,41.092 442.63,41.4228 443.148,41.7501 443.633,42.0529 444.095,42.346 444.594,42.6783 445.083,43.0058 445.574,43.356 446.051,43.6967 446.524,44.0303 447.132,44.5341 447.612,44.8953 448.095,45.2767 448.552,45.6115 449.002,45.9418 449.496,46.3247 449.981,46.7002 450.446,47.054 450.927,47.4047 451.377,47.7629 451.909,48.2555 452.366,48.6207 452.826,48.9898 453.286,49.3746 453.752,49.7675 454.224,50.1688 454.678,50.5452 455.137,50.9278 455.585,51.3012 456.036,51.6784 456.487,52.0552 456.951,52.4518 457.427,52.883 457.818,53.191 458.266,53.5941 458.713,53.9977 459.152,54.4129 459.613,54.8507 460.015,55.1856 460.449,55.5951 460.882,56.0047 461.327,56.4436 461.771,56.8822 462.201,57.3226 462.634,57.756 463.069,58.1922 463.499,58.6391 463.933,59.0906 464.364,59.5529 464.798,60.0213 465.111,60.4166 465.532,60.8862 465.887,61.3151 466.281,61.7904 466.675,62.2678 467.071,62.7493 467.434,63.2042 467.77,63.6424 468.238,64.2332 468.57,64.6841 468.902,65.1394 469.225,65.5852 469.552,66.0365 469.866,66.4821 470.185,66.9339 470.486,67.3797 470.791,67.8314 471.198,68.3631 471.512,68.8207 471.823,69.2818 472.138,69.7514 472.444,70.2189 472.774,70.7168 473.106,71.2213 473.386,71.686 473.667,72.154 473.953,72.6397 474.239,73.135 474.512,73.6204 474.786,74.1069 475.15,74.7116 475.405,75.2061 475.676,75.7161 475.944,76.2259 476.189,76.7418 476.441,77.2673 476.693,77.7932 476.898,78.3428 477.1,78.8898 477.362,79.435 477.623,79.9827 477.87,80.5737 478.115,81.1697 478.34,81.67 478.567,82.1749 478.792,82.7188 479.018,83.2698 479.252,83.8012 479.472,84.3317 479.694,84.8679 479.971,85.4607 480.185,85.9946 480.408,86.5281 480.632,87.0662 480.828,87.6027 481.025,88.143 481.219,88.6812 481.415,89.222 481.603,89.7565 481.786,90.3033 481.969,90.8525 482.154,91.4033 482.338,91.9562 482.522,92.5051 482.705,93.055 482.888,93.6162 483.068,94.1781 483.245,94.7375 483.423,95.3107 483.6,95.881 483.771,96.45 483.94,97.0154 484.103,97.5758 484.265,98.131 484.438,98.7206 484.591,99.2792 484.74,99.8316 484.947,100.49 485.108,101.071 485.243,101.626 485.376,102.175 485.527,102.743 485.65,103.299 485.772,103.85 485.909,104.413 486.046,104.973 486.169,105.504 486.292,106.03 486.432,106.596 486.571,107.158 486.698,107.666 486.825,108.172 487.009,108.751 487.136,109.257 487.262,109.762 487.415,110.33 487.568,110.896 487.694,111.403 487.821,111.908 488.012,112.52 488.158,113.103 488.279,113.629 488.399,114.151 488.539,114.749 488.649,115.289 488.758,115.823 488.884,116.422 489.005,117.017 489.1,117.566 489.192,118.105 489.3,118.699 489.405,119.281 489.485,119.836 489.571,120.443 489.657,121.04 489.733,121.607 489.808,122.165 489.88,122.791 489.946,123.379 490.01,123.96 490.072,124.589 490.133,125.213 490.193,125.79 490.245,126.413 490.296,127.039 490.348,127.623 490.399,128.212 490.451,128.827 490.502,129.405 490.554,129.987 490.608,130.591 490.662,131.197 490.717,131.767 490.78,132.348 490.842,132.934 490.902,133.501 490.962,134.072 491.025,134.657 491.086,135.258 491.146,135.819 491.206,136.407 491.265,136.996 491.32,137.57 491.375,138.144 491.431,138.748 491.481,139.34 491.53,139.924 491.576,140.55 491.62,141.163 491.655,141.766 491.687,142.406 491.716,143.037 491.741,143.652 491.764,144.265 491.779,144.884 491.793,145.5 491.806,146.118 491.812,146.727 491.818,147.34 491.823,147.96 491.825,148.563 491.827,149.173 491.827,149.79 491.826,150.394 491.825,151.004 491.823,151.614 491.821,152.228 491.821,152.84 491.817,153.446 491.813,154.054 491.809,154.671 491.806,155.291 491.804,155.898 491.801,156.508 491.799,157.121 491.797,157.728 491.796,158.337 491.795,158.948 491.793,159.556 491.792,160.165 491.792,160.774 491.792,161.385 491.791,161.994 491.792,162.604 491.792,163.211 491.792,163.821 491.793,164.433 491.793,165.041 491.792,165.655 491.791,166.265 491.787,166.872 491.78,167.487 491.772,168.099 491.762,168.707 491.75,169.324 491.737,169.938 491.719,170.545 491.7,171.148 491.682,171.767 491.655,172.374 491.626,172.975 491.597,173.59 491.567,174.201 491.539,174.815 491.512,175.429 491.485,176.044 491.455,176.652 491.425,177.261 491.395,177.862 491.363,178.478 491.331,179.092 491.299,179.683 491.266,180.271 491.231,180.894 491.194,181.471 491.157,182.043 491.118,182.659 491.078,183.275 491.028,183.823 490.978,184.439 490.925,185.042 490.871,185.598 490.817,186.161 490.759,186.775 490.708,187.354 490.657,187.939 490.601,188.559 490.543,189.186 490.481,189.76 490.415,190.353 490.348,190.951 490.275,191.516 490.201,192.084 490.124,192.66 490.048,193.24 489.963,193.792 489.883,194.372 489.802,194.954 489.71,195.503 489.618,196.054 489.528,196.617 489.438,197.182 489.346,197.717 489.252,198.295 489.157,198.875 489.066,199.421 488.974,199.967 488.879,200.557 488.784,201.144 488.69,201.692 488.597,202.235 488.504,202.831 488.418,203.398 488.333,203.958 488.234,204.555 488.136,205.145 488.051,205.715 487.949,206.316 487.848,206.899 487.756,207.466 487.663,208.037 487.564,208.625 487.464,209.22 487.372,209.813 487.271,210.361 487.17,210.92 487.072,211.544 486.974,212.182 486.869,212.712 486.762,213.303 486.651,213.927 486.54,214.465 486.428,215.015 486.297,215.615 486.164,216.225 486.043,216.762 485.895,217.318 485.745,217.879 485.606,218.398 485.465,218.925 485.297,219.491 485.126,220.064 484.972,220.597 484.828,221.144 484.655,221.695 484.478,222.249 484.304,222.778 484.128,223.319 483.951,223.863 483.777,224.398 483.602,224.934 483.427,225.465 483.253,225.997 483.085,226.528 482.918,227.059 482.755,227.596 482.593,228.131 482.427,228.661 482.261,229.189 482.099,229.73 481.937,230.267 481.777,230.805 481.602,231.354 481.428,231.899 481.263,232.437 481.098,232.972 480.919,233.535 480.698,234.174 480.514,234.722 480.328,235.275 480.138,235.838 479.952,236.402 479.708,237.039 479.523,237.595 479.337,238.15 479.134,238.755 478.94,239.356 478.759,239.992 478.563,240.569 478.364,241.148 478.163,241.702 477.961,242.258 477.755,242.815 477.552,243.334 477.348,243.854 477.134,244.383 476.844,244.971 476.636,245.471 476.426,245.975 476.196,246.493 475.964,247.014 475.746,247.517 475.526,248.022 475.281,248.543 475.035,249.064 474.819,249.566 474.603,250.068 474.359,250.579 474.114,251.087 473.888,251.592 473.666,252.095 473.405,252.622 473.144,253.145 472.916,253.656 472.685,254.169 472.409,254.703 472.134,255.235 471.823,255.86 471.54,256.41 471.259,256.958 471,257.49 470.75,258.011 470.476,258.543 470.2,259.075 469.941,259.59 469.681,260.094 469.401,260.611 469.121,261.125 468.808,261.709 468.499,262.283 468.201,262.801 467.943,263.296 467.692,263.779 467.422,264.26 467.151,264.74 466.881,265.217 466.643,265.674 466.405,266.129 466.149,266.585 465.891,267.038 465.65,267.483 465.409,267.927 465.122,268.407 464.868,268.849 464.615,269.294 464.363,269.734 464.112,270.169 463.672,270.775 463.375,271.242 463.082,271.702 462.766,272.172 462.325,272.75 461.946,273.247 461.633,273.702 461.319,274.15 460.934,274.649 460.595,275.106 460.151,275.643 459.643,276.213 459.032,276.791 458.529,277.276 458.043,277.745 457.562,278.186 457.102,278.587 456.636,279.01 456.212,279.366 455.788,279.722 455.331,280.113 454.891,280.474 454.491,280.764 454.09,281.053 453.642,281.424 453.191,281.796 452.741,282.165 452.277,282.543 451.809,282.923 451.191,283.494 450.628,284.004 450.164,284.373 449.722,284.683 449.281,284.993 448.798,285.382 448.341,285.74 447.885,286.097 447.377,286.576 446.87,287.051 446.421,287.401 445.974,287.748 445.57,288.03 445.165,288.307 444.754,288.594 444.343,288.879 443.94,289.134 443.548,289.378 443.157,289.621 442.746,289.869 442.334,290.112 441.906,290.365 441.516,290.573 441.125,290.78 440.68,291.028 440.192,291.283 439.734,291.539 439.277,291.793 438.821,292.045 438.35,292.216 437.881,292.388 437.434,292.562 436.985,292.732 436.522,292.868 436.056,293 435.517,293.156 434.953,293.26 434.347,293.292 433.73,293.317 432.966,293.27 " fill="none" stroke-width="1" stroke="rgb(0,0,255)" />
	<polyline points="432.966,293.27 432.291,293.256 431.516,293.267 430.741,293.279 430.04,293.298 429.274,293.32 428.576,293.352 427.879,293.384 427.108,293.411 426.398,293.443 425.691,293.475 424.908,293.501 424.194,293.531 423.412,293.556 422.636,293.58 421.925,293.608 421.139,293.629 420.371,293.648 419.568,293.659 418.77,293.669 417.979,293.68 417.184,293.685 416.377,293.69 415.581,293.683 414.781,293.676 413.948,293.666 413.147,293.646 412.309,293.626 411.547,293.58 410.797,293.518 410.005,293.461 409.274,293.399 408.52,293.336 407.761,293.272 407.044,293.205 406.327,293.134 405.612,293.064 404.893,292.992 404.138,292.93 403.365,292.874 402.547,292.822 401.716,292.769 400.992,292.7 400.237,292.617 399.528,292.532 398.813,292.447 398.067,292.352 397.346,292.266 396.572,292.175 395.787,292.083 395.05,292 394.322,291.888 393.644,291.799 392.961,291.713 392.232,291.61 391.644,291.473 391.055,291.335 390.414,291.197 389.773,291.058 " fill="none" stroke-width="1" stroke="rgb(0,0,255)" />
	<polyline points="387.772,31.4767 387.274,30.9019 386.141,30.7737 385.176,30.5138 384.053,30.3557 382.8,30.2051 381.455,30.0693 380.046,29.9335 378.592,29.7934 377.344,29.6297 375.982,29.5552 374.875,29.3985 373.565,29.2888 372.136,29.1998 370.725,29.1051 369.38,29.0221 368.054,28.9569 366.719,28.8992 365.421,28.8475 364.126,28.8023 362.82,28.7601 361.53,28.718 360.24,28.6804 358.939,28.6459 357.648,28.614 356.35,28.5882 355.049,28.5648 353.764,28.544 352.466,28.5237 351.165,28.5047 349.883,28.4877 348.586,28.4741 347.277,28.4617 345.998,28.4493 344.683,28.4367 343.396,28.4243 342.099,28.4135 340.792,28.4063 339.495,28.4007 338.197,28.3986 336.91,28.3976 335.605,28.3976 334.312,28.3983 333.016,28.3996 331.727,28.4022 330.426,28.4056 329.125,28.4068 327.84,28.4075 326.541,28.4047 325.233,28.4048 323.954,28.4056 322.645,28.4109 321.34,28.4142 320.065,28.4171 318.748,28.4196 317.465,28.4203 316.175,28.4211 314.864,28.422 313.576,28.423 312.283,28.4254 310.983,28.4286 309.688,28.4342 308.395,28.4414 307.098,28.4507 305.796,28.4595 304.494,28.47 303.199,28.4834 301.897,28.5071 300.602,28.5406 299.302,28.5787 298.016,28.6254 296.704,28.6721 295.406,28.7274 294.25,28.8086 292.992,28.8938 291.75,28.9854 290.472,29.0776 289.216,29.166 288.065,29.2494 286.778,29.3218 285.528,29.387 284.197,29.4255 282.879,29.4576 281.577,29.4897 280.281,29.5265 278.988,29.567 277.698,29.6102 276.397,29.6505 275.068,29.6889 273.811,29.743 272.55,29.8144 271.312,29.9059 270.051,29.9917 268.823,30.0986 267.704,30.1978 266.386,30.2879 265.048,30.3806 263.869,30.4709 262.529,30.5623 261.201,30.6505 260.146,30.7422 258.649,30.829 257.506,30.9281 256.435,31.0197 254.936,31.1077 253.794,31.1883 252.524,31.2614 251.253,31.3376 250.006,31.4084 248.671,31.4719 247.383,31.5332 246.095,31.5959 244.792,31.6581 243.496,31.7158 242.224,31.7773 241.035,31.8531 239.825,31.9344 238.511,32.0087 237.207,32.0842 235.974,32.1647 234.776,32.2391 233.523,32.3121 232.224,32.3794 230.935,32.4446 229.635,32.5102 228.32,32.5752 227.04,32.6441 225.719,32.7193 224.441,32.8029 223.293,32.9028 221.983,33.0034 220.755,33.119 219.5,33.2329 218.273,33.3383 217.028,33.4451 215.762,33.5496 214.503,33.642 213.206,33.7235 211.922,33.8032 210.693,33.8814 209.451,33.9762 208.11,34.0604 206.894,34.16 205.588,34.2474 204.333,34.3305 203.077,34.407 201.76,34.4802 200.468,34.549 199.19,34.6224 197.878,34.6893 196.591,34.7558 195.382,34.833 194.122,34.9126 192.809,34.9875 191.516,35.0655 190.289,35.1506 189.001,35.2151 187.753,35.2902 186.442,35.357 185.143,35.4236 183.846,35.4952 182.557,35.569 181.276,35.6462 179.992,35.7214 178.851,35.8027 177.59,35.8839 176.261,35.9626 175.035,36.0528 173.712,36.1328 172.545,36.2106 171.275,36.2795 169.951,36.3398 168.669,36.3937 167.369,36.4411 166.059,36.477 164.769,36.5134 163.465,36.5494 162.17,36.5924 160.886,36.6379 159.588,36.674 158.282,36.6943 157.037,36.7165 155.846,36.7459 154.597,36.7762 153.307,36.8025 152.004,36.8271 150.712,36.8528 149.405,36.8806 148.093,36.9194 146.824,36.9757 145.51,37.0321 144.22,37.0995 142.94,37.1663 141.688,37.2389 140.502,37.2996 139.232,37.3417 137.922,37.3498 136.633,37.3505 135.337,37.3601 134.032,37.3729 132.738,37.3863 131.442,37.4077 130.196,37.4442 128.94,37.4566 127.657,37.4763 126.363,37.4918 125.065,37.5041 123.769,37.5181 122.468,37.5341 121.173,37.5595 119.879,37.5853 118.581,37.617 117.289,37.6541 115.994,37.6885 114.7,37.726 113.433,37.7608 112.257,37.8018 110.988,37.8477 109.733,37.8891 108.429,37.9303 107.119,37.9582 105.826,37.9737 104.525,37.987 103.229,37.9886 101.928,37.9897 100.633,37.9878 99.3433,37.982 98.0365,37.9785 96.7512,37.9807 95.4501,37.9886 94.1463,37.9916 92.8628,37.9973 91.5571,38.0058 90.2556,38.0207 88.9628,38.0449 87.6591,38.074 86.3593,38.1233 85.0531,38.1853 83.8293,38.2479 82.6146,38.3185 81.3121,38.3832 80.0647,38.4464 78.6976,38.5152 77.4073,38.5861 76.183,38.6676 74.7903,38.7624 73.6778,38.8609 72.3802,38.9835 71.0757,39.1102 70.0506,39.2282 68.6537,39.3333 67.2784,39.4387 66.0613,39.5471 64.7494,39.6716 63.5172,39.7956 62.2678,39.9442 61.0961,40.1181 59.815,40.3061 58.6676,40.5215 57.3886,40.7699 56.1181,41.0541 55.0805,41.3658 53.7927,41.7817 52.7196,42.1809 51.6114,42.6378 50.6604,43.1016 49.666,43.5944 48.4494,44.2775 47.4422,44.9501 46.519,45.6164 45.3399,46.6262 44.3609,47.5297 43.3863,48.4673 42.5159,49.3833 41.4982,50.5092 40.5998,51.5669 39.6936,52.7253 39.1824,53.5878 38.5272,54.6777 38.0237,55.631 37.4941,56.6279 37.0448,57.5668 36.4675,58.6526 35.9871,59.6492 35.463,60.6594 34.7368,62.1642 34.3182,63.0751 33.9006,64.0994 33.4503,65.1507 33.0763,66.2025 32.6985,67.3228 32.3355,68.4369 31.9834,69.644 31.6689,70.7588 31.3162,72.0056 31.0084,73.1897 30.6771,74.3031 30.3403,75.4995 29.9797,76.7209 29.6718,77.7495 29.2549,79.0809 28.9524,80.1331 28.585,81.4305 28.29,82.5193 27.9949,83.6467 27.6432,84.9933 27.3529,86.1017 27.0035,87.3904 26.7111,88.5464 26.4299,89.6783 26.1393,90.9454 25.8805,92.0726 25.6292,93.2586 25.3958,94.4445 25.166,95.7343 24.9568,96.8554 24.7475,98.1215 24.5561,99.3121 24.3716,100.601 24.1973,101.822 24.0233,103.019 23.8486,104.304 23.6879,105.524 23.542,106.806 23.3928,108.045 23.2361,109.309 23.0724,110.483 22.8967,111.598 22.7195,112.837 22.5542,114.002 22.3867,115.33 22.2409,116.584 22.0999,117.802 21.9327,119.021 21.7971,120.334 21.6409,121.525 21.512,122.797 21.4112,124.123 21.3128,125.417 21.2241,126.702 21.1519,128.021 21.047,129.179 20.953,130.475 20.846,131.715 20.7436,132.94 20.6465,134.22 20.5477,135.482 20.4643,136.801 20.3921,138.078 20.327,139.388 20.2758,140.725 20.209,141.893 20.1536,143.285 20.0777,144.514 20.0175,145.684 19.9605,147.081 19.9062,148.263 19.8665,149.579 19.8425,150.895 19.8223,152.176 19.8055,153.48 19.7964,154.786 19.7926,156.067 19.7854,157.373 19.7895,158.675 19.784,159.959 19.77,161.267 19.7534,162.555 19.7445,163.845 19.7366,165.156 19.7253,166.443 19.7286,167.737 19.7291,169.043 19.722,170.331 19.7061,171.631 19.7002,172.931 19.6926,174.222 19.6969,175.522 19.6972,176.815 19.6935,178.115 19.6868,179.408 19.6767,180.702 19.6811,182.003 19.6796,183.298 19.6804,184.595 19.6843,185.887 19.6969,187.188 19.7045,188.482 19.699,189.776 19.6956,191.077 19.7009,192.372 19.7203,193.673 19.7542,194.966 19.7934,196.271 19.8416,197.569 19.9044,198.819 19.9849,200.047 20.0198,201.282 20.0274,202.565 20.1017,203.889 20.1916,205.137 20.2679,206.424 20.3373,207.662 20.4195,208.916 20.5018,210.207 20.5938,211.523 20.695,212.831 20.7906,214.067 20.9093,215.318 21.0109,216.552 21.115,217.76 21.2428,219.038 21.3496,220.326 21.5034,221.709 21.6933,223.111 21.8874,224.302 22.2251,225.493 22.5382,226.673 22.7953,227.658 23.1584,228.905 23.4519,229.891 23.8755,231.278 24.146,232.415 24.5183,233.609 24.8967,234.768 25.2634,235.9 25.6356,237.012 26.0299,238.233 26.3821,239.37 26.7765,240.595 27.1401,241.778 27.4636,242.913 27.8648,244.131 28.2015,245.474 28.571,246.602 28.9905,247.824 29.3841,248.927 29.8491,250.146 30.2573,251.274 30.6829,252.396 31.1188,253.482 31.657,254.685 32.0799,255.686 32.6784,256.876 33.1569,257.837 33.8319,259.006 34.4298,259.994 35.128,261.058 35.8022,262.05 36.5937,263.139 37.3676,264.17 38.2684,265.318 38.9194,266.18 39.7245,267.209 40.4844,268.168 41.2792,269.134 42.1473,270.131 42.9893,271.08 43.9051,272.094 44.732,273.039 45.5313,273.976 46.4302,275.021 47.0595,275.788 47.9916,276.8 48.9302,277.778 49.9983,278.746 50.7845,279.371 52.2416,280.61 53.0535,281.15 53.9292,281.707 54.971,282.379 55.9265,282.976 56.9342,283.603 58.2071,284.442 59.3144,285.127 60.4296,285.804 61.4407,286.367 62.575,286.955 63.6312,287.516 64.6244,287.987 65.8003,288.566 66.8361,289.009 68.012,289.517 69.0933,289.916 70.2416,290.313 71.3517,290.675 72.8604,291.169 73.9393,291.47 75.1144,291.794 76.2442,292.068 77.3742,292.349 78.6668,292.624 79.8128,292.84 81.1005,293.097 82.1723,293.291 83.5174,293.515 84.8596,293.708 86.029,293.875 87.2148,294.051 88.4441,294.201 89.6714,294.333 90.9301,294.465 92.2135,294.582 93.4861,294.693 94.704,294.798 95.9274,294.906 97.3029,295.012 98.5481,295.138 99.735,295.269 101.035,295.38 102.248,295.505 103.519,295.635 104.665,295.782 105.93,295.94 107.118,296.095 108.357,296.24 109.614,296.378 110.924,296.491 112.261,296.595 113.553,296.688 114.803,296.768 116.039,296.869 117.214,296.956 118.504,297.069 119.767,297.175 120.957,297.258 122.238,297.352 123.505,297.442 124.823,297.529 126.105,297.619 127.405,297.707 128.624,297.803 129.903,297.89 131.178,297.98 132.479,297.989 133.779,298.043 135.079,298.086 136.378,298.117 137.684,298.15 138.939,298.183 140.213,298.203 141.493,298.214 142.78,298.224 144.09,298.235 145.378,298.243 146.673,298.255 147.974,298.259 149.268,298.272 150.567,298.273 151.865,298.273 153.156,298.267 154.455,298.267 155.751,298.269 157.049,298.272 158.342,298.277 159.64,298.284 160.944,298.292 162.229,298.296 163.531,298.288 164.832,298.281 166.115,298.278 167.417,298.268 168.721,298.258 170.002,298.253 171.315,298.242 172.602,298.24 173.889,298.245 175.201,298.238 176.489,298.243 177.804,298.247 179.037,298.245 180.308,298.24 181.559,298.214 182.852,298.187 184.154,298.163 185.448,298.14 186.749,298.125 188.044,298.114 189.348,298.108 190.644,298.104 191.923,298.103 193.238,298.108 194.525,298.107 195.817,298.095 197.125,298.092 198.411,298.068 199.71,298.046 201.003,298.044 202.313,298.031 203.605,298.017 204.889,298.002 206.207,297.98 207.488,297.962 208.771,297.951 210.095,297.953 211.379,297.954 212.663,297.951 213.982,297.963 215.254,297.974 216.562,297.992 217.869,297.957 219.195,297.953 220.427,298.012 221.737,297.997 223.026,297.959 224.352,297.961 225.638,297.937 226.944,297.914 228.244,297.869 229.497,297.812 230.853,297.816 232.128,297.873 233.403,297.945 234.694,297.894 236.003,297.888 237.308,297.868 238.6,297.864 239.89,297.858 241.201,297.849 242.489,297.84 243.777,297.829 245.095,297.821 246.391,297.803 247.675,297.769 249.002,297.736 250.221,297.678 251.425,297.63 252.716,297.596 253.986,297.564 255.304,297.54 256.59,297.519 257.881,297.506 259.192,297.495 260.482,297.486 261.773,297.474 263.076,297.463 264.368,297.45 265.666,297.435 266.961,297.414 268.259,297.39 269.549,297.361 270.841,297.332 272.145,297.307 273.439,297.285 274.735,297.26 276.019,297.222 277.247,297.182 278.513,297.128 279.818,297.082 281.1,297.026 282.406,296.977 283.697,296.922 284.962,296.866 286.168,296.806 287.426,296.764 288.722,296.725 290.027,296.687 291.321,296.647 292.618,296.611 293.912,296.575 295.214,296.538 296.506,296.5 297.798,296.462 299.099,296.426 300.395,296.391 301.681,296.355 302.972,296.319 304.225,296.288 305.522,296.242 306.837,296.189 308.063,296.135 309.424,296.075 310.712,295.999 311.875,295.938 313.181,295.88 314.376,295.833 315.654,295.809 316.961,295.791 318.255,295.766 319.553,295.742 320.856,295.715 322.149,295.678 323.446,295.636 324.728,295.586 326.012,295.542 327.321,295.5 328.612,295.46 329.903,295.423 331.215,295.386 332.51,295.353 333.79,295.32 335.117,295.287 336.412,295.257 337.682,295.216 338.981,295.174 340.2,295.118 341.47,295.064 342.745,295.008 344.076,294.96 345.345,294.897 346.599,294.829 347.803,294.756 349.087,294.701 350.336,294.644 351.623,294.598 352.947,294.564 354.25,294.528 355.542,294.487 356.834,294.445 358.132,294.406 359.424,294.365 360.724,294.331 362.031,294.295 363.325,294.258 364.616,294.214 365.923,294.168 367.256,294.118 368.608,294.06 369.954,293.99 371.074,293.877 372.24,293.776 373.597,293.692 374.767,293.578 375.898,293.469 377.361,293.41 378.7,293.305 379.91,293.179 381.275,293.058 382.554,292.909 383.923,292.762 385.327,292.598 386.637,292.41 387.858,292.204 389.089,292.008 389.773,291.058 " fill="none" stroke-width="1" stroke="rgb(0,0,255)" />
	<polyline points="387.772,31.4767 388.088,31.3623 388.393,31.2542 388.697,31.1463 389,31.0387 389.299,30.9298 389.596,30.8211 389.893,30.7127 390.197,30.6063 390.5,30.5 " fill="none" stroke-width="1" stroke="rgb(0,0,255)" />
	<polyline points="389.773,291.058 389.162,290.537 388.825,289.738 388.334,289.368 387.89,289.018 387.409,288.649 386.909,288.283 386.45,287.962 385.98,287.641 385.51,287.318 385.027,286.988 384.527,286.655 384.028,286.322 383.582,286.023 383.087,285.677 382.58,285.324 382.079,284.975 381.612,284.638 381.154,284.306 380.578,283.856 380.107,283.503 379.599,283.104 379.109,282.721 378.644,282.359 378.181,281.999 377.686,281.603 377.202,281.214 376.752,280.852 376.297,280.475 375.866,280.115 375.317,279.597 374.81,279.118 374.354,278.642 373.897,278.165 373.495,277.821 373.094,277.477 372.609,277.018 372.153,276.549 371.688,276.099 371.28,275.641 370.872,275.182 370.422,274.795 369.977,274.411 369.508,273.946 369.053,273.56 368.591,273.102 368.114,272.638 367.677,272.173 367.285,271.712 366.883,271.237 366.507,270.759 366.165,270.325 365.77,269.868 365.322,269.39 364.883,268.917 364.408,268.379 363.889,267.789 363.588,267.362 363.271,266.911 362.899,266.4 362.545,265.878 362.249,265.416 361.947,264.943 361.59,264.401 361.223,263.84 360.926,263.356 360.62,262.855 360.265,262.295 359.907,261.727 359.616,261.226 359.31,260.704 359.003,260.177 358.707,259.655 358.41,259.129 358.057,258.553 357.774,258.039 357.482,257.501 357.192,256.962 356.924,256.456 356.636,255.922 356.304,255.283 355.958,254.687 355.707,254.173 355.458,253.62 355.207,253.06 354.96,252.534 354.694,251.987 354.448,251.416 354.2,250.837 353.946,250.282 353.694,249.701 353.443,249.118 353.202,248.562 352.962,248.005 352.719,247.421 352.477,246.837 352.279,246.286 352.004,245.655 351.799,245.079 351.595,244.518 351.389,243.953 351.189,243.365 350.99,242.776 350.795,242.2 350.596,241.615 350.399,241.031 350.214,240.442 350.032,239.857 349.846,239.272 349.658,238.669 349.473,238.071 349.305,237.49 349.142,236.92 348.914,236.275 348.759,235.7 348.607,235.133 348.448,234.524 348.293,233.924 348.168,233.299 348.036,232.689 347.89,232.099 347.754,231.486 347.621,230.884 347.492,230.301 347.328,229.684 347.168,229.081 347.051,228.51 346.949,227.907 346.856,227.266 346.781,226.641 346.711,226.046 346.656,225.4 346.603,224.777 346.557,224.175 346.523,223.545 346.49,222.923 346.462,222.301 346.443,221.676 346.426,221.055 346.411,220.434 346.396,219.807 346.385,219.192 346.374,218.572 346.364,217.946 346.356,217.332 346.348,216.712 346.342,216.088 346.336,215.473 346.331,214.851 346.327,214.231 346.321,213.614 346.316,212.991 346.312,212.375 346.308,211.755 346.301,211.13 346.296,210.516 346.291,209.898 346.286,209.272 346.281,208.656 346.276,208.038 346.269,207.417 346.263,206.795 346.255,206.177 346.251,205.558 346.246,204.94 346.24,204.319 346.234,203.698 346.23,203.083 346.228,202.46 346.226,201.839 346.225,201.225 346.224,200.601 346.223,199.978 346.222,199.361 346.222,198.748 346.22,198.118 346.223,197.502 346.227,196.89 346.232,196.257 346.238,195.643 346.245,195.035 346.254,194.406 346.264,193.779 346.278,193.179 346.293,192.554 346.308,191.926 346.326,191.309 346.35,190.688 346.374,190.069 346.39,189.446 346.406,188.822 346.43,188.208 346.454,187.587 346.478,186.962 346.511,186.349 346.549,185.735 346.585,185.106 346.629,184.495 346.674,183.885 346.714,183.242 346.768,182.64 346.824,182.039 346.874,181.407 346.924,180.776 346.982,180.185 347.032,179.557 347.083,178.924 347.142,178.319 347.202,177.714 347.25,177.076 347.299,176.465 347.349,175.853 347.396,175.227 347.44,174.612 347.485,173.997 347.532,173.376 347.583,172.758 347.631,172.144 347.682,171.522 347.732,170.899 347.787,170.287 347.845,169.665 347.903,169.046 347.959,168.434 348.014,167.821 348.069,167.189 348.129,166.583 348.19,165.969 348.247,165.349 348.304,164.723 348.364,164.115 348.424,163.499 348.485,162.876 348.549,162.266 348.612,161.65 348.675,161.028 348.743,160.417 348.81,159.804 348.871,159.177 348.946,158.568 349.02,157.957 349.087,157.338 349.154,156.726 349.221,156.103 349.287,155.491 349.352,154.883 349.421,154.25 349.489,153.643 349.557,153.045 349.626,152.41 349.695,151.78 349.768,151.199 349.844,150.563 349.921,149.925 350.003,149.33 350.091,148.744 350.173,148.092 350.258,147.49 350.343,146.888 350.426,146.268 350.508,145.648 350.59,145.024 350.678,144.423 350.767,143.823 350.853,143.176 350.948,142.586 351.045,141.997 351.132,141.359 351.219,140.727 351.309,140.147 351.393,139.516 351.476,138.884 351.57,138.315 351.65,137.673 351.731,137.013 351.834,136.442 351.937,135.873 352.002,135.164 352.106,134.596 352.213,134.009 352.318,133.387 352.424,132.758 352.531,132.168 352.653,131.556 352.776,130.935 352.892,130.339 353.008,129.741 353.138,129.127 353.27,128.531 353.401,127.936 353.529,127.319 353.657,126.702 353.789,126.096 353.912,125.5 354.034,124.903 354.166,124.289 354.28,123.682 354.392,123.087 354.51,122.461 354.628,121.841 354.733,121.254 354.841,120.621 354.949,119.989 355.055,119.399 355.162,118.803 355.272,118.165 355.381,117.565 355.492,116.959 355.608,116.347 355.725,115.726 355.843,115.121 355.975,114.526 356.108,113.926 356.233,113.318 356.359,112.707 356.491,112.1 356.624,111.502 356.757,110.902 356.894,110.296 357.029,109.705 357.158,109.095 357.299,108.486 357.439,107.885 357.569,107.261 357.712,106.66 357.852,106.08 357.968,105.448 358.114,104.81 358.246,104.237 358.389,103.62 358.534,102.989 358.665,102.415 358.8,101.826 358.959,101.183 359.096,100.62 359.233,100.059 359.395,99.4301 359.556,98.8058 359.697,98.2605 359.864,97.6187 360.034,96.9679 360.176,96.4056 360.323,95.8267 360.489,95.2089 360.633,94.6228 360.776,94.0372 360.929,93.4204 361.083,92.8061 361.228,92.2396 361.389,91.6174 361.549,90.9967 361.697,90.4287 361.845,89.8613 362.058,89.2085 362.211,88.6266 362.363,88.0482 362.527,87.4351 362.691,86.8223 362.85,86.2463 363.009,85.638 363.178,84.9932 363.339,84.4225 363.502,83.8481 363.675,83.2181 363.831,82.6607 363.987,82.1037 364.159,81.4863 364.334,80.8613 364.484,80.2795 364.655,79.6695 364.824,79.0642 364.971,78.4821 365.105,77.8384 365.275,77.2456 365.434,76.6617 365.593,76.0788 365.782,75.4738 365.971,74.8705 366.145,74.2951 366.319,73.7208 366.514,73.111 366.701,72.5266 366.885,71.953 367.073,71.3561 367.274,70.7271 367.456,70.1523 367.648,69.5588 367.84,68.9644 368.027,68.3844 368.196,67.7544 368.397,67.152 368.59,66.5872 368.784,66.0172 368.997,65.4325 369.263,64.7691 369.465,64.2209 369.7,63.6493 369.939,63.0678 370.148,62.5277 370.36,61.9803 370.615,61.398 370.873,60.81 371.098,60.2684 371.343,59.702 371.593,59.1234 371.851,58.5677 372.109,58.0113 372.356,57.4528 372.604,56.8925 372.872,56.3387 373.206,55.7211 373.441,55.1808 373.721,54.6174 374.004,54.0498 374.247,53.5116 374.491,52.9704 374.774,52.4109 375.057,51.8509 375.302,51.317 375.547,50.7833 375.848,50.1989 376.099,49.6676 376.35,49.1395 376.646,48.5793 376.941,48.0218 377.212,47.4898 377.478,46.9674 377.779,46.4209 378.071,45.889 378.356,45.375 378.634,44.8756 378.954,44.343 379.241,43.8557 379.525,43.38 379.796,42.9261 380.414,42.1783 380.748,41.696 381.065,41.2349 381.474,40.7192 381.862,40.2264 382.279,39.7206 382.678,39.2338 383.06,38.7656 383.46,38.29 383.849,37.8245 384.256,37.3247 384.658,36.8297 384.983,36.3731 385.381,35.8643 385.764,35.3371 386.147,34.809 386.466,34.2819 386.783,33.7596 387.03,33.2128 387.246,32.6422 387.459,32.0603 387.772,31.4767 " fill="none" stroke-width="1" stroke="rgb(0,0,255)" />
	<polyline points="427.785,213.242 427.261,213.299 426.679,213.339 426.098,213.38 425.49,213.403 424.883,213.427 424.248,213.439 423.607,213.433 422.964,213.418 422.31,213.397 421.659,213.371 421.007,213.344 420.349,213.313 419.688,213.283 419.039,213.241 418.402,213.186 417.784,213.106 417.209,212.977 416.68,212.823 416.148,212.667 415.659,212.465 415.163,212.268 414.661,212.044 414.175,211.778 413.631,211.404 413.085,210.971 412.592,210.551 412.081,210.124 411.609,209.565 411.12,208.987 410.782,208.533 410.455,208.074 410.129,207.59 409.789,207.076 409.409,206.539 409.012,205.983 408.664,205.462 408.309,204.933 408.056,204.473 407.797,203.997 407.527,203.518 407.256,203.037 407.027,202.57 406.794,202.089 406.523,201.586 406.252,201.082 406.028,200.59 405.81,200.082 405.576,199.558 405.344,199.035 405.142,198.498 404.929,197.927 404.719,197.333 404.513,196.75 404.239,196.088 404.037,195.511 403.84,194.92 403.644,194.349 403.452,193.786 403.248,193.199 403.054,192.654 402.857,192.105 402.629,191.525 402.405,190.951 402.211,190.408 402.021,189.87 401.795,189.307 401.576,188.753 401.382,188.217 401.12,187.605 400.891,187.047 400.716,186.517 400.537,185.979 400.363,185.429 400.193,184.887 400.026,184.346 399.868,183.752 399.74,183.094 399.625,182.448 399.515,181.829 399.424,181.139 399.35,180.503 399.276,179.886 399.233,179.225 399.188,178.589 399.155,177.951 399.161,177.333 399.166,176.71 399.177,176.07 399.164,175.469 399.152,174.864 399.164,174.242 399.166,173.642 399.169,173.038 399.155,172.425 399.141,171.808 399.112,171.203 399.078,170.592 399.046,169.978 399.039,169.371 399.034,168.762 399.029,168.126 399.063,167.547 399.1,166.969 399.135,166.353 399.172,165.734 399.203,165.169 399.23,164.526 399.258,163.881 399.288,163.308 399.321,162.742 399.35,162.088 399.376,161.493 399.403,160.904 399.418,160.247 399.431,159.647 399.445,159.055 399.451,158.422 399.457,157.794 399.463,157.194 399.474,156.572 399.485,155.952 399.5,155.357 399.515,154.763 399.534,154.134 399.554,153.527 399.574,152.92 399.596,152.276 399.627,151.641 399.661,151.003 399.703,150.399 399.746,149.783 399.799,149.121 399.855,148.527 399.914,147.914 399.993,147.232 400.083,146.695 400.175,146.147 400.318,145.488 400.464,144.824 400.56,144.277 400.673,143.678 400.789,143.075 400.885,142.511 400.982,141.944 401.078,141.321 401.169,140.669 401.264,139.985 401.389,139.404 401.516,138.815 401.642,138.212 401.788,137.648 401.936,137.079 402.113,136.521 402.293,135.957 402.454,135.389 402.619,134.814 402.788,134.236 402.962,133.67 403.172,133.091 403.382,132.447 403.593,131.803 403.769,131.246 403.947,130.697 404.119,130.166 404.286,129.627 404.454,129.089 404.617,128.562 404.78,128.038 404.946,127.502 405.106,126.972 405.27,126.46 405.434,125.952 405.599,125.409 405.765,124.87 405.913,124.343 406.06,123.825 406.229,123.293 406.399,122.764 406.56,122.263 406.721,121.763 406.908,121.221 407.094,120.729 407.283,120.228 407.565,119.655 407.841,119.092 408.083,118.572 408.345,118.051 408.734,117.429 409.16,116.824 409.577,116.266 410.248,115.546 411.1,114.749 411.676,114.445 412.252,114.141 412.835,113.839 413.412,113.522 413.997,113.201 414.535,112.898 415.065,112.628 415.621,112.296 416.189,111.958 416.685,111.696 417.185,111.432 417.746,111.101 418.244,110.843 418.719,110.588 419.198,110.331 419.684,110.081 420.168,109.832 420.666,109.549 421.166,109.266 421.653,109.006 422.142,108.745 422.642,108.46 423.141,108.176 423.648,107.9 424.167,107.618 424.689,107.327 425.213,107.035 425.784,106.75 426.384,106.449 426.985,106.149 " fill="none" stroke-width="1" stroke="rgb(0,0,255)" />
	<polyline points="426.985,106.149 427.565,106.094 428.144,106.042 428.691,106.002 429.353,105.997 430.028,105.992 430.694,106.007 431.416,106.005 432.139,106.004 432.829,106.047 433.485,106.141 434.141,106.236 434.72,106.37 435.323,106.49 435.918,106.62 436.464,106.779 437.007,106.945 437.474,107.118 437.94,107.291 438.442,107.507 438.943,107.723 439.409,107.898 439.875,108.073 440.338,108.265 440.797,108.464 441.264,108.678 441.729,108.908 442.184,109.184 442.669,109.515 443.154,109.847 443.61,110.145 444.155,110.57 444.814,111.108 445.275,111.436 445.739,111.767 446.198,112.101 446.766,112.613 447.39,113.264 447.763,113.744 448.215,114.281 448.616,114.774 449.079,115.332 449.604,115.945 449.99,116.454 450.293,116.919 450.571,117.371 450.849,117.824 451.093,118.26 451.352,118.708 451.608,119.156 451.831,119.59 452.051,120.024 452.293,120.542 452.533,121.059 452.8,121.56 453.064,122.06 453.266,122.545 453.468,123.031 453.711,123.557 453.953,124.082 454.154,124.576 454.353,125.072 454.533,125.647 454.711,126.225 454.891,126.722 455.068,127.22 455.222,127.828 455.421,128.428 455.617,129.024 455.726,129.669 455.834,130.309 455.936,130.972 456,131.655 456.053,132.36 456.104,133.057 456.142,133.729 456.175,134.403 456.207,135.08 456.234,135.726 456.258,136.376 456.282,137.033 456.303,137.67 456.323,138.315 456.342,138.97 456.359,139.616 456.375,140.271 456.39,140.912 456.405,141.551 456.418,142.198 456.432,142.83 456.443,143.468 456.454,144.115 456.464,144.75 456.472,145.395 456.478,146.044 456.484,146.679 456.488,147.328 456.491,147.981 456.494,148.62 456.496,149.261 456.497,149.912 456.497,150.554 456.497,151.195 456.497,151.843 456.498,152.491 456.498,153.136 456.498,153.785 456.495,154.434 456.491,155.079 456.486,155.719 456.478,156.377 456.469,157.031 456.459,157.667 456.443,158.338 456.428,159.005 456.41,159.641 456.392,160.276 456.37,160.955 456.34,161.582 456.304,162.203 456.268,162.894 456.227,163.506 456.185,164.116 456.137,164.802 456.08,165.385 456.022,165.977 455.972,166.711 455.893,167.299 455.813,167.873 455.732,168.524 455.651,169.163 455.564,169.704 455.473,170.319 455.381,170.939 455.288,171.506 455.194,172.08 455.103,172.747 455.005,173.364 454.905,173.968 454.811,174.662 454.707,175.34 454.604,175.981 454.493,176.64 454.38,177.304 454.268,177.924 454.137,178.55 454.004,179.183 453.89,179.837 453.74,180.411 453.586,180.987 453.432,181.576 453.277,182.17 453.113,182.72 452.936,183.292 452.698,183.921 452.519,184.452 452.34,184.986 452.124,185.55 451.907,186.116 451.718,186.623 451.529,187.13 451.289,187.674 451.047,188.217 450.767,188.766 450.542,189.28 450.315,189.793 450.081,190.287 449.852,190.77 449.644,191.257 449.436,191.742 449.228,192.223 449.002,192.705 448.78,193.175 448.565,193.639 448.35,194.1 448.125,194.564 447.9,195.025 447.637,195.491 447.377,195.954 447.135,196.41 446.894,196.863 446.58,197.353 446.266,197.837 445.994,198.286 445.596,198.83 444.988,199.58 444.511,200.183 444.112,200.701 443.637,201.283 443.138,201.87 442.572,202.401 442.037,202.888 441.494,203.375 440.948,203.861 440.267,204.513 439.595,205.153 439.092,205.554 438.602,205.93 438.092,206.325 437.66,206.625 437.227,206.926 436.655,207.384 436.075,207.848 435.652,208.131 435.223,208.418 434.791,208.709 434.199,209.169 433.749,209.479 433.296,209.791 432.841,210.104 432.358,210.432 431.875,210.757 431.425,211.051 430.964,211.35 430.446,211.685 429.928,212.019 429.42,212.327 428.911,212.637 428.332,212.95 427.785,213.242 " fill="none" stroke-width="1" stroke="rgb(0,0,255)" />
</g></svg>
