<?xml version="1.0" standalone="no" ?>
<!DOCTYPE svg PUBLIC "-//W3C//DTD SVG 1.1//EN" "http://www.w3.org/Graphics/SVG/1.1/DTD/svg11.dtd">
<svg width="512px" height="512px" xmlns="http://www.w3.org/2000/svg" xmlns:xlink="http://www.w3.org/1999/xlink" version="1.1" >

<g>	<image style="overflow: visible; opacity: 0.4" width="512" height="512" xlink:href="tun2_512_erode.png" />

</g>
<g>	<polyline points="70.5,161.5 70.8206,160.501 71.0889,159.636 71.3494,158.784 71.6117,157.943 71.9646,156.993 72.2373,156.417 72.5094,155.842 72.8148,155.242 73.0924,154.682 73.3709,154.113 73.675,153.515 73.9789,152.918 74.278,152.368 74.5774,151.818 74.9631,151.164 75.2958,150.591 75.6286,150.017 75.9231,149.468 76.3024,148.848 76.6049,148.308 76.9075,147.768 77.1967,147.24 77.5408,146.666 77.8835,146.094 78.1952,145.555 78.5066,145.016 78.8635,144.444 79.231,143.845 79.5837,143.254 79.9262,142.66 80.2987,142.071 80.6536,141.463 81.005,140.863 81.3405,140.295 81.724,139.681 82.1074,139.068 82.4329,138.514 82.7501,137.976 83.136,137.384 83.4855,136.827 83.9798,136.12 84.3833,135.506 84.7798,134.904 85.4947,134.024 85.9201,133.371 86.483,132.655 86.8638,132.058 87.1904,131.45 87.5224,130.835 87.9498,130.204 88.3473,129.575 88.7418,128.954 89.121,128.376 89.5007,127.8 89.8588,127.239 90.247,126.666 90.6333,126.098 91.0144,125.529 91.3832,124.978 91.7664,124.444 92.1512,123.909 92.6097,123.3 93.0977,122.679 93.5106,122.135 94.0304,121.511 94.4828,120.933 94.9991,120.322 95.3676,119.801 95.9108,119.183 96.4958,118.572 97.0763,117.968 97.5638,117.406 98.0413,116.858 98.6051,116.3 99.1642,115.748 99.6712,115.202 100.214,114.642 100.775,114.09 101.329,113.554 101.889,113.013 102.435,112.507 102.984,112.001 103.529,111.464 104.067,110.934 104.594,110.471 105.133,110 105.715,109.436 106.31,108.831 106.86,108.362 107.385,107.899 108.002,107.343 108.553,106.892 109.15,106.388 109.645,106.003 110.233,105.517 110.805,105.052 111.294,104.701 111.783,104.351 112.414,103.829 112.984,103.377 113.586,102.9 114.175,102.477 114.799,101.975 115.414,101.498 116.036,101.019 116.649,100.542 117.275,100.058 117.863,99.6283 118.477,99.172 119.056,98.7567 119.609,98.393 120.168,98.0267 120.732,97.6333 121.325,97.216 121.925,96.7951 122.495,96.41 123.074,96.0196 123.67,95.6169 124.266,95.2138 124.84,94.8472 125.362,94.5434 125.884,94.2397 126.496,93.8412 127.095,93.4579 127.734,93.0409 128.387,92.611 129.041,92.1821 129.735,91.7449 130.322,91.3735 130.91,91.0017 131.562,90.5955 132.216,90.1887 132.829,89.8017 133.501,89.3633 134.175,88.9243 134.755,88.5659 135.501,88.0412 136.111,87.6569 136.672,87.3183 137.241,86.9763 137.897,86.5799 138.445,86.2738 139,85.9652 139.591,85.6699 140.184,85.3747 140.792,85.0321 141.412,84.6805 142.029,84.3313 142.675,83.9642 143.307,83.6081 143.93,83.2717 144.521,82.9548 145.159,82.612 145.798,82.2612 146.421,81.9327 147.016,81.6204 147.659,81.3002 148.301,80.9828 148.932,80.6714 149.56,80.3596 150.183,80.0527 150.783,79.7563 151.415,79.4582 152.041,79.1664 152.631,78.8827 153.237,78.6112 153.857,78.3278 154.483,78.1117 155.099,77.9013 155.77,77.6782 156.442,77.4946 157.106,77.3221 157.83,77.1695 158.544,77.0507 159.241,76.9329 159.967,76.8264 160.729,76.7539 161.511,76.6987 162.282,76.6496 163.068,76.6305 163.835,76.6358 164.601,76.6457 165.361,76.6586 166.111,76.6804 166.853,76.7034 167.604,76.7271 168.353,76.752 169.084,76.7801 169.82,76.8073 170.546,76.8382 171.27,76.8701 171.988,76.9015 172.718,76.9328 173.412,76.9732 174.109,77.0145 174.812,77.0607 175.498,77.107 176.189,77.1536 176.926,77.1949 177.656,77.2289 178.415,77.2625 179.173,77.2962 179.909,77.3246 180.675,77.3486 181.44,77.3664 182.205,77.383 182.966,77.4045 183.716,77.4308 184.457,77.4572 185.198,77.4836 185.949,77.5163 186.694,77.5409 187.461,77.5605 188.225,77.5802 188.973,77.5976 189.739,77.6091 190.49,77.6229 191.239,77.6367 192.009,77.6437 192.747,77.6644 193.511,77.6843 194.269,77.708 194.996,77.7397 195.748,77.7684 196.454,77.8095 197.15,77.8504 197.883,77.8841 198.553,77.9346 199.221,77.9847 199.976,77.9825 200.687,78.0158 201.441,78.0352 202.197,78.0548 202.931,78.0816 203.69,78.1006 204.44,78.1179 205.188,78.1349 205.949,78.1474 206.704,78.1646 207.465,78.1754 208.224,78.1835 208.978,78.1999 209.737,78.2094 210.492,78.217 211.248,78.224 212.006,78.2296 212.76,78.2413 213.518,78.2521 214.278,78.263 215.036,78.2729 215.787,78.2862 216.544,78.3032 217.304,78.3198 218.046,78.342 218.809,78.3627 219.55,78.3741 220.291,78.385 221.062,78.3852 221.795,78.3818 222.565,78.3787 223.333,78.375 224.072,78.3692 224.838,78.3761 225.589,78.381 226.338,78.3856 227.092,78.4031 227.853,78.4079 228.614,78.4125 229.376,78.4168 230.125,78.3992 230.89,78.3852 231.635,78.3636 232.391,78.3403 233.149,78.3164 233.89,78.2927 234.634,78.2686 235.386,78.2511 236.132,78.2328 236.859,78.2087 237.608,78.1926 238.356,78.175 239.062,78.1403 239.824,78.1262 240.556,78.1005 241.292,78.0748 242.065,78.0584 242.797,78.0252 243.547,77.9929 244.287,77.9582 245.003,77.9214 245.719,77.8801 246.433,77.8401 247.15,77.8007 247.881,77.7658 248.624,77.7278 249.374,77.6898 250.117,77.6513 250.871,77.6078 251.627,77.5778 252.389,77.5462 253.154,77.515 253.895,77.4959 254.647,77.4689 255.386,77.4571 256.124,77.4464 256.878,77.4344 257.627,77.429 258.392,77.4183 259.154,77.4129 259.907,77.4163 260.671,77.4118 261.435,77.414 262.2,77.4172 262.956,77.422 263.716,77.4324 264.464,77.4445 265.215,77.4578 265.975,77.4758 266.722,77.4993 267.476,77.5274 268.233,77.5556 268.988,77.5864 269.734,77.6133 270.49,77.6375 271.246,77.6624 271.999,77.6813 272.75,77.7017 273.505,77.7176 274.254,77.7348 274.987,77.7587 275.728,77.7761 276.443,77.8031 277.156,77.8301 277.892,77.8562 278.595,77.8993 279.303,77.9423 280.035,77.978 280.743,78.027 281.48,78.0545 282.22,78.0803 282.951,78.1095 283.7,78.1332 284.443,78.1589 285.189,78.1839 285.943,78.2089 286.69,78.2336 287.446,78.2588 288.195,78.2825 288.937,78.3118 289.69,78.3355 290.428,78.3695 291.163,78.4035 291.913,78.4319 292.64,78.4725 293.396,78.5042 294.157,78.5366 294.891,78.5799 295.658,78.6142 296.401,78.6529 297.147,78.6917 297.917,78.7227 298.657,78.7564 299.409,78.7897 300.159,78.823 300.871,78.862 301.601,78.8963 302.33,78.931 303.026,78.9738 303.742,79.0023 304.469,79.0271 305.202,79.0525 305.913,79.0836 306.629,79.1138 307.355,79.1447 308.079,79.1731 308.82,79.1977 309.563,79.2212 310.307,79.2444 311.059,79.2625 311.811,79.281 312.562,79.2967 313.307,79.3118 314.058,79.3296 314.801,79.3472 315.568,79.3675 316.329,79.3861 317.082,79.4109 317.849,79.4376 318.601,79.4686 319.349,79.5001 320.105,79.5312 320.858,79.5563 321.616,79.575 322.372,79.5933 323.127,79.6063 323.875,79.6215 324.626,79.6353 325.376,79.6418 326.124,79.648 326.876,79.6536 327.621,79.657 328.367,79.6605 329.12,79.6656 329.874,79.6669 330.631,79.6676 331.385,79.6632 332.142,79.6588 332.898,79.6531 333.647,79.6479 334.404,79.6447 335.163,79.6425 335.912,79.6379 336.671,79.637 337.413,79.6268 338.155,79.6172 338.919,79.6157 339.664,79.6116 340.421,79.6169 341.179,79.6224 341.93,79.6253 342.694,79.6286 343.458,79.6257 344.225,79.6237 345.001,79.6246 345.775,79.6229 346.55,79.6279 347.329,79.6335 348.099,79.6477 348.852,79.6738 349.582,79.6985 350.314,79.7227 351.031,79.7507 351.743,79.7774 352.449,79.8036 353.155,79.8297 353.876,79.8428 " fill="none" stroke-width="1" stroke="rgb(0,0,255)" />
	<polyline points="353.876,79.8428 354.792,79.734 355.67,79.6209 356.5,79.5 " fill="none" stroke-width="1" stroke="rgb(0,0,255)" />
	<polyline points="66.5,336.5 66.3309,335.922 66.1882,335.287 66.0202,334.558 65.8447,333.912 65.6517,333.109 65.3658,332.42 65.0883,331.751 64.8596,331.13 64.7012,330.539 64.5415,329.935 64.3763,329.392 64.2115,328.849 64.01,328.322 63.8388,327.77 63.6902,327.257 63.5424,326.745 63.4094,326.152 63.2705,325.649 63.1323,325.147 62.9619,324.584 62.7948,323.983 62.6521,323.451 62.5104,322.92 62.3799,322.237 62.2587,321.678 62.137,321.111 62.0072,320.462 61.8728,319.809 61.7506,319.216 61.6354,318.52 61.5206,317.816 61.4123,317.136 61.2791,316.538 61.1464,315.939 60.99,315.343 60.8651,314.705 60.751,314.081 60.6264,313.444 60.5039,312.814 60.393,312.225 60.2752,311.622 60.1584,311.019 60.0536,310.449 59.9488,309.873 59.8401,309.274 59.7461,308.667 59.6526,308.058 59.552,307.433 59.4526,306.811 59.3671,306.189 59.2741,305.559 59.1815,304.928 59.1034,304.288 59.001,303.691 58.9186,303.045 58.8488,302.397 58.7801,301.754 58.7066,301.118 58.6335,300.493 58.5616,299.875 58.4881,299.256 58.411,298.634 58.3357,298.022 58.2608,297.415 58.1868,296.813 58.125,296.147 58.0595,295.506 57.9947,294.868 57.9439,294.169 57.8738,293.535 57.8038,292.898 57.7485,292.205 57.6883,291.538 57.6286,290.873 57.5783,290.178 57.5234,289.499 57.4682,288.82 57.4072,288.168 57.3437,287.531 57.2812,286.9 57.2215,286.271 57.1715,285.611 57.1217,284.949 57.071,284.29 57.0279,283.612 56.9849,282.928 56.929,282.269 56.887,281.576 56.8453,280.883 56.8011,280.204 56.7603,279.518 56.7196,278.829 56.6729,278.164 56.6239,277.503 56.5759,276.856 56.528,276.234 56.4789,275.589 56.4304,274.947 56.3774,274.325 56.3244,273.697 56.2756,273.051 56.2162,272.438 56.1572,271.825 56.1273,271.155 56.0892,270.506 56.0513,269.853 56.0274,269.166 55.9917,268.513 55.9567,267.855 55.934,267.159 55.9059,266.507 55.8777,265.846 55.8602,265.144 55.8476,264.504 55.8352,263.857 55.834,263.155 55.8347,262.512 55.8359,261.864 55.838,261.165 55.8431,260.518 55.8487,259.871 55.8567,259.181 55.8677,258.529 55.8793,257.871 55.8891,257.176 55.8921,256.518 55.8955,255.862 55.8986,255.168 55.8988,254.513 55.8994,253.862 55.9009,253.169 55.8996,252.51 55.8988,251.855 55.9013,251.168 55.902,250.501 55.9031,249.836 55.9115,249.15 55.9207,248.479 55.9303,247.81 55.9469,247.135 55.9643,246.463 55.9823,245.786 56.0097,245.117 56.0265,244.439 56.0437,243.76 56.0813,243.108 56.113,242.45 56.1454,241.787 56.189,241.137 56.2179,240.475 56.2471,239.815 56.28,239.16 56.3049,238.505 56.3302,237.848 56.3605,237.197 56.3847,236.533 56.4095,235.85 56.4436,235.164 56.4752,234.483 56.5071,233.803 56.5469,233.136 56.5901,232.488 56.6347,231.84 56.6867,231.189 56.741,230.543 56.7956,229.894 56.8449,229.216 56.8976,228.548 56.9509,227.888 57.0061,227.234 57.0384,226.538 57.0708,225.841 57.1285,225.203 57.1766,224.544 57.225,223.879 57.2829,223.236 57.3355,222.577 57.388,221.925 57.4426,221.288 57.4922,220.623 57.542,219.957 57.605,219.328 57.6616,218.658 57.7193,217.972 57.793,217.328 57.8676,216.677 57.9242,215.96 57.9904,215.273 58.0584,214.562 58.1277,213.838 58.2034,213.16 58.2877,212.471 58.3736,211.769 58.4614,211.12 58.5582,210.469 58.654,209.828 58.7391,209.229 58.8216,208.587 58.9048,207.944 58.9845,207.347 59.071,206.749 59.1512,206.091 59.2337,205.494 59.3172,204.891 59.407,204.271 59.494,203.682 59.5817,203.091 59.6792,202.491 59.778,201.886 59.8711,201.297 59.9663,200.673 60.0632,200.056 60.1597,199.475 60.2564,198.897 60.3553,198.285 60.4514,197.689 60.5482,197.092 60.6515,196.464 60.7553,195.837 60.8605,195.232 60.9754,194.573 61.0855,193.867 61.1952,193.224 61.3176,192.495 61.4414,191.761 61.5831,191.17 61.7369,190.504 61.8915,189.837 62.0506,189.275 62.2251,188.51 62.3983,187.756 62.5598,187.115 62.7184,186.47 62.8769,185.83 63.0278,185.252 63.1875,184.698 63.3481,184.143 63.5049,183.614 63.6628,183.083 63.821,182.516 63.9805,181.947 64.1299,181.288 64.3035,180.702 64.4773,180.118 64.644,179.527 64.8097,178.945 64.9816,178.379 65.1853,177.792 65.3502,177.229 65.5335,176.662 65.7169,176.099 65.8896,175.547 66.0623,174.998 66.2213,174.395 66.381,173.793 66.5506,173.23 66.7418,172.646 66.931,172.073 67.1154,171.443 67.2966,170.834 67.4874,170.237 67.672,169.7 67.8544,169.174 68.0512,168.663 68.2383,168.157 68.4411,167.608 68.6446,167.06 68.8206,166.543 68.9988,166.018 69.2378,165.421 69.4794,164.818 69.6993,164.235 69.9449,163.584 70.1445,162.834 70.3043,162.21 70.5,161.5 " fill="none" stroke-width="1" stroke="rgb(0,0,255)" />
	<polyline points="356.5,79.5 356.958,79.6111 357.417,79.7426 357.859,79.9342 358.208,80.3222 358.557,80.7144 358.909,81.107 359.272,81.5093 359.635,81.9129 360.008,82.3105 360.364,82.7128 360.721,83.1167 361.05,83.5071 361.445,83.9256 361.777,84.3219 362.107,84.72 362.482,85.1396 362.861,85.5641 363.266,85.9834 363.721,86.3783 364.177,86.776 364.601,87.2167 364.99,87.6497 365.384,88.065 365.821,88.5172 366.264,88.9662 366.644,89.3761 367.022,89.7832 367.465,90.2299 367.915,90.6852 368.369,91.1498 368.758,91.5689 369.149,91.9901 369.598,92.4615 370.046,92.9343 370.42,93.3599 370.794,93.7862 371.213,94.2591 371.631,94.7345 372.048,95.2138 372.436,95.6692 372.823,96.1283 373.258,96.6107 373.698,97.0977 374.099,97.5742 374.544,98.0683 374.93,98.5322 375.352,98.9961 375.736,99.4568 376.125,99.9221 376.488,100.358 376.853,100.798 377.218,101.244 377.585,101.693 377.952,102.144 378.33,102.582 378.71,103.022 379.077,103.449 379.473,103.913 379.835,104.337 380.276,104.82 380.635,105.248 380.996,105.676 381.39,106.135 381.798,106.593 382.271,107.106 382.618,107.532 382.963,107.958 383.414,108.468 383.866,108.979 384.213,109.406 384.556,109.833 384.947,110.302 385.341,110.779 385.722,111.255 386.102,111.732 386.462,112.17 386.841,112.622 387.228,113.089 387.631,113.552 388.035,114.016 388.471,114.519 388.908,115.023 389.304,115.478 389.701,115.935 390.057,116.389 390.469,116.879 390.859,117.349 391.227,117.797 391.546,118.215 391.865,118.632 392.236,119.089 392.623,119.563 393.007,120.035 393.344,120.461 393.676,120.885 394.048,121.356 394.443,121.848 394.784,122.293 395.124,122.736 395.475,123.166 395.863,123.65 396.383,124.197 396.71,124.614 397.034,125.031 397.458,125.543 397.883,126.056 398.232,126.492 398.58,126.929 398.962,127.389 399.362,127.89 399.742,128.365 400.121,128.84 400.504,129.312 400.89,129.787 401.286,130.262 401.683,130.74 402.08,131.221 402.432,131.686 402.785,132.152 403.179,132.652 403.506,133.093 403.829,133.531 404.155,133.971 404.528,134.45 404.901,134.93 405.254,135.411 405.607,135.893 405.895,136.318 406.257,136.791 406.597,137.239 406.939,137.686 407.325,138.194 407.636,138.633 407.947,139.07 408.288,139.531 408.627,139.989 408.987,140.464 409.297,140.91 409.67,141.411 410.04,141.909 410.396,142.406 410.75,142.901 411.08,143.409 411.408,143.89 411.851,144.454 412.208,144.966 412.507,145.44 412.807,145.915 413.16,146.428 413.498,146.926 413.794,147.389 414.091,147.857 414.448,148.37 414.81,148.891 415.084,149.333 415.393,149.785 415.679,150.229 415.967,150.675 416.292,151.157 416.596,151.628 416.901,152.103 417.176,152.547 417.452,152.994 417.784,153.472 418.249,154.11 418.563,154.577 418.882,155.05 419.207,155.533 419.538,156.023 419.843,156.498 420.153,156.98 420.457,157.466 420.765,157.958 421.041,158.413 421.32,158.876 421.62,159.367 421.922,159.862 422.199,160.328 422.476,160.796 422.818,161.342 423.159,161.888 423.435,162.36 423.71,162.831 424.035,163.363 424.374,163.934 424.656,164.43 424.936,164.924 425.276,165.52 425.611,166.115 425.857,166.591 426.099,167.064 426.376,167.642 426.644,168.208 426.893,168.712 427.169,169.323 427.434,169.916 427.63,170.383 427.82,170.843 428.062,171.444 428.256,171.966 428.451,172.47 428.64,172.968 428.774,173.555 428.902,174.138 429.01,174.718 429.117,175.276 429.203,175.869 429.254,176.496 429.302,177.116 429.353,177.715 429.38,178.351 429.406,178.987 429.448,179.6 429.487,180.216 429.519,180.834 429.554,181.451 429.589,182.075 429.619,182.682 429.65,183.296 429.679,183.927 429.701,184.536 429.723,185.151 429.745,185.79 429.765,186.389 429.786,186.991 429.81,187.611 429.835,188.234 429.854,188.825 429.877,189.428 429.9,190.035 429.926,190.623 429.953,191.216 429.98,191.819 430.003,192.412 430.031,192.998 430.055,193.607 430.079,194.217 430.108,194.793 430.139,195.383 430.17,195.98 430.201,196.562 430.232,197.154 430.265,197.773 430.299,198.372 430.333,198.979 430.374,199.609 430.416,200.245 430.459,200.846 430.512,201.472 430.564,202.104 430.615,202.694 430.667,203.285 430.719,203.931 430.773,204.523 430.826,205.112 430.887,205.737 430.945,206.314 431.003,206.889 431.069,207.498 431.136,208.105 431.197,208.68 431.258,209.253 431.331,209.859 431.392,210.439 431.452,211.013 431.505,211.657 431.557,212.286 431.6,212.9 431.64,213.538 431.678,214.158 431.715,214.777 431.756,215.385 431.796,215.979 431.835,216.593 431.872,217.199 431.917,217.782 431.957,218.393 431.996,219.002 432.034,219.6 432.072,220.198 432.098,220.825 432.139,221.434 432.181,222.044 432.211,222.672 432.241,223.301 432.29,223.908 432.33,224.529 432.372,225.149 432.418,225.76 432.455,226.382 432.492,227.004 432.528,227.627 432.562,228.252 432.59,228.885 432.61,229.499 432.629,230.116 432.643,230.753 432.651,231.354 432.66,231.957 432.669,232.592 432.678,233.229 432.693,233.83 432.714,234.467 432.735,235.107 432.76,235.712 432.805,236.312 432.85,236.91 432.887,237.481 432.924,238.047 432.963,238.628 433.001,239.206 433.036,239.761 433.061,240.356 433.086,240.957 433.11,241.53 433.135,242.111 433.155,242.743 433.173,243.335 433.191,243.926 433.206,244.569 433.221,245.206 433.232,245.795 433.239,246.435 433.245,247.067 433.253,247.655 433.26,248.233 433.262,248.847 433.273,249.422 433.284,249.992 433.282,250.594 433.278,251.199 433.279,251.791 433.273,252.403 433.267,253.021 433.27,253.631 433.273,254.244 433.268,254.87 433.27,255.487 433.272,256.105 433.269,256.733 433.262,257.348 433.254,257.963 433.24,258.592 433.224,259.222 433.207,259.83 433.183,260.458 433.159,261.086 433.132,261.679 433.105,262.27 433.083,262.886 433.064,263.467 433.044,264.05 433.03,264.668 433.016,265.291 433.004,265.88 432.989,266.51 432.975,267.143 432.961,267.732 432.944,268.373 432.927,269.014 432.914,269.608 432.902,270.199 432.883,270.84 432.875,271.427 432.869,272.004 432.827,272.616 432.787,273.225 432.774,273.795 432.748,274.404 432.722,275.021 432.71,275.616 432.698,276.217 432.678,276.846 432.663,277.459 432.651,278.073 432.638,278.701 432.631,279.322 432.622,279.941 432.612,280.564 432.602,281.188 432.589,281.811 432.574,282.432 432.559,283.058 432.536,283.677 432.51,284.303 432.49,284.92 432.464,285.547 432.436,286.186 432.403,286.783 432.363,287.401 432.322,288.032 432.284,288.629 432.244,289.233 432.205,289.858 432.165,290.456 432.123,291.052 432.082,291.643 432.042,292.23 432.003,292.818 431.964,293.381 431.924,293.942 431.886,294.538 431.847,295.136 431.809,295.692 431.77,296.255 431.729,296.896 431.691,297.471 431.651,298.053 431.605,298.726 431.559,299.287 431.514,299.847 431.461,300.52 431.41,301.19 431.363,301.738 431.31,302.411 431.255,303.086 431.203,303.631 431.149,304.175 431.094,304.843 431.038,305.381 430.981,305.914 430.92,306.545 430.858,307.174 430.795,307.692 430.732,308.218 430.669,308.854 430.607,309.402 430.544,309.96 430.479,310.595 430.413,311.235 430.348,311.811 430.282,312.425 430.216,313.039 430.15,313.603 430.085,314.167 430.012,314.73 429.953,315.32 429.894,315.913 429.829,316.518 429.763,317.127 429.697,317.716 429.625,318.323 429.554,318.931 429.485,319.52 429.417,320.105 429.347,320.73 429.282,321.332 429.219,321.929 429.15,322.551 429.081,323.167 429.017,323.745 428.938,324.333 428.858,324.921 428.784,325.477 428.709,326.036 428.619,326.609 428.527,327.181 428.443,327.723 428.362,328.327 428.281,328.926 428.203,329.489 428.126,330.048 428.048,330.64 427.97,331.229 427.899,331.782 427.828,332.379 427.757,332.974 427.692,333.554 427.627,334.134 427.559,334.741 427.495,335.338 427.432,335.928 427.371,336.568 427.312,337.198 427.253,337.811 427.192,338.456 427.133,339.097 427.065,339.698 426.996,340.297 426.934,340.933 426.852,341.5 426.771,342.068 426.707,342.708 426.638,343.309 426.569,343.909 426.513,344.548 426.458,345.184 426.403,345.797 426.346,346.408 426.29,347.019 426.233,347.62 426.174,348.219 426.108,348.804 426.04,349.394 425.971,349.985 425.896,350.562 425.819,351.141 425.745,351.746 425.659,352.332 425.571,352.917 425.477,353.52 425.38,354.118 425.275,354.708 425.168,355.315 425.063,355.912 424.924,356.491 424.779,357.059 424.637,357.604 424.489,358.135 424.318,358.652 424.139,359.158 423.939,359.641 423.753,360.146 423.451,360.642 423.134,361.132 422.849,361.606 422.556,362.078 422.233,362.548 421.902,363.017 421.544,363.489 421.183,363.957 420.792,364.436 420.398,364.91 420.004,365.377 419.604,365.842 419.215,366.298 418.826,366.75 418.429,367.205 418.03,367.654 417.633,368.105 417.251,368.549 416.87,368.991 416.451,369.441 416.034,369.889 415.606,370.337 415.181,370.785 414.737,371.198 414.308,371.641 413.88,372.085 413.448,372.518 413.016,372.953 412.583,373.4 412.147,373.85 411.732,374.272 411.312,374.699 410.885,375.131 410.453,375.579 410.014,376.034 409.592,376.46 409.164,376.893 408.75,377.328 408.332,377.767 407.911,378.209 407.484,378.639 407.055,379.07 406.637,379.509 406.221,379.946 405.822,380.376 405.41,380.813 404.98,381.253 404.542,381.702 404.11,382.145 403.678,382.604 403.251,383.058 402.803,383.513 402.365,383.968 401.936,384.414 401.493,384.863 401.068,385.29 400.656,385.743 400.245,386.195 399.818,386.631 399.37,387.064 398.937,387.517 398.502,387.966 398.089,388.411 397.64,388.853 397.236,389.276 396.83,389.699 396.41,390.138 395.984,390.594 395.535,390.984 395.135,391.395 394.735,391.835 394.284,392.29 393.831,392.747 393.369,393.196 392.944,393.606 392.549,394.052 392.093,394.463 391.632,394.891 391.178,395.308 390.738,395.719 390.296,396.131 389.856,396.486 389.412,396.878 388.953,397.293 388.529,397.704 388.104,398.115 387.666,398.528 387.228,398.94 386.777,399.37 386.359,399.787 385.905,400.237 385.491,400.66 385.079,401.081 384.666,401.515 384.257,401.947 383.823,402.379 383.388,402.83 382.982,403.289 382.563,403.751 382.146,404.211 381.697,404.661 381.247,405.112 380.81,405.58 380.364,406.038 379.964,406.446 379.518,406.894 379.077,407.35 378.621,407.795 378.198,408.237 377.76,408.67 377.321,409.106 376.877,409.551 376.406,410 375.939,410.464 375.511,410.877 375.057,411.327 374.595,411.78 374.141,412.233 373.719,412.671 373.293,413.11 372.864,413.525 372.441,413.931 372.017,414.361 371.554,414.826 371.134,415.199 370.71,415.584 370.285,415.97 369.822,416.415 369.344,416.875 368.887,417.293 368.453,417.684 368.02,418.076 367.558,418.515 367.098,418.95 366.651,419.352 366.206,419.751 365.784,420.206 365.336,420.607 364.887,421.009 364.444,421.409 364.001,421.809 363.55,422.221 363.101,422.636 362.677,423.092 362.254,423.512 361.832,423.93 361.384,424.348 360.938,424.767 360.541,425.218 360.106,425.648 359.685,426.031 359.228,426.464 358.772,426.895 358.323,427.325 357.874,427.755 357.442,428.145 356.985,428.588 356.544,429.017 356.088,429.452 355.662,429.789 355.205,430.225 354.742,430.658 354.279,431.09 353.835,431.481 353.411,431.8 352.987,432.117 352.52,432.521 352.054,432.923 351.609,433.275 351.165,433.627 350.717,433.984 350.263,434.347 349.809,434.709 349.37,435.039 348.929,435.364 348.487,435.685 348.044,436.004 347.62,436.286 347.196,436.567 346.771,436.8 346.346,437.03 345.924,437.277 345.5,437.5 " fill="none" stroke-width="1" stroke="rgb(0,0,255)" />
	<polyline points="345.5,437.5 344.87,437.545 344.233,437.576 343.551,437.584 342.869,437.59 342.192,437.612 341.534,437.62 340.877,437.628 340.211,437.658 339.521,437.673 338.834,437.688 338.096,437.695 337.334,437.689 336.55,437.685 335.77,437.681 334.991,437.67 334.213,437.666 333.44,437.653 332.67,437.639 331.92,437.626 331.183,437.608 330.464,437.589 329.748,437.57 329.033,437.554 328.316,437.542 327.592,437.535 326.869,437.528 326.137,437.532 325.396,437.535 324.658,437.538 323.917,437.546 323.173,437.554 322.435,437.557 321.699,437.559 320.958,437.562 320.219,437.56 319.485,437.55 318.751,437.539 318.015,437.528 317.283,437.517 316.546,437.507 315.809,437.498 315.08,437.491 314.337,437.487 313.608,437.482 312.877,437.477 312.131,437.48 311.411,437.486 310.691,437.495 309.955,437.516 309.227,437.539 308.494,437.564 307.762,437.589 307.032,437.621 306.307,437.659 305.573,437.683 304.842,437.707 304.108,437.744 303.392,437.768 302.68,437.794 301.95,437.822 301.252,437.841 300.521,437.866 299.786,437.89 299.089,437.905 298.341,437.924 297.634,437.934 296.921,437.945 296.161,437.958 295.454,437.962 294.742,437.967 293.981,437.979 293.276,437.988 292.527,438.002 291.774,438.017 291.063,438.031 290.322,438.052 289.612,438.073 288.898,438.095 288.168,438.125 287.461,438.158 286.744,438.192 286.039,438.235 285.319,438.279 284.624,438.321 283.924,438.364 283.161,438.403 282.447,438.436 281.735,438.47 280.971,438.511 280.28,438.547 279.523,438.591 278.768,438.634 278.074,438.663 277.293,438.697 276.594,438.721 275.901,438.745 275.121,438.774 274.44,438.796 273.773,438.818 273.008,438.841 272.353,438.864 271.59,438.889 270.828,438.914 270.161,438.943 269.4,438.97 268.639,438.997 267.952,439.028 267.222,439.066 266.546,439.108 265.873,439.149 265.188,439.2 264.49,439.244 263.788,439.287 263.101,439.345 262.377,439.393 261.656,439.44 260.928,439.482 260.184,439.515 259.437,439.541 258.693,439.566 257.969,439.592 257.225,439.614 256.506,439.634 255.786,439.652 255.041,439.67 254.314,439.682 253.582,439.697 252.85,439.711 252.132,439.722 251.393,439.721 250.656,439.719 249.928,439.723 249.19,439.726 248.471,439.721 247.755,439.716 247.023,439.706 246.302,439.693 245.561,439.682 244.821,439.67 244.094,439.656 243.355,439.641 242.627,439.621 241.899,439.6 241.17,439.576 240.433,439.559 239.699,439.538 238.966,439.513 238.232,439.488 237.514,439.455 236.8,439.422 236.076,439.396 235.379,439.358 234.688,439.319 233.977,439.293 233.281,439.254 232.568,439.228 231.85,439.202 231.132,439.173 230.401,439.151 229.666,439.13 228.938,439.106 228.198,439.086 227.471,439.061 226.743,439.036 226.008,439.011 225.293,438.988 224.566,438.968 223.842,438.949 223.157,438.92 222.449,438.896 221.732,438.873 221.045,438.846 220.308,438.825 219.608,438.801 218.9,438.777 218.138,438.758 217.431,438.734 216.727,438.71 215.961,438.696 215.262,438.674 214.5,438.662 213.74,438.651 213.042,438.637 212.282,438.636 211.565,438.635 210.85,438.634 210.105,438.639 209.377,438.642 208.653,438.646 207.918,438.647 207.177,438.651 206.439,438.651 205.703,438.65 204.965,438.647 204.23,438.638 203.5,438.629 202.771,438.619 202.036,438.613 201.306,438.612 200.571,438.607 199.835,438.602 199.101,438.595 198.369,438.583 197.636,438.57 196.905,438.555 196.176,438.538 195.442,438.526 194.707,438.514 193.964,438.511 193.224,438.504 192.481,438.489 191.731,438.474 191.004,438.452 190.257,438.427 189.541,438.401 188.814,438.374 188.067,438.345 187.354,438.32 186.629,438.29 185.899,438.26 185.203,438.233 184.472,438.209 183.748,438.185 183.073,438.159 182.363,438.136 181.656,438.112 180.991,438.082 180.269,438.06 179.573,438.035 178.869,438.01 178.126,437.988 177.41,437.963 176.693,437.941 175.952,437.926 175.233,437.912 174.492,437.904 173.757,437.897 173.054,437.88 172.334,437.864 171.634,437.844 170.933,437.824 170.204,437.806 169.484,437.79 168.771,437.775 168.036,437.761 167.312,437.749 166.567,437.745 165.832,437.742 165.101,437.734 164.364,437.737 163.621,437.731 162.882,437.727 162.144,437.729 161.411,437.717 160.682,437.704 159.945,437.705 159.209,437.701 158.47,437.695 157.73,437.689 156.996,437.678 156.251,437.666 155.512,437.653 154.768,437.639 154.022,437.617 153.288,437.591 152.544,437.557 151.79,437.519 151.07,437.468 150.331,437.414 149.631,437.35 148.925,437.283 148.193,437.228 147.487,437.165 146.772,437.098 145.993,437.033 145.35,436.91 144.617,436.827 143.9,436.735 143.217,436.628 142.611,436.444 142.01,436.249 141.444,436.036 140.829,435.842 140.234,435.615 139.649,435.327 139.062,435.03 138.478,434.696 137.894,434.354 137.298,433.982 136.718,433.655 136.124,433.287 135.543,432.91 134.961,432.512 134.401,432.158 133.87,431.818 133.332,431.436 132.804,431.058 132.225,430.595 131.635,430.089 131.083,429.653 130.547,429.197 129.973,428.706 129.428,428.237 128.88,427.763 128.337,427.289 127.787,426.807 127.277,426.385 126.768,425.961 126.236,425.499 125.711,425.037 125.197,424.611 124.644,424.116 124.096,423.605 123.552,423.101 123.02,422.636 122.474,422.132 121.932,421.605 121.411,421.135 120.938,420.753 120.414,420.287 119.892,419.82 119.374,419.348 118.858,418.877 118.343,418.412 117.831,417.951 117.322,417.446 116.814,416.942 116.295,416.438 115.776,415.935 115.277,415.43 114.779,414.927 114.262,414.409 113.74,413.885 113.263,413.368 112.791,412.856 112.294,412.332 111.791,411.801 111.31,411.299 110.823,410.791 110.331,410.265 109.836,409.737 109.348,409.236 108.856,408.719 108.337,408.162 107.892,407.644 107.445,407.14 106.959,406.608 106.443,406.028 105.937,405.452 105.461,404.903 104.981,404.362 104.528,403.812 104.017,403.223 103.577,402.703 103.135,402.181 102.715,401.66 102.301,401.147 101.829,400.583 101.412,400.075 100.953,399.535 100.553,399.034 100.035,398.442 99.578,397.892 99.0942,397.34 98.6117,396.758 98.0966,396.157 97.631,395.598 97.1599,395.032 96.6888,394.434 96.2041,393.816 95.8483,393.256 95.4076,392.673 94.9651,392.086 94.5521,391.507 94.1394,390.927 93.7088,390.357 93.2676,389.773 92.8641,389.211 92.512,388.674 92.1586,388.133 91.7758,387.576 91.3871,387.007 91.0111,386.457 90.6814,385.926 90.2888,385.331 89.8948,384.732 89.5221,384.157 89.1245,383.534 88.7303,382.914 88.3589,382.341 87.9878,381.766 87.5945,381.118 87.2176,380.49 86.848,379.872 86.5553,379.329 86.033,378.615 85.6162,377.95 85.2497,377.358 84.8769,376.755 84.542,376.189 84.2556,375.632 83.9687,375.074 83.6444,374.503 83.3195,373.93 82.9949,373.374 82.6379,372.78 82.3399,372.239 81.8817,371.561 81.484,370.918 81.2054,370.392 80.9258,369.862 80.4857,369.157 80.1396,368.499 79.8371,367.943 79.4257,367.235 79.1304,366.672 78.7911,366.045 78.3983,365.369 78.004,364.689 77.689,364.066 77.3188,363.281 76.8907,362.534 76.5567,361.828 76.1325,361.118 75.8302,360.451 75.5264,359.781 75.2341,359.126 74.9367,358.475 74.677,357.883 74.3453,357.271 74.0922,356.705 73.8467,356.128 73.5912,355.558 73.3389,354.994 73.1352,354.436 72.9315,353.877 72.6652,353.312 72.4001,352.748 72.144,352.19 71.9023,351.635 71.6755,351.079 71.4515,350.547 71.2283,350.015 70.9953,349.442 70.7678,348.877 70.554,348.326 70.3408,347.776 70.1304,347.203 69.9221,346.65 69.7204,346.106 69.5019,345.513 69.2814,344.913 69.0767,344.334 68.8631,343.745 68.6307,343.107 68.4,342.488 68.1681,341.863 67.9194,341.183 67.6538,340.451 67.3901,339.724 67.0974,338.614 66.8014,337.677 66.5,336.5 " fill="none" stroke-width="1" stroke="rgb(0,0,255)" />
	<polyline points="276.5,158.5 277.005,158.107 277.512,157.674 278.017,157.242 278.511,156.831 279,156.42 279.478,156.005 279.906,155.623 280.355,155.231 280.806,154.838 281.24,154.445 281.677,154.05 282.087,153.678 282.527,153.269 282.97,152.857 283.37,152.5 283.766,152.147 284.167,151.784 284.594,151.388 285.014,150.998 285.407,150.642 285.804,150.282 286.229,149.906 286.659,149.509 287.085,149.115 287.536,148.684 287.999,148.242 288.416,147.883 288.842,147.484 289.305,147.067 289.787,146.579 290.216,146.223 290.638,145.87 291.037,145.51 291.472,145.11 291.914,144.674 292.349,144.295 292.785,143.914 293.243,143.484 293.698,143.057 294.126,142.656 294.537,142.303 294.947,141.951 295.416,141.509 295.882,141.069 296.298,140.715 296.708,140.366 297.112,140.021 297.575,139.599 298.036,139.179 298.466,138.784 298.904,138.381 299.386,137.933 299.854,137.484 300.283,137.035 300.752,136.601 301.218,136.17 301.68,135.725 302.145,135.276 302.516,134.847 302.998,134.404 303.472,133.949 303.927,133.509 304.36,133.061 304.802,132.612 305.246,132.179 305.648,131.76 306.057,131.333 306.431,130.935 306.858,130.491 307.294,130.046 307.697,129.628 308.101,129.209 308.518,128.786 308.945,128.353 309.361,127.919 309.778,127.506 310.197,127.092 310.615,126.666 311.041,126.232 311.438,125.819 311.831,125.421 312.226,125.02 312.679,124.57 313.134,124.118 313.519,123.72 313.904,123.323 314.309,122.914 314.742,122.479 315.172,122.048 315.562,121.643 315.949,121.24 316.356,120.819 316.777,120.392 317.193,119.97 317.593,119.56 317.99,119.154 318.392,118.74 318.791,118.329 319.225,117.913 319.644,117.512 320.06,117.114 320.458,116.717 320.851,116.324 321.265,115.905 321.69,115.503 322.115,115.099 322.507,114.698 322.908,114.289 323.314,113.843 323.766,113.389 324.217,112.936 324.601,112.52 324.985,112.104 325.411,111.656 325.839,111.207 326.231,110.784 326.625,110.36 327.021,109.935 327.423,109.506 327.826,109.077 328.231,108.639 328.634,108.203 328.986,107.797 329.396,107.353 329.807,106.908 330.244,106.44 330.675,105.979 331.061,105.553 331.445,105.122 331.83,104.688 332.239,104.24 332.646,103.795 333.037,103.377 333.418,102.953 333.809,102.506 334.229,102.053 334.628,101.619 335.029,101.183 335.427,100.728 335.822,100.278 336.263,99.8755 336.663,99.4473 337.061,99.0208 337.436,98.584 337.812,98.1455 338.221,97.7028 338.628,97.2627 339.032,96.8248 339.402,96.3991 339.772,95.9735 340.18,95.5298 340.593,95.0859 340.963,94.689 341.389,94.2557 341.811,93.826 342.239,93.3901 342.675,92.9471 343.045,92.557 343.449,92.1461 343.843,91.7452 344.229,91.3425 344.62,90.9362 345.001,90.5222 345.413,90.0888 345.811,89.6714 346.208,89.2801 346.59,88.9007 346.966,88.4984 347.345,88.081 347.747,87.6743 348.148,87.2686 348.554,86.8707 348.964,86.451 349.343,86.0315 349.76,85.6202 350.176,85.2105 350.57,84.7904 350.961,84.3761 351.358,83.9607 351.754,83.5632 352.111,83.142 352.354,82.6629 352.595,82.1874 352.814,81.7103 353.033,81.2308 353.311,80.7719 353.593,80.3075 353.876,79.8428 " fill="none" stroke-width="1" stroke="rgb(0,0,255)" />
	<polyline points="70.5,161.5 71.7385,161.396 72.8436,161.318 74.0048,161.27 75.2006,161.207 76.5106,161.137 77.8778,161.028 79.2897,160.965 80.7284,160.913 82.1269,160.881 83.5211,160.859 84.9306,160.835 86.2893,160.809 87.7183,160.779 89.147,160.743 90.3772,160.706 91.635,160.678 92.8339,160.648 94.0367,160.621 95.2204,160.597 96.5597,160.576 97.9541,160.562 99.1919,160.537 100.49,160.495 101.834,160.443 103.117,160.395 104.518,160.357 105.934,160.317 107.265,160.276 108.569,160.219 109.837,160.154 111.134,160.103 112.406,160.042 113.658,159.981 114.956,159.933 116.235,159.882 117.517,159.831 118.762,159.769 120.03,159.713 121.341,159.661 122.642,159.61 123.995,159.572 125.334,159.539 126.677,159.522 128.028,159.491 129.313,159.456 130.595,159.409 131.915,159.378 133.25,159.368 134.59,159.363 135.933,159.362 137.249,159.366 138.583,159.372 139.93,159.371 141.214,159.367 142.571,159.36 143.946,159.356 145.165,159.359 146.56,159.361 147.919,159.374 149.11,159.412 150.456,159.446 151.837,159.468 153.126,159.481 154.531,159.498 155.913,159.53 157.142,159.56 158.448,159.626 159.785,159.685 161.073,159.725 162.424,159.779 163.703,159.85 164.956,159.931 166.121,160.01 167.439,160.081 168.772,160.159 169.999,160.242 171.373,160.331 172.573,160.426 173.901,160.506 175.311,160.586 176.621,160.657 177.881,160.725 179.375,160.795 180.553,160.864 181.696,160.936 182.912,161.015 184.021,161.085 185.313,161.153 186.549,161.212 187.821,161.267 189.221,161.316 190.542,161.352 191.871,161.373 193.267,161.371 194.592,161.375 195.932,161.377 197.216,161.385 198.518,161.384 199.873,161.379 201.144,161.366 202.495,161.33 203.838,161.286 205.072,161.234 206.428,161.185 207.792,161.137 209.12,161.092 210.44,161.038 211.67,160.974 212.992,160.917 214.207,160.849 215.527,160.787 216.867,160.728 218.223,160.668 219.487,160.603 220.703,160.535 222.086,160.477 223.486,160.427 224.845,160.37 226.139,160.299 227.338,160.222 228.623,160.156 229.905,160.101 231.154,160.053 232.328,160.003 233.574,159.943 234.903,159.925 236.176,159.917 237.516,159.894 238.842,159.857 240.092,159.819 241.41,159.776 242.76,159.75 244.106,159.742 245.48,159.732 246.809,159.709 248.055,159.673 249.322,159.634 250.689,159.621 252.041,159.62 253.422,159.624 254.831,159.634 256.224,159.644 257.719,159.649 259.267,159.651 260.666,159.647 261.937,159.644 263.43,159.649 264.84,159.654 266.111,159.651 267.612,159.654 269.006,159.647 270.256,159.631 271.72,159.589 272.875,159.459 273.867,159.273 274.807,159.036 275.63,158.786 276.5,158.5 " fill="none" stroke-width="1" stroke="rgb(0,0,255)" />
	<polyline points="276.5,158.5 276.56,159.28 276.657,160.016 276.692,160.915 276.735,161.759 276.767,162.734 276.818,163.67 276.87,164.707 276.937,165.753 277.007,166.881 277.097,167.879 277.162,169.089 277.245,170.11 277.318,171.25 277.4,172.234 277.474,173.316 277.544,174.382 277.611,175.495 277.676,176.617 277.744,177.66 277.81,178.751 277.892,179.662 277.969,180.666 278.048,181.574 278.132,182.54 278.201,183.527 278.276,184.561 278.343,185.569 278.416,186.632 278.483,187.625 278.554,188.688 278.625,189.596 278.702,190.58 278.775,191.44 278.848,192.296 278.921,193.249 278.985,194.086 279.042,195.19 279.097,196.125 279.153,197.214 279.21,198.134 279.255,199.24 279.295,200.198 279.309,201.375 279.329,202.323 279.324,203.508 279.338,204.46 279.343,205.526 279.36,206.606 279.382,207.625 279.402,208.679 279.427,209.693 279.455,210.717 279.479,211.757 279.511,212.785 279.542,213.813 279.576,214.861 279.608,215.896 279.645,216.952 279.676,217.997 279.725,219.006 279.754,220.023 279.79,221.059 279.806,222.057 279.841,223.032 279.857,223.952 279.886,224.927 279.884,225.843 279.884,226.873 279.868,227.856 279.859,228.904 279.848,229.949 279.849,231.003 279.86,232.047 279.864,233.083 279.874,234.125 279.878,235.142 279.895,236.161 279.903,237.129 279.923,238.138 279.918,239.102 279.922,240.146 279.91,241.145 279.905,242.198 279.887,243.213 279.885,244.25 279.898,245.278 279.898,246.292 279.913,247.316 279.913,248.314 279.921,249.336 279.912,250.332 279.894,251.352 279.86,252.323 279.816,253.291 279.771,254.28 279.717,255.234 279.661,256.192 279.615,257.194 279.566,258.209 279.527,259.217 279.496,260.288 279.469,261.324 279.445,262.398 279.421,263.461 279.396,264.536 279.36,265.606 279.307,266.609 279.245,267.603 279.18,268.583 279.109,269.558 279.033,270.504 278.957,271.439 278.886,272.438 278.815,273.42 278.751,274.468 278.678,275.447 278.612,276.475 278.539,277.436 278.48,278.489 278.432,279.575 278.376,280.594 278.315,281.606 278.246,282.529 278.183,283.514 278.126,284.491 278.088,285.57 278.051,286.633 278.02,287.745 277.98,288.817 277.933,289.913 277.881,290.967 277.816,292.011 277.739,292.967 277.641,293.872 277.556,294.803 277.462,295.72 277.372,296.645 277.275,297.552 277.174,298.45 277.072,299.344 276.983,300.312 276.892,301.306 276.819,302.367 276.746,303.493 276.68,304.673 276.61,305.779 276.534,306.965 276.444,308.003 276.343,309.125 276.244,310.127 276.128,311.223 276.012,312.123 275.852,313.094 275.726,313.965 275.598,315.056 275.481,316.011 275.359,317.142 275.246,318.198 275.117,319.244 274.983,320.215 274.832,321.061 274.674,321.914 274.504,322.719 274.331,323.514 274.157,324.312 273.976,325.097 273.779,326.045 273.586,326.93 273.397,327.716 273.206,328.489 273.015,329.262 272.813,329.929 272.612,330.618 272.411,331.306 272.211,332.017 271.999,332.763 271.758,333.646 271.5,334.5 " fill="none" stroke-width="1" stroke="rgb(0,0,255)" />
	<polyline points="66.5,336.5 67.5405,336.524 68.5359,336.538 69.5629,336.554 70.6387,336.591 71.7258,336.653 72.7762,336.745 73.7882,336.832 74.7702,336.936 75.7494,336.984 76.7725,337.079 77.8712,337.156 78.9849,337.231 80.1153,337.294 81.2645,337.357 82.4166,337.407 83.5874,337.448 84.7861,337.489 85.9068,337.537 87.0227,337.591 88.1005,337.644 89.137,337.707 90.1579,337.769 91.1669,337.835 92.1497,337.905 93.1708,337.974 94.2363,338.039 95.3422,338.1 96.3832,338.17 97.4502,338.238 98.4447,338.313 99.5603,338.37 100.738,338.422 101.824,338.474 102.969,338.525 104.042,338.572 105.201,338.618 106.277,338.662 107.408,338.716 108.446,338.767 109.512,338.835 110.456,338.905 111.506,338.969 112.661,339.003 113.762,339.025 114.902,339.049 115.993,339.067 117.116,339.086 118.207,339.107 119.307,339.133 120.382,339.165 121.425,339.203 122.439,339.247 123.465,339.288 124.496,339.33 125.613,339.356 126.711,339.385 127.779,339.416 128.895,339.44 129.987,339.452 131.133,339.455 132.213,339.457 133.349,339.451 134.437,339.442 135.524,339.431 136.597,339.43 137.694,339.441 138.805,339.441 139.922,339.442 141.039,339.43 142.169,339.417 143.211,339.378 144.322,339.339 145.383,339.305 146.514,339.267 147.578,339.218 148.533,339.172 149.606,339.119 150.629,339.076 151.782,339.028 152.895,338.991 153.996,338.93 155.02,338.876 156.167,338.812 157.175,338.748 158.265,338.669 159.261,338.595 160.377,338.524 161.409,338.464 162.55,338.418 163.723,338.389 164.788,338.357 165.935,338.328 166.985,338.299 168.114,338.268 169.139,338.23 170.243,338.184 171.287,338.133 172.362,338.071 173.375,338.01 174.455,337.951 175.585,337.906 176.658,337.867 177.759,337.838 178.798,337.814 179.857,337.797 180.9,337.783 181.998,337.772 183.096,337.763 184.216,337.744 185.301,337.716 186.367,337.675 187.436,337.641 188.526,337.61 189.655,337.59 190.757,337.574 191.88,337.553 192.964,337.535 194.098,337.516 195.18,337.492 196.36,337.472 197.521,337.442 198.642,337.395 199.715,337.337 200.689,337.27 201.641,337.201 202.688,337.14 203.705,337.079 204.881,337.03 205.986,336.966 206.967,336.899 207.953,336.832 208.931,336.77 209.991,336.716 211.049,336.671 212.221,336.647 213.339,336.626 214.452,336.611 215.568,336.599 216.692,336.593 217.809,336.588 218.936,336.591 220.059,336.59 221.181,336.596 222.28,336.575 223.407,336.552 224.419,336.506 225.493,336.455 226.587,336.409 227.587,336.361 228.756,336.325 229.836,336.285 231.008,336.239 232.004,336.184 233.064,336.124 234.021,336.062 235.109,336.004 236.061,335.94 237.008,335.868 237.992,335.808 239.035,335.752 240.081,335.7 241.177,335.658 242.332,335.626 243.465,335.595 244.615,335.566 245.779,335.54 246.942,335.513 248.09,335.48 249.211,335.438 250.273,335.387 251.348,335.335 252.466,335.286 253.592,335.235 254.701,335.186 255.863,335.138 256.987,335.095 258.119,335.047 259.188,335.002 260.316,334.969 261.35,334.925 262.464,334.88 263.516,334.823 264.596,334.77 265.622,334.725 266.75,334.68 267.76,334.657 268.823,334.61 269.703,334.623 270.599,334.672 271.5,334.5 " fill="none" stroke-width="1" stroke="rgb(0,0,255)" />
	<polyline points="271.5,334.5 271.736,334.805 271.971,335.111 272.187,335.421 272.404,335.731 272.62,336.043 272.848,336.351 273.076,336.662 273.297,336.974 273.495,337.27 273.695,337.568 273.897,337.868 274.104,338.164 274.312,338.46 274.52,338.756 274.729,339.051 274.906,339.312 275.098,339.589 275.291,339.869 275.483,340.156 275.677,340.446 275.872,340.738 276.067,341.033 276.241,341.302 276.418,341.572 276.595,341.843 276.775,342.115 276.987,342.424 277.184,342.714 277.381,343.006 277.576,343.286 277.771,343.567 277.968,343.849 278.144,344.125 278.361,344.445 278.578,344.766 278.796,345.089 278.976,345.369 279.176,345.651 279.377,345.935 279.587,346.24 279.798,346.546 280.013,346.855 280.214,347.15 280.415,347.445 280.615,347.739 280.813,348.032 281.03,348.343 281.237,348.661 281.444,348.979 281.651,349.272 281.857,349.566 282.063,349.86 282.283,350.176 282.503,350.493 282.723,350.81 282.942,351.126 283.152,351.434 283.363,351.741 283.574,352.047 283.811,352.39 284.049,352.733 284.269,353.044 284.48,353.344 284.692,353.644 284.903,353.943 285.145,354.272 285.386,354.6 285.627,354.927 285.827,355.222 286.028,355.516 286.231,355.805 286.433,356.093 286.639,356.387 286.845,356.679 287.052,356.971 287.273,357.27 287.493,357.568 287.712,357.866 287.934,358.166 288.144,358.457 288.355,358.748 288.564,359.037 288.771,359.323 288.979,359.607 289.204,359.903 289.427,360.208 289.649,360.512 289.869,360.814 290.088,361.116 290.305,361.419 290.522,361.721 290.738,362.021 290.964,362.329 291.206,362.661 291.445,362.993 291.653,363.278 291.86,363.562 292.067,363.845 292.3,364.169 292.533,364.492 292.766,364.814 292.999,365.137 293.213,365.436 293.426,365.737 293.639,366.038 293.862,366.343 294.086,366.648 294.332,366.989 294.558,367.312 294.785,367.636 295.014,367.962 295.234,368.264 295.453,368.569 295.672,368.876 295.873,369.171 296.076,369.467 296.29,369.785 296.505,370.104 296.728,370.422 296.951,370.742 297.164,371.041 297.367,371.333 297.57,371.627 297.776,371.922 297.997,372.225 298.212,372.526 298.428,372.828 298.645,373.132 298.851,373.436 299.057,373.741 299.259,374.038 299.471,374.344 299.684,374.652 299.897,374.96 300.102,375.26 300.305,375.564 300.508,375.868 300.716,376.171 300.924,376.475 301.126,376.776 301.327,377.077 301.544,377.386 301.76,377.695 301.976,378.004 302.182,378.308 302.387,378.612 302.592,378.914 302.804,379.229 303.015,379.543 303.235,379.858 303.437,380.16 303.639,380.46 303.84,380.76 304.039,381.058 304.269,381.392 304.496,381.725 304.723,382.056 304.918,382.363 305.113,382.67 305.308,382.975 305.534,383.308 305.76,383.637 305.985,383.964 306.187,384.275 306.389,384.585 306.589,384.892 306.827,385.228 307.064,385.56 307.323,385.901 307.536,386.215 307.747,386.527 307.956,386.839 308.179,387.175 308.401,387.509 308.623,387.841 308.837,388.17 309.051,388.497 309.263,388.809 309.474,389.12 309.675,389.438 309.878,389.754 310.082,390.069 310.303,390.388 310.523,390.706 310.742,391.022 310.968,391.33 311.185,391.648 311.4,391.965 311.605,392.261 311.81,392.557 312.016,392.853 312.236,393.148 312.457,393.445 312.679,393.742 312.903,394.041 313.105,394.328 313.305,394.614 313.504,394.9 313.722,395.203 313.941,395.506 314.151,395.804 314.362,396.102 314.587,396.398 314.813,396.695 315.039,396.993 315.252,397.289 315.466,397.585 315.682,397.882 315.909,398.184 316.128,398.477 316.346,398.771 316.565,399.067 316.775,399.362 316.986,399.658 317.187,399.947 317.423,400.26 317.659,400.573 317.896,400.886 318.099,401.177 318.31,401.468 318.521,401.76 318.732,402.051 318.958,402.353 319.208,402.677 319.457,403.002 319.671,403.299 319.885,403.596 320.1,403.892 320.336,404.209 320.571,404.526 320.807,404.842 321.043,405.162 321.269,405.461 321.492,405.761 321.712,406.062 321.945,406.382 322.16,406.697 322.375,407.011 322.609,407.345 322.843,407.679 323.077,408.013 323.293,408.325 323.511,408.638 323.728,408.95 323.963,409.278 324.194,409.615 324.425,409.953 324.641,410.255 324.858,410.557 325.075,410.858 325.304,411.199 325.534,411.54 325.763,411.881 325.987,412.205 326.208,412.502 326.428,412.799 326.647,413.098 326.876,413.442 327.106,413.785 327.336,414.12 327.558,414.429 327.781,414.738 328.004,415.048 328.23,415.366 328.456,415.685 328.681,416.004 328.903,416.297 329.117,416.595 329.331,416.893 329.567,417.22 329.804,417.546 330.044,417.872 330.271,418.166 330.497,418.462 330.721,418.758 330.945,419.054 331.177,419.364 331.408,419.673 331.64,419.982 331.859,420.285 332.078,420.587 332.302,420.883 332.53,421.177 332.758,421.471 332.987,421.765 333.224,422.069 333.467,422.375 333.711,422.68 333.955,422.985 334.192,423.283 334.428,423.58 334.664,423.878 334.907,424.181 335.172,424.5 335.435,424.819 335.698,425.138 335.96,425.457 336.227,425.789 336.495,426.119 336.752,426.428 337.009,426.736 337.268,427.075 337.516,427.367 337.765,427.658 338.016,427.948 338.275,428.244 338.534,428.54 338.793,428.835 339.052,429.13 339.306,429.427 339.561,429.723 339.817,430.019 340.097,430.345 340.354,430.647 340.611,430.948 340.86,431.246 341.109,431.543 341.36,431.852 341.601,432.169 341.841,432.487 342.081,432.804 342.329,433.119 342.559,433.424 342.791,433.728 343.022,434.032 343.267,434.353 343.511,434.675 343.755,434.996 343.972,435.308 344.189,435.622 344.406,435.937 344.617,436.249 344.83,436.561 345.044,436.872 345.272,437.186 345.5,437.5 " fill="none" stroke-width="1" stroke="rgb(0,0,255)" />
	<polyline points="350.753,180.105 351.206,180.077 351.674,180.052 352.143,180.028 352.625,180.012 353.11,179.996 353.639,180.001 354.158,180 354.695,180.018 355.234,180.037 355.763,180.081 356.276,180.145 356.789,180.209 357.289,180.28 357.79,180.353 358.227,180.47 358.665,180.587 359.102,180.705 359.551,180.812 360,180.918 360.43,181.035 360.861,181.184 361.297,181.336 361.733,181.488 362.168,181.641 362.594,181.773 363.02,181.904 363.428,182.046 363.85,182.169 364.288,182.297 364.725,182.426 365.161,182.557 365.563,182.708 365.964,182.858 366.368,182.997 366.758,183.161 367.146,183.326 367.541,183.486 367.935,183.647 368.324,183.821 368.712,183.996 369.096,184.151 369.52,184.381 369.943,184.613 370.344,184.797 370.743,184.98 371.137,185.195 371.574,185.39 372.007,185.588 372.431,185.835 372.852,186.084 373.278,186.402 373.699,186.721 374.116,187.041 374.497,187.282 374.877,187.525 375.268,187.799 375.658,188.076 376.019,188.347 376.413,188.648 376.81,188.955 377.169,189.208 377.562,189.524 377.95,189.839 378.324,190.134 378.723,190.498 379.121,190.868 379.487,191.251 379.85,191.641 380.242,192.021 380.545,192.395 380.847,192.78 381.15,193.179 381.462,193.571 381.767,193.963 382.038,194.327 382.305,194.704 382.57,195.087 382.817,195.464 383.062,195.845 383.291,196.219 383.519,196.595 383.746,196.974 384.021,197.412 384.231,197.794 384.442,198.179 384.653,198.578 384.863,198.98 385.063,199.377 385.273,199.801 385.479,200.224 385.683,200.651 385.885,201.081 386.085,201.53 386.273,201.943 386.474,202.384 386.675,202.83 386.87,203.254 387.066,203.682 387.255,204.118 387.462,204.592 387.668,205.069 387.849,205.495 388.03,205.924 388.224,206.397 388.42,206.873 388.608,207.308 388.796,207.745 388.984,208.186 389.163,208.647 389.342,209.11 389.518,209.553 389.692,209.999 389.856,210.445 390.02,210.894 390.182,211.337 390.345,211.782 390.503,212.224 390.66,212.666 390.817,213.11 390.976,213.552 391.127,214.004 391.273,214.446 391.419,214.888 391.57,215.337 391.719,215.787 391.858,216.234 391.996,216.681 392.134,217.132 392.28,217.581 392.424,218.03 392.558,218.49 392.691,218.948 392.824,219.406 392.955,219.863 393.079,220.333 393.201,220.802 393.322,221.255 393.443,221.706 393.563,222.154 393.684,222.631 393.802,223.108 393.911,223.561 394.02,224.012 394.126,224.531 394.231,225.047 394.325,225.514 394.419,225.979 394.514,226.48 394.609,226.978 394.696,227.455 394.783,227.932 394.868,228.441 394.954,228.95 395.042,229.429 395.124,229.927 395.209,230.404 395.293,230.878 395.375,231.36 395.458,231.84 395.536,232.308 395.614,232.773 395.701,233.249 395.786,233.724 395.869,234.197 395.946,234.653 396.022,235.105 396.105,235.59 396.187,236.07 396.258,236.523 396.328,236.972 396.401,237.451 396.474,237.925 396.536,238.391 396.598,238.852 396.663,239.34 396.726,239.824 396.787,240.294 396.847,240.762 396.906,241.23 396.964,241.727 397.02,242.218 397.069,242.689 397.117,243.157 397.16,243.661 397.203,244.163 397.245,244.635 397.287,245.106 397.325,245.61 397.364,246.112 397.402,246.591 397.439,247.068 397.473,247.58 397.506,248.088 397.531,248.588 397.555,249.084 397.575,249.611 397.592,250.134 397.604,250.645 397.615,251.153 397.617,251.669 397.618,252.185 397.615,252.7 397.609,253.214 397.599,253.706 397.587,254.198 397.574,254.717 397.559,255.238 397.543,255.718 397.524,256.199 397.5,256.73 397.474,257.263 397.447,257.745 397.419,258.228 397.386,258.759 397.352,259.247 397.318,259.734 397.284,260.22 397.25,260.736 397.216,261.25 397.178,261.728 397.139,262.206 397.094,262.702 397.047,263.197 396.994,263.652 396.953,264.143 396.9,264.632 396.848,265.125 396.802,265.602 396.756,266.084 396.708,266.579 396.658,267.078 396.612,267.566 396.565,268.06 396.51,268.535 396.455,269.012 396.395,269.496 396.335,269.982 396.274,270.441 396.213,270.899 396.141,271.379 396.071,271.861 396.001,272.306 395.948,272.754 395.88,273.253 395.812,273.751 395.745,274.249 395.689,274.697 395.633,275.144 395.569,275.625 395.505,276.105 395.452,276.566 395.399,277.026 395.342,277.503 395.286,277.977 395.233,278.448 395.181,278.916 395.134,279.401 395.087,279.88 395.045,280.378 395.005,280.873 394.961,281.36 394.917,281.842 394.884,282.354 394.85,282.862 394.807,283.351 394.764,283.839 394.723,284.346 394.681,284.854 394.636,285.349 394.593,285.848 394.546,286.365 394.5,286.886 394.452,287.378 394.403,287.875 394.342,288.393 394.278,288.916 394.21,289.383 394.139,289.853 394.055,290.352 393.97,290.854 393.893,291.307 393.815,291.761 393.723,292.266 393.627,292.783 393.537,293.245 393.445,293.711 393.352,294.178 393.249,294.678 393.144,295.177 393.038,295.63 392.923,296.129 392.798,296.581 392.671,297.037 392.541,297.496 392.408,297.959 392.281,298.415 392.152,298.874 392.015,299.33 391.884,299.778 391.745,300.227 391.605,300.676 391.463,301.127 391.319,301.576 391.176,302.027 391.04,302.461 390.909,302.901 390.757,303.362 390.605,303.824 390.46,304.252 390.314,304.679 390.167,305.106 390.006,305.547 389.84,305.988 389.688,306.397 389.535,306.806 389.355,307.255 389.175,307.702 388.993,308.147 388.802,308.562 388.61,308.976 388.423,309.404 388.234,309.829 388.025,310.251 387.841,310.649 387.656,311.044 387.446,311.503 387.236,311.958 387.036,312.357 386.815,312.781 386.602,313.218 386.396,313.656 386.185,314.089 385.962,314.5 385.73,314.898 385.508,315.33 385.286,315.759 385.066,316.184 384.858,316.586 384.65,316.985 384.433,317.412 384.215,317.835 384.008,318.231 383.783,318.658 383.554,319.08 383.315,319.478 383.075,319.872 382.836,320.304 382.599,320.732 382.363,321.158 382.122,321.545 381.88,321.929 381.62,322.331 381.358,322.73 381.093,323.127 380.844,323.503 380.593,323.877 380.295,324.277 379.996,324.673 379.722,325.057 379.383,325.461 379.045,325.861 378.7,326.274 378.356,326.684 378.012,327.092 377.656,327.476 377.299,327.86 376.932,328.238 376.558,328.629 376.181,329.021 375.803,329.383 375.419,329.746 375.031,330.113 374.647,330.439 374.26,330.766 373.869,331.094 373.456,331.425 373.039,331.756 372.671,332.017 372.259,332.328 371.843,332.641 371.438,332.902 371.035,333.181 370.654,333.435 370.27,333.688 369.884,333.942 369.51,334.182 369.134,334.423 368.759,334.661 368.384,334.899 368.015,335.129 367.644,335.357 367.271,335.585 366.897,335.813 366.531,336.03 366.163,336.249 365.799,336.467 365.434,336.685 365.068,336.902 364.685,337.118 364.301,337.334 363.917,337.551 363.509,337.783 363.102,338.016 362.701,338.241 362.3,338.466 " fill="none" stroke-width="1" stroke="rgb(0,0,255)" />
	<polyline points="350.753,180.105 350.42,180.297 350.087,180.489 349.742,180.7 349.398,180.912 349.075,181.116 348.733,181.353 348.393,181.59 348.053,181.827 347.717,182.064 347.35,182.321 346.984,182.58 346.629,182.84 346.274,183.099 345.904,183.414 345.54,183.699 345.177,183.984 344.819,184.267 344.462,184.552 344.106,184.838 343.737,185.156 343.379,185.444 343.023,185.735 342.689,186.064 342.338,186.352 341.988,186.644 341.635,186.996 341.334,187.334 341.035,187.672 340.724,188.001 340.435,188.35 340.147,188.701 339.862,189.052 339.531,189.405 339.201,189.76 338.874,190.115 338.616,190.439 338.359,190.764 338.103,191.089 337.829,191.432 337.556,191.776 337.282,192.122 336.997,192.475 336.768,192.791 336.54,193.109 336.244,193.48 335.948,193.853 335.707,194.197 335.468,194.541 335.228,194.888 334.966,195.248 334.717,195.599 334.469,195.953 334.221,196.307 333.973,196.663 333.727,197.017 333.46,197.389 333.191,197.764 332.92,198.143 332.644,198.545 332.367,198.951 332.125,199.329 331.859,199.718 331.592,200.111 331.323,200.521 331.053,200.935 330.826,201.316 330.598,201.699 330.369,202.085 330.107,202.502 329.874,202.879 329.645,203.256 329.415,203.636 329.186,204.018 328.974,204.389 328.74,204.794 328.508,205.198 328.317,205.555 328.127,205.91 327.88,206.324 327.683,206.694 327.484,207.068 327.291,207.433 327.098,207.801 326.905,208.169 326.719,208.566 326.533,208.964 326.364,209.345 326.196,209.727 326.029,210.11 325.864,210.517 325.699,210.925 325.544,211.353 325.391,211.782 325.238,212.212 325.08,212.649 324.924,213.086 324.769,213.508 324.615,213.929 324.46,214.358 324.304,214.784 324.148,215.207 323.973,215.629 323.806,216.082 323.654,216.517 323.504,216.951 323.351,217.406 323.2,217.86 323.078,218.335 322.956,218.809 322.814,219.258 322.671,219.706 322.529,220.153 322.392,220.587 322.256,221.021 322.117,221.465 321.979,221.908 321.837,222.345 321.695,222.781 321.555,223.216 321.413,223.649 321.272,224.08 321.127,224.498 320.985,224.916 320.856,225.369 320.729,225.822 320.587,226.254 320.445,226.685 320.305,227.115 320.18,227.566 320.057,228.017 319.929,228.456 319.8,228.894 319.672,229.329 319.545,229.764 319.418,230.198 319.302,230.68 319.186,231.16 319.059,231.59 318.934,232.021 318.816,232.464 318.699,232.909 318.591,233.337 318.483,233.765 318.377,234.195 318.275,234.628 318.175,235.063 318.076,235.499 317.979,235.937 317.906,236.393 317.834,236.85 317.763,237.316 317.693,237.784 317.634,238.23 317.574,238.676 317.516,239.122 317.456,239.597 317.398,240.073 317.354,240.519 317.312,240.963 317.268,241.44 317.227,241.915 317.198,242.364 317.169,242.811 317.139,243.28 317.11,243.747 317.083,244.213 317.067,244.674 317.052,245.136 317.027,245.609 317.003,246.083 316.989,246.535 316.974,246.99 316.962,247.476 316.95,247.965 316.941,248.422 316.932,248.881 316.925,249.369 316.919,249.859 316.915,250.316 316.911,250.775 316.909,251.263 316.907,251.752 316.906,252.241 316.908,252.694 316.91,253.147 316.912,253.633 316.914,254.117 316.921,254.562 316.928,255.004 316.941,255.48 316.954,255.953 316.972,256.383 316.99,256.812 317.019,257.276 317.048,257.738 317.077,258.201 317.102,258.625 317.127,259.051 317.156,259.527 317.187,260.006 317.215,260.439 317.245,260.873 317.271,261.374 317.298,261.876 317.325,262.326 317.353,262.776 317.381,263.28 317.411,263.783 317.444,264.241 317.477,264.697 317.511,265.151 317.549,265.636 317.588,266.118 317.63,266.571 317.673,267.02 317.719,267.49 317.766,267.954 317.817,268.42 317.868,268.881 317.924,269.338 317.981,269.789 318.027,270.256 318.072,270.725 318.115,271.196 318.164,271.655 318.213,272.116 318.25,272.592 318.287,273.07 318.327,273.53 318.368,273.992 318.408,274.484 318.448,274.978 318.486,275.43 318.524,275.885 318.565,276.385 318.605,276.887 318.642,277.322 318.68,277.757 318.719,278.193 318.761,278.696 318.803,279.199 318.842,279.623 318.882,280.047 318.928,280.543 318.973,281.04 319.016,281.463 319.056,281.885 319.104,282.387 319.154,282.89 319.204,283.306 319.256,283.724 319.308,284.144 319.375,284.623 319.444,285.105 319.502,285.531 319.559,285.961 319.627,286.442 319.694,286.927 319.752,287.359 319.811,287.794 319.878,288.27 319.945,288.749 320.013,289.231 320.075,289.681 320.137,290.133 320.207,290.616 320.279,291.101 320.351,291.544 320.425,291.988 320.51,292.444 320.596,292.9 320.678,293.35 320.762,293.801 320.857,294.238 320.952,294.676 321.048,295.116 321.152,295.57 321.258,296.025 321.367,296.465 321.478,296.906 321.59,297.383 321.703,297.861 321.824,298.302 321.948,298.743 322.062,299.185 322.182,299.65 322.304,300.114 322.42,300.553 322.538,300.993 322.667,301.424 322.797,301.856 322.93,302.295 323.071,302.728 323.215,303.151 323.365,303.579 323.517,304.008 323.666,304.414 323.816,304.821 323.973,305.235 324.123,305.656 324.273,306.077 324.423,306.481 324.573,306.885 324.728,307.321 324.884,307.757 325.04,308.191 325.198,308.593 325.357,308.994 325.536,309.421 325.717,309.846 325.892,310.25 326.069,310.652 326.242,311.052 326.421,311.479 326.599,311.904 326.784,312.307 326.969,312.707 327.145,313.104 327.338,313.528 327.532,313.949 327.714,314.34 327.896,314.729 328.079,315.116 328.281,315.531 328.482,315.943 328.673,316.336 328.865,316.726 329.058,317.113 329.27,317.517 329.482,317.918 329.669,318.299 329.857,318.677 330.046,319.05 330.336,319.482 330.624,319.907 330.837,320.287 331.048,320.664 331.285,321.094 331.513,321.469 331.742,321.84 331.977,322.221 332.184,322.588 332.392,322.951 332.619,323.292 332.846,323.628 333.072,323.962 333.311,324.306 333.55,324.647 333.789,324.983 334.022,325.303 334.263,325.63 334.505,325.954 334.756,326.298 335.009,326.638 335.238,326.952 335.486,327.288 335.738,327.621 335.995,327.949 336.295,328.278 336.598,328.603 336.906,328.924 337.231,329.206 337.559,329.488 337.889,329.769 338.225,330.048 338.553,330.375 338.887,330.704 339.242,330.993 339.579,331.262 339.922,331.531 340.255,331.782 340.593,332.031 340.966,332.339 341.301,332.595 341.642,332.85 341.986,333.104 342.328,333.324 342.672,333.544 343.019,333.762 343.364,333.996 343.712,334.229 344.062,334.459 344.406,334.68 344.751,334.898 345.109,335.112 345.46,335.285 345.812,335.456 346.166,335.625 346.513,335.797 346.862,335.968 347.224,336.15 347.587,336.33 347.952,336.508 348.299,336.652 348.647,336.794 348.998,336.934 349.363,337.063 349.735,337.183 350.107,337.302 350.471,337.418 350.837,337.534 351.22,337.641 351.604,337.747 351.99,337.851 352.385,337.947 352.782,338.053 353.18,338.157 353.598,338.263 354.017,338.368 354.45,338.467 354.884,338.566 355.341,338.665 355.799,338.764 356.339,338.811 356.88,338.856 357.398,338.859 357.914,338.86 358.418,338.84 358.92,338.818 359.353,338.78 359.783,338.741 360.222,338.699 360.66,338.657 361.097,338.613 361.497,338.565 361.895,338.515 362.3,338.466 " fill="none" stroke-width="1" stroke="rgb(0,0,255)" />
</g></svg>
