<?xml version="1.0" ?>
<svg xmlns="http://www.w3.org/2000/svg" xmlns:ev="http://www.w3.org/2001/xml-events" xmlns:xlink="http://www.w3.org/1999/xlink" baseProfile="full" height="578px" version="1.1" viewBox="17.904697000000006 40.133247 453.264606 436.080006" width="600px">
	<defs/>
	<path d="M 353.876,79.8428 L 357.859,79.9342 L 362.861,85.5641 L 370.046,92.9343 L 375.352,98.9961 L 389.701,115.935 L 402.08,131.221 L 412.208,144.966 L 419.538,156.023 L 423.159,161.888 L 425.611,166.115 L 427.434,169.916 L 428.64,172.968 L 429.203,175.869 L 430.333,198.979 L 431.557,212.286 L 432.562,228.252 L 433.221,245.206 L 433.24,258.592 L 432.436,286.186 L 431.255,303.086 L 429.017,323.745 L 427.757,332.974 L 425.971,349.985 L 425.063,355.912 L 424.489,358.135 L 423.753,360.146 L 422.233,362.548 L 420.398,364.91 L 416.034,369.889 L 395.984,390.594 L 392.549,394.052 L 386.777,399.37 L 379.077,407.35 L 371.554,414.826 L 363.101,422.636 L 356.088,429.452 L 353.835,431.481 L 349.809,434.709 L 347.196,436.567 L 345.5,437.5" fill="none" stroke="rgb(31,119,180)" stroke-width="3"/>
	<path d="M 345.5,437.5 L 338.096,437.695 L 310.691,437.495 L 288.898,438.095 L 267.952,439.028 L 260.184,439.515 L 247.755,439.716 L 215.262,438.674 L 193.224,438.504 L 176.693,437.941 L 153.288,437.591 L 145.993,437.033 L 143.217,436.628 L 140.829,435.842 L 139.062,435.03 L 136.718,433.655 L 132.804,431.058 L 125.197,424.611 L 117.831,417.951 L 113.74,413.885 L 108.337,408.162 L 103.135,402.181 L 96.2041,393.816 L 91.0111,386.457 L 84.8769,376.755 L 80.4857,369.157 L 76.1325,361.118 L 73.3389,354.994 L 70.7678,348.877 L 67.3901,339.724 L 66.5,336.5" fill="none" stroke="rgb(174,199,232)" stroke-width="3"/>
	<path d="M 70.5,161.5 L 71.9646,156.993 L 73.9789,152.918 L 78.5066,145.016 L 83.4855,136.827 L 86.483,132.655 L 89.8588,127.239 L 92.6097,123.3 L 95.9108,119.183 L 100.775,114.09 L 106.31,108.831 L 110.805,105.052 L 118.477,99.172 L 124.266,95.2138 L 138.445,86.2738 L 147.659,81.3002 L 153.857,78.3278 L 155.77,77.6782 L 159.967,76.8264 L 163.068,76.6305 L 199.221,77.9847 L 220.291,78.385 L 230.89,78.3852 L 242.065,78.0584 L 254.647,77.4689 L 262.956,77.422 L 275.728,77.7761 L 303.742,79.0023 L 320.858,79.5563 L 347.329,79.6335 L 353.876,79.8428" fill="none" stroke="rgb(255,127,14)" stroke-width="3"/>
	<path d="M 70.5,161.5 L 80.7284,160.913 L 99.1919,160.537 L 123.995,159.572 L 131.915,159.378 L 143.946,159.356 L 154.531,159.498 L 162.424,159.779 L 187.821,161.267 L 201.144,161.366 L 233.574,159.943 L 250.689,159.621 L 271.72,159.589 L 273.867,159.273 L 276.5,158.5" fill="none" stroke="rgb(255,187,120)" stroke-width="3"/>
	<path d="M 66.5,336.5 L 78.9849,337.231 L 111.506,338.969 L 128.895,339.44 L 139.922,339.442 L 146.514,339.267 L 161.409,338.464 L 176.658,337.867 L 197.521,337.442 L 211.049,336.671 L 223.407,336.552 L 240.081,335.7 L 268.823,334.61 L 270.599,334.672 L 271.5,334.5" fill="none" stroke="rgb(44,160,44)" stroke-width="3"/>
	<path d="M 350.753,180.105 L 355.234,180.037 L 357.79,180.353 L 360.43,181.035 L 366.368,182.997 L 369.096,184.151 L 372.852,186.084 L 377.169,189.208 L 379.121,190.868 L 380.242,192.021 L 381.767,193.963 L 384.021,197.412 L 387.066,203.682 L 389.692,209.999 L 391.719,215.787 L 393.684,222.631 L 394.609,226.978 L 396.187,236.07 L 397.02,242.218 L 397.439,247.068 L 397.615,251.153 L 397.543,255.718 L 397.047,263.197 L 395.181,278.916 L 394.403,287.875 L 393.815,291.761 L 392.923,296.129 L 390.006,305.547 L 388.993,308.147 L 386.185,314.089 L 381.88,321.929 L 379.722,325.057 L 378.012,327.092 L 374.26,330.766 L 369.884,333.942 L 362.3,338.466" fill="none" stroke="rgb(152,223,138)" stroke-width="3"/>
	<path d="M 350.753,180.105 L 346.274,183.099 L 343.023,185.735 L 341.635,186.996 L 338.874,190.115 L 335.948,193.853 L 331.053,200.935 L 327.88,206.324 L 325.699,210.925 L 323.351,217.406 L 320.305,227.115 L 318.483,233.765 L 317.763,237.316 L 317.227,241.915 L 316.919,249.859 L 316.954,255.953 L 317.511,265.151 L 319.308,284.144 L 320.425,291.988 L 321.703,297.861 L 323.071,302.728 L 325.717,309.846 L 329.058,317.113 L 330.046,319.05 L 332.392,322.951 L 335.486,327.288 L 336.906,328.924 L 341.301,332.595 L 345.109,335.112 L 349.363,337.063 L 355.799,338.764 L 358.92,338.818 L 362.3,338.466" fill="none" stroke="rgb(214,39,40)" stroke-width="3"/>
	<path d="M 66.5,336.5 L 65.6517,333.109 L 64.8596,331.13 L 63.8388,327.77 L 62.5104,322.92 L 59.8401,309.274 L 58.1868,296.813 L 57.2215,286.271 L 55.9567,267.855 L 55.834,263.155 L 55.9469,247.135 L 56.5469,233.136 L 58.1277,213.838 L 59.5817,203.091 L 61.4414,191.761 L 63.0278,185.252 L 64.8097,178.945 L 67.4874,170.237 L 69.9449,163.584 L 70.5,161.5" fill="none" stroke="rgb(255,152,150)" stroke-width="3"/>
	<path d="M 276.5,158.5 L 277.007,166.881 L 278.985,194.086 L 279.295,200.198 L 279.886,224.927 L 279.894,251.352 L 279.36,265.606 L 278.126,284.491 L 277.881,290.967 L 276.892,301.306 L 276.244,310.127 L 274.674,321.914 L 273.015,329.262 L 271.5,334.5" fill="none" stroke="rgb(148,103,189)" stroke-width="3"/>
	<path d="M 271.5,334.5 L 284.049,352.733 L 298.645,373.132 L 312.016,392.853 L 321.945,406.382 L 327.336,414.12 L 332.078,420.587 L 337.268,427.075 L 341.36,431.852 L 345.5,437.5" fill="none" stroke="rgb(197,176,213)" stroke-width="3"/>
	<path d="M 276.5,158.5 L 280.806,154.838 L 299.386,137.933 L 322.115,115.099 L 328.634,108.203 L 340.963,94.689 L 351.754,83.5632 L 352.111,83.142 L 353.876,79.8428" fill="none" stroke="rgb(140,86,75)" stroke-width="3"/>
</svg>
