<?xml version="1.0" ?>
<svg xmlns="http://www.w3.org/2000/svg" xmlns:ev="http://www.w3.org/2001/xml-events" xmlns:xlink="http://www.w3.org/1999/xlink" baseProfile="full" height="344px" version="1.1" viewBox="-20.715699600000008 3.0619103999999986 549.0481992 313.8780792" width="600px">
	<defs/>
	<path d="M 384.5,30.5 L 374.24,30.2473 L 364.685,29.7504 L 351.722,29.4302 L 310.432,29.4089 L 296.238,29.5784 L 287.234,29.8798 L 268.126,30.7016 L 258.117,31.4733 L 222.511,33.5959 L 197.523,35.2933 L 164.575,37.1832 L 132.347,37.6405 L 110.754,38.3727 L 91.3891,38.5197 L 84.9363,38.7542 L 72.4212,39.6976 L 65.0038,40.6359 L 60.0812,41.6232 L 55.8558,43.1887 L 53.1484,44.5925 L 50.9367,46.1419 L 47.7624,48.6516 L 46.6397,49.8487 L 43.7381,53.9698 L 39.5446,61.5546 L 38.3058,64.4976 L 36.8326,69.0342 L 33.282,81.8814 L 30.7221,92.5433 L 29.6481,98.4358 L 27.2492,116.762 L 25.6996,135.587 L 25.296,148.488 L 25.2288,192.363 L 25.4033,200.104 L 25.7238,205.253 L 26.8471,216.385 L 27.7353,221.402 L 32.4116,236.637 L 35.1437,244.778 L 37.217,250.139 L 39.6412,254.511 L 43.3118,259.406 L 46.7066,263.344 L 54.5711,271.888 L 56.6513,273.503 L 64.5301,278.751 L 69.7407,281.475 L 74.2346,283.201 L 81.3126,285.196 L 87.3382,286.263 L 92.2772,286.895 L 103.69,287.914 L 114.75,289.14 L 132.372,290.504 L 159.495,290.593 L 243.367,290.344 L 265.202,289.967 L 288.273,289.362 L 302.098,288.722 L 322.765,288.207 L 353.447,286.97 L 362.042,286.287 L 371.157,285.837 L 378.416,285.19 L 381.071,284.877 L 381.39,284.192 L 382.536,283.955" fill="none" stroke="rgb(31,119,180)" stroke-width="3"/>
	<path d="M 384.5,30.5 L 389.206,30.2009 L 394.053,30.176 L 401.556,30.5053 L 405.231,31.0559 L 413.376,33.0546 L 423.15,36.2882 L 427.397,37.9709 L 430.871,39.6113 L 433.292,40.9514 L 436.301,42.9267 L 441.188,46.5222 L 446.702,51.0839 L 453.007,56.9542 L 457.591,61.8639 L 461.942,67.5834 L 464.338,71.0636 L 465.418,72.9273 L 467.451,76.8634 L 471.271,85.8006 L 475.12,97.2438 L 476.228,101.179 L 479.032,112.879 L 480.09,119.283 L 481.912,136.802 L 482.196,141.002 L 482.388,150.769 L 482.219,169.026 L 481.592,178.554 L 481.028,184.47 L 478.565,200.851 L 476.719,211.131 L 475.695,215.06 L 469.121,235.696 L 467.121,240.552 L 463.021,249.346 L 459.59,256.128 L 455.174,263.91 L 452.3,267.808 L 449.996,270.374 L 446.13,273.859 L 443.181,276.124 L 440.038,278.928 L 435.827,281.899 L 432.799,283.822 L 431.072,284.744 L 428.832,285.615 L 424.5,283.5" fill="none" stroke="rgb(174,199,232)" stroke-width="3"/>
	<path d="M 382.536,283.955 L 380.459,281.471 L 375.108,277.467 L 369.846,273.109 L 366.635,270.138 L 361.302,264.743 L 358.082,260.808 L 355.029,256.18 L 351.88,250.907 L 350.017,247.362 L 347.029,240.38 L 345.018,234.63 L 343.668,230.249 L 342.027,223.221 L 341.63,220.07 L 341.365,215.376 L 341.178,196.737 L 341.279,188.726 L 341.791,178.817 L 343.043,163.171 L 344.919,145.831 L 346.507,134.831 L 348.156,124.913 L 349.916,115.958 L 353.048,101.924 L 356.728,86.9872 L 359.922,75.4687 L 362.99,65.9823 L 365.439,59.9091 L 369.637,50.8219 L 371.873,46.3891 L 373.999,42.7952 L 380.143,35.1815 L 384.5,30.5" fill="none" stroke="rgb(255,127,14)" stroke-width="3"/>
	<path d="M 424.5,283.5 L 420.839,286.077 L 414.209,286.479 L 406.127,286.369 L 397.271,285.821 L 389.857,285.109 L 382.536,283.955" fill="none" stroke="rgb(255,187,120)" stroke-width="3"/>
</svg>
