<?xml version="1.0" standalone="no" ?>
<!DOCTYPE svg PUBLIC "-//W3C//DTD SVG 1.1//EN" "http://www.w3.org/Graphics/SVG/1.1/DTD/svg11.dtd">
<svg width="512px" height="512px" xmlns="http://www.w3.org/2000/svg" xmlns:xlink="http://www.w3.org/1999/xlink" version="1.1" >

<g>	<image style="overflow: visible; opacity: 0.4" width="512" height="512" xlink:href="Cylindrical_Parts_008_1_512_erode.png" />

</g>
<g>	<polyline points="424.5,283.5 424.63,284.017 424.735,284.502 424.84,284.987 424.929,285.49 425.018,285.992 " fill="none" stroke-width="1" stroke="rgb(0,0,255)" />
	<polyline points="384.5,30.5 385.038,30.4551 385.617,30.4145 386.197,30.3739 386.778,30.3326 387.38,30.2954 387.982,30.2581 388.593,30.2296 389.206,30.2009 389.83,30.1849 390.447,30.1776 391.068,30.1705 391.673,30.1691 392.281,30.1678 392.878,30.1697 393.463,30.1727 394.053,30.176 394.643,30.1823 395.237,30.1925 395.827,30.209 396.43,30.2264 397.038,30.2443 397.658,30.2671 398.286,30.2907 398.926,30.3195 399.582,30.3553 400.249,30.3925 400.903,30.4416 401.556,30.5053 402.22,30.5711 402.85,30.6501 403.463,30.7386 404.087,30.8293 404.655,30.9414 405.231,31.0559 405.773,31.216 406.292,31.3448 406.815,31.4763 407.334,31.6177 407.857,31.7615 408.38,31.8917 408.909,32.0234 409.448,32.1514 409.992,32.2819 410.547,32.4064 411.107,32.5327 411.677,32.6619 412.252,32.7928 412.824,32.913 413.376,33.0546 413.922,33.2377 414.463,33.3808 415.007,33.5253 415.541,33.6967 416.078,33.8698 416.604,34.0331 417.138,34.2361 417.671,34.4099 418.205,34.5864 418.754,34.7949 419.294,34.9804 419.865,35.1473 420.412,35.3345 420.96,35.525 421.505,35.7199 422.056,35.916 422.602,36.1011 423.15,36.2882 423.714,36.5067 424.281,36.7274 424.805,36.9155 425.34,37.1241 425.874,37.3353 426.381,37.5466 426.885,37.7578 427.397,37.9709 427.909,38.2075 428.409,38.4349 428.905,38.6616 429.395,38.8813 429.906,39.1435 430.39,39.3771 430.871,39.6113 431.363,39.8739 431.851,40.1443 432.33,40.4044 432.806,40.6637 433.292,40.9514 433.919,41.3931 434.399,41.685 434.87,41.9726 435.357,42.2956 435.833,42.613 436.301,42.9267 436.893,43.3899 437.368,43.7175 437.836,44.0407 438.294,44.3637 438.745,44.6825 439.189,44.9971 439.859,45.5476 440.358,45.9383 440.774,46.2302 441.188,46.5222 441.668,46.9052 442.243,47.4703 442.684,47.816 443.125,48.1597 443.572,48.5143 444.019,48.8704 444.449,49.2044 444.878,49.5382 445.303,49.8696 445.805,50.3255 446.259,50.7097 446.702,51.0839 447.139,51.5324 447.587,51.9189 448.045,52.3541 448.5,52.7592 448.948,53.1588 449.401,53.5649 449.848,53.9696 450.319,54.408 450.786,54.846 451.227,55.2557 451.666,55.6658 452.102,56.0764 452.556,56.5157 453.007,56.9542 453.437,57.3898 453.865,57.8259 454.302,58.271 454.74,58.7171 455.179,59.1647 455.583,59.6076 455.988,60.052 456.402,60.5046 456.814,60.959 457.204,61.4107 457.591,61.8639 457.923,62.2941 458.295,62.7459 458.668,63.2007 458.953,63.6066 459.306,64.0597 459.748,64.6099 460.195,65.1708 460.523,65.6199 460.852,66.0759 461.167,66.5342 461.487,66.9998 461.942,67.5834 462.271,68.0493 462.597,68.5179 462.926,68.995 463.21,69.4401 463.499,69.8932 464.015,70.5713 464.338,71.0636 464.6,71.5111 464.867,71.9687 465.141,72.4434 465.418,72.9273 465.676,73.4027 465.936,73.8847 466.189,74.3576 466.444,74.8358 466.692,75.3358 466.938,75.8409 467.195,76.3504 467.451,76.8634 467.684,77.3813 467.917,77.9011 468.142,78.4105 468.368,78.9205 468.597,79.4258 468.824,79.9309 469.047,80.4503 469.267,80.9728 469.496,81.4753 469.723,81.9768 469.939,82.5076 470.199,83.1226 470.435,83.6581 470.668,84.1933 470.87,84.7288 471.071,85.2642 471.271,85.8006 471.456,86.318 471.639,86.8361 471.833,87.3773 472.025,87.9201 472.202,88.4442 472.378,88.9693 472.571,89.524 472.763,90.0788 472.938,90.6175 473.129,91.1499 473.304,91.695 473.481,92.2375 473.677,92.7929 473.85,93.3353 474.022,93.8746 474.209,94.4502 474.395,95.021 474.559,95.5485 474.722,96.0721 474.903,96.6402 475.12,97.2438 475.272,97.7716 475.447,98.346 475.62,98.9172 475.764,99.4476 475.906,99.9764 476.06,100.549 476.228,101.179 476.364,101.718 476.5,102.258 476.637,102.841 476.765,103.399 476.892,103.957 477.023,104.51 477.139,105.09 477.271,105.654 477.402,106.218 477.531,106.758 477.677,107.328 477.822,107.898 477.954,108.439 478.084,108.98 478.228,109.548 478.373,110.113 478.509,110.657 478.643,111.199 478.776,111.764 478.906,112.322 479.032,112.879 479.148,113.456 479.263,114.025 479.376,114.601 479.486,115.167 479.581,115.773 479.673,116.339 479.763,116.891 479.844,117.524 479.922,118.149 480.006,118.708 480.09,119.283 480.16,119.933 480.228,120.478 480.295,121.016 480.354,121.653 480.413,122.286 480.47,122.836 480.524,123.477 480.578,124.114 480.631,124.661 480.684,125.205 480.733,125.85 480.793,126.381 480.852,126.912 480.907,127.55 480.962,128.189 481.021,128.725 481.083,129.349 481.147,129.971 481.211,130.5 481.274,131.029 481.335,131.652 481.395,132.279 481.455,132.817 481.518,133.432 481.58,134.05 481.644,134.588 481.707,135.128 481.771,135.75 481.842,136.276 481.912,136.802 481.948,137.48 481.983,138.154 482.035,138.702 482.085,139.253 482.125,139.87 482.161,140.435 482.196,141.002 482.222,141.622 482.247,142.247 482.268,142.833 482.285,143.457 482.301,144.085 482.317,144.681 482.331,145.28 482.343,145.915 482.353,146.512 482.361,147.108 482.368,147.741 482.374,148.335 482.38,148.924 482.384,149.557 482.387,150.183 482.388,150.769 482.386,151.41 482.383,152.052 482.382,152.656 482.379,153.263 482.379,153.887 482.381,154.491 482.382,155.098 482.385,155.718 482.387,156.321 482.388,156.927 482.391,157.543 482.393,158.161 482.394,158.774 482.392,159.384 482.39,159.995 482.386,160.608 482.381,161.222 482.376,161.836 482.371,162.438 482.366,163.039 482.359,163.657 482.351,164.272 482.342,164.862 482.33,165.488 482.318,166.111 482.303,166.697 482.288,167.278 482.267,167.901 482.243,168.467 482.219,169.026 482.183,169.632 482.147,170.24 482.112,170.799 482.073,171.437 482.033,172.081 481.996,172.65 481.958,173.228 481.913,173.861 481.874,174.419 481.835,174.976 481.794,175.589 481.753,176.203 481.714,176.755 481.675,177.362 481.635,177.981 481.592,178.554 481.546,179.133 481.496,179.744 481.445,180.331 481.394,180.922 481.34,181.533 481.285,182.151 481.224,182.72 481.16,183.304 481.096,183.899 481.028,184.47 480.946,185.008 480.867,185.569 480.786,186.127 480.705,186.675 480.624,187.222 480.547,187.786 480.471,188.348 480.395,188.909 480.319,189.48 480.243,190.05 480.16,190.605 480.077,191.159 479.995,191.729 479.902,192.278 479.809,192.825 479.718,193.393 479.627,193.957 479.537,194.531 479.448,195.101 479.358,195.657 479.268,196.21 479.184,196.81 479.092,197.389 478.999,197.967 478.917,198.573 478.834,199.178 478.741,199.724 478.648,200.271 478.565,200.851 478.47,201.408 478.376,201.97 478.289,202.532 478.201,203.101 478.099,203.65 477.998,204.211 477.906,204.769 477.802,205.329 477.697,205.898 477.604,206.472 477.511,207.056 477.403,207.629 477.295,208.211 477.194,208.81 477.075,209.364 476.954,209.927 476.838,210.525 476.719,211.131 476.585,211.679 476.448,212.234 476.305,212.833 476.162,213.372 476.017,213.917 475.858,214.487 475.695,215.06 475.527,215.595 475.358,216.135 475.185,216.688 475.01,217.245 474.837,217.786 474.656,218.329 474.474,218.876 474.302,219.425 474.128,219.976 473.921,220.534 473.75,221.08 473.578,221.638 473.405,222.197 473.24,222.743 473.074,223.31 472.907,223.878 472.747,224.423 472.587,224.966 472.41,225.554 472.234,226.139 472.072,226.678 471.9,227.208 471.711,227.802 471.543,228.336 471.375,228.869 471.179,229.465 470.984,230.061 470.815,230.605 470.646,231.149 470.426,231.777 470.254,232.323 470.082,232.867 469.883,233.469 469.683,234.069 469.503,234.598 469.323,235.126 469.121,235.696 468.859,236.304 468.675,236.826 468.438,237.391 468.2,237.958 468.003,238.475 467.801,238.983 467.572,239.509 467.341,240.036 467.121,240.552 466.839,241.116 466.604,241.633 466.369,242.149 466.133,242.663 465.851,243.219 465.633,243.723 465.414,244.23 465.174,244.743 464.933,245.255 464.714,245.761 464.467,246.272 464.219,246.783 463.991,247.298 463.758,247.817 463.512,248.318 463.266,248.817 463.021,249.346 462.712,249.976 462.442,250.5 462.173,251.022 461.922,251.551 461.677,252.068 461.414,252.572 461.15,253.073 460.904,253.581 460.651,254.091 460.391,254.585 460.133,255.074 459.861,255.603 459.59,256.128 459.301,256.647 459.011,257.161 458.733,257.693 458.451,258.223 458.17,258.721 457.859,259.272 457.581,259.792 457.327,260.243 457.08,260.685 456.744,261.207 456.484,261.679 456.225,262.145 455.946,262.604 455.715,263.02 455.446,263.468 455.174,263.91 454.896,264.35 454.554,264.825 454.266,265.26 453.981,265.688 453.46,266.322 452.952,266.935 452.625,267.375 452.3,267.808 451.849,268.328 451.472,268.805 450.99,269.333 450.514,269.852 449.996,270.374 449.473,270.832 448.96,271.33 448.519,271.687 448.078,272.041 447.586,272.52 447.09,273 446.611,273.429 446.13,273.859 445.706,274.201 445.28,274.544 444.85,274.889 444.42,275.227 443.983,275.567 443.583,275.846 443.181,276.124 442.629,276.659 442.094,277.174 441.675,277.494 441.259,277.812 440.66,278.36 440.038,278.928 439.592,279.255 439.139,279.587 438.675,279.915 438.184,280.274 437.76,280.543 437.337,280.809 436.914,281.072 436.371,281.486 435.827,281.899 435.404,282.167 434.98,282.434 434.542,282.717 434.105,283 433.669,283.274 433.234,283.549 432.799,283.822 432.376,284.051 431.944,284.275 431.508,284.51 431.072,284.744 430.641,284.937 430.202,285.129 429.753,285.302 429.295,285.461 428.832,285.615 428.298,285.717 427.694,285.784 427.088,285.859 426.409,285.93 425.727,285.999 425.018,285.992 " fill="none" stroke-width="1" stroke="rgb(0,0,255)" />
	<polyline points="425.018,285.992 424.452,286.021 423.888,286.051 423.301,286.058 422.684,286.062 422.067,286.066 421.453,286.071 420.839,286.077 420.268,286.125 419.71,286.182 419.153,286.24 418.564,286.281 417.975,286.321 417.357,286.359 416.738,286.396 416.122,286.426 415.484,286.444 414.844,286.461 414.209,286.479 413.57,286.487 412.928,286.495 412.282,286.502 411.66,286.5 411.035,286.499 410.402,286.496 409.764,286.492 409.15,286.481 408.535,286.467 407.915,286.451 407.322,286.427 406.727,286.399 406.127,286.369 405.559,286.332 404.987,286.296 404.422,286.256 403.855,286.217 403.294,286.176 402.733,286.136 402.168,286.097 401.593,286.055 401.017,286.013 400.449,285.969 399.88,285.925 399.288,285.874 398.625,285.856 397.961,285.838 397.271,285.821 396.652,285.769 396.029,285.717 395.405,285.663 394.778,285.609 394.164,285.549 393.569,285.486 392.972,285.422 392.342,285.36 391.712,285.298 391.135,285.231 390.496,285.17 389.857,285.109 389.307,285.034 388.669,284.975 388.087,284.888 387.561,284.798 387.034,284.706 386.463,284.608 385.889,284.509 385.359,284.413 384.827,284.316 384.253,284.217 383.679,284.135 383.106,284.048 382.536,283.955 " fill="none" stroke-width="1" stroke="rgb(0,0,255)" />
	<polyline points="381.585,31.9239 381.058,31.3392 380.673,30.7887 379.448,30.7232 378.117,30.6334 377.08,30.4828 375.646,30.3572 374.24,30.2473 372.905,30.1996 371.659,30.1642 370.15,30.084 368.804,29.9932 367.392,29.9006 366.02,29.8168 364.685,29.7504 363.366,29.6909 362.059,29.6439 360.75,29.6044 359.454,29.5695 358.166,29.5444 356.87,29.5194 355.581,29.4947 354.299,29.4688 353.011,29.4455 351.722,29.4302 350.433,29.4188 349.145,29.4121 347.853,29.4032 346.568,29.3991 345.281,29.4002 343.983,29.3969 342.705,29.3995 341.412,29.3998 340.11,29.4032 338.827,29.4135 337.528,29.4214 336.241,29.4086 334.943,29.4025 333.664,29.3945 332.364,29.3945 331.063,29.3863 329.798,29.3838 328.494,29.3841 327.192,29.3905 325.926,29.3915 324.624,29.3886 323.329,29.3847 322.053,29.3721 320.755,29.3708 319.466,29.3749 318.177,29.395 316.885,29.4044 315.597,29.4145 314.308,29.4157 313.015,29.4081 311.724,29.4036 310.432,29.4089 309.147,29.4261 307.848,29.4404 306.568,29.4641 305.282,29.4814 303.983,29.4976 302.697,29.5073 301.401,29.5101 300.109,29.5217 298.818,29.5362 297.524,29.553 296.238,29.5784 294.94,29.6067 293.652,29.6446 292.354,29.6852 291.071,29.7335 289.778,29.7863 288.492,29.8374 287.234,29.8798 286.029,29.9399 284.82,29.9986 283.534,30.0406 282.251,30.0906 280.977,30.1552 279.73,30.2023 278.426,30.2542 277.134,30.3064 275.853,30.3422 274.552,30.3867 273.258,30.4387 271.975,30.4972 270.674,30.5585 269.387,30.6275 268.126,30.7016 266.863,30.7798 265.688,30.8777 264.446,30.9804 263.113,31.0789 261.913,31.1874 260.68,31.2922 259.416,31.3881 258.117,31.4733 256.8,31.5548 255.513,31.6317 254.297,31.7095 253.052,31.7861 251.851,31.8559 250.527,31.9439 249.235,32.0449 248.085,32.1149 246.742,32.1912 245.573,32.257 244.313,32.3139 243.004,32.3736 241.719,32.4373 240.415,32.5008 239.142,32.5699 237.828,32.6427 236.565,32.7194 235.335,32.8008 234.005,32.8924 232.815,32.9765 231.45,33.0591 230.172,33.1488 228.917,33.2265 227.625,33.3075 226.398,33.3826 225.118,33.4521 223.807,33.5228 222.511,33.5959 221.253,33.6777 219.999,33.7611 218.825,33.847 217.594,33.9489 216.356,34.0534 215.135,34.1615 213.92,34.2578 212.644,34.3433 211.352,34.4239 210.059,34.4977 208.761,34.5728 207.46,34.6441 206.22,34.7179 204.917,34.779 203.755,34.8611 202.462,34.9373 201.157,35.014 199.962,35.1127 198.691,35.2018 197.523,35.2933 196.236,35.3728 194.935,35.4499 193.644,35.5224 192.355,35.5901 191.043,35.6526 189.803,35.7155 188.541,35.7816 187.287,35.8624 186.068,35.9451 184.728,36.0217 183.534,36.1143 182.284,36.1985 181.023,36.2688 179.773,36.3389 178.48,36.4071 177.172,36.4712 175.893,36.5346 174.596,36.5967 173.305,36.6589 172.155,36.7396 170.849,36.8195 169.631,36.9196 168.373,36.9933 167.016,37.0535 165.791,37.1232 164.575,37.1832 163.285,37.2228 162.023,37.2622 160.725,37.2901 159.441,37.3207 158.151,37.35 156.861,37.3699 155.567,37.3834 154.277,37.3957 152.987,37.4094 151.698,37.4256 150.409,37.4415 149.116,37.4579 147.831,37.4753 146.541,37.4943 145.249,37.51 143.962,37.5262 142.67,37.538 141.379,37.548 140.088,37.5596 138.798,37.5744 137.509,37.5906 136.218,37.6017 134.925,37.6127 133.629,37.624 132.347,37.6405 131.046,37.6668 129.78,37.7008 128.527,37.7385 127.245,37.7807 125.975,37.8187 124.652,37.8636 123.376,37.9034 122.14,37.9516 120.81,38.0111 119.598,38.0726 118.317,38.1263 117.083,38.1763 115.883,38.2158 114.617,38.2567 113.333,38.2996 112.047,38.3395 110.754,38.3727 109.465,38.3981 108.176,38.4139 106.879,38.4256 105.59,38.4337 104.304,38.4385 103.006,38.4426 101.724,38.4447 100.427,38.4504 99.1337,38.4595 97.853,38.4689 96.558,38.476 95.2641,38.4834 93.9816,38.4919 92.6817,38.5042 91.3891,38.5197 90.0989,38.5462 88.7891,38.582 87.4808,38.6283 86.2158,38.6868 84.9363,38.7542 83.7896,38.8326 82.5066,38.9082 81.2352,38.9865 80.0009,39.0845 78.7313,39.1734 77.4399,39.2667 76.2102,39.3641 74.9828,39.4714 73.6969,39.5821 72.4212,39.6976 71.2388,39.8188 70.1009,39.9615 68.816,40.118 67.5807,40.2825 66.3449,40.4528 65.0038,40.6359 63.7581,40.8373 62.4424,41.0696 61.2834,41.3281 60.0812,41.6232 59.0178,41.9596 57.8945,42.3414 56.8593,42.7622 55.8558,43.1887 54.9303,43.6255 53.9368,44.162 53.1484,44.5925 51.6276,45.6968 50.9367,46.1419 49.5651,47.215 48.8657,47.7235 47.7624,48.6516 46.6397,49.8487 45.795,50.9118 45.0979,51.893 44.3951,52.9258 43.7381,53.9698 43.129,54.9981 42.5466,56.0217 41.9753,57.0736 41.4581,58.0538 40.9019,59.1125 40.4537,59.9772 39.5446,61.5546 39.0835,62.5495 38.7059,63.4928 38.3058,64.4976 37.9374,65.5666 37.543,66.6937 37.2023,67.8557 36.8326,69.0342 36.5263,70.2717 36.1794,71.4628 35.8324,72.6627 35.5215,73.8121 35.1809,74.9892 34.8595,76.1386 34.5529,77.2169 34.2004,78.416 33.8929,79.5502 33.611,80.6811 33.282,81.8814 32.997,83.0307 32.6914,84.1806 32.3895,85.3905 32.0766,86.6966 31.794,87.8163 31.5028,89.0516 31.2234,90.2316 30.9791,91.3562 30.7221,92.5433 30.4741,93.8199 30.2594,94.8333 30.0313,96.2032 29.8305,97.1733 29.6481,98.4358 29.4859,99.7877 29.3343,101.024 29.1838,102.3 29.0322,103.55 28.8798,104.817 28.7273,106.106 28.579,107.242 28.4142,108.486 28.2377,109.629 28.0545,110.709 27.8676,111.92 27.7045,113.026 27.5419,114.328 27.3933,115.578 27.2492,116.762 27.1071,118.121 26.9734,119.171 26.8483,120.494 26.7443,121.811 26.6431,123.001 26.5464,124.342 26.4615,125.624 26.3737,126.914 26.2782,128.173 26.1876,129.353 26.0775,130.564 25.9661,131.847 25.8588,133.001 25.7769,134.317 25.6996,135.587 25.6353,136.882 25.5778,138.186 25.5238,139.465 25.4762,140.752 25.4379,142.049 25.3984,143.33 25.3589,144.61 25.3293,145.901 25.3097,147.202 25.296,148.488 25.2912,149.778 25.2866,151.071 25.2805,152.357 25.2787,153.65 25.2784,154.942 25.2775,156.234 25.2775,157.524 25.2799,158.81 25.2812,160.106 25.2822,161.392 25.2776,162.683 25.2763,163.976 25.269,165.263 25.2618,166.555 25.2587,167.848 25.2557,169.135 25.2499,170.428 25.2411,171.719 25.2393,173.005 25.2425,174.3 25.2487,175.585 25.2513,176.876 25.2464,178.163 25.2417,179.453 25.2374,180.753 25.2327,182.029 25.2284,183.334 25.2241,184.616 25.2222,185.904 25.2253,187.206 25.2264,188.492 25.2257,189.772 25.2283,191.079 25.2288,192.363 25.2399,193.645 25.2619,194.957 25.2931,196.226 25.3279,197.529 25.363,198.831 25.4033,200.104 25.4567,201.424 25.5363,202.718 25.6274,203.962 25.7238,205.253 25.8274,206.4 25.9497,207.624 26.0701,208.912 26.2004,210.097 26.3263,211.279 26.4485,212.584 26.5746,213.882 26.7087,215.106 26.8471,216.385 27.0217,217.6 27.2325,218.842 27.4586,220.119 27.7353,221.402 28.0624,222.614 28.3774,223.65 28.7495,224.883 29.0902,226.057 29.4764,227.313 29.8442,228.455 30.194,229.563 30.5214,230.584 30.9398,231.912 31.25,232.942 31.7105,234.305 32.007,235.347 32.4116,236.637 32.8447,237.924 33.1756,238.996 33.5888,240.229 33.9528,241.312 34.3471,242.512 34.7594,243.67 35.1437,244.778 35.5514,245.876 35.9679,246.938 36.3467,247.975 36.8689,249.129 37.217,250.139 37.7142,251.125 38.4693,252.517 39.0144,253.459 39.6412,254.511 40.3821,255.464 41.091,256.513 41.955,257.636 42.6042,258.487 43.3118,259.406 44.4425,260.607 45.0766,261.397 45.8636,262.349 46.7066,263.344 47.7171,264.321 48.5583,265.27 49.3868,266.189 50.2877,267.182 51.0006,268.011 51.7726,268.901 52.6104,269.84 53.5715,270.847 54.5711,271.888 55.5394,272.67 56.6513,273.503 57.4858,274.062 58.3755,274.669 59.4002,275.375 60.2384,275.923 61.1418,276.52 62.5238,277.447 63.4077,278.013 64.5301,278.751 65.669,279.413 66.6777,279.951 67.6144,280.443 68.6718,280.953 69.7407,281.475 70.8822,281.973 71.9713,282.409 73.0526,282.817 74.2346,283.201 75.3968,283.564 76.5457,283.915 77.7162,284.224 78.9387,284.562 80.1185,284.827 81.3126,285.196 82.4447,285.424 83.6843,285.644 84.9327,285.873 86.1085,286.069 87.3382,286.263 88.6789,286.442 89.8246,286.597 91.1635,286.753 92.2772,286.895 93.6081,287.026 94.9996,287.149 96.1027,287.272 97.4448,287.379 98.7632,287.483 100.018,287.585 101.301,287.694 102.518,287.797 103.69,287.914 105.005,288.054 106.204,288.182 107.385,288.327 108.628,288.472 109.875,288.603 111.001,288.746 112.305,288.872 113.492,289.016 114.75,289.14 116.029,289.245 117.254,289.35 118.566,289.455 119.855,289.562 121.096,289.663 122.331,289.767 123.591,289.871 124.826,289.982 126.118,290.091 127.367,290.183 128.532,290.281 129.801,290.367 131.091,290.443 132.372,290.504 133.68,290.542 134.979,290.566 136.272,290.581 137.568,290.587 138.856,290.593 140.146,290.599 141.437,290.603 142.722,290.604 144.02,290.603 145.298,290.6 146.593,290.598 147.896,290.594 149.161,290.592 150.465,290.589 151.772,290.589 153.034,290.588 154.349,290.588 155.626,290.588 156.905,290.589 158.218,290.592 159.495,290.593 160.774,290.591 162.091,290.586 163.367,290.585 164.649,290.583 165.956,290.58 167.233,290.576 168.532,290.571 169.82,290.569 171.114,290.567 172.402,290.566 173.683,290.566 174.988,290.565 176.259,290.561 177.558,290.558 178.865,290.55 180.13,290.544 181.436,290.545 182.731,290.546 184.01,290.549 185.309,290.549 186.594,290.548 187.884,290.543 189.174,290.535 190.467,290.525 191.757,290.513 193.046,290.506 194.337,290.501 195.627,290.497 196.915,290.494 198.209,290.492 199.498,290.488 200.788,290.488 202.076,290.486 203.369,290.484 204.66,290.478 205.947,290.47 207.241,290.458 208.528,290.449 209.814,290.445 211.114,290.444 212.399,290.442 213.681,290.437 214.986,290.431 216.259,290.427 217.557,290.422 218.861,290.414 220.13,290.406 221.433,290.403 222.729,290.4 224.006,290.396 225.306,290.394 226.591,290.392 227.879,290.39 229.172,290.387 230.46,290.382 231.754,290.375 233.041,290.372 234.339,290.368 235.625,290.366 236.909,290.361 238.209,290.357 239.495,290.352 240.783,290.35 242.08,290.348 243.367,290.344 244.655,290.334 245.952,290.32 247.242,290.299 248.528,290.268 249.812,290.235 251.086,290.208 252.301,290.177 253.563,290.148 254.848,290.129 256.157,290.117 257.439,290.099 258.728,290.079 260.017,290.056 261.312,290.038 262.602,290.016 263.88,289.991 265.202,289.967 266.472,289.926 267.736,289.882 269.041,289.849 270.218,289.812 271.496,289.772 272.791,289.739 274.068,289.712 275.368,289.686 276.668,289.662 277.941,289.637 279.252,289.61 280.533,289.58 281.807,289.542 283.123,289.501 284.388,289.457 285.678,289.425 286.982,289.392 288.273,289.362 289.569,289.322 290.826,289.272 292.019,289.216 293.258,289.154 294.552,289.092 295.862,289.031 297.127,288.975 298.41,288.903 299.641,288.83 300.837,288.771 302.098,288.722 303.397,288.681 304.696,288.641 305.976,288.599 307.267,288.555 308.548,288.516 309.836,288.482 311.135,288.45 312.414,288.418 313.706,288.393 315.002,288.37 316.287,288.345 317.578,288.321 318.887,288.3 320.155,288.266 321.466,288.241 322.765,288.207 323.853,288.141 325.16,288.092 326.385,288.032 327.63,287.972 328.934,287.916 330.22,287.874 331.535,287.836 332.83,287.795 334.091,287.756 335.347,287.709 336.641,287.679 337.927,287.642 339.23,287.598 340.524,287.548 341.789,287.488 343.054,287.424 344.334,287.363 345.624,287.304 346.916,287.246 348.191,287.184 349.482,287.121 350.789,287.048 352.037,286.965 353.447,286.97 354.55,286.854 355.849,286.763 357.202,286.669 358.416,286.57 359.598,286.469 360.856,286.377 362.042,286.287 363.35,286.222 364.652,286.164 365.949,286.107 367.249,286.051 368.567,285.998 369.875,285.924 371.157,285.837 372.445,285.733 373.806,285.623 375.184,285.499 376.701,285.35 378.416,285.19 380.062,284.984 381.071,284.877 381.39,284.192 382.536,283.955 " fill="none" stroke-width="1" stroke="rgb(0,0,255)" />
	<polyline points="381.585,31.9239 382.013,31.7041 382.419,31.5155 382.822,31.3271 383.244,31.1207 383.663,30.9151 384.07,30.7196 384.5,30.5 " fill="none" stroke-width="1" stroke="rgb(0,0,255)" />
	<polyline points="382.536,283.955 381.884,283.358 381.918,282.765 381.39,282.296 380.896,281.839 380.459,281.471 380.035,281.168 379.636,280.873 379.218,280.55 378.799,280.226 378.403,279.945 378.014,279.661 377.666,279.403 377.319,279.146 376.974,278.888 376.59,278.6 376.208,278.313 375.826,278.025 375.467,277.746 375.108,277.467 374.668,277.104 374.295,276.811 373.917,276.514 373.516,276.182 373.042,275.763 372.665,275.459 372.286,275.154 371.905,274.848 371.493,274.5 371.077,274.15 370.663,273.801 370.253,273.454 369.846,273.109 369.39,272.693 368.938,272.281 368.494,271.881 368.036,271.444 367.552,270.978 367.139,270.618 366.635,270.138 366.184,269.649 365.691,269.158 365.243,268.664 364.794,268.167 364.316,267.748 363.842,267.333 363.345,266.828 362.853,266.396 362.331,265.857 361.811,265.301 361.302,264.743 360.892,264.22 360.532,263.732 360.173,263.241 359.568,262.6 358.957,261.949 358.523,261.385 358.082,260.808 357.758,260.342 357.427,259.862 357.163,259.441 356.898,259.015 356.6,258.557 356.299,258.093 356.005,257.639 355.751,257.216 355.393,256.703 355.029,256.18 354.775,255.744 354.518,255.303 354.259,254.856 354.004,254.411 353.723,253.943 353.465,253.486 353.207,253.027 352.915,252.547 352.659,252.091 352.267,251.498 351.88,250.907 351.637,250.443 351.393,249.975 351.092,249.454 350.826,248.947 350.578,248.443 350.333,247.943 350.017,247.362 349.78,246.841 349.564,246.342 349.347,245.837 349.113,245.252 348.88,244.726 348.649,244.2 348.366,243.581 348.086,242.961 347.872,242.455 347.66,241.949 347.466,241.439 347.273,240.931 347.029,240.38 346.839,239.862 346.656,239.37 346.473,238.875 346.289,238.352 346.104,237.82 345.925,237.311 345.75,236.788 345.561,236.256 345.386,235.716 345.208,235.166 345.018,234.63 344.849,234.092 344.663,233.524 344.478,232.959 344.323,232.426 344.17,231.896 343.966,231.324 343.811,230.774 343.668,230.249 343.526,229.701 343.387,229.157 343.257,228.626 343.13,228.098 343.011,227.537 342.885,227.002 342.764,226.462 342.646,225.929 342.528,225.381 342.413,224.838 342.273,224.3 342.137,223.769 342.027,223.221 341.934,222.592 341.844,221.982 341.768,221.339 341.695,220.714 341.63,220.07 341.576,219.407 341.524,218.753 341.482,218.057 341.444,217.375 341.408,216.714 341.386,216.023 341.365,215.376 341.345,214.737 341.332,214.074 341.32,213.458 341.307,212.84 341.3,212.193 341.292,211.59 341.284,210.982 341.279,210.347 341.274,209.706 341.27,209.102 341.264,208.478 341.258,207.846 341.253,207.242 341.246,206.622 341.24,205.995 341.236,205.388 341.232,204.775 341.227,204.151 341.223,203.539 341.218,202.923 341.212,202.304 341.205,201.686 341.199,201.069 341.195,200.452 341.191,199.836 341.186,199.214 341.184,198.599 341.182,197.987 341.18,197.359 341.178,196.737 341.178,196.132 341.177,195.501 341.176,194.877 341.178,194.273 341.182,193.634 341.187,193.001 341.194,192.397 341.202,191.798 341.211,191.156 341.225,190.559 341.241,189.976 341.26,189.346 341.279,188.726 341.303,188.162 341.325,187.533 341.348,186.887 341.376,186.283 341.405,185.634 341.435,184.978 341.461,184.364 341.489,183.749 341.519,183.107 341.552,182.5 341.585,181.889 341.621,181.269 341.663,180.662 341.705,180.052 341.748,179.436 341.791,178.817 341.841,178.214 341.895,177.631 341.949,177.052 342.001,176.437 342.06,175.853 342.11,175.273 342.165,174.677 342.22,174.073 342.266,173.485 342.311,172.897 342.356,172.269 342.399,171.68 342.442,171.089 342.483,170.462 342.523,169.831 342.565,169.239 342.606,168.606 342.647,167.969 342.692,167.379 342.737,166.789 342.781,166.151 342.835,165.575 342.889,164.998 342.938,164.375 342.988,163.752 343.043,163.171 343.1,162.571 343.159,161.971 343.219,161.398 343.28,160.825 343.338,160.221 343.398,159.642 343.458,159.062 343.52,158.454 343.582,157.85 343.643,157.261 343.707,156.646 343.77,156.034 343.835,155.445 343.899,154.854 343.968,154.234 344.031,153.651 344.093,153.058 344.162,152.447 344.232,151.841 344.3,151.267 344.364,150.654 344.428,150.045 344.494,149.456 344.561,148.869 344.625,148.268 344.7,147.656 344.775,147.044 344.846,146.441 344.919,145.831 345.005,145.221 345.078,144.643 345.153,144.059 345.243,143.452 345.333,142.845 345.409,142.279 345.491,141.684 345.574,141.085 345.659,140.544 345.745,140 345.829,139.397 345.913,138.793 346.005,138.266 346.084,137.666 346.162,137.069 346.252,136.524 346.341,135.98 346.424,135.407 346.507,134.831 346.603,134.259 346.691,133.672 346.781,133.076 346.882,132.488 346.981,131.919 347.065,131.351 347.151,130.774 347.261,130.211 347.349,129.629 347.437,129.04 347.545,128.482 347.653,127.918 347.739,127.306 347.851,126.692 347.961,126.131 348.057,125.527 348.156,124.913 348.27,124.352 348.386,123.781 348.487,123.186 348.598,122.641 348.71,122.091 348.814,121.516 348.918,120.938 349.034,120.407 349.139,119.852 349.25,119.293 349.362,118.735 349.465,118.184 349.584,117.621 349.703,117.058 349.809,116.508 349.916,115.958 350.08,115.398 350.205,114.85 350.316,114.259 350.437,113.713 350.558,113.168 350.679,112.552 350.8,111.936 350.921,111.403 351.042,110.868 351.165,110.226 351.287,109.69 351.407,109.156 351.54,108.516 351.672,107.877 351.793,107.339 351.914,106.799 352.069,106.104 352.193,105.556 352.317,105.006 352.47,104.363 352.622,103.72 352.75,103.175 352.9,102.545 353.048,101.924 353.18,101.41 353.314,100.891 353.479,100.273 353.617,99.7213 353.752,99.1854 353.912,98.5962 354.068,98.0233 354.194,97.5072 354.32,96.9923 354.475,96.4211 354.63,95.8485 354.76,95.2844 354.89,94.7166 355.043,94.1432 355.174,93.5549 355.305,92.9641 355.451,92.3765 355.597,91.7832 355.729,91.176 355.877,90.5722 356.026,89.9582 356.161,89.3458 356.297,88.7248 356.441,88.148 356.584,87.571 356.728,86.9872 356.877,86.4347 357.025,85.8858 357.172,85.3496 357.321,84.8075 357.467,84.2645 357.621,83.7219 357.776,83.1756 357.919,82.6351 358.064,82.0915 358.219,81.5471 358.375,80.9964 358.527,80.4461 358.678,79.8959 358.833,79.3454 358.987,78.797 359.139,78.2439 359.292,77.6898 359.445,77.1375 359.604,76.5739 359.763,76.0113 359.922,75.4687 360.088,74.9319 360.258,74.3736 360.43,73.8074 360.599,73.2271 360.778,72.6714 360.956,72.1204 361.179,71.4627 361.4,70.8118 361.567,70.2843 361.734,69.7601 361.93,69.1737 362.084,68.6605 362.239,68.1465 362.439,67.5742 362.64,66.9966 362.815,66.4886 362.99,65.9823 363.268,65.3592 363.546,64.7354 363.73,64.2343 363.951,63.6837 364.218,63.1047 364.404,62.599 364.59,62.0948 364.833,61.5362 365.076,60.9768 365.257,60.4436 365.439,59.9091 365.676,59.3604 365.917,58.8058 366.172,58.2712 366.427,57.737 366.669,57.1964 366.911,56.6805 367.219,56.081 367.44,55.5727 367.661,55.067 367.91,54.5513 368.144,54.0677 368.357,53.5895 368.57,53.1127 368.797,52.6441 369.023,52.1789 369.229,51.7235 369.433,51.2711 369.637,50.8219 369.878,50.3508 370.116,49.8848 370.321,49.4483 370.526,49.0146 370.754,48.5704 370.983,48.1272 371.205,47.6872 371.426,47.2514 371.645,46.8202 371.873,46.3891 372.166,45.914 372.417,45.4678 372.667,45.0265 372.941,44.5686 373.182,44.145 373.452,43.698 373.725,43.2468 373.999,42.7952 374.64,42.0477 374.991,41.5576 375.345,41.0844 375.78,40.5477 376.19,40.0382 376.597,39.5405 376.988,39.0582 377.425,38.5522 377.843,38.0628 378.263,37.5577 378.654,37.0786 379.059,36.5964 379.441,36.1243 379.794,35.6508 380.143,35.1815 380.437,34.6747 380.665,34.1476 380.859,33.6022 381.061,33.0316 381.326,32.4757 381.585,31.9239 " fill="none" stroke-width="1" stroke="rgb(0,0,255)" />
</g></svg>
