<?xml version="1.0" standalone="no" ?>
<!DOCTYPE svg PUBLIC "-//W3C//DTD SVG 1.1//EN" "http://www.w3.org/Graphics/SVG/1.1/DTD/svg11.dtd">
<svg width="512px" height="512px" xmlns="http://www.w3.org/2000/svg" xmlns:xlink="http://www.w3.org/1999/xlink" version="1.1" >

<g>	<image style="overflow: visible; opacity: 0.4" width="512" height="512" xlink:href="p6_house_view1_512_erode.png" />

</g>
<g>	<polyline points="32.5,148.5 32.7718,148.156 33.0366,147.818 33.3074,147.485 33.5778,147.153 33.8496,146.831 34.1201,146.51 34.3682,146.201 34.616,145.892 34.8425,145.598 35.0691,145.304 35.2973,145.014 35.5269,144.726 35.7572,144.438 35.9883,144.149 36.2152,143.862 36.4282,143.587 36.6416,143.31 36.8556,143.033 37.0754,142.75 37.3031,142.467 37.5316,142.183 37.761,141.898 38.0299,141.591 38.2467,141.312 38.4687,141.027 38.7916,140.664 39.1172,140.298 39.3468,140.001 39.5658,139.707 39.7858,139.412 40.0068,139.115 40.2312,138.813 40.4567,138.508 40.6833,138.202 40.911,137.895 41.1249,137.603 41.3399,137.309 41.556,137.013 41.7821,136.713 42.0095,136.41 42.2348,136.106 42.4579,135.803 42.6819,135.498 42.907,135.192 43.1289,134.889 43.3602,134.58 43.5929,134.27 43.827,133.957 44.054,133.647 44.3063,133.316 44.5602,132.983 44.8129,132.655 45.0681,132.324 45.3091,132.001 45.5545,131.674 45.7954,131.354 46.0321,131.039 46.2833,130.722 46.5293,130.411 46.7704,130.107 47.0183,129.794 47.2495,129.492 47.4805,129.19 47.7112,128.889 47.9345,128.59 48.1654,128.288 48.3971,127.985 48.6259,127.68 48.8565,127.373 49.0889,127.063 49.3014,126.768 49.5137,126.472 49.7258,126.177 49.9376,125.882 50.1561,125.582 50.375,125.281 50.5943,124.979 50.8277,124.668 51.0624,124.356 51.2782,124.057 51.4956,123.755 51.7135,123.453 51.9321,123.149 52.1521,122.844 52.3729,122.538 52.5947,122.23 52.8175,121.921 53.0331,121.615 53.2545,121.306 53.4765,120.997 53.6994,120.688 53.9229,120.378 54.1379,120.072 54.3705,119.753 54.6035,119.433 54.8369,119.112 55.0566,118.803 55.2845,118.489 55.5126,118.176 55.7408,117.862 55.969,117.547 56.2117,117.222 56.4543,116.897 56.6806,116.584 56.9064,116.272 57.1322,115.96 57.3636,115.645 57.5948,115.331 57.8257,115.017 58.0532,114.705 58.2763,114.396 58.4993,114.087 58.7457,113.764 58.9921,113.441 59.2278,113.127 59.4663,112.812 59.7047,112.498 59.9431,112.184 60.1661,111.878 60.4187,111.556 60.6702,111.236 60.9206,110.917 61.1544,110.611 61.3872,110.307 61.6189,110.005 61.861,109.697 62.1019,109.391 62.3413,109.084 62.5794,108.778 62.8175,108.473 63.0554,108.168 63.2893,107.871 63.5396,107.566 63.7902,107.261 64.0411,106.956 64.3073,106.64 64.5729,106.325 64.838,106.012 65.0787,105.708 65.3444,105.4 65.609,105.094 65.8514,104.798 66.0957,104.499 66.3573,104.188 66.6178,103.878 66.8835,103.566 67.1448,103.259 67.4048,102.954 67.655,102.656 67.9056,102.357 68.1572,102.056 68.423,101.751 68.6884,101.447 68.9535,101.143 69.2083,100.845 69.4629,100.547 69.7171,100.25 69.9709,99.9522 70.2207,99.6541 70.4702,99.3561 70.7193,99.0583 70.9619,98.761 71.2083,98.462 71.4544,98.163 71.7001,97.8639 71.9417,97.566 72.1807,97.268 72.4191,96.9706 72.666,96.6659 72.9122,96.3617 73.1523,96.0602 73.3937,95.7582 73.6345,95.4563 73.875,95.1543 74.1153,94.8522 74.3615,94.5356 74.6076,94.2185 74.8538,93.9008 75.0838,93.5936 75.3141,93.2854 75.5447,92.9761 75.7979,92.6434 76.0494,92.3122 76.2642,91.9906 76.4883,91.6802 76.711,91.371 76.9323,91.0632 77.1762,90.7338 77.4214,90.4013 77.668,90.0659 77.8854,89.7576 78.1021,89.4495 78.3148,89.1364 78.5433,88.8233 78.7719,88.5091 79.0006,88.1938 79.2127,87.8836 79.4489,87.5617 79.6855,87.2384 79.9222,86.9139 80.1405,86.6008 80.3579,86.288 80.5743,85.9755 80.7954,85.6583 81.0156,85.3413 81.2673,85.0077 81.4906,84.6812 81.713,84.3552 81.9343,84.0296 82.1364,83.7219 82.3377,83.4143 82.5384,83.1068 82.745,82.7925 82.9532,82.4749 83.1644,82.1416 83.3909,81.8081 83.6153,81.4768 83.8379,81.1474 84.0391,80.8284 84.2371,80.5126 84.4347,80.1971 84.6319,79.8819 84.83,79.5712 85.0275,79.2613 85.2471,78.9407 85.443,78.6333 85.6389,78.3262 85.8348,78.0191 86.0406,77.7097 86.2349,77.4078 86.4298,77.1055 86.6355,76.8004 86.842,76.4947 87.0492,76.1886 87.2508,75.8844 87.4742,75.5663 87.6991,75.2471 87.9254,74.9267 88.1357,74.621 88.347,74.3146 88.5594,74.0077 88.7724,73.7007 88.9872,73.3922 89.2312,73.0625 89.4417,72.7554 89.6525,72.4488 89.8635,72.1427 90.1035,71.8203 90.3314,71.5082 90.56,71.1959 90.7893,70.8835 91.0285,70.5662 91.2502,70.2567 91.4717,69.9483 91.7217,69.6264 91.9711,69.3056 92.2036,68.9938 92.4593,68.6713 92.7146,68.3497 92.9695,68.029 93.2111,67.7156 93.4506,67.4052 93.6879,67.0977 93.9207,66.793 94.1542,66.4856 94.3861,66.1804 94.6166,65.8774 94.8418,65.5804 95.0662,65.285 95.2968,64.9864 95.521,64.6938 95.7469,64.3999 95.9749,64.1041 96.2062,63.8055 96.4462,63.4966 96.697,63.1747 96.9568,62.8416 97.2173,62.5069 97.4706,62.1802 97.7195,61.8577 97.9575,61.5434 98.1984,61.2311 98.436,60.9214 98.6936,60.593 98.9492,60.2658 99.1942,59.9492 99.4359,59.6364 99.6757,59.3248 99.9137,59.0146 100.166,58.6952 100.414,58.3796 100.658,58.0677 100.888,57.7698 101.121,57.4645 101.355,57.1573 101.682,56.799 102.008,56.4415 102.255,56.1139 102.483,55.7995 102.713,55.4833 102.943,55.1653 103.179,54.8413 103.426,54.5043 103.668,54.1726 103.905,53.846 104.123,53.5398 104.335,53.2415 104.539,52.9507 104.735,52.6581 104.93,52.3667 105.132,52.0747 105.326,51.7824 105.518,51.4919 105.708,51.203 105.897,50.9159 106.091,50.6315 106.273,50.3475 106.455,50.0638 106.652,49.7712 106.849,49.4787 107.045,49.1864 107.22,48.9068 107.419,48.6114 107.616,48.3201 107.808,48.0327 107.972,47.762 108.172,47.4682 108.371,47.1764 108.566,46.8865 108.774,46.5824 108.978,46.2825 109.185,45.9882 109.366,45.7076 109.544,45.4292 109.719,45.1524 109.892,44.8763 110.107,44.5795 110.311,44.2724 110.514,43.9679 110.713,43.6728 110.91,43.3808 111.102,43.0892 111.301,42.7945 111.5,42.5 " fill="none" stroke-width="1" stroke="rgb(0,0,255)" />
	<polyline points="33.5,207.5 33.3159,206.594 33.1923,205.402 33.135,203.994 33.0721,202.491 33.0486,200.587 33.0694,198.59 33.1174,196.778 33.1104,194.691 33.0889,192.7 33.0825,190.806 33.0802,188.997 33.0817,187.208 33.0863,185.401 33.075,183.627 33.0383,182.041 32.9899,180.309 32.93,178.594 32.8701,176.895 32.8426,175.017 32.8283,173.565 32.8626,172.202 32.9218,170.312 32.9229,168.442 32.8938,166.663 32.8569,164.864 32.8299,163.078 32.8033,160.985 32.7769,158.354 32.7603,155.52 32.7894,153.993 32.8428,152.934 32.8241,151.833 32.7028,150.786 32.599,149.628 32.5,148.5 " fill="none" stroke-width="1" stroke="rgb(0,0,255)" />
	<polyline points="174.5,287.5 174.189,287.543 173.878,287.587 173.57,287.631 173.262,287.678 172.955,287.726 172.658,287.778 172.36,287.829 172.063,287.881 171.764,287.933 171.466,287.985 171.17,288.037 170.874,288.09 170.588,288.145 170.301,288.202 170.015,288.258 169.727,288.312 169.438,288.367 169.149,288.421 168.86,288.476 168.577,288.53 168.293,288.584 168.01,288.639 167.721,288.694 167.433,288.749 167.145,288.805 166.857,288.86 166.571,288.917 166.285,288.974 166,289.031 165.714,289.088 165.429,289.146 165.144,289.204 164.86,289.261 164.57,289.321 164.281,289.381 163.993,289.441 163.703,289.499 163.414,289.556 163.125,289.613 162.83,289.672 162.535,289.732 162.24,289.791 161.946,289.85 161.651,289.908 161.357,289.966 161.053,290.036 160.75,290.108 160.448,290.18 160.146,290.253 159.838,290.326 159.531,290.399 159.224,290.472 158.918,290.546 158.607,290.629 158.298,290.713 157.989,290.797 157.675,290.876 157.361,290.956 157.047,291.035 156.752,291.111 156.458,291.188 156.164,291.266 155.872,291.347 155.587,291.432 155.303,291.52 155.021,291.609 154.721,291.711 154.423,291.816 154.125,291.924 153.826,292.035 " fill="none" stroke-width="1" stroke="rgb(0,0,255)" />
	<polyline points="153.826,292.035 153.535,291.851 153.248,291.67 152.963,291.493 152.731,291.302 152.5,291.115 152.27,290.93 152.008,290.804 151.743,290.673 151.474,290.541 151.202,290.409 150.927,290.275 150.649,290.151 150.359,290.039 150.06,289.938 149.741,289.834 149.42,289.729 149.099,289.625 148.773,289.524 148.445,289.424 148.115,289.323 147.782,289.218 147.448,289.112 147.113,289.006 146.818,288.894 146.522,288.781 146.224,288.668 145.926,288.553 145.637,288.434 145.347,288.315 145.055,288.194 144.77,288.069 144.484,287.944 144.202,287.824 143.919,287.703 143.632,287.58 143.345,287.455 143.058,287.33 142.783,287.204 142.508,287.077 142.233,286.949 141.965,286.814 141.695,286.677 141.425,286.539 141.155,286.399 140.885,286.258 140.624,286.117 140.364,285.974 140.104,285.828 139.839,285.676 139.575,285.522 139.312,285.368 139.051,285.213 138.799,285.055 138.547,284.899 138.296,284.742 138.047,284.585 137.796,284.416 137.546,284.247 137.3,284.077 137.055,283.901 136.812,283.727 136.572,283.553 136.333,283.377 136.097,283.201 135.856,283.02 135.618,282.834 135.382,282.647 135.15,282.46 134.92,282.273 134.694,282.084 134.465,281.891 134.24,281.697 134.019,281.503 133.792,281.302 133.571,281.102 133.354,280.903 133.144,280.704 132.939,280.506 132.741,280.308 132.548,280.11 132.36,279.913 132.176,279.715 131.999,279.519 131.817,279.317 131.641,279.115 131.47,278.915 131.309,278.717 131.154,278.521 131.005,278.326 130.86,278.13 130.72,277.934 130.586,277.741 130.458,277.549 130.334,277.358 130.216,277.167 130.101,276.977 129.987,276.781 129.879,276.589 129.776,276.397 129.676,276.205 129.58,276.014 129.483,275.818 129.388,275.622 129.297,275.427 129.208,275.232 129.122,275.037 129.04,274.845 128.959,274.652 128.88,274.459 128.802,274.266 128.725,274.074 128.65,273.883 128.575,273.691 128.5,273.5 " fill="none" stroke-width="1" stroke="rgb(0,0,255)" />
	<polyline points="128.5,273.5 128.103,273.365 127.71,273.237 127.317,273.109 126.924,272.98 126.511,272.844 126.097,272.706 125.745,272.562 125.393,272.416 125.04,272.269 124.69,272.131 124.343,271.995 124.009,271.856 123.693,271.726 123.38,271.598 123.07,271.472 122.77,271.351 122.474,271.232 122.18,271.115 121.89,270.999 121.614,270.887 121.336,270.773 121.057,270.656 120.785,270.533 120.511,270.408 120.236,270.28 119.959,270.149 119.68,270.016 119.412,269.883 119.142,269.747 118.871,269.609 118.593,269.48 118.315,269.35 118.037,269.218 117.776,269.068 117.504,268.93 117.22,268.792 116.931,268.654 116.62,268.445 116.31,268.236 116,268.028 115.733,267.88 115.465,267.732 115.197,267.582 114.927,267.43 114.661,267.294 114.394,267.156 114.125,267.017 113.848,266.872 113.57,266.725 113.292,266.577 113.014,266.429 112.746,266.283 112.478,266.136 112.209,265.988 111.927,265.829 111.658,265.687 111.389,265.545 111.119,265.403 110.841,265.245 " fill="none" stroke-width="1" stroke="rgb(0,0,255)" />
	<polyline points="52.5,227.5 52.3522,227.327 52.2041,227.154 52.0556,226.981 51.9077,226.808 51.7593,226.635 51.6104,226.462 51.461,226.289 51.311,226.116 51.1603,225.943 51.0121,225.773 50.859,225.601 50.7049,225.428 50.5498,225.256 50.3936,225.084 50.2421,224.915 50.0909,224.748 49.94,224.582 49.7893,224.415 49.6379,224.248 49.4857,224.081 49.3307,223.914 49.175,223.747 49.0187,223.58 48.8539,223.407 48.688,223.234 48.5209,223.062 48.3573,222.893 48.1929,222.724 48.0276,222.556 47.8688,222.396 47.71,222.237 47.5512,222.08 47.3793,221.918 47.2067,221.757 47.0336,221.596 46.8572,221.433 46.6802,221.27 46.5028,221.107 46.3249,220.945 46.1672,220.793 46.0079,220.641 45.8378,220.485 45.6674,220.33 45.4967,220.175 45.3258,220.02 45.1701,219.872 45.0134,219.723 44.8491,219.572 44.6848,219.421 44.5207,219.27 44.3568,219.12 44.1933,218.97 44.0453,218.825 43.8867,218.672 43.7285,218.519 43.5707,218.366 43.4134,218.213 43.2567,218.061 43.1092,217.915 42.9623,217.77 42.8083,217.622 42.6545,217.474 42.5009,217.326 42.3477,217.177 42.195,217.029 42.0504,216.882 41.8853,216.725 41.7199,216.566 41.5541,216.407 41.3879,216.247 41.2214,216.086 41.0545,215.923 40.8856,215.756 40.7157,215.588 40.5448,215.418 40.3729,215.246 40.1998,215.072 40.0355,214.9 39.8543,214.713 39.6734,214.527 39.4931,214.339 39.3134,214.152 39.1341,213.964 38.9645,213.783 38.7965,213.599 38.6291,213.415 38.4623,213.23 38.296,213.046 38.1238,212.856 37.9531,212.666 37.7757,212.475 37.6002,212.284 37.4269,212.094 37.2573,211.906 37.0935,211.72 36.9293,211.533 36.7586,211.343 36.5892,211.154 36.421,210.965 36.2615,210.778 36.1032,210.593 35.946,210.408 35.7865,210.222 35.628,210.037 35.4716,209.853 35.316,209.67 35.1611,209.487 35.0069,209.305 34.8508,209.121 34.6952,208.938 34.5464,208.758 34.398,208.578 34.25,208.399 34.1024,208.22 33.955,208.041 33.8031,207.861 33.6515,207.68 33.5,207.5 " fill="none" stroke-width="1" stroke="rgb(0,0,255)" />
	<polyline points="34.5,253.5 34.673,252.702 34.8597,251.962 35.035,251.296 35.2217,250.665 35.4068,250.032 35.6065,249.464 35.8049,248.904 36.0012,248.359 36.1985,247.832 36.4186,247.323 36.6384,246.816 36.851,246.319 37.0629,245.825 37.3073,245.352 37.5514,244.879 37.7897,244.401 38.0273,243.927 38.3176,243.437 38.6062,242.951 38.8769,242.482 39.1506,242.018 39.4567,241.536 39.7593,241.059 40.0735,240.575 40.461,240.032 40.8064,239.532 41.2592,238.94 41.6988,238.363 42.1224,237.807 42.5896,237.221 43.4954,236.27 44.2336,235.508 44.8707,234.839 45.3901,234.342 45.8913,233.861 46.3436,233.442 46.7938,233.024 47.2595,232.608 47.7225,232.193 48.1922,231.766 48.6636,231.347 49.145,230.92 49.7177,230.407 50.3009,229.848 50.9139,229.259 51.4384,228.667 51.9569,228.082 52.5,227.5 " fill="none" stroke-width="1" stroke="rgb(0,0,255)" />
	<polyline points="292.5,269.5 292.512,270.007 292.531,270.532 292.549,271.057 292.573,271.614 292.598,272.171 292.626,272.737 292.643,273.323 292.661,273.908 292.673,274.487 292.685,275.065 292.696,275.654 292.707,276.243 292.72,276.826 292.743,277.423 292.767,278.019 292.784,278.601 292.803,279.185 292.833,279.781 292.844,280.355 292.853,280.929 292.864,281.522 292.874,282.116 292.876,282.681 292.878,283.247 292.881,283.84 292.878,284.401 292.874,284.965 292.869,285.559 292.864,286.156 292.85,286.717 292.832,287.284 292.806,287.871 292.776,288.43 292.746,288.993 292.715,289.577 292.683,290.164 292.651,290.719 292.618,291.278 292.587,291.845 292.559,292.387 292.531,292.933 292.503,293.478 292.476,294.027 292.451,294.57 292.425,295.118 292.397,295.663 292.368,296.212 292.338,296.766 292.306,297.312 292.273,297.86 292.241,298.432 292.208,299.009 292.174,299.568 292.141,300.134 292.112,300.733 292.082,301.291 292.053,301.853 292.029,302.451 292.005,303.053 291.982,303.616 291.959,304.183 291.94,304.782 291.922,305.338 291.903,305.9 291.887,306.483 291.871,307.072 291.855,307.634 291.838,308.2 291.821,308.781 291.805,309.348 291.789,309.918 291.773,310.5 291.756,311.086 291.739,311.66 291.721,312.237 291.702,312.819 291.681,313.388 291.66,313.96 291.637,314.536 291.614,315.112 291.589,315.672 291.564,316.228 291.534,316.783 291.504,317.321 291.475,317.852 291.443,318.39 291.411,318.924 291.378,319.45 291.346,319.978 291.315,320.539 291.284,321.105 291.256,321.652 291.228,322.203 291.203,322.804 291.178,323.348 291.153,323.891 291.132,324.513 291.112,325.13 291.09,325.664 291.068,326.193 291.057,326.829 291.041,327.356 291.026,327.877 291.046,328.55 291.066,329.221 291.067,329.767 291.043,330.357 291.019,330.96 290.995,331.491 290.978,332.032 290.959,332.62 290.94,333.216 290.922,333.769 290.903,334.352 290.883,334.94 290.861,335.497 290.839,336.056 290.815,336.63 290.791,337.202 290.767,337.75 290.744,338.306 290.72,338.859 290.696,339.398 290.672,339.94 290.649,340.496 290.626,341.059 290.604,341.622 290.581,342.19 290.56,342.769 290.538,343.34 290.517,343.913 290.494,344.489 290.472,345.065 290.45,345.63 290.428,346.19 290.407,346.75 290.388,347.298 290.368,347.842 290.349,348.389 290.33,348.938 290.312,349.486 290.294,350.039 290.277,350.608 290.261,351.18 290.244,351.747 290.226,352.328 290.209,352.909 290.192,353.477 290.175,354.044 290.159,354.628 290.143,355.209 290.128,355.774 290.112,356.361 290.096,356.945 290.083,357.507 290.07,358.066 290.058,358.657 290.045,359.243 290.036,359.799 290.028,360.396 290.019,360.99 290.014,361.542 290.009,362.089 290.004,362.685 289.995,363.279 289.993,363.822 289.952,364.445 289.909,365.069 289.891,365.612 289.872,366.157 289.861,366.772 289.849,367.322 289.836,367.87 289.832,368.459 289.825,369.045 289.827,369.604 289.827,370.159 289.823,370.729 289.817,371.27 289.805,371.803 289.793,372.388 289.781,372.971 289.767,373.509 289.754,374.043 289.766,374.665 289.778,375.283 289.756,375.814 289.742,376.423 289.728,377.032 289.704,377.57 289.68,378.106 289.658,378.701 289.636,379.288 289.611,379.822 289.585,380.419 289.561,381.013 289.537,381.559 289.513,382.095 289.492,382.697 289.471,383.285 289.45,383.847 289.425,384.457 289.399,385.06 289.37,385.632 289.341,386.199 289.304,386.779 289.259,387.328 289.214,387.874 289.165,388.437 289.115,388.999 289.055,389.525 288.994,390.052 288.928,390.6 288.859,391.151 288.784,391.684 288.707,392.22 288.629,392.779 288.55,393.338 288.468,393.899 288.38,394.455 288.288,395.012 288.187,395.565 288.081,396.117 287.963,396.637 287.823,397.14 287.67,397.636 287.51,398.128 287.323,398.585 287.129,399.04 286.915,399.5 286.685,399.971 286.444,400.406 286.195,400.842 285.895,401.305 285.585,401.759 285.269,402.212 284.943,402.641 284.613,403.078 284.223,403.531 283.831,403.982 283.445,404.41 283.056,404.837 282.636,405.259 282.209,405.683 281.773,406.126 281.334,406.532 280.876,406.952 280.46,407.298 280.033,407.651 279.602,408.001 279.177,408.342 278.743,408.688 278.303,409.037 277.892,409.341 277.451,409.68 277.006,410.019 276.57,410.348 276.131,410.678 275.645,411.049 275.189,411.374 274.732,411.699 274.272,412.027 273.839,412.327 273.342,412.686 272.835,413.052 272.365,413.37 271.887,413.692 271.427,413.986 270.938,414.309 270.473,414.603 269.998,414.901 269.536,415.174 269.066,415.451 268.604,415.711 268.135,415.975 267.657,416.239 267.173,416.506 266.686,416.774 266.192,417.044 265.709,417.294 265.22,417.547 264.744,417.777 264.263,418.007 263.764,418.258 263.26,418.507 262.754,418.756 262.256,418.989 261.769,419.202 261.263,419.436 260.755,419.669 260.262,419.874 259.767,420.079 259.23,420.312 258.714,420.522 258.196,420.732 257.668,420.955 257.149,421.17 256.642,421.381 256.135,421.591 255.63,421.801 255.125,422.01 254.613,422.241 254.101,422.473 253.601,422.687 253.102,422.901 252.602,423.131 252.103,423.361 251.616,423.567 251.132,423.773 250.639,424.008 250.14,424.25 249.659,424.468 249.182,424.685 248.698,424.921 248.212,425.163 247.715,425.404 247.221,425.645 246.737,425.894 246.245,426.156 245.746,426.422 245.248,426.687 244.739,426.969 244.236,427.244 243.687,427.547 243.135,427.851 242.634,428.115 242.118,428.4 241.626,428.651 241.131,428.902 240.634,429.144 240.135,429.387 239.624,429.623 239.11,429.859 238.618,430.081 238.129,430.31 237.635,430.538 237.138,430.766 236.653,430.98 236.16,431.193 235.619,431.44 235.077,431.688 234.587,431.891 234.096,432.094 233.587,432.315 233.078,432.536 232.594,432.734 232.109,432.932 231.568,433.171 231.028,433.41 230.54,433.607 230.053,433.803 229.529,434.035 229.006,434.273 228.52,434.481 228.033,434.689 227.513,434.93 227,435.163 226.512,435.372 226.024,435.581 225.511,435.817 224.997,436.053 224.503,436.273 224.007,436.494 223.504,436.721 222.999,436.948 222.512,437.154 222.024,437.361 221.517,437.593 221.009,437.825 220.523,438.029 220.023,438.252 219.521,438.48 219.02,438.707 218.516,438.934 218.032,439.138 217.525,439.368 217.02,439.596 216.536,439.803 216.054,440.01 215.545,440.257 215.038,440.503 214.492,440.777 213.949,441.049 213.415,441.327 212.882,441.603 212.394,441.832 211.906,442.06 211.405,442.313 210.904,442.565 210.401,442.811 209.899,443.058 209.372,443.335 208.846,443.613 208.36,443.844 207.873,444.075 207.374,444.324 206.874,444.573 206.393,444.79 205.911,445.009 205.421,445.233 204.93,445.458 204.436,445.685 203.94,445.914 203.448,446.136 202.954,446.359 202.473,446.561 201.991,446.764 201.499,446.977 200.997,447.201 200.488,447.429 199.978,447.658 199.473,447.874 198.967,448.091 198.473,448.295 197.979,448.499 197.482,448.698 196.985,448.897 196.473,449.114 195.962,449.332 195.457,449.534 194.953,449.737 194.445,449.949 193.948,450.147 193.442,450.357 192.936,450.565 192.439,450.765 191.943,450.963 191.437,451.173 190.932,451.383 190.432,451.585 189.935,451.787 189.429,452.002 188.925,452.214 188.426,452.423 187.929,452.63 187.422,452.85 186.917,453.068 186.417,453.287 185.92,453.505 185.427,453.715 184.937,453.923 184.429,454.151 183.924,454.377 183.421,454.592 182.92,454.805 182.413,455.028 181.915,455.252 181.422,455.463 180.93,455.673 180.43,455.89 179.931,456.106 179.405,456.322 178.883,456.537 178.354,456.748 177.828,456.957 177.333,457.153 176.84,457.347 176.344,457.55 175.85,457.751 175.358,457.931 174.826,458.117 174.278,458.309 173.733,458.5 173.207,458.671 172.667,458.86 172.128,459.049 171.616,459.208 171.106,459.367 170.592,459.553 170.079,459.738 169.561,459.895 169.044,460.051 168.505,460.241 167.968,460.43 167.448,460.597 166.929,460.764 166.415,460.945 165.905,461.126 165.414,461.282 164.925,461.438 164.431,461.603 163.939,461.768 163.454,461.915 162.971,462.061 162.474,462.202 161.98,462.343 161.489,462.477 161.001,462.611 160.503,462.74 160.009,462.867 159.513,462.991 159.019,463.118 158.517,463.244 158.021,463.369 157.503,463.486 156.991,463.602 156.466,463.713 155.949,463.823 155.423,463.937 154.904,464.051 154.375,464.153 153.854,464.255 153.32,464.366 152.793,464.476 152.241,464.566 151.668,464.656 151.108,464.746 150.528,464.817 149.961,464.887 149.378,464.954 148.808,465.022 148.221,465.065 147.634,465.104 147.055,465.145 146.51,465.154 145.969,465.164 145.432,465.175 144.897,465.189 144.376,465.199 143.855,465.212 143.31,465.239 142.767,465.266 142.199,465.314 " fill="none" stroke-width="1" stroke="rgb(0,0,255)" />
	<polyline points="142.199,465.314 141.96,465.196 141.713,465.077 141.465,464.958 141.217,464.836 140.969,464.715 140.719,464.589 140.469,464.463 140.218,464.337 139.968,464.21 139.714,464.082 139.46,463.955 139.207,463.827 138.953,463.7 138.697,463.57 138.441,463.439 138.185,463.308 137.93,463.176 137.672,463.041 137.416,462.904 137.159,462.766 136.903,462.627 136.656,462.484 136.41,462.341 136.164,462.198 135.919,462.053 135.664,461.905 135.409,461.757 135.155,461.607 134.901,461.457 134.651,461.303 134.402,461.149 134.154,460.994 133.914,460.834 133.664,460.673 133.415,460.511 133.166,460.349 132.918,460.186 132.681,460.021 132.437,459.853 132.193,459.686 131.95,459.518 131.705,459.35 131.46,459.182 131.216,459.014 130.971,458.842 130.735,458.671 130.5,458.5 " fill="none" stroke-width="1" stroke="rgb(0,0,255)" />
	<polyline points="130.5,458.5 130.371,458.215 130.243,457.931 130.11,457.642 129.977,457.354 129.843,457.062 129.715,456.772 129.587,456.484 129.46,456.196 129.333,455.91 129.204,455.615 129.075,455.322 128.947,455.029 " fill="none" stroke-width="1" stroke="rgb(0,0,255)" />
	<polyline points="128.947,455.029 128.387,454.728 127.827,454.425 127.266,454.045 126.726,453.755 126.187,453.465 125.696,453.162 125.214,452.866 124.781,452.592 124.35,452.32 123.92,452.047 123.512,451.781 123.106,451.517 122.743,451.265 122.381,451.012 121.994,450.742 121.619,450.455 121.241,450.167 120.832,449.833 120.415,449.488 119.991,449.135 119.587,448.793 119.183,448.428 118.764,448.058 118.347,447.661 117.914,447.249 117.433,446.819 116.98,446.403 116.488,445.945 116.024,445.528 115.531,445.073 115.069,444.648 114.588,444.195 114.158,443.786 113.716,443.339 113.284,442.901 112.869,442.476 112.459,442.064 112.059,441.657 111.66,441.23 111.264,440.807 110.864,440.392 110.447,439.965 110.044,439.568 109.664,439.216 109.283,438.863 108.878,438.474 108.509,438.138 108.107,437.74 107.748,437.407 107.398,437.082 107.038,436.73 106.705,436.411 106.382,436.101 106.057,435.785 105.745,435.47 105.435,435.159 105.116,434.842 104.785,434.518 104.452,434.193 104.12,433.87 103.783,433.533 103.446,433.197 103.109,432.861 102.778,432.539 102.453,432.223 102.136,431.913 101.827,431.617 101.529,431.332 101.243,431.055 100.977,430.802 100.711,430.541 100.456,430.289 100.211,430.044 99.9805,429.816 99.7559,429.587 99.5322,429.359 99.3122,429.132 99.0927,428.905 98.8559,428.652 98.5621,428.348 98.1458,427.937 97.6325,427.458 97.0353,426.907 96.448,426.369 95.9181,425.88 95.4108,425.406 94.9177,424.945 94.4222,424.478 93.9195,424.006 93.4163,423.541 92.9029,423.068 92.4159,422.627 91.9275,422.185 91.436,421.743 90.9421,421.298 90.4061,420.807 89.7838,420.201 89.2698,419.633 88.7201,419.122 88.0907,418.515 87.5694,418.055 87.1287,417.725 86.6236,417.294 86.1212,416.868 85.6424,416.464 85.177,416.071 84.7274,415.696 84.2795,415.322 83.8383,414.953 83.3885,414.56 82.9512,414.177 82.4863,413.739 82.0669,413.341 81.6556,412.975 81.3004,412.628 80.9738,412.308 80.654,412.023 80.3563,411.766 80.0656,411.513 79.7544,411.244 79.4027,410.944 79.2646,410.786 79.123,410.622 78.9781,410.452 78.4757,410.035 78.0184,409.669 77.5129,409.246 77.0322,408.842 76.5295,408.408 76.0313,407.978 75.5916,407.617 75.1492,407.254 74.6817,406.868 74.2761,406.555 73.8686,406.242 73.2982,405.745 72.7221,405.245 72.0323,404.512 71.432,403.985 70.8987,403.534 70.4701,403.197 69.8712,402.692 69.4638,402.391 69.0583,402.092 68.5678,401.694 68.0769,401.297 67.3228,400.539 66.7426,399.959 66.2175,399.428 65.7227,398.989 65.2171,398.469 64.7243,398.023 64.1979,397.587 63.6922,397.121 63.1823,396.69 62.6367,396.157 62.097,395.785 61.5788,395.26 61.1149,394.796 60.712,394.382 60.3026,393.963 59.73,393.421 59.3231,393 58.767,392.473 58.3304,392.024 57.8025,391.506 57.3819,391.076 56.8474,390.554 56.3724,390.084 55.9381,389.622 55.4542,389.155 54.9913,388.677 54.473,388.198 53.9758,387.693 53.4705,387.197 53.02,386.716 52.4954,386.214 51.9878,385.711 51.4772,385.211 50.9547,384.757 50.4479,384.283 49.9547,383.82 49.4643,383.343 48.9806,382.87 48.4956,382.411 48.0143,381.954 47.5191,381.471 47.0302,380.991 46.5441,380.506 46.061,380.021 45.5417,379.487 45.0192,378.946 44.472,378.404 43.9025,377.836 43.4163,377.428 42.9278,377.015 42.4102,376.579 41.8864,376.134 41.4099,375.739 40.9438,375.345 40.3591,374.789 39.7814,374.223 39.306,373.591 38.8248,372.937 38.5314,372.351 38.2415,371.757 37.9817,371.17 37.7647,370.634 37.5505,370.093 37.3639,369.468 37.1812,368.831 36.9799,368.221 36.7891,367.643 36.6037,367.064 36.4088,366.514 36.2219,365.966 36.0819,365.367 35.9433,364.745 35.8489,364.062 35.7807,363.358 35.7149,362.651 35.6699,361.941 35.6393,361.234 35.6288,360.527 35.6214,359.807 35.6176,359.084 35.6107,358.351 35.6011,357.636 35.5936,356.916 35.5848,356.193 35.5758,355.51 35.5684,354.803 35.5603,354.084 35.5528,353.398 35.5464,352.693 35.5421,351.978 35.5384,351.286 35.5363,350.586 35.535,349.871 35.5344,349.174 35.5349,348.471 35.5359,347.758 35.5374,347.057 35.5396,346.349 35.5432,345.645 35.5471,344.938 35.5521,344.23 35.5579,343.526 35.564,342.819 35.5702,342.109 35.5768,341.403 35.5838,340.696 35.5913,339.987 35.5997,339.282 35.6087,338.574 35.6178,337.866 35.627,337.16 35.6364,336.451 35.646,335.743 35.656,335.038 35.6669,334.327 35.6804,333.621 35.695,332.919 35.7121,332.211 35.7304,331.507 35.7487,330.808 35.7649,330.099 35.7793,329.399 35.7935,328.717 35.8083,328.032 35.8237,327.363 35.8388,326.705 35.8539,326.017 35.8679,325.328 35.8805,324.622 35.8928,323.912 35.9023,323.213 35.9089,322.505 35.9144,321.791 35.9178,321.087 35.9198,320.374 35.9212,319.658 35.9207,318.958 35.9189,318.242 35.9183,317.544 35.9171,316.841 35.9149,316.118 35.9099,315.423 35.9022,314.727 35.8935,314.014 35.884,313.318 35.8721,312.607 35.8578,311.898 35.8394,311.205 35.8169,310.506 35.7941,309.814 35.7693,309.14 35.7441,308.478 35.7184,307.801 35.6902,307.121 35.6597,306.443 35.6287,305.748 35.5958,305.054 35.5621,304.361 35.5294,303.658 35.4985,302.954 35.4702,302.246 35.4447,301.535 35.4195,300.827 35.3976,300.115 35.3778,299.402 35.3582,298.692 35.3393,297.981 35.3198,297.274 35.2991,296.566 35.2785,295.86 35.2577,295.16 35.2364,294.452 35.2151,293.743 35.1943,293.039 35.1743,292.329 35.1557,291.621 35.1371,290.916 35.1223,290.203 35.1081,289.491 35.0938,288.783 35.0784,288.08 35.0614,287.378 35.0438,286.688 35.0238,286.012 35.0028,285.341 34.9948,284.666 34.9903,283.992 34.9842,283.3 34.9829,282.614 34.9818,281.926 34.9863,281.211 34.9852,280.518 34.9864,279.826 34.978,279.107 34.9692,278.408 34.9604,277.711 34.9518,276.996 34.9437,276.298 34.9368,275.582 34.9298,274.87 34.923,274.175 34.9178,273.458 34.9127,272.746 34.9076,272.05 34.9061,271.334 34.9062,270.633 34.9062,269.938 34.9138,269.227 34.9221,268.533 34.9301,267.848 34.9596,267.186 34.9845,266.529 35.0084,265.886 35.0128,265.17 35.0109,264.443 35.0089,263.722 35.0026,262.955 34.9754,262.209 34.9238,261.476 34.8738,260.765 34.833,260.069 34.8038,259.382 34.7755,258.724 34.7412,258.098 34.7068,257.512 34.6734,256.947 34.6412,256.402 34.6098,255.875 34.5848,255.369 34.5599,254.878 34.5349,254.401 34.5102,253.941 34.5,253.5 " fill="none" stroke-width="1" stroke="rgb(0,0,255)" />
	<polyline points="140.5,469.5 141.154,468.581 141.324,467.842 141.735,467.02 141.959,466.044 142.199,465.314 " fill="none" stroke-width="1" stroke="rgb(0,0,255)" />
	<polyline points="130.5,323.5 130.626,323.125 130.756,322.776 130.885,322.425 131.016,322.075 131.127,321.731 131.239,321.383 131.352,321.031 131.471,320.704 131.591,320.376 131.712,320.045 131.835,319.708 131.959,319.369 132.079,319.039 132.207,318.722 132.336,318.404 132.466,318.085 132.607,317.763 132.749,317.44 132.892,317.116 133.03,316.801 133.165,316.494 133.301,316.186 133.439,315.878 133.584,315.565 133.73,315.252 133.877,314.939 134.025,314.632 134.169,314.326 134.315,314.021 134.475,313.712 134.636,313.402 134.799,313.093 134.968,312.784 135.137,312.48 135.308,312.175 135.48,311.87 135.679,311.55 135.88,311.229 136.081,310.91 136.293,310.592 136.507,310.275 136.722,309.958 136.929,309.643 137.155,309.324 137.383,309.004 137.605,308.689 137.828,308.375 138.053,308.061 138.283,307.744 138.513,307.428 138.744,307.113 139.01,306.787 139.262,306.471 139.516,306.156 139.811,305.826 140.106,305.497 140.377,305.184 140.649,304.871 140.943,304.556 141.221,304.245 141.497,303.936 141.786,303.644 142.071,303.354 142.347,303.071 142.625,302.794 142.904,302.516 143.182,302.232 143.459,301.949 143.734,301.679 144.012,301.407 144.296,301.136 144.578,300.867 144.854,300.602 145.131,300.337 145.413,300.066 145.687,299.805 145.957,299.546 146.227,299.289 146.494,299.033 146.759,298.776 147.021,298.521 147.285,298.268 147.55,298.016 147.821,297.741 148.091,297.467 148.353,297.214 148.616,296.96 148.89,296.684 149.154,296.438 149.417,296.192 149.68,295.945 149.944,295.69 150.207,295.438 150.468,295.186 150.727,294.935 150.986,294.691 151.238,294.456 151.487,294.221 151.733,293.988 151.978,293.753 152.237,293.51 152.493,293.267 152.747,293.025 153.005,292.782 153.275,292.534 153.549,292.285 153.826,292.035 " fill="none" stroke-width="1" stroke="rgb(0,0,255)" />
	<polyline points="128.947,455.029 129.219,453.681 129.369,452.229 129.551,450.622 129.698,449.167 129.802,447.882 129.882,446.543 129.916,444.129 129.942,440.31 129.939,437.512 129.871,435.552 129.888,433.29 129.924,431.072 129.992,428.928 129.977,426.711 129.945,424.555 129.91,422.505 129.871,420.404 129.826,418.275 129.78,416.126 129.737,413.982 129.722,411.703 129.698,409.456 129.663,407.224 129.607,405.144 129.544,403.218 129.489,401.12 129.452,399.024 129.427,396.839 129.399,394.647 129.361,392.442 129.304,390.264 129.233,388.135 129.163,386.002 129.111,383.784 129.071,381.489 129.035,379.229 128.994,377.037 128.899,375.361 128.835,373.045 128.801,370.725 128.779,368.516 128.763,366.33 128.759,364.136 128.766,361.939 128.778,359.758 128.786,357.576 128.791,355.381 128.798,353.16 128.828,350.973 128.875,348.85 128.915,346.604 128.913,343.815 129.046,341.974 129.181,339.779 129.365,336.679 129.539,334.836 129.702,332.79 129.864,330.365 130.009,328.342 130.118,326.364 130.295,324.603 130.5,323.5 " fill="none" stroke-width="1" stroke="rgb(0,0,255)" />
	<polyline points="69.7359,237.263 70.036,237.138 70.2139,237.085 70.3922,237.032 70.5708,236.978 70.8879,236.873 71.2413,236.866 71.5836,236.894 71.9186,236.942 72.2203,236.979 72.5205,237.021 72.8087,237.096 73.0872,237.205 73.3698,237.33 73.6525,237.455 73.9355,237.581 74.211,237.705 74.4868,237.829 74.7629,237.954 75.041,238.085 75.3254,238.235 75.6101,238.386 75.8952,238.538 76.1781,238.686 76.4614,238.836 76.7453,238.986 77.0257,239.134 77.3111,239.291 77.5971,239.449 77.8835,239.608 78.1648,239.756 78.4464,239.906 78.7282,240.057 79.0144,240.213 79.305,240.374 79.5961,240.536 79.8875,240.699 80.1766,240.859 80.4658,241.02 80.7473,241.173 81.0291,241.327 81.3179,241.491 81.6067,241.657 81.8954,241.825 82.1802,241.989 82.4957,242.201 82.8118,242.414 83.1283,242.629 83.4196,242.798 83.7112,242.968 83.9955,243.134 84.2852,243.309 84.5748,243.486 84.8645,243.664 85.1497,243.836 85.435,244.008 85.7429,244.221 86.0508,244.436 86.3349,244.613 86.6187,244.791 86.9021,244.969 87.1925,245.159 87.4823,245.35 87.7715,245.542 88.0601,245.735 88.3405,245.92 88.6236,246.117 88.906,246.314 89.1884,246.503 89.4701,246.693 89.7508,246.884 90.0308,247.077 90.3059,247.27 90.5803,247.464 90.8537,247.657 91.1262,247.851 91.4012,248.043 91.6958,248.272 91.9889,248.5 92.2577,248.69 92.5254,248.881 92.792,249.07 93.0539,249.255 93.3196,249.448 93.5839,249.641 93.8469,249.834 94.1084,250.026 94.3839,250.251 94.6576,250.475 94.9296,250.698 95.1902,250.893 95.4495,251.087 95.7025,251.271 95.9542,251.454 96.203,251.64 96.4503,251.825 96.6962,252.009 96.9444,252.2 97.2185,252.442 97.4905,252.683 97.7604,252.922 98.0047,253.122 98.2384,253.31 98.471,253.498 98.7025,253.685 98.9339,253.87 99.1622,254.08 99.3877,254.307 99.6127,254.535 99.838,254.761 100.057,254.995 100.264,255.238 100.468,255.487 100.666,255.745 100.857,256.011 100.923,256.18 101.082,256.468 101.194,256.782 101.193,257.089 101.184,257.38 101.15,257.665 101.106,257.947 " fill="none" stroke-width="1" stroke="rgb(0,0,255)" />
	<polyline points="107.512,262.726 107.729,262.964 107.948,263.201 108.058,263.34 108.175,263.471 108.295,263.595 108.42,263.713 108.549,263.823 108.68,263.929 108.907,264.107 109.135,264.278 109.364,264.442 109.594,264.599 109.826,264.747 110.062,264.883 110.208,264.944 110.354,265.003 110.597,265.126 110.841,265.245 " fill="none" stroke-width="1" stroke="rgb(0,0,255)" />
	<polyline points="69.7359,237.263 69.4849,237.09 69.2301,236.914 68.9351,236.751 68.6745,236.561 68.4177,236.375 68.1643,236.193 67.9141,236.015 67.6584,235.836 67.4043,235.66 67.1518,235.485 66.9007,235.312 66.6666,235.176 66.4325,235.04 66.1986,234.905 65.9649,234.771 65.7227,234.637 65.4798,234.502 65.2362,234.367 64.9919,234.232 64.7511,234.086 64.5111,233.941 64.252,233.782 63.9933,233.623 63.7367,233.449 63.4819,233.277 63.2288,233.107 62.9773,232.94 62.7401,232.78 62.504,232.622 62.2688,232.465 62.0346,232.31 61.7988,232.177 61.5633,232.045 61.3213,231.915 61.0793,231.786 60.8477,231.656 60.6161,231.527 60.3845,231.398 60.153,231.27 59.9215,231.142 59.6825,231.013 59.4435,230.894 59.2051,230.777 58.9672,230.66 58.7314,230.536 58.4964,230.413 58.2623,230.291 58.0291,230.171 57.7949,230.05 57.5607,229.931 57.3269,229.814 57.0934,229.697 56.8495,229.58 56.6051,229.464 56.3603,229.347 56.1149,229.231 55.8754,229.104 55.636,228.978 55.3818,228.856 55.1279,228.735 54.8721,228.613 54.6101,228.484 54.3477,228.355 54.0851,228.226 53.8144,228.107 53.5439,227.989 53.2923,227.864 53.0416,227.74 52.7708,227.62 52.5,227.5 " fill="none" stroke-width="1" stroke="rgb(0,0,255)" />
	<polyline points="101.106,257.947 100.78,258.184 100.448,258.178 100.12,258.158 99.7876,258.119 99.4548,258.065 99.1203,257.999 98.7889,257.92 98.4564,257.832 98.1235,257.738 97.7995,257.639 97.4888,257.515 97.186,257.375 96.8859,257.231 96.5783,257.059 96.2777,256.91 95.9705,256.754 95.6567,256.58 95.3456,256.408 95.0359,256.235 94.734,256.082 94.4324,255.928 94.1286,255.76 93.8257,255.588 93.5231,255.415 93.2203,255.241 92.9168,255.065 92.6168,254.904 92.3162,254.742 92.0156,254.579 91.712,254.409 91.4085,254.239 91.105,254.067 90.8053,253.902 90.506,253.735 90.2076,253.569 89.9104,253.402 89.6108,253.219 89.3127,253.035 89.0189,252.858 88.7219,252.679 88.4257,252.499 88.1302,252.318 87.8392,252.138 87.5494,251.957 87.2583,251.765 86.9685,251.574 86.6766,251.384 86.3851,251.193 86.093,251 85.8058,250.816 85.5185,250.63 85.2319,250.444 84.9471,250.258 84.6575,250.062 84.3698,249.859 84.0825,249.655 83.7983,249.464 83.513,249.27 83.2271,249.074 82.946,248.89 82.6588,248.693 82.3723,248.495 82.0862,248.297 81.8058,248.107 81.5271,247.917 81.2416,247.705 80.9572,247.493 80.6801,247.296 80.4035,247.098 80.1163,246.881 79.8378,246.684 79.5588,246.486 79.2797,246.287 79.001,246.086 78.7223,245.881 78.4445,245.675 78.1676,245.469 77.8916,245.263 77.6114,245.048 77.3371,244.855 77.0641,244.663 76.7824,244.446 76.5034,244.23 76.2261,244.015 75.9581,243.807 75.687,243.593 75.4173,243.38 75.1499,243.167 74.8853,242.955 74.6146,242.729 74.346,242.503 74.078,242.277 73.8013,242.064 73.5367,241.847 73.2712,241.63 73.0058,241.413 72.7454,241.201 72.4894,240.992 72.2279,240.784 71.9596,240.571 71.6782,240.355 71.4113,240.144 71.1626,239.929 70.9374,239.682 70.7439,239.382 70.6695,239.065 70.59,238.75 70.4496,238.407 70.2007,238.072 70.1335,237.862 70.063,237.648 69.7359,237.263 " fill="none" stroke-width="1" stroke="rgb(0,0,255)" />
	<polyline points="107.512,262.726 107.26,262.541 107.001,262.35 106.742,262.159 106.485,261.969 106.198,261.793 105.915,261.618 105.665,261.443 105.416,261.268 105.169,261.094 104.924,260.921 104.68,260.742 104.437,260.562 104.194,260.383 103.95,260.203 103.703,260.012 103.451,259.785 103.203,259.563 102.959,259.344 102.726,259.164 102.495,258.985 102.265,258.802 102.034,258.62 101.801,258.451 101.568,258.282 101.337,258.115 101.106,257.947 " fill="none" stroke-width="1" stroke="rgb(0,0,255)" />
	<polyline points="110.841,265.245 110.679,265.139 110.513,265.03 110.416,264.96 110.318,264.89 110.219,264.818 110.12,264.746 110.02,264.673 109.844,264.555 109.66,264.43 109.468,264.298 109.268,264.156 109.057,264.003 108.943,263.908 108.822,263.805 108.697,263.696 108.569,263.582 108.435,263.46 108.297,263.332 108.152,263.195 107.832,262.952 107.512,262.726 " fill="none" stroke-width="1" stroke="rgb(0,0,255)" />
	<polyline points="111.5,42.5 111.629,42.7883 111.763,43.0748 111.903,43.3561 112.044,43.6387 112.181,43.9275 112.321,44.2208 112.462,44.5171 112.604,44.8168 112.748,45.1203 112.901,45.4058 113.058,45.6947 113.214,45.979 113.39,46.2379 113.583,46.481 113.794,46.6995 114.017,46.9056 114.227,47.0924 114.441,47.2834 114.661,47.4749 114.885,47.667 115.115,47.8597 115.342,48.0436 115.574,48.2256 115.81,48.4084 116.052,48.5919 116.294,48.7737 116.541,48.9562 116.793,49.1365 117.05,49.3181 117.312,49.5077 117.579,49.6988 117.852,49.8915 118.13,50.0857 118.405,50.2673 118.684,50.4503 118.969,50.6348 119.266,50.8345 119.569,51.0358 119.885,51.2418 120.192,51.4334 120.504,51.6262 120.819,51.8202 121.138,52.0152 121.474,52.2252 121.813,52.4364 122.156,52.6487 122.482,52.8421 122.812,53.0355 123.173,53.2586 123.519,53.462 123.869,53.6665 124.327,53.995 124.673,54.1991 125.021,54.4054 125.379,54.6092 125.738,54.8137 126.1,55.019 126.473,55.2461 126.848,55.4738 127.206,55.6814 127.567,55.8894 127.929,56.0979 128.297,56.3143 128.667,56.5312 129.038,56.7484 129.396,56.9454 129.759,57.1508 130.123,57.3566 130.487,57.5621 130.853,57.7682 131.216,57.9667 131.583,58.1713 131.952,58.3763 132.316,58.5752 132.682,58.7744 133.047,58.9741 133.419,59.1805 133.791,59.3869 134.164,59.5932 134.531,59.7945 134.898,59.9961 135.285,60.2239 135.672,60.452 136.06,60.6804 136.433,60.8913 136.806,61.1024 137.178,61.3126 137.564,61.5395 137.95,61.7669 138.32,61.9733 138.693,62.1825 139.067,62.3919 139.442,62.5988 139.817,62.8062 140.186,63.0059 140.558,63.2105 140.929,63.415 141.305,63.6247 141.681,63.8342 142.056,64.0436 142.43,64.2482 142.803,64.4525 143.176,64.6565 143.551,64.8633 143.926,65.07 144.313,65.2948 144.7,65.5193 145.087,65.7437 145.466,65.9585 145.842,66.1698 146.236,66.4009 146.63,66.632 147.024,66.863 147.396,67.0661 147.775,67.2774 148.154,67.4886 148.538,67.703 148.922,67.9175 149.293,68.113 149.665,68.3084 150.037,68.5035 150.419,68.7107 150.802,68.9179 151.176,69.1122 151.551,69.3083 151.928,69.5041 152.3,69.6956 152.673,69.887 153.046,70.0783 153.425,70.2755 153.804,70.4724 154.183,70.6689 154.56,70.8628 154.936,71.0565 155.338,71.2779 155.739,71.4992 156.141,71.7207 156.512,71.9057 156.883,72.0914 157.272,72.2967 157.658,72.5016 158.044,72.7062 158.414,72.8948 158.784,73.083 159.151,73.2653 159.544,73.4739 159.937,73.6821 160.308,73.8678 160.679,74.0531 161.046,74.2336 161.439,74.4415 161.832,74.649 162.2,74.8296 162.569,75.01 162.941,75.1932 163.344,75.4075 163.747,75.6216 164.15,75.8356 164.519,76.0104 164.886,76.1862 165.279,76.3924 165.672,76.5991 166.064,76.8064 166.428,76.9779 166.794,77.1502 167.159,77.3223 167.549,77.5217 167.938,77.7211 168.304,77.897 168.67,78.0726 169.033,78.2434 169.419,78.4469 169.806,78.6498 170.192,78.8523 170.556,79.0272 170.922,79.2047 171.308,79.4054 171.694,79.6057 172.08,79.8056 172.447,79.984 172.811,80.1573 173.203,80.366 173.595,80.5746 173.988,80.7833 174.349,80.9506 174.717,81.129 175.085,81.3073 175.467,81.5037 175.849,81.7008 176.213,81.8725 176.579,82.0442 176.94,82.2083 177.33,82.4093 177.72,82.6101 178.11,82.8108 178.475,82.9787 178.839,83.1448 179.223,83.3394 179.608,83.5339 179.993,83.7284 180.36,83.9008 180.728,84.073 181.093,84.243 181.488,84.4465 181.883,84.65 182.249,84.8188 182.615,84.9879 182.983,85.1602 183.374,85.3632 183.765,85.5669 184.157,85.771 184.521,85.9359 184.887,86.1048 185.276,86.3052 185.666,86.5057 186.055,86.7065 186.421,86.8774 186.786,87.0482 187.149,87.2101 187.536,87.4088 187.924,87.6074 188.287,87.7727 188.65,87.9379 189.016,88.1103 189.404,88.3093 189.791,88.5082 190.178,88.7068 190.547,88.8831 190.916,89.0591 191.317,89.2684 191.719,89.4774 192.12,89.6862 192.48,89.8499 192.84,90.014 193.222,90.2091 193.603,90.4048 193.983,90.6012 194.344,90.7791 194.704,90.9564 195.059,91.1232 195.437,91.3152 195.812,91.5056 196.185,91.6948 196.538,91.8653 196.891,92.0359 197.271,92.2403 197.651,92.4449 198.031,92.6492 198.384,92.8257 198.736,93.0019 199.087,93.1789 199.458,93.3786 199.827,93.5779 200.175,93.7553 200.522,93.9324 200.872,94.1138 201.24,94.3197 201.607,94.525 201.973,94.7299 202.32,94.9117 202.668,95.0978 203.015,95.2832 203.375,95.4869 203.733,95.689 204.09,95.8897 204.441,96.0824 204.791,96.2735 205.139,96.4633 205.509,96.6866 205.879,96.9085 206.229,97.1093 206.578,97.3092 206.926,97.5079 207.271,97.7015 207.615,97.894 207.957,98.0853 208.305,98.288 208.652,98.4891 208.997,98.6885 209.343,98.8842 209.687,99.0781 210.031,99.2688 210.375,99.4612 210.718,99.6524 211.059,99.8428 211.411,100.035 211.765,100.229 212.118,100.422 212.468,100.618 212.817,100.813 213.164,101.007 213.564,101.232 213.961,101.456 214.348,101.679 214.734,101.9 215.112,102.128 215.5,102.343 215.887,102.558 216.275,102.787 216.662,103.015 217.07,103.259 217.5,103.5 " fill="none" stroke-width="1" stroke="rgb(0,0,255)" />
	<polyline points="217.5,103.5 217.808,103.764 218.115,104.028 218.402,104.282 218.689,104.538 218.976,104.794 219.273,105.058 219.581,105.336 219.889,105.614 220.177,105.869 220.467,106.126 220.739,106.374 221.012,106.623 221.296,106.88 221.586,107.142 221.879,107.406 222.147,107.646 222.417,107.887 222.673,108.116 222.931,108.346 223.199,108.581 223.467,108.817 223.737,109.053 224.003,109.291 224.264,109.523 224.526,109.756 224.79,109.989 225.045,110.212 225.309,110.439 225.574,110.667 225.841,110.895 226.108,111.13 226.37,111.356 226.633,111.584 226.898,111.813 227.17,112.062 227.436,112.288 227.704,112.514 227.972,112.741 228.237,112.961 228.502,113.183 228.769,113.406 229.037,113.63 229.31,113.86 229.584,114.091 229.858,114.322 230.132,114.555 230.402,114.777 230.672,115 230.941,115.22 231.214,115.449 231.487,115.678 231.761,115.908 232.038,116.143 232.31,116.373 232.583,116.604 232.857,116.834 233.131,117.065 233.405,117.293 233.679,117.521 233.953,117.749 234.227,117.973 234.502,118.202 234.777,118.43 235.052,118.659 235.332,118.895 235.608,119.122 235.883,119.349 236.164,119.585 236.444,119.82 236.725,120.056 237.001,120.282 237.282,120.518 237.563,120.754 237.844,120.99 238.122,121.214 238.404,121.451 238.688,121.688 238.971,121.925 239.249,122.15 239.527,122.375 239.805,122.6 240.083,122.824 240.365,123.058 240.644,123.284 240.924,123.509 241.205,123.742 241.486,123.975 241.762,124.193 242.038,124.412 242.32,124.643 242.602,124.873 242.884,125.104 243.167,125.339 243.449,125.573 243.731,125.807 244.013,126.041 244.289,126.258 244.566,126.475 244.842,126.692 245.118,126.908 245.397,127.13 245.675,127.351 245.953,127.571 246.23,127.788 246.505,128.005 246.778,128.215 247.051,128.424 247.329,128.648 247.607,128.871 247.885,129.094 248.16,129.315 248.434,129.535 248.708,129.755 248.982,129.974 249.257,130.192 249.531,130.409 249.805,130.625 250.079,130.842 250.351,131.052 250.623,131.267 250.895,131.482 251.167,131.69 251.438,131.897 251.715,132.113 251.991,132.329 252.267,132.553 252.543,132.777 252.819,133.001 253.091,133.217 253.369,133.441 253.646,133.666 253.924,133.89 254.206,134.133 254.489,134.376 254.772,134.619 255.055,134.863 255.348,135.104 255.632,135.344 255.915,135.584 256.194,135.816 256.474,136.049 256.76,136.293 257.047,136.537 257.347,136.792 257.648,137.047 257.934,137.282 258.218,137.519 258.504,137.757 258.79,137.995 259.073,138.22 259.36,138.454 259.648,138.689 259.937,138.924 260.222,139.15 260.507,139.376 260.793,139.602 261.08,139.828 261.361,140.042 261.645,140.259 261.928,140.476 262.216,140.699 262.504,140.923 262.789,141.143 263.075,141.364 263.361,141.587 263.648,141.811 263.935,142.035 264.226,142.266 264.517,142.497 264.808,142.729 265.1,142.961 265.391,143.193 265.682,143.425 265.974,143.657 266.259,143.872 266.544,144.087 266.832,144.305 267.12,144.522 267.408,144.744 267.697,144.967 267.987,145.191 268.273,145.407 268.56,145.624 268.847,145.841 269.135,146.058 269.43,146.293 269.725,146.529 270.02,146.764 270.308,146.978 270.6,147.205 270.892,147.432 271.181,147.654 271.471,147.877 271.761,148.1 272.057,148.337 272.348,148.562 272.639,148.786 272.93,149.01 273.218,149.233 273.507,149.456 273.796,149.678 274.084,149.9 274.376,150.132 274.668,150.363 274.96,150.594 275.251,150.823 275.542,151.053 275.829,151.275 276.116,151.497 276.402,151.723 276.688,151.948 276.976,152.175 277.263,152.402 277.55,152.628 277.836,152.855 278.121,153.08 278.405,153.301 278.688,153.521 278.97,153.741 279.253,153.964 279.534,154.181 279.814,154.398 280.094,154.615 280.38,154.842 280.665,155.067 280.946,155.286 281.229,155.514 281.51,155.74 281.79,155.966 282.066,156.177 282.35,156.404 282.634,156.629 282.916,156.854 283.189,157.061 283.466,157.281 283.742,157.5 284.017,157.717 284.291,157.929 284.568,158.142 284.843,158.354 285.117,158.564 285.389,158.774 285.659,158.983 285.931,159.194 286.206,159.41 286.479,159.626 286.75,159.84 287.021,160.054 287.296,160.274 287.57,160.494 287.842,160.712 288.114,160.928 288.396,161.16 288.676,161.39 288.955,161.619 289.231,161.839 289.506,162.057 289.796,162.3 290.084,162.542 290.375,162.785 290.666,163.027 290.973,163.297 291.277,163.557 291.58,163.817 291.883,164.075 292.208,164.36 292.534,164.644 292.859,164.927 293.179,165.214 293.5,165.5 " fill="none" stroke-width="1" stroke="rgb(0,0,255)" />
	<polyline points="293.5,165.5 293.761,165.67 294.023,165.839 294.291,166.008 294.572,166.177 294.853,166.345 295.134,166.513 295.41,166.683 295.688,166.851 295.965,167.019 296.245,167.184 296.525,167.349 296.805,167.513 297.085,167.678 297.366,167.843 297.647,168.008 297.931,168.173 298.216,168.336 298.5,168.5 " fill="none" stroke-width="1" stroke="rgb(0,0,255)" />
	<polyline points="130.5,213.5 130.749,213.137 130.994,212.766 131.207,212.429 131.421,212.087 131.631,211.756 131.843,211.421 132.057,211.083 132.278,210.768 132.501,210.451 132.727,210.129 132.996,209.784 133.233,209.46 133.473,209.132 133.711,208.803 133.95,208.472 134.173,208.158 134.403,207.842 134.645,207.515 134.891,207.186 135.173,206.843 135.405,206.52 135.638,206.197 135.872,205.874 136.126,205.542 136.355,205.225 136.586,204.906 136.826,204.585 137.067,204.263 137.314,203.937 137.553,203.613 137.793,203.289 138.034,202.964 138.272,202.643 138.511,202.322 138.75,202 138.989,201.678 139.226,201.355 139.463,201.033 139.719,200.702 139.976,200.37 140.218,200.045 140.48,199.712 140.742,199.377 141.005,199.042 141.269,198.707 141.533,198.371 141.798,198.036 142.046,197.708 142.298,197.378 142.551,197.048 142.808,196.716 143.065,196.384 143.32,196.053 143.568,195.725 143.818,195.396 144.068,195.067 144.341,194.725 144.613,194.383 144.884,194.042 145.136,193.711 145.388,193.38 145.641,193.048 145.877,192.724 146.145,192.379 146.41,192.037 146.641,191.721 146.872,191.405 147.103,191.088 147.326,190.772 147.55,190.454 147.774,190.135 148.017,189.807 148.25,189.486 148.482,189.165 148.714,188.846 148.967,188.512 149.214,188.179 149.461,187.847 149.713,187.518 149.963,187.19 150.223,186.854 150.472,186.529 150.724,186.2 151.102,185.785 151.347,185.457 151.596,185.125 151.842,184.795 152.088,184.465 152.343,184.133 152.613,183.787 152.882,183.441 153.122,183.115 153.386,182.776 153.649,182.438 153.911,182.1 154.183,181.761 154.456,181.421 154.728,181.081 154.991,180.746 155.265,180.402 155.538,180.059 155.79,179.734 156.043,179.409 156.301,179.081 156.556,178.754 156.808,178.431 157.058,178.112 157.31,177.795 157.563,177.477 157.816,177.16 158.148,176.814 158.415,176.488 158.686,176.158 158.94,175.836 159.205,175.509 159.468,175.184 159.731,174.86 160.004,174.528 160.285,174.188 160.566,173.848 160.827,173.524 161.09,173.197 161.347,172.874 161.609,172.549 161.866,172.228 162.258,171.84 162.522,171.518 162.781,171.204 163.035,170.895 163.288,170.586 163.542,170.277 163.797,169.967 164.047,169.655 164.294,169.348 164.541,169.041 164.799,168.727 165.059,168.411 165.321,168.094 165.586,167.774 165.853,167.452 166.122,167.129 166.404,166.803 166.688,166.476 166.974,166.147 167.26,165.819 167.545,165.492 167.828,165.167 168.111,164.843 168.389,164.525 168.669,164.206 168.95,163.885 169.225,163.567 169.503,163.245 169.783,162.921 170.059,162.596 170.332,162.272 170.605,161.95 170.88,161.625 171.147,161.308 171.414,160.99 171.692,160.665 171.97,160.34 172.247,160.013 172.518,159.692 172.79,159.371 173.062,159.049 173.341,158.724 173.621,158.399 173.902,158.072 174.175,157.749 174.447,157.427 174.72,157.104 174.99,156.783 175.268,156.457 175.547,156.13 175.798,155.818 176.05,155.506 176.318,155.184 176.586,154.862 176.849,154.544 177.112,154.226 177.381,153.903 177.645,153.585 177.908,153.267 178.18,152.944 178.447,152.625 178.715,152.308 178.982,151.991 179.267,151.666 179.552,151.342 179.835,151.019 180.115,150.697 180.398,150.377 180.68,150.058 180.971,149.736 181.26,149.417 181.548,149.099 181.83,148.78 182.112,148.461 182.391,148.147 182.673,147.831 182.956,147.516 183.232,147.205 183.507,146.896 183.786,146.581 184.065,146.266 184.336,145.955 184.614,145.641 184.892,145.326 185.159,145.018 185.441,144.704 185.723,144.389 186.005,144.074 186.288,143.756 186.571,143.437 186.854,143.119 187.12,142.806 187.404,142.49 187.686,142.176 187.967,141.863 188.252,141.547 188.535,141.232 188.817,140.919 189.101,140.601 189.386,140.289 189.669,139.978 189.941,139.668 190.228,139.353 190.512,139.04 190.794,138.72 191.075,138.401 191.342,138.094 191.606,137.788 191.869,137.482 192.144,137.169 192.416,136.857 192.686,136.543 192.955,136.228 193.209,135.925 193.484,135.612 193.757,135.301 194.028,134.993 194.333,134.667 194.634,134.344 194.931,134.025 195.222,133.708 195.515,133.387 195.81,133.063 196.085,132.73 196.394,132.398 196.707,132.062 196.97,131.746 197.269,131.411 197.569,131.073 197.841,130.742 198.113,130.409 198.385,130.082 198.627,129.77 198.87,129.456 199.134,129.128 199.373,128.812 199.614,128.493 199.856,128.172 200.098,127.85 200.321,127.542 200.544,127.231 200.768,126.919 201.013,126.591 201.232,126.28 201.451,125.97 201.681,125.65 201.911,125.33 202.13,125.019 202.379,124.685 202.628,124.351 202.877,124.016 203.096,123.702 203.329,123.379 203.562,123.056 203.785,122.739 204.008,122.422 204.251,122.093 204.476,121.776 204.7,121.458 204.924,121.142 205.155,120.822 205.385,120.503 205.614,120.184 205.842,119.865 206.075,119.542 206.303,119.225 206.529,118.907 206.772,118.579 207.013,118.251 207.244,117.933 207.486,117.606 207.728,117.281 207.969,116.955 208.214,116.627 208.458,116.3 208.701,115.973 208.927,115.656 209.163,115.333 209.397,115.011 209.627,114.693 209.856,114.376 210.084,114.059 210.313,113.739 210.541,113.42 210.768,113.101 210.985,112.786 211.21,112.468 211.435,112.15 211.657,111.831 211.877,111.515 212.095,111.201 212.32,110.876 212.528,110.566 212.734,110.257 212.939,109.95 213.167,109.619 213.393,109.29 213.617,108.962 213.839,108.638 214.06,108.313 214.277,107.992 214.53,107.627 214.777,107.269 215.021,106.916 215.285,106.553 215.55,106.19 215.827,105.794 216.103,105.399 216.37,105.02 216.642,104.653 216.913,104.287 217.211,103.898 217.5,103.5 " fill="none" stroke-width="1" stroke="rgb(0,0,255)" />
	<polyline points="128.5,273.5 128.675,272.287 128.845,271.143 128.981,269.971 129.127,268.869 129.258,267.647 129.445,264.403 129.542,261.286 129.611,258.807 129.643,256.542 129.657,254.413 129.663,252.382 129.673,250.379 129.689,248.353 129.716,246.365 129.744,244.398 129.776,242.426 129.807,240.437 129.839,238.446 129.87,236.451 129.899,234.431 129.922,232.376 129.94,230.28 129.957,228.123 129.992,225.904 130.036,223.5 130.085,220.543 130.154,218.582 130.25,217.338 130.32,215.719 130.409,214.641 130.5,213.5 " fill="none" stroke-width="1" stroke="rgb(0,0,255)" />
	<polyline points="32.5,148.5 32.8769,148.797 33.2536,149.089 33.6279,149.401 34.0023,149.713 34.379,149.979 34.748,150.233 35.1179,150.488 35.4922,150.745 35.8657,151.01 36.2355,151.317 36.6076,151.624 36.9822,151.93 37.3318,152.193 37.6831,152.458 38.0362,152.723 38.3996,153.043 38.7458,153.313 39.0938,153.584 39.4076,153.821 39.7229,154.058 40.0407,154.295 40.3595,154.531 40.6804,154.766 41.0034,155 41.3136,155.218 41.6254,155.437 41.9387,155.655 42.3025,155.953 42.6189,156.17 42.9365,156.39 43.243,156.597 43.5506,156.804 43.8592,157.012 44.185,157.231 44.5116,157.45 44.8389,157.67 45.1702,157.911 45.481,158.117 45.7929,158.324 46.1059,158.532 46.4368,158.759 46.7688,158.985 47.1572,159.285 47.4812,159.497 47.8056,159.709 48.1304,159.921 48.4609,160.143 48.7915,160.368 49.1224,160.594 49.4388,160.805 49.7557,161.014 50.1145,161.292 50.4513,161.519 50.7885,161.746 51.1262,161.972 51.4467,162.189 51.7675,162.407 52.0885,162.626 52.4207,162.853 52.7532,163.08 53.1449,163.396 53.4654,163.611 53.786,163.825 54.1067,164.041 54.4454,164.278 54.7842,164.518 55.1229,164.759 55.4475,164.987 55.769,165.21 56.0906,165.432 56.4328,165.676 56.7751,165.919 57.1427,166.212 57.4836,166.458 57.8248,166.704 58.1665,166.948 58.5042,167.189 58.8423,167.43 59.1818,167.672 59.5222,167.912 59.9716,168.306 60.3054,168.535 60.6402,168.764 60.976,168.993 61.3255,169.234 61.6762,169.477 62.0282,169.722 62.3623,169.949 62.6978,170.176 63.0347,170.405 63.3905,170.643 63.7481,170.881 64.1076,171.118 64.4415,171.325 64.7771,171.532 65.1143,171.738 65.4785,171.968 65.8493,172.205 66.1793,172.398 66.51,172.592 66.8412,172.787 67.2586,173.076 67.6079,173.288 67.9574,173.502 68.288,173.698 68.6189,173.894 68.9501,174.089 69.3029,174.304 69.656,174.518 70.0092,174.733 70.3474,174.941 70.6863,175.149 71.0251,175.357 71.3711,175.57 71.7168,175.782 72.062,175.993 72.3994,176.199 72.7361,176.405 73.0722,176.61 73.4315,176.842 73.7899,177.072 74.1458,177.296 74.4885,177.509 74.8304,177.723 75.2545,178.032 75.6011,178.254 75.9473,178.478 76.2839,178.693 76.6204,178.907 77.0096,179.199 77.357,179.419 77.7047,179.638 78.0527,179.857 78.3953,180.08 78.7367,180.302 79.0786,180.526 79.4188,180.744 79.7595,180.961 80.1491,181.244 80.4848,181.454 80.8209,181.665 81.1576,181.875 81.5046,182.095 81.8525,182.32 82.1888,182.531 82.5252,182.742 82.8617,182.953 83.2003,183.158 83.5389,183.363 83.8773,183.568 84.215,183.781 84.5524,183.993 84.8892,184.205 85.233,184.42 85.5764,184.634 85.9193,184.847 86.2673,185.078 86.5982,185.277 86.9286,185.476 87.2848,185.707 87.6404,185.937 87.9954,186.161 88.3327,186.369 88.6695,186.579 89.0059,186.789 89.4344,187.1 89.7813,187.321 90.1279,187.544 90.4609,187.754 90.7939,187.964 91.1305,188.181 91.483,188.402 91.8354,188.623 92.1678,188.832 92.5001,189.041 92.8319,189.248 93.1772,189.464 93.5226,189.678 93.8681,189.89 94.1951,190.08 94.5247,190.275 94.8543,190.47 95.213,190.692 95.5717,190.913 95.9303,191.136 96.2723,191.339 96.6142,191.544 96.956,191.749 97.3718,192.051 97.7192,192.266 98.0664,192.483 98.4132,192.702 98.7602,192.918 99.1799,193.222 99.524,193.431 99.8682,193.639 100.222,193.858 100.576,194.076 100.934,194.303 101.27,194.505 101.606,194.708 101.942,194.911 102.279,195.113 102.616,195.316 102.953,195.521 103.289,195.73 103.625,195.939 103.97,196.159 104.315,196.37 104.659,196.582 105.002,196.794 105.385,197.066 105.715,197.268 106.044,197.471 106.38,197.678 106.715,197.883 107.108,198.159 107.437,198.357 107.765,198.554 108.093,198.749 108.448,198.978 108.798,199.198 109.148,199.418 109.482,199.633 109.816,199.847 110.224,200.143 110.574,200.377 110.923,200.614 111.26,200.844 111.596,201.074 111.932,201.309 112.276,201.548 112.62,201.786 112.964,202.023 113.307,202.259 113.65,202.494 113.994,202.728 114.339,202.964 114.673,203.189 115.007,203.414 115.35,203.648 115.693,203.879 116.035,204.108 116.373,204.335 116.709,204.562 117.044,204.787 117.447,205.112 117.791,205.341 118.134,205.57 118.455,205.782 118.775,205.992 119.098,206.21 119.438,206.443 119.777,206.674 120.115,206.903 120.432,207.103 120.748,207.301 121.064,207.498 121.434,207.787 121.803,208.073 122.13,208.286 122.448,208.491 122.766,208.694 123.083,208.896 123.412,209.105 123.74,209.315 124.067,209.525 124.42,209.784 124.772,210.041 125.101,210.25 125.453,210.468 125.804,210.684 126.154,210.9 126.519,211.14 126.882,211.38 127.262,211.618 127.641,211.855 128.02,212.091 128.445,212.313 128.869,212.534 129.27,212.77 129.671,213.007 130.081,213.23 130.5,213.5 " fill="none" stroke-width="1" stroke="rgb(0,0,255)" />
	<polyline points="268.184,259.261 268.81,258.629 269.433,257.739 270.102,257.122 270.726,256.559 271.461,255.837 272.21,255.179 272.839,254.648 273.514,254.062 274.193,253.463 275.117,252.61 275.84,251.964 276.803,251.069 277.529,250.403 278.178,249.799 278.728,249.28 279.273,248.763 280.091,247.862 280.624,247.347 281.343,246.621 282.06,245.846 282.533,245.268 283.327,244.407 284.11,243.53 284.67,242.845 285.907,241.497 286.456,240.749 286.923,240.038 287.351,239.364 287.809,238.648 288.342,237.831 288.815,237.057 289.347,236.122 289.646,235.441 289.946,234.755 290.237,234.06 290.462,233.256 290.684,232.532 290.91,231.817 291.119,230.991 291.311,230.13 291.511,229.308 291.673,228.292 291.831,227.273 291.99,226.425 292.087,225.395 292.145,224.332 292.185,223.159 292.225,222.125 292.258,221.115 292.294,220.121 292.329,219.165 292.369,218.176 292.412,217.24 292.461,216.279 292.506,215.368 292.545,214.378 292.572,213.408 292.595,212.401 292.615,211.468 292.638,210.513 292.661,209.528 292.689,208.592 292.722,207.622 292.752,206.688 292.785,205.733 292.806,204.807 292.827,203.836 292.837,202.896 292.843,201.915 292.844,200.973 292.847,199.997 292.85,199.054 292.856,198.084 292.862,197.137 292.869,196.171 292.876,195.221 292.884,194.257 292.893,193.305 292.901,192.345 292.907,191.39 292.912,190.43 292.913,189.471 292.914,188.509 292.914,187.554 292.915,186.595 292.916,185.64 292.918,184.679 292.922,183.723 292.927,182.762 292.934,181.806 292.942,180.844 292.95,179.884 292.955,178.911 292.96,177.928 292.966,176.929 292.977,175.903 292.996,174.86 293.026,173.739 293.066,172.51 293.112,171.396 293.161,170.351 293.212,169.518 293.266,168.644 293.324,167.741 293.357,166.95 293.417,166.187 293.5,165.5 " fill="none" stroke-width="1" stroke="rgb(0,0,255)" />
	<polyline points="251.5,264.5 251.952,264.379 252.44,264.259 252.929,264.14 253.363,264.023 253.81,263.89 254.215,263.756 254.62,263.621 255.026,263.487 255.437,263.352 255.848,263.218 256.225,263.077 256.603,262.935 257.001,262.8 257.4,262.663 257.798,262.525 258.196,262.387 258.596,262.253 258.995,262.119 259.414,261.985 259.831,261.85 260.251,261.72 260.67,261.59 261.089,261.46 261.52,261.323 261.949,261.187 262.386,261.06 262.813,260.925 263.255,260.782 263.697,260.64 264.138,260.497 264.579,260.363 265.02,260.228 265.481,260.091 265.943,259.954 266.396,259.825 266.85,259.697 267.295,259.552 267.739,259.407 268.184,259.261 " fill="none" stroke-width="1" stroke="rgb(0,0,255)" />
	<polyline points="268.184,259.261 268.658,259.368 269.131,259.477 269.58,259.615 270.029,259.754 270.475,259.888 270.921,260.023 271.356,260.157 271.792,260.293 272.215,260.456 272.64,260.62 273.067,260.785 273.489,260.927 273.888,261.08 274.286,261.215 274.683,261.349 275.08,261.484 275.459,261.623 275.838,261.763 276.214,261.896 276.591,262.03 276.984,262.179 277.359,262.316 277.736,262.454 278.112,262.593 278.481,262.736 278.85,262.879 279.206,263.022 279.558,263.156 279.91,263.291 280.257,263.431 280.604,263.571 280.951,263.713 281.293,263.855 281.636,263.998 281.979,264.155 282.325,264.308 282.671,264.461 283.017,264.615 283.356,264.77 283.695,264.926 284.031,265.077 284.378,265.241 284.724,265.405 285.07,265.569 285.409,265.731 285.748,265.893 286.086,266.055 286.44,266.234 286.793,266.413 287.146,266.592 287.505,266.781 287.863,266.969 288.243,267.179 288.623,267.389 289.002,267.599 289.4,267.823 289.798,268.046 290.233,268.291 290.668,268.536 291.102,268.78 291.564,269.042 292.031,269.272 292.5,269.5 " fill="none" stroke-width="1" stroke="rgb(0,0,255)" />
	<polyline points="34.5,253.5 34.764,253.662 35.0277,253.826 35.2966,254.002 35.5699,254.186 35.8463,254.366 36.1301,254.532 36.4198,254.686 36.7105,254.842 37.0026,254.998 37.2888,255.172 37.5768,255.347 37.8669,255.523 38.1675,255.707 38.4696,255.895 38.77,256.094 39.0684,256.309 39.3509,256.529 39.6373,256.75 39.9276,256.972 40.2226,257.189 40.5208,257.408 40.8223,257.63 41.1271,257.855 41.4101,258.095 41.6901,258.305 41.9734,258.519 42.2538,258.736 42.5399,258.955 42.8623,259.237 43.1532,259.462 43.4454,259.689 43.7374,259.915 44.0183,260.127 44.3082,260.356 44.6002,260.588 44.8946,260.823 45.1838,261.076 45.4753,261.306 45.769,261.541 46.0649,261.78 46.411,262.107 46.7099,262.345 47.0108,262.587 47.308,262.826 47.6072,263.068 47.9088,263.312 48.2213,263.561 48.5356,263.813 48.8514,264.065 49.1574,264.314 49.4646,264.563 49.7729,264.813 50.082,265.063 50.3895,265.301 50.6974,265.538 51.0056,265.776 51.3165,266.021 51.6304,266.267 51.9445,266.513 52.2533,266.756 52.5626,267 52.8679,267.233 53.1879,267.488 53.5105,267.744 53.836,268 54.1656,268.266 54.494,268.531 54.8196,268.793 55.1427,269.052 55.4686,269.316 55.794,269.58 56.1196,269.845 56.435,270.085 56.7675,270.347 57.1012,270.609 57.4345,270.868 57.7693,271.127 58.0961,271.38 58.4294,271.633 58.7644,271.885 59.1828,272.248 59.5045,272.476 59.8218,272.699 60.1853,272.989 60.5128,273.221 60.849,273.462 61.1693,273.683 61.492,273.906 61.8153,274.129 62.1391,274.351 62.4701,274.572 62.8014,274.793 63.133,275.013 63.4546,275.23 63.7765,275.446 64.0987,275.663 64.4364,275.9 64.7752,276.134 65.1139,276.369 65.4394,276.592 65.7645,276.817 66.0891,277.041 66.4276,277.282 66.7654,277.524 67.1023,277.764 67.4279,277.999 67.749,278.227 68.0694,278.453 68.4112,278.7 68.7522,278.944 69.1466,279.283 69.4658,279.506 69.7844,279.729 70.1026,279.952 70.4403,280.199 70.7775,280.448 71.1144,280.698 71.4352,280.931 71.7539,281.161 72.0728,281.391 72.4054,281.633 72.7384,281.875 73.1096,282.183 73.441,282.42 73.773,282.657 74.1055,282.893 74.4347,283.123 74.7643,283.354 75.0945,283.585 75.4276,283.82 75.7614,284.053 76.1762,284.394 76.5044,284.616 76.8332,284.838 77.1628,285.061 77.4986,285.291 77.835,285.523 78.1682,285.753 78.5018,285.983 78.8406,286.218 79.1774,286.448 79.5142,286.678 79.8508,286.91 80.1894,287.141 80.5277,287.373 80.8655,287.606 81.2012,287.846 81.5361,288.086 81.8649,288.316 82.2017,288.552 82.5376,288.786 82.8726,289.017 83.2009,289.241 83.5283,289.462 83.8546,289.682 84.1895,289.91 84.5182,290.135 84.8457,290.36 85.1772,290.587 85.5064,290.81 85.8304,291.027 86.1673,291.282 86.4885,291.499 86.8128,291.721 87.2168,292.062 87.5597,292.308 87.9018,292.556 88.2275,292.791 88.5531,293.027 88.879,293.262 89.2249,293.515 89.5715,293.766 89.9188,294.016 90.2445,294.239 90.5707,294.462 90.8975,294.685 91.2977,294.993 91.6357,295.228 91.9741,295.466 92.2906,295.677 92.6077,295.889 92.9254,296.102 93.2618,296.322 93.5987,296.542 93.9362,296.763 94.2557,296.977 94.5729,297.188 94.8905,297.399 95.2269,297.634 95.5641,297.868 95.9764,298.191 96.2945,298.399 96.6131,298.607 96.9321,298.816 97.3456,299.149 97.681,299.378 98.017,299.609 98.3305,299.817 98.6445,300.025 98.9611,300.236 99.2973,300.459 99.6339,300.682 99.9709,300.907 100.284,301.113 100.598,301.319 100.912,301.527 101.238,301.743 101.564,301.959 101.948,302.252 102.265,302.456 102.583,302.659 102.9,302.861 103.235,303.089 103.565,303.313 103.895,303.537 104.215,303.755 104.535,303.972 104.888,304.237 105.219,304.463 105.55,304.687 105.88,304.912 106.201,305.133 106.521,305.355 106.84,305.577 107.176,305.818 107.512,306.058 107.899,306.388 108.218,306.611 108.536,306.834 108.854,307.058 109.198,307.315 109.542,307.574 109.885,307.834 110.208,308.078 110.528,308.314 110.848,308.55 111.191,308.812 111.533,309.073 111.932,309.44 112.255,309.69 112.579,309.938 112.892,310.167 113.225,310.43 113.557,310.694 113.888,310.958 114.204,311.199 114.519,311.439 114.834,311.679 115.148,311.918 115.465,312.163 115.782,312.408 116.097,312.653 116.413,312.899 116.725,313.141 117.036,313.382 117.346,313.624 117.654,313.865 117.961,314.105 118.277,314.366 118.593,314.625 118.908,314.882 119.218,315.129 119.529,315.377 119.84,315.626 120.15,315.874 120.473,316.133 120.792,316.389 121.106,316.641 121.408,316.872 121.708,317.102 122.004,317.328 122.318,317.572 122.629,317.812 122.94,318.048 123.243,318.27 123.545,318.489 123.845,318.706 124.187,318.997 124.504,319.234 124.817,319.472 125.128,319.71 125.46,319.961 125.777,320.204 126.093,320.446 126.412,320.688 126.729,320.927 127.077,321.222 127.42,321.449 127.761,321.675 128.1,321.9 128.446,322.147 128.791,322.392 129.135,322.637 129.475,322.853 129.813,323.068 130.156,323.281 130.5,323.5 " fill="none" stroke-width="1" stroke="rgb(0,0,255)" />
	<polyline points="130.5,323.5 130.736,323.688 130.972,323.876 131.206,324.058 131.442,324.241 131.677,324.423 131.913,324.606 132.151,324.799 132.388,324.991 132.624,325.2 132.86,325.408 133.096,325.617 133.334,325.813 133.572,326.009 133.806,326.202 134.04,326.396 134.273,326.605 134.507,326.814 134.742,327.022 134.976,327.222 135.197,327.406 135.419,327.589 135.642,327.771 135.866,327.953 136.089,328.13 136.31,328.308 136.533,328.485 136.757,328.661 136.981,328.836 137.196,328.991 137.413,329.156 137.63,329.32 137.848,329.484 138.066,329.647 138.291,329.825 138.516,330.003 138.736,330.164 138.956,330.326 139.174,330.483 139.393,330.64 139.613,330.796 139.832,330.952 140.051,331.109 140.282,331.277 140.513,331.445 140.745,331.612 140.977,331.778 141.205,331.937 141.448,332.102 141.691,332.267 141.934,332.433 142.197,332.612 142.46,332.792 142.723,332.971 142.976,333.16 143.238,333.33 143.5,333.5 " fill="none" stroke-width="1" stroke="rgb(0,0,255)" />
</g></svg>
