<?xml version="1.0" ?>
<svg xmlns="http://www.w3.org/2000/svg" xmlns:ev="http://www.w3.org/2001/xml-events" xmlns:xlink="http://www.w3.org/1999/xlink" baseProfile="full" height="600px" version="1.1" viewBox="6.188592999999997 0.007192999999993788 313.622814 507.799614" width="371px">
	<defs/>
	<path d="M 292.5,269.5 L 292.833,279.781 L 292.85,286.717 L 292.053,301.853 L 291.068,326.193 L 291.067,329.767 L 290.096,356.945 L 289.728,377.032 L 289.341,386.199 L 288.859,391.151 L 287.823,397.14 L 286.685,399.971 L 284.613,403.078 L 281.773,406.126 L 278.303,409.037 L 271.887,413.692 L 266.192,417.044 L 260.755,419.669 L 249.182,424.685 L 241.131,428.902 L 237.138,430.766 L 216.054,440.01 L 206.874,444.573 L 202.954,446.359 L 175.85,457.751 L 163.939,461.768 L 158.021,463.369 L 152.793,464.476 L 148.808,465.022 L 142.199,465.314" fill="none" stroke="rgb(31,119,180)" stroke-width="3"/>
	<path d="M 130.5,458.5 L 123.106,451.517 L 119.587,448.793 L 114.158,443.786 L 110.447,439.965 L 98.1458,427.937 L 88.0907,418.515 L 82.9512,414.177 L 78.9781,410.452 L 73.8686,406.242 L 70.8987,403.534 L 68.0769,401.297 L 65.2171,398.469 L 62.097,395.785 L 43.9025,377.836 L 39.7814,374.223 L 38.8248,372.937 L 38.2415,371.757 L 37.5505,370.093 L 36.2219,365.966 L 35.8489,364.062 L 35.6393,361.234 L 35.5471,344.938 L 35.9099,315.423 L 35.0028,285.341 L 35.0026,262.955 L 34.5,253.5" fill="none" stroke="rgb(174,199,232)" stroke-width="3"/>
	<path d="M 130.5,213.5 L 132.727,210.129 L 139.463,201.033 L 150.724,186.2 L 157.816,177.16 L 178.982,151.991 L 198.385,130.082 L 210.084,114.059 L 217.5,103.5" fill="none" stroke="rgb(255,127,14)" stroke-width="3"/>
	<path d="M 32.5,148.5 L 39.3468,140.001 L 49.0889,127.063 L 60.1661,111.878 L 64.0411,106.956 L 71.7001,97.8639 L 76.0494,92.3122 L 81.2673,85.0077 L 89.8635,72.1427 L 102.255,56.1139 L 104.539,52.9507 L 111.5,42.5" fill="none" stroke="rgb(255,187,120)" stroke-width="3"/>
	<path d="M 130.5,458.5 L 129.219,453.681 L 129.882,446.543 L 129.992,428.928 L 129.361,392.442 L 128.835,373.045 L 128.798,353.16 L 128.913,343.815 L 130.118,326.364 L 130.5,323.5" fill="none" stroke="rgb(44,160,44)" stroke-width="3"/>
	<path d="M 111.5,42.5 L 113.39,46.2379 L 115.342,48.0436 L 119.885,51.2418 L 129.038,56.7484 L 150.802,68.9179 L 173.988,80.7833 L 196.891,92.0359 L 205.139,96.4633 L 217.5,103.5" fill="none" stroke="rgb(152,223,138)" stroke-width="3"/>
	<path d="M 34.5,253.5 L 38.4696,255.895 L 41.1271,257.855 L 60.1853,272.989 L 91.9741,295.466 L 107.512,306.058 L 127.077,321.222 L 130.5,323.5" fill="none" stroke="rgb(214,39,40)" stroke-width="3"/>
	<path d="M 32.5,148.5 L 42.3025,155.953 L 52.7532,163.08 L 63.7481,170.881 L 73.0722,176.61 L 80.1491,181.244 L 109.148,199.418 L 124.772,210.041 L 130.5,213.5" fill="none" stroke="rgb(255,152,150)" stroke-width="3"/>
	<path d="M 268.184,259.261 L 279.273,248.763 L 285.907,241.497 L 289.347,236.122 L 290.237,234.06 L 290.91,231.817 L 291.511,229.308 L 292.087,225.395 L 292.545,214.378 L 292.827,203.836 L 292.996,174.86 L 293.5,165.5" fill="none" stroke="rgb(148,103,189)" stroke-width="3"/>
	<path d="M 217.5,103.5 L 227.17,112.062 L 244.013,126.041 L 253.369,133.441 L 260.507,139.376 L 287.021,160.054 L 293.5,165.5" fill="none" stroke="rgb(197,176,213)" stroke-width="3"/>
	<path d="M 128.5,273.5 L 129.258,267.647 L 129.445,264.403 L 130.085,220.543 L 130.5,213.5" fill="none" stroke="rgb(140,86,75)" stroke-width="3"/>
	<path d="M 33.5,207.5 L 33.1923,205.402 L 33.0721,202.491 L 33.075,183.627 L 32.8283,173.565 L 32.8428,152.934 L 32.5,148.5" fill="none" stroke="rgb(196,156,148)" stroke-width="3"/>
	<path d="M 130.5,323.5 L 132.336,318.404 L 134.315,314.021 L 136.081,310.91 L 138.744,307.113 L 141.497,303.936 L 143.459,301.949 L 153.826,292.035" fill="none" stroke="rgb(227,119,194)" stroke-width="3"/>
	<path d="M 69.7359,237.263 L 70.8879,236.873 L 72.5205,237.021 L 75.041,238.085 L 82.1802,241.989 L 88.3405,245.92 L 94.1084,250.026 L 99.1622,254.08 L 100.857,256.011 L 101.194,256.782 L 101.106,257.947" fill="none" stroke="rgb(247,182,210)" stroke-width="3"/>
	<path d="M 101.106,257.947 L 98.4564,257.832 L 96.8859,257.231 L 89.9104,253.402 L 84.6575,250.062 L 77.0641,244.663 L 71.4113,240.144 L 70.7439,239.382 L 70.4496,238.407 L 69.7359,237.263" fill="none" stroke="rgb(127,127,127)" stroke-width="3"/>
	<path d="M 153.826,292.035 L 152.27,290.93 L 150.649,290.151 L 146.818,288.894 L 142.233,286.949 L 139.051,285.213 L 136.572,283.553 L 133.354,280.903 L 131.309,278.717 L 129.879,276.589 L 128.5,273.5" fill="none" stroke="rgb(199,199,199)" stroke-width="3"/>
	<path d="M 34.5,253.5 L 35.4068,250.032 L 37.0629,245.825 L 38.0273,243.927 L 40.0735,240.575 L 42.5896,237.221 L 45.8913,233.861 L 50.9139,229.259 L 52.5,227.5" fill="none" stroke="rgb(188,189,34)" stroke-width="3"/>
	<path d="M 52.5,227.5 L 48.0276,222.556 L 39.1341,213.964 L 33.5,207.5" fill="none" stroke="rgb(219,219,141)" stroke-width="3"/>
	<path d="M 268.184,259.261 L 271.792,260.293 L 281.636,263.998 L 286.44,266.234 L 292.5,269.5" fill="none" stroke="rgb(23,190,207)" stroke-width="3"/>
	<path d="M 174.5,287.5 L 161.357,289.966 L 156.164,291.266 L 153.826,292.035" fill="none" stroke="rgb(158,218,229)" stroke-width="3"/>
	<path d="M 69.7359,237.263 L 61.7988,232.177 L 57.5607,229.931 L 52.5,227.5" fill="none" stroke="rgb(31,119,180)" stroke-width="3"/>
	<path d="M 128.5,273.5 L 126.097,272.706 L 120.236,270.28 L 116.931,268.654 L 110.841,265.245" fill="none" stroke="rgb(174,199,232)" stroke-width="3"/>
	<path d="M 251.5,264.5 L 253.81,263.89 L 268.184,259.261" fill="none" stroke="rgb(255,127,14)" stroke-width="3"/>
	<path d="M 130.5,323.5 L 136.981,328.836 L 143.5,333.5" fill="none" stroke="rgb(255,187,120)" stroke-width="3"/>
	<path d="M 142.199,465.314 L 136.164,462.198 L 130.5,458.5" fill="none" stroke="rgb(44,160,44)" stroke-width="3"/>
	<path d="M 110.841,265.245 L 103.95,260.203 L 101.106,257.947" fill="none" stroke="rgb(152,223,138)" stroke-width="3"/>
</svg>
