<?xml version="1.0" encoding="UTF-8" standalone="no"?>
<svg
   height="600px"
   version="1.1"
   viewBox="8.142320299999994 -16.470589700000005 519.8640594 531.4417794"
   width="587px"
   id="svg40"
   sodipodi:docname="3dsketching_camera2_clean.svg"
   inkscape:version="1.3.2 (091e20e, 2023-11-25)"
   xmlns:inkscape="http://www.inkscape.org/namespaces/inkscape"
   xmlns:sodipodi="http://sodipodi.sourceforge.net/DTD/sodipodi-0.dtd"
   xmlns="http://www.w3.org/2000/svg"
   xmlns:svg="http://www.w3.org/2000/svg">
  <sodipodi:namedview
     id="namedview40"
     pagecolor="#ffffff"
     bordercolor="#666666"
     borderopacity="1.0"
     inkscape:showpageshadow="2"
     inkscape:pageopacity="0.0"
     inkscape:pagecheckerboard="0"
     inkscape:deskcolor="#d1d1d1"
     inkscape:zoom="1.1346013"
     inkscape:cx="265.29142"
     inkscape:cy="165.69697"
     inkscape:window-width="1280"
     inkscape:window-height="747"
     inkscape:window-x="0"
     inkscape:window-y="25"
     inkscape:window-maximized="0"
     inkscape:current-layer="svg40" />
  <defs
     id="defs1" />
  <path
     d="M 484.5,180.5 L 482.355,188.374 L 482.177,195.27 L 481.618,203.135 L 480.951,208.186 L 479.009,218.165 L 475.955,230.851 L 473.734,237.958 L 471.044,247.882 L 470.025,250.862 L 468.083,257.881 L 466.426,265.897 L 465.16,270.85 L 462.34,280.073 L 459.928,286.563 L 457.231,294.96 L 453.675,309.866 L 452.628,315.872 L 451.802,327.042 L 451.083,334.235 L 450.0,341.178 L 447.977,349.543 L 443.622,363.804 L 442.022,369.548 L 441.115,374.185 L 436.831,395.254"
     fill="none"
     stroke="rgb(31,119,180)"
     stroke-width="3"
     id="path1" />
  <path
     d="M 337.5,452.5 L 336.938,445.46 L 337.708,434.945 L 339.133,423.133 L 339.994,417.491 L 341.088,413.197 L 342.577,405.222 L 345.65,386.906 L 346.785,378.084 L 347.82,372.041 L 350.449,352.197 L 352.469,340.344 L 354.324,326.161 L 355.351,316.099 L 357.339,302.951 L 357.67,299.202 L 358.066,285.728 L 358.417,280.919 L 360.961,255.058 L 363.5,246.5"
     fill="none"
     stroke="rgb(174,199,232)"
     stroke-width="3"
     id="path2" />
  <path
     d="M 131.5,382.5 L 126.419,381.41 L 121.117,380.763 L 117.967,380.216 L 115.077,379.432 L 107.767,376.966 L 103.133,375.18 L 98.8783,373.121 L 95.4685,370.935 L 92.8446,368.967 L 89.3902,366.117 L 84.899,361.923 L 77.8958,354.483 L 74.938,351.115 L 71.8519,347.048 L 68.216,341.388 L 64.1821,334.296 L 61.9617,330.023 L 59.4768,324.182 L 53.6077,304.094 L 52.4529,297.006 L 51.943,292.468 L 51.6487,286.966 L 51.7455,281.047 L 52.1531,277.982 L 52.8994,274.836 L 54.3459,270.965 L 55.6831,268.08 L 57.5125,265.414 L 61.0596,260.799 L 66.5,254.5"
     fill="none"
     stroke="rgb(255,127,14)"
     stroke-width="3"
     id="path3" />
  <path
     d="M 98.5,238.5 L 97.7582,233.945 L 97.582,231.383 L 97.3578,217.958 L 96.676,207.153 L 96.5141,195.231 L 95.8301,181.747 L 95.9107,177.686 L 96.6556,167.284 L 96.6693,152.137 L 95.7576,138.689 L 95.5636,121.996 L 95.3648,116.761 L 94.6456,107.781 L 94.4256,93.6774 L 93.1404,79.3908 L 93.0893,75.0298 L 93.3627,72.0013 L 92.5,64.5"
     fill="none"
     stroke="rgb(255,187,120)"
     stroke-width="3"
     id="path4" />
  <path
     d="M 92.5,64.5 L 109.177,57.9538 L 119.996,53.9374 L 124.841,52.4294 L 133.883,50.0692 L 140.748,46.9878 L 150.501,42.9919 L 155.542,41.2719 L 163.336,38.9766 L 176.96,33.9387 L 181.908,32.3392 L 193.712,29.0273 L 196.663,28.3955 L 200.064,28.0006 L 202.828,28.1168 L 205.459,28.8484 L 207.601,29.8665 L 220.837,38.0551 L 228.602,43.0905 L 241.246,49.9428 L 248.183,54.2544"
     fill="none"
     stroke="rgb(44,160,44)"
     stroke-width="3"
     id="path5" />
  <path
     d="M 204.5,345.5 L 208.076,347.908 L 215.29,352.233 L 224.015,357.915 L 226.059,359.406 L 232.089,364.587 L 239.958,370.97 L 248.849,378.8 L 253.306,383.003 L 259.932,389.758 L 262.63,392.157 L 280.116,405.925 L 287.105,410.935 L 296.069,417.898 L 303.973,423.736 L 310.314,428.885 L 320.822,438.188 L 323.007,439.9 L 328.035,443.288 L 331.788,446.034 L 337.5,452.5"
     fill="none"
     stroke="rgb(152,223,138)"
     stroke-width="3"
     id="path6" />
  <path
     d="M 241.5,142.5 L 246.16,141.025 L 263.973,134.055 L 278.606,128.028 L 286.671,124.938 L 293.445,122.023 L 309.931,115.847 L 323.049,110.113 L 328.333,107.983 L 334.125,106.18 L 342.081,104.001 L 347.307,102.073 L 350.006,100.847 L 359.172,96.0359 L 371.066,90.6873 L 378.874,86.6486 L 385.581,83.5238"
     fill="none"
     stroke="rgb(214,39,40)"
     stroke-width="3"
     id="path7" />
  <path
     d="M 268.5,185.5 L 273.88,180.988 L 286.621,171.989 L 296.86,165.99 L 307.924,159.978 L 311.051,158.453 L 324.322,152.421 L 335.337,148.402 L 341.926,145.697 L 355.66,139.058 L 377.858,129.397 L 381.84,128.007 L 384.854,127.371 L 387.555,127.214 L 392.5,127.5"
     fill="none"
     stroke="rgb(255,152,150)"
     stroke-width="3"
     id="path8" />
  <path
     d="M 363.5,246.5 L 369.341,243.001 L 377.969,237.39 L 381.931,235.048 L 389.489,231.073 L 400.752,225.984 L 406.034,222.977 L 414.98,217.509 L 429.183,210.013 L 436.037,206.762 L 439.065,205.152 L 458.019,193.926 L 466.573,189.545 L 469.992,188.009 L 474.099,186.433 L 479.041,184.857 L 484.5,180.5"
     fill="none"
     stroke="rgb(148,103,189)"
     stroke-width="3"
     id="path9" />
  <path
     d="M 101.5,264.5 L 105.14,266.268 L 109.141,268.551 L 112.66,270.953 L 115.95,273.881 L 120.877,279.457 L 126.664,286.873 L 130.986,293.439 L 134.973,300.791 L 138.065,307.263 L 139.959,311.646 L 142.015,317.131 L 143.017,320.442 L 146.028,332.11 L 147.465,337.064 L 148.259,340.856 L 148.675,344.827 L 149.054,356.98 L 148.935,364.899 L 149.396,368.617"
     fill="none"
     stroke="rgb(197,176,213)"
     stroke-width="3"
     id="path10" />
  <path
     d="M 268.5,185.5 L 293.888,201.751 L 308.316,212.047 L 329.042,226.077 L 351.987,241.966 L 357.871,246.323 L 360.112,248.6 L 363.5,246.5"
     fill="none"
     stroke="rgb(140,86,75)"
     stroke-width="3"
     id="path11" />
  <path
     d="M 337.5,452.5 L 347.105,451.202 L 352.164,447.962 L 361.118,441.27 L 371.154,434.433 L 384.017,425.071 L 387.949,422.325 L 394.92,417.794 L 407.084,409.387 L 414.826,405.225 L 420.153,401.989 L 425.178,399.164 L 433.717,394.571 L 434.582,394.532 L 436.831,395.254"
     fill="none"
     stroke="rgb(196,156,148)"
     stroke-width="3"
     id="path12" />
  <path
     d="M 151.5,92.5 L 161.956,89.0826 L 167.0,87.7163 L 175.718,85.0154 L 183.304,82.9469 L 189.163,81.0555 L 207.705,74.0145 L 223.967,67.0233 L 234.119,62.9264 L 241.662,60.0724 L 248.183,54.2544"
     fill="none"
     stroke="rgb(227,119,194)"
     stroke-width="3"
     id="path13" />
  <path
     d="M 392.5,127.5 L 400.108,132.108 L 407.163,136.121 L 414.114,139.308 L 418.094,141.032 L 423.125,142.928 L 427.601,145.009 L 445.077,155.039 L 454.113,159.697 L 462.914,165.315 L 470.386,170.807 L 476.975,174.994 L 484.5,180.5"
     fill="none"
     stroke="rgb(247,182,210)"
     stroke-width="3"
     id="path14" />
  <path
     d="M 151.5,92.5 L 155.914,100.11 L 156.874,100.557 L 168.764,110.954 L 175.921,116.245 L 181.89,120.209 L 186.653,123.056 L 194.045,127.06 L 202.883,131.403 L 205.27,132.741 L 217.323,139.94 L 230.869,148.978 L 234.5,150.5"
     fill="none"
     stroke="rgb(127,127,127)"
     stroke-width="3"
     id="path15" />
  <path
     d="M 234.5,150.5 L 235.026,154.832 L 234.918,161.786 L 235.163,170.175 L 234.751,178.233 L 234.529,196.628 L 233.87,203.859 L 233.691,208.664 L 232.749,215.654 L 231.663,225.665 L 231.108,237.243 L 230.585,242.823"
     fill="none"
     stroke="rgb(199,199,199)"
     stroke-width="3"
     id="path16" />
  <path
     d="M 260.866,310.294 L 263.99,303.406 L 268.368,291.918 L 272.222,279.439 L 272.991,276.082 L 273.204,273.655 L 273.189,271.533 L 272.948,269.031 L 271.38,260.638 L 268.973,252.015 L 266.579,246.149 L 264.796,240.705 L 263.906,236.419 L 263.5,231.5"
     fill="none"
     stroke="rgb(188,189,34)"
     stroke-width="3"
     id="path17" />
  <path
     d="M 98.5,238.5 L 102.983,236.861 L 117.996,230.754 L 124.153,227.885 L 133.934,222.834 L 144.553,216.759 L 153.308,212.0 L 160.891,207.526 L 165.874,204.244 L 169.5,201.5"
     fill="none"
     stroke="rgb(219,219,141)"
     stroke-width="3"
     id="path18" />
  <path
     d="M 314.5,47.5 L 319.574,49.0151 L 323.543,50.4607 L 338.927,56.4628 L 342.371,57.9668 L 355.876,64.5592 L 367.501,70.8797 L 374.947,75.2329 L 383.407,81.0095 L 385.581,83.5238"
     fill="none"
     stroke="rgb(23,190,207)"
     stroke-width="3"
     id="path19" />
  <path
     d="M 152.5,109.5 L 152.782,122.231 L 153.061,127.899 L 153.055,134.909 L 152.314,145.249 L 151.928,156.046 L 151.285,161.726 L 151.296,167.255 L 151.016,173.164 L 150.917,183.71"
     fill="none"
     stroke="rgb(158,218,229)"
     stroke-width="3"
     id="path20" />
  <path
     d="M 169.5,201.5 L 176.436,206.247 L 183.984,210.315 L 188.949,213.369 L 194.102,217.027 L 199.997,221.57 L 212.131,230.501 L 220.123,235.764 L 227.991,241.38 L 230.585,242.823"
     fill="none"
     stroke="rgb(31,119,180)"
     stroke-width="3"
     id="path21" />
  <path
     d="M 92.5,64.5 L 95.5847,67.9979 L 109.963,80.4335 L 113.473,83.0959 L 122.177,89.1356 L 131.001,95.8194 L 138.075,100.676 L 147.033,106.059 L 150.228,108.314 L 152.5,109.5"
     fill="none"
     stroke="rgb(174,199,232)"
     stroke-width="3"
     id="path22" />
  <path
     d="M 204.5,345.5 L 217.064,337.998 L 228.084,332.536 L 234.252,328.972 L 240.03,324.917 L 254.81,313.673 L 258.462,311.436 L 260.866,310.294"
     fill="none"
     stroke="rgb(255,127,14)"
     stroke-width="3"
     id="path23" />
  <path
     d="M 248.183,54.2544 L 260.115,52.5142 L 263.907,50.821 L 268.32,49.0227 L 277.971,45.4464 L 285.252,42.9552 L 289.396,41.7262 L 293.451,40.6996 L 296.112,40.2382 L 298.943,40.1026 L 300.902,40.2374 L 303.137,40.7773 L 306.877,42.1977 L 310.528,43.923 L 314.5,47.5"
     fill="none"
     stroke="rgb(255,187,120)"
     stroke-width="3"
     id="path24" />
  <path
     d="M 149.396,368.617 L 153.513,368.05 L 156.046,367.488 L 161.974,365.44 L 166.13,363.545 L 184.067,354.022 L 204.5,345.5"
     fill="none"
     stroke="rgb(44,160,44)"
     stroke-width="3"
     id="path25" />
  <path
     d="M 263.5,231.5 L 263.923,224.887 L 266.357,208.303 L 267.047,196.966 L 268.5,185.5"
     fill="none"
     stroke="rgb(152,223,138)"
     stroke-width="3"
     id="path26" />
  <path
     d="M 385.581,83.5238 L 394.03,96.1575 L 392.997,103.566 L 392.734,106.79 L 392.5,127.5"
     fill="none"
     stroke="rgb(214,39,40)"
     stroke-width="3"
     id="path27" />
  <path
     d="M 230.585,242.823 L 235.709,244.114 L 263.5,231.5"
     fill="none"
     stroke="rgb(255,152,150)"
     stroke-width="3"
     id="path28" />
  <path
     d="M 131.5,382.5 L 143.459,373.087 L 149.396,368.617"
     fill="none"
     stroke="rgb(148,103,189)"
     stroke-width="3"
     id="path29" />
  <path
     d="M 86.9342,248.43 L 89.2634,250.749 L 94.4465,254.81 L 96.8989,257.09 L 99.5963,260.622 L 101.5,264.5"
     fill="none"
     stroke="rgb(197,176,213)"
     stroke-width="3"
     id="path30" />
  <path
     d="M 66.5,254.5 L 78.8247,250.532 L 86.9342,248.43"
     fill="none"
     stroke="rgb(140,86,75)"
     stroke-width="3"
     id="path31" />
  <path
     d="M 169.5,201.5 L 163.79,196.976 L 150.917,183.71"
     fill="none"
     stroke="rgb(196,156,148)"
     stroke-width="3"
     id="path32" />
  <path
     d="M 86.9342,248.43 L 87.2076,247.876 L 88.2221,246.844 L 88.3395,246.262 L 88.7483,245.906 L 91.6894,243.544 L 98.5,238.5"
     fill="none"
     stroke="rgb(127,127,127)"
     stroke-width="3"
     id="path35" />
  <path
     d="M 264.5,324.5 L 263.318,314.325 L 262.882,314.078 L 262.623,312.744 L 262.004,311.466 L 260.866,310.294"
     fill="none"
     stroke="rgb(199,199,199)"
     stroke-width="3"
     id="path36" />
  <path
     d="M 392.5,127.5 L 389.5,138.5"
     fill="none"
     stroke="rgb(188,189,34)"
     stroke-width="3"
     id="path37" />
  <path
     d="M 152.5,109.5 L 152.753,105.916 L 151.5,92.5"
     fill="none"
     stroke="rgb(219,219,141)"
     stroke-width="3"
     id="path38" />
</svg>
