<?xml version="1.0" standalone="no" ?>
<!DOCTYPE svg PUBLIC "-//W3C//DTD SVG 1.1//EN" "http://www.w3.org/Graphics/SVG/1.1/DTD/svg11.dtd">
<svg width="512px" height="512px" xmlns="http://www.w3.org/2000/svg" xmlns:xlink="http://www.w3.org/1999/xlink" version="1.1" >

<g>	<image style="overflow: visible; opacity: 0.4" width="512" height="512" xlink:href="chair30_512_erode.png" />

</g>
<g>	<polyline points="146.5,54.5 147.235,54.4627 147.967,54.4332 148.662,54.3802 149.391,54.3583 150.12,54.3368 150.841,54.3083 151.582,54.2975 152.324,54.2865 153.042,54.2706 153.765,54.241 154.444,54.2184 155.125,54.1961 155.885,54.215 156.603,54.2385 157.321,54.2624 158.079,54.2922 158.814,54.3198 159.564,54.357 160.314,54.3944 161.055,54.439 161.78,54.4896 162.504,54.5487 163.229,54.608 163.932,54.6697 164.627,54.7429 165.324,54.8162 166.03,54.8804 166.723,54.9509 167.433,55.0155 168.15,55.0774 168.871,55.1343 169.619,55.1841 170.368,55.2339 171.086,55.2946 171.824,55.3481 172.518,55.4193 173.212,55.4893 173.95,55.5399 174.665,55.5988 175.395,55.6501 176.126,55.7012 176.838,55.7608 177.558,55.8151 178.282,55.8693 179.003,55.9252 179.72,55.982 180.418,56.0482 181.121,56.1147 181.815,56.1845 182.515,56.2538 183.22,56.3236 183.922,56.3956 184.622,56.4677 185.329,56.5386 186.05,56.6075 186.757,56.6789 187.483,56.747 188.213,56.8155 188.929,56.8871 189.647,56.9637 190.328,57.0592 191.031,57.1369 191.727,57.2296 192.39,57.3228 193.052,57.4165 193.741,57.5138 194.406,57.6029 195.069,57.692 195.771,57.7822 196.428,57.8705 197.083,57.9583 197.82,58.0337 198.516,58.1096 199.21,58.185 199.949,58.2573 200.618,58.3394 201.286,58.4213 202.014,58.4965 202.692,58.5763 203.424,58.6515 204.155,58.7269 204.826,58.8096 205.555,58.8883 206.282,58.9675 206.949,59.052 207.722,59.1096 208.443,59.1761 209.163,59.2426 209.954,59.2973 210.681,59.3643 211.44,59.4313 212.201,59.4983 212.896,59.5762 213.607,59.6558 214.319,59.7354 215.009,59.8145 215.723,59.8915 216.408,59.9725 217.084,60.0563 217.766,60.1396 218.443,60.2239 219.119,60.3076 219.795,60.3907 220.473,60.4746 221.148,60.5575 221.812,60.6403 222.505,60.7138 223.193,60.7861 223.882,60.8545 224.585,60.9174 225.283,60.979 225.994,61.0345 226.711,61.0868 227.427,61.1367 228.14,61.1856 228.886,61.2208 229.623,61.2553 230.357,61.289 231.108,61.3116 231.849,61.3385 232.593,61.3559 233.337,61.3729 234.052,61.411 234.771,61.4458 235.483,61.4851 236.194,61.5243 236.908,61.5611 237.627,61.5945 238.345,61.6279 239.071,61.6568 239.802,61.6815 240.535,61.7064 241.271,61.7319 242,61.7652 242.731,61.7995 243.448,61.8433 244.168,61.8878 244.903,61.9244 245.624,61.9696 246.344,62.0151 247.06,62.0589 247.753,62.1129 248.449,62.1584 249.14,62.2037 249.811,62.2603 250.48,62.3011 251.146,62.3419 251.79,62.4054 252.437,62.4664 253.083,62.5277 253.719,62.5969 254.378,62.6587 255.039,62.7212 255.695,62.7892 256.392,62.8433 257.092,62.898 257.806,62.9473 258.561,62.979 259.315,63.0108 260.066,63.0398 260.835,63.0611 261.583,63.0921 262.328,63.1233 263.08,63.1507 263.803,63.1926 264.528,63.2315 265.253,63.2706 265.974,63.3123 266.692,63.3536 267.414,63.3957 268.137,63.4384 268.85,63.4861 269.593,63.5205 270.341,63.5556 271.08,63.5974 271.853,63.6236 272.593,63.6704 273.339,63.7181 274.12,63.7545 274.85,63.8137 275.608,63.8679 276.373,63.9232 277.101,63.9896 277.772,64.0766 278.418,64.1651 279.067,64.2541 279.731,64.3506 280.371,64.4432 281.01,64.5362 281.691,64.6287 282.347,64.7198 283.003,64.8114 283.72,64.8922 284.431,64.9682 285.121,65.0508 285.866,65.1212 286.581,65.1953 287.292,65.2698 288.048,65.3331 288.757,65.4089 289.517,65.47 290.274,65.5314 290.955,65.6194 291.678,65.6948 292.356,65.7862 293.033,65.878 293.752,65.9564 294.456,66.0388 295.169,66.1153 295.886,66.1975 296.594,66.2771 297.299,66.3572 297.982,66.4548 298.666,66.5433 299.356,66.6405 300.045,66.7377 300.718,66.8302 301.431,66.9209 302.142,67.0114 302.81,67.1054 303.517,67.1993 304.222,67.2932 304.861,67.3985 305.555,67.5072 306.247,67.6158 306.862,67.74 307.617,67.8396 308.374,67.938 309.004,68.062 309.846,68.14 310.573,68.2224 311.298,68.3047 311.85,68.4129 312.5,68.5 " fill="none" stroke-width="1" stroke="rgb(0,0,255)" />
	<polyline points="312.5,68.5 313.153,68.5782 313.836,68.6731 314.438,68.7832 315.039,68.8934 315.819,68.9975 316.563,69.066 317.306,69.1354 318.061,69.2152 318.839,69.2945 319.606,69.3811 320.373,69.4677 321.171,69.5426 321.962,69.6395 322.763,69.7116 323.584,69.802 324.405,69.8911 324.978,69.9078 325.633,69.9596 326.358,70.1442 327.057,70.2213 327.875,70.3144 328.681,70.4058 329.5,70.5 " fill="none" stroke-width="1" stroke="rgb(0,0,255)" />
	<polyline points="329.5,70.5 329.821,70.4754 330.143,70.4508 330.472,70.4278 330.8,70.4049 331.129,70.382 331.452,70.357 331.776,70.332 332.099,70.3071 332.44,70.287 332.782,70.2668 333.123,70.2464 333.442,70.2183 333.761,70.1908 334.08,70.1639 334.386,70.1375 334.691,70.1106 334.997,70.0833 " fill="none" stroke-width="1" stroke="rgb(0,0,255)" />
	<polyline points="153.5,215.5 153.377,214.721 153.372,213.891 153.291,212.987 153.242,212.036 153.167,211.073 153.1,210.052 153.022,209.006 152.998,207.801 152.96,206.6 152.902,205.35 152.832,204.255 152.736,203.16 152.643,202.175 152.539,201.185 152.439,200.252 152.339,199.284 152.235,198.379 152.131,197.487 152.028,196.601 151.925,195.715 151.822,194.83 151.727,193.894 151.64,192.922 151.557,191.93 151.479,190.926 151.405,189.91 151.336,188.872 151.276,187.789 151.217,186.687 151.148,185.689 151.076,184.687 151.007,183.668 150.943,182.587 150.876,181.522 150.799,180.544 150.717,179.561 150.639,178.573 150.555,177.577 150.471,176.606 150.391,175.55 150.302,174.613 150.212,173.61 150.122,172.682 150.046,171.609 149.975,170.565 149.885,169.541 149.79,168.599 149.69,167.625 149.588,166.728 149.491,165.769 149.402,164.833 149.34,163.789 149.277,162.793 149.226,161.731 149.167,160.734 149.114,159.687 149.053,158.709 148.993,157.692 148.927,156.747 148.879,155.711 148.828,154.734 148.789,153.684 148.738,152.712 148.697,151.663 148.653,150.673 148.62,149.604 148.58,148.608 148.554,147.522 148.514,146.513 148.477,145.481 148.474,144.411 148.443,143.449 148.452,142.434 148.415,141.483 148.378,140.531 148.377,139.539 148.329,138.578 148.303,137.562 148.259,136.6 148.245,135.575 148.229,134.575 148.227,133.542 148.21,132.516 148.19,131.47 148.176,130.408 148.148,129.374 148.127,128.317 148.09,127.287 148.05,126.247 148.002,125.221 147.956,124.205 147.959,123.131 147.928,122.105 147.957,121.086 147.948,120.07 147.959,119.025 147.914,118.057 147.904,117.01 147.853,116.04 147.852,114.988 147.828,113.966 147.835,112.934 147.83,111.907 147.825,110.864 147.797,109.826 147.758,108.787 147.716,107.795 147.681,106.745 147.647,105.741 147.621,104.679 147.595,103.66 147.566,102.605 147.542,101.582 147.507,100.542 147.48,99.5277 147.441,98.4958 147.406,97.4463 147.387,96.4419 147.367,95.397 147.351,94.3914 147.329,93.3496 147.297,92.373 147.257,91.3833 147.214,90.4383 147.185,89.42 147.165,88.3877 147.154,87.3171 147.139,86.2461 147.12,85.1814 147.08,84.1674 147.036,83.2022 146.974,82.3005 146.922,81.3966 146.865,80.4388 146.816,79.4814 146.763,78.4654 146.726,77.4739 146.684,76.4333 146.655,75.4368 146.621,74.36 146.607,73.3297 146.606,72.2067 146.612,71.143 146.612,70.0463 146.614,68.9874 146.61,67.9047 146.607,66.8514 146.605,65.7733 146.596,64.7457 146.581,63.7321 146.568,62.7407 146.547,61.7844 146.526,60.8518 146.493,59.9856 146.467,59.1188 146.45,58.2504 146.447,57.3561 146.451,56.4456 146.483,55.4778 146.5,54.5 " fill="none" stroke-width="1" stroke="rgb(0,0,255)" />
	<polyline points="156.36,215.959 155.821,215.824 155.211,215.738 154.647,215.654 154.085,215.577 153.5,215.5 " fill="none" stroke-width="1" stroke="rgb(0,0,255)" />
	<polyline points="156.36,215.959 156.835,216.105 157.353,216.245 157.871,216.381 158.36,216.518 158.849,216.654 159.324,216.789 159.8,216.923 160.291,217.037 160.79,217.138 161.268,217.243 161.747,217.347 162.226,217.452 162.71,217.552 163.195,217.653 163.66,217.756 164.126,217.859 164.599,217.958 165.069,218.059 165.527,218.162 165.986,218.266 166.447,218.368 166.908,218.469 167.365,218.575 167.823,218.68 168.273,218.786 168.723,218.893 169.173,219 169.621,219.096 170.069,219.193 170.536,219.274 171.004,219.356 171.494,219.426 171.984,219.496 172.482,219.558 172.979,219.62 173.453,219.692 173.927,219.764 174.424,219.825 174.921,219.886 175.4,219.955 175.878,220.024 176.364,220.087 176.849,220.15 177.331,220.222 177.813,220.295 178.296,220.359 178.78,220.423 179.256,220.494 179.733,220.564 180.209,220.634 180.69,220.701 181.171,220.768 181.641,220.839 182.112,220.91 182.593,220.977 183.101,221.034 183.596,221.096 184.092,221.157 184.612,221.213 185.133,221.27 185.619,221.336 186.106,221.402 186.626,221.46 187.147,221.519 187.633,221.585 188.12,221.652 188.621,221.717 189.125,221.783 189.606,221.856 190.088,221.929 190.574,222.001 191.061,222.074 191.54,222.157 192.02,222.24 192.493,222.323 192.967,222.407 193.443,222.499 193.92,222.59 194.389,222.673 194.86,222.756 195.342,222.848 195.825,222.94 196.291,223.024 196.758,223.11 197.249,223.21 197.741,223.311 198.233,223.412 198.69,223.506 199.148,223.6 199.655,223.704 200.162,223.809 200.618,223.898 201.075,223.988 201.573,224.09 202.072,224.192 202.532,224.272 202.993,224.353 203.506,224.453 204.021,224.553 204.482,224.631 204.945,224.71 205.453,224.802 205.963,224.895 206.424,224.975 206.883,225.059 207.367,225.155 207.851,225.251 208.308,225.338 208.767,225.426 209.246,225.521 209.727,225.617 210.209,225.713 210.668,225.807 211.128,225.901 211.604,226 212.087,226.096 212.551,226.195 213.016,226.293 213.497,226.386 213.978,226.478 214.449,226.57 214.919,226.661 215.402,226.748 215.884,226.834 216.354,226.921 216.823,227.007 217.303,227.091 217.781,227.175 218.262,227.251 218.741,227.326 219.221,227.401 219.701,227.482 220.18,227.563 220.66,227.637 221.139,227.712 221.619,227.793 222.099,227.873 222.577,227.95 223.055,228.026 223.532,228.112 224.01,228.198 224.48,228.281 224.951,228.364 225.426,228.449 225.902,228.535 226.373,228.621 226.845,228.707 227.32,228.791 227.795,228.875 228.27,228.965 228.746,229.049 229.222,229.132 229.701,229.212 230.181,229.292 230.665,229.376 231.149,229.46 231.627,229.541 232.105,229.621 232.594,229.705 233.082,229.789 233.561,229.869 234.04,229.948 234.525,230.029 235.013,230.109 235.491,230.197 235.968,230.285 236.455,230.358 236.94,230.431 237.425,230.509 237.908,230.585 238.395,230.65 238.88,230.715 239.366,230.784 239.85,230.853 240.334,230.912 240.817,230.97 241.307,231.032 241.797,231.093 242.286,231.147 242.775,231.201 243.275,231.26 243.774,231.319 244.265,231.373 244.754,231.428 245.262,231.487 245.768,231.546 246.257,231.602 246.742,231.658 247.223,231.714 247.724,231.774 248.219,231.834 248.69,231.893 249.155,231.951 249.65,232.014 250.143,232.074 250.619,232.125 251.091,232.176 251.586,232.244 252.078,232.312 252.545,232.368 253.009,232.424 253.511,232.5 254.012,232.575 254.476,232.636 254.938,232.698 255.448,232.779 255.957,232.858 256.424,232.921 256.89,232.985 257.411,233.052 257.932,233.12 258.404,233.174 258.877,233.228 259.388,233.284 259.9,233.34 260.371,233.392 260.843,233.443 261.342,233.497 261.843,233.552 262.322,233.6 262.802,233.649 263.296,233.703 263.79,233.758 264.281,233.808 264.773,233.858 265.258,233.918 265.743,233.978 266.227,234.038 266.708,234.101 267.187,234.163 267.669,234.223 268.151,234.283 268.634,234.348 269.116,234.414 269.604,234.473 270.092,234.532 270.588,234.6 271.085,234.668 271.589,234.728 272.095,234.789 272.593,234.852 273.093,234.915 273.59,234.974 274.085,235.031 274.584,235.094 275.083,235.158 275.572,235.215 276.061,235.272 276.559,235.341 277.057,235.412 277.541,235.472 278.025,235.533 278.519,235.603 279.013,235.674 279.49,235.742 279.967,235.81 280.448,235.887 280.929,235.965 281.396,236.044 281.863,236.125 282.321,236.218 282.778,236.313 283.238,236.405 283.697,236.498 284.154,236.592 284.604,236.695 285.053,236.798 285.516,236.897 285.979,236.995 286.431,237.106 286.881,237.218 287.376,237.313 287.868,237.411 288.345,237.541 288.819,237.674 289.297,237.794 289.773,237.916 290.233,238.043 290.688,238.19 291.14,238.339 291.6,238.491 292.059,238.644 292.515,238.781 292.971,238.918 293.426,239.058 293.874,239.2 294.357,239.396 294.841,239.592 295.325,239.749 295.809,239.906 296.27,240.058 296.702,240.212 297.126,240.377 297.567,240.531 298.008,240.688 298.436,240.845 298.863,241.004 299.294,241.164 299.723,241.33 300.149,241.501 300.563,241.659 300.975,241.82 301.405,241.983 301.824,242.151 302.247,242.325 302.668,242.501 303.086,242.68 303.527,242.876 303.964,243.082 304.407,243.385 304.762,243.796 " fill="none" stroke-width="1" stroke="rgb(0,0,255)" />
	<polyline points="44.5,259.5 44.7187,259.495 44.9374,259.491 45.1502,259.481 45.363,259.471 45.5759,259.461 45.7889,259.451 46.0018,259.441 46.2237,259.437 46.4457,259.433 46.6679,259.429 46.8901,259.426 47.1113,259.42 47.3326,259.414 47.554,259.409 47.7755,259.403 47.9971,259.397 48.2187,259.391 48.4403,259.384 48.6622,259.377 48.8841,259.37 49.1063,259.363 49.3296,259.354 49.553,259.344 49.7767,259.335 50.0005,259.325 50.2248,259.316 50.4493,259.306 50.674,259.296 50.8989,259.286 51.1237,259.275 51.3486,259.263 51.5737,259.252 51.799,259.24 52.0245,259.227 52.2501,259.215 52.4759,259.203 52.7018,259.191 52.9279,259.179 53.1543,259.165 53.3808,259.152 53.6074,259.139 53.8342,259.125 54.061,259.112 54.2875,259.098 54.5142,259.085 54.7409,259.071 54.9677,259.057 55.195,259.044 55.4224,259.03 55.6498,259.016 55.8773,259.003 56.1039,258.988 56.3308,258.974 56.5578,258.959 56.7848,258.944 57.0118,258.93 57.2394,258.916 57.4671,258.903 57.6947,258.889 57.9224,258.875 58.15,258.862 58.3777,258.848 58.6053,258.835 58.833,258.822 59.0606,258.809 " fill="none" stroke-width="1" stroke="rgb(0,0,255)" />
	<polyline points="304.762,243.796 304.944,243.685 305.126,243.575 305.306,243.464 305.486,243.354 305.664,243.244 305.841,243.134 306.016,243.024 306.185,242.916 306.353,242.808 306.519,242.7 306.684,242.592 306.846,242.483 307.007,242.374 307.168,242.263 307.328,242.151 307.486,242.039 307.643,241.926 307.799,241.812 307.952,241.698 308.1,241.585 308.246,241.472 308.39,241.358 308.532,241.244 308.673,241.129 308.811,241.014 308.946,240.9 309.082,240.784 309.217,240.668 309.35,240.552 309.482,240.435 309.613,240.318 309.743,240.2 309.873,240.083 310.001,239.965 310.126,239.849 310.251,239.733 310.376,239.616 310.5,239.5 " fill="none" stroke-width="1" stroke="rgb(0,0,255)" />
	<polyline points="310.5,239.5 311.108,239.615 311.757,239.707 312.38,239.83 313.003,239.953 313.634,240.077 314.266,240.204 314.897,240.339 315.5,240.5 " fill="none" stroke-width="1" stroke="rgb(0,0,255)" />
	<polyline points="233.5,292.5 233.783,292.303 234.066,292.105 234.348,291.927 234.635,291.738 234.923,291.549 235.209,291.353 235.495,291.157 235.782,290.961 236.064,290.766 236.347,290.58 236.631,290.393 236.916,290.207 237.196,290.011 237.474,289.818 237.752,289.625 238.032,289.432 238.305,289.247 238.577,289.063 238.852,288.88 239.129,288.696 239.402,288.509 239.676,288.321 239.951,288.134 240.222,287.956 240.492,287.777 240.762,287.597 241.034,287.416 241.309,287.233 241.586,287.049 241.865,286.862 242.146,286.683 242.428,286.503 242.712,286.324 242.997,286.144 243.282,285.958 243.566,285.771 243.851,285.583 244.136,285.396 244.445,285.208 244.756,285.019 245.061,284.83 245.364,284.636 245.669,284.441 245.974,284.246 246.288,284.054 246.617,283.87 246.947,283.685 247.262,283.5 247.58,283.314 247.899,283.128 248.233,282.936 248.559,282.735 248.887,282.533 249.192,282.336 249.497,282.14 249.801,281.944 250.122,281.748 250.447,281.558 250.772,281.368 251.098,281.179 251.406,280.979 251.7,280.796 251.995,280.613 252.304,280.427 252.616,280.241 252.928,280.055 253.227,279.86 253.528,279.665 253.831,279.468 254.135,279.271 254.437,279.091 254.739,278.91 255.039,278.729 255.331,278.538 255.625,278.346 255.919,278.154 256.214,277.973 256.508,277.8 256.803,277.627 257.098,277.453 257.4,277.271 257.703,277.088 257.996,276.897 258.291,276.709 258.587,276.521 258.884,276.332 259.178,276.143 259.472,275.953 259.77,275.767 260.069,275.581 260.362,275.402 260.657,275.222 260.952,275.043 261.25,274.857 261.548,274.671 261.846,274.486 262.164,274.285 262.483,274.084 262.78,273.899 263.078,273.714 263.395,273.512 263.714,273.31 264.033,273.108 264.334,272.919 264.654,272.727 264.975,272.534 265.279,272.359 265.583,272.185 265.888,272.01 266.193,271.811 266.499,271.61 266.807,271.409 267.115,271.208 267.428,271.002 267.73,270.823 268.032,270.645 268.343,270.447 268.655,270.25 268.967,270.052 269.266,269.857 269.565,269.662 269.865,269.467 270.178,269.259 270.491,269.051 270.798,268.856 271.106,268.661 271.408,268.473 271.71,268.286 272.013,268.098 272.322,267.904 272.637,267.703 272.952,267.503 273.255,267.302 273.559,267.102 273.863,266.902 274.183,266.707 274.502,266.511 274.821,266.316 275.14,266.121 275.458,265.928 275.766,265.728 276.074,265.529 276.397,265.328 276.718,265.127 277.039,264.927 277.369,264.735 277.7,264.542 278.031,264.349 278.35,264.166 278.666,263.984 278.988,263.785 279.299,263.593 279.609,263.401 279.919,263.211 280.231,263.012 280.536,262.833 280.841,262.654 281.147,262.475 281.464,262.286 281.781,262.096 282.099,261.907 282.406,261.714 282.713,261.522 283.021,261.328 283.325,261.15 283.63,260.971 283.936,260.785 284.245,260.595 284.554,260.404 284.863,260.214 285.164,260.032 285.466,259.854 285.768,259.677 286.07,259.499 286.371,259.313 286.672,259.126 286.972,258.939 287.267,258.758 287.56,258.577 287.853,258.395 288.163,258.197 288.473,257.999 288.776,257.8 289.08,257.6 289.382,257.408 289.683,257.215 289.983,257.023 290.289,256.825 290.594,256.626 290.897,256.426 291.181,256.239 291.464,256.051 291.756,255.843 292.046,255.634 292.351,255.41 292.654,255.186 292.956,254.961 293.234,254.767 293.51,254.573 293.782,254.38 294.052,254.187 294.349,253.983 294.632,253.768 294.912,253.553 295.178,253.344 295.441,253.134 295.702,252.924 295.958,252.726 296.247,252.505 296.532,252.285 296.815,252.065 297.071,251.856 297.315,251.653 297.557,251.448 297.795,251.244 298.031,251.04 298.294,250.818 298.553,250.596 298.808,250.374 299.059,250.152 299.289,249.944 299.513,249.736 299.733,249.528 299.95,249.319 300.18,249.1 300.424,248.861 300.663,248.622 300.899,248.383 301.129,248.153 301.358,247.921 301.579,247.685 301.795,247.45 302.007,247.215 302.226,246.978 302.439,246.74 302.649,246.502 302.856,246.264 303.06,246.026 303.255,245.793 303.45,245.557 303.645,245.32 303.841,245.081 303.997,244.828 304.195,244.568 304.391,244.31 304.586,244.052 304.762,243.796 " fill="none" stroke-width="1" stroke="rgb(0,0,255)" />
	<polyline points="59.0606,258.809 59.4715,259.049 59.8702,259.279 60.2561,259.509 60.6421,259.739 61.0283,259.969 61.3736,260.136 61.7212,260.299 62.0712,260.458 62.4213,260.606 62.7735,260.752 63.1278,260.895 63.4706,261.051 63.8399,261.206 64.1949,261.362 64.5507,261.517 64.9072,261.673 65.2764,261.835 65.647,261.996 66.0264,262.146 66.3926,262.287 66.7608,262.426 67.1313,262.563 67.5197,262.709 67.9107,262.852 68.2812,262.984 68.6633,263.111 69.0477,263.238 69.4558,263.371 69.8654,263.505 70.2559,263.63 70.6483,263.755 71.0426,263.878 71.4717,264.008 71.8775,264.134 72.2848,264.249 72.6948,264.363 73.1075,264.475 73.5182,264.595 73.9314,264.713 74.3665,264.823 74.8045,264.932 75.2217,265.054 75.6452,265.165 76.07,265.276 76.502,265.377 76.935,265.479 77.3571,265.595 77.7798,265.711 78.2029,265.826 78.6344,265.924 79.0671,266.021 79.4965,266.134 79.9264,266.246 80.3521,266.346 80.7784,266.444 81.2051,266.541 81.6425,266.65 82.08,266.757 82.5064,266.85 82.9327,266.941 83.3918,267.04 83.8435,267.13 84.2727,267.214 84.7024,267.297 85.1323,267.379 85.595,267.47 86.0568,267.562 86.483,267.651 86.9085,267.74 87.3732,267.834 87.8378,267.927 88.2643,268.005 88.6985,268.085 89.1327,268.164 89.5894,268.246 90.046,268.327 90.4722,268.407 90.8983,268.486 91.345,268.571 91.7918,268.656 92.2189,268.738 92.646,268.819 93.0732,268.9 93.5244,268.981 93.9783,269.053 94.406,269.115 94.8337,269.176 95.2928,269.247 95.753,269.316 96.2142,269.385 96.6434,269.445 97.0727,269.505 97.5324,269.574 97.9926,269.643 98.4209,269.706 98.8496,269.768 99.3078,269.842 99.7667,269.916 100.226,269.991 100.652,270.065 101.078,270.141 101.542,270.22 102.008,270.299 102.439,270.37 102.872,270.441 103.339,270.515 103.809,270.589 104.244,270.658 104.68,270.729 105.118,270.799 105.575,270.877 106.034,270.955 106.47,271.029 106.903,271.108 107.347,271.192 107.791,271.278 108.223,271.364 108.655,271.451 109.087,271.538 109.524,271.629 109.961,271.721 110.398,271.816 110.834,271.911 111.275,272.001 111.713,272.091 112.15,272.181 112.587,272.277 113.024,272.373 113.466,272.464 113.908,272.556 114.346,272.652 114.783,272.748 115.225,272.834 115.666,272.919 116.108,273.005 116.546,273.098 116.985,273.192 117.418,273.276 117.852,273.359 118.291,273.449 118.732,273.538 119.174,273.626 119.603,273.707 120.033,273.788 120.474,273.874 120.917,273.959 121.345,274.036 121.779,274.11 122.242,274.191 122.705,274.271 123.169,274.351 123.597,274.428 124.026,274.505 124.485,274.589 124.944,274.673 125.372,274.753 125.801,274.834 126.266,274.917 126.732,275 127.196,275.08 127.62,275.16 128.044,275.241 128.503,275.324 128.964,275.406 129.395,275.481 129.826,275.556 130.285,275.636 130.744,275.716 131.204,275.796 131.637,275.871 132.071,275.946 132.518,276.027 132.966,276.111 133.396,276.194 133.826,276.277 134.263,276.363 134.699,276.449 135.135,276.535 135.567,276.623 135.998,276.71 136.432,276.798 136.865,276.885 137.299,276.981 137.733,277.073 138.166,277.166 138.603,277.251 139.039,277.337 139.484,277.424 139.928,277.512 140.374,277.594 140.819,277.677 141.262,277.766 141.703,277.855 142.142,277.945 142.584,278.03 143.027,278.119 143.471,278.205 143.914,278.29 144.355,278.371 144.793,278.452 145.235,278.528 145.674,278.603 146.111,278.678 146.555,278.753 146.996,278.827 147.425,278.902 147.852,278.976 148.295,279.055 148.735,279.134 149.174,279.213 149.597,279.302 150.019,279.392 150.467,279.478 150.914,279.563 151.346,279.654 151.776,279.745 152.206,279.835 152.656,279.914 153.106,279.993 153.552,280.06 153.999,280.127 154.462,280.189 154.926,280.251 155.365,280.323 155.805,280.395 156.26,280.468 156.717,280.54 157.175,280.612 157.62,280.685 158.065,280.758 158.52,280.827 158.976,280.895 159.422,280.961 159.869,281.028 160.329,281.092 160.788,281.157 161.228,281.224 161.669,281.292 162.11,281.359 162.566,281.427 163.024,281.495 163.457,281.564 163.89,281.634 164.347,281.706 164.806,281.779 165.234,281.853 165.663,281.927 166.094,282.002 166.552,282.073 167.012,282.144 167.44,282.218 167.87,282.292 168.319,282.365 168.769,282.44 169.219,282.515 169.641,282.593 170.064,282.672 170.509,282.754 170.954,282.836 171.376,282.918 171.799,283 172.247,283.073 172.696,283.145 173.147,283.216 173.585,283.282 174.024,283.348 174.469,283.418 174.915,283.488 175.362,283.552 175.811,283.616 176.259,283.682 176.707,283.749 177.157,283.816 177.62,283.878 178.084,283.941 178.53,284.01 178.974,284.089 179.408,284.174 179.843,284.259 180.281,284.345 180.719,284.432 181.157,284.519 181.582,284.613 182.008,284.708 182.446,284.803 182.885,284.899 183.312,284.997 183.751,285.076 184.19,285.154 184.632,285.231 185.075,285.309 185.52,285.381 185.966,285.454 186.416,285.528 186.867,285.603 187.303,285.68 187.739,285.757 188.176,285.835 188.616,285.917 189.055,286 189.48,286.09 189.905,286.18 190.329,286.278 190.753,286.375 191.178,286.474 191.603,286.563 192.028,286.653 192.46,286.748 192.891,286.843 193.324,286.928 193.757,287.013 194.19,287.095 194.636,287.176 195.08,287.257 195.515,287.341 195.948,287.424 196.385,287.512 196.821,287.599 197.255,287.69 197.687,287.781 198.118,287.872 198.555,287.965 198.997,288.047 199.44,288.135 199.883,288.222 200.335,288.301 200.787,288.379 201.221,288.458 201.655,288.537 202.088,288.616 202.526,288.692 202.964,288.766 203.393,288.842 203.82,288.918 204.247,288.991 204.684,289.074 205.121,289.157 205.545,289.233 205.968,289.309 206.392,289.39 206.815,289.471 207.245,289.55 207.673,289.629 208.101,289.707 208.533,289.78 208.963,289.852 209.403,289.928 209.84,290.004 210.262,290.088 210.683,290.171 211.104,290.253 211.539,290.332 211.973,290.411 212.392,290.486 212.811,290.56 213.243,290.636 213.675,290.711 214.106,290.786 214.522,290.859 214.938,290.932 215.376,291.007 215.808,291.072 216.223,291.134 216.637,291.195 217.05,291.255 217.488,291.316 217.925,291.377 218.341,291.436 218.756,291.494 219.17,291.551 219.61,291.61 220.047,291.669 220.471,291.72 220.892,291.769 221.337,291.818 221.779,291.865 222.217,291.911 222.643,291.958 223.069,292.003 223.511,292.05 223.951,292.096 224.385,292.151 224.818,292.206 225.27,292.25 225.721,292.294 226.17,292.337 226.612,292.397 227.053,292.456 227.52,292.493 227.985,292.53 228.448,292.571 228.91,292.611 229.382,292.612 229.853,292.612 230.319,292.626 230.783,292.639 231.239,292.618 231.693,292.596 232.147,292.573 232.607,292.558 233.065,292.541 233.5,292.5 " fill="none" stroke-width="1" stroke="rgb(0,0,255)" />
	<polyline points="59.0606,258.809 59.2852,258.437 59.5083,258.068 59.7589,257.694 60.0093,257.32 60.2176,256.951 60.493,256.644 60.7739,256.335 61.0608,256.025 61.331,255.707 61.6096,255.388 61.8956,255.069 62.2277,254.777 62.5742,254.525 62.9324,254.299 63.2701,254.102 63.6121,253.903 63.9589,253.71 64.3178,253.524 64.68,253.338 65.045,253.152 65.3964,252.964 65.7519,252.787 66.1091,252.609 66.4776,252.426 66.849,252.243 67.2119,252.068 67.5745,251.89 67.9396,251.711 68.3211,251.521 68.7048,251.331 69.0909,251.142 69.4691,250.963 69.8526,250.791 70.2433,250.619 70.6369,250.448 71.0334,250.277 71.427,250.098 71.823,249.919 72.2274,249.725 72.6337,249.532 73.0419,249.339 73.459,249.135 73.8778,248.932 74.2973,248.753 74.7194,248.574 75.144,248.397 75.5561,248.209 75.9693,248.021 76.4036,247.813 76.8398,247.605 77.2555,247.415 77.6733,247.225 78.0931,247.036 78.5152,246.847 78.9382,246.659 79.3749,246.471 79.8134,246.283 80.2291,246.097 80.6458,245.912 81.0671,245.716 81.4941,245.528 81.9217,245.341 82.3397,245.148 82.7584,244.955 83.17,244.778 83.5992,244.599 84.0293,244.421 84.4421,244.246 84.8559,244.071 85.2849,243.893 85.7148,243.714 86.1456,243.536 86.5662,243.358 86.9877,243.179 87.4204,243.001 87.8531,242.829 88.2765,242.653 88.7002,242.476 89.1244,242.3 89.5619,242.12 89.9996,241.941 90.4325,241.758 90.8658,241.575 91.2939,241.4 91.7222,241.226 92.1507,241.052 92.5831,240.883 93.0158,240.714 93.4444,240.545 93.8731,240.376 94.3166,240.203 94.7604,240.031 95.2001,239.851 95.6322,239.669 96.0646,239.487 96.4964,239.307 96.9285,239.126 97.3577,238.947 97.7855,238.774 98.2139,238.6 98.6397,238.421 99.0657,238.241 99.4891,238.061 99.9206,237.874 100.339,237.691 100.757,237.509 101.175,237.326 101.613,237.128 102.05,236.93 102.465,236.74 102.879,236.551 103.302,236.361 103.725,236.171 104.149,235.982 104.56,235.793 104.971,235.603 105.402,235.408 105.834,235.213 106.244,235.028 106.655,234.848 107.066,234.669 107.499,234.491 107.932,234.313 108.345,234.141 108.757,233.968 109.171,233.788 109.626,233.601 110.081,233.415 110.494,233.235 110.907,233.054 111.362,232.873 111.819,232.692 112.242,232.509 112.665,232.326 113.09,232.143 113.539,231.96 114.006,231.766 114.421,231.595 114.836,231.425 115.297,231.236 115.758,231.046 116.203,230.87 116.62,230.705 117.037,230.541 117.481,230.368 117.925,230.196 118.339,230.033 118.753,229.86 119.167,229.687 119.61,229.51 120.053,229.333 120.473,229.16 120.892,228.987 121.34,228.826 121.787,228.666 122.223,228.499 122.658,228.332 123.092,228.165 123.544,228.004 123.994,227.834 124.446,227.651 124.898,227.469 125.359,227.289 125.82,227.11 126.28,226.933 126.727,226.75 127.174,226.567 127.63,226.401 128.085,226.236 128.521,226.064 128.97,225.901 129.425,225.736 129.88,225.57 130.315,225.406 130.749,225.241 131.183,225.076 131.634,224.903 132.085,224.73 132.508,224.551 132.931,224.371 133.368,224.19 133.804,224.009 134.22,223.834 134.634,223.658 135.047,223.482 135.461,223.315 135.874,223.148 136.281,222.974 136.686,222.794 137.089,222.615 137.492,222.443 137.893,222.272 138.293,222.094 138.691,221.916 139.083,221.746 139.474,221.582 139.863,221.418 140.251,221.251 140.635,221.084 141.02,220.906 141.411,220.737 141.8,220.568 142.185,220.399 142.568,220.221 142.946,220.045 143.328,219.88 143.708,219.715 144.085,219.55 144.474,219.389 144.859,219.229 145.238,219.072 145.626,218.899 146.009,218.727 146.387,218.56 146.76,218.394 147.129,218.228 147.506,218.058 147.886,217.91 148.239,217.754 148.59,217.597 148.939,217.44 149.327,217.285 149.712,217.13 150.095,216.974 150.485,216.796 150.872,216.619 151.251,216.456 151.629,216.294 152.005,216.132 152.382,215.967 152.75,215.824 153.116,215.682 153.5,215.5 " fill="none" stroke-width="1" stroke="rgb(0,0,255)" />
	<polyline points="329.5,70.5 329.555,71.8037 329.619,73.0141 329.65,74.3191 329.696,75.5979 329.722,76.9662 329.723,78.3677 329.717,79.7547 329.721,81.1505 329.708,82.4566 329.692,83.6171 329.659,84.845 329.642,86.0119 329.58,87.3045 329.547,88.5582 329.505,89.8842 329.432,91.2982 329.385,92.6345 329.339,93.9835 329.282,95.4081 329.248,96.8605 329.219,98.1892 329.19,99.6227 329.153,101.064 329.114,102.4 329.074,103.743 329.025,105.16 328.998,106.496 328.968,107.804 328.937,109.25 328.927,110.558 328.929,111.876 328.9,113.295 328.886,114.64 328.861,115.996 328.834,117.375 328.826,118.748 328.828,120.105 328.822,121.471 328.806,122.824 328.776,124.201 328.738,125.537 328.701,126.909 328.645,128.233 328.616,129.637 328.593,131.063 328.533,132.356 328.479,133.676 328.462,135.093 328.417,136.411 328.39,137.773 328.397,139.124 328.388,140.497 328.385,141.89 328.392,143.198 328.393,144.621 328.392,146.086 328.408,147.38 328.377,148.652 328.332,150.117 328.283,151.379 328.243,152.721 328.207,154.146 328.174,155.489 328.127,156.779 328.082,158.113 328.04,159.437 328.03,160.827 328.038,162.224 328.049,163.585 328.058,164.934 328.063,166.323 328.066,167.724 328.08,169.031 328.063,170.435 328.033,171.815 327.989,173.132 327.962,174.517 327.939,175.894 327.921,177.242 327.909,178.619 327.913,180.004 327.922,181.368 327.948,182.732 327.99,184.105 328.014,185.473 328.023,186.84 328.045,188.209 328.054,189.578 328.082,190.931 328.121,192.305 328.152,193.651 328.197,194.938 328.256,196.24 328.298,197.491 328.317,198.816 328.34,200.227 328.363,201.576 328.388,202.952 328.408,204.333 328.398,205.702 328.389,207.082 328.365,208.443 328.338,209.806 328.313,211.179 328.279,212.529 328.243,213.831 328.208,215.055 328.187,216.384 328.172,217.753 328.154,219.098 328.141,220.477 328.119,221.847 328.103,223.209 328.079,224.588 328.05,225.971 328.012,227.349 327.95,228.659 327.897,229.968 327.848,231.321 327.811,232.728 327.779,234.051 327.737,235.473 327.681,236.851 327.642,238.08 327.601,239.492 327.576,240.922 327.565,242.141 327.564,243.58 327.551,244.997 327.54,246.285 327.527,247.688 327.509,249.1 327.483,250.462 327.432,251.777 327.375,253.143 327.314,254.384 327.266,255.73 327.213,257.121 327.152,258.404 327.127,259.799 327.128,261.202 327.146,262.537 327.179,263.795 327.195,265.063 327.181,266.328 327.144,267.676 327.102,269.028 327.056,270.415 326.993,271.79 326.913,273.087 326.832,274.358 326.791,275.772 326.774,277.183 326.76,278.559 326.746,279.933 326.734,281.319 326.713,282.694 326.675,284.015 326.632,285.327 326.581,286.673 326.519,287.998 326.451,289.317 326.396,290.719 326.343,292.012 326.307,293.419 326.315,294.875 326.352,296.083 326.41,297.392 326.438,298.709 326.44,299.941 326.424,301.27 326.416,302.601 326.405,303.973 326.396,305.347 326.387,306.709 326.392,308.051 326.398,309.399 326.436,310.748 326.491,312.03 326.54,313.43 326.597,314.784 326.654,316.068 326.704,317.406 326.712,318.815 326.706,320.167 326.706,321.542 326.739,322.868 326.789,324.103 326.844,325.385 326.888,326.729 326.921,328.088 326.939,329.487 326.959,330.883 326.985,332.264 327.008,333.552 327.05,334.909 327.073,336.306 327.076,337.703 327.067,339.059 327.048,340.42 327.041,341.805 327.063,343.14 327.096,344.462 327.124,345.772 327.143,347.112 327.145,348.462 327.14,349.83 327.136,351.198 327.14,352.549 327.14,353.895 327.133,355.229 327.122,356.572 327.11,357.923 327.089,359.32 327.071,360.705 327.063,362.008 327.038,363.448 327.018,364.811 327.03,366.107 327.076,367.32 327.124,368.505 327.153,369.831 327.163,371.187 327.161,372.583 327.146,374 327.132,375.363 327.12,376.728 327.106,378.176 327.079,379.618 327.088,381.019 327.114,382.428 327.164,383.67 327.216,384.876 327.269,386.14 327.319,387.393 327.351,388.776 327.375,390.184 327.387,391.681 327.394,393.185 327.393,394.609 327.377,396.014 327.365,397.528 327.316,398.971 327.226,400.249 327.15,401.665 327.062,402.726 327.026,403.666 " fill="none" stroke-width="1" stroke="rgb(0,0,255)" />
	<polyline points="327.026,403.666 327.347,404.634 327.638,405.549 327.979,406.487 328.223,407.501 328.5,408.5 " fill="none" stroke-width="1" stroke="rgb(0,0,255)" />
	<polyline points="236.5,486.5 236.592,486.335 236.684,486.17 236.776,486.005 236.869,485.838 236.961,485.671 237.059,485.502 237.157,485.332 237.255,485.162 237.352,484.993 237.45,484.823 237.547,484.654 237.644,484.485 237.742,484.315 237.839,484.146 237.936,483.977 238.034,483.807 238.131,483.636 238.227,483.466 238.324,483.295 238.421,483.125 238.518,482.955 238.614,482.785 238.711,482.614 238.808,482.444 238.905,482.274 239.001,482.104 239.099,481.935 239.196,481.765 239.294,481.595 239.391,481.424 " fill="none" stroke-width="1" stroke="rgb(0,0,255)" />
	<polyline points="239.391,481.424 238.941,480.375 238.707,479.338 238.497,478.348 238.335,477.451 238.227,476.515 238.122,475.618 237.978,474.851 237.926,473.859 237.865,472.909 237.795,471.879 237.704,470.877 237.602,469.777 237.494,468.712 237.384,467.591 237.278,466.465 237.172,465.361 237.061,464.285 236.957,463.212 236.846,462.159 236.742,461.107 236.622,460.136 236.521,459.095 236.413,458.087 236.337,456.978 236.26,455.897 236.223,454.749 236.183,453.65 236.176,452.52 236.155,451.41 236.121,450.285 236.057,449.355 236.005,448.227 235.946,447.16 235.884,446.047 235.831,444.964 235.781,443.813 235.743,442.694 235.706,441.52 235.673,440.334 235.661,439.174 235.623,438.022 235.594,436.879 235.549,435.786 235.509,434.669 235.46,433.661 235.45,432.51 235.439,431.579 235.497,430.55 235.501,429.329 235.512,428.158 235.52,426.999 235.535,425.866 235.551,424.747 235.569,423.627 235.58,422.514 235.565,421.394 235.55,420.269 235.531,419.162 235.529,418.023 235.518,416.933 235.52,415.783 235.514,414.714 235.497,413.564 235.485,412.395 235.505,411.343 235.524,410.167 235.548,409.093 235.571,407.913 235.599,406.833 235.626,405.666 235.642,404.546 235.658,403.412 235.679,402.252 235.691,401.129 235.688,399.977 235.656,398.871 235.635,397.756 235.593,396.667 235.571,395.526 235.553,394.35 235.519,393.23 235.489,392.088 235.447,390.976 235.403,389.834 235.345,388.749 235.289,387.629 235.222,386.58 235.165,385.476 235.131,384.32 235.101,383.176 235.072,382.039 235.04,380.901 235.003,379.773 234.969,378.623 234.929,377.502 234.885,376.4 234.823,375.338 234.78,374.241 234.735,373.136 234.745,372.014 234.745,370.891 234.766,369.783 234.768,368.643 234.745,367.493 234.68,366.458 234.601,365.425 234.535,364.362 234.462,363.28 234.4,362.197 234.347,361.054 234.303,359.939 234.257,358.827 234.207,357.784 234.158,356.702 234.115,355.648 234.084,354.533 234.071,353.403 234.055,352.299 234.047,351.172 234.032,350.07 234.019,348.938 234,347.838 233.984,346.704 233.966,345.604 233.955,344.474 233.951,343.347 233.932,342.253 233.928,341.109 233.898,340.009 233.885,338.849 233.851,337.756 233.834,336.594 233.802,335.48 233.783,334.329 233.794,333.18 233.789,332.006 233.818,330.909 233.815,329.737 233.87,328.776 233.862,327.619 233.872,326.491 233.867,325.339 233.858,324.184 233.844,323.021 233.837,321.856 233.823,320.663 233.831,319.503 233.862,318.428 233.836,317.237 233.894,316.335 233.843,315.251 233.846,314.212 233.807,313.122 233.792,312.052 233.758,310.961 233.738,309.863 233.693,308.769 233.676,307.617 233.643,306.404 233.613,305.167 233.623,304.009 233.624,302.703 233.598,301.428 233.557,300.254 233.556,298.954 233.546,297.863 233.591,296.92 233.537,296.012 233.541,294.962 233.521,294.062 233.574,293.189 233.5,292.5 " fill="none" stroke-width="1" stroke="rgb(0,0,255)" />
	<polyline points="239.391,481.424 239.751,481.18 240.112,480.934 240.489,480.705 240.866,480.475 241.22,480.229 241.577,479.979 241.922,479.739 242.287,479.478 242.654,479.214 243.024,478.947 243.346,478.706 243.669,478.464 243.992,478.22 244.309,477.96 244.623,477.719 244.937,477.476 245.239,477.225 245.544,476.972 245.843,476.739 246.143,476.506 246.446,476.251 246.751,475.993 247.061,475.733 247.364,475.469 247.667,475.204 247.971,474.938 248.279,474.679 248.589,474.417 248.9,474.153 249.207,473.887 249.546,473.595 249.884,473.302 250.243,473.014 250.579,472.732 250.921,472.444 251.245,472.172 251.563,471.904 251.905,471.625 252.29,471.327 252.673,471.028 253.012,470.739 253.33,470.471 253.648,470.202 253.966,469.933 254.355,469.63 254.743,469.327 255.13,469.025 255.444,468.739 255.761,468.45 256.081,468.157 256.458,467.834 256.839,467.507 257.186,467.213 257.536,466.916 257.871,466.612 258.218,466.299 258.565,465.984 258.934,465.651 259.261,465.362 259.59,465.072 259.948,464.77 260.335,464.43 260.721,464.092 261.105,463.766 261.417,463.487 261.724,463.213 262.027,462.942 262.423,462.628 262.826,462.309 263.185,462.027 263.497,461.753 263.809,461.477 264.123,461.201 264.523,460.878 264.91,460.583 265.258,460.314 265.61,460.043 265.937,459.762 266.297,459.47 266.654,459.179 267.011,458.889 267.335,458.64 267.663,458.388 267.993,458.135 268.346,457.857 268.7,457.578 269.055,457.298 269.415,456.991 269.747,456.732 270.084,456.47 270.424,456.194 270.76,455.921 271.103,455.653 271.476,455.334 271.849,455.015 272.178,454.736 272.508,454.456 272.838,454.176 273.182,453.883 273.535,453.567 273.89,453.25 274.226,452.963 274.565,452.68 274.904,452.397 275.255,452.08 275.587,451.764 275.922,451.445 276.256,451.148 276.587,450.854 276.928,450.562 277.273,450.246 277.621,449.929 277.95,449.609 278.284,449.302 278.618,448.995 278.966,448.681 279.308,448.381 279.649,448.083 279.992,447.751 280.328,447.44 280.66,447.132 281.006,446.818 281.349,446.516 281.69,446.217 282.029,445.92 282.371,445.623 282.715,445.325 283.063,445.024 283.415,444.722 283.768,444.419 284.122,444.116 284.463,443.85 284.805,443.585 285.147,443.319 285.499,443.008 285.84,442.73 286.17,442.472 286.5,442.214 286.83,441.956 287.183,441.657 287.537,441.358 287.891,441.059 288.23,440.778 288.569,440.497 288.909,440.215 289.25,439.926 289.591,439.649 289.934,439.371 290.276,439.11 290.635,438.797 290.997,438.482 291.347,438.173 291.692,437.868 292.035,437.575 292.396,437.276 292.754,436.979 293.108,436.666 293.438,436.365 293.767,436.066 294.098,435.765 294.444,435.45 294.789,435.135 295.131,434.833 295.456,434.538 295.778,434.246 296.097,433.955 296.428,433.643 296.761,433.329 297.095,433.013 297.424,432.717 297.753,432.421 298.081,432.125 298.426,431.805 298.769,431.485 299.111,431.167 299.436,430.866 299.791,430.548 300.143,430.232 300.517,429.899 300.884,429.571 301.214,429.263 301.536,428.961 301.892,428.638 302.267,428.292 302.639,427.948 303.008,427.608 303.334,427.305 303.658,427.004 303.987,426.703 304.328,426.384 304.667,426.067 305.003,425.75 305.338,425.439 305.674,425.127 305.99,424.845 306.329,424.546 306.667,424.247 307.005,423.949 307.347,423.629 307.688,423.31 308.03,422.991 308.355,422.71 308.679,422.429 309.003,422.148 309.319,421.868 309.64,421.559 309.962,421.249 310.292,420.95 310.613,420.661 310.933,420.372 311.255,420.085 311.581,419.772 311.904,419.46 312.239,419.164 312.572,418.87 312.889,418.586 313.233,418.295 313.575,418.006 313.907,417.712 314.235,417.428 314.561,417.145 314.892,416.855 315.252,416.559 315.609,416.265 315.964,415.973 316.293,415.674 316.623,415.375 316.954,415.076 317.311,414.766 317.674,414.452 318.041,414.134 318.387,413.815 318.734,413.496 319.081,413.176 319.456,412.863 319.812,412.556 320.163,412.252 320.514,411.941 320.846,411.637 321.203,411.334 321.559,411.032 321.907,410.74 322.273,410.418 322.637,410.098 322.99,409.777 323.358,409.458 323.724,409.14 324.088,408.845 324.465,408.541 324.843,408.236 " fill="none" stroke-width="1" stroke="rgb(0,0,255)" />
	<polyline points="324.843,408.236 326.811,405.099 327.026,403.666 " fill="none" stroke-width="1" stroke="rgb(0,0,255)" />
	<polyline points="324.843,408.236 326.474,408.382 328.5,408.5 " fill="none" stroke-width="1" stroke="rgb(0,0,255)" />
	<polyline points="312.5,68.5 312.412,69.5972 312.315,70.5711 312.217,71.622 312.124,72.5777 312.037,73.6694 311.974,74.8549 312.027,75.9714 312.008,77.1543 311.999,78.438 312.002,79.7873 311.999,81.0822 311.98,82.3604 311.959,83.5808 311.939,84.8434 311.921,86.1148 311.897,87.3214 311.897,88.6159 311.869,89.7983 311.846,90.9612 311.837,92.2066 311.831,93.4318 311.829,94.6641 311.823,95.8974 311.809,97.0891 311.783,98.2561 311.749,99.3589 311.706,100.423 311.657,101.455 311.611,102.535 311.588,103.763 311.584,105.026 311.589,106.298 311.599,107.538 311.599,108.765 311.596,110.001 311.589,111.213 311.579,112.432 311.57,113.654 311.562,114.873 311.558,116.096 311.559,117.319 311.564,118.543 311.57,119.768 311.585,120.985 311.591,122.213 311.59,123.443 311.59,124.67 311.582,125.893 311.579,127.12 311.564,128.334 311.55,129.56 311.519,130.743 311.484,131.924 311.46,133.13 311.446,134.381 311.444,135.612 311.442,136.834 311.444,138.08 311.441,139.307 311.453,140.562 311.484,141.769 311.52,142.988 311.571,144.155 311.636,145.273 311.694,146.407 311.699,147.637 311.67,148.76 311.659,149.99 311.628,151.098 311.64,152.357 311.635,153.667 311.613,154.815 311.585,156.037 311.544,157.1 311.51,158.207 311.489,159.303 311.485,160.449 311.475,161.624 311.46,162.838 311.434,164.047 311.393,165.249 311.353,166.42 311.358,167.632 311.352,168.918 311.34,170.112 311.311,171.367 311.286,172.529 311.291,173.715 311.267,174.975 311.265,176.167 311.244,177.42 311.221,178.662 311.196,179.817 311.172,181.048 311.149,182.198 311.133,183.432 311.118,184.64 311.084,185.834 311.032,187.005 310.983,188.18 310.926,189.43 310.848,190.514 310.79,191.671 310.771,192.943 310.75,194.145 310.727,195.377 310.711,196.592 310.706,197.823 310.68,199.061 310.676,200.294 310.639,201.508 310.598,202.704 310.576,203.901 310.551,205.151 310.542,206.364 310.564,207.637 310.553,208.88 310.568,210.033 310.529,211.16 310.52,212.299 310.486,213.434 310.486,214.646 310.514,215.903 310.516,217.115 310.531,218.394 310.546,219.671 310.55,220.838 310.563,222.108 310.579,223.271 310.599,224.526 310.645,225.748 310.678,226.916 310.718,228.149 310.733,229.307 310.762,230.525 310.794,231.789 310.851,232.886 310.872,234.192 310.942,235.215 310.923,236.52 311.018,237.46 311.124,238.5 " fill="none" stroke-width="1" stroke="rgb(0,0,255)" />
	<polyline points="310.5,239.5 311.124,238.5 " fill="none" stroke-width="1" stroke="rgb(0,0,255)" />
	<polyline points="311.124,238.5 315.5,240.5 " fill="none" stroke-width="1" stroke="rgb(0,0,255)" />
	<polyline points="44.5,259.5 44.495,260.137 44.5498,260.728 44.5508,261.355 44.5514,261.984 44.5991,262.598 44.6469,263.216 44.6787,263.823 44.7062,264.492 44.7334,265.168 44.759,265.819 44.7868,266.525 44.8151,267.24 44.8306,267.961 44.8554,268.709 44.8689,269.473 44.8831,270.248 44.9135,271.023 44.9362,271.815 44.9725,272.595 45.0097,273.385 45.0436,274.177 45.0834,274.97 45.1161,275.772 45.1636,276.544 45.2113,277.318 45.2508,278.09 45.2849,278.913 45.3253,279.685 45.3706,280.468 45.4159,281.249 45.465,281.989 45.5148,282.752 45.5658,283.497 45.6169,284.237 45.6498,285.05 45.6724,285.881 45.6758,286.746 45.6959,287.581 45.7166,288.413 45.7342,289.251 45.7502,290.08 45.7622,290.918 45.7662,291.759 45.7667,292.602 45.7723,293.438 45.7783,294.274 45.7928,295.096 45.8176,295.905 45.8442,296.705 45.8778,297.498 45.9118,298.291 45.9417,299.084 45.9611,299.907 45.9692,300.736 45.9733,301.576 45.9792,302.415 45.9835,303.249 45.9919,304.089 45.998,304.93 45.9561,305.746 45.9183,306.568 45.8799,307.394 45.8851,308.254 45.8946,309.122 45.9188,309.973 45.9523,310.819 46.002,311.616 46.0623,312.389 46.1233,313.169 46.1852,313.93 46.2422,314.747 46.2962,315.542 46.3499,316.334 46.4062,317.155 46.4657,317.919 46.5278,318.726 46.5821,319.495 46.6356,320.261 46.6755,321.104 46.6984,321.933 46.7154,322.772 46.7342,323.597 46.7634,324.445 46.7921,325.295 46.8217,326.11 46.8603,326.951 46.8976,327.762 46.941,328.599 46.9839,329.412 47.0373,330.186 47.0898,330.982 47.147,331.741 47.1963,332.528 47.2449,333.308 47.2778,334.137 47.3031,334.956 47.2809,335.819 47.2831,336.643 47.269,337.493 47.2547,338.341 47.2821,339.115 47.3078,339.933 47.3528,340.661 47.3842,341.473 47.4154,342.286 47.4418,343.057 47.4361,343.909 47.4568,344.672 47.4532,345.506 47.4495,346.334 47.4851,347.058 47.4915,347.877 47.5208,348.625 47.5299,349.44 47.5398,350.253 47.5467,351.057 47.5451,351.88 47.5466,352.699 47.5476,353.528 47.5484,354.365 47.5615,355.188 47.5772,356.028 47.601,356.849 47.6377,357.66 47.6827,358.433 47.7277,359.207 47.7809,359.974 47.8208,360.76 47.8423,361.594 47.851,362.442 47.8608,363.293 47.8597,364.146 47.8827,365.002 47.9103,365.819 47.9569,366.605 48.0022,367.361 48.0111,368.176 48.0274,369.012 48.046,369.85 48.0745,370.692 48.0996,371.523 48.124,372.354 48.1468,373.211 48.1711,374.024 48.193,374.875 48.22,375.675 48.242,376.529 48.2632,377.381 48.2983,378.168 48.3346,378.986 48.3784,379.75 48.4158,380.557 48.4527,381.356 48.4896,382.13 48.5203,382.93 48.5418,383.737 48.5595,384.552 48.5768,385.365 48.5812,386.194 48.5754,387.024 48.5672,387.854 48.5668,388.683 48.5565,389.506 48.5457,390.332 48.5475,391.164 48.5426,391.987 48.5448,392.822 48.543,393.647 48.5448,394.483 48.5462,395.321 48.5431,396.146 48.549,396.986 48.557,397.807 48.5707,398.645 48.5872,399.458 48.6035,400.271 48.6148,401.113 48.6346,401.922 48.6521,402.76 48.6772,403.571 48.7029,404.384 48.7089,405.23 48.7086,406.064 48.6895,406.893 48.6623,407.696 48.6207,408.462 48.5788,409.227 48.5409,410.01 48.5036,410.787 48.4784,411.606 48.4526,412.419 48.4269,413.229 48.4103,414.066 48.3948,414.895 48.3804,415.735 48.3665,416.567 48.3528,417.394 48.3467,418.228 48.3456,419.057 48.3533,419.879 48.3518,420.703 48.3512,421.525 48.3524,422.344 48.3618,423.157 48.3682,423.971 48.3811,424.78 48.3928,425.589 48.4045,426.399 48.4175,427.204 48.4365,428.009 48.4567,428.806 48.4929,429.592 48.5293,430.381 48.5638,431.167 48.5877,431.978 48.6107,432.785 48.6337,433.595 48.6527,434.413 48.6718,435.236 48.7084,436.025 48.7257,436.851 48.7822,437.591 48.8392,438.333 48.8963,439.16 48.9632,439.935 49.0401,440.734 49.1205,441.489 49.2009,442.246 49.3078,442.964 49.3954,443.717 49.5,444.5 " fill="none" stroke-width="1" stroke="rgb(0,0,255)" />
	<polyline points="68.5,289.5 68.9801,289.538 69.4627,289.578 69.9452,289.618 70.4326,289.658 70.9199,289.698 71.3859,289.769 71.8523,289.84 72.3128,289.903 72.7731,289.966 73.2326,290.045 73.692,290.123 74.1514,290.202 74.5869,290.276 75.0223,290.35 75.4663,290.431 75.9108,290.511 76.3372,290.594 76.7634,290.678 77.1893,290.761 77.6196,290.85 78.0498,290.94 78.4823,291.02 78.9075,291.105 79.339,291.203 79.7708,291.301 80.2031,291.399 80.634,291.482 81.0661,291.564 81.4948,291.647 81.9233,291.73 82.3768,291.798 82.8302,291.865 83.2639,291.953 83.6976,292.041 84.1429,292.122 84.5961,292.2 85.0491,292.278 85.4973,292.364 85.9453,292.45 86.3844,292.536 86.8235,292.621 87.2608,292.708 87.6982,292.794 88.1357,292.88 88.5712,292.972 89.005,293.051 89.4379,293.131 89.8716,293.209 90.3109,293.282 90.7507,293.355 91.191,293.427 91.6347,293.5 92.079,293.573 92.5306,293.64 92.983,293.707 93.4416,293.77 93.9004,293.833 94.3678,293.898 94.8351,293.964 95.2743,294.039 95.7143,294.114 96.155,294.189 96.6146,294.26 97.0751,294.331 97.5223,294.396 97.9703,294.461 98.4302,294.529 98.8911,294.598 99.3395,294.661 99.7885,294.725 100.253,294.793 100.719,294.861 101.185,294.93 101.635,294.99 102.1,295.044 102.566,295.113 103.035,295.18 103.487,295.241 103.941,295.302 104.396,295.377 104.852,295.452 105.308,295.516 105.766,295.58 106.226,295.644 106.678,295.724 107.131,295.805 107.586,295.877 108.042,295.95 108.486,296.034 108.932,296.118 109.392,296.189 109.852,296.259 110.301,296.333 110.751,296.406 111.202,296.48 111.657,296.547 112.112,296.613 112.558,296.683 113.003,296.752 113.451,296.822 113.899,296.89 114.336,296.963 114.773,297.035 115.218,297.101 115.667,297.172 116.116,297.242 116.551,297.31 116.988,297.379 117.432,297.45 117.877,297.522 118.32,297.587 118.765,297.652 119.21,297.717 119.668,297.78 120.127,297.843 120.588,297.903 121.05,297.963 121.519,298.021 121.983,298.082 122.45,298.145 122.918,298.208 123.379,298.271 123.839,298.335 124.303,298.405 124.766,298.475 125.227,298.546 125.683,298.612 126.138,298.678 126.597,298.747 127.054,298.816 127.508,298.885 127.961,298.953 128.414,299.024 128.873,299.095 129.324,299.16 129.774,299.225 130.223,299.291 130.674,299.373 131.125,299.456 131.572,299.526 132.019,299.598 132.469,299.679 132.92,299.76 133.368,299.833 133.816,299.907 134.27,299.989 134.711,300.068 135.153,300.149 135.616,300.224 136.081,300.298 136.52,300.383 136.96,300.467 137.416,300.548 137.874,300.628 138.315,300.713 138.758,300.798 139.202,300.883 139.658,300.968 140.113,301.053 140.555,301.141 140.998,301.229 141.451,301.315 141.905,301.401 142.351,301.488 142.797,301.576 143.249,301.664 143.702,301.753 144.155,301.842 144.603,301.931 145.052,302.019 145.504,302.111 145.956,302.203 146.404,302.295 146.852,302.388 147.304,302.484 147.757,302.579 148.209,302.675 148.657,302.773 149.104,302.872 149.553,302.974 149.996,303.078 150.44,303.189 150.884,303.301 151.324,303.406 151.762,303.511 152.2,303.617 152.638,303.729 153.074,303.841 153.509,303.948 153.944,304.054 154.378,304.171 154.812,304.288 155.248,304.395 155.683,304.503 156.118,304.611 156.556,304.729 156.994,304.847 157.433,304.955 157.871,305.06 158.321,305.166 158.769,305.272 159.217,305.379 159.654,305.485 160.091,305.591 160.545,305.705 160.998,305.82 161.437,305.931 161.875,306.044 162.332,306.15 162.789,306.256 163.232,306.358 163.674,306.461 164.116,306.564 164.555,306.675 164.993,306.786 165.416,306.897 165.838,307.007 166.283,307.134 166.727,307.261 167.171,307.387 167.596,307.494 168.021,307.6 168.456,307.716 168.89,307.831 169.299,307.928 169.708,308.024 170.153,308.118 170.572,308.231 170.991,308.344 171.399,308.454 171.806,308.564 172.219,308.673 172.631,308.782 173.042,308.891 173.444,308.996 173.84,309.091 174.254,309.191 174.667,309.29 175.079,309.388 175.479,309.48 175.876,309.571 176.293,309.669 176.709,309.768 177.123,309.866 177.524,309.954 177.935,310.047 178.361,310.15 178.787,310.253 179.212,310.356 179.639,310.449 180.064,310.542 180.502,310.656 180.938,310.771 181.403,310.861 181.866,310.952 182.333,311.053 182.798,311.153 183.238,311.209 183.677,311.264 184.114,311.32 184.601,311.377 185.088,311.434 185.5,311.5 " fill="none" stroke-width="1" stroke="rgb(0,0,255)" />
	<polyline points="185.5,311.5 186.048,311.556 186.61,311.628 187.172,311.7 187.691,311.764 188.211,311.827 188.736,311.909 189.263,311.991 189.76,312.067 190.27,312.166 190.781,312.264 191.258,312.346 191.736,312.428 192.215,312.51 192.711,312.599 193.209,312.688 193.682,312.767 194.156,312.846 194.658,312.925 195.161,313.003 195.637,313.078 196.114,313.152 196.604,313.228 197.094,313.305 197.572,313.385 198.049,313.465 198.537,313.545 199.024,313.625 199.503,313.708 199.981,313.791 200.464,313.878 200.948,313.964 201.438,314.051 201.928,314.139 202.42,314.237 202.911,314.335 203.401,314.439 203.891,314.544 204.383,314.661 204.874,314.778 205.368,314.902 205.86,315.026 206.324,315.157 206.787,315.288 207.238,315.406 207.688,315.524 208.139,315.641 208.62,315.771 209.102,315.9 209.569,316.008 210.128,316.116 210.802,316.201 211.331,316.306 211.859,316.41 212.5,316.5 " fill="none" stroke-width="1" stroke="rgb(0,0,255)" />
	<polyline points="70.5,450.5 70.8608,450.424 71.2224,450.346 71.584,450.267 71.9456,450.189 72.3004,450.099 72.6553,450.008 " fill="none" stroke-width="1" stroke="rgb(0,0,255)" />
	<polyline points="72.6553,450.008 72.6092,449.071 72.5319,448.09 72.4038,447.054 72.2702,445.956 72.1474,444.888 72.0475,443.727 72.0238,442.677 71.9927,441.569 71.9805,440.432 71.9493,439.253 71.91,438.044 71.8769,436.854 71.8511,435.671 71.8427,434.592 71.8471,433.554 71.848,432.505 71.8209,431.393 71.7765,430.293 71.7308,429.178 71.6808,428.1 71.6439,426.997 71.611,425.919 71.5901,424.823 71.5629,423.753 71.5343,422.671 71.5091,421.588 71.4797,420.496 71.4503,419.401 71.4229,418.297 71.3998,417.179 71.3772,416.058 71.3584,414.925 71.3329,413.804 71.3083,412.676 71.2875,411.545 71.2679,410.405 71.2366,409.28 71.2139,408.134 71.178,407.017 71.1471,405.886 71.1055,404.779 71.0691,403.651 71.0413,402.501 71.0437,401.365 71.0529,400.227 71.0642,399.12 71.0781,398.004 71.0878,396.914 71.0923,395.781 71.0909,394.633 71.0681,393.51 71.0505,392.349 71.0365,391.154 71.0287,390.025 71.0284,388.867 71.0371,387.764 71.0405,386.596 71.0563,385.468 71.0696,384.372 71.0704,383.264 71.0675,382.164 71.0627,381.033 71.0527,379.928 71.041,378.827 71.0276,377.716 71.0159,376.611 71.0066,375.428 71.0036,374.202 70.9895,373.102 70.9797,371.913 70.9211,370.89 70.8758,369.75 70.8292,368.671 70.8,367.494 70.7838,366.294 70.7555,365.177 70.7121,364.069 70.6577,363.041 70.6261,361.89 70.5933,360.832 70.6001,359.671 70.6013,358.614 70.6139,357.473 70.6174,356.292 70.5994,355.176 70.581,354.028 70.5454,352.982 70.523,351.896 70.4919,350.87 70.466,349.756 70.4197,348.713 70.39,347.566 70.3462,346.483 70.3073,345.361 70.2708,344.226 70.2324,343.085 70.1917,341.96 70.1577,340.788 70.1181,339.648 70.0734,338.518 70.012,337.467 69.9686,336.366 69.916,335.286 69.8723,334.218 69.8433,333.082 69.8265,331.962 69.8112,330.834 69.7974,329.74 69.7798,328.628 69.747,327.591 69.7104,326.505 69.659,325.545 69.6066,324.483 69.5595,323.348 69.5067,322.31 69.4577,321.142 69.4133,320.003 69.3711,318.815 69.3249,317.746 69.2778,316.602 69.2345,315.546 69.1917,314.457 69.1543,313.332 69.1324,312.143 69.1061,310.975 69.0803,309.807 69.0414,308.693 69.016,307.482 69.0214,306.236 68.97,305.079 68.9104,303.986 68.8729,302.817 68.8191,301.754 68.7836,300.575 68.6826,299.68 68.6195,298.621 68.5736,297.549 68.5452,296.445 68.51,295.291 68.5146,294.178 68.5116,292.998 68.5219,291.887 68.5116,290.679 68.5,289.5 " fill="none" stroke-width="1" stroke="rgb(0,0,255)" />
	<polyline points="77.9592,447.879 78.2802,447.688 78.6019,447.496 78.9241,447.304 79.2441,447.129 79.5644,446.953 79.8895,446.766 80.2063,446.584 80.5233,446.401 80.8406,446.218 81.1582,446.035 81.4662,445.861 81.7753,445.686 82.0856,445.511 82.3958,445.324 82.7055,445.137 83.0149,444.95 83.3265,444.783 83.6391,444.616 83.9526,444.448 84.263,444.279 84.5745,444.109 84.8872,443.939 85.1913,443.776 85.4962,443.612 85.8018,443.448 86.1082,443.283 86.4243,443.102 86.74,442.92 87.0497,442.744 87.3546,442.571 87.661,442.398 87.9691,442.224 88.2701,442.047 88.5864,441.861 88.9038,441.674 89.2132,441.497 89.5235,441.318 89.8348,441.139 90.1472,440.96 90.4418,440.79 90.7367,440.619 91.0317,440.449 91.3373,440.268 91.6439,440.086 91.9515,439.906 92.2596,439.735 92.5683,439.564 92.8774,439.393 93.1925,439.212 93.5075,439.03 93.8181,438.845 94.1303,438.659 94.4255,438.482 94.723,438.303 95.0228,438.123 95.3374,437.933 95.6557,437.748 95.9752,437.562 96.2893,437.393 96.6044,437.225 96.9204,437.056 97.228,436.87 97.5357,436.685 97.8436,436.5 98.1517,436.314 98.4555,436.129 98.7599,435.943 99.0703,435.768 99.3728,435.587 99.6757,435.407 99.979,435.226 100.292,435.046 100.598,434.864 100.904,434.683 101.216,434.496 101.529,434.31 101.841,434.124 102.153,433.939 102.467,433.753 102.78,433.569 103.093,433.384 103.404,433.204 103.713,433.025 104.027,432.844 104.334,432.672 104.641,432.5 104.948,432.328 105.259,432.154 105.569,431.98 105.884,431.811 106.197,431.643 106.511,431.475 106.823,431.307 107.136,431.139 107.459,430.967 107.777,430.793 108.094,430.618 108.424,430.449 108.752,430.281 109.08,430.113 109.409,429.936 109.745,429.762 110.081,429.587 110.397,429.435 110.712,429.283 111.027,429.132 111.365,428.962 111.701,428.788 112.038,428.614 112.353,428.45 112.669,428.287 112.984,428.124 113.318,427.944 113.652,427.769 113.988,427.592 114.299,427.43 114.609,427.267 114.92,427.105 115.245,426.934 115.569,426.76 115.892,426.585 116.202,426.418 116.512,426.251 116.823,426.084 117.134,425.915 117.447,425.748 117.76,425.582 118.072,425.416 118.384,425.25 118.696,425.085 119.008,424.919 119.318,424.753 119.628,424.587 119.937,424.422 120.261,424.251 120.584,424.08 120.9,423.911 121.204,423.74 121.508,423.569 121.811,423.398 122.114,423.228 122.436,423.049 122.765,422.869 123.093,422.689 123.411,422.512 123.728,422.336 124.045,422.159 124.364,421.987 124.69,421.809 125.015,421.632 125.326,421.461 125.635,421.29 125.942,421.12 126.272,420.945 126.578,420.777 126.884,420.608 127.191,420.435 127.498,420.262 127.804,420.089 128.11,419.914 128.444,419.731 128.778,419.547 129.11,419.363 129.43,419.179 129.75,418.994 130.043,418.81 130.347,418.624 130.653,418.436 130.959,418.248 131.249,418.059 131.551,417.878 131.855,417.695 132.183,417.494 132.512,417.292 132.842,417.09 133.155,416.897 133.446,416.712 133.737,416.526 134.03,416.339 134.346,416.139 134.66,415.94 134.97,415.735 135.263,415.553 135.555,415.372 135.849,415.191 136.142,415.009 136.452,414.817 136.763,414.626 137.074,414.434 137.358,414.262 137.644,414.089 137.932,413.91 138.228,413.723 138.525,413.535 138.821,413.349 139.118,413.162 139.413,412.985 139.709,412.817 140.006,412.649 140.33,412.47 140.655,412.291 140.98,412.113 141.289,411.948 141.591,411.771 141.896,411.594 142.192,411.422 142.488,411.251 142.783,411.081 143.1,410.912 143.426,410.73 143.752,410.547 144.079,410.364 144.387,410.185 144.695,410.006 144.986,409.829 145.274,409.647 145.561,409.466 145.847,409.286 146.131,409.107 146.417,408.923 146.706,408.744 146.997,408.565 147.303,408.378 147.611,408.19 147.919,408.002 148.206,407.812 148.494,407.622 148.782,407.431 149.071,407.24 149.357,407.061 149.662,406.87 149.967,406.68 150.257,406.5 150.547,406.32 150.837,406.14 151.127,405.96 151.424,405.783 151.721,405.607 152.018,405.429 152.322,405.245 152.625,405.06 152.918,404.886 153.225,404.699 153.531,404.513 153.836,404.327 154.141,404.142 154.432,403.973 154.732,403.797 155.032,403.62 155.331,403.434 155.63,403.249 155.928,403.063 156.221,402.886 156.515,402.709 156.807,402.532 157.099,402.354 157.388,402.178 157.675,402.003 157.965,401.813 158.258,401.622 158.551,401.431 158.844,401.24 159.137,401.049 159.419,400.872 159.701,400.697 159.982,400.521 160.291,400.319 160.599,400.116 160.907,399.913 161.192,399.721 161.477,399.528 161.761,399.336 162.044,399.145 162.346,398.938 162.67,398.736 162.993,398.534 163.281,398.354 163.569,398.174 163.855,397.994 164.166,397.785 164.474,397.578 164.78,397.373 165.083,397.17 165.376,396.977 165.661,396.796 165.946,396.615 166.247,396.437 166.545,396.26 166.842,396.084 167.143,395.902 167.443,395.722 167.743,395.543 168.043,395.364 168.34,395.189 168.638,395.015 168.936,394.848 169.218,394.684 169.499,394.52 169.78,394.355 170.061,394.191 170.372,394.021 170.668,393.844 170.966,393.666 171.265,393.495 171.565,393.324 171.865,393.153 172.16,392.976 172.474,392.797 172.788,392.617 173.102,392.438 173.401,392.259 173.699,392.079 173.99,391.904 174.294,391.727 174.599,391.551 174.903,391.374 175.193,391.203 175.484,391.032 175.796,390.846 176.108,390.661 176.416,390.478 176.725,390.295 177.034,390.112 177.348,389.939 177.655,389.763 177.963,389.588 178.288,389.402 178.613,389.217 178.937,389.032 179.248,388.881 179.559,388.73 179.87,388.579 180.194,388.411 180.517,388.244 180.841,388.076 181.171,387.912 181.501,387.749 181.831,387.585 182.178,387.44 182.527,387.295 182.876,387.151 183.21,387.002 183.531,386.854 183.852,386.706 184.181,386.554 184.511,386.401 184.842,386.248 185.166,386.104 185.491,385.959 185.826,385.802 186.16,385.645 186.5,385.5 " fill="none" stroke-width="1" stroke="rgb(0,0,255)" />
	<polyline points="72.6553,450.008 73.7129,449.993 75.0324,449.479 76.0858,449.119 77.0021,448.567 77.9592,447.879 " fill="none" stroke-width="1" stroke="rgb(0,0,255)" />
	<polyline points="49.5,444.5 49.8861,444.618 50.2593,444.748 50.6328,444.877 51.0066,445.006 51.3867,445.113 51.7674,445.22 52.1487,445.326 52.5034,445.439 52.8586,445.551 53.2428,445.645 53.6283,445.736 54.0151,445.825 54.3738,445.906 54.7339,445.986 55.084,446.096 55.4479,446.192 55.8131,446.286 56.1796,446.379 56.5371,446.48 56.8957,446.581 57.2581,446.675 57.6218,446.768 57.9867,446.86 58.3332,446.964 58.6899,447.064 59.0475,447.164 59.404,447.262 59.7614,447.36 60.1196,447.458 60.4701,447.56 60.8212,447.662 61.1728,447.763 61.5264,447.866 61.8806,447.968 62.2218,448.073 62.5633,448.178 62.9051,448.282 63.2591,448.393 63.6134,448.504 63.9679,448.614 64.3126,448.722 64.6575,448.83 65.0025,448.937 65.3639,449.045 65.7177,449.155 66.0717,449.265 66.429,449.371 66.7864,449.477 67.1439,449.583 67.501,449.69 67.8581,449.797 68.2307,449.899 68.6032,450 68.9712,450.104 69.3553,450.203 69.7395,450.301 70.1236,450.4 70.5,450.5 " fill="none" stroke-width="1" stroke="rgb(0,0,255)" />
	<polyline points="70.5,450.5 71.9666,449.964 73.109,449.939 74.3069,449.816 75.6557,449.018 76.7465,448.466 77.9592,447.879 " fill="none" stroke-width="1" stroke="rgb(0,0,255)" />
	<polyline points="185.5,311.5 185.455,311.948 185.426,312.443 185.418,312.958 185.415,313.453 185.413,313.952 185.408,314.488 185.403,315.028 185.401,315.556 185.397,316.089 185.39,316.656 185.379,317.229 185.373,317.797 185.366,318.396 185.358,319.004 185.358,319.616 185.357,320.237 185.355,320.884 185.363,321.538 185.37,322.201 185.373,322.881 185.393,323.56 185.413,324.247 185.424,324.946 185.458,325.628 185.492,326.313 185.526,326.999 185.563,327.678 185.587,328.373 185.611,329.07 185.636,329.763 185.654,330.46 185.671,331.159 185.69,331.853 185.709,332.557 185.727,333.261 185.734,333.971 185.741,334.691 185.734,335.411 185.727,336.131 185.734,336.851 185.739,337.568 185.745,338.284 185.752,339.005 185.752,339.726 185.756,340.445 185.761,341.165 185.756,341.892 185.783,342.604 185.81,343.317 185.813,344.052 185.842,344.762 185.854,345.495 185.867,346.23 185.882,346.96 185.892,347.699 185.894,348.44 185.895,349.181 185.899,349.927 185.899,350.672 185.913,351.412 185.927,352.153 185.932,352.897 185.968,353.595 186.004,354.295 186.03,355.033 186.064,355.728 186.083,356.474 186.102,357.219 186.116,357.939 186.111,358.691 186.119,359.413 186.127,360.132 186.112,360.873 186.106,361.599 186.1,362.325 186.072,363.052 186.049,363.777 186.022,364.507 185.996,365.238 185.993,365.962 185.988,366.704 185.994,367.432 186,368.165 185.999,368.91 186.01,369.653 186.013,370.411 186.016,371.176 186.022,371.942 186.028,372.715 186.046,373.47 186.064,374.233 186.083,374.998 186.117,375.722 186.148,376.456 186.179,377.194 186.23,377.87 186.274,378.566 186.318,379.265 186.367,379.933 186.394,380.637 186.421,381.343 186.408,382.075 186.384,382.806 186.41,383.494 186.436,384.184 186.466,384.838 186.5,385.5 " fill="none" stroke-width="1" stroke="rgb(0,0,255)" />
	<polyline points="212.5,316.5 212.45,317.444 212.34,318.074 212.248,318.898 212.136,319.541 212.025,320.183 211.922,320.92 211.821,321.597 211.733,322.44 211.646,323.277 211.556,324.034 211.475,324.941 211.402,325.803 211.343,326.801 211.29,327.753 211.247,328.777 211.21,329.753 211.179,330.754 211.15,331.708 211.123,332.671 211.095,333.594 211.064,334.527 211.034,335.452 211.005,336.35 210.987,337.267 210.97,338.17 210.954,339.084 210.923,339.98 210.887,340.887 210.855,341.775 210.823,342.676 210.794,343.566 210.77,344.463 210.747,345.36 210.727,346.262 210.713,347.155 210.704,348.066 210.7,348.955 210.698,349.87 210.705,350.751 210.699,351.665 210.704,352.555 210.694,353.465 210.686,354.373 210.68,355.274 210.664,356.172 210.657,357.073 210.646,357.972 210.648,358.87 210.65,359.767 210.653,360.658 210.645,361.54 210.638,362.416 210.653,363.281 210.654,364.152 210.689,364.987 210.683,365.86 210.699,366.726 210.68,367.598 210.678,368.483 210.677,369.375 210.649,370.257 210.646,371.151 210.624,372.045 210.639,372.932 210.644,373.841 210.648,374.746 210.651,375.656 210.65,376.564 210.665,377.466 210.681,378.37 210.693,379.268 210.716,380.161 210.74,381.041 210.773,381.916 210.809,382.772 210.849,383.631 210.891,384.478 210.933,385.335 210.975,386.192 211.021,387.06 211.08,387.902 211.144,388.761 211.213,389.581 211.283,390.402 211.347,391.284 211.404,392.129 211.45,393.042 211.485,393.916 211.515,394.847 211.535,395.726 211.562,396.631 211.579,397.495 211.596,398.36 211.627,399.276 211.653,400.141 211.702,401.01 211.718,401.906 211.759,402.802 211.765,403.703 211.794,404.615 211.817,405.52 211.839,406.424 211.882,407.305 211.921,408.187 211.959,409.076 211.992,409.965 212.008,410.852 212.036,411.77 212.04,412.693 212.053,413.611 212.061,414.522 212.071,415.43 212.088,416.345 212.106,417.242 212.12,418.16 212.132,419.05 212.126,419.957 212.135,420.827 212.129,421.736 212.155,422.603 212.161,423.521 212.168,424.443 212.207,425.3 212.225,426.22 212.269,427.063 212.286,427.977 212.33,428.813 212.343,429.713 212.391,430.528 212.438,431.346 212.455,432.241 212.514,433.025 212.539,433.906 212.606,434.661 212.636,435.539 212.666,436.419 212.73,437.175 212.745,438.07 212.793,438.851 212.795,439.755 212.829,440.552 212.829,441.463 212.828,442.369 212.851,443.205 212.854,444.123 212.86,444.989 212.856,445.904 212.849,446.782 212.839,447.694 212.826,448.573 212.815,449.482 212.803,450.385 212.786,451.267 212.769,452.166 212.749,453.059 212.729,453.959 212.711,454.86 212.692,455.764 212.679,456.672 212.66,457.581 212.651,458.493 212.641,459.409 212.623,460.329 212.622,461.246 212.61,462.173 212.612,463.096 212.605,464.02 212.603,464.938 212.566,465.837 212.534,466.725 212.487,467.608 212.45,468.47 212.413,469.334 212.374,470.219 212.321,471.041 212.293,471.893 212.166,472.579 212.046,473.266 211.997,474.077 212.004,474.883 211.993,475.722 211.997,476.538 211.996,477.348 211.965,478.145 211.915,478.903 211.848,479.717 211.762,480.416 211.676,481.115 211.583,481.789 211.5,482.5 " fill="none" stroke-width="1" stroke="rgb(0,0,255)" />
	<polyline points="211.5,482.5 212.024,482.575 212.556,482.646 213.089,482.717 213.617,482.799 214.146,482.882 214.683,482.96 215.185,483.048 215.694,483.138 216.204,483.228 216.696,483.33 217.189,483.433 217.699,483.534 218.21,483.636 218.696,483.745 219.182,483.856 219.681,483.966 220.147,484.069 220.604,484.173 221.06,484.277 221.512,484.373 221.964,484.469 222.412,484.558 222.861,484.647 223.307,484.726 223.754,484.804 224.201,484.882 224.654,484.953 225.107,485.024 225.551,485.095 225.995,485.165 226.451,485.225 226.907,485.285 227.366,485.347 227.826,485.409 228.286,485.462 228.745,485.516 229.204,485.569 229.669,485.627 230.134,485.684 230.584,485.737 231.033,485.789 231.499,485.845 231.965,485.901 232.412,485.953 232.859,486.003 233.31,486.07 233.76,486.137 234.209,486.205 234.665,486.258 235.12,486.312 235.578,486.379 236.036,486.445 236.5,486.5 " fill="none" stroke-width="1" stroke="rgb(0,0,255)" />
</g></svg>
