<?xml version="1.0" ?>
<svg xmlns="http://www.w3.org/2000/svg" xmlns:ev="http://www.w3.org/2001/xml-events" xmlns:xlink="http://www.w3.org/1999/xlink" baseProfile="full" height="600px" version="1.1" viewBox="15.764648049999998 10.749558050000005 342.6627039 519.1969839" width="396px">
	<defs/>
	<path d="M 329.5,70.5 L 329.692,83.6171 L 329.025,105.16 L 328.806,122.824 L 328.39,137.773 L 328.408,147.38 L 328.04,159.437 L 327.922,181.368 L 328.389,207.082 L 328.05,225.971 L 327.601,239.492 L 327.483,250.462 L 327.152,258.404 L 327.181,266.328 L 326.307,293.419 L 326.438,298.709 L 326.398,309.399 L 326.704,317.406 L 327.073,336.306 L 327.079,379.618 L 327.394,393.185 L 327.316,398.971 L 327.026,403.666" fill="none" stroke="rgb(31,119,180)" stroke-width="3"/>
	<path d="M 236.5,486.5 L 237.978,474.851 L 236.413,458.087 L 235.46,433.661 L 235.58,422.514 L 235.485,412.395 L 235.688,399.977 L 234.735,373.136 L 234.745,367.493 L 234.084,354.533 L 233.783,334.329 L 233.894,316.335 L 233.5,292.5" fill="none" stroke="rgb(174,199,232)" stroke-width="3"/>
	<path d="M 44.5,259.5 L 44.9362,271.815 L 45.6498,285.05 L 45.9611,299.907 L 45.9188,309.973 L 46.6356,320.261 L 47.3031,334.956 L 47.5772,356.028 L 48.5768,385.365 L 48.5431,396.146 L 48.7086,406.064 L 48.3528,417.394 L 48.4175,427.204 L 48.7257,436.851 L 49.5,444.5" fill="none" stroke="rgb(255,127,14)" stroke-width="3"/>
	<path d="M 59.0606,258.809 L 61.3736,260.136 L 65.647,261.996 L 71.0426,263.878 L 79.9264,266.246 L 87.8378,267.927 L 93.5244,268.981 L 106.903,271.108 L 119.174,273.626 L 132.966,276.111 L 152.206,279.835 L 178.974,284.089 L 199.883,288.222 L 215.376,291.007 L 220.471,291.72 L 228.91,292.611 L 233.5,292.5" fill="none" stroke="rgb(255,187,120)" stroke-width="3"/>
	<path d="M 312.5,68.5 L 311.974,74.8549 L 311.809,97.0891 L 311.588,103.763 L 311.441,139.307 L 311.694,146.407 L 311.635,153.667 L 311.118,184.64 L 310.79,191.671 L 310.486,213.434 L 310.599,224.526 L 310.923,236.52 L 315.5,240.5" fill="none" stroke="rgb(44,160,44)" stroke-width="3"/>
	<path d="M 146.5,54.5 L 155.125,54.1961 L 161.78,54.4896 L 188.929,56.8871 L 197.083,57.9583 L 225.283,60.979 L 244.903,61.9244 L 257.806,62.9473 L 276.373,63.9232 L 283.003,64.8114 L 297.299,66.3572 L 312.5,68.5" fill="none" stroke="rgb(152,223,138)" stroke-width="3"/>
	<path d="M 212.5,316.5 L 211.556,324.034 L 211.29,327.753 L 210.727,346.262 L 210.646,357.972 L 210.716,380.161 L 211.485,393.916 L 212.036,411.77 L 212.168,424.443 L 212.793,438.851 L 212.851,443.205 L 212.603,464.938 L 212.293,471.893 L 211.997,474.077 L 211.965,478.145 L 211.5,482.5" fill="none" stroke="rgb(214,39,40)" stroke-width="3"/>
	<path d="M 153.5,215.5 L 152.832,204.255 L 151.64,192.922 L 150.799,180.544 L 149.402,164.833 L 148.738,152.712 L 147.956,124.205 L 147.797,109.826 L 147.12,85.1814 L 146.621,74.36 L 146.5,54.5" fill="none" stroke="rgb(255,152,150)" stroke-width="3"/>
	<path d="M 70.5,450.5 L 72.0475,443.727 L 71.0413,402.501 L 71.0036,374.202 L 70.5933,360.832 L 70.581,354.028 L 69.0214,306.236 L 68.5736,297.549 L 68.5,289.5" fill="none" stroke="rgb(148,103,189)" stroke-width="3"/>
	<path d="M 153.5,215.5 L 160.291,217.037 L 170.069,219.193 L 191.061,222.074 L 214.919,226.661 L 235.968,230.285 L 257.932,233.12 L 276.061,235.272 L 281.863,236.125 L 287.868,237.411 L 293.874,239.2 L 302.668,242.501 L 303.964,243.082 L 304.762,243.796" fill="none" stroke="rgb(197,176,213)" stroke-width="3"/>
	<path d="M 70.5,450.5 L 87.9691,442.224 L 105.569,431.98 L 120.9,423.911 L 129.11,419.363 L 139.118,413.162 L 144.986,409.829 L 157.675,402.003 L 168.043,395.364 L 178.937,389.032 L 186.5,385.5" fill="none" stroke="rgb(140,86,75)" stroke-width="3"/>
	<path d="M 68.5,289.5 L 75.0223,290.35 L 92.079,293.573 L 130.223,299.291 L 137.874,300.628 L 149.553,302.974 L 175.079,309.388 L 182.798,311.153 L 185.5,311.5" fill="none" stroke="rgb(196,156,148)" stroke-width="3"/>
	<path d="M 236.5,486.5 L 243.024,478.947 L 246.143,476.506 L 255.13,469.025 L 262.027,462.942 L 273.182,453.883 L 283.063,445.024 L 292.754,436.979 L 311.904,419.46 L 327.026,403.666" fill="none" stroke="rgb(227,119,194)" stroke-width="3"/>
	<path d="M 59.0606,258.809 L 60.2176,256.951 L 61.8956,255.069 L 62.5742,254.525 L 66.4776,252.426 L 73.8778,248.932 L 83.17,244.778 L 99.0657,238.241 L 110.907,233.054 L 120.892,228.987 L 132.085,224.73 L 153.5,215.5" fill="none" stroke="rgb(247,182,210)" stroke-width="3"/>
	<path d="M 233.5,292.5 L 244.136,285.396 L 291.464,256.051 L 294.912,253.553 L 299.289,249.944 L 302.439,246.74 L 304.762,243.796" fill="none" stroke="rgb(127,127,127)" stroke-width="3"/>
	<path d="M 185.5,311.5 L 185.373,322.881 L 185.727,333.261 L 185.756,341.892 L 186.116,357.939 L 186.028,372.715 L 186.5,385.5" fill="none" stroke="rgb(199,199,199)" stroke-width="3"/>
	<path d="M 185.5,311.5 L 189.76,312.067 L 201.928,314.139 L 209.569,316.008 L 212.5,316.5" fill="none" stroke="rgb(188,189,34)" stroke-width="3"/>
	<path d="M 211.5,482.5 L 216.204,483.228 L 224.201,484.882 L 236.5,486.5" fill="none" stroke="rgb(219,219,141)" stroke-width="3"/>
	<path d="M 49.5,444.5 L 70.5,450.5" fill="none" stroke="rgb(23,190,207)" stroke-width="3"/>
	<path d="M 312.5,68.5 L 315.819,68.9975 L 325.633,69.9596 L 329.5,70.5" fill="none" stroke="rgb(158,218,229)" stroke-width="3"/>
	<path d="M 44.5,259.5 L 59.0606,258.809" fill="none" stroke="rgb(31,119,180)" stroke-width="3"/>
	<path d="M 304.762,243.796 L 315.5,240.5" fill="none" stroke="rgb(174,199,232)" stroke-width="3"/>
</svg>
