<?xml version="1.0" standalone="no" ?>
<!DOCTYPE svg PUBLIC "-//W3C//DTD SVG 1.1//EN" "http://www.w3.org/Graphics/SVG/1.1/DTD/svg11.dtd">
<svg width="512px" height="512px" xmlns="http://www.w3.org/2000/svg" xmlns:xlink="http://www.w3.org/1999/xlink" version="1.1" >

<g>	<image style="overflow: visible; opacity: 0.4" width="512" height="512" xlink:href="armchair1_0_clean_512_erode.png" />

</g>
<g>	<polyline points="297.262,93.971 297.572,93.7484 297.881,93.5264 298.173,93.3134 298.466,93.1009 298.762,92.8889 299.06,92.6772 299.356,92.4703 299.652,92.2641 299.949,92.0585 300.252,91.8402 300.561,91.6197 300.876,91.3978 301.195,91.1734 301.521,90.9546 301.862,90.7428 302.201,90.5405 302.542,90.3383 302.885,90.1364 303.215,89.9514 303.555,89.7573 303.899,89.5637 304.249,89.3626 304.606,89.1607 304.969,88.9581 305.369,88.7518 305.77,88.5469 306.173,88.3435 306.561,88.1818 306.954,88.0215 307.32,87.8497 307.688,87.6794 308.057,87.5105 308.408,87.3416 308.761,87.1739 309.115,87.0073 309.489,86.8432 309.865,86.6801 310.215,86.5265 310.565,86.3741 310.916,86.2228 311.278,86.0581 311.676,85.8946 312.074,85.7326 312.438,85.5726 312.801,85.4145 313.253,85.2584 313.704,85.1049 314.154,84.9537 314.503,84.8107 314.852,84.6689 315.245,84.516 315.641,84.3641 316.04,84.213 316.411,84.0777 316.783,83.9435 317.25,83.7951 317.715,83.6493 318.177,83.5059 318.623,83.4013 319.068,83.2983 319.553,83.1955 320.037,83.0953 320.509,83.0218 320.967,82.9407 321.469,82.8665 321.971,82.7941 322.445,82.7267 322.919,82.6608 323.397,82.5817 323.876,82.5042 324.319,82.427 324.764,82.3511 325.208,82.2765 325.687,82.1991 326.166,82.1231 326.608,82.0551 327.051,81.9879 327.468,81.9131 327.888,81.839 328.297,81.7717 328.708,81.7054 329.122,81.6402 329.543,81.5768 329.966,81.5145 330.389,81.4584 330.812,81.403 331.244,81.3475 331.676,81.2928 332.108,81.2391 332.54,81.1943 332.972,81.1506 333.406,81.1005 333.84,81.0518 334.276,81.0109 334.719,80.9593 335.162,80.9091 335.605,80.8658 336.046,80.8236 336.495,80.7928 336.942,80.7633 337.389,80.742 337.835,80.7218 338.29,80.7096 338.744,80.6986 339.196,80.6888 339.647,80.6854 340.097,80.6832 340.564,80.6921 341.028,80.7043 341.492,80.7319 341.954,80.7659 342.412,80.8193 342.87,80.8738 343.342,80.9353 343.815,80.998 344.25,81.0601 344.685,81.1242 345.119,81.1901 345.581,81.2614 346.044,81.3343 346.468,81.4156 346.894,81.498 347.359,81.595 347.828,81.6932 348.24,81.7804 348.655,81.8691 349.072,81.9595 349.545,82.0719 350.019,82.1865 350.42,82.2934 350.822,82.4014 351.245,82.5227 351.669,82.646 352.096,82.7712 352.478,82.8874 352.861,83.0051 353.293,83.1338 353.728,83.2646 354.165,83.3973 354.551,83.5167 354.939,83.6376 355.351,83.7695 355.765,83.9028 356.182,84.0374 356.567,84.1678 356.953,84.2999 357.37,84.4381 357.788,84.5778 358.207,84.719 358.6,84.8477 358.995,84.9774 359.407,85.1244 359.82,85.2715 360.211,85.4188 360.603,85.567 360.993,85.7161 361.41,85.8729 361.827,86.0286 362.224,86.1702 362.62,86.3116 363.016,86.4526 363.471,86.6411 363.925,86.8303 364.328,86.9932 364.729,87.1654 365.129,87.3378 365.528,87.5044 365.926,87.6704 366.327,87.8496 366.727,88.0294 367.122,88.2043 367.543,88.4132 367.963,88.622 368.347,88.8034 368.73,88.9857 369.129,89.199 369.515,89.3914 369.9,89.5836 370.298,89.8053 370.694,90.0282 371.061,90.2164 371.475,90.4559 371.887,90.694 372.248,90.8891 372.615,91.1134 373.004,91.362 373.386,91.5815 373.764,91.803 374.138,92.0255 374.5,92.2471 374.859,92.4675 375.264,92.7482 375.664,93.0275 376.065,93.3021 376.434,93.5797 376.799,93.8577 377.161,94.136 377.556,94.4646 377.945,94.7915 378.292,95.0511 378.63,95.3359 378.967,95.6216 379.328,95.9286 379.691,96.2571 380.055,96.5869 380.39,96.8575 380.727,97.1314 381.041,97.4087 381.379,97.7042 381.719,98.0036 382.071,98.3303 382.399,98.6105 382.729,98.8929 383.039,99.1759 383.348,99.4665 383.66,99.7601 383.972,100.057 384.282,100.35 384.594,100.646 384.907,100.943 385.21,101.235 385.514,101.528 385.817,101.823 386.121,102.117 386.426,102.413 386.729,102.709 387.032,103.003 387.334,103.299 387.634,103.594 387.932,103.886 388.237,104.186 388.539,104.482 388.839,104.776 389.136,105.067 389.44,105.373 389.741,105.676 390.04,105.978 390.371,106.302 390.699,106.623 391.025,106.942 391.35,107.268 391.673,107.593 391.996,107.916 392.336,108.238 392.675,108.559 393.014,108.878 393.351,109.2 393.687,109.522 394.023,109.842 394.34,110.133 394.674,110.436 395.007,110.737 395.302,111 395.646,111.331 395.988,111.661 396.331,111.991 396.691,112.332 397.05,112.673 397.342,112.953 397.666,113.305 397.989,113.659 398.324,114.02 398.633,114.374 398.942,114.73 399.216,115.031 399.51,115.375 399.805,115.719 400.102,116.065 400.372,116.392 400.64,116.719 400.908,117.048 401.202,117.395 401.497,117.743 401.795,118.092 402.102,118.432 402.379,118.75 402.654,119.068 402.937,119.385 403.231,119.729 403.524,120.073 403.837,120.414 404.15,120.753 404.433,121.065 404.724,121.382 405.015,121.696 405.305,122.02 405.603,122.336 405.901,122.65 406.186,122.965 406.458,123.286 406.729,123.604 406.997,123.921 407.294,124.253 407.586,124.583 407.868,124.908 408.118,125.226 408.333,125.534 408.541,125.849 408.753,126.177 408.959,126.511 409.186,126.867 409.392,127.236 409.593,127.612 409.79,127.996 409.986,128.367 410.157,128.728 410.326,129.094 410.493,129.456 410.657,129.822 410.813,130.192 410.968,130.563 411.133,130.945 411.286,131.333 411.437,131.722 411.588,132.113 411.746,132.508 411.903,132.905 412.05,133.298 412.195,133.671 412.34,134.047 412.483,134.425 412.627,134.804 412.77,135.186 412.922,135.568 413.077,135.974 413.219,136.393 413.363,136.808 413.511,137.236 413.658,137.663 413.802,138.09 413.934,138.495 414.07,138.89 414.209,139.281 414.346,139.671 414.481,140.06 414.606,140.469 414.729,140.876 414.852,141.285 414.975,141.693 415.082,142.116 415.185,142.523 415.287,142.93 415.381,143.36 415.472,143.791 415.555,144.228 415.635,144.665 415.713,145.101 415.781,145.557 415.848,146.013 415.905,146.483 415.961,146.953 416.02,147.42 416.088,147.87 416.152,148.33 416.218,148.787 416.289,149.233 416.36,149.676 416.433,150.119 416.499,150.552 416.566,150.986 416.631,151.424 416.696,151.864 416.752,152.299 416.807,152.738 416.862,153.181 416.91,153.634 416.957,154.093 416.999,154.554 417.036,155.001 417.072,155.466 417.109,155.933 417.148,156.382 417.187,156.83 417.23,157.286 417.272,157.738 417.315,158.184 417.364,158.623 417.413,159.056 417.468,159.492 417.522,159.925 417.586,160.35 417.648,160.776 417.708,161.202 417.76,161.654 417.808,162.108 417.853,162.549 417.897,162.994 417.92,163.457 417.94,163.924 417.955,164.388 417.967,164.856 417.963,165.317 417.956,165.779 417.941,166.247 417.924,166.714 417.905,167.178 417.871,167.616 417.835,168.052 417.79,168.492 417.741,168.929 417.687,169.348 417.631,169.767 417.573,170.189 417.52,170.614 417.466,171.044 417.417,171.478 417.367,171.921 417.328,172.359 417.289,172.807 417.257,173.262 417.227,173.724 417.197,174.195 417.173,174.652 417.15,175.115 417.131,175.578 417.113,176.047 417.097,176.505 417.082,176.968 417.068,177.429 417.055,177.893 417.042,178.353 417.029,178.815 417.017,179.272 417.005,179.727 416.991,180.196 416.974,180.659 416.958,181.121 416.938,181.578 416.918,182.032 416.893,182.486 416.869,182.937 416.84,183.382 416.811,183.824 416.775,184.269 416.739,184.712 416.703,185.154 416.668,185.595 416.633,186.035 416.595,186.478 416.558,186.918 416.527,187.369 416.496,187.816 416.465,188.277 416.435,188.732 416.407,189.183 416.378,189.643 416.35,190.097 416.315,190.559 416.282,191.014 416.246,191.476 416.213,191.933 416.179,192.389 416.148,192.844 416.12,193.3 416.094,193.756 416.069,194.213 416.051,194.662 416.033,195.113 416.023,195.569 416.013,196.027 416.008,196.48 416.003,196.935 416.002,197.394 416,197.855 415.999,198.32 415.997,198.79 415.988,199.252 415.979,199.716 415.968,200.179 415.949,200.651 415.928,201.121 415.896,201.57 415.863,202.019 415.819,202.476 415.773,202.933 415.722,203.366 415.668,203.8 415.614,204.238 415.559,204.678 415.503,205.118 415.451,205.548 415.398,205.98 415.355,206.424 415.31,206.87 415.274,207.314 415.237,207.759 415.201,208.205 415.169,208.662 415.137,209.118 415.108,209.568 415.079,210.015 415.051,210.481 415.023,210.944 414.993,211.401 414.965,211.843 414.936,212.288 414.906,212.732 414.875,213.176 414.843,213.624 414.811,214.072 414.774,214.528 414.736,214.987 414.693,215.448 414.652,215.913 414.609,216.379 414.565,216.846 414.518,217.314 414.471,217.783 414.429,218.239 414.386,218.697 414.343,219.155 414.304,219.618 414.264,220.08 414.225,220.527 414.187,220.972 414.15,221.422 414.113,221.87 414.076,222.308 414.04,222.744 414.004,223.177 413.968,223.626 413.932,224.071 413.895,224.514 413.858,224.954 413.819,225.392 413.779,225.829 413.741,226.271 413.704,226.713 413.665,227.154 413.625,227.599 413.583,228.043 413.539,228.501 413.493,228.958 413.438,229.411 413.384,229.864 413.32,230.322 413.257,230.779 413.187,231.232 413.116,231.683 413.045,232.131 412.97,232.575 412.892,233.03 412.815,233.469 412.737,233.907 412.659,234.339 412.581,234.768 412.503,235.197 412.427,235.619 412.35,236.041 412.274,236.461 412.197,236.881 412.124,237.311 412.051,237.742 411.978,238.174 411.903,238.601 411.825,239.028 411.741,239.458 411.655,239.888 411.564,240.303 411.472,240.718 411.377,241.134 411.28,241.571 411.181,242.008 411.077,242.421 410.971,242.834 410.869,243.278 410.767,243.722 410.665,244.167 410.562,244.575 410.459,244.983 410.363,245.411 410.267,245.841 410.166,246.244 410.065,246.65 409.963,247.058 409.86,247.488 409.755,247.921 409.652,248.34 409.549,248.762 409.444,249.188 409.324,249.621 409.204,250.058 409.081,250.483 408.957,250.91 408.827,251.32 408.696,251.733 408.567,252.149 408.421,252.577 408.273,253.007 408.141,253.425 408.009,253.846 407.882,254.255 407.754,254.664 407.625,255.073 407.478,255.511 407.332,255.949 407.208,256.357 407.083,256.764 406.957,257.169 406.828,257.598 406.701,258.026 406.573,258.452 406.447,258.877 406.333,259.305 406.221,259.731 406.11,260.157 405.992,260.582 405.884,261.006 405.763,261.454 405.643,261.901 405.539,262.332 405.436,262.76 405.334,263.186 405.219,263.617 405.105,264.045 405.004,264.472 404.897,264.908 404.802,265.324 404.708,265.74 404.615,266.154 404.53,266.587 404.446,267.019 404.369,267.439 404.294,267.858 404.216,268.289 404.139,268.72 404.063,269.151 403.988,269.564 403.906,270 403.825,270.42 403.745,270.842 403.659,271.287 403.573,271.734 403.488,272.182 403.411,272.611 403.334,273.04 403.253,273.486 403.172,273.934 403.092,274.359 403.01,274.782 402.934,275.227 402.859,275.671 402.784,276.115 402.709,276.577 402.634,277.037 402.571,277.473 402.509,277.907 402.448,278.355 402.388,278.801 402.334,279.228 402.279,279.653 402.226,280.077 402.171,280.516 402.116,280.953 402.063,281.378 402.01,281.801 401.953,282.221 401.896,282.639 401.839,283.056 401.777,283.469 401.716,283.882 401.655,284.322 401.593,284.761 401.531,285.199 401.458,285.628 401.386,286.058 401.314,286.515 401.243,286.971 401.162,287.418 401.079,287.864 401,288.323 400.916,288.761 400.833,289.2 400.749,289.638 400.666,290.078 400.584,290.504 400.503,290.93 400.431,291.371 400.36,291.814 400.301,292.249 400.244,292.685 400.187,293.122 400.141,293.575 400.096,294.028 400.058,294.467 400.02,294.907 399.987,295.351 399.957,295.821 399.928,296.276 399.898,296.731 399.868,297.184 399.833,297.644 399.797,298.102 399.759,298.547 399.721,298.991 399.673,299.448 399.626,299.905 399.58,300.349 399.533,300.793 399.478,301.254 399.422,301.713 399.367,302.173 399.314,302.621 399.262,303.07 399.205,303.535 399.148,304 399.098,304.45 399.049,304.899 398.995,305.36 398.953,305.809 398.898,306.248 398.843,306.686 398.788,307.124 398.752,307.581 398.717,308.038 398.664,308.48 398.61,308.922 398.569,309.369 398.527,309.816 398.474,310.262 398.42,310.707 398.367,311.152 398.32,311.592 398.274,312.032 398.215,312.478 398.157,312.923 398.101,313.355 398.046,313.787 397.982,314.228 397.912,314.654 397.842,315.078 397.769,315.493 397.697,315.908 397.628,316.336 397.559,316.765 397.492,317.193 397.426,317.623 397.361,318.053 397.304,318.499 397.247,318.944 397.196,319.395 397.147,319.846 397.103,320.306 397.057,320.767 397.028,321.231 396.975,321.648 396.901,322.049 396.843,322.469 396.785,322.888 396.722,323.314 396.658,323.739 396.593,324.163 396.507,324.574 396.418,324.984 396.344,325.433 396.271,325.882 396.217,326.335 396.166,326.787 396.111,327.238 396.058,327.689 396.004,328.14 396.006,328.585 396.008,329.028 396.008,329.473 396.005,329.917 396.008,330.353 396.007,330.79 396.004,331.225 395.994,331.667 " fill="none" stroke-width="1" stroke="rgb(0,0,255)" />
	<polyline points="236.5,142.5 236.598,142.165 236.701,141.835 236.809,141.511 236.917,141.186 237.025,140.861 237.119,140.522 237.213,140.184 237.308,139.847 237.406,139.513 237.504,139.177 237.603,138.842 237.705,138.513 237.807,138.184 237.91,137.856 238.026,137.528 238.158,137.207 238.292,136.884 238.432,136.53 238.572,136.178 238.712,135.826 238.839,135.511 238.967,135.193 239.097,134.888 239.225,134.57 239.355,134.248 239.487,133.922 239.641,133.599 239.795,133.276 239.951,132.952 240.11,132.612 240.271,132.271 240.433,131.928 240.576,131.611 240.719,131.296 240.862,130.981 241.027,130.643 241.18,130.31 241.332,129.979 241.478,129.666 241.626,129.352 241.775,129.036 241.927,128.708 242.086,128.379 242.245,128.052 242.384,127.751 242.524,127.453 242.664,127.156 242.822,126.844 242.981,126.533 243.14,126.216 243.301,125.9 243.456,125.585 243.612,125.27 243.769,124.956 243.927,124.645 244.087,124.334 244.249,124.023 244.397,123.73 244.546,123.437 244.696,123.145 244.864,122.832 245.034,122.52 245.191,122.218 245.349,121.916 245.525,121.6 245.701,121.283 245.878,120.968 246.031,120.672 246.197,120.375 246.365,120.076 246.536,119.773 246.707,119.472 246.879,119.171 247.051,118.871 247.224,118.567 247.395,118.267 247.566,117.971 247.763,117.671 247.963,117.37 248.143,117.08 248.344,116.78 248.546,116.481 248.748,116.184 248.952,115.889 249.157,115.605 249.362,115.324 249.567,115.046 249.77,114.761 249.974,114.477 250.193,114.191 250.413,113.907 250.619,113.632 250.826,113.359 251.033,113.09 251.244,112.822 251.458,112.555 251.674,112.289 251.892,112.024 252.119,111.761 252.346,111.5 252.575,111.243 252.806,110.988 253.029,110.743 253.269,110.494 253.51,110.248 253.754,110.004 254.004,109.765 254.254,109.53 254.508,109.296 254.765,109.063 255.025,108.835 255.307,108.609 255.592,108.383 255.882,108.159 256.152,107.931 256.433,107.724 256.716,107.519 256.999,107.317 257.302,107.111 257.606,106.906 257.916,106.71 258.215,106.515 258.517,106.322 258.82,106.129 259.126,105.937 259.403,105.767 259.682,105.597 259.963,105.428 260.239,105.265 260.518,105.103 260.8,104.941 261.108,104.775 261.402,104.617 261.696,104.458 261.992,104.301 262.289,104.151 262.586,104.002 262.874,103.857 263.161,103.711 263.449,103.566 263.737,103.423 264.025,103.28 264.319,103.141 264.614,103.004 264.91,102.863 265.213,102.72 265.516,102.579 265.819,102.438 266.121,102.299 266.428,102.158 266.734,102.018 267.052,101.883 267.38,101.747 267.708,101.612 268.038,101.477 268.395,101.344 268.752,101.212 269.108,101.081 269.454,100.965 269.806,100.839 270.158,100.714 270.5,100.588 270.842,100.463 271.177,100.339 271.512,100.216 271.847,100.094 272.204,99.9616 272.531,99.8404 272.858,99.7202 273.189,99.5935 273.52,99.4675 273.85,99.3423 274.174,99.2361 274.497,99.1304 274.821,99.0254 275.142,98.9081 275.454,98.7949 275.767,98.6822 276.079,98.5699 276.403,98.4588 276.727,98.3482 277.051,98.2383 277.362,98.1302 277.673,98.0226 277.999,97.915 278.308,97.8108 278.616,97.7075 278.924,97.6051 279.257,97.5012 279.591,97.3981 279.924,97.2957 280.234,97.2012 280.545,97.1074 280.855,97.0142 281.17,96.9228 281.484,96.8321 281.799,96.742 282.113,96.6526 282.427,96.5681 282.741,96.4844 283.055,96.4013 283.379,96.3214 283.704,96.2424 284.028,96.1641 284.342,96.0841 284.656,96.0047 284.978,95.9282 285.33,95.8522 285.682,95.7771 286.032,95.7028 286.356,95.6296 286.679,95.557 287.002,95.4851 287.35,95.415 287.697,95.3455 288.044,95.2767 288.375,95.2107 288.705,95.1453 289.034,95.0805 289.384,95.018 289.723,94.9537 290.061,94.8901 290.392,94.8259 290.723,94.7624 291.054,94.6995 291.4,94.6411 291.745,94.5837 292.09,94.5273 292.423,94.4777 292.755,94.429 293.087,94.3813 293.428,94.34 293.77,94.3002 294.11,94.262 294.457,94.227 294.803,94.1928 295.15,94.1592 295.503,94.1241 295.856,94.0903 296.211,94.0658 296.567,94.0425 296.922,94.0203 297.262,93.971 " fill="none" stroke-width="1" stroke="rgb(0,0,255)" />
	<polyline points="395.994,331.667 396.233,332.08 396.539,332.228 396.845,332.383 397.149,332.547 397.491,332.745 397.83,332.948 397.944,333.446 398.075,333.943 398.223,334.413 398.371,334.883 398.523,335.392 398.675,335.902 398.842,336.396 399.007,336.891 399.093,337.419 399.183,337.949 399.278,338.468 399.377,338.989 399.5,339.5 " fill="none" stroke-width="1" stroke="rgb(0,0,255)" />
	<polyline points="236.605,143.085 236.5,142.5 " fill="none" stroke-width="1" stroke="rgb(0,0,255)" />
	<polyline points="395.994,331.667 395.521,331.844 395.048,332.016 394.584,332.19 394.12,332.367 393.633,332.656 393.408,333.253 393.235,333.874 393.071,334.486 392.867,335.038 392.673,335.642 392.483,336.247 392.277,336.858 392.091,337.508 391.909,338.158 391.724,338.82 391.5,339.5 " fill="none" stroke-width="1" stroke="rgb(0,0,255)" />
	<polyline points="297.262,93.971 297.604,94.2196 297.948,94.4651 298.174,94.7553 298.401,95.0445 298.719,95.2431 299.039,95.4374 299.353,95.6224 299.668,95.8069 299.984,95.9906 300.297,96.1837 300.612,96.3746 300.929,96.5633 301.248,96.7595 301.568,96.9536 301.891,97.1571 302.223,97.3585 302.557,97.5573 302.893,97.7534 303.219,97.9353 303.577,98.1187 303.937,98.3014 304.319,98.5172 304.704,98.7309 305.091,98.9427 305.45,99.1404 305.81,99.3374 306.174,99.5338 306.549,99.7355 306.928,99.9373 307.321,100.16 307.717,100.382 308.117,100.604 308.487,100.798 308.86,100.994 309.216,101.194 309.575,101.395 309.935,101.596 310.298,101.781 310.662,101.966 311.03,102.146 311.44,102.354 311.853,102.563 312.23,102.751 312.607,102.939 312.978,103.123 313.35,103.309 313.724,103.494 314.098,103.681 314.488,103.88 314.877,104.08 315.313,104.307 315.749,104.533 316.186,104.759 316.567,104.957 316.96,105.177 317.336,105.367 317.712,105.558 318.088,105.75 318.472,105.957 318.857,106.161 319.266,106.372 319.675,106.582 320.083,106.793 320.483,107.004 320.877,107.195 321.237,107.357 321.597,107.521 321.955,107.685 322.353,107.877 322.75,108.068 323.15,108.268 323.526,108.455 323.902,108.641 324.289,108.843 324.675,109.045 325.07,109.263 325.431,109.451 325.792,109.638 326.15,109.824 326.535,110.039 326.909,110.242 327.273,110.458 327.633,110.673 327.991,110.888 328.369,111.134 328.743,111.38 329.114,111.627 329.491,111.88 329.845,112.134 330.229,112.414 330.608,112.692 330.982,112.968 331.36,113.289 331.73,113.607 332.094,113.923 332.443,114.246 332.789,114.565 333.132,114.882 333.478,115.201 333.822,115.519 334.164,115.838 334.515,116.161 334.847,116.486 335.164,116.79 335.478,117.096 335.805,117.41 336.132,117.724 336.466,118.041 336.799,118.371 337.131,118.702 337.44,118.997 337.766,119.303 338.093,119.609 338.422,119.914 338.759,120.243 339.097,120.571 339.414,120.863 339.757,121.164 340.1,121.465 340.445,121.765 340.789,122.065 341.141,122.37 341.468,122.656 341.796,122.941 342.147,123.249 342.484,123.539 342.822,123.829 343.161,124.12 343.485,124.411 343.81,124.703 344.138,124.997 344.459,125.302 344.781,125.611 345.102,125.926 345.41,126.243 345.72,126.563 346.032,126.886 346.329,127.201 346.627,127.52 346.924,127.843 347.211,128.16 347.51,128.491 347.813,128.825 348.118,129.162 348.417,129.485 348.718,129.811 349.019,130.139 349.316,130.464 349.612,130.791 349.908,131.12 350.205,131.464 350.503,131.809 350.8,132.154 351.066,132.495 351.344,132.824 351.62,133.155 351.898,133.478 352.188,133.825 352.465,134.177 352.732,134.52 352.996,134.865 353.281,135.196 353.566,135.529 353.853,135.865 354.129,136.21 354.422,136.562 354.718,136.917 354.993,137.277 355.251,137.632 355.509,137.991 355.763,138.349 356.019,138.711 356.274,139.077 356.512,139.438 356.75,139.801 356.988,140.167 357.213,140.533 357.439,140.9 357.639,141.254 357.838,141.608 358.037,141.963 358.257,142.321 358.475,142.679 358.692,143.037 358.925,143.425 359.134,143.808 359.387,144.219 359.638,144.628 359.887,145.036 360.13,145.456 360.37,145.875 360.579,146.245 360.787,146.614 360.996,146.982 361.204,147.385 361.413,147.787 361.622,148.189 361.84,148.587 362.057,148.985 362.274,149.383 362.492,149.781 362.711,150.18 362.902,150.561 363.094,150.943 363.28,151.328 363.464,151.713 363.648,152.1 363.847,152.503 364.047,152.907 364.282,153.342 364.517,153.779 364.753,154.219 364.939,154.629 365.163,155.051 365.363,155.468 365.564,155.889 365.762,156.293 365.963,156.7 366.127,157.088 366.325,157.522 366.524,157.961 366.682,158.342 366.84,158.726 366.998,159.113 367.161,159.513 367.326,159.915 367.492,160.314 367.658,160.714 367.824,161.116 367.991,161.52 368.158,161.938 368.322,162.345 368.486,162.752 368.65,163.158 368.827,163.588 369.004,164.017 369.178,164.433 369.351,164.847 369.527,165.26 369.701,165.672 369.873,166.084 370.053,166.508 370.226,166.928 370.428,167.374 370.629,167.818 370.808,168.234 370.987,168.649 371.193,169.084 371.375,169.501 371.554,169.917 371.752,170.354 371.948,170.789 372.111,171.194 372.284,171.614 372.455,172.033 372.614,172.433 372.773,172.83 372.932,173.239 373.096,173.65 373.258,174.059 373.416,174.472 373.573,174.884 373.72,175.287 373.865,175.688 374.009,176.089 374.136,176.496 374.261,176.902 374.386,177.313 374.509,177.721 374.632,178.129 374.748,178.559 374.863,178.989 374.974,179.422 375.096,179.83 375.209,180.239 375.321,180.645 375.434,181.05 375.548,181.462 375.661,181.872 375.77,182.279 375.879,182.685 375.986,183.09 376.087,183.518 376.185,183.944 376.289,184.363 376.392,184.779 376.492,185.192 376.587,185.611 376.68,186.026 376.768,186.462 376.853,186.894 376.935,187.326 377.015,187.754 377.106,188.155 377.192,188.562 377.277,188.967 377.356,189.387 377.432,189.806 377.504,190.244 377.576,190.68 377.647,191.114 377.716,191.558 377.783,192.001 377.847,192.458 377.908,192.917 377.965,193.384 378.02,193.851 378.056,194.35 378.091,194.844 378.125,195.329 378.16,195.811 378.2,196.285 378.24,196.759 378.281,197.233 378.33,197.686 378.38,198.139 378.437,198.589 378.496,199.04 378.558,199.465 378.622,199.889 378.684,200.319 378.745,200.75 378.807,201.183 378.865,201.598 378.923,202.016 378.974,202.463 379.025,202.921 379.081,203.372 379.137,203.822 379.193,204.267 379.25,204.715 379.306,205.166 379.366,205.601 379.425,206.039 379.49,206.467 379.555,206.897 379.626,207.323 379.696,207.751 379.767,208.181 379.844,208.603 379.92,209.027 380.002,209.45 380.07,209.883 380.14,210.313 380.209,210.744 380.278,211.176 380.337,211.619 380.396,212.062 380.447,212.515 380.498,212.969 380.537,213.436 380.575,213.903 380.603,214.372 380.63,214.842 380.647,215.315 380.662,215.787 380.672,216.254 380.681,216.721 380.688,217.188 380.69,217.649 380.691,218.11 380.689,218.567 380.686,219.023 380.679,219.475 380.671,219.925 380.66,220.377 380.647,220.827 380.627,221.275 380.603,221.72 380.577,222.163 380.549,222.61 380.52,223.053 380.487,223.496 380.452,223.934 380.412,224.381 380.371,224.82 380.323,225.26 380.273,225.692 380.22,226.115 380.16,226.544 380.097,226.963 380.023,227.378 379.933,227.813 379.805,228.245 379.675,228.673 379.543,229.097 379.447,229.554 379.353,230.006 379.252,230.42 379.15,230.831 379.057,231.256 378.962,231.677 378.87,232.082 378.775,232.479 378.677,232.872 378.575,233.276 378.473,233.679 378.371,234.08 378.264,234.484 378.158,234.887 378.039,235.286 377.912,235.685 377.785,236.085 377.654,236.482 377.523,236.879 377.413,237.293 377.303,237.707 377.193,238.12 " fill="none" stroke-width="1" stroke="rgb(0,0,255)" />
	<polyline points="377.193,238.12 377.346,238.31 377.5,238.5 " fill="none" stroke-width="1" stroke="rgb(0,0,255)" />
	<polyline points="377.5,238.5 377.529,238.969 377.567,239.433 377.605,239.897 377.635,240.361 377.666,240.825 377.699,241.287 377.731,241.748 377.764,242.21 377.792,242.665 377.82,243.121 377.844,243.585 377.867,244.05 377.884,244.507 377.9,244.966 377.903,245.446 377.905,245.926 377.908,246.393 377.909,246.861 377.888,247.347 377.867,247.834 377.858,248.312 377.847,248.792 377.821,249.287 377.794,249.784 377.774,250.272 377.754,250.764 377.736,251.265 377.718,251.771 377.704,252.242 377.689,252.715 377.673,253.189 377.66,253.662 377.645,254.136 377.632,254.579 377.618,255.024 377.604,255.473 377.589,255.924 377.573,256.363 377.557,256.803 377.538,257.25 377.519,257.697 377.499,258.144 377.474,258.596 377.445,259.047 377.407,259.502 377.368,259.956 377.319,260.418 377.27,260.88 377.212,261.345 377.155,261.809 377.1,262.283 377.045,262.755 376.991,263.226 376.944,263.68 376.898,264.132 376.839,264.583 376.78,265.032 376.72,265.482 376.661,265.932 376.593,266.382 376.527,266.831 376.466,267.297 376.406,267.764 376.347,268.231 376.296,268.709 376.245,269.185 376.204,269.677 376.163,270.169 376.128,270.671 376.092,271.174 376.056,271.684 376.02,272.195 375.965,272.68 375.909,273.162 375.849,273.637 375.787,274.108 375.724,274.572 375.66,275.034 375.596,275.492 375.531,275.949 375.468,276.397 375.405,276.845 375.342,277.302 375.278,277.759 375.215,278.216 375.156,278.672 375.097,279.128 375.043,279.598 374.989,280.068 374.937,280.521 374.884,280.974 374.825,281.433 374.766,281.891 374.697,282.335 374.628,282.779 374.56,283.242 374.492,283.705 374.423,284.168 374.355,284.613 374.286,285.058 374.229,285.53 374.172,286.002 374.118,286.472 374.064,286.943 374.013,287.423 373.958,287.897 373.9,288.368 373.841,288.839 373.769,289.289 373.696,289.738 373.622,290.188 373.546,290.648 373.47,291.107 373.393,291.558 373.314,292.008 373.24,292.464 373.166,292.92 373.098,293.388 373.031,293.857 372.964,294.32 372.896,294.784 372.816,295.249 372.735,295.715 372.654,296.181 372.569,296.62 372.486,297.061 372.392,297.524 372.299,297.987 372.213,298.413 372.126,298.839 372.036,299.315 371.946,299.793 371.853,300.219 371.761,300.645 371.668,301.07 371.571,301.515 371.472,301.959 371.381,302.388 371.289,302.815 371.194,303.257 371.1,303.698 371.006,304.138 370.916,304.556 370.826,304.973 370.737,305.411 370.649,305.849 370.561,306.273 370.474,306.698 370.388,307.122 370.309,307.572 370.231,308.024 370.164,308.486 370.097,308.95 370.039,309.432 369.983,309.914 369.93,310.408 369.877,310.901 369.811,311.377 369.745,311.853 369.681,312.338 369.616,312.822 369.544,313.29 369.472,313.756 369.399,314.222 369.332,314.685 369.265,315.148 369.197,315.606 369.129,316.065 369.071,316.532 369.013,316.999 368.958,317.468 368.902,317.938 368.841,318.384 368.779,318.831 368.714,319.29 368.649,319.748 368.583,320.207 368.512,320.654 368.442,321.102 368.377,321.577 368.313,322.054 368.251,322.515 368.19,322.978 368.142,323.461 368.095,323.946 368.051,324.425 368.008,324.905 367.964,325.38 367.919,325.855 367.872,326.333 367.824,326.811 367.763,327.263 367.701,327.715 367.639,328.168 367.577,328.636 367.515,329.106 367.453,329.558 367.39,330.012 367.337,330.472 367.283,330.934 367.239,331.393 367.195,331.854 367.155,332.32 367.116,332.787 367.082,333.25 367.048,333.713 367.014,334.177 366.979,334.649 366.943,335.12 366.903,335.59 366.863,336.058 366.816,336.523 366.769,336.985 366.714,337.436 366.658,337.885 366.59,338.33 366.522,338.772 366.455,339.212 366.388,339.653 366.323,340.09 366.256,340.536 366.192,340.978 366.131,341.423 366.071,341.863 366.017,342.307 365.963,342.756 365.909,343.2 365.856,343.628 365.802,344.051 365.741,344.475 365.68,344.894 365.618,345.304 365.556,345.708 365.494,346.107 365.432,346.51 365.372,346.908 365.313,347.303 365.255,347.693 365.198,348.08 365.146,348.465 365.095,348.846 365.042,349.224 364.989,349.599 364.942,349.97 364.899,350.334 364.856,350.696 364.814,351.056 364.771,351.412 364.728,351.766 364.686,352.119 364.653,352.466 364.621,352.811 364.589,353.156 364.561,353.497 364.533,353.837 364.516,354.169 364.5,354.5 " fill="none" stroke-width="1" stroke="rgb(0,0,255)" />
	<polyline points="236.605,143.085 235.942,144.57 233.5,144.5 " fill="none" stroke-width="1" stroke="rgb(0,0,255)" />
	<polyline points="231.5,144.5 236.605,143.085 " fill="none" stroke-width="1" stroke="rgb(0,0,255)" />
	<polyline points="138.907,186.916 138.59,186.316 138.278,185.734 137.804,185.186 137.589,184.681 137.374,184.169 137.135,183.63 136.896,183.095 136.662,182.553 136.428,182.018 136.232,181.488 136.036,180.963 135.854,180.457 135.672,179.964 135.5,179.5 " fill="none" stroke-width="1" stroke="rgb(0,0,255)" />
	<polyline points="267.288,413.309 266.896,413.02 266.509,412.723 266.122,412.424 265.725,412.128 265.329,411.833 264.931,411.535 264.549,411.228 264.167,410.921 263.783,410.613 263.398,410.304 263.013,409.994 262.67,409.706 262.326,409.415 261.98,409.122 261.628,408.828 261.272,408.528 260.911,408.222 260.598,407.951 260.27,407.668 259.939,407.381 259.622,407.103 259.261,406.797 258.892,406.484 258.55,406.211 258.202,405.934 257.853,405.636 257.485,405.333 257.116,405.029 256.763,404.754 256.41,404.478 256.059,404.203 255.66,403.874 255.28,403.566 254.895,403.254 254.527,402.922 254.154,402.598 253.76,402.239 253.363,401.876 252.974,401.526 252.614,401.188 252.252,400.848 251.878,400.511 251.493,400.152 251.116,399.805 250.758,399.472 250.399,399.138 250.033,398.806 249.668,398.47 249.302,398.133 248.934,397.799 248.562,397.456 248.19,397.112 247.825,396.767 247.476,396.433 247.126,396.098 246.736,395.729 246.346,395.357 245.955,394.985 245.605,394.648 245.256,394.312 244.909,393.977 244.522,393.599 244.134,393.221 243.734,392.849 243.375,392.513 243.02,392.18 242.659,391.849 242.233,391.462 241.806,391.073 241.453,390.761 241.108,390.454 240.758,390.146 240.349,389.776 239.946,389.409 239.554,389.071 239.215,388.766 238.872,388.458 238.522,388.137 238.156,387.787 237.788,387.439 237.419,387.09 237.074,386.759 236.743,386.429 236.411,386.098 236.056,385.745 235.721,385.408 235.386,385.069 235.052,384.728 234.722,384.385 234.394,384.042 234.034,383.67 233.698,383.317 233.359,382.96 233.026,382.6 232.708,382.23 232.392,381.86 231.999,381.435 231.656,381.04 231.327,380.669 231.013,380.313 230.738,379.969 230.391,379.569 230.048,379.174 229.732,378.814 229.414,378.453 229.096,378.09 228.775,377.717 228.453,377.342 228.129,376.964 227.8,376.582 227.472,376.2 227.146,375.821 226.839,375.455 226.528,375.083 226.219,374.72 225.911,374.358 225.574,373.966 225.272,373.586 224.969,373.206 224.645,372.829 224.314,372.463 223.983,372.098 223.65,371.726 223.316,371.354 222.982,370.983 222.633,370.598 222.284,370.215 221.937,369.833 221.616,369.467 221.294,369.1 220.986,368.741 220.624,368.329 220.266,367.923 219.885,367.512 219.581,367.16 219.279,366.813 218.982,366.473 218.639,366.087 218.258,365.685 217.871,365.276 217.554,364.927 217.235,364.585 216.915,364.241 216.562,363.868 216.211,363.505 215.853,363.136 215.519,362.788 215.181,362.438 214.84,362.085 214.484,361.72 214.125,361.354 213.762,360.983 213.416,360.628 213.071,360.275 212.696,359.901 212.337,359.538 211.984,359.181 211.629,358.825 211.291,358.48 210.955,358.137 210.581,357.773 210.214,357.416 209.854,357.066 209.505,356.722 209.158,356.381 208.771,356.032 208.375,355.663 207.985,355.301 207.624,354.979 207.274,354.63 206.933,354.29 206.556,353.899 206.169,353.512 205.777,353.12 205.444,352.767 205.112,352.416 204.795,352.056 204.447,351.687 204.096,351.314 203.768,350.944 203.437,350.589 203.099,350.225 202.747,349.849 202.4,349.487 202.048,349.119 201.705,348.76 201.357,348.395 201.004,348.026 200.652,347.658 200.297,347.289 199.943,346.919 199.592,346.551 199.241,346.183 198.871,345.796 198.519,345.426 198.168,345.056 197.814,344.681 197.461,344.306 197.109,343.932 196.757,343.551 196.407,343.173 196.066,342.782 195.72,342.392 195.374,342.002 195.033,341.607 194.711,341.223 194.39,340.838 194.092,340.456 193.793,340.076 193.496,339.692 193.198,339.307 192.9,338.922 192.601,338.537 192.303,338.154 192.003,337.775 191.698,337.389 191.394,337.007 191.074,336.629 190.732,336.24 190.392,335.854 190.049,335.475 189.69,335.082 189.345,334.718 189,334.356 188.64,333.986 188.286,333.625 187.931,333.264 187.539,332.885 187.179,332.533 186.822,332.185 186.464,331.842 186.08,331.484 185.7,331.162 185.322,330.84 184.965,330.51 184.622,330.183 184.276,329.855 183.898,329.508 183.529,329.195 183.159,328.882 182.825,328.545 182.49,328.207 182.154,327.868 181.802,327.519 181.45,327.168 181.102,326.809 180.792,326.454 180.481,326.098 180.126,325.725 179.797,325.358 179.465,324.987 179.127,324.62 178.818,324.262 178.504,323.898 178.147,323.519 177.819,323.147 177.469,322.777 177.115,322.403 176.753,322.021 176.399,321.661 176.045,321.3 175.686,320.924 175.33,320.563 174.974,320.201 174.6,319.826 174.245,319.471 173.894,319.119 173.536,318.759 173.181,318.401 172.803,318.034 172.438,317.683 172.08,317.338 171.729,316.988 171.355,316.615 170.986,316.247 170.611,315.901 170.233,315.553 169.861,315.209 169.515,314.874 169.128,314.512 168.757,314.173 168.393,313.818 168.027,313.46 167.685,313.119 167.312,312.759 166.933,312.393 166.563,312.024 166.226,311.66 165.881,311.289 165.539,310.925 165.196,310.566 164.847,310.202 164.484,309.824 164.135,309.453 163.787,309.082 163.442,308.724 163.093,308.363 162.726,307.986 162.371,307.618 162.013,307.248 161.649,306.87 161.296,306.507 160.942,306.143 160.582,305.774 160.222,305.406 159.863,305.038 159.508,304.674 159.155,304.312 158.781,303.936 158.421,303.569 158.065,303.206 157.7,302.834 157.351,302.477 157.008,302.125 156.64,301.754 156.281,301.389 155.93,301.031 155.579,300.67 155.237,300.317 154.907,299.972 154.529,299.593 154.169,299.226 153.825,298.878 153.499,298.518 153.19,298.169 152.897,297.831 152.618,297.476 152.358,297.13 152.13,296.797 151.918,296.469 151.72,296.135 151.53,295.803 151.356,295.469 151.196,295.131 151.062,294.782 150.941,294.431 150.83,294.073 150.729,293.71 150.633,293.337 150.542,292.954 150.457,292.549 150.374,292.13 150.3,291.704 150.227,291.266 150.155,290.816 150.09,290.335 150.026,289.844 149.954,289.368 149.882,288.885 149.81,288.384 149.739,287.885 149.668,287.415 149.596,286.944 149.526,286.464 149.455,285.981 149.388,285.506 149.32,285.03 149.255,284.535 149.189,284.039 149.123,283.551 149.057,283.063 148.995,282.549 148.934,282.057 148.865,281.6 148.797,281.144 148.724,280.674 148.651,280.206 148.575,279.744 148.499,279.278 148.423,278.808 148.349,278.309 148.274,277.806 148.206,277.29 148.139,276.771 148.078,276.23 148.022,275.671 147.959,275.13 147.889,274.611 147.82,274.099 147.74,273.605 147.662,273.118 147.579,272.654 147.497,272.194 147.412,271.734 147.326,271.275 147.241,270.818 147.154,270.362 147.068,269.908 146.983,269.44 146.908,268.949 146.83,268.471 146.752,267.993 146.676,267.519 146.6,267.043 146.539,266.555 146.477,266.063 146.422,265.571 146.367,265.074 146.322,264.57 146.276,264.061 146.235,263.553 146.193,263.042 146.153,262.523 146.113,262 146.075,261.476 146.037,260.949 145.994,260.408 145.942,259.896 145.89,259.377 145.839,258.868 145.77,258.389 145.702,257.915 145.633,257.423 145.566,256.939 145.493,256.485 145.42,256.032 145.36,255.57 145.299,255.105 145.246,254.634 145.192,254.158 145.142,253.671 145.093,253.179 145.046,252.679 145,252.172 144.95,251.678 144.9,251.188 144.844,250.71 144.788,250.235 144.727,249.765 144.662,249.297 144.597,248.826 144.527,248.366 144.458,247.907 144.384,247.422 144.309,246.93 144.236,246.448 144.164,245.967 144.101,245.434 144.037,244.897 143.969,244.385 143.903,243.884 143.834,243.353 143.766,242.826 143.702,242.325 143.639,241.823 143.583,241.304 143.525,240.776 143.475,240.267 143.425,239.754 143.374,239.241 143.321,238.754 143.269,238.269 143.216,237.785 143.161,237.297 143.105,236.807 143.052,236.328 142.997,235.845 142.941,235.367 142.885,234.89 142.828,234.412 142.772,233.934 142.715,233.452 142.658,232.97 142.6,232.472 142.542,231.976 142.479,231.475 142.417,230.979 142.351,230.474 142.285,229.969 142.217,229.458 142.148,228.94 142.078,228.408 142.008,227.876 141.943,227.322 141.879,226.768 141.817,226.244 141.746,225.728 141.674,225.211 141.604,224.714 141.535,224.222 141.464,223.742 141.394,223.262 141.323,222.783 141.258,222.32 141.191,221.851 141.126,221.375 141.061,220.896 141,220.415 140.941,219.882 140.879,219.394 140.816,218.906 140.757,218.397 140.698,217.888 140.637,217.406 140.576,216.922 140.516,216.429 140.456,215.936 140.39,215.466 140.325,215.003 140.258,214.544 140.191,214.089 140.12,213.652 140.05,213.218 139.981,212.785 139.913,212.339 139.845,211.894 139.772,211.463 139.7,211.033 139.634,210.597 139.57,210.165 139.512,209.716 139.457,209.27 139.402,208.829 139.355,208.383 139.31,207.942 139.271,207.476 139.234,207.012 139.199,206.553 139.165,206.097 139.135,205.618 139.105,205.143 139.068,204.687 139.032,204.234 138.998,203.782 138.953,203.346 138.91,202.914 138.866,202.479 138.824,202.043 138.787,201.595 138.751,201.151 138.72,200.71 138.69,200.269 138.662,199.83 138.642,199.382 138.625,198.94 138.604,198.513 138.585,198.086 138.566,197.662 138.548,197.237 138.531,196.811 138.535,196.372 138.54,195.937 138.544,195.521 138.549,195.102 138.549,194.683 138.549,194.26 138.549,193.835 138.538,193.413 138.524,192.979 138.508,192.543 138.49,192.101 138.473,191.627 138.451,191.119 138.438,190.593 138.431,190.105 138.463,189.616 138.52,189.114 138.563,188.626 138.615,188.169 138.712,187.748 138.81,187.331 138.907,186.916 " fill="none" stroke-width="1" stroke="rgb(0,0,255)" />
	<polyline points="267.288,413.309 267.38,413.635 267.472,413.961 267.565,414.285 267.658,414.609 267.751,414.934 267.844,415.257 267.938,415.58 268.031,415.904 268.122,416.225 268.213,416.545 268.305,416.866 268.403,417.183 268.5,417.5 " fill="none" stroke-width="1" stroke="rgb(0,0,255)" />
	<polyline points="268.5,417.5 268.491,417.879 268.491,418.271 268.492,418.664 268.495,419.056 268.486,419.456 268.472,419.856 268.448,420.262 268.418,420.668 268.386,421.074 268.352,421.486 " fill="none" stroke-width="1" stroke="rgb(0,0,255)" />
	<polyline points="268.352,421.486 267.992,422.198 267.722,422.918 267.5,423.5 " fill="none" stroke-width="1" stroke="rgb(0,0,255)" />
	<polyline points="138.907,186.916 139.267,187.021 139.625,187.126 139.984,187.235 140.337,187.356 140.691,187.478 141.044,187.601 141.366,187.738 141.687,187.877 142.009,188.02 142.3,188.143 142.591,188.272 142.881,188.405 143.17,188.547 143.458,188.694 143.746,188.846 144.033,189.003 144.308,189.142 144.582,189.284 144.857,189.43 145.131,189.579 145.428,189.739 145.725,189.902 146.021,190.067 146.303,190.221 146.585,190.378 146.867,190.537 147.153,190.724 147.44,190.914 147.718,191.099 147.994,191.286 148.265,191.47 148.535,191.656 148.804,191.845 149.073,192.036 149.349,192.235 149.625,192.435 149.901,192.637 150.169,192.843 150.438,193.05 150.712,193.269 150.986,193.489 151.272,193.703 151.558,193.919 151.828,194.146 152.096,194.375 152.369,194.613 152.639,194.851 152.909,195.091 153.178,195.338 153.446,195.586 153.713,195.835 153.977,196.084 154.231,196.352 154.483,196.62 154.734,196.888 154.997,197.153 155.249,197.415 155.501,197.677 155.752,197.939 156.007,198.219 156.247,198.5 156.486,198.781 156.723,199.063 156.963,199.342 157.203,199.627 157.443,199.913 157.698,200.209 157.953,200.506 158.18,200.794 158.406,201.082 158.622,201.363 158.835,201.645 159.046,201.929 159.273,202.214 159.5,202.5 " fill="none" stroke-width="1" stroke="rgb(0,0,255)" />
	<polyline points="159.5,202.5 159.56,202.99 159.63,203.444 159.699,203.898 159.736,204.404 159.772,204.91 159.819,205.396 159.865,205.882 159.893,206.395 159.92,206.909 159.966,207.405 160.013,207.901 160.071,208.398 160.13,208.894 160.194,209.372 160.26,209.85 160.317,210.336 160.373,210.822 160.428,211.303 160.484,211.783 160.54,212.248 160.596,212.713 160.651,213.18 160.707,213.652 160.763,214.125 160.812,214.59 160.86,215.055 160.904,215.534 160.947,216.013 160.987,216.493 161.023,216.961 161.057,217.428 161.092,217.896 161.133,218.365 161.174,218.833 161.22,219.298 161.266,219.762 161.312,220.225 161.371,220.693 161.428,221.161 161.491,221.625 161.553,222.091 161.623,222.559 161.691,223.028 161.756,223.51 161.819,223.993 161.873,224.491 161.927,224.989 161.972,225.502 162.016,226.015 162.06,226.528 162.105,227.04 162.158,227.537 162.211,228.032 162.272,228.525 162.335,229.016 162.401,229.493 162.468,229.968 162.536,230.44 162.604,230.909 162.671,231.361 162.737,231.812 162.798,232.262 162.86,232.71 162.921,233.156 162.982,233.583 163.047,234.033 163.099,234.489 163.15,234.943 163.207,235.383 163.265,235.82 163.317,236.271 163.37,236.72 163.424,237.167 163.483,237.602 163.543,238.034 163.608,238.488 163.673,238.94 163.747,239.38 163.82,239.818 163.901,240.28 163.98,240.741 164.103,241.175 164.164,241.645 164.226,242.115 164.327,242.569 164.427,243.022 164.5,243.5 " fill="none" stroke-width="1" stroke="rgb(0,0,255)" />
	<polyline points="164.5,243.5 165.895,244.096 169,246.637 " fill="none" stroke-width="1" stroke="rgb(0,0,255)" />
	<polyline points="165.877,243.427 166.421,243.307 166.966,243.189 167.481,243.029 168.002,242.882 168.466,242.752 168.933,242.621 169.443,242.466 169.955,242.31 170.411,242.172 170.87,242.034 171.308,241.876 171.749,241.717 172.192,241.558 172.615,241.405 173.04,241.252 173.45,241.099 173.863,240.946 174.255,240.802 174.648,240.656 175.043,240.51 175.454,240.357 175.867,240.203 176.248,240.057 176.631,239.907 177.017,239.756 177.403,239.608 177.79,239.46 178.179,239.312 178.561,239.163 178.944,239.014 179.332,238.856 179.72,238.698 180.11,238.539 180.495,238.387 180.881,238.234 181.275,238.071 181.678,237.914 182.082,237.757 182.488,237.596 182.894,237.435 183.319,237.265 183.744,237.095 184.17,236.925 184.586,236.753 185.003,236.581 185.419,236.403 185.836,236.224 186.27,236.037 186.701,235.855 187.133,235.672 187.593,235.459 188.053,235.245 188.483,235.052 188.931,234.833 189.356,234.64 189.781,234.446 190.227,234.232 190.671,234.018 191.091,233.832 191.536,233.619 191.98,233.405 192.399,233.213 192.817,233.023 193.243,232.828 193.669,232.634 194.095,232.44 194.543,232.227 194.99,232.015 195.423,231.827 195.856,231.64 196.262,231.464 196.666,231.289 197.068,231.116 197.489,230.943 197.909,230.763 198.323,230.587 198.736,230.412 199.149,230.237 199.562,230.067 199.988,229.91 200.388,229.752 200.787,229.596 201.244,229.437 201.699,229.279 202.153,229.122 202.562,228.963 202.965,228.808 203.405,228.641 203.843,228.474 204.254,228.327 204.663,228.18 205.07,228.035 205.555,227.877 206.037,227.721 206.445,227.575 206.851,227.429 207.307,227.269 207.759,227.109 208.21,226.951 208.64,226.799 209.069,226.648 209.524,226.488 209.978,226.329 210.424,226.173 210.87,226.017 211.33,225.854 211.79,225.691 212.215,225.534 212.64,225.376 213.066,225.219 213.532,225.057 213.974,224.895 214.447,224.736 214.922,224.577 215.361,224.416 215.8,224.255 216.28,224.095 216.762,223.935 217.197,223.774 217.651,223.61 218.108,223.445 218.524,223.276 218.943,223.106 219.365,222.938 219.787,222.761 220.211,222.582 220.655,222.411 221.1,222.239 221.508,222.066 221.914,221.901 222.319,221.726 222.725,221.551 223.13,221.375 223.542,221.201 223.954,221.026 224.361,220.848 224.769,220.668 225.177,220.489 225.573,220.307 225.97,220.124 226.389,219.93 226.81,219.736 227.242,219.537 227.673,219.338 228.104,219.139 228.532,218.933 228.963,218.714 229.362,218.527 229.761,218.339 230.158,218.152 230.597,217.945 231.024,217.752 231.445,217.567 231.865,217.381 232.284,217.19 232.7,216.999 233.136,216.796 233.557,216.607 233.978,216.418 234.401,216.234 234.824,216.05 235.258,215.867 235.691,215.684 236.122,215.501 236.532,215.319 236.942,215.137 237.361,214.953 237.779,214.752 238.196,214.551 238.61,214.358 239.025,214.166 239.427,213.967 239.838,213.774 240.256,213.555 240.672,213.337 241.085,213.12 241.491,212.902 241.882,212.689 242.286,212.455 242.688,212.221 243.088,211.989 243.479,211.757 243.871,211.525 244.257,211.306 244.64,211.089 245.02,210.856 245.406,210.638 245.79,210.42 246.172,210.203 246.551,209.976 246.923,209.769 247.316,209.539 247.707,209.31 248.096,209.082 248.479,208.869 248.86,208.657 249.263,208.44 249.664,208.223 250.064,208.006 250.438,207.817 250.811,207.629 251.233,207.437 251.652,207.246 252.067,207.055 252.449,206.87 252.829,206.684 253.237,206.489 253.643,206.295 254.047,206.101 254.433,205.921 254.824,205.738 255.25,205.561 255.673,205.383 256.091,205.205 256.499,205.019 256.916,204.836 257.317,204.655 257.716,204.475 258.112,204.294 258.536,204.081 258.941,203.903 259.337,203.723 259.733,203.543 260.127,203.362 260.524,203.197 260.922,203.031 261.323,202.858 261.722,202.684 262.12,202.51 262.517,202.34 262.915,202.171 263.312,201.997 263.712,201.826 264.111,201.655 264.5,201.5 " fill="none" stroke-width="1" stroke="rgb(0,0,255)" />
	<polyline points="264.5,201.5 264.813,201.659 265.127,201.818 265.438,201.984 265.753,202.163 266.067,202.343 266.382,202.526 266.698,202.71 267.014,202.895 267.33,203.09 267.641,203.268 267.952,203.447 268.268,203.65 268.584,203.854 268.9,204.059 269.209,204.269 269.518,204.481 269.828,204.693 270.139,204.907 270.446,205.114 270.754,205.322 271.063,205.531 271.357,205.732 271.653,205.932 271.949,206.143 272.243,206.349 272.539,206.556 272.835,206.764 273.132,206.974 273.421,207.168 273.71,207.362 274,207.557 274.306,207.764 274.612,207.972 274.906,208.169 275.196,208.379 275.487,208.59 275.78,208.8 276.074,209.011 276.376,209.223 276.68,209.437 276.984,209.651 277.267,209.836 277.552,210.023 277.843,210.235 278.134,210.448 278.418,210.636 278.702,210.824 278.987,211.011 279.271,211.2 279.555,211.388 279.84,211.575 280.126,211.761 280.436,211.981 280.724,212.168 281.012,212.356 281.32,212.583 281.629,212.809 281.938,213.035 282.234,213.257 282.531,213.478 282.829,213.699 283.127,213.919 283.434,214.15 283.741,214.383 284.049,214.616 284.341,214.827 284.633,215.038 284.921,215.257 285.204,215.479 285.488,215.703 285.771,215.928 286.067,216.158 286.352,216.385 286.639,216.613 286.926,216.842 287.222,217.065 287.511,217.274 287.801,217.483 288.092,217.693 288.388,217.907 288.684,218.117 288.98,218.328 289.27,218.528 289.561,218.728 289.852,218.928 290.133,219.109 290.435,219.314 290.738,219.519 291.041,219.724 291.324,219.907 291.613,220.104 291.901,220.303 292.197,220.499 292.493,220.695 292.788,220.889 293.083,221.082 293.37,221.274 293.656,221.465 293.943,221.654 294.265,221.875 294.586,222.097 294.885,222.286 295.188,222.503 295.49,222.72 295.792,222.935 296.073,223.128 296.382,223.348 296.69,223.566 296.998,223.782 297.281,223.982 297.578,224.196 297.874,224.408 298.175,224.607 298.474,224.805 298.773,225.002 299.075,225.215 299.361,225.412 299.645,225.608 299.929,225.803 300.236,226.023 300.535,226.23 300.833,226.435 301.131,226.637 301.416,226.839 301.7,227.041 301.983,227.227 302.295,227.444 302.605,227.661 302.914,227.876 303.2,228.064 303.503,228.278 303.805,228.491 304.107,228.703 304.414,228.902 304.736,229.124 305.057,229.343 305.367,229.541 305.675,229.739 305.982,229.936 306.307,230.168 306.631,230.397 306.955,230.625 307.265,230.854 307.575,231.081 307.905,231.287 308.23,231.527 308.554,231.769 308.875,232.012 309.156,232.258 309.434,232.504 309.709,232.752 309.982,233.001 310.24,233.251 310.5,233.5 " fill="none" stroke-width="1" stroke="rgb(0,0,255)" />
	<polyline points="164.5,243.5 164.774,243.488 165.047,243.476 165.324,243.46 165.601,243.444 165.877,243.427 " fill="none" stroke-width="1" stroke="rgb(0,0,255)" />
	<polyline points="310.5,233.5 310.897,233.354 311.302,233.208 311.708,233.061 312.096,232.932 312.488,232.774 312.881,232.616 313.252,232.472 313.623,232.327 313.995,232.183 314.362,232.035 314.705,231.901 315.048,231.767 315.401,231.635 315.754,231.503 316.107,231.37 316.441,231.232 316.774,231.093 317.108,230.954 317.437,230.806 317.767,230.658 318.096,230.51 318.427,230.362 318.757,230.215 319.089,230.067 319.415,229.919 319.742,229.772 320.069,229.624 320.392,229.474 320.716,229.324 321.04,229.173 321.365,229.021 321.691,228.865 322.017,228.709 322.347,228.553 322.677,228.398 323.007,228.242 323.337,228.085 323.667,227.928 323.997,227.771 324.327,227.615 324.656,227.459 324.986,227.303 325.32,227.147 325.653,226.991 325.99,226.837 326.33,226.687 326.67,226.537 327.009,226.387 327.346,226.24 327.682,226.092 328.017,225.944 328.38,225.782 328.741,225.62 329.102,225.458 329.465,225.304 329.827,225.151 330.214,224.984 330.604,224.835 330.994,224.686 331.345,224.549 331.694,224.411 332.041,224.275 332.452,224.131 332.862,223.988 333.22,223.854 333.577,223.721 333.933,223.587 334.305,223.439 334.675,223.292 335.044,223.145 335.392,223.01 335.74,222.873 336.089,222.737 336.474,222.602 336.859,222.468 337.197,222.336 337.534,222.204 337.871,222.072 338.23,221.941 338.574,221.801 338.917,221.662 339.264,221.519 339.61,221.378 339.955,221.236 340.302,221.094 340.648,220.953 340.995,220.817 341.329,220.681 341.664,220.544 341.998,220.408 342.35,220.267 342.7,220.128 343.05,219.989 343.415,219.835 343.78,219.681 344.144,219.528 344.49,219.391 344.834,219.254 345.202,219.102 345.569,218.95 345.917,218.812 346.274,218.683 346.629,218.555 346.983,218.427 347.347,218.295 347.71,218.163 348.072,218.032 348.421,217.913 348.769,217.794 349.117,217.675 349.494,217.545 349.87,217.416 350.233,217.297 350.594,217.177 350.956,217.058 351.343,216.917 351.731,216.776 352.118,216.635 352.5,216.5 " fill="none" stroke-width="1" stroke="rgb(0,0,255)" />
	<polyline points="352.5,216.5 352.931,216.927 353.371,217.347 353.812,217.768 354.239,218.184 354.661,218.583 355.085,218.984 355.463,219.341 355.843,219.7 356.233,220.069 356.591,220.405 356.95,220.743 357.329,221.099 357.677,221.424 358.027,221.752 358.402,222.102 358.746,222.424 359.092,222.748 359.464,223.09 359.827,223.423 360.208,223.77 360.591,224.118 360.946,224.445 361.324,224.772 361.704,225.099 362.085,225.402 362.488,225.749 362.891,226.099 363.272,226.422 363.653,226.747 364.034,227.073 364.439,227.428 364.844,227.78 365.224,228.088 365.614,228.434 366.003,228.781 366.39,229.111 366.786,229.463 367.182,229.813 367.56,230.128 367.97,230.481 368.352,230.775 368.732,231.067 369.133,231.404 369.507,231.722 369.878,232.036 370.267,232.338 370.653,232.637 371.036,232.933 371.424,233.285 371.808,233.633 372.239,234.017 372.656,234.387 373.071,234.754 373.492,235.147 373.894,235.539 374.312,235.908 374.733,236.271 375.152,236.632 375.551,236.974 375.916,237.317 376.342,237.584 376.768,237.852 377.193,238.12 " fill="none" stroke-width="1" stroke="rgb(0,0,255)" />
	<polyline points="238.529,271.358 238.849,271.063 239.141,270.77 239.484,270.472 239.825,270.178 240.181,269.895 240.524,269.609 240.866,269.326 241.233,269.054 241.602,268.811 241.972,268.569 242.342,268.322 242.713,268.075 243.085,267.788 243.449,267.526 243.815,267.264 244.183,267.002 244.54,266.749 244.898,266.497 245.24,266.255 245.584,266.013 245.913,265.769 246.25,265.514 246.589,265.259 246.929,265.003 247.246,264.787 247.566,264.57 247.888,264.353 248.211,264.115 248.556,263.879 248.902,263.643 249.224,263.457 249.547,263.271 249.873,263.086 250.222,262.873 250.572,262.661 250.924,262.449 251.244,262.267 251.565,262.085 251.892,261.904 252.258,261.694 252.624,261.485 252.992,261.276 253.328,261.114 253.665,260.953 253.996,260.782 254.385,260.592 254.776,260.402 255.169,260.213 255.514,260.044 255.845,259.884 256.197,259.708 256.55,259.533 256.905,259.358 257.239,259.196 257.574,259.033 257.922,258.862 258.298,258.684 258.674,258.505 259.052,258.327 259.392,258.154 259.733,257.982 260.067,257.821 260.398,257.65 260.728,257.48 261.058,257.311 261.393,257.139 261.727,256.967 262.062,256.788 262.412,256.601 262.761,256.415 263.11,256.228 263.45,256.051 263.797,255.864 264.143,255.676 264.485,255.495 264.827,255.313 265.194,255.114 265.561,254.914 265.949,254.716 266.307,254.521 266.664,254.326 267.019,254.131 267.395,253.935 267.772,253.731 268.149,253.526 268.486,253.345 268.824,253.164 269.161,252.983 269.54,252.769 269.918,252.555 270.281,252.351 270.643,252.146 271.004,251.942 271.391,251.728 271.777,251.514 272.163,251.3 272.506,251.111 272.847,250.924 273.201,250.731 273.554,250.539 273.907,250.347 274.253,250.164 274.599,249.98 274.953,249.804 275.349,249.616 275.745,249.429 276.141,249.242 276.5,249.064 276.845,248.891 277.188,248.719 277.531,248.547 277.872,248.377 278.227,248.202 278.581,248.029 278.943,247.857 279.327,247.685 279.709,247.515 280.09,247.345 280.452,247.172 280.813,246.999 281.18,246.822 281.527,246.663 281.874,246.504 282.265,246.338 282.657,246.171 283.048,246.005 283.419,245.853 283.79,245.701 284.161,245.549 284.535,245.39 284.909,245.23 285.3,245.075 285.674,244.917 286.047,244.759 286.439,244.601 286.831,244.443 287.209,244.281 287.588,244.12 287.966,243.958 288.342,243.797 288.716,243.635 289.091,243.474 289.507,243.304 289.922,243.135 290.298,242.967 290.685,242.799 291.071,242.632 291.443,242.458 291.813,242.283 292.183,242.109 292.552,241.944 292.923,241.778 293.306,241.61 293.691,241.442 294.075,241.272 294.444,241.111 294.812,240.95 295.162,240.793 295.528,240.639 295.895,240.484 296.251,240.331 296.608,240.177 296.964,240.023 297.35,239.87 297.737,239.716 298.123,239.562 298.494,239.406 298.865,239.25 299.223,239.093 299.581,238.935 299.939,238.788 300.306,238.612 300.674,238.435 301.042,238.258 301.385,238.1 301.729,237.941 302.073,237.777 302.422,237.608 302.771,237.438 303.12,237.268 303.463,237.098 303.807,236.927 304.146,236.773 304.499,236.589 304.853,236.404 305.195,236.231 305.538,236.056 305.92,235.838 306.265,235.668 306.609,235.497 306.954,235.325 307.326,235.14 307.699,234.953 308.05,234.785 308.391,234.608 308.733,234.43 309.075,234.251 309.414,234.073 309.786,233.872 310.159,233.672 310.5,233.5 " fill="none" stroke-width="1" stroke="rgb(0,0,255)" />
	<polyline points="169,246.637 169.423,247.016 169.847,247.385 170.271,247.744 170.695,248.104 171.116,248.499 171.538,248.886 171.959,249.228 172.382,249.605 172.799,249.979 173.203,250.366 173.621,250.766 174.051,251.177 174.481,251.589 174.917,252.006 175.355,252.432 175.802,252.867 176.201,253.255 176.593,253.635 176.985,254.015 177.37,254.386 177.759,254.761 178.153,255.14 178.519,255.491 178.888,255.846 179.261,256.204 179.637,256.564 180.016,256.928 180.388,257.283 180.763,257.641 181.14,258 181.53,258.369 181.922,258.738 182.336,259.109 182.735,259.471 183.134,259.832 183.557,260.2 183.979,260.568 184.38,260.885 184.779,261.223 185.178,261.557 185.577,261.899 185.991,262.245 186.393,262.562 186.794,262.877 187.193,263.205 187.613,263.546 188.031,263.884 188.461,264.27 188.888,264.653 189.295,265.011 189.759,265.408 190.221,265.804 190.657,266.243 191.091,266.682 191.505,267.076 191.962,267.475 192.397,267.883 192.858,268.327 193.276,268.713 193.696,269.103 194.112,269.458 194.526,269.842 194.947,270.211 195.346,270.583 195.749,270.957 196.167,271.352 196.551,271.723 196.938,272.097 197.321,272.471 197.706,272.846 198.112,273.257 198.495,273.635 198.878,274.013 199.268,274.413 199.658,274.812 200.029,275.225 200.426,275.636 200.819,276.046 201.226,276.463 201.629,276.878 202.026,277.316 202.428,277.742 202.83,278.167 203.233,278.551 203.637,278.935 204.087,279.355 204.544,279.812 204.963,280.206 205.35,280.564 205.737,280.924 206.175,281.328 206.628,281.772 207.087,282.22 207.465,282.585 207.849,282.956 208.248,283.352 208.653,283.754 209.065,284.163 209.446,284.54 209.832,284.921 210.232,285.318 210.636,285.718 211.043,286.122 211.432,286.509 211.823,286.898 212.236,287.302 212.649,287.707 213.063,288.112 213.452,288.5 213.842,288.887 214.261,289.308 214.679,289.728 215.096,290.147 215.482,290.533 215.867,290.917 216.271,291.342 216.675,291.766 217.077,292.189 217.46,292.571 217.842,292.953 218.277,293.388 218.71,293.823 219.117,294.233 219.501,294.615 219.885,294.996 220.3,295.397 220.714,295.797 221.128,296.197 221.516,296.588 221.903,296.979 222.296,297.366 222.686,297.752 223.075,298.136 223.472,298.53 223.866,298.922 224.249,299.303 224.63,299.68 225.007,300.054 225.397,300.434 225.783,300.811 226.177,301.199 226.56,301.578 226.94,301.955 227.342,302.35 227.741,302.742 228.137,303.133 228.56,303.543 228.98,303.949 229.432,304.368 229.881,304.785 230.306,305.147 230.762,305.558 231.216,305.968 231.68,306.385 232.141,306.803 232.6,307.22 233.059,307.634 233.522,308.06 233.98,308.479 234.404,308.825 234.818,309.202 235.237,309.522 235.657,309.84 236.081,310.17 236.5,310.5 " fill="none" stroke-width="1" stroke="rgb(0,0,255)" />
	<polyline points="271.5,295.5 271.671,295.351 271.842,295.202 272.014,295.053 272.187,294.905 272.361,294.756 272.537,294.607 272.714,294.457 272.894,294.306 273.075,294.155 273.259,294.002 273.442,293.851 273.628,293.698 273.817,293.544 274.01,293.389 274.2,293.23 274.395,293.07 274.596,292.91 274.802,292.748 275.011,292.585 275.221,292.424 275.436,292.261 275.656,292.097 275.881,291.93 276.104,291.762 276.326,291.598 276.55,291.432 276.778,291.265 277.01,291.097 277.259,290.917 277.499,290.749 277.743,290.579 277.992,290.407 278.238,290.226 278.491,290.043 278.751,289.867 279.017,289.69 279.299,289.496 279.588,289.3 279.882,289.101 280.173,288.927 280.459,288.729 280.747,288.53 281.04,288.33 281.338,288.139 281.64,287.947 281.952,287.744 282.256,287.552 282.563,287.359 282.874,287.164 283.191,286.957 283.507,286.761 283.826,286.564 284.147,286.367 284.483,286.155 284.823,285.941 285.155,285.739 285.488,285.522 285.824,285.304 286.162,285.084 286.528,284.855 286.895,284.625 287.239,284.421 287.583,284.218 287.926,284.015 288.273,283.81 288.621,283.605 288.972,283.398 289.331,283.159 289.689,282.921 290.037,282.709 290.412,282.469 290.787,282.23 291.162,281.991 291.535,281.753 291.91,281.514 292.257,281.303 292.601,281.094 292.946,280.87 293.284,280.665 293.62,280.46 293.956,280.257 294.286,280.046 294.613,279.852 294.94,279.658 295.281,279.449 295.624,279.24 295.967,279.031 296.307,278.821 296.646,278.612 296.984,278.404 297.327,278.201 297.671,277.999 298.023,277.787 298.374,277.579 298.725,277.37 299.078,277.162 299.449,276.952 299.805,276.755 300.161,276.557 300.538,276.346 300.916,276.134 301.258,275.948 301.608,275.75 301.959,275.552 302.311,275.353 302.663,275.155 303.015,274.958 303.348,274.772 303.683,274.585 304.019,274.398 304.381,274.188 304.743,273.979 305.093,273.786 305.439,273.592 305.786,273.398 306.133,273.204 306.492,273.003 306.855,272.788 307.191,272.604 307.526,272.419 307.861,272.235 308.237,272.025 308.607,271.827 308.977,271.629 309.329,271.428 309.683,271.226 310.038,271.024 310.432,270.8 310.826,270.577 311.187,270.383 311.549,270.191 311.909,269.999 312.276,269.806 312.645,269.612 313.016,269.418 313.389,269.198 313.762,268.98 314.127,268.786 314.524,268.573 314.922,268.361 315.291,268.174 315.663,267.988 316.046,267.798 316.416,267.62 316.787,267.443 317.16,267.266 317.528,267.093 317.898,266.92 318.262,266.742 318.629,266.563 318.998,266.384 319.354,266.213 319.711,266.042 320.066,265.882 320.41,265.715 320.756,265.549 321.102,265.382 321.452,265.213 321.803,265.045 322.149,264.868 322.502,264.689 322.854,264.511 323.199,264.335 323.543,264.159 323.886,263.983 324.232,263.805 324.576,263.628 324.919,263.451 325.265,263.272 325.609,263.093 325.952,262.915 326.331,262.723 326.708,262.531 327.082,262.341 327.435,262.165 327.787,261.991 328.141,261.801 328.51,261.616 328.878,261.432 329.248,261.235 329.614,261.04 329.979,260.867 330.402,260.68 330.821,260.495 331.193,260.33 331.563,260.165 331.931,260.002 332.319,259.835 332.705,259.668 333.089,259.503 333.487,259.338 333.883,259.173 334.262,259.013 334.672,258.856 335.081,258.7 335.45,258.548 335.819,258.396 336.225,258.244 336.632,258.091 337.04,257.938 337.42,257.786 337.8,257.634 338.182,257.481 338.539,257.324 338.897,257.166 339.25,257.012 339.605,256.854 339.961,256.695 340.339,256.535 340.718,256.374 341.099,256.213 341.443,256.058 341.788,255.905 342.132,255.752 342.487,255.579 342.843,255.405 343.194,255.247 343.547,255.088 343.9,254.929 344.271,254.758 344.644,254.586 345.02,254.413 345.355,254.257 345.69,254.1 346.025,253.943 346.41,253.763 346.796,253.583 347.182,253.403 347.531,253.245 347.882,253.088 348.262,252.897 348.643,252.706 349.025,252.514 349.369,252.349 349.713,252.183 350.059,252.016 350.441,251.832 350.822,251.647 351.181,251.462 351.541,251.277 351.902,251.091 352.278,250.893 352.653,250.696 353.028,250.499 353.376,250.32 353.722,250.141 354.068,249.962 354.407,249.787 354.747,249.612 355.086,249.437 355.428,249.25 355.77,249.063 356.101,248.884 356.443,248.696 356.785,248.508 357.126,248.321 357.46,248.146 357.795,247.971 358.138,247.783 358.48,247.602 358.822,247.42 359.165,247.237 359.527,247.04 359.906,246.848 360.259,246.658 360.61,246.469 360.958,246.281 361.319,246.097 361.683,245.902 362.047,245.707 362.385,245.525 362.723,245.344 363.061,245.163 363.413,244.963 363.763,244.775 364.114,244.587 364.461,244.405 364.808,244.223 365.154,244.041 365.506,243.843 365.858,243.644 366.203,243.459 366.546,243.273 366.889,243.089 367.243,242.905 367.597,242.722 367.951,242.538 368.322,242.344 368.693,242.151 369.062,241.957 369.442,241.779 369.82,241.601 370.197,241.433 370.573,241.265 370.947,241.098 371.342,240.931 371.711,240.753 372.081,240.574 372.499,240.391 372.917,240.208 373.298,240.04 373.702,239.878 374.105,239.716 374.535,239.555 374.964,239.393 375.366,239.246 375.769,239.099 376.171,238.952 376.616,238.801 377.061,238.649 377.5,238.5 " fill="none" stroke-width="1" stroke="rgb(0,0,255)" />
	<polyline points="267.288,413.309 267.557,412.23 267.846,411.212 268.033,410.13 268.144,409.105 268.218,407.808 268.291,406.23 268.355,404.644 268.418,402.796 268.475,400.959 268.526,399.229 268.573,397.549 268.616,395.903 268.657,394.267 268.696,392.637 268.732,391.012 268.767,389.385 268.799,387.759 268.829,386.134 268.857,384.506 268.883,382.879 268.909,381.252 268.933,379.625 268.958,377.996 268.982,376.373 269.006,374.737 269.039,373.082 269.078,371.45 269.139,369.89 269.214,368.283 269.316,366.933 269.412,365.584 269.475,363.822 269.51,362.099 269.535,360.441 269.554,358.805 269.571,357.168 269.583,355.518 269.595,353.815 269.625,352.075 269.669,350.292 269.758,348.824 269.861,347.375 269.964,345.907 270.034,344.386 270.073,342.75 270.158,341.3 270.234,339.978 270.291,338.473 270.316,336.664 270.322,334.791 270.32,333.022 270.317,331.328 270.311,329.678 270.306,328.054 270.3,326.437 270.295,324.818 270.292,323.181 270.29,321.506 270.295,319.763 270.32,318.006 270.366,316.318 270.446,315.011 270.531,313.697 270.592,312.106 270.645,310.355 270.683,308.403 270.721,306.413 270.779,304.623 270.865,303.2 271,301.852 271.142,300.75 271.288,299.481 271.374,298.038 271.466,296.75 271.5,295.5 " fill="none" stroke-width="1" stroke="rgb(0,0,255)" />
	<polyline points="239.5,268.5 239.884,268.626 240.276,268.754 240.669,268.881 241.064,269.007 241.454,269.19 241.839,269.385 242.189,269.631 242.507,269.921 242.813,270.232 243.12,270.548 243.433,270.877 243.753,271.216 244.079,271.561 244.422,271.908 244.77,272.259 245.129,272.621 245.497,272.992 245.832,273.328 246.195,273.69 246.577,274.069 246.928,274.413 247.321,274.799 247.732,275.202 248.093,275.552 248.498,275.949 248.869,276.308 249.284,276.711 249.71,277.126 250.095,277.498 250.52,277.91 250.913,278.288 251.342,278.703 251.775,279.12 252.176,279.505 252.606,279.918 253.006,280.301 253.437,280.711 253.869,281.121 254.304,281.533 254.74,281.944 255.147,282.329 255.586,282.736 256.024,283.141 256.476,283.553 256.926,283.963 257.362,284.339 257.795,284.71 258.219,285.087 258.673,285.473 259.121,285.855 259.537,286.2 259.947,286.539 260.341,286.864 260.763,287.222 261.176,287.571 261.557,287.857 261.951,288.187 262.322,288.485 262.687,288.778 263.045,289.065 263.42,289.347 263.789,289.622 264.151,289.89 264.499,290.148 264.839,290.4 265.224,290.734 265.598,291.053 265.951,291.313 266.301,291.578 266.644,291.836 266.981,292.088 267.325,292.375 267.661,292.657 267.991,292.934 268.326,293.173 268.655,293.41 268.98,293.644 269.303,293.88 269.625,294.116 269.937,294.367 270.251,294.6 270.564,294.831 270.876,295.061 271.188,295.281 271.5,295.5 " fill="none" stroke-width="1" stroke="rgb(0,0,255)" />
	<polyline points="165.877,243.427 166.544,244.092 167.118,244.858 167.94,245.579 169,246.637 " fill="none" stroke-width="1" stroke="rgb(0,0,255)" />
	<polyline points="236.5,310.5 236.698,309.454 236.912,308.423 237.088,307.478 237.22,306.534 237.343,305.572 237.452,304.6 237.548,303.493 237.619,301.97 237.674,300.436 237.71,298.691 237.735,297.031 237.754,295.514 237.768,294.096 237.781,292.746 237.793,291.434 237.805,290.15 237.816,288.864 237.828,287.586 237.84,286.292 237.853,284.967 237.866,283.615 237.881,282.203 237.899,280.704 237.924,279.159 237.96,277.567 238.017,276.195 238.078,275.019 238.171,274.003 238.264,273.063 238.403,272.198 238.529,271.358 " fill="none" stroke-width="1" stroke="rgb(0,0,255)" />
	<polyline points="238.529,271.358 238.814,270.517 239.107,269.648 239.5,268.5 " fill="none" stroke-width="1" stroke="rgb(0,0,255)" />
	<polyline points="269.427,419.198 269.777,418.934 270.131,418.689 270.482,418.426 270.832,418.163 271.182,417.913 271.528,417.64 271.875,417.366 272.22,417.104 272.573,416.84 272.926,416.575 273.259,416.341 273.594,416.107 273.938,415.828 274.281,415.567 274.627,415.305 274.974,415.041 275.291,414.817 275.609,414.593 275.928,414.368 276.276,414.113 276.604,413.865 276.933,413.617 277.25,413.362 277.57,413.105 277.882,412.863 278.207,412.597 278.532,412.33 278.858,412.063 279.174,411.802 279.49,411.542 279.807,411.28 280.124,411.019 280.427,410.761 280.729,410.504 281.031,410.248 281.34,409.991 281.66,409.735 281.981,409.478 282.282,409.243 282.583,409.007 282.891,408.756 283.221,408.491 283.551,408.226 283.882,407.96 284.196,407.716 284.511,407.472 284.825,407.228 285.14,406.983 285.473,406.745 285.805,406.507 286.136,406.27 286.461,406.015 286.771,405.776 287.081,405.537 287.408,405.29 287.735,405.042 288.058,404.81 288.372,404.557 288.687,404.304 289.003,404.051 289.332,403.797 289.663,403.544 289.994,403.29 290.301,403.055 290.608,402.802 290.916,402.55 291.261,402.294 291.608,402.037 291.957,401.782 292.292,401.54 292.628,401.299 292.963,401.057 293.314,400.814 293.663,400.572 294.012,400.332 294.351,400.078 294.7,399.84 295.052,399.601 295.4,399.348 295.748,399.095 296.085,398.87 296.437,398.621 296.79,398.372 297.145,398.122 297.485,397.902 297.852,397.653 298.195,397.431 298.536,397.21 298.875,396.991 299.205,396.778 299.535,396.565 299.864,396.353 300.185,396.137 300.507,395.919 300.829,395.717 301.151,395.515 301.489,395.297 301.828,395.079 302.151,394.87 302.482,394.651 302.811,394.434 303.138,394.217 303.472,394.002 303.813,393.777 304.153,393.551 304.486,393.331 304.815,393.114 305.179,392.869 305.511,392.646 305.845,392.422 306.196,392.182 306.546,391.942 306.877,391.711 307.203,391.473 307.529,391.235 307.853,390.998 308.182,390.745 308.508,390.495 308.83,390.246 309.151,389.998 309.477,389.753 309.804,389.506 310.131,389.258 310.438,389.033 310.74,388.787 311.046,388.536 311.368,388.282 311.688,388.03 312.017,387.768 312.331,387.523 312.646,387.278 312.962,387.031 313.286,386.769 313.61,386.508 313.933,386.247 314.26,385.986 314.586,385.724 314.914,385.461 315.258,385.196 315.601,384.933 315.921,384.698 316.259,384.45 316.599,384.202 316.94,383.953 317.267,383.713 317.597,383.473 317.928,383.231 318.249,383.002 318.579,382.768 318.909,382.534 319.221,382.317 319.534,382.101 319.857,381.876 320.176,381.66 320.496,381.443 320.817,381.227 321.139,381.01 321.46,380.802 321.78,380.595 322.1,380.389 322.442,380.164 322.784,379.94 323.114,379.731 323.44,379.509 323.766,379.288 324.093,379.067 324.452,378.834 324.81,378.602 325.167,378.371 325.5,378.166 325.833,377.963 326.165,377.734 326.499,377.528 326.834,377.322 327.171,377.089 327.507,376.875 327.845,376.66 328.207,376.418 328.567,376.177 328.925,375.937 329.275,375.695 329.627,375.452 329.979,375.208 330.318,374.989 330.668,374.743 331.02,374.497 331.377,374.266 331.733,374.036 332.082,373.79 332.437,373.559 332.794,373.327 333.153,373.094 333.504,372.867 333.858,372.639 334.223,372.399 334.588,372.158 334.954,371.918 335.291,371.675 335.631,371.431 335.972,371.185 336.325,370.947 336.675,370.708 337.025,370.47 337.374,370.253 337.726,370.035 338.083,369.806 338.426,369.594 338.77,369.383 339.115,369.171 339.474,368.946 339.832,368.735 340.181,368.512 340.53,368.29 340.878,368.068 341.245,367.853 341.613,367.637 341.983,367.421 342.316,367.226 342.648,367.033 342.986,366.818 343.324,366.617 343.662,366.417 343.998,366.219 344.325,366.013 344.647,365.826 344.969,365.639 345.308,365.435 345.647,365.23 345.987,365.026 346.323,364.821 346.658,364.616 346.993,364.411 347.312,364.221 347.63,364.031 347.962,363.825 348.291,363.629 348.621,363.432 348.953,363.234 349.299,363.018 349.629,362.815 349.961,362.611 350.326,362.387 350.69,362.163 351.053,361.94 351.409,361.738 351.765,361.536 352.12,361.334 352.463,361.136 352.805,360.938 353.157,360.731 353.491,360.543 353.824,360.356 354.156,360.169 354.515,359.969 354.854,359.781 355.21,359.591 355.564,359.401 355.916,359.212 356.251,359.021 356.603,358.818 356.954,358.615 357.289,358.431 357.622,358.249 357.953,358.067 358.294,357.874 358.633,357.683 358.969,357.492 359.33,357.298 359.689,357.104 360.046,356.911 360.403,356.72 360.76,356.53 361.116,356.339 361.464,356.15 361.811,355.961 362.194,355.754 362.577,355.547 362.959,355.34 363.349,355.132 363.739,354.924 364.116,354.709 364.5,354.5 " fill="none" stroke-width="1" stroke="rgb(0,0,255)" />
	<polyline points="364.5,354.5 364.804,354.367 365.109,354.233 365.408,354.096 365.708,353.958 366.026,353.819 366.338,353.682 366.652,353.544 366.966,353.405 367.285,353.26 367.605,353.114 367.927,352.966 368.243,352.818 368.561,352.669 368.881,352.519 369.185,352.369 369.491,352.218 369.798,352.066 370.13,351.908 370.442,351.753 370.756,351.595 371.073,351.435 371.385,351.278 371.699,351.118 372.016,350.956 372.306,350.81 372.597,350.662 372.889,350.513 373.175,350.365 373.462,350.215 373.75,350.064 374.046,349.912 374.339,349.764 374.632,349.614 374.926,349.464 375.225,349.311 375.525,349.156 375.827,349 376.118,348.846 376.414,348.692 376.71,348.536 377.006,348.38 377.307,348.219 377.611,348.057 377.946,347.864 378.244,347.702 378.542,347.54 378.84,347.377 379.167,347.194 379.493,347.009 379.805,346.846 380.114,346.683 380.42,346.491 380.727,346.297 381.036,346.103 381.343,345.924 381.664,345.729 381.985,345.534 382.282,345.345 382.579,345.156 382.876,344.965 383.182,344.772 383.488,344.578 383.794,344.384 384.1,344.189 384.407,343.973 384.705,343.767 385.002,343.563 385.319,343.344 385.635,343.127 385.949,342.91 386.256,342.692 386.562,342.475 386.866,342.259 387.173,342.058 387.499,341.851 387.824,341.644 388.149,341.437 388.466,341.242 388.783,341.046 389.109,340.834 389.443,340.639 389.778,340.444 390.113,340.249 390.459,340.047 390.804,339.864 391.149,339.681 391.5,339.5 " fill="none" stroke-width="1" stroke="rgb(0,0,255)" />
	<polyline points="268.5,417.5 268.707,417.835 268.886,418.175 269.065,418.516 269.24,418.853 269.427,419.198 " fill="none" stroke-width="1" stroke="rgb(0,0,255)" />
	<polyline points="268.352,421.486 269.427,419.198 " fill="none" stroke-width="1" stroke="rgb(0,0,255)" />
	<polyline points="236.5,142.5 236.942,142.73 237.405,142.936 237.85,143.135 238.249,143.389 238.649,143.642 239.049,143.896 239.464,144.118 239.879,144.341 240.274,144.558 240.67,144.776 241.068,144.994 241.456,145.209 241.846,145.425 242.229,145.653 242.612,145.883 242.997,146.113 243.384,146.336 243.773,146.56 244.163,146.784 244.524,146.988 244.942,147.264 245.332,147.495 245.723,147.727 246.115,147.961 246.462,148.163 246.81,148.364 247.159,148.565 247.513,148.773 247.867,148.981 248.256,149.229 248.646,149.478 249.036,149.727 249.391,149.928 249.746,150.142 250.1,150.357 250.451,150.562 250.801,150.765 251.15,150.967 251.504,151.17 251.859,151.371 252.255,151.619 252.65,151.866 253.044,152.114 253.436,152.362 253.828,152.608 254.184,152.815 254.539,153.023 254.925,153.274 255.289,153.482 255.653,153.689 256.015,153.897 256.399,154.144 256.781,154.388 257.161,154.63 257.557,154.898 257.947,155.133 258.354,155.419 258.758,155.702 259.16,155.981 259.577,156.298 259.992,156.613 260.41,156.93 260.834,157.246 261.259,157.545 261.684,157.844 262.085,158.176 262.5,158.5 " fill="none" stroke-width="1" stroke="rgb(0,0,255)" />
	<polyline points="135.5,179.5 135.882,179.403 136.27,179.3 136.657,179.196 137.044,179.092 137.418,178.983 137.808,178.868 138.196,178.75 138.584,178.631 138.972,178.512 139.352,178.385 139.732,178.259 140.112,178.132 140.503,178.006 140.866,177.881 141.21,177.759 141.555,177.638 141.899,177.517 142.267,177.392 142.635,177.266 143.004,177.141 143.349,177.02 143.685,176.898 144.021,176.776 144.397,176.658 144.772,176.54 145.147,176.422 145.483,176.305 145.818,176.187 146.196,176.07 146.575,175.953 146.947,175.834 147.298,175.719 147.649,175.604 148.002,175.489 148.369,175.366 148.737,175.242 149.106,175.119 149.483,175.002 149.84,174.879 150.219,174.756 150.6,174.632 150.981,174.508 151.342,174.383 151.704,174.258 152.068,174.133 152.456,174.008 152.823,173.883 153.217,173.759 153.611,173.634 154.007,173.509 154.372,173.379 154.739,173.249 155.106,173.119 155.501,172.988 155.868,172.854 156.25,172.72 156.634,172.586 157.02,172.451 157.383,172.315 157.747,172.179 158.112,172.042 158.476,171.906 158.84,171.77 159.227,171.622 159.614,171.473 160.003,171.323 160.359,171.183 160.715,171.042 161.074,170.891 161.429,170.743 161.785,170.595 162.143,170.446 162.5,170.304 162.858,170.162 163.224,170.014 163.596,169.865 163.968,169.715 164.307,169.578 164.646,169.44 164.987,169.301 165.352,169.15 165.716,168.999 166.08,168.844 166.431,168.705 166.782,168.566 167.133,168.427 167.484,168.274 167.836,168.12 168.177,167.984 168.525,167.844 168.872,167.703 169.26,167.557 169.648,167.411 170.035,167.265 170.392,167.122 170.748,166.98 171.088,166.846 171.461,166.701 171.832,166.556 172.18,166.431 172.526,166.306 172.871,166.182 173.27,166.046 173.69,165.916 174.109,165.787 174.46,165.661 174.81,165.534 175.221,165.402 175.631,165.271 176.04,165.14 176.386,165.008 176.737,164.879 177.088,164.751 177.481,164.61 177.874,164.47 178.221,164.342 178.567,164.215 178.914,164.087 179.301,163.947 179.697,163.812 180.093,163.677 180.446,163.54 180.799,163.403 181.153,163.266 181.531,163.128 181.908,162.99 182.269,162.853 182.631,162.716 182.993,162.579 183.354,162.44 183.714,162.301 184.072,162.162 184.444,162.024 184.82,161.885 185.192,161.747 185.563,161.609 185.933,161.472 186.308,161.333 186.68,161.194 187.051,161.056 187.417,160.923 187.784,160.79 188.15,160.657 188.527,160.524 188.903,160.392 189.285,160.273 189.667,160.154 190.049,160.035 190.431,159.922 190.813,159.808 191.194,159.688 191.577,159.568 191.959,159.448 192.336,159.331 192.713,159.214 193.091,159.097 193.488,158.975 193.864,158.85 194.222,158.72 194.582,158.59 194.943,158.459 195.306,158.33 195.672,158.201 196.039,158.071 196.389,157.938 196.745,157.813 197.102,157.686 197.484,157.552 197.866,157.417 198.246,157.289 198.626,157.16 199.008,157.032 199.347,156.909 199.687,156.785 200.027,156.662 200.388,156.531 200.749,156.399 201.111,156.268 201.455,156.144 201.8,156.02 202.172,155.891 202.566,155.752 202.96,155.613 203.324,155.472 203.689,155.33 204.056,155.187 204.43,155.037 204.814,154.873 205.186,154.715 205.542,154.565 205.896,154.416 206.271,154.251 206.646,154.085 207.023,153.919 207.387,153.754 207.754,153.589 208.122,153.422 208.48,153.266 208.839,153.11 209.207,152.938 209.568,152.78 209.93,152.621 210.311,152.448 210.692,152.274 211.074,152.1 211.441,151.944 211.808,151.79 212.176,151.635 212.528,151.486 212.879,151.338 213.236,151.193 213.592,151.048 213.951,150.897 214.308,150.747 214.664,150.596 215.021,150.445 215.364,150.302 215.707,150.159 216.051,150.016 216.383,149.886 216.714,149.756 217.045,149.626 217.381,149.498 217.716,149.37 218.051,149.243 218.379,149.114 218.706,148.986 219.038,148.852 219.366,148.717 219.693,148.583 220.019,148.449 220.353,148.313 220.686,148.178 221.018,148.044 221.359,147.913 221.699,147.782 222.037,147.652 222.387,147.509 222.736,147.366 223.083,147.224 223.438,147.091 223.792,146.959 224.129,146.821 224.493,146.682 224.857,146.543 225.204,146.41 225.549,146.278 225.891,146.147 226.279,146.012 226.668,145.876 227.054,145.741 227.434,145.617 227.812,145.493 228.213,145.37 228.611,145.246 229.008,145.123 229.419,145.015 229.809,144.894 230.239,144.797 230.667,144.699 231.094,144.6 231.5,144.5 " fill="none" stroke-width="1" stroke="rgb(0,0,255)" />
	<polyline points="231.5,144.5 231.662,144.374 231.825,144.247 231.989,144.12 232.151,143.994 232.335,143.856 232.519,143.718 232.703,143.579 232.888,143.441 233.073,143.301 233.246,143.172 233.419,143.043 233.588,142.911 233.755,142.781 233.92,142.651 234.1,142.514 234.279,142.378 " fill="none" stroke-width="1" stroke="rgb(0,0,255)" />
	<polyline points="234.279,142.378 233.975,142.873 233.814,143.41 233.652,143.948 233.5,144.5 " fill="none" stroke-width="1" stroke="rgb(0,0,255)" />
	<polyline points="262.5,158.5 262.693,159.08 262.837,159.725 262.946,160.403 263.046,161.086 263.016,161.807 263.087,162.448 263.155,163.091 263.17,163.886 263.215,164.61 263.259,165.331 263.28,166.173 263.303,166.998 263.314,167.889 263.327,168.749 263.335,169.61 263.345,170.444 263.355,171.269 263.365,172.087 263.378,172.897 263.396,173.709 263.421,174.518 263.445,175.324 263.482,176.124 263.534,176.891 263.594,177.653 263.656,178.402 263.717,179.152 263.774,179.918 263.82,180.697 263.85,181.507 263.88,182.315 263.902,183.123 263.915,183.939 263.925,184.75 263.933,185.564 263.939,186.377 263.946,187.185 263.953,187.994 263.963,188.798 263.979,189.584 264.025,190.321 264.082,191.025 264.146,191.701 264.201,192.4 264.257,193.098 264.303,193.829 264.336,194.586 264.369,195.345 264.389,196.135 264.408,196.91 264.419,197.701 264.441,198.45 264.462,199.198 264.482,199.979 264.492,200.725 264.5,201.5 " fill="none" stroke-width="1" stroke="rgb(0,0,255)" />
	<polyline points="159.5,202.5 159.898,202.346 160.264,202.203 160.631,202.06 161.007,201.9 161.389,201.708 161.772,201.516 162.156,201.324 162.538,201.16 162.922,200.997 163.299,200.809 163.677,200.621 164.056,200.433 164.421,200.258 164.788,200.083 165.147,199.912 165.511,199.723 165.875,199.533 166.222,199.374 166.571,199.215 166.922,199.056 167.277,198.886 167.634,198.715 167.993,198.545 168.353,198.393 168.714,198.242 169.077,198.092 169.439,197.914 169.802,197.758 170.166,197.601 170.528,197.438 170.892,197.275 171.275,197.134 171.66,196.993 172.021,196.838 172.417,196.685 172.817,196.531 173.191,196.379 173.564,196.228 173.931,196.079 174.335,195.922 174.717,195.769 175.106,195.616 175.51,195.468 175.916,195.32 176.303,195.169 176.692,195.019 177.111,194.868 177.499,194.718 177.889,194.569 178.294,194.411 178.7,194.252 179.109,194.094 179.49,193.943 179.888,193.79 180.254,193.639 180.62,193.488 180.986,193.338 181.362,193.191 181.738,193.044 182.108,192.893 182.474,192.743 182.841,192.593 183.203,192.446 183.567,192.298 183.932,192.15 184.289,192.007 184.647,191.871 185.006,191.737 185.39,191.602 185.775,191.468 186.161,191.334 186.526,191.207 186.892,191.08 187.299,190.948 187.679,190.802 188.061,190.656 188.426,190.507 188.791,190.358 189.155,190.21 189.549,190.06 190.025,189.897 190.377,189.765 190.731,189.634 191.084,189.501 191.5,189.354 191.914,189.207 192.265,189.074 192.616,188.94 192.991,188.786 193.374,188.638 193.755,188.491 194.134,188.345 194.514,188.19 194.892,188.036 195.283,187.879 195.672,187.722 196.058,187.565 196.451,187.416 196.842,187.266 197.244,187.106 197.643,186.946 198.055,186.797 198.462,186.647 198.866,186.498 199.274,186.361 199.68,186.225 200.084,186.088 200.492,185.944 200.888,185.808 201.281,185.656 201.674,185.504 202.067,185.352 202.444,185.207 202.819,185.062 203.22,184.912 203.622,184.762 204.025,184.612 204.406,184.469 204.788,184.325 205.17,184.181 205.587,184.036 205.997,183.89 206.354,183.756 206.712,183.621 207.071,183.486 207.488,183.343 207.906,183.199 208.262,183.06 208.635,182.921 209.009,182.782 209.428,182.63 209.848,182.477 210.214,182.341 210.581,182.205 210.949,182.068 211.367,181.924 211.786,181.78 212.206,181.636 212.554,181.499 212.903,181.361 213.3,181.214 213.697,181.066 214.094,180.903 214.457,180.759 214.821,180.616 215.198,180.458 215.577,180.299 215.957,180.141 216.313,180.003 216.667,179.864 217.022,179.726 217.428,179.582 217.835,179.437 218.202,179.298 218.569,179.158 218.936,179.018 219.341,178.871 219.747,178.723 220.155,178.575 220.525,178.447 220.896,178.319 221.338,178.178 221.787,178.036 222.213,177.897 222.589,177.769 222.961,177.641 223.361,177.501 223.762,177.36 224.166,177.219 224.527,177.086 224.89,176.953 225.316,176.804 225.744,176.655 226.174,176.505 226.542,176.359 226.911,176.213 227.302,176.056 227.671,175.908 228.04,175.76 228.398,175.606 228.756,175.451 229.114,175.296 229.481,175.139 229.847,174.981 230.211,174.82 230.575,174.659 230.939,174.497 231.307,174.33 231.675,174.163 232.042,173.995 232.417,173.833 232.792,173.671 233.165,173.508 233.551,173.342 233.935,173.176 234.317,173.011 234.701,172.846 235.084,172.681 235.475,172.512 235.867,172.342 236.266,172.168 236.664,171.993 237.048,171.83 237.455,171.658 237.861,171.485 238.242,171.32 238.621,171.154 238.997,170.99 239.383,170.821 239.766,170.652 240.147,170.483 240.547,170.298 240.944,170.115 241.315,169.944 241.697,169.76 242.077,169.576 242.448,169.393 242.819,169.21 243.204,169.008 243.564,168.827 243.924,168.645 244.325,168.443 244.724,168.242 245.121,168.041 245.51,167.839 245.898,167.638 246.266,167.457 246.631,167.277 246.992,167.097 247.373,166.903 247.732,166.73 248.089,166.557 248.451,166.391 248.809,166.226 249.165,166.06 249.539,165.883 249.91,165.707 250.253,165.536 250.594,165.366 250.931,165.195 251.28,165.02 251.622,164.857 251.959,164.695 252.293,164.525 252.624,164.356 252.952,164.186 253.271,164.021 253.596,163.847 253.915,163.675 254.236,163.497 254.55,163.322 254.858,163.148 255.161,162.973 255.458,162.816 255.747,162.661 256.031,162.507 256.323,162.336 256.609,162.167 256.89,162 257.169,161.829 257.442,161.661 257.711,161.495 257.975,161.331 258.236,161.175 258.493,161.02 258.748,160.864 259,160.708 259.247,160.558 259.492,160.41 259.733,160.262 259.972,160.116 260.212,159.968 260.448,159.817 260.683,159.667 260.915,159.519 261.146,159.37 261.376,159.222 261.605,159.075 261.832,158.928 262.053,158.786 262.277,158.643 262.5,158.5 " fill="none" stroke-width="1" stroke="rgb(0,0,255)" />
	<polyline points="272.9,403.5 272.927,400.44 272.953,399.928 273,399.546 " fill="none" stroke-width="1" stroke="rgb(0,0,255)" />
</g></svg>
