<?xml version="1.0" ?>
<svg xmlns="http://www.w3.org/2000/svg" xmlns:ev="http://www.w3.org/2001/xml-events" xmlns:xlink="http://www.w3.org/1999/xlink" baseProfile="full" height="600px" version="1.1" viewBox="110.31219160000002 46.2301116 335.71161679999994 411.72297679999997" width="490px">
	<defs/>
	<path d="M 297.262,93.971 L 301.521,90.9546 L 306.173,88.3435 L 312.801,85.4145 L 318.177,83.5059 L 330.812,81.403 L 336.046,80.8236 L 340.097,80.6832 L 344.685,81.1242 L 350.019,82.1865 L 356.182,84.0374 L 363.016,86.4526 L 367.122,88.2043 L 371.061,90.2164 L 374.859,92.4675 L 378.292,95.0511 L 383.039,99.1759 L 397.342,112.953 L 407.868,124.908 L 409.186,126.867 L 410.657,129.822 L 413.077,135.974 L 414.481,140.06 L 415.287,142.93 L 416.696,151.864 L 417.897,162.994 L 417.905,167.178 L 417.197,174.195 L 416.869,182.937 L 416.069,194.213 L 415.928,201.121 L 415.31,206.87 L 414.736,214.987 L 413.384,229.864 L 411.903,238.601 L 411.181,242.008 L 409.444,249.188 L 406.447,258.877 L 405.105,264.045 L 403.01,274.782 L 401.531,285.199 L 400.187,293.122 L 399.721,298.991 L 398.274,312.032 L 396.004,328.14 L 395.994,331.667" fill="none" stroke="rgb(31,119,180)" stroke-width="3"/>
	<path d="M 267.288,413.309 L 263.013,409.994 L 254.154,402.598 L 238.522,388.137 L 235.386,385.069 L 233.026,382.6 L 218.639,366.087 L 210.955,358.137 L 205.777,353.12 L 196.407,343.173 L 189.69,335.082 L 186.464,331.842 L 183.159,328.882 L 175.686,320.924 L 166.563,312.024 L 153.825,298.878 L 152.358,297.13 L 151.53,295.803 L 150.83,294.073 L 150.3,291.704 L 147.82,274.099 L 146.6,267.043 L 145.839,258.868 L 143.639,241.823 L 142.542,231.976 L 139.402,208.829 L 138.531,196.811 L 138.431,190.105 L 138.615,188.169 L 138.907,186.916" fill="none" stroke="rgb(174,199,232)" stroke-width="3"/>
	<path d="M 297.262,93.971 L 298.401,95.0445 L 303.219,97.9353 L 309.935,101.596 L 323.902,108.641 L 327.991,110.888 L 330.982,112.968 L 332.094,113.923 L 339.097,120.571 L 345.102,125.926 L 350.503,131.809 L 355.509,137.991 L 356.988,140.167 L 360.37,145.875 L 365.163,155.051 L 366.524,157.961 L 373.258,174.059 L 374.386,177.313 L 375.879,182.685 L 377.356,189.387 L 377.965,193.384 L 378.496,199.04 L 380.575,213.903 L 380.647,220.827 L 380.22,226.115 L 378.677,232.872 L 377.193,238.12" fill="none" stroke="rgb(255,127,14)" stroke-width="3"/>
	<path d="M 271.5,295.5 L 275.011,292.585 L 278.491,290.043 L 286.895,284.625 L 299.078,277.162 L 313.762,268.98 L 329.979,260.867 L 338.182,257.481 L 347.882,253.088 L 355.086,249.437 L 369.062,241.957 L 373.298,240.04 L 377.193,238.12" fill="none" stroke="rgb(255,187,120)" stroke-width="3"/>
	<path d="M 267.288,413.309 L 268.144,409.105 L 268.418,402.796 L 269.078,371.45 L 269.475,363.822 L 269.669,350.292 L 270.291,338.473 L 270.366,316.318 L 270.779,304.623 L 271.288,299.481 L 271.5,295.5" fill="none" stroke="rgb(44,160,44)" stroke-width="3"/>
	<path d="M 377.193,238.12 L 377.909,246.861 L 377.499,258.144 L 375.965,272.68 L 373.841,288.839 L 372.896,294.784 L 370.097,308.95 L 368.19,322.978 L 366.769,336.985 L 364.989,349.599 L 364.5,354.5" fill="none" stroke="rgb(152,223,138)" stroke-width="3"/>
	<path d="M 267.5,423.5 L 276.933,413.617 L 283.882,407.96 L 291.608,402.037 L 297.145,398.122 L 306.877,391.711 L 315.601,384.933 L 319.857,381.876 L 337.025,370.47 L 340.878,368.068 L 353.157,360.731 L 364.5,354.5" fill="none" stroke="rgb(214,39,40)" stroke-width="3"/>
	<path d="M 159.5,202.5 L 170.892,197.275 L 184.289,192.007 L 217.022,179.726 L 228.04,175.76 L 241.315,169.944 L 251.959,164.695 L 256.323,162.336 L 262.5,158.5" fill="none" stroke="rgb(255,152,150)" stroke-width="3"/>
	<path d="M 164.5,243.5 L 173.04,241.252 L 184.17,236.925 L 199.562,230.067 L 218.108,223.445 L 221.914,221.901 L 239.025,214.166 L 250.811,207.629 L 264.5,201.5" fill="none" stroke="rgb(148,103,189)" stroke-width="3"/>
	<path d="M 138.907,186.916 L 157.02,172.451 L 171.832,166.556 L 188.527,160.524 L 193.864,158.85 L 202.96,155.613 L 216.051,150.016 L 225.891,146.147 L 229.008,145.123 L 236.5,142.5" fill="none" stroke="rgb(197,176,213)" stroke-width="3"/>
	<path d="M 164.5,243.5 L 172.799,249.979 L 181.922,258.738 L 190.221,265.804 L 196.167,271.352 L 202.83,278.167 L 207.849,282.956 L 228.137,303.133 L 233.98,308.479 L 236.5,310.5" fill="none" stroke="rgb(140,86,75)" stroke-width="3"/>
	<path d="M 236.5,142.5 L 237.91,137.856 L 239.487,133.922 L 243.769,124.956 L 247.395,118.267 L 248.952,115.889 L 251.892,112.024 L 253.754,110.004 L 256.152,107.931 L 260.8,104.941 L 265.819,102.438 L 268.395,101.344 L 277.673,98.0226 L 282.113,96.6526 L 287.002,95.4851 L 292.423,94.4777 L 297.262,93.971" fill="none" stroke="rgb(196,156,148)" stroke-width="3"/>
	<path d="M 238.529,271.358 L 241.233,269.054 L 246.929,265.003 L 250.924,262.449 L 252.992,261.276 L 261.727,256.967 L 274.599,249.98 L 281.874,246.504 L 299.939,238.788 L 310.5,233.5" fill="none" stroke="rgb(227,119,194)" stroke-width="3"/>
	<path d="M 264.5,201.5 L 268.9,204.059 L 281.012,212.356 L 288.98,218.328 L 307.905,231.287 L 310.5,233.5" fill="none" stroke="rgb(247,182,210)" stroke-width="3"/>
	<path d="M 310.5,233.5 L 317.108,230.954 L 330.214,224.984 L 338.23,221.941 L 345.917,218.812 L 352.5,216.5" fill="none" stroke="rgb(127,127,127)" stroke-width="3"/>
	<path d="M 262.5,158.5 L 263.046,161.086 L 263.155,163.091 L 263.445,175.324 L 263.82,180.697 L 263.979,189.584 L 264.303,193.829 L 264.5,201.5" fill="none" stroke="rgb(199,199,199)" stroke-width="3"/>
	<path d="M 238.529,271.358 L 242.189,269.631 L 251.342,278.703 L 258.219,285.087 L 263.045,289.065 L 271.5,295.5" fill="none" stroke="rgb(188,189,34)" stroke-width="3"/>
	<path d="M 159.5,202.5 L 162.211,228.032 L 163.673,238.94 L 164.5,243.5" fill="none" stroke="rgb(219,219,141)" stroke-width="3"/>
	<path d="M 236.5,310.5 L 237.088,307.478 L 237.548,303.493 L 237.96,277.567 L 238.171,274.003 L 238.529,271.358" fill="none" stroke="rgb(23,190,207)" stroke-width="3"/>
	<path d="M 352.5,216.5 L 360.946,224.445 L 371.036,232.933 L 375.916,237.317 L 377.193,238.12" fill="none" stroke="rgb(158,218,229)" stroke-width="3"/>
	<path d="M 364.5,354.5 L 370.442,351.753 L 380.114,346.683 L 388.149,341.437 L 395.994,331.667" fill="none" stroke="rgb(31,119,180)" stroke-width="3"/>
	<path d="M 236.5,142.5 L 251.859,151.371 L 257.947,155.133 L 262.5,158.5" fill="none" stroke="rgb(174,199,232)" stroke-width="3"/>
	<path d="M 138.907,186.916 L 142.591,188.272 L 145.428,189.739 L 147.153,190.724 L 150.438,193.05 L 153.977,196.084 L 156.007,198.219 L 159.5,202.5" fill="none" stroke="rgb(255,127,14)" stroke-width="3"/>
	<path d="M 267.288,413.309 L 267.992,422.198 L 267.722,422.918 L 267.5,423.5" fill="none" stroke="rgb(255,187,120)" stroke-width="3"/>
	<path d="M 267.288,413.309 L 267.5,423.5" fill="none" stroke="rgb(44,160,44)" stroke-width="3"/>
</svg>
