<?xml version="1.0" ?>
<svg xmlns="http://www.w3.org/2000/svg" xmlns:ev="http://www.w3.org/2001/xml-events" xmlns:xlink="http://www.w3.org/1999/xlink" baseProfile="full" height="600px" version="1.1" viewBox="110.31408405 46.433594049999996 335.6898319 411.5009119" width="490px">
	<defs/>
	<path d="M 267.288,413.309 L 263.013,409.994 L 254.154,402.598 L 238.522,388.137 L 235.386,385.069 L 233.026,382.6 L 218.639,366.087 L 210.955,358.137 L 205.777,353.12 L 196.407,343.173 L 189.69,335.082 L 186.464,331.842 L 183.159,328.882 L 175.686,320.924 L 166.563,312.024 L 153.825,298.878 L 152.358,297.13 L 151.53,295.803 L 150.83,294.073 L 150.3,291.704 L 147.82,274.099 L 146.6,267.043 L 145.839,258.868 L 143.639,241.823 L 142.542,231.976 L 139.402,208.829 L 138.531,196.811 L 138.431,190.105 L 138.615,188.169 L 138.907,186.916" fill="none" stroke="rgb(31,119,180)" stroke-width="3"/>
	<path d="M 297.262,93.971 L 301.484,90.9913 L 306.056,88.4674 L 313.046,85.3851 L 316.774,83.981 L 320.234,83.1133 L 328.983,81.7291 L 336.781,80.8681 L 342.14,80.8863 L 346.011,81.3826 L 350.224,82.2682 L 355.844,83.9461 L 363.072,86.493 L 366.975,88.155 L 369.915,89.6198 L 376.043,93.2889 L 380.641,97.0632 L 385.081,101.107 L 398.295,113.995 L 406.313,123.137 L 408.015,125.241 L 409.143,126.997 L 411.048,130.866 L 412.975,135.758 L 414.446,140.08 L 415.491,144.026 L 416.732,152.154 L 417.814,163.026 L 417.887,165.97 L 417.266,173.494 L 416.902,183.168 L 416.058,194.182 L 415.785,201.117 L 413.5,222.5" fill="none" stroke="rgb(174,199,232)" stroke-width="3"/>
	<path d="M 297.262,93.971 L 298.399,95.0436 L 303.208,97.9331 L 309.915,101.588 L 324.249,108.821 L 328.315,111.092 L 330.938,112.927 L 332.051,113.884 L 339.042,120.527 L 345.039,125.859 L 349.85,131.051 L 355.7,138.249 L 359.823,144.903 L 364.651,154.074 L 366.446,157.84 L 373.186,173.885 L 374.329,177.137 L 375.717,182.097 L 377.393,189.602 L 378.002,193.614 L 378.415,198.38 L 380.221,210.947 L 380.536,214.128 L 380.499,220.541 L 379.891,225.159 L 379.085,228.143 L 377.706,230.892 L 376.615,234.35" fill="none" stroke="rgb(255,127,14)" stroke-width="3"/>
	<path d="M 271.5,295.5 L 275.109,292.579 L 278.649,289.998 L 286.949,284.581 L 298.863,277.257 L 314.826,268.39 L 329.918,260.859 L 340.919,256.316 L 348.038,253.083 L 359.773,247.094 L 368.079,243.047 L 370.416,242.052 L 374.132,240.816 L 376.615,234.35" fill="none" stroke="rgb(255,187,120)" stroke-width="3"/>
	<path d="M 267.288,413.309 L 268.144,409.105 L 268.354,404.677 L 269.068,371.556 L 269.5,362.238 L 269.64,350.447 L 270.301,338.66 L 270.366,316.565 L 270.78,304.961 L 271.293,299.607 L 271.5,295.5" fill="none" stroke="rgb(44,160,44)" stroke-width="3"/>
	<path d="M 376.615,234.35 L 378.231,250.992 L 377.637,259.2 L 376.37,267.927 L 375.95,272.445 L 373.89,288.86 L 372.79,295.78 L 370.122,309.218 L 368.217,322.879 L 366.561,338.22 L 364.377,351.634 L 364.5,354.5" fill="none" stroke="rgb(152,223,138)" stroke-width="3"/>
	<path d="M 267.5,423.5 L 276.933,413.617 L 283.882,407.96 L 291.608,402.037 L 297.145,398.122 L 306.877,391.711 L 315.601,384.933 L 319.857,381.876 L 337.025,370.47 L 340.878,368.068 L 353.157,360.731 L 364.5,354.5" fill="none" stroke="rgb(214,39,40)" stroke-width="3"/>
	<path d="M 159.5,202.5 L 170.892,197.275 L 184.289,192.007 L 217.022,179.726 L 228.04,175.76 L 241.315,169.944 L 251.959,164.695 L 256.323,162.336 L 262.5,158.5" fill="none" stroke="rgb(255,152,150)" stroke-width="3"/>
	<path d="M 413.5,222.5 L 412.78,231.706 L 411.405,239.557 L 409.304,249.098 L 406.285,259.088 L 404.755,265.1 L 402.955,274.976 L 401.547,284.833 L 400.243,292.504 L 399.712,299.125 L 398.278,312.12 L 396.031,328.081 L 396.072,331.732" fill="none" stroke="rgb(148,103,189)" stroke-width="3"/>
	<path d="M 164.5,243.5 L 173.04,241.252 L 184.17,236.925 L 199.562,230.067 L 218.108,223.445 L 221.914,221.901 L 239.025,214.166 L 250.811,207.629 L 264.5,201.5" fill="none" stroke="rgb(197,176,213)" stroke-width="3"/>
	<path d="M 138.907,186.916 L 157.02,172.451 L 171.832,166.556 L 188.527,160.524 L 193.864,158.85 L 202.96,155.613 L 216.051,150.016 L 225.891,146.147 L 229.008,145.123 L 236.5,142.5" fill="none" stroke="rgb(140,86,75)" stroke-width="3"/>
	<path d="M 164.5,243.5 L 172.799,249.979 L 181.922,258.738 L 190.221,265.804 L 196.167,271.352 L 202.83,278.167 L 207.849,282.956 L 228.137,303.133 L 233.98,308.479 L 236.5,310.5" fill="none" stroke="rgb(196,156,148)" stroke-width="3"/>
	<path d="M 236.5,142.5 L 237.91,137.856 L 239.487,133.922 L 243.769,124.956 L 247.395,118.267 L 248.952,115.889 L 251.892,112.024 L 253.754,110.004 L 256.152,107.931 L 260.8,104.941 L 265.819,102.438 L 268.395,101.344 L 277.673,98.0226 L 282.113,96.6526 L 287.002,95.4851 L 292.423,94.4777 L 297.262,93.971" fill="none" stroke="rgb(227,119,194)" stroke-width="3"/>
	<path d="M 238.529,271.358 L 241.233,269.054 L 246.929,265.003 L 250.924,262.449 L 252.992,261.276 L 261.727,256.967 L 274.599,249.98 L 281.874,246.504 L 299.939,238.788 L 310.5,233.5" fill="none" stroke="rgb(247,182,210)" stroke-width="3"/>
	<path d="M 264.5,201.5 L 268.9,204.059 L 281.012,212.356 L 288.98,218.328 L 307.905,231.287 L 310.5,233.5" fill="none" stroke="rgb(127,127,127)" stroke-width="3"/>
	<path d="M 310.5,233.5 L 317.106,230.955 L 330.208,224.987 L 345.913,218.813 L 352.5,216.5" fill="none" stroke="rgb(199,199,199)" stroke-width="3"/>
	<path d="M 262.5,158.5 L 263.046,161.086 L 263.155,163.091 L 263.445,175.324 L 263.82,180.697 L 263.979,189.584 L 264.303,193.829 L 264.5,201.5" fill="none" stroke="rgb(188,189,34)" stroke-width="3"/>
	<path d="M 238.529,271.358 L 241.839,269.385 L 242.509,269.919 L 250.911,278.289 L 258.218,285.088 L 263.045,289.065 L 271.5,295.5" fill="none" stroke="rgb(219,219,141)" stroke-width="3"/>
	<path d="M 159.5,202.5 L 162.211,228.032 L 163.673,238.94 L 164.5,243.5" fill="none" stroke="rgb(23,190,207)" stroke-width="3"/>
	<path d="M 236.5,310.5 L 237.088,307.478 L 237.548,303.493 L 237.96,277.567 L 238.171,274.003 L 238.529,271.358" fill="none" stroke="rgb(158,218,229)" stroke-width="3"/>
	<path d="M 376.615,234.35 L 385.8,237.263 L 393.19,233.798 L 411.977,223.903 L 413.5,222.5" fill="none" stroke="rgb(31,119,180)" stroke-width="3"/>
	<path d="M 364.5,354.5 L 370.442,351.753 L 380.114,346.683 L 388.149,341.437 L 396.072,331.732" fill="none" stroke="rgb(174,199,232)" stroke-width="3"/>
	<path d="M 236.5,142.5 L 251.859,151.371 L 257.947,155.133 L 262.5,158.5" fill="none" stroke="rgb(255,127,14)" stroke-width="3"/>
	<path d="M 352.5,216.5 L 360.958,224.044 L 368.73,229.898 L 373.858,233.124 L 376.085,234.288 L 376.615,234.35" fill="none" stroke="rgb(255,187,120)" stroke-width="3"/>
	<path d="M 138.907,186.916 L 142.591,188.272 L 145.428,189.739 L 147.153,190.724 L 150.438,193.05 L 153.977,196.084 L 156.007,198.219 L 159.5,202.5" fill="none" stroke="rgb(44,160,44)" stroke-width="3"/>
	<path d="M 267.288,413.309 L 267.992,422.198 L 267.722,422.918 L 267.5,423.5" fill="none" stroke="rgb(152,223,138)" stroke-width="3"/>
	<path d="M 267.288,413.309 L 267.5,423.5" fill="none" stroke="rgb(214,39,40)" stroke-width="3"/>
</svg>
