<?xml version="1.0" standalone="no" ?>
<!DOCTYPE svg PUBLIC "-//W3C//DTD SVG 1.1//EN" "http://www.w3.org/Graphics/SVG/1.1/DTD/svg11.dtd">
<svg width="512px" height="512px" xmlns="http://www.w3.org/2000/svg" xmlns:xlink="http://www.w3.org/1999/xlink" version="1.1" >

<g>	<image style="overflow: visible; opacity: 0.4" width="512" height="512" xlink:href="line_armchair1_0_clean_512_erode.png" />

</g>
<g>	<polyline points="297.262,93.971 297.594,93.7341 297.925,93.4976 298.238,93.2713 298.552,93.0448 298.869,92.8183 299.183,92.5967 299.498,92.3753 299.813,92.1539 300.13,91.9325 300.457,91.6951 300.791,91.4559 301.135,91.2245 301.484,90.9913 301.849,90.77 302.212,90.5609 302.577,90.3517 302.944,90.1424 303.297,89.9519 303.662,89.7499 304.033,89.5477 304.412,89.3353 304.8,89.1211 305.194,88.9057 305.625,88.6855 306.056,88.4674 306.465,88.2977 306.877,88.1293 307.299,87.9626 307.685,87.7826 308.072,87.604 308.441,87.4253 308.811,87.2479 309.183,87.0716 309.577,86.8977 309.972,86.7249 310.34,86.563 310.709,86.4022 311.079,86.2427 311.461,86.0681 311.884,85.8945 312.272,85.723 312.659,85.5531 313.046,85.3851 313.535,85.2176 314.024,85.0524 314.398,84.8984 314.774,84.7458 315.149,84.5946 315.571,84.4304 315.994,84.2678 316.383,84.1237 316.774,83.981 317.268,83.8208 317.762,83.663 318.24,83.55 318.717,83.4387 319.192,83.3291 319.713,83.2198 320.234,83.1133 320.743,83.0371 321.283,82.9576 321.821,82.8801 322.329,82.8086 322.837,82.7387 323.347,82.6543 323.857,82.5718 324.328,82.4899 324.798,82.4096 325.307,82.3259 325.816,82.2437 326.287,82.1709 326.758,82.0989 327.23,82.0276 327.673,81.9483 328.117,81.8699 328.549,81.7989 328.983,81.7291 329.426,81.6614 329.871,81.5948 330.317,81.5351 330.764,81.4761 331.212,81.4178 331.668,81.3597 332.125,81.3026 332.584,81.2554 333.042,81.2097 333.501,81.1571 333.959,81.1062 334.422,81.064 334.883,81.0227 335.355,80.9763 335.824,80.9312 336.304,80.8989 336.781,80.8681 337.26,80.8466 337.738,80.8267 338.213,80.8081 338.699,80.7985 339.184,80.7904 339.667,80.7896 340.149,80.7903 340.648,80.8036 341.145,80.8223 341.642,80.8535 342.14,80.8863 342.628,80.9401 343.117,80.9957 343.611,81.0499 344.105,81.1056 344.566,81.17 345.026,81.2365 345.518,81.3086 346.011,81.3826 346.459,81.4656 346.908,81.5499 347.402,81.6497 347.899,81.7512 348.335,81.8418 348.773,81.9344 349.214,82.029 349.717,82.1472 350.224,82.2682 350.648,82.3816 351.074,82.4966 351.525,82.6263 351.978,82.7585 352.38,82.8809 352.78,83.0034 353.222,83.1342 353.678,83.2707 354.143,83.4108 354.553,83.5372 354.965,83.6652 355.404,83.8049 355.844,83.9461 356.25,84.0831 356.657,84.2216 357.066,84.3618 357.509,84.5087 357.954,84.6574 358.373,84.7931 358.793,84.9305 359.235,85.0871 359.676,85.2436 360.115,85.4 360.529,85.5563 360.941,85.7136 361.382,85.8793 361.822,86.044 362.24,86.1938 362.656,86.3436 363.072,86.493 363.555,86.694 364.035,86.8958 364.459,87.0687 364.881,87.252 365.302,87.4289 365.72,87.6051 366.137,87.7806 366.559,87.9705 366.975,88.155 367.422,88.377 367.866,88.5989 368.272,88.7908 368.675,88.9836 369.098,89.2115 369.508,89.4157 369.915,89.6198 370.339,89.8577 370.761,90.0966 371.148,90.2958 371.589,90.5524 372.026,90.8081 372.408,91.0211 372.826,91.2934 373.227,91.5235 373.626,91.7546 374.021,91.9877 374.407,92.2226 374.793,92.4586 375.176,92.6939 375.614,92.9979 376.043,93.2889 376.433,93.582 376.816,93.8724 377.237,94.2179 377.653,94.5618 378.066,94.9057 378.427,95.2056 378.788,95.5072 379.148,95.811 379.537,96.1381 379.929,96.4921 380.285,96.776 380.641,97.0632 380.977,97.3576 381.337,97.6714 381.699,97.989 382.076,98.338 382.423,98.6327 382.772,98.9295 383.099,99.2284 383.425,99.535 383.752,99.8435 384.096,100.172 384.421,100.48 384.75,100.792 385.081,101.107 385.402,101.416 385.722,101.727 386.043,102.038 386.365,102.351 386.687,102.662 387.006,102.973 387.325,103.286 387.642,103.596 387.956,103.905 388.279,104.22 388.599,104.533 388.916,104.843 389.241,105.171 389.564,105.496 389.884,105.82 390.195,106.139 390.554,106.49 390.913,106.841 391.224,107.145 391.579,107.501 391.927,107.85 392.291,108.195 392.651,108.535 393.01,108.873 393.366,109.214 393.721,109.554 394.075,109.893 394.429,110.214 394.783,110.535 395.136,110.854 395.447,111.132 395.815,111.486 396.18,111.84 396.564,112.203 396.946,112.565 397.255,112.862 397.597,113.236 397.94,113.611 398.295,113.995 398.622,114.37 398.95,114.747 399.241,115.067 399.554,115.431 399.869,115.798 400.179,116.161 400.463,116.505 400.747,116.851 401.047,117.199 401.361,117.568 401.678,117.937 402.007,118.299 402.299,118.635 402.592,118.971 402.892,119.307 403.205,119.672 403.518,120.039 403.858,120.409 404.161,120.749 404.464,121.087 404.775,121.429 405.085,121.768 405.389,122.115 405.704,122.458 406.017,122.798 406.313,123.137 406.59,123.481 406.864,123.823 407.134,124.162 407.44,124.523 407.743,124.882 408.015,125.241 408.241,125.575 408.459,125.912 408.682,126.264 408.9,126.619 409.143,126.997 409.362,127.387 409.577,127.782 409.789,128.185 410,128.573 410.183,128.95 410.362,129.324 410.54,129.704 410.715,130.087 410.882,130.475 411.048,130.866 411.214,131.276 411.378,131.689 411.54,132.105 411.711,132.526 411.881,132.949 412.037,133.369 412.193,133.765 412.347,134.163 412.498,134.563 412.649,134.964 412.813,135.36 412.975,135.758 413.128,136.198 413.279,136.636 413.429,137.075 413.583,137.528 413.734,137.98 413.873,138.41 414.01,138.839 414.158,139.254 414.303,139.667 414.446,140.08 414.578,140.515 414.708,140.948 414.838,141.383 414.967,141.816 415.077,142.249 415.186,142.681 415.294,143.112 415.393,143.57 415.491,144.026 415.579,144.491 415.665,144.955 415.741,145.441 415.815,145.925 415.879,146.43 415.943,146.933 416.009,147.428 416.084,147.905 416.156,148.394 416.229,148.88 416.307,149.352 416.385,149.823 416.455,150.286 416.526,150.75 416.596,151.215 416.664,151.684 416.732,152.154 416.788,152.621 416.844,153.091 416.892,153.57 416.939,154.052 416.979,154.534 417.019,155.015 417.053,155.499 417.087,155.987 417.123,156.456 417.16,156.924 417.2,157.402 417.24,157.876 417.287,158.342 417.334,158.806 417.388,159.274 417.441,159.74 417.493,160.205 417.556,160.659 417.618,161.115 417.67,161.599 417.72,162.086 417.768,162.555 417.814,163.026 417.838,163.519 417.86,164.014 417.878,164.504 417.893,164.997 417.891,165.483 417.887,165.97 417.875,166.463 417.862,166.957 417.832,167.426 417.802,167.894 417.76,168.368 417.716,168.842 417.666,169.295 417.613,169.749 417.558,170.205 417.51,170.667 417.459,171.132 417.414,171.599 417.367,172.071 417.331,172.538 417.295,173.013 417.266,173.494 417.237,173.984 417.213,174.46 417.19,174.943 417.17,175.429 417.151,175.92 417.134,176.401 417.117,176.887 417.102,177.371 417.087,177.858 417.073,178.342 417.059,178.826 417.046,179.308 417.033,179.789 417.018,180.276 417.005,180.76 416.986,181.247 416.967,181.73 416.948,182.211 416.925,182.691 416.902,183.168 416.875,183.638 416.848,184.105 416.812,184.572 416.778,185.037 416.743,185.5 416.709,185.959 416.672,186.421 416.636,186.879 416.604,187.348 416.572,187.814 416.539,188.293 416.507,188.77 416.472,189.26 416.438,189.747 416.404,190.23 416.361,190.722 416.318,191.21 416.272,191.707 416.227,192.201 416.181,192.695 416.137,193.188 416.097,193.686 416.058,194.182 416.028,194.671 415.998,195.159 415.99,195.666 415.981,196.173 415.969,196.677 415.957,197.182 415.944,197.673 415.931,198.164 415.914,198.659 415.896,199.155 415.873,199.639 415.848,200.124 415.817,200.62 415.785,201.117 415.742,201.592 415.698,202.066 415.644,202.548 415.588,203.03 415.526,203.485 415.463,203.938 415.401,204.396 415.338,204.854 415.281,205.3 415.223,205.745 415.164,206.189 415.115,206.646 415.067,207.102 415.027,207.555 414.987,208.008 414.956,208.494 414.924,208.977 414.89,209.445 414.856,209.91 414.823,210.374 414.79,210.835 414.753,211.288 414.715,211.738 414.677,212.185 414.637,212.637 414.595,213.084 414.553,213.533 414.51,213.979 414.461,214.429 414.412,214.875 414.357,215.323 414.305,215.768 414.254,216.211 414.201,216.651 414.148,217.088 414.091,217.526 414.034,217.962 413.978,218.388 413.927,218.854 413.879,219.318 413.83,219.78 413.774,220.235 413.718,220.689 413.662,221.142 413.607,221.594 413.553,222.047 413.5,222.5 " fill="none" stroke-width="1" stroke="rgb(0,0,255)" />
	<polyline points="236.5,142.5 236.598,142.165 236.701,141.835 236.809,141.511 236.917,141.186 237.025,140.861 237.119,140.522 237.213,140.184 237.308,139.847 237.406,139.513 237.504,139.177 237.603,138.842 237.705,138.513 237.807,138.184 237.91,137.856 238.026,137.528 238.158,137.207 238.292,136.884 238.432,136.53 238.572,136.178 238.712,135.826 238.839,135.511 238.967,135.193 239.097,134.888 239.225,134.57 239.355,134.248 239.487,133.922 239.641,133.599 239.795,133.276 239.951,132.952 240.11,132.612 240.271,132.271 240.433,131.928 240.576,131.611 240.719,131.296 240.862,130.981 241.027,130.643 241.18,130.31 241.332,129.979 241.478,129.666 241.626,129.352 241.775,129.036 241.927,128.708 242.086,128.379 242.245,128.052 242.384,127.751 242.524,127.453 242.664,127.156 242.822,126.844 242.981,126.533 243.14,126.216 243.301,125.9 243.456,125.585 243.612,125.27 243.769,124.956 243.927,124.645 244.087,124.334 244.249,124.023 244.397,123.73 244.546,123.437 244.696,123.145 244.864,122.832 245.034,122.52 245.191,122.218 245.349,121.916 245.525,121.6 245.701,121.283 245.878,120.968 246.031,120.672 246.197,120.375 246.365,120.076 246.536,119.773 246.707,119.472 246.879,119.171 247.051,118.871 247.224,118.567 247.395,118.267 247.566,117.971 247.763,117.671 247.963,117.37 248.143,117.08 248.344,116.78 248.546,116.481 248.748,116.184 248.952,115.889 249.157,115.605 249.362,115.324 249.567,115.046 249.77,114.761 249.974,114.477 250.193,114.191 250.413,113.907 250.619,113.632 250.826,113.359 251.033,113.09 251.244,112.822 251.458,112.555 251.674,112.289 251.892,112.024 252.119,111.761 252.346,111.5 252.575,111.243 252.806,110.988 253.029,110.743 253.269,110.494 253.51,110.248 253.754,110.004 254.004,109.765 254.254,109.53 254.508,109.296 254.765,109.063 255.025,108.835 255.307,108.609 255.592,108.383 255.882,108.159 256.152,107.931 256.433,107.724 256.716,107.519 256.999,107.317 257.302,107.111 257.606,106.906 257.916,106.71 258.215,106.515 258.517,106.322 258.82,106.129 259.126,105.937 259.403,105.767 259.682,105.597 259.963,105.428 260.239,105.265 260.518,105.103 260.8,104.941 261.108,104.775 261.402,104.617 261.696,104.458 261.992,104.301 262.289,104.151 262.586,104.002 262.874,103.857 263.161,103.711 263.449,103.566 263.737,103.423 264.025,103.28 264.319,103.141 264.614,103.004 264.91,102.863 265.213,102.72 265.516,102.579 265.819,102.438 266.121,102.299 266.428,102.158 266.734,102.018 267.052,101.883 267.38,101.747 267.708,101.612 268.038,101.477 268.395,101.344 268.752,101.212 269.108,101.081 269.454,100.965 269.806,100.839 270.158,100.714 270.5,100.588 270.842,100.463 271.177,100.339 271.512,100.216 271.847,100.094 272.204,99.9616 272.531,99.8404 272.858,99.7202 273.189,99.5935 273.52,99.4675 273.85,99.3423 274.174,99.2361 274.497,99.1304 274.821,99.0254 275.142,98.9081 275.454,98.7949 275.767,98.6822 276.079,98.5699 276.403,98.4588 276.727,98.3482 277.051,98.2383 277.362,98.1302 277.673,98.0226 277.999,97.915 278.308,97.8108 278.616,97.7075 278.924,97.6051 279.257,97.5012 279.591,97.3981 279.924,97.2957 280.234,97.2012 280.545,97.1074 280.855,97.0142 281.17,96.9228 281.484,96.8321 281.799,96.742 282.113,96.6526 282.427,96.5681 282.741,96.4844 283.055,96.4013 283.379,96.3214 283.704,96.2424 284.028,96.1641 284.342,96.0841 284.656,96.0047 284.978,95.9282 285.33,95.8522 285.682,95.7771 286.032,95.7028 286.356,95.6296 286.679,95.557 287.002,95.4851 287.35,95.415 287.697,95.3455 288.044,95.2767 288.375,95.2107 288.705,95.1453 289.034,95.0805 289.384,95.018 289.723,94.9537 290.061,94.8901 290.392,94.8259 290.723,94.7624 291.054,94.6995 291.4,94.6411 291.745,94.5837 292.09,94.5273 292.423,94.4777 292.755,94.429 293.087,94.3813 293.428,94.34 293.77,94.3002 294.11,94.262 294.457,94.227 294.803,94.1928 295.15,94.1592 295.503,94.1241 295.856,94.0903 296.211,94.0658 296.567,94.0425 296.922,94.0203 297.262,93.971 " fill="none" stroke-width="1" stroke="rgb(0,0,255)" />
	<polyline points="413.5,222.5 413.459,222.847 413.42,223.193 413.383,223.538 413.347,223.884 413.315,224.233 413.283,224.583 413.253,224.932 413.224,225.281 413.196,225.631 413.169,225.981 413.145,226.333 413.122,226.685 413.099,227.038 413.075,227.392 413.052,227.747 413.028,228.103 413.001,228.46 412.987,228.811 412.971,229.163 412.958,229.518 412.943,229.875 412.921,230.238 412.896,230.603 412.868,230.969 412.825,231.337 412.78,231.706 412.734,232.075 412.672,232.437 412.61,232.799 412.547,233.162 412.483,233.519 412.42,233.877 412.356,234.231 412.292,234.584 412.228,234.939 412.165,235.29 412.103,235.642 412.04,235.995 411.979,236.345 411.918,236.706 411.857,237.067 411.797,237.428 411.735,237.79 411.673,238.152 411.609,238.502 411.544,238.853 411.475,239.205 411.405,239.557 411.333,239.908 411.259,240.251 411.185,240.593 411.109,240.935 411.031,241.291 410.956,241.664 410.879,242.038 410.795,242.385 410.71,242.735 410.626,243.085 410.549,243.45 410.471,243.816 410.393,244.183 410.315,244.527 410.236,244.871 410.163,245.225 410.089,245.581 410.016,245.938 409.943,246.285 409.869,246.633 409.794,246.982 409.713,247.338 409.632,247.695 409.549,248.052 409.468,248.4 409.386,248.749 409.304,249.098 409.211,249.453 409.117,249.808 409.022,250.165 408.917,250.51 408.81,250.856 408.709,251.191 408.608,251.528 408.507,251.867 408.396,252.214 408.283,252.562 408.17,252.91 408.066,253.249 407.963,253.59 407.852,253.94 407.752,254.272 407.651,254.604 407.549,254.936 407.435,255.289 407.32,255.642 407.207,255.996 407.107,256.327 407.007,256.658 406.895,257.003 406.792,257.351 406.69,257.699 406.588,258.048 406.487,258.394 406.386,258.741 406.285,259.088 406.194,259.435 406.103,259.783 406.014,260.13 405.925,260.477 405.837,260.823 405.739,261.188 405.641,261.553 405.544,261.917 405.46,262.268 405.375,262.618 405.291,262.966 405.197,263.321 405.104,263.675 405.012,264.028 404.926,264.387 404.84,264.744 404.755,265.1 404.678,265.443 404.603,265.786 404.528,266.128 404.459,266.479 404.391,266.829 404.328,267.171 404.267,267.513 404.206,267.855 404.144,268.204 404.083,268.553 404.023,268.902 403.958,269.258 403.893,269.613 403.828,269.969 403.765,270.314 403.703,270.66 403.64,271.007 403.574,271.372 403.508,271.737 403.443,272.104 403.384,272.455 403.325,272.808 403.266,273.161 403.205,273.526 403.143,273.893 403.082,274.244 403.019,274.595 402.955,274.976 402.897,275.339 402.839,275.702 402.781,276.065 402.723,276.438 402.665,276.811 402.607,277.182 402.558,277.535 402.509,277.887 402.461,278.246 402.412,278.605 402.364,278.964 402.32,279.31 402.275,279.655 402.231,279.999 402.185,280.353 402.139,280.706 402.093,281.058 402.048,281.403 402.003,281.747 401.957,282.08 401.909,282.422 401.86,282.762 401.811,283.102 401.758,283.442 401.706,283.782 401.653,284.121 401.6,284.477 401.547,284.833 401.487,285.188 401.426,285.543 401.367,285.898 401.308,286.271 401.249,286.644 401.19,287.018 401.125,287.388 401.058,287.757 400.99,288.126 400.92,288.493 400.851,288.86 400.781,289.225 400.713,289.592 400.646,289.96 400.581,290.318 400.517,290.678 400.454,291.038 400.396,291.405 400.341,291.773 400.287,292.143 400.243,292.504 400.2,292.865 400.164,293.233 400.129,293.602 400.095,293.972 400.066,294.33 400.038,294.688 400.01,295.047 399.986,295.424 399.962,295.8 399.938,296.176 399.914,296.544 399.89,296.911 399.862,297.286 399.834,297.659 399.805,298.033 399.774,298.397 399.743,298.761 399.712,299.125 399.674,299.502 399.636,299.879 399.598,300.247 399.56,300.614 399.523,300.98 399.478,301.363 399.433,301.745 399.389,302.126 399.346,302.498 399.303,302.87 399.257,303.258 399.21,303.645 399.164,304.031 399.124,304.402 399.083,304.772 399.042,305.142 398.997,305.524 398.962,305.895 398.917,306.259 398.872,306.622 398.826,306.985 398.795,307.36 398.764,307.735 398.732,308.109 398.688,308.473 398.643,308.836 398.607,309.204 398.571,309.571 398.534,309.938 398.489,310.304 398.444,310.669 398.399,311.034 398.359,311.396 398.318,311.759 398.278,312.12 398.228,312.488 398.178,312.855 398.131,313.214 398.084,313.573 398.037,313.932 397.982,314.3 397.924,314.654 397.865,315.008 397.805,315.357 397.745,315.706 397.686,316.055 397.629,316.413 397.573,316.77 397.518,317.128 397.464,317.487 397.41,317.847 397.361,318.214 397.313,318.582 397.264,318.949 397.221,319.32 397.177,319.691 397.134,320.061 397.095,320.437 397.057,320.813 397.035,321.195 397.015,321.576 396.963,321.918 396.917,322.271 396.871,322.623 396.823,322.974 396.772,323.329 396.72,323.682 396.666,324.035 396.598,324.387 396.527,324.738 396.453,325.087 396.388,325.461 396.324,325.835 396.272,326.209 396.223,326.583 396.176,326.958 396.127,327.332 396.079,327.706 396.031,328.081 396.021,328.454 396.013,328.826 396.009,329.196 396.006,329.565 396.001,329.931 396,330.297 396.012,330.66 396.03,331.021 396.05,331.377 396.072,331.732 " fill="none" stroke-width="1" stroke="rgb(0,0,255)" />
	<polyline points="396.072,331.732 396.339,332.251 396.726,332.38 397.114,332.514 397.58,332.67 398.045,332.826 398.192,333.471 398.341,334.117 398.517,334.707 398.7,335.356 398.883,336.006 399.088,336.629 399.163,337.319 399.258,338.042 399.36,338.764 399.5,339.5 " fill="none" stroke-width="1" stroke="rgb(0,0,255)" />
	<polyline points="236.605,143.085 236.5,142.5 " fill="none" stroke-width="1" stroke="rgb(0,0,255)" />
	<polyline points="396.072,331.732 395.481,331.868 394.891,332.002 394.307,332.144 393.693,332.323 393.451,333.019 393.268,333.738 393.093,334.445 392.869,335.072 392.654,335.767 392.42,336.467 392.192,337.167 391.984,337.922 391.771,338.692 391.5,339.5 " fill="none" stroke-width="1" stroke="rgb(0,0,255)" />
	<polyline points="297.262,93.971 297.603,94.2195 297.946,94.465 298.172,94.7548 298.399,95.0436 298.715,95.2422 299.035,95.4366 299.348,95.6216 299.662,95.8061 299.978,95.9899 300.291,96.1828 300.605,96.3736 300.921,96.5622 301.239,96.7583 301.559,96.9522 301.882,97.1555 302.213,97.3567 302.547,97.5553 302.882,97.7513 303.208,97.9331 303.565,98.1163 303.925,98.2988 304.307,98.5143 304.691,98.7278 305.078,98.9393 305.436,99.1367 305.796,99.3334 306.159,99.5294 306.534,99.7307 306.911,99.9321 307.303,100.154 307.699,100.375 308.098,100.597 308.468,100.791 308.841,100.986 309.196,101.186 309.554,101.387 309.915,101.588 310.276,101.772 310.64,101.956 311.008,102.136 311.418,102.345 311.831,102.554 312.208,102.742 312.586,102.93 312.956,103.113 313.328,103.299 313.701,103.484 314.074,103.669 314.462,103.868 314.85,104.067 315.283,104.292 315.717,104.517 316.152,104.742 316.531,104.939 316.922,105.158 317.296,105.347 317.671,105.537 318.046,105.729 318.429,105.935 318.814,106.139 319.222,106.349 319.63,106.559 320.038,106.769 320.438,106.981 320.832,107.171 321.192,107.334 321.552,107.498 321.911,107.662 322.31,107.854 322.708,108.046 323.108,108.246 323.485,108.433 323.861,108.62 324.249,108.821 324.635,109.024 325.029,109.241 325.39,109.429 325.749,109.616 326.107,109.802 326.49,110.017 326.864,110.221 327.226,110.437 327.587,110.654 327.944,110.869 328.315,111.092 328.689,111.34 329.06,111.587 329.436,111.842 329.814,112.099 330.181,112.368 330.565,112.65 330.938,112.927 331.315,113.248 331.686,113.566 332.051,113.884 332.402,114.209 332.75,114.532 333.096,114.851 333.41,115.138 333.754,115.459 334.095,115.779 334.445,116.104 334.775,116.429 335.104,116.755 335.418,117.061 335.746,117.373 336.073,117.685 336.408,118.002 336.741,118.33 337.073,118.66 337.383,118.954 337.71,119.26 338.037,119.565 338.366,119.87 338.704,120.199 339.042,120.527 339.36,120.82 339.679,121.112 340.023,121.412 340.369,121.712 340.715,122.012 341.068,122.316 341.397,122.601 341.725,122.885 342.078,123.192 342.417,123.481 342.756,123.77 343.096,124.059 343.421,124.349 343.748,124.641 344.076,124.934 344.398,125.237 344.719,125.545 345.039,125.859 345.345,126.173 345.654,126.491 345.966,126.814 346.265,127.125 346.564,127.443 346.865,127.765 347.139,128.089 347.443,128.418 347.748,128.751 348.053,129.088 348.353,129.411 348.653,129.736 348.956,130.064 349.253,130.39 349.552,130.719 349.85,131.051 350.132,131.381 350.432,131.729 350.731,132.078 350.998,132.421 351.276,132.752 351.552,133.084 351.828,133.41 352.104,133.736 352.391,134.086 352.655,134.431 352.919,134.778 353.189,135.114 353.474,135.446 353.762,135.781 354.051,136.118 354.344,136.467 354.643,136.821 354.925,137.184 355.185,137.537 355.445,137.893 355.7,138.249 355.955,138.609 356.21,138.973 356.448,139.331 356.685,139.693 356.923,140.057 357.149,140.421 357.375,140.787 357.602,141.154 357.803,141.507 358.003,141.861 358.224,142.218 358.445,142.575 358.664,142.932 358.899,143.32 359.111,143.703 359.32,144.085 359.572,144.495 359.823,144.903 360.034,145.296 360.276,145.716 360.516,146.134 360.725,146.503 360.934,146.872 361.143,147.275 361.352,147.677 361.562,148.078 361.78,148.476 361.998,148.874 362.215,149.272 362.433,149.67 362.653,150.069 362.845,150.45 363.036,150.832 363.223,151.216 363.408,151.602 363.591,151.989 363.791,152.394 363.991,152.799 364.177,153.197 364.414,153.634 364.651,154.074 364.837,154.483 365.027,154.893 365.229,155.308 365.433,155.726 365.637,156.149 365.839,156.555 366.043,156.966 366.244,157.4 366.446,157.84 366.607,158.22 366.767,158.603 366.927,158.99 367.092,159.388 367.258,159.787 367.424,160.188 367.591,160.584 367.758,160.983 367.926,161.383 368.093,161.799 368.257,162.204 368.422,162.609 368.586,163.014 368.763,163.441 368.94,163.868 369.114,164.281 369.288,164.694 369.46,165.107 369.635,165.518 369.808,165.929 369.99,166.353 370.164,166.773 370.337,167.191 370.54,167.635 370.741,168.078 370.92,168.493 371.126,168.928 371.307,169.344 371.486,169.759 371.664,170.173 371.858,170.607 372.051,171.04 372.222,171.459 372.391,171.877 372.549,172.276 372.707,172.674 372.865,173.069 373.023,173.476 373.186,173.885 373.344,174.297 373.502,174.709 373.657,175.119 373.803,175.52 373.947,175.92 374.075,176.327 374.203,176.733 374.329,177.137 374.454,177.545 374.577,177.951 374.695,178.379 374.812,178.805 374.924,179.234 375.035,179.662 375.156,180.065 375.268,180.469 375.381,180.871 375.494,181.28 375.606,181.689 375.717,182.097 375.825,182.503 375.932,182.909 376.042,183.315 376.14,183.743 376.237,184.167 376.338,184.582 376.437,184.993 376.532,185.411 376.625,185.825 376.713,186.261 376.8,186.695 376.884,187.125 376.965,187.557 377.057,187.961 377.145,188.37 377.231,188.777 377.315,189.182 377.393,189.602 377.469,190.02 377.541,190.457 377.613,190.892 377.684,191.337 377.754,191.78 377.82,192.238 377.883,192.696 377.945,193.152 378.002,193.614 378.037,194.114 378.073,194.608 378.109,195.099 378.144,195.583 378.18,196.067 378.22,196.543 378.26,197.018 378.309,197.473 378.358,197.928 378.415,198.38 378.473,198.832 378.535,199.257 378.598,199.683 378.662,200.109 378.724,200.54 378.786,200.972 378.844,201.385 378.902,201.8 378.952,202.239 379.002,202.681 379.053,203.154 379.108,203.601 379.163,204.051 379.219,204.497 379.275,204.947 379.333,205.381 379.391,205.818 379.454,206.245 379.518,206.675 379.582,207.105 379.652,207.531 379.721,207.959 379.794,208.38 379.868,208.803 379.947,209.226 380.026,209.65 380.09,210.085 380.156,210.516 380.221,210.947 380.276,211.39 380.331,211.832 380.378,212.286 380.424,212.739 380.47,213.193 380.504,213.66 380.536,214.128 380.559,214.598 380.58,215.069 380.59,215.542 380.599,216.015 380.601,216.48 380.602,216.946 380.598,217.405 380.592,217.864 380.582,218.317 380.57,218.768 380.557,219.217 380.54,219.661 380.521,220.102 380.499,220.541 380.472,220.976 380.438,221.408 380.396,221.834 380.345,222.261 380.292,222.682 380.235,223.096 380.174,223.509 380.11,223.915 380.041,224.325 379.967,224.728 379.891,225.159 379.807,225.579 379.718,225.991 379.612,226.438 379.501,226.878 379.367,227.303 379.228,227.724 379.085,228.143 378.889,228.535 378.687,228.923 378.477,229.33 378.265,229.734 378.049,230.134 377.872,230.51 377.706,230.892 377.558,231.311 377.425,231.735 377.305,232.163 377.191,232.595 377.08,233.027 376.927,233.453 376.77,233.899 376.615,234.35 " fill="none" stroke-width="1" stroke="rgb(0,0,255)" />
	<polyline points="376.615,234.35 376.844,234.787 377.099,235.237 377.389,235.686 377.681,236.133 377.925,236.562 378.121,236.967 378.382,237.405 378.645,237.843 378.846,238.252 379.048,238.661 379.263,239.073 379.5,239.5 " fill="none" stroke-width="1" stroke="rgb(0,0,255)" />
	<polyline points="379.5,239.5 379.461,239.921 379.426,240.345 379.39,240.769 379.354,241.193 379.304,241.617 379.252,242.041 379.207,242.471 379.159,242.903 379.096,243.327 379.035,243.753 378.974,244.181 378.938,244.616 378.904,245.053 378.86,245.496 378.817,245.943 378.787,246.383 378.758,246.826 378.707,247.283 378.653,247.743 378.596,248.207 378.564,248.647 378.53,249.091 378.443,249.552 378.356,250.016 378.293,250.501 378.231,250.992 378.188,251.487 378.147,251.988 378.112,252.442 378.079,252.901 378.051,253.363 378.024,253.83 377.998,254.258 377.969,254.706 377.941,255.156 377.913,255.609 377.884,256.064 377.856,256.507 377.827,256.95 377.796,257.4 377.764,257.849 377.726,258.302 377.684,258.752 377.637,259.2 377.584,259.653 377.531,260.105 377.468,260.563 377.405,261.022 377.335,261.483 377.265,261.944 377.198,262.413 377.132,262.881 377.06,263.352 376.988,263.823 376.92,264.274 376.852,264.724 376.785,265.174 376.717,265.627 376.65,266.08 376.576,266.533 376.503,266.986 376.436,267.456 376.37,267.927 376.313,268.411 376.256,268.895 376.21,269.397 376.164,269.898 376.125,270.411 376.085,270.924 376.046,271.441 376.007,271.958 375.95,272.445 375.892,272.932 375.83,273.413 375.767,273.892 375.703,274.365 375.638,274.836 375.574,275.304 375.51,275.772 375.449,276.23 375.387,276.688 375.324,277.146 375.263,277.613 375.201,278.08 375.145,278.546 375.088,279.012 375.037,279.493 374.985,279.973 374.936,280.436 374.886,280.897 374.83,281.365 374.774,281.832 374.707,282.283 374.641,282.734 374.575,283.185 374.51,283.656 374.445,284.125 374.379,284.577 374.313,285.028 374.259,285.506 374.205,285.984 374.153,286.46 374.101,286.936 374.052,287.421 374.003,287.907 373.947,288.384 373.89,288.86 373.821,289.315 373.75,289.768 373.678,290.221 373.604,290.684 373.529,291.147 373.453,291.599 373.375,292.052 373.302,292.509 373.228,292.967 373.161,293.436 373.094,293.907 373.02,294.375 372.952,294.842 372.872,295.311 372.79,295.78 372.705,296.223 372.62,296.667 372.536,297.112 372.442,297.578 372.348,298.045 372.26,298.473 372.173,298.902 372.081,299.381 371.989,299.86 371.895,300.289 371.802,300.719 371.708,301.148 371.609,301.597 371.509,302.046 371.416,302.48 371.323,302.913 371.226,303.361 371.13,303.809 371.039,304.263 370.948,304.689 370.856,305.114 370.765,305.56 370.675,306.008 370.584,306.441 370.495,306.874 370.412,307.334 370.331,307.795 370.26,308.268 370.19,308.743 370.122,309.218 370.062,309.71 370.003,310.204 369.949,310.708 369.894,311.213 369.826,311.698 369.757,312.182 369.691,312.676 369.624,313.169 369.549,313.643 369.473,314.116 369.403,314.587 369.334,315.056 369.263,315.52 369.192,315.984 369.131,316.456 369.07,316.928 369.01,317.397 368.953,317.869 368.89,318.318 368.826,318.765 368.762,319.212 368.694,319.67 368.626,320.127 368.552,320.572 368.48,321.017 368.412,321.49 368.345,321.963 368.281,322.421 368.217,322.879 368.166,323.358 368.117,323.838 368.069,324.313 368.023,324.789 367.979,325.271 367.933,325.743 367.886,326.216 367.836,326.692 367.785,327.169 367.721,327.62 367.656,328.072 367.593,328.54 367.528,329.009 367.464,329.461 367.399,329.913 367.343,330.372 367.288,330.833 367.241,331.291 367.195,331.75 367.15,332.212 367.109,332.678 367.069,333.144 367.033,333.607 366.998,334.069 366.96,334.541 366.923,335.011 366.88,335.481 366.838,335.948 366.788,336.413 366.738,336.875 366.679,337.326 366.62,337.774 366.561,338.22 366.489,338.661 366.418,339.101 366.347,339.541 366.277,339.979 366.206,340.427 366.137,340.871 366.071,341.321 366.006,341.768 365.947,342.222 365.886,342.682 365.825,343.136 365.764,343.573 365.702,344.005 365.632,344.438 365.561,344.867 365.489,345.287 365.417,345.701 365.344,346.111 365.269,346.527 365.195,346.938 365.121,347.347 365.047,347.751 364.974,348.152 364.913,348.551 364.851,348.948 364.784,349.342 364.717,349.733 364.65,350.123 364.583,350.504 364.517,350.884 364.447,351.26 364.377,351.634 364.331,352.008 364.337,352.371 364.36,352.731 364.382,353.091 364.411,353.447 364.44,353.802 364.467,354.157 364.5,354.5 " fill="none" stroke-width="1" stroke="rgb(0,0,255)" />
	<polyline points="236.605,143.085 235.942,144.57 233.5,144.5 " fill="none" stroke-width="1" stroke="rgb(0,0,255)" />
	<polyline points="231.5,144.5 236.605,143.085 " fill="none" stroke-width="1" stroke="rgb(0,0,255)" />
	<polyline points="138.907,186.916 138.59,186.316 138.278,185.734 137.804,185.186 137.589,184.681 137.374,184.169 137.135,183.63 136.896,183.095 136.662,182.553 136.428,182.018 136.232,181.488 136.036,180.963 135.854,180.457 135.672,179.964 135.5,179.5 " fill="none" stroke-width="1" stroke="rgb(0,0,255)" />
	<polyline points="267.288,413.309 266.896,413.02 266.509,412.723 266.122,412.424 265.725,412.128 265.329,411.833 264.931,411.535 264.549,411.228 264.167,410.921 263.783,410.613 263.398,410.304 263.013,409.994 262.67,409.706 262.326,409.415 261.98,409.122 261.628,408.828 261.272,408.528 260.911,408.222 260.598,407.951 260.27,407.668 259.939,407.381 259.622,407.103 259.261,406.797 258.892,406.484 258.55,406.211 258.202,405.934 257.853,405.636 257.485,405.333 257.116,405.029 256.763,404.754 256.41,404.478 256.059,404.203 255.66,403.874 255.28,403.566 254.895,403.254 254.527,402.922 254.154,402.598 253.76,402.239 253.363,401.876 252.974,401.526 252.614,401.188 252.252,400.848 251.878,400.511 251.493,400.152 251.116,399.805 250.758,399.472 250.399,399.138 250.033,398.806 249.668,398.47 249.302,398.133 248.934,397.799 248.562,397.456 248.19,397.112 247.825,396.767 247.476,396.433 247.126,396.098 246.736,395.729 246.346,395.357 245.955,394.985 245.605,394.648 245.256,394.312 244.909,393.977 244.522,393.599 244.134,393.221 243.734,392.849 243.375,392.513 243.02,392.18 242.659,391.849 242.233,391.462 241.806,391.073 241.453,390.761 241.108,390.454 240.758,390.146 240.349,389.776 239.946,389.409 239.554,389.071 239.215,388.766 238.872,388.458 238.522,388.137 238.156,387.787 237.788,387.439 237.419,387.09 237.074,386.759 236.743,386.429 236.411,386.098 236.056,385.745 235.721,385.408 235.386,385.069 235.052,384.728 234.722,384.385 234.394,384.042 234.034,383.67 233.698,383.317 233.359,382.96 233.026,382.6 232.708,382.23 232.392,381.86 231.999,381.435 231.656,381.04 231.327,380.669 231.013,380.313 230.738,379.969 230.391,379.569 230.048,379.174 229.732,378.814 229.414,378.453 229.096,378.09 228.775,377.717 228.453,377.342 228.129,376.964 227.8,376.582 227.472,376.2 227.146,375.821 226.839,375.455 226.528,375.083 226.219,374.72 225.911,374.358 225.574,373.966 225.272,373.586 224.969,373.206 224.645,372.829 224.314,372.463 223.983,372.098 223.65,371.726 223.316,371.354 222.982,370.983 222.633,370.598 222.284,370.215 221.937,369.833 221.616,369.467 221.294,369.1 220.986,368.741 220.624,368.329 220.266,367.923 219.885,367.512 219.581,367.16 219.279,366.813 218.982,366.473 218.639,366.087 218.258,365.685 217.871,365.276 217.554,364.927 217.235,364.585 216.915,364.241 216.562,363.868 216.211,363.505 215.853,363.136 215.519,362.788 215.181,362.438 214.84,362.085 214.484,361.72 214.125,361.354 213.762,360.983 213.416,360.628 213.071,360.275 212.696,359.901 212.337,359.538 211.984,359.181 211.629,358.825 211.291,358.48 210.955,358.137 210.581,357.773 210.214,357.416 209.854,357.066 209.505,356.722 209.158,356.381 208.771,356.032 208.375,355.663 207.985,355.301 207.624,354.979 207.274,354.63 206.933,354.29 206.556,353.899 206.169,353.512 205.777,353.12 205.444,352.767 205.112,352.416 204.795,352.056 204.447,351.687 204.096,351.314 203.768,350.944 203.437,350.589 203.099,350.225 202.747,349.849 202.4,349.487 202.048,349.119 201.705,348.76 201.357,348.395 201.004,348.026 200.652,347.658 200.297,347.289 199.943,346.919 199.592,346.551 199.241,346.183 198.871,345.796 198.519,345.426 198.168,345.056 197.814,344.681 197.461,344.306 197.109,343.932 196.757,343.551 196.407,343.173 196.066,342.782 195.72,342.392 195.374,342.002 195.033,341.607 194.711,341.223 194.39,340.838 194.092,340.456 193.793,340.076 193.496,339.692 193.198,339.307 192.9,338.922 192.601,338.537 192.303,338.154 192.003,337.775 191.698,337.389 191.394,337.007 191.074,336.629 190.732,336.24 190.392,335.854 190.049,335.475 189.69,335.082 189.345,334.718 189,334.356 188.64,333.986 188.286,333.625 187.931,333.264 187.539,332.885 187.179,332.533 186.822,332.185 186.464,331.842 186.08,331.484 185.7,331.162 185.322,330.84 184.965,330.51 184.622,330.183 184.276,329.855 183.898,329.508 183.529,329.195 183.159,328.882 182.825,328.545 182.49,328.207 182.154,327.868 181.802,327.519 181.45,327.168 181.102,326.809 180.792,326.454 180.481,326.098 180.126,325.725 179.797,325.358 179.465,324.987 179.127,324.62 178.818,324.262 178.504,323.898 178.147,323.519 177.819,323.147 177.469,322.777 177.115,322.403 176.753,322.021 176.399,321.661 176.045,321.3 175.686,320.924 175.33,320.563 174.974,320.201 174.6,319.826 174.245,319.471 173.894,319.119 173.536,318.759 173.181,318.401 172.803,318.034 172.438,317.683 172.08,317.338 171.729,316.988 171.355,316.615 170.986,316.247 170.611,315.901 170.233,315.553 169.861,315.209 169.515,314.874 169.128,314.512 168.757,314.173 168.393,313.818 168.027,313.46 167.685,313.119 167.312,312.759 166.933,312.393 166.563,312.024 166.226,311.66 165.881,311.289 165.539,310.925 165.196,310.566 164.847,310.202 164.484,309.824 164.135,309.453 163.787,309.082 163.442,308.724 163.093,308.363 162.726,307.986 162.371,307.618 162.013,307.248 161.649,306.87 161.296,306.507 160.942,306.143 160.582,305.774 160.222,305.406 159.863,305.038 159.508,304.674 159.155,304.312 158.781,303.936 158.421,303.569 158.065,303.206 157.7,302.834 157.351,302.477 157.008,302.125 156.64,301.754 156.281,301.389 155.93,301.031 155.579,300.67 155.237,300.317 154.907,299.972 154.529,299.593 154.169,299.226 153.825,298.878 153.499,298.518 153.19,298.169 152.897,297.831 152.618,297.476 152.358,297.13 152.13,296.797 151.918,296.469 151.72,296.135 151.53,295.803 151.356,295.469 151.196,295.131 151.062,294.782 150.941,294.431 150.83,294.073 150.729,293.71 150.633,293.337 150.542,292.954 150.457,292.549 150.374,292.13 150.3,291.704 150.227,291.266 150.155,290.816 150.09,290.335 150.026,289.844 149.954,289.368 149.882,288.885 149.81,288.384 149.739,287.885 149.668,287.415 149.596,286.944 149.526,286.464 149.455,285.981 149.388,285.506 149.32,285.03 149.255,284.535 149.189,284.039 149.123,283.551 149.057,283.063 148.995,282.549 148.934,282.057 148.865,281.6 148.797,281.144 148.724,280.674 148.651,280.206 148.575,279.744 148.499,279.278 148.423,278.808 148.349,278.309 148.274,277.806 148.206,277.29 148.139,276.771 148.078,276.23 148.022,275.671 147.959,275.13 147.889,274.611 147.82,274.099 147.74,273.605 147.662,273.118 147.579,272.654 147.497,272.194 147.412,271.734 147.326,271.275 147.241,270.818 147.154,270.362 147.068,269.908 146.983,269.44 146.908,268.949 146.83,268.471 146.752,267.993 146.676,267.519 146.6,267.043 146.539,266.555 146.477,266.063 146.422,265.571 146.367,265.074 146.322,264.57 146.276,264.061 146.235,263.553 146.193,263.042 146.153,262.523 146.113,262 146.075,261.476 146.037,260.949 145.994,260.408 145.942,259.896 145.89,259.377 145.839,258.868 145.77,258.389 145.702,257.915 145.633,257.423 145.566,256.939 145.493,256.485 145.42,256.032 145.36,255.57 145.299,255.105 145.246,254.634 145.192,254.158 145.142,253.671 145.093,253.179 145.046,252.679 145,252.172 144.95,251.678 144.9,251.188 144.844,250.71 144.788,250.235 144.727,249.765 144.662,249.297 144.597,248.826 144.527,248.366 144.458,247.907 144.384,247.422 144.309,246.93 144.236,246.448 144.164,245.967 144.101,245.434 144.037,244.897 143.969,244.385 143.903,243.884 143.834,243.353 143.766,242.826 143.702,242.325 143.639,241.823 143.583,241.304 143.525,240.776 143.475,240.267 143.425,239.754 143.374,239.241 143.321,238.754 143.269,238.269 143.216,237.785 143.161,237.297 143.105,236.807 143.052,236.328 142.997,235.845 142.941,235.367 142.885,234.89 142.828,234.412 142.772,233.934 142.715,233.452 142.658,232.97 142.6,232.472 142.542,231.976 142.479,231.475 142.417,230.979 142.351,230.474 142.285,229.969 142.217,229.458 142.148,228.94 142.078,228.408 142.008,227.876 141.943,227.322 141.879,226.768 141.817,226.244 141.746,225.728 141.674,225.211 141.604,224.714 141.535,224.222 141.464,223.742 141.394,223.262 141.323,222.783 141.258,222.32 141.191,221.851 141.126,221.375 141.061,220.896 141,220.415 140.941,219.882 140.879,219.394 140.816,218.906 140.757,218.397 140.698,217.888 140.637,217.406 140.576,216.922 140.516,216.429 140.456,215.936 140.39,215.466 140.325,215.003 140.258,214.544 140.191,214.089 140.12,213.652 140.05,213.218 139.981,212.785 139.913,212.339 139.845,211.894 139.772,211.463 139.7,211.033 139.634,210.597 139.57,210.165 139.512,209.716 139.457,209.27 139.402,208.829 139.355,208.383 139.31,207.942 139.271,207.476 139.234,207.012 139.199,206.553 139.165,206.097 139.135,205.618 139.105,205.143 139.068,204.687 139.032,204.234 138.998,203.782 138.953,203.346 138.91,202.914 138.866,202.479 138.824,202.043 138.787,201.595 138.751,201.151 138.72,200.71 138.69,200.269 138.662,199.83 138.642,199.382 138.625,198.94 138.604,198.513 138.585,198.086 138.566,197.662 138.548,197.237 138.531,196.811 138.535,196.372 138.54,195.937 138.544,195.521 138.549,195.102 138.549,194.683 138.549,194.26 138.549,193.835 138.538,193.413 138.524,192.979 138.508,192.543 138.49,192.101 138.473,191.627 138.451,191.119 138.438,190.593 138.431,190.105 138.463,189.616 138.52,189.114 138.563,188.626 138.615,188.169 138.712,187.748 138.81,187.331 138.907,186.916 " fill="none" stroke-width="1" stroke="rgb(0,0,255)" />
	<polyline points="267.288,413.309 267.38,413.635 267.472,413.961 267.565,414.285 267.658,414.609 267.751,414.934 267.844,415.257 267.938,415.58 268.031,415.904 268.122,416.225 268.213,416.545 268.305,416.866 268.403,417.183 268.5,417.5 " fill="none" stroke-width="1" stroke="rgb(0,0,255)" />
	<polyline points="268.5,417.5 268.491,417.879 268.491,418.271 268.492,418.664 268.495,419.056 268.486,419.456 268.472,419.856 268.448,420.262 268.418,420.668 268.386,421.074 268.352,421.486 " fill="none" stroke-width="1" stroke="rgb(0,0,255)" />
	<polyline points="268.352,421.486 267.992,422.198 267.722,422.918 267.5,423.5 " fill="none" stroke-width="1" stroke="rgb(0,0,255)" />
	<polyline points="138.907,186.916 139.267,187.021 139.625,187.126 139.984,187.235 140.337,187.356 140.691,187.478 141.044,187.601 141.366,187.738 141.687,187.877 142.009,188.02 142.3,188.143 142.591,188.272 142.881,188.405 143.17,188.547 143.458,188.694 143.746,188.846 144.033,189.003 144.308,189.142 144.582,189.284 144.857,189.43 145.131,189.579 145.428,189.739 145.725,189.902 146.021,190.067 146.303,190.221 146.585,190.378 146.867,190.537 147.153,190.724 147.44,190.914 147.718,191.099 147.994,191.286 148.265,191.47 148.535,191.656 148.804,191.845 149.073,192.036 149.349,192.235 149.625,192.435 149.901,192.637 150.169,192.843 150.438,193.05 150.712,193.269 150.986,193.489 151.272,193.703 151.558,193.919 151.828,194.146 152.096,194.375 152.369,194.613 152.639,194.851 152.909,195.091 153.178,195.338 153.446,195.586 153.713,195.835 153.977,196.084 154.231,196.352 154.483,196.62 154.734,196.888 154.997,197.153 155.249,197.415 155.501,197.677 155.752,197.939 156.007,198.219 156.247,198.5 156.486,198.781 156.723,199.063 156.963,199.342 157.203,199.627 157.443,199.913 157.698,200.209 157.953,200.506 158.18,200.794 158.406,201.082 158.622,201.363 158.835,201.645 159.046,201.929 159.273,202.214 159.5,202.5 " fill="none" stroke-width="1" stroke="rgb(0,0,255)" />
	<polyline points="159.5,202.5 159.56,202.99 159.63,203.444 159.699,203.898 159.736,204.404 159.772,204.91 159.819,205.396 159.865,205.882 159.893,206.395 159.92,206.909 159.966,207.405 160.013,207.901 160.071,208.398 160.13,208.894 160.194,209.372 160.26,209.85 160.317,210.336 160.373,210.822 160.428,211.303 160.484,211.783 160.54,212.248 160.596,212.713 160.651,213.18 160.707,213.652 160.763,214.125 160.812,214.59 160.86,215.055 160.904,215.534 160.947,216.013 160.987,216.493 161.023,216.961 161.057,217.428 161.092,217.896 161.133,218.365 161.174,218.833 161.22,219.298 161.266,219.762 161.312,220.225 161.371,220.693 161.428,221.161 161.491,221.625 161.553,222.091 161.623,222.559 161.691,223.028 161.756,223.51 161.819,223.993 161.873,224.491 161.927,224.989 161.972,225.502 162.016,226.015 162.06,226.528 162.105,227.04 162.158,227.537 162.211,228.032 162.272,228.525 162.335,229.016 162.401,229.493 162.468,229.968 162.536,230.44 162.604,230.909 162.671,231.361 162.737,231.812 162.798,232.262 162.86,232.71 162.921,233.156 162.982,233.583 163.047,234.033 163.099,234.489 163.15,234.943 163.207,235.383 163.265,235.82 163.317,236.271 163.37,236.72 163.424,237.167 163.483,237.602 163.543,238.034 163.608,238.488 163.673,238.94 163.747,239.38 163.82,239.818 163.901,240.28 163.98,240.741 164.103,241.175 164.164,241.645 164.226,242.115 164.327,242.569 164.427,243.022 164.5,243.5 " fill="none" stroke-width="1" stroke="rgb(0,0,255)" />
	<polyline points="164.5,243.5 165.895,244.096 169,246.637 " fill="none" stroke-width="1" stroke="rgb(0,0,255)" />
	<polyline points="165.877,243.427 166.421,243.307 166.966,243.189 167.481,243.029 168.002,242.882 168.466,242.752 168.933,242.621 169.443,242.466 169.955,242.31 170.411,242.172 170.87,242.034 171.308,241.876 171.749,241.717 172.192,241.558 172.615,241.405 173.04,241.252 173.45,241.099 173.863,240.946 174.255,240.802 174.648,240.656 175.043,240.51 175.454,240.357 175.867,240.203 176.248,240.057 176.631,239.907 177.017,239.756 177.403,239.608 177.79,239.46 178.179,239.312 178.561,239.163 178.944,239.014 179.332,238.856 179.72,238.698 180.11,238.539 180.495,238.387 180.881,238.234 181.275,238.071 181.678,237.914 182.082,237.757 182.488,237.596 182.894,237.435 183.319,237.265 183.744,237.095 184.17,236.925 184.586,236.753 185.003,236.581 185.419,236.403 185.836,236.224 186.27,236.037 186.701,235.855 187.133,235.672 187.593,235.459 188.053,235.245 188.483,235.052 188.931,234.833 189.356,234.64 189.781,234.446 190.227,234.232 190.671,234.018 191.091,233.832 191.536,233.619 191.98,233.405 192.399,233.213 192.817,233.023 193.243,232.828 193.669,232.634 194.095,232.44 194.543,232.227 194.99,232.015 195.423,231.827 195.856,231.64 196.262,231.464 196.666,231.289 197.068,231.116 197.489,230.943 197.909,230.763 198.323,230.587 198.736,230.412 199.149,230.237 199.562,230.067 199.988,229.91 200.388,229.752 200.787,229.596 201.244,229.437 201.699,229.279 202.153,229.122 202.562,228.963 202.965,228.808 203.405,228.641 203.843,228.474 204.254,228.327 204.663,228.18 205.07,228.035 205.555,227.877 206.037,227.721 206.445,227.575 206.851,227.429 207.307,227.269 207.759,227.109 208.21,226.951 208.64,226.799 209.069,226.648 209.524,226.488 209.978,226.329 210.424,226.173 210.87,226.017 211.33,225.854 211.79,225.691 212.215,225.534 212.64,225.376 213.066,225.219 213.532,225.057 213.974,224.895 214.447,224.736 214.922,224.577 215.361,224.416 215.8,224.255 216.28,224.095 216.762,223.935 217.197,223.774 217.651,223.61 218.108,223.445 218.524,223.276 218.943,223.106 219.365,222.938 219.787,222.761 220.211,222.582 220.655,222.411 221.1,222.239 221.508,222.066 221.914,221.901 222.319,221.726 222.725,221.551 223.13,221.375 223.542,221.201 223.954,221.026 224.361,220.848 224.769,220.668 225.177,220.489 225.573,220.307 225.97,220.124 226.389,219.93 226.81,219.736 227.242,219.537 227.673,219.338 228.104,219.139 228.532,218.933 228.963,218.714 229.362,218.527 229.761,218.339 230.158,218.152 230.597,217.945 231.024,217.752 231.445,217.567 231.865,217.381 232.284,217.19 232.7,216.999 233.136,216.796 233.557,216.607 233.978,216.418 234.401,216.234 234.824,216.05 235.258,215.867 235.691,215.684 236.122,215.501 236.532,215.319 236.942,215.137 237.361,214.953 237.779,214.752 238.196,214.551 238.61,214.358 239.025,214.166 239.427,213.967 239.838,213.774 240.256,213.555 240.672,213.337 241.085,213.12 241.491,212.902 241.882,212.689 242.286,212.455 242.688,212.221 243.088,211.989 243.479,211.757 243.871,211.525 244.257,211.306 244.64,211.089 245.02,210.856 245.406,210.638 245.79,210.42 246.172,210.203 246.551,209.976 246.923,209.769 247.316,209.539 247.707,209.31 248.096,209.082 248.479,208.869 248.86,208.657 249.263,208.44 249.664,208.223 250.064,208.006 250.438,207.817 250.811,207.629 251.233,207.437 251.652,207.246 252.067,207.055 252.449,206.87 252.829,206.684 253.237,206.489 253.643,206.295 254.047,206.101 254.433,205.921 254.824,205.738 255.25,205.561 255.673,205.383 256.091,205.205 256.499,205.019 256.916,204.836 257.317,204.655 257.716,204.475 258.112,204.294 258.536,204.081 258.941,203.903 259.337,203.723 259.733,203.543 260.127,203.362 260.524,203.197 260.922,203.031 261.323,202.858 261.722,202.684 262.12,202.51 262.517,202.34 262.915,202.171 263.312,201.997 263.712,201.826 264.111,201.655 264.5,201.5 " fill="none" stroke-width="1" stroke="rgb(0,0,255)" />
	<polyline points="264.5,201.5 264.813,201.659 265.127,201.818 265.438,201.984 265.753,202.163 266.067,202.343 266.382,202.526 266.698,202.71 267.014,202.895 267.33,203.09 267.641,203.268 267.952,203.447 268.268,203.65 268.584,203.854 268.9,204.059 269.209,204.269 269.518,204.481 269.828,204.693 270.139,204.907 270.446,205.114 270.754,205.322 271.063,205.531 271.357,205.732 271.653,205.932 271.949,206.143 272.243,206.349 272.539,206.556 272.835,206.764 273.132,206.974 273.421,207.168 273.71,207.362 274,207.557 274.306,207.764 274.612,207.972 274.906,208.169 275.196,208.379 275.487,208.59 275.78,208.8 276.074,209.011 276.376,209.223 276.68,209.437 276.984,209.651 277.267,209.836 277.552,210.023 277.843,210.235 278.134,210.448 278.418,210.636 278.702,210.824 278.987,211.011 279.271,211.2 279.555,211.388 279.84,211.575 280.126,211.761 280.436,211.981 280.724,212.168 281.012,212.356 281.32,212.583 281.629,212.809 281.938,213.035 282.234,213.257 282.531,213.478 282.829,213.699 283.127,213.919 283.434,214.15 283.741,214.383 284.049,214.616 284.341,214.827 284.633,215.038 284.921,215.257 285.204,215.479 285.488,215.703 285.771,215.928 286.067,216.158 286.352,216.385 286.639,216.613 286.926,216.842 287.222,217.065 287.511,217.274 287.801,217.483 288.092,217.693 288.388,217.907 288.684,218.117 288.98,218.328 289.27,218.528 289.561,218.728 289.852,218.928 290.133,219.109 290.435,219.314 290.738,219.519 291.041,219.724 291.324,219.907 291.613,220.104 291.901,220.303 292.197,220.499 292.493,220.695 292.788,220.889 293.083,221.082 293.37,221.274 293.656,221.465 293.943,221.654 294.265,221.875 294.586,222.097 294.885,222.286 295.188,222.503 295.49,222.72 295.792,222.935 296.073,223.128 296.382,223.348 296.69,223.566 296.998,223.782 297.281,223.982 297.578,224.196 297.874,224.408 298.175,224.607 298.474,224.805 298.773,225.002 299.075,225.215 299.361,225.412 299.645,225.608 299.929,225.803 300.236,226.023 300.535,226.23 300.833,226.435 301.131,226.637 301.416,226.839 301.7,227.041 301.983,227.227 302.295,227.444 302.605,227.661 302.914,227.876 303.2,228.064 303.503,228.278 303.805,228.491 304.107,228.703 304.414,228.902 304.736,229.124 305.057,229.343 305.367,229.541 305.675,229.739 305.982,229.936 306.307,230.168 306.631,230.397 306.955,230.625 307.265,230.854 307.575,231.081 307.905,231.287 308.23,231.527 308.554,231.769 308.875,232.012 309.156,232.258 309.434,232.504 309.709,232.752 309.982,233.001 310.24,233.251 310.5,233.5 " fill="none" stroke-width="1" stroke="rgb(0,0,255)" />
	<polyline points="164.5,243.5 164.774,243.488 165.047,243.476 165.324,243.46 165.601,243.444 165.877,243.427 " fill="none" stroke-width="1" stroke="rgb(0,0,255)" />
	<polyline points="310.5,233.5 310.897,233.354 311.302,233.208 311.708,233.062 312.096,232.932 312.488,232.774 312.88,232.616 313.251,232.472 313.622,232.328 313.994,232.183 314.361,232.036 314.704,231.902 315.047,231.768 315.4,231.636 315.753,231.503 316.106,231.371 316.439,231.233 316.773,231.094 317.106,230.955 317.435,230.807 317.765,230.659 318.094,230.511 318.425,230.363 318.755,230.216 319.086,230.068 319.413,229.921 319.739,229.773 320.066,229.626 320.39,229.476 320.713,229.325 321.037,229.175 321.362,229.023 321.688,228.867 322.014,228.71 322.344,228.555 322.673,228.4 323.003,228.244 323.333,228.087 323.664,227.93 323.993,227.773 324.323,227.617 324.653,227.461 324.982,227.305 325.316,227.149 325.649,226.993 325.986,226.84 326.326,226.69 326.665,226.54 327.004,226.39 327.341,226.242 327.677,226.094 328.013,225.947 328.375,225.784 328.736,225.622 329.097,225.46 329.459,225.307 329.821,225.154 330.208,224.987 330.598,224.838 330.988,224.689 331.339,224.551 331.687,224.414 332.034,224.277 332.446,224.134 332.855,223.991 333.213,223.857 333.57,223.723 333.926,223.59 334.297,223.442 334.667,223.295 335.036,223.148 335.383,223.013 335.732,222.876 336.08,222.739 336.466,222.605 336.85,222.471 337.188,222.339 337.525,222.207 337.863,222.075 338.221,221.944 338.566,221.805 338.909,221.665 339.256,221.523 339.602,221.381 339.947,221.24 340.295,221.098 340.641,220.957 340.988,220.821 341.322,220.684 341.656,220.548 341.991,220.411 342.343,220.271 342.693,220.131 343.043,219.992 343.409,219.838 343.774,219.684 344.138,219.531 344.484,219.393 344.829,219.256 345.197,219.103 345.564,218.952 345.913,218.813 346.269,218.685 346.625,218.556 346.979,218.428 347.343,218.296 347.707,218.164 348.069,218.032 348.418,217.913 348.767,217.794 349.115,217.676 349.492,217.546 349.868,217.417 350.231,217.297 350.593,217.178 350.955,217.059 351.342,216.918 351.73,216.776 352.118,216.635 352.5,216.5 " fill="none" stroke-width="1" stroke="rgb(0,0,255)" />
	<polyline points="352.5,216.5 352.916,216.89 353.335,217.272 353.754,217.654 354.175,218.037 354.572,218.397 354.97,218.758 355.36,219.113 355.717,219.435 356.076,219.758 356.445,220.09 356.786,220.394 357.128,220.699 357.485,221.017 357.816,221.31 358.149,221.605 358.504,221.918 358.831,222.207 359.16,222.498 359.512,222.803 359.866,223.11 360.228,223.42 360.592,223.731 360.958,224.044 361.321,224.34 361.687,224.635 362.056,224.932 362.448,225.248 362.842,225.566 363.211,225.804 363.58,226.04 363.955,226.33 364.322,226.615 364.688,226.898 365.077,227.206 365.446,227.473 365.813,227.735 366.177,227.993 366.542,228.264 366.905,228.531 367.268,228.811 367.628,229.086 367.98,229.332 368.355,229.618 368.73,229.898 369.093,230.12 369.48,230.405 369.867,230.691 370.22,230.886 370.573,231.077 370.962,231.332 371.314,231.571 371.662,231.802 372.009,232.025 372.376,232.254 372.743,232.474 373.109,232.685 373.483,232.908 373.858,233.124 374.293,233.366 374.728,233.6 375.164,233.828 375.62,234.055 376.085,234.288 376.615,234.35 " fill="none" stroke-width="1" stroke="rgb(0,0,255)" />
	<polyline points="238.529,271.358 238.849,271.063 239.141,270.77 239.484,270.472 239.825,270.178 240.181,269.895 240.524,269.609 240.866,269.326 241.233,269.054 241.602,268.811 241.972,268.569 242.342,268.322 242.713,268.075 243.085,267.788 243.449,267.526 243.815,267.264 244.183,267.002 244.54,266.749 244.898,266.497 245.24,266.255 245.584,266.013 245.913,265.769 246.25,265.514 246.589,265.259 246.929,265.003 247.246,264.787 247.566,264.57 247.888,264.353 248.211,264.115 248.556,263.879 248.902,263.643 249.224,263.457 249.547,263.271 249.873,263.086 250.222,262.873 250.572,262.661 250.924,262.449 251.244,262.267 251.565,262.085 251.892,261.904 252.258,261.694 252.624,261.485 252.992,261.276 253.328,261.114 253.665,260.953 253.996,260.782 254.385,260.592 254.776,260.402 255.169,260.213 255.514,260.044 255.845,259.884 256.197,259.708 256.55,259.533 256.905,259.358 257.239,259.196 257.574,259.033 257.922,258.862 258.298,258.683 258.674,258.505 259.052,258.327 259.392,258.154 259.733,257.982 260.067,257.821 260.398,257.65 260.728,257.48 261.058,257.311 261.393,257.139 261.727,256.967 262.062,256.788 262.412,256.601 262.761,256.415 263.11,256.228 263.45,256.051 263.797,255.864 264.143,255.676 264.485,255.495 264.827,255.313 265.194,255.113 265.561,254.914 265.949,254.716 266.307,254.521 266.664,254.326 267.019,254.131 267.395,253.935 267.772,253.731 268.149,253.526 268.486,253.345 268.824,253.164 269.161,252.983 269.54,252.769 269.918,252.555 270.281,252.351 270.643,252.146 271.004,251.942 271.391,251.728 271.777,251.514 272.163,251.3 272.506,251.111 272.847,250.924 273.201,250.731 273.554,250.539 273.907,250.347 274.253,250.164 274.599,249.98 274.953,249.804 275.349,249.616 275.745,249.429 276.141,249.242 276.5,249.064 276.845,248.891 277.188,248.719 277.531,248.547 277.872,248.377 278.227,248.202 278.581,248.029 278.943,247.857 279.327,247.685 279.709,247.515 280.09,247.345 280.452,247.172 280.813,246.999 281.18,246.822 281.527,246.663 281.874,246.504 282.265,246.338 282.657,246.171 283.048,246.005 283.419,245.853 283.79,245.701 284.161,245.549 284.535,245.39 284.909,245.23 285.3,245.075 285.674,244.917 286.047,244.759 286.439,244.601 286.831,244.443 287.209,244.281 287.588,244.12 287.966,243.958 288.342,243.797 288.716,243.635 289.091,243.474 289.507,243.304 289.922,243.135 290.298,242.967 290.685,242.799 291.071,242.632 291.443,242.458 291.813,242.283 292.183,242.109 292.552,241.944 292.923,241.778 293.306,241.61 293.691,241.442 294.075,241.272 294.444,241.111 294.812,240.95 295.162,240.793 295.528,240.639 295.895,240.484 296.251,240.331 296.608,240.177 296.964,240.023 297.35,239.87 297.737,239.716 298.123,239.562 298.494,239.406 298.865,239.25 299.223,239.093 299.581,238.935 299.939,238.788 300.306,238.612 300.674,238.435 301.042,238.258 301.385,238.1 301.729,237.941 302.073,237.777 302.422,237.608 302.771,237.438 303.12,237.268 303.463,237.098 303.807,236.927 304.146,236.773 304.499,236.589 304.853,236.404 305.195,236.231 305.538,236.056 305.92,235.838 306.265,235.668 306.609,235.497 306.954,235.325 307.326,235.14 307.699,234.953 308.05,234.785 308.391,234.608 308.733,234.43 309.075,234.251 309.414,234.073 309.786,233.872 310.159,233.672 310.5,233.5 " fill="none" stroke-width="1" stroke="rgb(0,0,255)" />
	<polyline points="379.5,239.5 380.02,239.308 380.55,239.11 381.082,238.913 381.556,238.75 382.032,238.587 382.546,238.449 383.063,238.311 383.543,238.133 384.025,237.955 384.478,237.788 384.934,237.62 385.365,237.442 385.8,237.263 386.219,237.086 386.652,236.895 387.086,236.703 387.487,236.525 387.888,236.347 388.319,236.153 388.751,235.958 389.152,235.778 389.539,235.579 389.929,235.38 390.337,235.185 390.744,234.99 391.173,234.774 391.561,234.591 391.951,234.407 392.374,234.197 392.797,233.987 393.19,233.798 393.573,233.598 393.956,233.397 394.348,233.193 394.739,232.99 395.142,232.773 395.524,232.579 395.906,232.385 396.301,232.175 396.695,231.965 397.087,231.749 397.465,231.527 397.84,231.306 398.246,231.083 398.634,230.871 399.02,230.661 399.399,230.466 399.775,230.273 400.148,230.082 400.545,229.883 400.937,229.687 401.312,229.48 401.683,229.275 402.05,229.073 402.429,228.862 402.802,228.655 403.168,228.452 403.535,228.268 403.898,228.091 404.24,227.91 404.583,227.753 404.917,227.592 405.286,227.404 405.647,227.219 406,227.035 406.325,226.852 406.642,226.671 406.953,226.493 407.296,226.322 407.63,226.154 407.955,225.988 408.256,225.842 408.55,225.696 408.839,225.551 409.121,225.407 409.413,225.256 409.697,225.107 409.973,224.959 410.24,224.821 410.501,224.684 410.758,224.547 411.011,224.411 411.256,224.284 411.498,224.157 411.738,224.03 411.977,223.903 412.204,223.766 412.415,223.608 412.612,223.434 412.796,223.248 412.974,223.057 413.149,222.87 413.324,222.685 413.5,222.5 " fill="none" stroke-width="1" stroke="rgb(0,0,255)" />
	<polyline points="271.5,295.5 271.699,295.332 271.899,295.165 272.099,294.997 272.302,294.83 272.506,294.664 272.712,294.496 272.92,294.328 273.129,294.158 273.342,293.988 273.553,293.819 273.768,293.648 273.985,293.477 274.2,293.3 274.419,293.121 274.642,292.939 274.873,292.76 275.109,292.579 275.344,292.402 275.584,292.222 275.83,292.041 276.073,291.858 276.313,291.679 276.557,291.499 276.804,291.318 277.055,291.136 277.325,290.94 277.583,290.759 277.846,290.576 278.114,290.392 278.378,290.196 278.649,289.998 278.927,289.811 279.223,289.607 279.524,289.4 279.833,289.19 280.147,288.977 280.446,288.769 280.749,288.558 281.058,288.345 281.373,288.143 281.693,287.938 282.026,287.719 282.349,287.513 282.677,287.305 283.009,287.096 283.343,286.885 283.68,286.674 284.02,286.463 284.378,286.233 284.739,286.002 285.091,285.786 285.446,285.552 285.805,285.316 286.165,285.078 286.556,284.83 286.949,284.581 287.313,284.364 287.677,284.147 288.041,283.931 288.408,283.712 288.778,283.493 289.15,283.273 289.535,283.014 289.906,282.786 290.311,282.525 290.715,282.265 291.119,282.005 291.521,281.747 291.925,281.487 292.295,281.261 292.662,281.037 293.033,280.795 293.393,280.575 293.752,280.357 294.11,280.138 294.463,279.912 294.811,279.705 295.16,279.498 295.526,279.274 295.893,279.05 296.259,278.824 296.623,278.599 296.987,278.374 297.355,278.156 297.724,277.938 298.104,277.708 298.483,277.483 298.863,277.257 299.264,277.03 299.646,276.818 300.028,276.606 300.436,276.377 300.846,276.148 301.212,275.949 301.588,275.736 301.964,275.522 302.343,275.309 302.721,275.096 303.118,274.867 303.474,274.668 303.833,274.468 304.221,274.243 304.609,274.018 304.981,273.812 305.351,273.605 305.721,273.398 306.092,273.192 306.476,272.976 306.866,272.745 307.224,272.548 307.582,272.352 307.94,272.156 308.346,271.93 308.743,271.718 309.14,271.507 309.519,271.291 309.899,271.075 310.323,270.834 310.747,270.594 311.172,270.353 311.559,270.148 311.945,269.943 312.341,269.735 312.74,269.527 313.142,269.317 313.551,269.075 313.95,268.862 314.387,268.626 314.826,268.39 315.228,268.186 315.633,267.982 316.05,267.773 316.452,267.58 316.855,267.387 317.252,267.2 317.65,267.012 318.051,266.82 318.447,266.627 318.844,266.432 319.225,266.248 319.609,266.063 319.989,265.891 320.358,265.711 320.728,265.532 321.099,265.353 321.475,265.171 321.851,264.989 322.231,264.796 322.61,264.603 322.99,264.41 323.361,264.219 323.731,264.029 324.102,263.84 324.474,263.648 324.844,263.456 325.216,263.262 325.587,263.068 325.959,262.875 326.367,262.666 326.772,262.459 327.174,262.254 327.551,262.066 327.934,261.86 328.332,261.659 328.729,261.46 329.124,261.261 329.522,261.048 329.918,260.859 330.38,260.655 330.839,260.451 331.244,260.272 331.648,260.093 332.05,259.914 332.476,259.732 332.898,259.552 333.336,259.371 333.77,259.192 334.203,259.013 334.655,258.845 335.106,258.676 335.511,258.513 335.916,258.35 336.368,258.185 336.822,258.02 337.243,257.856 337.665,257.691 338.089,257.526 338.485,257.355 338.883,257.183 339.277,257.016 339.672,256.843 340.069,256.669 340.493,256.493 340.919,256.316 341.302,256.147 341.688,255.977 342.074,255.81 342.474,255.617 342.875,255.423 343.271,255.248 343.667,255.073 344.039,254.898 344.461,254.708 344.884,254.516 345.259,254.344 345.632,254.173 346.005,254.001 346.438,253.8 346.872,253.599 347.26,253.427 347.649,253.255 348.038,253.083 348.464,252.87 348.891,252.656 349.271,252.474 349.651,252.293 350.031,252.111 350.462,251.897 350.885,251.694 351.282,251.49 351.68,251.286 352.079,251.081 352.497,250.862 352.915,250.644 353.301,250.447 353.685,250.251 354.069,250.056 354.445,249.866 354.822,249.676 355.204,249.471 355.585,249.267 355.967,249.063 356.349,248.858 356.73,248.654 357.11,248.452 357.48,248.266 357.849,248.081 358.226,247.889 358.602,247.698 358.978,247.508 359.376,247.3 359.773,247.094 360.189,246.896 360.573,246.701 360.954,246.508 361.349,246.321 361.743,246.135 362.136,245.95 362.503,245.769 362.869,245.589 363.25,245.39 363.629,245.193 364.006,244.997 364.379,244.822 364.751,244.649 365.12,244.477 365.485,244.307 365.848,244.138 366.233,243.934 366.596,243.763 366.957,243.594 367.332,243.411 367.706,243.228 368.079,243.047 368.467,242.874 368.854,242.704 369.234,242.551 369.613,242.399 369.99,242.248 370.416,242.052 370.812,241.91 371.233,241.767 371.651,241.626 372.067,241.487 372.482,241.355 372.894,241.224 373.32,241.087 373.743,240.951 374.132,240.816 374.576,240.689 375.019,240.563 375.429,240.446 375.838,240.329 376.283,240.231 376.727,240.133 377.17,240.036 377.627,239.919 378.082,239.802 378.558,239.706 379.033,239.611 379.5,239.5 " fill="none" stroke-width="1" stroke="rgb(0,0,255)" />
	<polyline points="267.288,413.309 267.557,412.232 267.845,411.216 268.034,410.133 268.144,409.105 268.218,407.786 268.289,406.287 268.354,404.677 268.416,402.831 268.473,400.996 268.525,399.269 268.572,397.593 268.615,395.951 268.656,394.318 268.694,392.693 268.731,391.072 268.765,389.449 268.797,387.829 268.826,386.203 268.855,384.581 268.881,382.959 268.906,381.336 268.93,379.712 268.954,378.087 268.977,376.466 269.001,374.824 269.029,373.197 269.068,371.556 269.128,369.989 269.202,368.381 269.302,367.036 269.397,365.696 269.458,363.942 269.5,362.238 269.524,360.576 269.54,358.939 269.555,357.316 269.566,355.669 269.578,353.989 269.596,352.205 269.64,350.447 269.729,348.986 269.836,347.553 269.943,346.143 270.034,344.463 270.079,342.877 270.165,341.48 270.243,340.168 270.301,338.66 270.326,336.854 270.333,334.981 270.333,333.237 270.329,331.539 270.324,329.891 270.319,328.267 270.313,326.654 270.308,325.042 270.304,323.413 270.303,321.751 270.308,320.032 270.323,318.258 270.366,316.565 270.444,315.245 270.528,313.912 270.604,312.48 270.655,310.711 270.689,308.763 270.725,306.755 270.78,304.961 270.883,303.282 271.011,301.975 271.149,300.882 271.293,299.607 271.378,298.127 271.469,296.795 271.5,295.5 " fill="none" stroke-width="1" stroke="rgb(0,0,255)" />
	<polyline points="169,246.637 169.423,247.016 169.847,247.385 170.271,247.744 170.695,248.104 171.116,248.499 171.538,248.886 171.959,249.228 172.382,249.605 172.799,249.979 173.203,250.366 173.621,250.766 174.051,251.177 174.481,251.589 174.917,252.006 175.355,252.432 175.802,252.867 176.201,253.255 176.593,253.635 176.985,254.015 177.37,254.386 177.759,254.761 178.153,255.14 178.519,255.491 178.888,255.846 179.261,256.204 179.637,256.564 180.016,256.928 180.388,257.283 180.763,257.641 181.14,258 181.53,258.369 181.922,258.738 182.336,259.109 182.735,259.471 183.134,259.832 183.557,260.2 183.979,260.568 184.38,260.885 184.779,261.223 185.178,261.557 185.577,261.899 185.991,262.245 186.393,262.562 186.794,262.877 187.193,263.205 187.613,263.546 188.031,263.884 188.461,264.27 188.888,264.653 189.295,265.011 189.759,265.408 190.221,265.804 190.657,266.243 191.091,266.682 191.505,267.076 191.962,267.475 192.397,267.883 192.858,268.327 193.276,268.713 193.696,269.103 194.112,269.458 194.526,269.842 194.947,270.211 195.346,270.583 195.749,270.957 196.167,271.352 196.551,271.723 196.938,272.097 197.321,272.471 197.706,272.846 198.112,273.257 198.495,273.635 198.878,274.013 199.268,274.413 199.658,274.812 200.029,275.225 200.426,275.636 200.819,276.046 201.226,276.463 201.629,276.878 202.026,277.316 202.428,277.742 202.83,278.167 203.233,278.551 203.637,278.935 204.087,279.355 204.544,279.812 204.963,280.206 205.35,280.564 205.737,280.924 206.175,281.328 206.628,281.772 207.087,282.22 207.465,282.585 207.849,282.956 208.248,283.352 208.653,283.754 209.065,284.163 209.446,284.54 209.832,284.921 210.232,285.318 210.636,285.718 211.043,286.122 211.432,286.509 211.823,286.898 212.236,287.302 212.649,287.707 213.063,288.112 213.452,288.5 213.842,288.887 214.261,289.308 214.679,289.728 215.096,290.147 215.482,290.533 215.867,290.917 216.271,291.342 216.675,291.766 217.077,292.189 217.46,292.571 217.842,292.953 218.277,293.388 218.71,293.823 219.117,294.233 219.501,294.615 219.885,294.996 220.3,295.397 220.714,295.797 221.128,296.197 221.516,296.588 221.903,296.979 222.296,297.366 222.686,297.752 223.075,298.136 223.472,298.53 223.866,298.922 224.249,299.303 224.63,299.68 225.007,300.054 225.397,300.434 225.783,300.811 226.177,301.199 226.56,301.578 226.94,301.955 227.342,302.35 227.741,302.742 228.137,303.133 228.56,303.543 228.98,303.949 229.432,304.368 229.881,304.785 230.306,305.147 230.762,305.558 231.216,305.968 231.68,306.385 232.141,306.803 232.6,307.22 233.059,307.634 233.522,308.06 233.98,308.479 234.404,308.825 234.818,309.202 235.237,309.522 235.657,309.84 236.081,310.17 236.5,310.5 " fill="none" stroke-width="1" stroke="rgb(0,0,255)" />
	<polyline points="239.5,268.5 239.884,268.626 240.276,268.754 240.669,268.881 241.064,269.007 241.454,269.19 241.839,269.385 242.19,269.629 242.509,269.919 242.813,270.232 243.12,270.548 243.433,270.877 243.753,271.216 244.078,271.562 244.422,271.908 244.77,272.26 245.128,272.622 245.496,272.993 245.832,273.329 246.194,273.69 246.576,274.069 246.927,274.413 247.321,274.8 247.73,275.201 248.091,275.552 248.497,275.949 248.867,276.308 249.282,276.711 249.709,277.126 250.094,277.498 250.519,277.91 250.911,278.289 251.341,278.703 251.774,279.12 252.175,279.506 252.605,279.919 253.005,280.301 253.436,280.712 253.868,281.122 254.304,281.534 254.739,281.945 255.146,282.33 255.585,282.737 256.024,283.142 256.475,283.554 256.925,283.964 257.361,284.34 257.795,284.711 258.218,285.088 258.672,285.474 259.12,285.856 259.537,286.2 259.947,286.54 260.34,286.864 260.762,287.223 261.175,287.572 261.556,287.858 261.951,288.188 262.321,288.486 262.686,288.779 263.045,289.065 263.42,289.347 263.789,289.622 264.15,289.891 264.499,290.149 264.839,290.401 265.224,290.734 265.597,291.054 265.95,291.313 266.301,291.579 266.644,291.837 266.981,292.088 267.325,292.376 267.661,292.657 267.991,292.934 268.325,293.173 268.655,293.41 268.98,293.645 269.303,293.88 269.625,294.116 269.936,294.367 270.251,294.6 270.564,294.832 270.876,295.061 271.188,295.281 271.5,295.5 " fill="none" stroke-width="1" stroke="rgb(0,0,255)" />
	<polyline points="165.877,243.427 166.544,244.092 167.118,244.858 167.94,245.579 169,246.637 " fill="none" stroke-width="1" stroke="rgb(0,0,255)" />
	<polyline points="236.5,310.5 236.698,309.454 236.912,308.423 237.088,307.478 237.22,306.534 237.343,305.572 237.452,304.6 237.548,303.493 237.619,301.97 237.674,300.436 237.71,298.691 237.735,297.031 237.754,295.514 237.768,294.096 237.781,292.746 237.793,291.434 237.805,290.15 237.816,288.864 237.828,287.586 237.84,286.292 237.853,284.967 237.866,283.615 237.881,282.203 237.899,280.704 237.924,279.159 237.96,277.567 238.017,276.195 238.078,275.019 238.171,274.003 238.264,273.063 238.403,272.198 238.529,271.358 " fill="none" stroke-width="1" stroke="rgb(0,0,255)" />
	<polyline points="238.529,271.358 238.814,270.517 239.107,269.648 239.5,268.5 " fill="none" stroke-width="1" stroke="rgb(0,0,255)" />
	<polyline points="269.427,419.198 269.777,418.934 270.131,418.689 270.482,418.426 270.832,418.163 271.182,417.913 271.528,417.64 271.875,417.366 272.22,417.104 272.573,416.84 272.926,416.575 273.259,416.341 273.594,416.107 273.938,415.828 274.281,415.567 274.627,415.305 274.974,415.041 275.291,414.817 275.609,414.593 275.928,414.368 276.276,414.113 276.604,413.865 276.933,413.617 277.25,413.362 277.57,413.105 277.882,412.863 278.207,412.597 278.532,412.33 278.858,412.063 279.174,411.802 279.49,411.542 279.807,411.28 280.124,411.019 280.427,410.761 280.729,410.504 281.031,410.248 281.34,409.991 281.66,409.735 281.981,409.478 282.282,409.243 282.583,409.007 282.891,408.756 283.221,408.491 283.551,408.226 283.882,407.96 284.196,407.716 284.511,407.472 284.825,407.228 285.14,406.983 285.473,406.745 285.805,406.507 286.136,406.27 286.461,406.015 286.771,405.776 287.081,405.537 287.408,405.29 287.735,405.042 288.058,404.81 288.372,404.557 288.687,404.304 289.003,404.051 289.332,403.797 289.663,403.544 289.994,403.29 290.301,403.055 290.608,402.802 290.916,402.55 291.261,402.294 291.608,402.037 291.957,401.782 292.292,401.54 292.628,401.299 292.963,401.057 293.314,400.814 293.663,400.572 294.012,400.332 294.351,400.078 294.7,399.84 295.052,399.601 295.4,399.348 295.748,399.095 296.085,398.87 296.437,398.621 296.79,398.372 297.145,398.122 297.485,397.902 297.852,397.653 298.195,397.431 298.536,397.21 298.875,396.991 299.205,396.778 299.535,396.565 299.864,396.353 300.185,396.137 300.507,395.919 300.829,395.717 301.151,395.515 301.489,395.297 301.828,395.079 302.151,394.87 302.482,394.651 302.811,394.434 303.138,394.217 303.472,394.002 303.813,393.777 304.153,393.551 304.486,393.331 304.815,393.114 305.179,392.869 305.511,392.646 305.845,392.422 306.196,392.182 306.546,391.942 306.877,391.711 307.203,391.473 307.529,391.235 307.853,390.998 308.182,390.745 308.508,390.495 308.83,390.246 309.151,389.998 309.477,389.753 309.804,389.506 310.131,389.258 310.438,389.033 310.74,388.787 311.046,388.536 311.368,388.282 311.688,388.03 312.017,387.768 312.331,387.523 312.646,387.278 312.962,387.031 313.286,386.769 313.61,386.508 313.933,386.247 314.26,385.986 314.586,385.724 314.914,385.461 315.258,385.196 315.601,384.933 315.921,384.698 316.259,384.45 316.599,384.202 316.94,383.953 317.267,383.713 317.597,383.473 317.928,383.231 318.249,383.002 318.579,382.768 318.909,382.534 319.221,382.317 319.534,382.101 319.857,381.876 320.176,381.66 320.496,381.443 320.817,381.227 321.139,381.01 321.46,380.802 321.78,380.595 322.1,380.389 322.442,380.164 322.784,379.94 323.114,379.731 323.44,379.509 323.766,379.288 324.093,379.067 324.452,378.834 324.81,378.602 325.167,378.371 325.5,378.166 325.833,377.963 326.165,377.734 326.499,377.528 326.834,377.322 327.171,377.089 327.507,376.875 327.845,376.66 328.207,376.418 328.567,376.177 328.925,375.937 329.275,375.695 329.627,375.452 329.979,375.208 330.318,374.989 330.668,374.743 331.02,374.497 331.377,374.266 331.733,374.036 332.082,373.79 332.437,373.559 332.794,373.327 333.153,373.094 333.504,372.867 333.858,372.639 334.223,372.399 334.588,372.158 334.954,371.918 335.291,371.675 335.631,371.431 335.972,371.185 336.325,370.947 336.675,370.708 337.025,370.47 337.374,370.253 337.726,370.035 338.083,369.806 338.426,369.594 338.77,369.383 339.115,369.171 339.474,368.946 339.832,368.735 340.181,368.512 340.53,368.29 340.878,368.068 341.245,367.853 341.613,367.637 341.983,367.421 342.316,367.226 342.648,367.033 342.986,366.818 343.324,366.617 343.662,366.417 343.998,366.219 344.325,366.013 344.647,365.826 344.969,365.639 345.308,365.435 345.647,365.23 345.987,365.026 346.323,364.821 346.658,364.616 346.993,364.411 347.312,364.221 347.63,364.031 347.962,363.825 348.291,363.629 348.621,363.432 348.953,363.234 349.299,363.018 349.629,362.815 349.961,362.611 350.326,362.387 350.69,362.163 351.053,361.94 351.409,361.738 351.765,361.536 352.12,361.334 352.463,361.136 352.805,360.938 353.157,360.731 353.491,360.543 353.824,360.356 354.156,360.169 354.515,359.969 354.854,359.781 355.21,359.591 355.564,359.401 355.916,359.212 356.251,359.021 356.603,358.818 356.954,358.615 357.289,358.431 357.622,358.249 357.953,358.067 358.294,357.874 358.633,357.683 358.969,357.492 359.33,357.298 359.689,357.104 360.046,356.911 360.403,356.72 360.76,356.53 361.116,356.339 361.464,356.15 361.811,355.961 362.194,355.754 362.577,355.547 362.959,355.34 363.349,355.132 363.739,354.924 364.116,354.709 364.5,354.5 " fill="none" stroke-width="1" stroke="rgb(0,0,255)" />
	<polyline points="364.5,354.5 364.804,354.367 365.109,354.233 365.408,354.096 365.708,353.958 366.026,353.819 366.338,353.682 366.652,353.544 366.966,353.405 367.285,353.26 367.605,353.114 367.927,352.966 368.243,352.818 368.561,352.669 368.881,352.519 369.185,352.369 369.491,352.218 369.798,352.066 370.13,351.908 370.442,351.753 370.756,351.595 371.073,351.435 371.385,351.278 371.699,351.118 372.016,350.956 372.306,350.81 372.597,350.662 372.889,350.513 373.175,350.365 373.462,350.215 373.75,350.064 374.046,349.912 374.339,349.764 374.632,349.614 374.926,349.464 375.225,349.311 375.525,349.156 375.827,349 376.118,348.846 376.414,348.692 376.71,348.536 377.006,348.38 377.307,348.219 377.611,348.057 377.946,347.864 378.244,347.702 378.542,347.54 378.84,347.377 379.167,347.194 379.493,347.009 379.805,346.846 380.114,346.683 380.42,346.491 380.727,346.297 381.036,346.103 381.343,345.924 381.664,345.729 381.985,345.534 382.282,345.345 382.579,345.156 382.876,344.965 383.182,344.772 383.488,344.578 383.794,344.384 384.1,344.189 384.407,343.973 384.705,343.767 385.002,343.563 385.319,343.344 385.635,343.127 385.949,342.91 386.256,342.692 386.562,342.475 386.866,342.259 387.173,342.058 387.499,341.851 387.824,341.644 388.149,341.437 388.466,341.242 388.783,341.046 389.109,340.834 389.443,340.639 389.778,340.444 390.113,340.249 390.459,340.047 390.804,339.864 391.149,339.681 391.5,339.5 " fill="none" stroke-width="1" stroke="rgb(0,0,255)" />
	<polyline points="268.5,417.5 268.707,417.835 268.886,418.175 269.065,418.516 269.24,418.853 269.427,419.198 " fill="none" stroke-width="1" stroke="rgb(0,0,255)" />
	<polyline points="268.352,421.486 269.427,419.198 " fill="none" stroke-width="1" stroke="rgb(0,0,255)" />
	<polyline points="236.5,142.5 236.942,142.73 237.405,142.936 237.85,143.135 238.249,143.389 238.649,143.642 239.049,143.896 239.464,144.118 239.879,144.341 240.274,144.558 240.67,144.776 241.068,144.994 241.456,145.209 241.846,145.425 242.229,145.653 242.612,145.883 242.997,146.113 243.384,146.336 243.773,146.56 244.163,146.784 244.524,146.988 244.942,147.264 245.332,147.495 245.723,147.727 246.115,147.961 246.462,148.163 246.81,148.364 247.159,148.565 247.513,148.773 247.867,148.981 248.256,149.229 248.646,149.478 249.036,149.727 249.391,149.928 249.746,150.142 250.1,150.357 250.451,150.562 250.801,150.765 251.15,150.967 251.504,151.17 251.859,151.371 252.255,151.619 252.65,151.866 253.044,152.114 253.436,152.362 253.828,152.608 254.184,152.815 254.539,153.023 254.925,153.274 255.289,153.482 255.653,153.689 256.015,153.897 256.399,154.144 256.781,154.388 257.161,154.63 257.557,154.898 257.947,155.133 258.354,155.419 258.758,155.702 259.16,155.981 259.577,156.298 259.992,156.613 260.41,156.93 260.834,157.246 261.259,157.545 261.684,157.844 262.085,158.176 262.5,158.5 " fill="none" stroke-width="1" stroke="rgb(0,0,255)" />
	<polyline points="135.5,179.5 135.882,179.403 136.27,179.3 136.657,179.196 137.044,179.092 137.418,178.983 137.808,178.868 138.196,178.75 138.584,178.631 138.972,178.512 139.352,178.385 139.732,178.259 140.112,178.132 140.503,178.006 140.866,177.881 141.21,177.759 141.555,177.638 141.899,177.517 142.267,177.392 142.635,177.266 143.004,177.141 143.349,177.02 143.685,176.898 144.021,176.776 144.397,176.658 144.772,176.54 145.147,176.422 145.483,176.305 145.818,176.187 146.196,176.07 146.575,175.953 146.947,175.834 147.298,175.719 147.649,175.604 148.002,175.489 148.369,175.366 148.737,175.242 149.106,175.119 149.483,175.002 149.84,174.879 150.219,174.756 150.6,174.632 150.981,174.508 151.342,174.383 151.704,174.258 152.068,174.133 152.456,174.008 152.823,173.883 153.217,173.759 153.611,173.634 154.007,173.509 154.372,173.379 154.739,173.249 155.106,173.119 155.501,172.988 155.868,172.854 156.25,172.72 156.634,172.586 157.02,172.451 157.383,172.315 157.747,172.179 158.112,172.042 158.476,171.906 158.84,171.77 159.227,171.622 159.614,171.473 160.003,171.323 160.359,171.183 160.715,171.042 161.074,170.891 161.429,170.743 161.785,170.595 162.143,170.446 162.5,170.304 162.858,170.162 163.224,170.014 163.596,169.865 163.968,169.715 164.307,169.578 164.646,169.44 164.987,169.301 165.352,169.15 165.716,168.999 166.08,168.844 166.431,168.705 166.782,168.566 167.133,168.427 167.484,168.274 167.836,168.12 168.177,167.984 168.525,167.844 168.872,167.703 169.26,167.557 169.648,167.411 170.035,167.265 170.392,167.122 170.748,166.98 171.088,166.846 171.461,166.701 171.832,166.556 172.18,166.431 172.526,166.306 172.871,166.182 173.27,166.046 173.69,165.916 174.109,165.787 174.46,165.661 174.81,165.534 175.221,165.402 175.631,165.271 176.04,165.14 176.386,165.008 176.737,164.879 177.088,164.751 177.481,164.61 177.874,164.47 178.221,164.342 178.567,164.215 178.914,164.087 179.301,163.947 179.697,163.812 180.093,163.677 180.446,163.54 180.799,163.403 181.153,163.266 181.531,163.128 181.908,162.99 182.269,162.853 182.631,162.716 182.993,162.579 183.354,162.44 183.714,162.301 184.072,162.162 184.444,162.024 184.82,161.885 185.192,161.747 185.563,161.609 185.933,161.472 186.308,161.333 186.68,161.194 187.051,161.056 187.417,160.923 187.784,160.79 188.15,160.657 188.527,160.524 188.903,160.392 189.285,160.273 189.667,160.154 190.049,160.035 190.431,159.922 190.813,159.808 191.194,159.688 191.577,159.568 191.959,159.448 192.336,159.331 192.713,159.214 193.091,159.097 193.488,158.975 193.864,158.85 194.222,158.72 194.582,158.59 194.943,158.459 195.306,158.33 195.672,158.201 196.039,158.071 196.389,157.938 196.745,157.813 197.102,157.686 197.484,157.552 197.866,157.417 198.246,157.289 198.626,157.16 199.008,157.032 199.347,156.909 199.687,156.785 200.027,156.662 200.388,156.531 200.749,156.399 201.111,156.268 201.455,156.144 201.8,156.02 202.172,155.891 202.566,155.752 202.96,155.613 203.324,155.472 203.689,155.33 204.056,155.187 204.43,155.037 204.814,154.873 205.186,154.715 205.542,154.565 205.896,154.416 206.271,154.251 206.646,154.085 207.023,153.919 207.387,153.754 207.754,153.589 208.122,153.422 208.48,153.266 208.839,153.11 209.207,152.938 209.568,152.78 209.93,152.621 210.311,152.448 210.692,152.274 211.074,152.1 211.441,151.944 211.808,151.79 212.176,151.635 212.528,151.486 212.879,151.338 213.236,151.193 213.592,151.048 213.951,150.897 214.308,150.747 214.664,150.596 215.021,150.445 215.364,150.302 215.707,150.159 216.051,150.016 216.383,149.886 216.714,149.756 217.045,149.626 217.381,149.498 217.716,149.37 218.051,149.243 218.379,149.114 218.706,148.986 219.038,148.852 219.366,148.717 219.693,148.583 220.019,148.449 220.353,148.313 220.686,148.178 221.018,148.044 221.359,147.913 221.699,147.782 222.037,147.652 222.387,147.509 222.736,147.366 223.083,147.224 223.438,147.091 223.792,146.959 224.129,146.821 224.493,146.682 224.857,146.543 225.204,146.41 225.549,146.278 225.891,146.147 226.279,146.012 226.668,145.876 227.054,145.741 227.434,145.617 227.812,145.493 228.213,145.37 228.611,145.246 229.008,145.123 229.419,145.015 229.809,144.894 230.239,144.797 230.667,144.699 231.094,144.6 231.5,144.5 " fill="none" stroke-width="1" stroke="rgb(0,0,255)" />
	<polyline points="231.5,144.5 231.662,144.374 231.825,144.247 231.989,144.12 232.151,143.994 232.335,143.856 232.519,143.718 232.703,143.579 232.888,143.441 233.073,143.301 233.246,143.172 233.419,143.043 233.588,142.911 233.755,142.781 233.92,142.651 234.1,142.514 234.279,142.378 " fill="none" stroke-width="1" stroke="rgb(0,0,255)" />
	<polyline points="234.279,142.378 233.975,142.873 233.814,143.41 233.652,143.948 233.5,144.5 " fill="none" stroke-width="1" stroke="rgb(0,0,255)" />
	<polyline points="262.5,158.5 262.693,159.08 262.837,159.725 262.946,160.403 263.046,161.086 263.016,161.807 263.087,162.448 263.155,163.091 263.17,163.886 263.215,164.61 263.259,165.331 263.28,166.173 263.303,166.998 263.314,167.889 263.327,168.749 263.335,169.61 263.345,170.444 263.355,171.269 263.365,172.087 263.378,172.897 263.396,173.709 263.421,174.518 263.445,175.324 263.482,176.124 263.534,176.891 263.594,177.653 263.656,178.402 263.717,179.152 263.774,179.918 263.82,180.697 263.85,181.507 263.88,182.315 263.902,183.123 263.915,183.939 263.925,184.75 263.933,185.564 263.939,186.377 263.946,187.185 263.953,187.994 263.963,188.798 263.979,189.584 264.025,190.321 264.082,191.025 264.146,191.701 264.201,192.4 264.257,193.098 264.303,193.829 264.336,194.586 264.369,195.345 264.389,196.135 264.408,196.91 264.419,197.701 264.441,198.45 264.462,199.198 264.482,199.979 264.492,200.725 264.5,201.5 " fill="none" stroke-width="1" stroke="rgb(0,0,255)" />
	<polyline points="159.5,202.5 159.898,202.346 160.264,202.203 160.631,202.06 161.007,201.9 161.389,201.708 161.772,201.516 162.156,201.324 162.538,201.16 162.922,200.997 163.299,200.809 163.677,200.621 164.056,200.433 164.421,200.258 164.788,200.083 165.147,199.912 165.511,199.723 165.875,199.533 166.222,199.374 166.571,199.215 166.922,199.056 167.277,198.886 167.634,198.715 167.993,198.545 168.353,198.393 168.714,198.242 169.077,198.092 169.439,197.914 169.802,197.758 170.166,197.601 170.528,197.438 170.892,197.275 171.275,197.134 171.66,196.993 172.021,196.838 172.417,196.685 172.817,196.531 173.191,196.379 173.564,196.228 173.931,196.079 174.335,195.922 174.717,195.769 175.106,195.616 175.51,195.468 175.916,195.32 176.303,195.169 176.692,195.019 177.111,194.868 177.499,194.718 177.889,194.569 178.294,194.411 178.7,194.252 179.109,194.094 179.49,193.943 179.888,193.79 180.254,193.639 180.62,193.488 180.986,193.338 181.362,193.191 181.738,193.044 182.108,192.893 182.474,192.743 182.841,192.593 183.203,192.446 183.567,192.298 183.932,192.15 184.289,192.007 184.647,191.871 185.006,191.737 185.39,191.602 185.775,191.468 186.161,191.334 186.526,191.207 186.892,191.08 187.299,190.948 187.679,190.802 188.061,190.656 188.426,190.507 188.791,190.358 189.155,190.21 189.549,190.06 190.025,189.897 190.377,189.765 190.731,189.634 191.084,189.501 191.5,189.354 191.914,189.207 192.265,189.074 192.616,188.94 192.991,188.786 193.374,188.638 193.755,188.491 194.134,188.345 194.514,188.19 194.892,188.036 195.283,187.879 195.672,187.722 196.058,187.565 196.451,187.416 196.842,187.266 197.244,187.106 197.643,186.946 198.055,186.797 198.462,186.647 198.866,186.498 199.274,186.361 199.68,186.225 200.084,186.088 200.492,185.944 200.888,185.808 201.281,185.656 201.674,185.504 202.067,185.352 202.444,185.207 202.819,185.062 203.22,184.912 203.622,184.762 204.025,184.612 204.406,184.469 204.788,184.325 205.17,184.181 205.587,184.036 205.997,183.89 206.354,183.756 206.712,183.621 207.071,183.486 207.488,183.343 207.906,183.199 208.262,183.06 208.635,182.921 209.009,182.782 209.428,182.63 209.848,182.477 210.214,182.341 210.581,182.205 210.949,182.068 211.367,181.924 211.786,181.78 212.206,181.636 212.554,181.499 212.903,181.361 213.3,181.214 213.697,181.066 214.094,180.903 214.457,180.759 214.821,180.616 215.198,180.458 215.577,180.299 215.957,180.141 216.313,180.003 216.667,179.864 217.022,179.726 217.428,179.582 217.835,179.437 218.202,179.298 218.569,179.158 218.936,179.018 219.341,178.871 219.747,178.723 220.155,178.575 220.525,178.447 220.896,178.319 221.338,178.178 221.787,178.036 222.213,177.897 222.589,177.769 222.961,177.641 223.361,177.501 223.762,177.36 224.166,177.219 224.527,177.086 224.89,176.953 225.316,176.804 225.744,176.655 226.174,176.505 226.542,176.359 226.911,176.213 227.302,176.056 227.671,175.908 228.04,175.76 228.398,175.606 228.756,175.451 229.114,175.296 229.481,175.139 229.847,174.981 230.211,174.82 230.575,174.659 230.939,174.497 231.307,174.33 231.675,174.163 232.042,173.995 232.417,173.833 232.792,173.671 233.165,173.508 233.551,173.342 233.935,173.176 234.317,173.011 234.701,172.846 235.084,172.681 235.475,172.512 235.867,172.342 236.266,172.168 236.664,171.993 237.048,171.83 237.455,171.658 237.861,171.485 238.242,171.32 238.621,171.154 238.997,170.99 239.383,170.821 239.766,170.652 240.147,170.483 240.547,170.298 240.944,170.115 241.315,169.944 241.697,169.76 242.077,169.576 242.448,169.393 242.819,169.21 243.204,169.008 243.564,168.827 243.924,168.645 244.325,168.443 244.724,168.242 245.121,168.041 245.51,167.839 245.898,167.638 246.266,167.457 246.631,167.277 246.992,167.097 247.373,166.903 247.732,166.73 248.089,166.557 248.451,166.391 248.809,166.226 249.165,166.06 249.539,165.883 249.91,165.707 250.253,165.536 250.594,165.366 250.931,165.195 251.28,165.02 251.622,164.857 251.959,164.695 252.293,164.525 252.624,164.356 252.952,164.186 253.271,164.021 253.596,163.847 253.915,163.675 254.236,163.497 254.55,163.322 254.858,163.148 255.161,162.973 255.458,162.816 255.747,162.661 256.031,162.507 256.323,162.336 256.609,162.167 256.89,162 257.169,161.829 257.442,161.661 257.711,161.495 257.975,161.331 258.236,161.175 258.493,161.02 258.748,160.864 259,160.708 259.247,160.558 259.492,160.41 259.733,160.262 259.972,160.116 260.212,159.968 260.448,159.817 260.683,159.667 260.915,159.519 261.146,159.37 261.376,159.222 261.605,159.075 261.832,158.928 262.053,158.786 262.277,158.643 262.5,158.5 " fill="none" stroke-width="1" stroke="rgb(0,0,255)" />
	<polyline points="272.9,403.5 272.927,400.44 272.953,399.928 273,399.546 " fill="none" stroke-width="1" stroke="rgb(0,0,255)" />
</g></svg>
