<?xml version="1.0" ?>
<svg xmlns="http://www.w3.org/2000/svg" xmlns:ev="http://www.w3.org/2001/xml-events" xmlns:xlink="http://www.w3.org/1999/xlink" baseProfile="full" height="451px" version="1.1" viewBox="-15.01325065 -10.60390065 532.8132013 400.0830013" width="600px">
	<defs/>
	<path d="M 31.6991,222.714 L 39.7826,228.108 L 49.5689,236.341 L 52.2669,238.116 L 55.9269,240.159 L 78.297,250.976 L 83.7089,253.352 L 88.8075,255.106 L 106.108,258.987 L 139.025,267.863 L 148.309,269.618 L 157.778,271.72 L 177.984,274.049 L 187.264,274.765 L 202.001,275.308 L 271.189,275.096 L 301.962,275.21 L 317.325,274.598 L 334.027,272.94 L 346.942,271.366 L 354.918,269.49 L 365.974,267.397 L 382.816,262.623 L 397.043,258.919 L 411.163,255.865 L 415.767,254.6 L 419.969,252.969 L 424.696,250.863 L 443.917,241.62 L 449.783,238.617 L 454.23,235.722 L 458.015,232.539 L 462.117,228.787 L 467.687,224.704 L 471.387,222.586" fill="none" stroke="rgb(31,119,180)" stroke-width="3"/>
	<path d="M 454.881,184.138 L 453.732,185.218 L 451.917,190.839 L 451.091,192.801 L 448.629,197.118 L 446.937,199.55 L 444.213,202.747 L 440.841,206.032 L 436.931,208.962 L 433.853,210.945 L 431.9,211.899 L 421.222,216.086 L 414.768,218.223 L 407.05,220.399 L 397.994,223.526 L 381.778,227.673 L 363.985,231.86 L 346.209,237.106 L 326.772,240.83 L 317.486,241.805 L 299.21,242.948 L 284.994,243.134 L 269.932,243.815 L 259.008,244.08 L 234.562,243.834 L 220.153,243.213 L 202.023,242.854 L 194.889,242.296 L 185.807,241.852 L 175.884,240.858 L 172.188,240.294 L 157.114,237.319 L 137.919,231.602 L 119.09,227.163 L 105.786,223.803 L 97.224,220.827 L 88.1593,218.255 L 80.7375,215.732 L 71.6308,211.908 L 68.939,210.594 L 66.3797,209.102 L 62.2073,206.066 L 59.9647,203.97 L 56.0344,199.249 L 53.1026,194.969 L 51.3186,191.096 L 50.6292,188.872 L 49.5484,184.006 L 49.0982,182.985 L 48.3034,182.388" fill="none" stroke="rgb(174,199,232)" stroke-width="3"/>
	<path d="M 454.394,312.773 L 454.447,313.29 L 454.125,313.833 L 454.19,314.297 L 452.768,316.105 L 448.188,319.843 L 444.833,323.148 L 443.034,324.426 L 440.635,325.655 L 432.248,328.447 L 429.083,329.661 L 421.124,331.979 L 414.142,333.775 L 403.207,335.988 L 394.589,338.05 L 388.509,338.976 L 380.898,340.493 L 368.253,342.456 L 354.162,345.524 L 344.802,346.965 L 337.183,348.466 L 321.759,350.629 L 300.749,352.778 L 290.773,353.524 L 281.882,353.919 L 271.927,354.874 L 263.044,355.211 L 255.838,355.804 L 251.394,355.954 L 248.057,355.844 L 238.085,355.09 L 229.754,354.764 L 223.126,354.119 L 213.119,353.689 L 198.714,352.564 L 181.017,350.799 L 166.163,348.615 L 160.191,347.442 L 149.184,345.726 L 135.122,342.532 L 121.892,340.475 L 113.75,338.858 L 108.237,337.991 L 99.0273,335.862 L 90.7947,334.315 L 76.8903,330.598 L 70.1286,328.033 L 63.734,326.114 L 61.2542,325.021 L 58.0678,322.924 L 55.1325,320.098 L 51.046,316.68 L 49.9697,315.28 L 50.156,314.461 L 49.4673,313.169" fill="none" stroke="rgb(255,127,14)" stroke-width="3"/>
	<path d="M 49.4673,313.169 L 49.9621,312.705 L 50.6425,312.767 L 51.1606,312.292 L 54.9562,312.991 L 62.0241,315.086 L 70.0204,317.72 L 79.7493,320.091 L 85.9244,321.996 L 110.482,327.08 L 123.213,329.186 L 153.562,335.011 L 164.766,336.518 L 174.242,338.128 L 190.783,339.781 L 199.841,340.22 L 208.934,340.878 L 222.281,341.46 L 265.729,341.601 L 277.899,341.453 L 293.144,340.873 L 304.184,340.113 L 313.932,339.68 L 320.916,338.824 L 329.228,338.056 L 336.828,336.828 L 345.741,335.687 L 349.979,334.992 L 359.839,332.985 L 382.113,328.84 L 391.03,327.424 L 412.788,322.909 L 417.025,321.909 L 423.73,319.915 L 434.184,317.312 L 441.217,314.905 L 447.88,312.927 L 450.652,312.301 L 453.645,311.992 L 454.394,312.773" fill="none" stroke="rgb(255,187,120)" stroke-width="3"/>
	<path d="M 390.5,88.5 L 389.272,90.6306 L 386.952,93.2692 L 381.011,98.9985 L 378.795,100.912 L 374.168,104.348 L 366.872,109.094 L 361.96,112.495 L 358.965,114.37 L 349.991,119.156 L 344.99,121.279 L 337.924,123.991 L 331.129,126.297 L 321.119,129.117 L 317.006,130.131 L 312.739,130.95 L 301.838,132.546 L 286.872,134.357 L 278.04,135.13 L 261.081,136.137 L 242.205,136.097 L 223.004,134.909 L 212.562,133.979 L 200.126,132.401 L 186.923,130.349 L 172.823,126.647 L 164.993,123.982 L 155.829,120.35 L 151.918,118.608 L 147.946,116.469 L 141.9,113.044 L 136.796,109.634 L 127.648,104.014 L 122.96,100.843 L 116.986,96.4411 L 111.5,89.5" fill="none" stroke="rgb(44,160,44)" stroke-width="3"/>
	<path d="M 110.5,174.5 L 115.094,176.477 L 121.482,179.012 L 154.967,190.904 L 157.898,191.731 L 166.228,193.675 L 180.207,196.292 L 189.787,197.838 L 198.194,199.519 L 217.037,202.9 L 233.239,204.613 L 247.832,205.59 L 252.571,205.673 L 262.863,204.963 L 268.842,204.718 L 277.216,203.689 L 287.223,202.688 L 305.048,199.517 L 313.796,197.702 L 322.217,196.411 L 328.001,195.229 L 338.973,193.359 L 345.003,191.846 L 349.863,190.346 L 359.851,186.787 L 371.783,182.282 L 378.429,180.012 L 382.893,178.304 L 389.913,175.298 L 392.5,174.5" fill="none" stroke="rgb(152,223,138)" stroke-width="3"/>
	<path d="M 377.292,70.9483 L 374.944,65.8414 L 370.473,58.0044 L 369.052,55.8979 L 367.93,54.5816 L 364.883,51.5889 L 357.529,45.9671 L 352.104,42.5826 L 347.215,39.9823 L 343.934,38.4403 L 335.78,35.206 L 324.829,31.7326 L 315.88,29.4128 L 309.919,28.1142 L 298.624,26.289 L 284.757,24.6026 L 270.167,23.3874 L 258.958,22.9245 L 246.961,22.9212 L 235.024,23.2913 L 221.871,24.2015 L 210.02,25.4913 L 200.813,26.7944 L 191.145,28.5668 L 182.003,30.627 L 170.954,33.8731 L 163.121,36.6813 L 155.583,40.0227 L 148.317,43.98 L 143.755,46.9281 L 140.875,49.0924 L 137.928,51.5669 L 133.778,55.8264 L 131.592,58.8309 L 128.049,65.1336 L 125.307,71.0069" fill="none" stroke="rgb(214,39,40)" stroke-width="3"/>
	<path d="M 125.307,71.0069 L 127.139,73.2896 L 129.103,77.0271 L 130.949,80.0351 L 133.711,83.8098 L 136.19,86.6426 L 139.024,89.2209 L 143.085,92.5071 L 148.412,96.0612 L 151.605,97.9598 L 156.95,100.674 L 165.192,103.975 L 171.811,106.41 L 177.084,108.017 L 185.023,110.165 L 196.48,112.653 L 204.072,113.986 L 210.618,114.896 L 223.987,116.279 L 236.835,117.09 L 258.206,117.27 L 272.105,116.898 L 283.816,115.914 L 299.759,113.86 L 313.168,111.29 L 318.98,109.88 L 327.973,107.419 L 336.178,104.679 L 343.884,101.518 L 347.905,99.6638 L 355.076,95.7744 L 359.14,93.1079 L 362.995,90.0651 L 367.044,86.1246 L 369.833,82.7805 L 371.875,79.9522 L 377.292,70.9483" fill="none" stroke="rgb(255,152,150)" stroke-width="3"/>
	<path d="M 235.199,40.8417 L 230.938,41.4739 L 226.853,42.3404 L 220.79,43.8325 L 217.151,44.9486 L 214.177,46.0347 L 208.892,48.3142 L 205.567,50.1256 L 202.083,52.4724 L 199.443,54.9285 L 197.162,57.6907 L 195.997,59.8988 L 195.313,61.847 L 195.034,63.6101 L 195.36,65.2037 L 196.073,67.0761 L 197.674,69.7629 L 199.411,71.7545 L 200.912,73.0992 L 204.161,75.4282 L 207.97,77.6286 L 210.932,79.028 L 215.761,80.8991 L 220.224,82.233 L 223.562,83.0098 L 228.102,83.8562 L 233.849,84.6864 L 239.713,85.2534 L 245.078,85.5738 L 260.002,85.5694 L 267.909,84.9523" fill="none" stroke="rgb(148,103,189)" stroke-width="3"/>
	<path d="M 235.199,40.8417 L 244.106,40.0494 L 256.921,39.9424 L 264.895,40.3786 L 270.435,41.0954 L 275.998,42.0231 L 280.482,42.9984 L 284.825,44.2414 L 290.93,46.4168 L 294.571,48.0007 L 297.975,49.9491 L 300.777,51.9497 L 302.782,53.7886 L 305.247,56.5508 L 306.629,58.8936 L 307.735,62.1449 L 307.786,63.1726 L 307.459,64.6495 L 306.797,66.354 L 305.346,69.0247 L 302.35,72.3237 L 300.254,74.1216 L 297.419,75.9748 L 293.307,78.0909 L 289.88,79.5245 L 285.667,80.9955 L 281.906,82.0994 L 277.148,83.256 L 273.248,84.0932 L 267.909,84.9523" fill="none" stroke="rgb(197,176,213)" stroke-width="3"/>
	<path d="M 391.5,127.5 L 398.211,129.937 L 406.918,135.029 L 426.531,147.056 L 431.078,150.261 L 434.886,153.514 L 437.536,156.153 L 442.712,161.838 L 446.023,166.016 L 448.764,170.882 L 454.881,184.138" fill="none" stroke="rgb(140,86,75)" stroke-width="3"/>
	<path d="M 48.3034,182.388 L 54.614,170.064 L 57.1859,165.83 L 59.1483,163.237 L 65.6268,155.825 L 68.9268,152.612 L 71.1198,150.746 L 74.923,147.937 L 89.8288,138.661 L 101.901,130.928 L 108.915,127.01 L 110.5,126.5" fill="none" stroke="rgb(196,156,148)" stroke-width="3"/>
	<path d="M 471.387,222.586 L 471.907,223.871 L 472.224,226.357 L 472.53,232.102 L 472.309,237.171 L 472.712,257.524 L 472.775,277.229 L 472.677,295.304 L 472.4285056736599,299.2390608390289" fill="none" stroke="rgb(227,119,194)" stroke-width="3"/>
	<path d="M 30.5,299.5 L 30.2984,298.128 L 30.2607,284.835 L 29.9678,269.318 L 29.9502,260.873 L 30.1609,258.312 L 30.3041,237.245 L 30.5599,231.995 L 31.3263,224.308 L 31.6991,222.714" fill="none" stroke="rgb(247,182,210)" stroke-width="3"/>
	<path d="M 110.5,174.5 L 110.564,140.513 L 110.315,135.37 L 110.3,130.464 L 110.5,126.5" fill="none" stroke="rgb(127,127,127)" stroke-width="3"/>
	<path d="M 391.5,127.5 L 391.458,136.771 L 391.835,146.344 L 391.918,156.422 L 392.5,174.5" fill="none" stroke="rgb(199,199,199)" stroke-width="3"/>
	<path d="M 31.6991,222.714 L 30.5813,217.069 L 29.7235,211.076 L 29.5727,209.442 L 29.8506,208.175 L 32.6268,203.068 L 37.9242,194.508 L 46.1037,184.388 L 48.3034,182.388" fill="none" stroke="rgb(188,189,34)" stroke-width="3"/>
	<path d="M 471.387,222.586 L 473.021,211.758 L 473.214,208.729 L 472.998,208.038 L 466.553,197.085 L 465.002,194.811 L 461.837,190.886 L 458.312,186.963 L 457.139,185.825 L 454.881,184.138" fill="none" stroke="rgb(219,219,141)" stroke-width="3"/>
	<path d="M 390.5,88.5 L 391.191,91.6601 L 391.41,94.3364 L 391.5,127.5" fill="none" stroke="rgb(23,190,207)" stroke-width="3"/>
	<path d="M 110.5,126.5 L 111.054,122.355 L 112.25,108.16 L 111.5,89.5" fill="none" stroke="rgb(158,218,229)" stroke-width="3"/>
	<path d="M 454.394,312.773 L 458.979,309.63 L 464.95,305.14 L 471.31,299.718 L 472.335,299.247 L 472.4285056736599,299.2390608390289" fill="none" stroke="rgb(31,119,180)" stroke-width="3"/>
	<path d="M 30.5,299.5 L 33.9458,302.326 L 39.2535,306.361 L 49.4673,313.169" fill="none" stroke="rgb(174,199,232)" stroke-width="3"/>
	<path d="M 111.5,89.5 L 123.02,73.7884 L 125.307,71.0069" fill="none" stroke="rgb(255,127,14)" stroke-width="3"/>
	<path d="M 377.292,70.9483 L 386.563,83.0671 L 390.5,88.5" fill="none" stroke="rgb(255,187,120)" stroke-width="3"/>
</svg>
