<?xml version="1.0" standalone="no" ?>
<!DOCTYPE svg PUBLIC "-//W3C//DTD SVG 1.1//EN" "http://www.w3.org/Graphics/SVG/1.1/DTD/svg11.dtd">
<svg width="512px" height="512px" xmlns="http://www.w3.org/2000/svg" xmlns:xlink="http://www.w3.org/1999/xlink" version="1.1" >

<g>	<image style="overflow: visible; opacity: 0.4" width="512" height="512" xlink:href="bin115_512_erode.png" />

</g>
<g>	<polyline points="210.079,118.63 210.48,118.539 210.881,118.449 211.25,118.346 211.62,118.242 211.99,118.139 212.365,118.043 212.733,117.939 213.102,117.836 213.464,117.725 213.826,117.614 214.181,117.507 214.537,117.4 214.893,117.293 215.241,117.179 215.59,117.065 215.94,116.951 216.28,116.852 216.622,116.753 216.964,116.655 217.293,116.553 217.623,116.452 217.954,116.35 218.288,116.252 218.623,116.153 218.958,116.054 219.285,115.946 219.612,115.837 219.939,115.728 220.273,115.618 220.607,115.507 220.942,115.397 221.266,115.29 221.591,115.183 221.916,115.076 222.254,114.966 222.589,114.862 222.925,114.758 223.247,114.653 223.57,114.548 223.894,114.443 224.24,114.335 224.586,114.227 224.933,114.12 225.26,114.015 225.599,113.917 225.938,113.819 226.312,113.716 226.686,113.612 227.061,113.509 227.405,113.411 227.749,113.314 228.093,113.216 228.478,113.113 228.862,113.009 229.199,112.902 229.536,112.794 229.873,112.687 230.24,112.575 230.607,112.462 230.975,112.35 231.314,112.245 231.654,112.14 231.993,112.035 232.372,111.93 232.751,111.825 233.13,111.72 233.469,111.623 233.807,111.526 234.146,111.43 234.514,111.328 234.882,111.226 235.221,111.128 235.56,111.031 235.897,110.932 236.256,110.832 236.616,110.733 236.975,110.634 237.313,110.531 237.652,110.429 237.99,110.327 238.334,110.22 238.678,110.114 239.022,110.007 239.356,109.888 239.689,109.769 240.021,109.65 240.376,109.528 240.73,109.405 241.085,109.283 241.412,109.161 241.739,109.039 242.07,108.919 242.416,108.805 242.762,108.69 243.109,108.576 243.445,108.458 243.781,108.341 244.117,108.224 244.489,108.106 244.861,107.99 245.184,107.878 245.507,107.767 245.829,107.658 246.15,107.549 246.481,107.442 246.811,107.337 247.141,107.233 247.466,107.139 247.791,107.046 248.117,106.955 248.444,106.867 248.77,106.779 249.096,106.693 249.412,106.61 249.729,106.529 250.045,106.448 250.359,106.363 250.674,106.279 250.987,106.196 251.293,106.119 251.598,106.043 251.903,105.968 252.205,105.888 252.506,105.81 252.806,105.734 253.106,105.659 253.407,105.583 253.707,105.509 254.005,105.436 254.298,105.369 254.59,105.304 254.881,105.24 255.173,105.172 255.464,105.105 255.753,105.039 256.042,104.975 256.33,104.922 256.616,104.87 256.902,104.819 257.188,104.771 257.473,104.723 257.757,104.677 258.039,104.632 258.322,104.589 258.61,104.559 258.914,104.555 259.227,104.569 259.545,104.59 259.861,104.613 260.184,104.639 260.509,104.673 260.838,104.715 261.175,104.767 261.517,104.831 261.779,105.046 261.973,105.203 262.237,105.469 262.496,105.734 262.751,105.998 262.997,106.257 " fill="none" stroke-width="1" stroke="rgb(0,0,255)" />
	<polyline points="337.448,119.594 338.992,120.592 340.869,121.499 342.5,122.5 " fill="none" stroke-width="1" stroke="rgb(0,0,255)" />
	<polyline points="97.2131,462.096 96.6201,461.582 96.0072,461.04 95.3153,460.452 94.5589,459.748 93.8312,459.193 93.1375,458.694 92.3092,457.956 91.7244,457.56 91.1302,457.143 90.3836,456.48 89.6375,455.816 88.9354,455.204 88.2213,454.532 87.5001,453.858 86.8102,453.219 86.0934,452.545 85.3834,451.861 84.7377,451.235 84.0703,450.61 83.4289,449.976 82.7995,449.347 82.1104,448.703 81.4769,448.057 80.7536,447.389 80.0951,446.83 79.3816,446.139 78.6759,445.52 78.0015,444.951 77.2744,444.318 76.6382,443.837 75.9066,443.2 75.232,442.655 74.5377,442.083 73.84,441.489 73.0929,440.824 72.4513,440.3 71.8085,439.773 71.1566,439.244 70.4976,438.684 69.835,438.119 69.1941,437.59 68.4992,436.983 67.7336,436.267 67.1265,435.746 66.3415,435.005 65.6752,434.401 65.0331,433.829 64.3108,433.171 63.6722,432.6 63.0275,432.022 62.368,431.426 61.7026,430.823 61.0899,430.274 60.4788,429.709 59.7996,429.082 59.0871,428.423 58.442,427.835 57.7885,427.238 57.1504,426.66 56.5945,426.162 56.0268,425.649 55.4566,425.118 54.894,424.597 54.3534,424.088 53.8111,423.556 53.3,423.021 52.8261,422.511 52.3883,422.026 52.0015,421.558 51.6542,421.096 51.313,420.627 50.9843,420.163 50.7006,419.702 50.416,419.238 50.1711,418.748 49.936,418.245 49.7546,417.728 49.5789,417.202 49.4588,416.606 49.3403,415.981 49.2288,415.342 49.1407,414.64 49.0521,413.843 48.9428,413.101 48.8441,412.273 48.754,411.426 48.6683,410.537 48.5841,409.636 48.5069,408.757 48.4371,407.84 48.3763,406.943 48.3272,406.001 48.2902,405.074 48.2601,404.124 48.2373,403.217 48.218,402.306 48.2053,401.444 48.1936,400.565 48.1878,399.628 48.177,398.732 48.161,397.79 48.1525,396.896 48.1448,395.949 48.1438,395.044 48.1395,394.082 48.1299,393.17 48.1206,392.176 48.1067,391.256 48.0903,390.258 48.0604,389.414 48.0208,388.475 47.9813,387.532 47.9428,386.686 47.9024,385.744 47.8662,384.898 47.8313,383.957 47.8043,383.092 47.7874,382.104 47.7816,381.171 47.7835,380.181 47.7846,379.277 47.7853,378.308 47.7768,377.404 47.7582,376.474 47.7398,375.545 47.7193,374.667 47.6993,373.767 47.6853,372.878 47.6772,371.972 47.6725,371.06 47.6707,370.103 47.6737,369.145 47.6798,368.198 47.6888,367.247 47.7046,366.312 47.7257,365.358 47.7597,364.46 47.7965,363.548 47.8426,362.626 47.8982,361.778 47.9649,360.88 48.0329,360.056 48.1016,359.106 48.1579,358.192 48.1998,357.222 48.2338,356.281 48.2536,355.317 48.2665,354.38 48.2758,353.457 48.2864,352.536 48.2967,351.611 48.3038,350.677 48.3162,349.729 48.3213,348.777 48.3164,347.814 48.2963,346.884 48.2629,345.966 48.2286,345.068 48.188,344.16 48.1497,343.25 48.1129,342.29 48.0729,341.357 48.0273,340.417 47.9769,339.502 47.9209,338.645 47.8678,337.756 47.8252,336.833 47.7927,335.88 47.7717,334.931 47.7569,333.973 47.7423,333.052 47.7252,332.109 47.7061,331.193 47.6799,330.277 47.6479,329.431 47.6154,328.573 47.5804,327.673 47.5462,326.817 47.5066,325.923 47.4658,325.076 47.4196,324.156 47.3795,323.266 47.3366,322.296 47.2956,321.397 47.2459,320.463 47.1975,319.545 47.1564,318.664 47.121,317.678 47.0894,316.783 47.0658,315.796 47.0408,314.913 47.0195,313.949 46.9932,313.054 46.9684,312.111 46.9471,311.222 46.9287,310.274 46.925,309.362 46.9304,308.386 46.9398,307.464 46.949,306.546 46.967,305.597 46.9828,304.694 46.9916,303.747 46.9957,302.838 46.9937,301.89 46.992,300.975 46.991,300.015 47.0015,299.092 47.0258,298.175 47.0517,297.271 47.0748,296.344 47.0835,295.426 47.0808,294.489 47.0777,293.561 47.0647,292.654 47.0464,291.705 47.0211,290.766 46.9785,289.843 46.9316,288.977 46.8809,288.059 46.8376,287.153 46.8036,286.191 46.7873,285.253 46.7823,284.288 46.7894,283.36 46.8045,282.445 46.8115,281.533 46.8191,280.612 46.8313,279.682 46.8431,278.752 46.862,277.814 46.8916,276.884 46.9268,275.947 46.9676,275.026 47.0139,274.127 47.0617,273.196 47.1132,272.3 47.1615,271.38 47.2064,270.438 47.2509,269.51 47.2942,268.608 47.3337,267.695 47.3721,266.801 47.4045,265.872 47.4319,264.95 47.4491,263.981 47.4716,263.038 47.4836,262.036 47.5111,261.106 47.5385,260.135 47.5868,259.272 47.6345,258.352 47.6863,257.511 47.7393,256.648 47.793,255.745 47.8437,254.884 47.884,253.945 47.9176,253.04 47.9379,252.082 47.9493,251.158 47.9502,250.196 47.9514,249.263 47.9647,248.329 47.9867,247.459 48.0066,246.649 48.0347,245.77 48.062,244.871 48.071,243.915 48.0761,242.98 48.0848,242.054 48.094,241.091 48.1163,240.17 48.1507,239.261 48.1872,238.379 48.2286,237.485 48.2683,236.613 48.3046,235.794 48.3338,234.906 48.3475,233.995 48.3486,233.041 48.3347,232.088 48.3013,231.162 48.2592,230.223 48.2122,229.334 48.1611,228.396 48.114,227.541 48.0678,226.693 48.0219,225.8 47.9825,224.866 47.9693,223.887 47.9578,222.935 47.9425,222.004 47.9249,221.072 47.9066,220.158 47.8851,219.229 47.8653,218.33 47.8446,217.382 47.8407,216.468 47.8372,215.552 47.8401,214.578 47.8402,213.676 47.8398,212.719 47.8381,211.806 47.8385,210.847 47.8403,209.912 47.8443,208.94 47.8508,207.971 47.8688,206.995 47.8983,206.06 47.9387,205.162 47.9857,204.308 48.0308,203.455 48.0763,202.597 48.1203,201.734 48.1586,200.836 48.1924,199.908 48.224,198.976 48.2561,198.061 48.2893,197.176 48.3217,196.29 48.3553,195.401 48.39,194.508 48.4241,193.631 48.455,192.721 48.4865,191.812 48.5207,190.9 48.5513,189.975 48.5771,189.025 48.5956,188.042 48.6086,187.036 48.6117,185.992 48.6106,184.925 48.5998,183.837 48.5976,182.732 48.5977,181.629 48.6168,180.539 48.6431,179.525 48.6831,178.539 48.7087,177.637 48.7421,176.73 48.7579,175.885 48.7895,175.042 48.8143,174.224 48.8553,173.414 48.8974,172.585 48.9445,171.792 49.0145,171.027 49.1236,170.391 49.2351,169.747 49.3686,169.118 49.5,168.5 " fill="none" stroke-width="1" stroke="rgb(0,0,255)" />
	<polyline points="49.5,168.5 49.6479,168.22 49.7957,167.939 49.951,167.661 50.0992,167.381 50.2471,167.103 50.3841,166.831 50.5213,166.559 50.6586,166.288 50.7962,166.016 50.9414,165.748 51.0953,165.482 51.2496,165.216 51.4041,164.949 51.5489,164.683 51.6939,164.418 51.8393,164.152 51.9849,163.886 52.1257,163.627 52.267,163.368 52.4088,163.109 52.5531,162.849 52.698,162.588 52.8436,162.327 52.99,162.065 53.1425,161.808 53.2957,161.552 53.4495,161.295 53.6038,161.038 53.7603,160.774 53.9174,160.51 54.0751,160.245 54.2301,159.979 54.3886,159.704 54.548,159.427 54.7084,159.149 54.8699,158.87 55.0369,158.595 55.2078,158.32 55.3782,158.046 55.544,157.783 55.7089,157.522 55.8728,157.263 56.0359,157.008 56.2087,156.744 56.3811,156.483 56.5529,156.223 56.7243,155.965 56.9072,155.695 57.0906,155.426 57.2646,155.169 57.4395,154.912 57.6314,154.645 57.8245,154.377 58.0188,154.109 58.2179,153.841 58.4168,153.575 58.6155,153.31 58.8141,153.046 59.0073,152.787 59.2096,152.512 59.4127,152.237 59.6166,151.962 59.8175,151.69 60.0186,151.418 60.2344,151.16 60.4508,150.902 60.675,150.627 60.8993,150.353 61.1201,150.078 61.3326,149.816 61.5448,149.555 61.7568,149.295 61.9685,149.036 62.1858,148.785 62.4048,148.534 62.6255,148.281 62.8481,148.027 63.0435,147.788 63.2461,147.543 63.4492,147.299 63.6528,147.055 63.8559,146.809 64.06,146.562 64.265,146.319 64.4714,146.075 64.6615,145.839 64.8526,145.603 65.0446,145.366 65.2424,145.126 65.4412,144.886 65.6396,144.642 65.8391,144.398 66.0397,144.153 66.2416,143.909 66.4361,143.669 66.6317,143.428 66.8284,143.186 67.0262,142.945 67.2337,142.697 67.4425,142.448 67.6525,142.199 67.8636,141.95 68.067,141.706 68.2723,141.461 68.4785,141.217 68.6855,140.973 68.9003,140.726 69.1219,140.478 69.3448,140.229 69.5689,139.981 69.786,139.737 70.0038,139.492 70.2215,139.248 70.4396,139.004 70.6634,138.762 70.8875,138.521 71.1212,138.278 71.3562,138.036 71.5891,137.794 71.8231,137.552 72.0579,137.312 72.2918,137.07 72.5273,136.836 72.7628,136.604 72.9982,136.374 73.2531,136.136 73.5086,135.9 73.7614,135.663 74.0148,135.427 74.2669,135.194 74.5191,134.963 74.7656,134.747 75.0123,134.532 75.2803,134.316 75.548,134.102 75.8187,133.886 76.09,133.671 76.3536,133.464 76.6182,133.256 76.884,133.049 77.1446,132.857 77.4065,132.666 77.6697,132.475 77.9342,132.284 78.1963,132.093 78.4688,131.9 78.7422,131.708 79.0163,131.516 79.3016,131.33 79.5877,131.145 79.8748,130.959 80.1403,130.771 80.4064,130.584 80.673,130.397 80.9401,130.21 81.2052,130.025 81.4834,129.842 81.7625,129.66 82.0423,129.478 82.3239,129.29 82.6064,129.103 82.8896,128.916 83.1538,128.734 83.4189,128.553 83.6847,128.373 83.9514,128.193 84.2199,128.017 84.5051,127.839 84.7911,127.661 85.0779,127.485 85.3539,127.318 85.6308,127.151 85.9085,126.985 86.179,126.82 86.4504,126.656 86.7227,126.493 86.9958,126.331 87.2704,126.166 87.5456,126.002 87.8245,125.847 88.1043,125.692 88.3957,125.54 88.6879,125.387 88.9808,125.236 89.2615,125.082 89.5429,124.929 89.8279,124.773 90.1133,124.617 90.3959,124.466 90.6792,124.315 90.963,124.165 91.2507,124.015 91.5341,123.866 91.818,123.717 92.1025,123.568 92.3975,123.425 92.6929,123.283 92.9887,123.14 93.2745,122.992 93.5634,122.855 93.8527,122.718 94.1528,122.572 94.4537,122.425 94.7554,122.278 95.058,122.132 95.3501,121.998 95.6455,121.851 95.9418,121.705 96.24,121.567 96.539,121.43 96.8389,121.293 97.1395,121.156 97.4371,121.013 97.7419,120.884 98.0471,120.755 98.377,120.617 98.7077,120.478 99.0393,120.34 99.3423,120.209 99.6459,120.078 99.9501,119.947 100.254,119.814 100.559,119.681 100.864,119.549 101.162,119.415 101.461,119.281 101.76,119.148 102.059,119.015 102.38,118.882 102.702,118.75 103.023,118.618 103.32,118.49 103.617,118.363 103.914,118.236 104.233,118.105 104.553,117.975 104.849,117.847 105.145,117.719 105.447,117.582 105.748,117.444 106.048,117.308 106.341,117.18 106.635,117.053 106.954,116.918 107.249,116.792 107.543,116.665 107.838,116.54 108.132,116.415 108.446,116.285 108.761,116.156 109.075,116.027 109.372,115.897 109.668,115.768 109.965,115.638 110.265,115.509 110.565,115.381 110.865,115.252 111.162,115.127 111.458,115.002 111.757,114.887 112.055,114.773 112.356,114.656 112.656,114.54 112.956,114.425 113.258,114.312 113.559,114.199 113.861,114.086 114.155,113.978 114.456,113.863 114.756,113.748 115.056,113.634 115.359,113.518 115.661,113.403 115.962,113.289 116.262,113.183 116.562,113.078 116.861,112.974 117.172,112.86 117.483,112.747 117.794,112.634 118.106,112.523 118.406,112.417 118.707,112.312 119.009,112.208 119.325,112.09 119.641,111.973 119.94,111.872 120.242,111.778 120.543,111.685 120.845,111.591 121.147,111.498 121.448,111.396 121.75,111.294 122.052,111.191 122.353,111.104 122.655,111.017 122.96,110.926 123.285,110.824 123.609,110.722 123.934,110.619 124.237,110.531 124.54,110.443 124.843,110.355 125.146,110.266 125.469,110.184 125.792,110.101 126.115,110.018 126.416,109.926 126.716,109.834 127.016,109.741 127.321,109.648 127.626,109.554 127.931,109.46 128.228,109.363 128.525,109.265 128.822,109.167 129.118,109.069 129.423,108.967 129.727,108.878 130.031,108.789 130.352,108.685 130.672,108.58 130.993,108.476 131.295,108.391 131.597,108.305 131.898,108.22 132.213,108.134 132.528,108.049 132.842,107.964 133.152,107.88 133.466,107.8 133.78,107.72 134.092,107.64 134.416,107.57 134.739,107.5 135.06,107.431 135.374,107.36 135.687,107.29 135.999,107.22 136.301,107.145 136.603,107.07 136.904,106.996 137.216,106.921 137.527,106.847 137.838,106.773 138.147,106.7 138.472,106.633 138.795,106.566 139.117,106.5 139.429,106.438 139.74,106.377 140.05,106.316 140.387,106.269 140.724,106.223 141.061,106.179 141.385,106.135 141.71,106.091 142.035,106.049 142.361,106.008 142.667,105.952 142.975,105.898 143.276,105.845 143.579,105.792 143.882,105.741 144.187,105.69 144.493,105.64 144.8,105.592 145.108,105.544 145.409,105.495 145.71,105.448 146.012,105.402 146.314,105.355 146.616,105.309 146.919,105.264 147.22,105.218 147.521,105.174 147.823,105.13 148.126,105.086 148.426,105.045 148.727,105.004 149.06,104.969 149.39,104.935 149.72,104.903 150.051,104.871 150.38,104.842 150.709,104.813 151.039,104.786 151.369,104.758 151.699,104.73 152.03,104.704 152.354,104.675 152.679,104.648 153.004,104.621 153.328,104.59 153.652,104.56 153.978,104.53 154.297,104.499 154.617,104.469 154.937,104.439 155.258,104.412 155.579,104.386 155.899,104.361 156.216,104.334 156.534,104.308 156.851,104.283 157.169,104.263 157.488,104.243 157.807,104.224 158.125,104.206 158.441,104.188 158.757,104.171 159.073,104.155 159.39,104.143 159.708,104.133 160.024,104.124 160.341,104.116 160.658,104.109 160.973,104.103 161.292,104.1 161.609,104.099 161.925,104.098 162.241,104.099 162.556,104.1 162.87,104.103 163.189,104.11 163.506,104.117 163.822,104.126 164.137,104.137 164.45,104.149 164.762,104.163 165.072,104.178 165.388,104.2 165.703,104.223 166.016,104.249 166.333,104.277 166.648,104.306 166.96,104.337 167.283,104.377 167.603,104.418 167.922,104.461 168.242,104.515 168.561,104.569 168.879,104.623 169.199,104.694 169.518,104.764 169.836,104.832 170.154,104.899 170.473,104.963 170.791,105.027 171.108,105.103 171.439,105.187 171.768,105.271 172.097,105.355 172.409,105.432 172.72,105.51 173.03,105.588 173.347,105.669 173.663,105.75 173.979,105.831 174.285,105.911 174.591,105.991 174.895,106.065 175.205,106.142 175.514,106.218 175.822,106.295 176.13,106.372 176.43,106.446 176.729,106.521 177.028,106.596 177.33,106.675 177.632,106.755 177.933,106.835 178.23,106.915 178.526,106.995 178.821,107.089 179.116,107.184 179.412,107.277 179.707,107.371 180.002,107.465 180.297,107.566 180.591,107.668 180.885,107.77 181.178,107.869 181.471,107.969 181.765,108.059 182.06,108.149 182.354,108.248 182.647,108.347 182.939,108.448 183.229,108.553 183.518,108.658 183.808,108.763 184.098,108.869 184.388,108.979 184.683,109.095 184.978,109.213 185.266,109.328 185.555,109.443 185.844,109.56 186.133,109.677 186.43,109.804 186.728,109.931 187.026,110.058 187.312,110.18 187.599,110.302 187.886,110.424 188.174,110.545 188.462,110.667 188.75,110.788 189.04,110.91 189.324,111.032 189.611,111.148 189.898,111.265 190.193,111.393 190.489,111.522 190.785,111.652 191.081,111.782 191.369,111.902 191.658,112.022 191.943,112.149 192.225,112.272 192.507,112.395 192.789,112.519 193.071,112.643 193.356,112.772 193.642,112.902 193.927,113.032 194.228,113.17 194.528,113.309 194.829,113.449 195.128,113.59 195.427,113.729 195.725,113.868 196.023,114.008 196.302,114.137 196.58,114.267 196.858,114.399 197.145,114.539 197.43,114.681 197.715,114.824 197.999,114.969 198.289,115.11 198.58,115.252 198.87,115.394 199.154,115.532 199.438,115.67 199.722,115.809 200.005,115.948 200.278,116.08 200.549,116.212 200.82,116.345 201.091,116.479 201.363,116.617 201.634,116.756 201.905,116.896 202.178,117.035 202.466,117.183 202.752,117.333 203.039,117.482 203.317,117.624 203.596,117.765 203.873,117.906 204.164,118.055 204.444,118.203 204.724,118.35 205.003,118.499 205.288,118.661 205.573,118.823 205.858,118.987 206.151,119.146 206.444,119.306 206.737,119.467 207.029,119.627 207.321,119.793 207.612,119.959 207.905,120.144 208.203,120.322 208.5,120.5 " fill="none" stroke-width="1" stroke="rgb(0,0,255)" />
	<polyline points="208.5,120.5 208.842,120 209.256,119.522 209.668,119.044 210.079,118.63 " fill="none" stroke-width="1" stroke="rgb(0,0,255)" />
	<polyline points="338.5,399.5 338.912,399.523 339.31,399.547 339.707,399.572 340.105,399.597 340.533,399.635 340.961,399.672 341.362,399.705 341.762,399.738 342.162,399.769 342.605,399.918 343.049,400.063 343.493,400.146 343.938,400.235 344.385,400.402 344.83,400.582 345.234,400.83 345.637,401.079 346.065,401.304 346.5,401.5 " fill="none" stroke-width="1" stroke="rgb(0,0,255)" />
	<polyline points="338.5,399.5 338.071,399.634 337.655,399.756 337.24,399.878 336.823,400.001 336.391,400.124 335.958,400.247 335.552,400.366 335.146,400.484 334.738,400.608 334.329,400.731 333.918,400.855 333.534,400.98 333.151,401.104 332.769,401.236 332.386,401.367 332.002,401.499 331.633,401.623 331.263,401.747 330.892,401.871 330.516,402.004 330.132,402.132 329.763,402.252 329.393,402.374 329.021,402.495 328.638,402.618 328.254,402.741 327.869,402.865 327.495,402.979 327.129,403.091 326.757,403.216 326.385,403.341 326.011,403.466 325.647,403.577 325.282,403.688 324.915,403.8 324.545,403.918 324.175,404.036 323.809,404.137 323.443,404.238 323.076,404.34 322.707,404.442 322.337,404.544 321.967,404.647 321.601,404.749 321.235,404.852 320.868,404.955 320.504,405.064 320.138,405.174 319.772,405.282 319.405,405.391 319.037,405.5 318.671,405.611 318.304,405.723 317.936,405.834 317.565,405.949 317.196,406.056 316.826,406.164 316.456,406.278 316.086,406.393 315.717,406.505 315.347,406.617 314.977,406.73 314.607,406.847 314.237,406.963 313.865,407.085 313.487,407.218 313.11,407.35 312.735,407.478 312.36,407.606 311.986,407.734 311.609,407.863 311.232,407.991 310.858,408.109 310.486,408.225 310.114,408.34 309.736,408.46 309.358,408.58 308.981,408.699 308.606,408.814 308.23,408.929 307.855,409.043 307.475,409.17 307.094,409.297 306.714,409.418 306.334,409.538 305.955,409.658 305.571,409.776 305.187,409.894 304.803,410.008 304.419,410.129 304.036,410.251 303.653,410.364 303.27,410.477 302.887,410.589 302.504,410.704 302.122,410.818 301.738,410.925 301.354,411.031 300.97,411.141 300.584,411.253 300.198,411.365 299.813,411.476 299.427,411.583 299.04,411.689 298.653,411.799 298.265,411.908 297.877,412.018 297.494,412.125 297.111,412.231 296.729,412.337 296.346,412.443 295.964,412.548 295.581,412.654 295.197,412.76 294.814,412.865 294.433,412.969 294.036,413.064 293.642,413.159 293.247,413.255 292.854,413.349 292.465,413.448 292.078,413.547 291.692,413.65 291.307,413.752 290.923,413.855 290.541,413.957 290.169,414.066 289.797,414.173 289.426,414.28 289.056,414.386 288.689,414.5 288.323,414.613 287.957,414.726 287.59,414.833 287.224,414.939 286.858,415.045 286.482,415.163 286.106,415.281 285.731,415.401 285.357,415.521 284.984,415.64 284.609,415.754 284.235,415.868 283.863,415.981 283.498,416.081 283.135,416.179 282.769,416.284 282.404,416.387 282.04,416.489 281.672,416.582 281.305,416.674 280.938,416.765 280.568,416.857 280.199,416.948 279.831,417.039 279.444,417.125 279.058,417.209 278.663,417.288 278.27,417.366 277.88,417.444 277.489,417.522 277.101,417.599 276.706,417.675 276.313,417.751 275.921,417.826 275.531,417.904 275.143,417.981 274.767,418.064 274.393,418.147 274.02,418.229 273.621,418.317 273.223,418.403 272.825,418.489 272.445,418.574 272.065,418.658 271.653,418.748 271.242,418.837 270.832,418.925 270.441,419.011 270.019,419.099 269.606,419.19 269.195,419.28 268.763,419.378 268.334,419.476 267.905,419.574 267.486,419.677 267.068,419.781 266.633,419.89 266.198,419.999 265.772,420.122 265.346,420.245 264.921,420.368 264.5,420.5 " fill="none" stroke-width="1" stroke="rgb(0,0,255)" />
	<polyline points="264.5,420.5 264.242,420.788 263.984,421.077 263.722,421.382 263.461,421.688 263.199,421.995 262.934,422.301 262.669,422.613 262.402,422.926 262.141,423.25 261.878,423.575 261.621,423.905 261.355,424.219 261.088,424.535 260.826,424.857 260.577,425.174 260.327,425.493 260.074,425.814 259.831,426.135 259.582,426.438 259.332,426.743 259.079,427.051 258.842,427.346 258.602,427.644 258.359,427.944 258.109,428.24 257.868,428.526 257.625,428.814 257.38,429.104 257.13,429.389 256.877,429.676 256.626,429.964 256.378,430.245 256.127,430.528 255.873,430.813 255.62,431.092 255.358,431.369 255.095,431.647 254.831,431.929 254.569,432.207 254.304,432.487 254.036,432.769 253.768,433.05 253.492,433.332 253.213,433.615 252.932,433.9 252.655,434.181 252.375,434.463 252.093,434.747 251.811,435.031 251.524,435.32 251.235,435.611 250.946,435.901 250.656,436.177 250.366,436.453 250.075,436.729 249.78,437.005 249.476,437.296 249.172,437.586 248.867,437.875 248.569,438.141 248.271,438.406 247.973,438.669 247.673,438.929 247.364,439.189 247.055,439.448 246.751,439.708 246.446,439.966 246.14,440.215 245.834,440.465 245.528,440.714 245.222,440.962 244.913,441.207 244.602,441.458 244.291,441.706 243.981,441.953 243.665,442.193 243.351,442.432 243.036,442.669 242.712,442.907 242.397,443.142 242.081,443.375 241.765,443.605 241.449,443.833 241.134,444.059 240.775,444.302 240.418,444.543 240.061,444.783 239.718,445.007 239.394,445.214 239.07,445.418 238.73,445.644 238.392,445.869 238.055,446.093 237.696,446.324 237.338,446.551 236.982,446.777 236.625,446.994 236.285,447.216 235.948,447.437 235.616,447.628 235.285,447.817 234.955,448.006 234.606,448.216 234.258,448.425 233.911,448.633 233.566,448.853 233.221,449.072 232.875,449.266 232.534,449.475 232.195,449.683 231.856,449.891 231.494,450.092 231.149,450.326 230.786,450.546 230.423,450.765 230.061,450.984 229.709,451.185 229.357,451.386 229.004,451.588 228.668,451.791 228.332,451.995 227.979,452.201 227.631,452.423 227.282,452.645 226.93,452.867 226.59,453.058 226.245,453.252 225.899,453.447 225.543,453.645 225.187,453.844 224.829,454.044 224.499,454.226 224.169,454.408 223.825,454.602 223.479,454.798 223.131,454.994 222.784,455.179 222.434,455.364 222.084,455.549 221.716,455.753 221.348,455.957 221.004,456.143 220.659,456.34 220.313,456.538 219.966,456.735 219.617,456.924 219.239,457.135 218.86,457.345 218.492,457.538 218.123,457.732 217.758,457.929 217.401,458.121 217.043,458.312 216.687,458.505 216.332,458.699 215.975,458.893 215.627,459.079 215.269,459.263 214.91,459.446 214.561,459.614 214.211,459.78 213.86,459.947 213.517,460.118 213.173,460.289 212.827,460.459 212.48,460.621 212.132,460.782 211.786,460.935 211.418,461.089 211.047,461.242 210.684,461.38 210.318,461.517 209.949,461.654 209.581,461.786 209.21,461.919 208.836,462.051 208.474,462.187 208.108,462.323 207.757,462.449 207.403,462.575 207.046,462.701 206.679,462.834 206.31,462.967 205.937,463.087 205.566,463.21 205.192,463.333 204.815,463.457 204.444,463.578 204.07,463.699 203.689,463.826 203.306,463.952 202.929,464.086 202.558,464.219 202.186,464.352 201.807,464.495 201.428,464.639 201.046,464.783 200.672,464.918 200.297,465.053 199.921,465.184 199.534,465.322 199.146,465.461 198.769,465.59 198.392,465.72 198.014,465.849 197.628,465.975 197.245,466.104 196.861,466.231 196.486,466.351 196.11,466.469 195.726,466.592 195.342,466.714 194.958,466.836 194.578,466.946 194.192,467.056 193.8,467.168 193.408,467.28 193.016,467.392 192.63,467.505 192.244,467.617 191.859,467.729 191.467,467.848 191.076,467.965 190.695,468.074 190.315,468.182 189.935,468.289 189.553,468.402 189.172,468.515 188.792,468.623 188.413,468.731 188.035,468.838 187.654,468.95 187.259,469.068 186.865,469.184 186.473,469.298 186.082,469.41 185.681,469.512 185.282,469.614 184.884,469.714 184.48,469.807 184.076,469.9 183.661,469.978 183.265,470.061 182.869,470.144 182.468,470.217 182.067,470.29 181.664,470.358 181.26,470.425 180.856,470.492 180.448,470.559 180.039,470.626 179.634,470.69 179.228,470.755 178.821,470.819 178.41,470.887 177.998,470.955 177.597,471.022 177.185,471.084 176.781,471.153 176.376,471.223 175.971,471.292 175.569,471.363 175.167,471.435 174.77,471.507 174.373,471.58 173.975,471.653 173.578,471.726 173.18,471.799 172.787,471.875 172.394,471.951 172.001,472.027 171.607,472.102 171.213,472.177 170.818,472.253 170.422,472.327 170.026,472.402 169.633,472.478 169.24,472.555 168.846,472.631 168.456,472.71 168.065,472.788 167.675,472.871 167.284,472.953 166.893,473.036 166.51,473.121 166.125,473.205 165.738,473.291 165.349,473.378 164.961,473.464 164.576,473.549 164.19,473.635 163.805,473.722 163.419,473.809 163.034,473.896 162.648,473.98 162.261,474.061 161.874,474.142 161.491,474.225 161.109,474.307 160.723,474.391 160.339,474.474 159.955,474.557 159.576,474.641 159.199,474.725 158.822,474.808 158.44,474.895 158.058,474.981 157.677,475.058 157.296,475.135 156.916,475.211 156.531,475.289 156.147,475.367 155.766,475.443 155.385,475.517 155.005,475.592 154.621,475.672 154.237,475.752 153.853,475.832 153.469,475.909 153.085,475.985 152.699,476.055 152.313,476.125 151.928,476.194 151.542,476.258 151.156,476.322 150.765,476.384 150.373,476.446 149.982,476.507 149.59,476.564 149.198,476.621 148.807,476.677 148.41,476.733 148.014,476.788 147.617,476.84 147.221,476.893 146.827,476.944 146.425,476.995 146.019,477.052 145.613,477.101 145.209,477.149 144.806,477.196 144.391,477.244 143.978,477.292 143.568,477.334 143.159,477.375 142.741,477.421 142.324,477.466 141.909,477.511 141.498,477.554 141.089,477.596 140.671,477.645 140.255,477.692 139.839,477.74 139.435,477.779 139.032,477.817 138.621,477.861 138.212,477.905 137.803,477.948 137.405,477.985 137.005,478.022 136.6,478.054 136.195,478.085 135.791,478.119 135.387,478.151 134.984,478.183 134.576,478.212 134.169,478.24 133.765,478.266 133.362,478.292 132.96,478.316 132.554,478.337 132.149,478.357 131.746,478.376 131.345,478.395 130.944,478.413 130.542,478.432 130.14,478.45 129.736,478.47 129.333,478.489 128.931,478.506 128.52,478.523 128.108,478.539 127.691,478.548 127.274,478.555 126.856,478.561 126.426,478.558 125.996,478.554 125.559,478.542 125.12,478.529 124.686,478.504 124.25,478.476 123.813,478.448 123.38,478.407 122.946,478.365 122.53,478.313 122.114,478.259 121.705,478.195 121.295,478.13 120.886,478.063 120.491,477.991 120.105,477.906 119.726,477.821 119.346,477.734 118.968,477.646 118.594,477.55 118.221,477.451 117.849,477.352 117.478,477.249 117.108,477.145 116.749,477.032 116.402,476.921 116.055,476.809 115.708,476.689 115.361,476.567 115.015,476.444 114.668,476.317 114.323,476.189 113.979,476.059 113.631,475.905 113.282,475.748 112.934,475.59 112.595,475.443 112.257,475.295 111.919,475.145 111.579,474.987 111.256,474.837 110.934,474.685 110.598,474.513 110.262,474.339 109.926,474.164 109.595,473.993 109.262,473.82 108.929,473.647 108.59,473.469 108.253,473.29 107.916,473.11 107.578,472.928 107.246,472.743 106.915,472.557 106.571,472.365 106.228,472.173 105.886,471.98 105.538,471.775 105.192,471.569 104.846,471.363 104.475,471.131 104.106,470.899 103.753,470.672 103.402,470.446 103.052,470.221 102.709,469.977 102.349,469.707 101.989,469.435 101.635,469.158 101.282,468.882 100.912,468.607 100.564,468.335 100.218,468.065 99.8577,467.784 99.5,467.5 " fill="none" stroke-width="1" stroke="rgb(0,0,255)" />
	<polyline points="99.5,467.5 99.3252,467.122 99.1558,466.725 98.9875,466.33 98.8143,465.958 98.6428,465.566 98.4733,465.177 98.3088,464.795 98.1463,464.416 97.9856,464.039 97.8261,463.653 97.6676,463.269 97.5101,462.887 97.3615,462.491 97.2131,462.096 " fill="none" stroke-width="1" stroke="rgb(0,0,255)" />
	<polyline points="337.448,119.594 337.126,120.434 336.756,121.226 336.992,122.075 336.437,123.081 336.417,124.248 " fill="none" stroke-width="1" stroke="rgb(0,0,255)" />
	<polyline points="336.417,124.248 337.763,125.378 339.329,126.019 340.465,126.855 " fill="none" stroke-width="1" stroke="rgb(0,0,255)" />
	<polyline points="340.465,126.855 340.538,127.716 340.609,128.548 340.675,129.38 340.723,130.269 340.764,131.135 340.789,132.057 340.805,132.954 340.809,133.907 340.801,134.826 340.792,135.803 340.767,136.74 340.748,137.737 340.714,138.676 340.691,139.675 340.658,140.609 340.642,141.598 340.622,142.534 340.62,143.515 340.618,144.476 340.616,145.417 340.622,146.394 340.619,147.369 340.622,148.357 340.614,149.353 340.613,150.339 340.599,151.342 340.592,152.321 340.57,153.317 340.552,154.286 340.518,155.263 340.474,156.219 340.437,157.187 340.408,158.178 340.393,159.17 340.388,160.168 340.393,161.152 340.4,162.137 340.405,163.115 340.405,164.102 340.4,165.08 340.387,166.059 340.37,167.027 340.353,167.99 340.335,168.959 340.319,169.914 340.302,170.894 340.282,171.842 340.251,172.794 340.224,173.728 340.197,174.701 340.174,175.662 340.147,176.639 340.12,177.61 340.085,178.572 340.048,179.528 340.008,180.477 339.985,181.453 339.956,182.409 339.947,183.392 339.921,184.363 339.915,185.332 339.874,186.279 339.866,187.242 339.828,188.192 339.811,189.171 339.774,190.122 339.748,191.101 339.726,192.076 339.71,193.064 339.698,194.049 339.686,195.035 339.676,196.019 339.668,197.003 339.665,197.987 339.665,198.968 339.667,199.951 339.664,200.93 339.666,201.916 339.664,202.895 339.673,203.879 339.675,204.859 339.69,205.843 339.693,206.83 339.715,207.815 339.737,208.777 339.767,209.738 339.796,210.683 339.829,211.629 339.86,212.568 339.879,213.533 339.899,214.49 339.919,215.453 339.93,216.433 339.94,217.419 339.943,218.407 339.948,219.407 339.957,220.393 339.969,221.4 339.988,222.379 340.036,223.344 340.071,224.311 340.125,225.258 340.162,226.201 340.199,227.156 340.222,228.105 340.25,229.05 340.267,230.019 340.288,230.984 340.299,231.979 340.297,232.959 340.279,233.923 340.259,234.849 340.242,235.773 340.232,236.69 340.236,237.63 340.242,238.593 340.257,239.572 340.276,240.56 340.305,241.531 340.341,242.487 340.378,243.45 340.424,244.367 340.472,245.283 340.526,246.184 340.576,247.105 340.62,248.053 340.656,249.002 340.683,249.97 340.695,250.964 340.697,251.968 340.69,252.961 340.683,253.949 340.674,254.935 340.667,255.914 340.66,256.901 340.652,257.865 340.638,258.826 340.629,259.757 340.62,260.721 340.615,261.684 340.611,262.679 340.611,263.652 340.615,264.651 340.621,265.622 340.631,266.619 340.637,267.588 340.64,268.593 340.639,269.565 340.63,270.577 340.615,271.554 340.587,272.546 340.559,273.51 340.533,274.509 340.508,275.493 340.483,276.469 340.459,277.466 340.437,278.444 340.415,279.447 340.391,280.423 340.364,281.414 340.339,282.386 340.315,283.379 340.292,284.342 340.268,285.309 340.245,286.242 340.222,287.214 340.201,288.177 340.176,289.18 340.147,290.133 340.116,291.134 340.088,292.094 340.062,293.109 340.032,294.067 340.005,295.081 339.979,296.045 339.952,297.022 339.933,298.007 339.915,298.994 339.905,299.992 339.892,300.982 339.876,301.983 339.845,302.917 339.81,303.857 339.772,304.749 339.738,305.665 339.696,306.554 339.654,307.472 339.611,308.404 339.572,309.35 339.538,310.293 339.514,311.264 339.492,312.22 339.477,313.215 339.453,314.163 339.443,315.183 339.416,316.115 339.395,317.102 339.369,318.017 339.342,318.97 339.317,319.879 339.286,320.827 339.265,321.752 339.24,322.731 339.219,323.656 339.204,324.671 339.175,325.59 339.148,326.603 339.113,327.53 339.083,328.562 339.043,329.492 339.003,330.427 338.963,331.366 338.939,332.348 338.916,333.328 338.899,334.286 338.884,335.247 338.872,336.178 338.864,337.129 338.857,338.052 338.855,339.014 338.85,339.953 338.848,340.931 338.852,341.899 338.863,342.894 338.88,343.871 338.9,344.861 338.92,345.835 338.937,346.818 338.948,347.789 338.951,348.763 338.953,349.742 338.94,350.711 338.919,351.677 338.886,352.616 338.844,353.524 338.8,354.454 338.747,355.34 338.685,356.2 338.621,357.051 338.554,357.919 338.489,358.8 338.427,359.734 338.37,360.684 338.318,361.663 338.276,362.651 338.246,363.682 338.229,364.703 338.226,365.733 338.228,366.729 338.231,367.726 338.232,368.706 338.231,369.702 338.229,370.683 338.22,371.676 338.206,372.663 338.183,373.65 338.153,374.632 338.116,375.611 338.074,376.59 338.035,377.594 338.001,378.632 337.984,379.673 337.972,380.725 337.968,381.771 337.969,382.817 337.976,383.851 337.986,384.901 338.016,385.845 338.046,386.806 338.08,387.738 338.112,388.709 338.151,389.611 338.181,390.603 338.216,391.521 338.234,392.554 338.264,393.509 338.284,394.503 338.304,395.496 338.331,396.384 338.35,397.286 338.393,398.032 338.441,398.822 338.5,399.5 " fill="none" stroke-width="1" stroke="rgb(0,0,255)" />
	<polyline points="338.5,399.5 338.719,399.556 338.938,399.611 339.149,399.662 339.36,399.712 339.571,399.761 339.782,399.811 339.993,399.86 340.215,399.916 340.436,399.972 340.657,400.027 340.875,400.08 341.094,400.133 341.311,400.184 341.527,400.233 341.743,400.281 341.959,400.328 342.183,400.381 342.406,400.434 342.629,400.487 342.852,400.539 343.075,400.592 343.302,400.65 343.529,400.708 343.756,400.766 343.982,400.825 344.211,400.887 344.439,400.949 344.667,401.01 344.898,401.071 345.126,401.132 345.353,401.192 345.581,401.253 345.809,401.312 346.036,401.372 346.268,401.436 346.5,401.5 " fill="none" stroke-width="1" stroke="rgb(0,0,255)" />
	<polyline points="208.5,120.5 210.079,118.63 " fill="none" stroke-width="1" stroke="rgb(0,0,255)" />
	<polyline points="106.5,133.5 106.806,133.389 107.111,133.278 107.411,133.165 107.711,133.052 108.003,132.942 108.306,132.829 108.609,132.716 108.913,132.603 109.208,132.492 109.503,132.381 109.798,132.271 110.093,132.161 110.389,132.053 110.68,131.946 110.973,131.84 111.265,131.734 111.559,131.628 111.854,131.522 112.147,131.419 112.439,131.317 112.731,131.216 113.024,131.115 113.311,131.016 113.612,130.922 113.913,130.83 114.231,130.734 114.551,130.639 114.871,130.545 115.182,130.456 115.493,130.367 115.806,130.28 116.119,130.193 116.456,130.089 116.794,129.985 117.087,129.893 117.387,129.799 117.688,129.706 117.99,129.613 118.286,129.527 118.584,129.441 118.882,129.356 119.191,129.268 119.501,129.181 119.812,129.094 120.125,129.007 120.431,128.932 120.738,128.857 121.047,128.783 121.357,128.713 121.668,128.644 121.981,128.576 122.287,128.507 122.594,128.44 122.902,128.372 123.21,128.305 123.519,128.239 123.829,128.174 124.14,128.109 124.45,128.044 124.762,127.98 125.069,127.92 125.383,127.862 125.698,127.806 126.014,127.75 126.328,127.699 126.642,127.648 126.957,127.597 127.277,127.551 127.597,127.505 127.918,127.459 128.242,127.418 128.567,127.378 128.892,127.338 129.217,127.299 129.542,127.261 129.867,127.224 130.199,127.187 130.531,127.15 130.863,127.114 131.191,127.076 131.517,127.038 131.843,127 132.184,126.95 132.524,126.901 132.865,126.853 133.189,126.804 133.513,126.756 133.836,126.708 134.171,126.665 134.505,126.622 134.838,126.579 135.162,126.539 135.485,126.498 135.807,126.458 136.127,126.417 136.456,126.38 136.782,126.343 137.107,126.305 137.427,126.269 137.746,126.232 138.062,126.196 138.384,126.16 138.704,126.125 139.021,126.089 139.338,126.056 139.652,126.022 139.964,125.988 140.291,125.95 140.616,125.912 140.939,125.874 141.266,125.829 141.591,125.784 141.915,125.739 142.242,125.7 142.568,125.661 142.892,125.622 143.208,125.576 143.524,125.53 143.84,125.485 144.16,125.439 144.486,125.396 144.81,125.353 145.133,125.31 145.446,125.264 145.76,125.218 146.073,125.173 146.395,125.126 146.718,125.08 147.041,125.034 147.356,124.992 147.654,124.954 147.951,124.917 148.274,124.879 148.597,124.841 148.92,124.803 149.22,124.768 149.52,124.733 149.82,124.698 150.121,124.665 150.457,124.633 150.794,124.603 151.131,124.573 151.435,124.541 151.74,124.508 152.045,124.476 152.392,124.447 152.741,124.419 153.091,124.392 153.405,124.363 153.72,124.334 154.036,124.307 154.378,124.28 154.721,124.254 155.065,124.228 155.394,124.204 155.724,124.18 156.056,124.157 156.398,124.133 156.741,124.11 157.085,124.087 157.426,124.07 157.768,124.054 158.11,124.038 158.455,124.021 158.799,124.004 159.143,123.989 159.493,123.982 159.843,123.976 160.187,123.964 160.53,123.953 160.874,123.942 161.219,123.934 161.564,123.926 161.909,123.918 162.25,123.915 162.592,123.912 162.932,123.909 163.275,123.901 163.617,123.892 163.958,123.884 164.298,123.877 164.638,123.87 164.977,123.865 165.319,123.861 165.661,123.859 166.003,123.857 166.339,123.858 166.676,123.858 167.012,123.86 167.353,123.868 167.693,123.877 168.034,123.887 168.372,123.896 168.71,123.906 169.048,123.916 169.39,123.938 169.732,123.962 170.074,123.987 170.413,124.003 170.763,124.031 171.113,124.06 171.452,124.086 171.792,124.113 172.131,124.141 172.477,124.17 172.824,124.2 173.17,124.23 173.502,124.258 173.835,124.287 174.18,124.317 174.525,124.348 174.87,124.38 175.198,124.409 175.526,124.438 175.854,124.468 176.201,124.501 176.549,124.534 176.897,124.567 177.22,124.598 177.544,124.628 177.868,124.659 178.22,124.698 178.572,124.737 178.924,124.777 179.241,124.811 179.558,124.845 179.875,124.88 180.214,124.92 180.552,124.96 180.89,125.001 181.218,125.033 181.545,125.064 181.872,125.096 182.209,125.134 182.545,125.172 182.88,125.21 183.198,125.248 183.515,125.287 183.832,125.327 184.148,125.367 184.474,125.416 184.798,125.465 185.122,125.516 185.431,125.566 185.739,125.616 186.047,125.667 186.366,125.725 186.685,125.785 187.004,125.845 187.31,125.9 187.615,125.955 187.922,126.011 188.243,126.061 188.565,126.111 188.887,126.162 189.198,126.214 189.508,126.266 189.819,126.318 190.129,126.372 190.454,126.434 190.778,126.497 191.099,126.56 191.409,126.626 191.716,126.692 192.02,126.759 192.338,126.84 192.653,126.922 192.963,127.005 193.261,127.092 193.555,127.181 193.85,127.273 194.145,127.366 194.457,127.473 194.762,127.579 195.063,127.683 195.347,127.778 195.63,127.873 195.911,127.969 196.21,128.076 196.51,128.182 196.809,128.289 197.11,128.395 197.405,128.492 197.702,128.587 198.001,128.681 198.302,128.779 198.605,128.875 198.912,128.971 199.216,129.063 199.523,129.155 199.834,129.247 200.147,129.338 200.457,129.427 200.769,129.517 201.083,129.606 201.402,129.699 201.723,129.793 202.045,129.887 202.353,129.981 202.668,130.069 202.984,130.157 203.3,130.253 203.616,130.35 203.933,130.448 204.236,130.551 204.539,130.654 204.843,130.759 205.147,130.865 205.453,130.981 205.764,131.103 206.075,131.226 206.366,131.338 206.657,131.451 206.948,131.566 207.254,131.688 207.56,131.812 207.865,131.936 208.151,132.053 208.436,132.179 208.72,132.305 209.003,132.432 209.296,132.57 209.589,132.709 209.881,132.849 210.161,132.981 210.45,133.112 210.737,133.244 211.024,133.378 211.33,133.518 211.634,133.66 211.937,133.802 212.228,133.946 212.506,134.09 212.783,134.235 213.059,134.38 213.344,134.535 213.628,134.689 213.911,134.843 214.183,134.994 214.478,135.163 214.773,135.333 215.066,135.505 215.385,135.69 215.703,135.878 216.02,136.066 216.288,136.236 216.555,136.407 216.822,136.579 217.089,136.753 217.366,136.933 217.667,137.125 217.968,137.318 218.24,137.491 218.512,137.664 218.784,137.838 219.057,138.012 219.33,138.202 219.603,138.394 219.877,138.587 220.138,138.772 220.399,138.958 220.671,139.14 220.943,139.323 221.227,139.515 221.511,139.707 221.795,139.9 222.079,140.094 222.337,140.286 222.595,140.48 222.852,140.673 223.109,140.867 223.385,141.081 223.68,141.293 223.975,141.504 224.257,141.709 224.537,141.915 224.793,142.109 225.047,142.302 225.322,142.52 225.595,142.738 225.867,142.956 226.15,143.159 226.433,143.362 226.715,143.565 226.996,143.767 227.281,143.977 227.541,144.182 227.801,144.386 228.06,144.591 228.319,144.792 228.577,144.993 228.853,145.206 229.127,145.419 229.405,145.632 229.681,145.844 229.955,146.057 230.208,146.267 230.459,146.477 230.708,146.688 230.955,146.899 231.218,147.119 231.48,147.341 231.741,147.563 232.001,147.787 232.249,148 232.486,148.22 232.72,148.442 232.951,148.663 233.181,148.886 233.426,149.12 233.672,149.356 233.917,149.595 234.147,149.832 234.375,150.069 234.59,150.301 234.801,150.533 235.009,150.767 235.222,151.019 235.445,151.28 235.663,151.542 235.875,151.803 236.083,152.065 236.27,152.313 236.454,152.561 236.635,152.81 236.812,153.059 236.979,153.312 237.152,153.583 237.318,153.854 237.478,154.125 237.622,154.383 237.76,154.64 237.891,154.897 238.016,155.162 238.133,155.42 238.243,155.677 238.346,155.934 238.439,156.19 238.526,156.446 238.606,156.702 238.678,156.957 238.744,157.219 238.802,157.481 238.852,157.743 238.894,158.004 238.927,158.266 238.954,158.528 238.972,158.79 238.984,159.053 238.985,159.321 238.979,159.588 238.966,159.855 238.946,160.121 238.915,160.382 238.877,160.641 238.831,160.901 238.777,161.156 238.716,161.412 238.648,161.666 238.572,161.921 238.49,162.167 238.401,162.414 238.306,162.66 238.205,162.907 238.099,163.155 237.988,163.404 237.872,163.653 237.749,163.902 237.621,164.149 237.487,164.397 237.348,164.645 237.205,164.894 237.055,165.145 236.901,165.39 236.744,165.636 236.582,165.881 236.419,166.118 236.252,166.352 236.083,166.585 235.904,166.83 235.72,167.077 235.527,167.327 235.33,167.579 235.129,167.83 234.924,168.082 234.724,168.32 234.522,168.559 234.318,168.798 234.113,169.036 233.896,169.283 233.66,169.529 233.421,169.775 233.181,170.02 232.931,170.269 232.695,170.511 232.458,170.753 232.218,170.994 231.964,171.236 231.711,171.453 231.455,171.668 231.197,171.882 230.936,172.095 230.664,172.318 230.39,172.541 230.114,172.764 229.842,172.952 229.58,173.142 229.317,173.331 229.052,173.519 228.788,173.703 228.522,173.887 228.255,174.071 227.971,174.264 227.691,174.457 227.409,174.648 227.126,174.839 226.849,175.018 226.586,175.183 226.323,175.347 226.058,175.511 225.792,175.677 225.524,175.844 225.256,176.011 224.973,176.201 224.697,176.367 224.42,176.532 224.141,176.697 223.862,176.86 223.585,177.028 223.32,177.18 223.054,177.332 222.788,177.483 222.521,177.635 222.254,177.786 221.986,177.937 221.711,178.09 221.436,178.242 221.16,178.393 220.884,178.544 220.605,178.691 220.325,178.837 220.044,178.982 219.771,179.124 219.497,179.265 219.223,179.406 218.949,179.547 218.658,179.701 218.367,179.854 218.075,180.006 217.796,180.135 217.516,180.264 217.236,180.392 216.956,180.52 216.668,180.649 216.381,180.777 216.093,180.906 215.809,181.034 215.518,181.17 215.227,181.306 214.936,181.443 214.621,181.585 214.306,181.728 213.991,181.87 213.687,182.004 213.39,182.13 213.093,182.256 212.797,182.378 212.5,182.5 " fill="none" stroke-width="1" stroke="rgb(0,0,255)" />
	<polyline points="212.5,182.5 212.569,182.868 212.638,183.288 212.707,183.708 212.777,184.128 212.844,184.501 212.911,184.874 212.962,185.312 213.013,185.75 213.067,186.179 213.097,186.654 213.127,187.129 213.156,187.597 213.185,188.064 213.214,188.538 " fill="none" stroke-width="1" stroke="rgb(0,0,255)" />
	<polyline points="270.936,161.598 270.548,161.921 270.165,162.244 269.774,162.568 269.383,162.891 268.981,163.202 268.591,163.532 268.2,163.863 267.809,164.196 267.411,164.523 267.011,164.852 266.625,165.176 266.236,165.502 265.844,165.83 265.454,166.153 265.068,166.466 264.704,166.757 264.338,167.052 263.967,167.352 263.6,167.643 263.231,167.938 262.867,168.228 262.51,168.507 262.149,168.789 261.785,169.079 261.393,169.396 260.997,169.717 260.611,170.039 260.228,170.34 259.841,170.644 259.474,170.916 259.048,171.252 258.606,171.618 258.158,171.991 257.792,172.265 257.423,172.543 257.05,172.827 256.662,173.131 256.205,173.499 255.788,173.821 255.376,174.138 254.989,174.442 254.596,174.746 254.196,175.057 253.79,175.366 253.384,175.674 252.976,175.982 252.566,176.292 252.15,176.607 251.734,176.917 251.31,177.228 250.881,177.543 250.467,177.829 250.049,178.117 249.639,178.384 249.225,178.654 248.808,178.926 248.409,179.169 248.008,179.412 247.593,179.659 247.175,179.908 246.778,180.125 246.378,180.344 245.975,180.562 245.585,180.763 245.191,180.964 244.776,181.177 244.36,181.39 243.942,181.602 243.495,181.845 243.046,182.088 242.633,182.297 242.218,182.507 241.801,182.718 241.396,182.917 240.954,183.15 240.527,183.366 240.098,183.581 239.669,183.795 239.239,184.008 238.815,184.22 238.387,184.436 237.96,184.65 237.526,184.871 237.093,185.09 236.669,185.3 236.246,185.508 235.823,185.714 235.408,185.907 234.973,186.127 234.547,186.317 234.123,186.504 233.705,186.697 233.29,186.886 232.877,187.073 232.45,187.265 232.025,187.455 231.622,187.621 231.221,187.784 230.823,187.943 230.403,188.087 229.986,188.228 229.59,188.362 229.197,188.493 228.77,188.603 228.346,188.709 227.925,188.812 227.521,188.912 227.119,189.009 226.705,189.135 226.293,189.257 225.884,189.376 225.492,189.502 225.102,189.624 224.688,189.755 224.275,189.881 223.863,190.001 223.431,190.078 223.002,190.153 222.556,190.216 222.114,190.276 221.656,190.348 221.2,190.417 220.785,190.478 220.372,190.537 219.961,190.595 219.532,190.687 219.1,190.771 218.691,190.831 218.27,190.876 217.943,190.64 217.502,190.635 217.058,190.62 216.753,190.398 216.453,190.177 216.157,189.958 215.922,189.771 215.696,189.58 215.475,189.384 215.259,189.185 215.05,188.98 214.55,188.92 214.06,188.85 213.566,188.781 213.214,188.538 " fill="none" stroke-width="1" stroke="rgb(0,0,255)" />
	<polyline points="213.214,188.538 212.906,188.703 212.603,188.861 212.3,189.018 211.983,189.199 211.67,189.373 " fill="none" stroke-width="1" stroke="rgb(0,0,255)" />
	<polyline points="342.5,122.5 340.465,126.855 " fill="none" stroke-width="1" stroke="rgb(0,0,255)" />
	<polyline points="329.728,133.811 330.019,133.471 330.292,133.14 330.593,132.813 330.889,132.487 331.213,132.121 331.518,131.769 331.826,131.417 332.136,131.065 332.467,130.714 332.803,130.362 333.144,130.008 333.482,129.63 333.818,129.253 334.151,128.876 334.5,128.5 " fill="none" stroke-width="1" stroke="rgb(0,0,255)" />
	<polyline points="271.5,158.5 271.788,158.297 272.077,158.095 272.368,157.896 272.659,157.698 272.95,157.5 273.246,157.304 273.542,157.109 273.839,156.914 274.131,156.715 274.412,156.517 274.695,156.318 274.978,156.118 275.271,155.924 275.562,155.741 275.853,155.557 276.146,155.374 276.438,155.197 276.733,155.019 277.029,154.833 277.328,154.655 277.63,154.477 277.934,154.298 278.234,154.124 278.537,153.949 278.84,153.788 279.145,153.628 279.44,153.472 279.737,153.316 280.037,153.16 280.339,153.008 280.644,152.849 280.952,152.69 281.249,152.538 281.548,152.387 281.849,152.236 282.152,152.082 282.459,151.928 282.76,151.788 283.063,151.648 283.36,151.511 283.66,151.374 283.961,151.237 284.26,151.103 284.561,150.969 284.872,150.822 285.175,150.683 285.479,150.545 285.786,150.406 286.094,150.268 286.404,150.129 286.716,149.99 287.021,149.862 287.325,149.736 287.63,149.611 287.936,149.486 288.241,149.36 288.547,149.234 288.854,149.109 289.161,148.985 289.472,148.859 289.785,148.733 290.098,148.607 290.409,148.48 290.72,148.352 291.032,148.225 291.348,148.098 291.665,147.972 291.978,147.847 292.295,147.715 292.613,147.584 292.93,147.453 293.247,147.325 293.563,147.199 293.879,147.072 294.202,146.939 294.519,146.812 294.836,146.686 295.168,146.56 295.5,146.434 295.832,146.309 296.163,146.184 296.485,146.055 296.813,145.929 297.141,145.802 297.475,145.679 297.808,145.556 298.14,145.434 298.474,145.31 298.807,145.187 299.139,145.064 299.474,144.942 299.813,144.814 300.151,144.686 300.484,144.559 300.815,144.432 301.145,144.306 301.486,144.181 301.825,144.057 302.155,143.942 302.477,143.83 302.797,143.717 303.116,143.605 303.451,143.495 303.784,143.384 304.117,143.274 304.44,143.166 304.761,143.057 305.084,142.94 305.411,142.819 305.736,142.697 306.06,142.576 306.388,142.461 306.714,142.346 307.04,142.231 307.369,142.107 307.698,141.984 308.021,141.862 308.347,141.747 308.673,141.632 308.998,141.517 309.327,141.389 309.655,141.261 309.983,141.134 310.308,141.016 310.656,140.908 311.004,140.799 311.346,140.672 311.689,140.545 312.033,140.418 312.367,140.299 312.701,140.179 313.036,140.06 313.371,139.929 313.707,139.799 314.043,139.668 314.364,139.533 314.685,139.397 315.007,139.262 315.34,139.131 315.672,139 316.021,138.873 316.344,138.758 316.667,138.643 316.99,138.529 317.332,138.409 317.674,138.29 318.017,138.171 318.342,138.061 318.668,137.952 318.974,137.831 319.294,137.711 319.614,137.591 319.935,137.471 320.238,137.354 320.542,137.236 320.846,137.118 321.15,137.001 321.472,136.885 321.795,136.77 322.118,136.654 322.427,136.543 322.737,136.433 323.047,136.322 323.367,136.204 323.687,136.085 324.008,135.966 324.309,135.853 324.61,135.74 324.912,135.627 325.239,135.503 325.567,135.379 325.896,135.255 326.199,135.142 326.503,135.029 326.81,134.911 327.118,134.793 327.448,134.669 327.777,134.546 328.107,134.422 328.422,134.301 328.736,134.18 329.05,134.059 329.389,133.935 329.728,133.811 " fill="none" stroke-width="1" stroke="rgb(0,0,255)" />
	<polyline points="93.5,205.5 93.8808,205.607 94.2611,205.713 94.6423,205.817 95.0247,205.922 95.4099,206.024 95.8082,206.119 96.2036,206.215 96.601,206.311 97.0006,206.408 97.4035,206.502 97.8092,206.596 98.2151,206.689 98.624,206.783 99.0362,206.878 99.4492,206.967 99.8603,207.044 100.273,207.113 100.689,207.183 101.109,207.254 101.523,207.313 101.941,207.372 102.367,207.429 102.799,207.486 103.215,207.54 103.635,207.594 104.056,207.648 104.485,207.706 104.918,207.765 105.333,207.817 105.753,207.87 106.176,207.924 106.61,207.981 107.053,208.034 107.481,208.078 107.913,208.123 108.358,208.162 108.808,208.2 109.239,208.236 109.674,208.273 110.113,208.309 110.557,208.345 111.004,208.382 111.436,208.419 111.872,208.457 112.318,208.493 112.767,208.529 113.22,208.565 113.662,208.601 114.108,208.638 114.562,208.671 115.018,208.705 115.466,208.737 115.915,208.77 116.381,208.802 116.848,208.835 117.306,208.86 117.765,208.885 118.225,208.909 118.712,208.933 119.199,208.956 119.665,208.972 120.13,208.988 120.631,208.997 121.114,209.004 121.576,209.004 122.036,209.003 122.515,209.001 123.006,208.994 123.461,208.985 123.915,208.975 124.418,208.968 124.916,208.96 125.368,208.956 125.816,208.952 126.334,208.957 126.847,208.962 127.3,208.967 127.749,208.971 128.28,208.991 128.785,209.008 129.235,209.014 129.686,209.021 130.135,209.027 130.648,209.043 131.156,209.06 131.612,209.067 132.065,209.074 132.59,209.087 133.111,209.102 133.566,209.093 134.019,209.084 134.521,209.058 135.024,209.031 135.472,208.999 135.909,208.977 136.403,208.941 136.899,208.905 137.335,208.874 137.773,208.843 138.212,208.811 138.699,208.778 139.188,208.744 139.637,208.717 140.089,208.689 140.59,208.664 141.092,208.638 141.556,208.612 142.022,208.586 142.523,208.558 143.025,208.529 143.495,208.496 143.967,208.464 144.457,208.427 144.95,208.39 145.405,208.345 145.863,208.299 146.331,208.246 146.802,208.191 147.242,208.135 147.685,208.077 148.131,208.019 148.561,207.961 148.992,207.902 149.423,207.836 149.854,207.77 150.281,207.71 150.708,207.649 151.137,207.588 151.582,207.531 152.028,207.474 152.469,207.418 152.91,207.361 153.351,207.301 153.793,207.24 154.24,207.182 154.688,207.125 155.136,207.067 155.573,207.005 156.035,206.952 156.526,206.905 157.018,206.857 157.472,206.795 157.927,206.733 158.376,206.664 158.825,206.596 159.248,206.513 159.671,206.43 160.096,206.346 160.516,206.259 160.937,206.172 161.355,206.082 161.775,205.993 162.181,205.91 162.604,205.835 163.028,205.759 163.453,205.688 163.881,205.617 164.329,205.551 164.78,205.485 165.23,205.422 165.682,205.359 166.137,205.296 166.623,205.237 167.113,205.178 167.591,205.12 168.071,205.062 168.595,205.003 169.063,204.933 169.521,204.866 169.982,204.798 170.452,204.725 170.924,204.652 171.366,204.577 171.81,204.501 172.267,204.417 172.727,204.332 173.19,204.248 173.624,204.164 174.059,204.08 174.511,203.988 174.997,203.884 175.419,203.793 175.844,203.702 176.299,203.604 176.755,203.505 177.213,203.406 177.635,203.312 178.058,203.217 178.503,203.116 178.949,203.015 179.371,202.915 179.795,202.815 180.24,202.713 180.686,202.609 181.132,202.506 181.558,202.405 181.985,202.303 182.429,202.2 182.874,202.097 183.299,201.992 183.719,201.885 184.138,201.777 184.574,201.667 185.01,201.558 185.431,201.45 185.852,201.342 186.288,201.238 186.724,201.133 187.16,201.027 187.601,200.925 188.042,200.823 188.49,200.728 188.938,200.633 189.397,200.54 189.854,200.447 190.311,200.357 190.768,200.267 191.234,200.175 191.699,200.084 192.163,199.992 192.606,199.894 193.049,199.795 193.499,199.687 193.948,199.579 194.388,199.474 194.828,199.369 195.282,199.25 195.734,199.131 196.186,199.011 196.605,198.896 197.024,198.78 197.443,198.657 197.861,198.534 198.274,198.412 198.686,198.29 199.097,198.169 199.512,198.047 199.955,197.92 200.389,197.799 200.822,197.678 201.265,197.565 201.708,197.451 202.149,197.337 202.59,197.23 203.029,197.124 203.477,197.023 203.91,196.918 204.339,196.812 204.767,196.706 205.193,196.599 205.626,196.495 206.057,196.391 206.479,196.284 206.899,196.176 207.326,196.068 207.752,195.96 208.207,195.868 208.645,195.768 209.082,195.669 209.525,195.56 209.966,195.451 210.405,195.337 210.844,195.224 211.283,195.1 211.721,194.977 212.151,194.861 212.6,194.743 213.049,194.625 213.5,194.5 " fill="none" stroke-width="1" stroke="rgb(0,0,255)" />
	<polyline points="270.936,161.598 270.973,161.392 271.01,161.186 271.049,160.977 271.086,160.771 271.124,160.564 271.162,160.358 271.199,160.151 271.237,159.945 271.275,159.738 271.313,159.531 271.351,159.323 271.389,159.116 271.426,158.909 271.463,158.705 271.5,158.5 " fill="none" stroke-width="1" stroke="rgb(0,0,255)" />
	<polyline points="49.5,168.5 49.8643,168.785 50.2254,169.054 50.5945,169.344 50.9636,169.634 51.3365,169.954 51.7056,170.254 52.0752,170.554 52.4477,170.854 52.8242,171.167 53.1955,171.489 53.5679,171.811 53.9415,172.134 54.319,172.455 54.6979,172.778 55.0784,173.101 55.4459,173.423 55.8152,173.746 56.1865,174.07 56.5583,174.398 56.9323,174.728 57.2843,175.026 57.641,175.345 58,175.665 58.3634,175.982 58.7199,176.292 59.0786,176.605 59.4212,176.892 59.7673,177.193 60.1157,177.497 60.4704,177.798 60.8273,178.102 61.1722,178.388 61.5093,178.662 61.8484,178.938 62.2011,179.232 62.5562,179.529 62.9137,179.827 63.2561,180.107 63.5943,180.373 63.9343,180.641 64.2768,180.918 64.6421,181.223 65.0093,181.53 65.3563,181.807 65.7044,182.086 66.0451,182.346 66.3904,182.622 66.7367,182.899 67.1086,183.21 67.4642,183.501 67.8208,183.792 68.2005,184.121 68.5464,184.393 68.8935,184.667 69.2434,184.942 69.6022,185.239 69.9629,185.537 70.3301,185.845 70.6993,186.154 71.0528,186.434 71.4129,186.727 71.7749,187.021 72.1379,187.323 72.5043,187.626 72.8725,187.93 73.2323,188.22 73.5935,188.512 73.9562,188.805 74.3258,189.112 74.6895,189.407 75.0542,189.703 75.4158,190.001 75.7695,190.277 76.1237,190.554 76.4799,190.837 76.8363,191.122 77.1866,191.398 77.5369,191.675 77.8869,191.952 78.2318,192.219 78.5763,192.485 78.9201,192.751 79.2516,192.995 79.5938,193.262 79.935,193.528 80.2764,193.796 80.6165,194.063 80.9542,194.326 81.284,194.577 81.6124,194.828 81.9393,195.079 82.2792,195.353 82.617,195.625 82.9526,195.897 83.2827,196.16 83.6106,196.422 83.9361,196.683 84.2778,196.964 84.6167,197.25 84.9523,197.534 85.2904,197.823 85.6249,198.11 85.9495,198.382 86.2952,198.685 86.6367,198.986 86.9707,199.283 87.3092,199.581 87.6436,199.877 87.9699,200.166 88.3136,200.486 88.6529,200.802 88.988,201.116 89.3343,201.434 89.6767,201.749 90.0154,202.062 90.361,202.398 90.7031,202.731 91.0421,203.062 91.398,203.407 91.7516,203.751 92.1032,204.093 92.453,204.447 92.8017,204.799 93.1498,205.151 93.5,205.5 " fill="none" stroke-width="1" stroke="rgb(0,0,255)" />
	<polyline points="334.5,128.5 336.417,124.248 " fill="none" stroke-width="1" stroke="rgb(0,0,255)" />
	<polyline points="264.5,420.5 264.694,419.744 264.875,418.965 265.013,418.225 265.106,417.509 265.198,416.798 265.32,416.035 265.396,415.29 265.491,414.492 265.584,413.659 265.65,412.789 265.723,411.877 265.785,410.949 265.852,410.007 265.907,409.067 265.959,408.128 266.004,407.224 266.04,406.296 266.082,405.364 266.131,404.389 266.174,403.446 266.212,402.473 266.247,401.507 266.279,400.542 266.302,399.569 266.32,398.606 266.324,397.666 266.323,396.726 266.313,395.823 266.304,394.886 266.302,393.959 266.31,392.985 266.326,392.034 266.353,391.062 266.382,390.111 266.415,389.148 266.445,388.195 266.472,387.228 266.49,386.264 266.502,385.288 266.51,384.316 266.52,383.339 266.536,382.374 266.556,381.416 266.582,380.46 266.618,379.513 266.654,378.551 266.696,377.6 266.744,376.679 266.789,375.735 266.831,374.78 266.868,373.804 266.903,372.83 266.935,371.847 266.966,370.846 266.998,369.823 267.045,368.877 267.094,367.926 267.149,366.962 267.207,366.024 267.271,365.088 267.334,364.149 267.404,363.212 267.475,362.315 267.556,361.448 267.638,360.58 267.712,359.699 267.792,358.822 267.864,357.914 267.934,356.986 267.994,356.052 268.039,355.051 268.072,354.063 268.09,353.058 268.097,352.065 268.088,351.077 268.072,350.096 268.056,349.135 268.043,348.163 268.03,347.198 268.02,346.227 268.013,345.257 268.008,344.288 268.009,343.316 268.013,342.35 268.025,341.378 268.037,340.416 268.058,339.458 268.075,338.519 268.092,337.599 268.117,336.685 268.133,335.767 268.158,334.816 268.168,333.866 268.179,332.865 268.191,331.907 268.21,330.913 268.233,329.952 268.265,328.97 268.298,328.026 268.327,327.062 268.353,326.085 268.379,325.118 268.404,324.14 268.432,323.17 268.464,322.199 268.499,321.24 268.537,320.276 268.574,319.299 268.615,318.317 268.659,317.354 268.708,316.408 268.757,315.46 268.813,314.53 268.869,313.594 268.933,312.661 269.006,311.653 269.094,310.736 269.191,309.848 269.296,308.953 269.407,308.107 269.52,307.253 269.634,306.414 269.749,305.531 269.862,304.66 269.968,303.758 270.072,302.812 270.165,301.86 270.246,300.884 270.314,299.909 270.374,298.957 270.425,298.009 270.474,297.02 270.525,296.053 270.58,295.107 270.639,294.196 270.698,293.269 270.76,292.309 270.829,291.386 270.901,290.45 270.973,289.52 271.046,288.638 271.118,287.762 271.188,286.899 271.251,285.964 271.31,285.05 271.363,284.1 271.404,283.124 271.437,282.121 271.464,281.149 271.488,280.157 271.509,279.186 271.528,278.166 271.554,277.184 271.591,276.198 271.639,275.28 271.692,274.336 271.754,273.492 271.818,272.63 271.878,271.631 271.948,270.75 272.019,269.734 272.11,268.839 272.199,267.947 272.275,267.013 272.351,266.136 272.409,265.233 272.455,264.268 272.483,263.304 272.508,262.326 272.531,261.372 272.56,260.399 272.59,259.445 272.624,258.461 272.659,257.509 272.696,256.548 272.739,255.597 272.781,254.688 272.826,253.771 272.866,252.876 272.916,251.96 272.963,251.02 273.015,250.07 273.066,249.165 273.117,248.175 273.175,247.28 273.239,246.323 273.304,245.411 273.369,244.439 273.434,243.499 273.497,242.56 273.562,241.617 273.624,240.724 273.686,239.822 273.738,238.875 273.783,237.88 273.823,236.888 273.861,235.888 273.902,234.925 273.947,233.983 273.989,233.036 274.035,232.11 274.072,231.142 274.104,230.175 274.129,229.191 274.139,228.198 274.137,227.193 274.126,226.208 274.104,225.235 274.076,224.284 274.052,223.306 274.023,222.341 273.996,221.33 273.954,220.385 273.914,219.443 273.877,218.493 273.838,217.513 273.813,216.54 273.79,215.581 273.766,214.652 273.732,213.732 273.69,212.799 273.645,211.846 273.597,210.888 273.544,209.953 273.492,209.005 273.434,208.109 273.378,207.209 273.322,206.318 273.272,205.412 273.223,204.477 273.173,203.55 273.131,202.618 273.089,201.598 273.051,200.615 273.01,199.515 272.963,198.57 272.904,197.603 272.848,196.72 272.789,195.744 272.731,194.879 272.662,193.925 272.6,193.077 272.533,192.104 272.471,191.264 272.4,190.283 272.338,189.461 272.279,188.48 272.221,187.527 272.175,186.678 272.128,185.661 272.084,184.753 272.038,183.726 271.997,182.781 271.955,181.705 271.902,180.778 271.852,179.749 271.802,178.76 271.745,177.731 271.685,176.74 271.616,175.721 271.55,174.671 271.479,173.557 271.418,172.412 271.368,171.246 271.328,170.081 271.297,168.993 271.266,167.958 271.237,167.019 271.196,166.148 271.17,165.305 271.124,164.527 271.077,163.757 271.058,162.986 271.014,162.272 270.936,161.598 " fill="none" stroke-width="1" stroke="rgb(0,0,255)" />
	<polyline points="329.728,133.811 330.18,135.507 331.5,141.5 " fill="none" stroke-width="1" stroke="rgb(0,0,255)" />
	<polyline points="93.5,205.5 93.5079,206.117 93.5727,206.765 93.6169,207.462 93.6612,208.159 93.7336,208.892 93.7705,209.658 93.836,210.463 93.9016,211.272 93.9145,212.118 93.9573,213.033 93.974,213.981 94.0104,214.974 94.0368,216.001 94.0652,217.043 94.09,218.095 94.1203,219.126 94.1486,220.165 94.1775,221.177 94.1987,222.22 94.2202,223.216 94.243,224.233 94.2604,225.208 94.2725,226.228 94.2819,227.209 94.2811,228.238 94.2665,229.232 94.2424,230.245 94.2078,231.213 94.1723,232.204 94.1335,233.193 94.1016,234.218 94.0869,235.28 94.0799,236.353 94.0866,237.403 94.1004,238.449 94.1155,239.476 94.1322,240.511 94.1412,241.56 94.1447,242.611 94.1453,243.669 94.1476,244.727 94.1519,245.791 94.1639,246.854 94.1872,247.885 94.2168,248.9 94.239,249.934 94.2594,250.969 94.2773,252.011 94.3002,253.018 94.3214,254.044 94.352,255.01 94.3763,256.057 94.3964,257.066 94.405,258.138 94.4101,259.179 94.4041,260.25 94.3917,261.278 94.3761,262.332 94.3583,263.351 94.3378,264.392 94.3184,265.406 94.3032,266.456 94.2923,267.487 94.2899,268.521 94.2891,269.552 94.2922,270.58 94.2952,271.635 94.2896,272.688 94.2787,273.776 94.2506,274.822 94.2053,275.832 94.1472,276.763 94.0808,277.677 94.0156,278.596 93.9673,279.66 93.9254,280.705 93.887,281.729 93.8576,282.754 93.8388,283.805 93.8274,284.855 93.8245,285.917 93.83,286.979 93.8348,288.043 93.8326,289.091 93.8224,290.15 93.8061,291.179 93.786,292.23 93.7723,293.26 93.7582,294.329 93.7552,295.356 93.7596,296.448 93.7587,297.483 93.7489,298.527 93.7297,299.586 93.712,300.611 93.6983,301.673 93.6882,302.712 93.6816,303.773 93.6805,304.819 93.6874,305.876 93.6976,306.926 93.7137,307.972 93.7319,309.015 93.7484,310.059 93.7601,311.112 93.7688,312.16 93.7776,313.215 93.7856,314.264 93.7975,315.325 93.8139,316.366 93.8325,317.407 93.8574,318.443 93.8865,319.477 93.9188,320.517 93.954,321.562 93.9924,322.596 94.0347,323.613 94.0652,324.658 94.0831,325.741 94.0796,326.835 94.0526,327.897 94.016,328.982 93.9615,329.964 93.9117,330.997 93.8675,332.013 93.8326,333.087 93.8076,334.134 93.7862,335.207 93.7687,336.245 93.7508,337.31 93.7334,338.342 93.7159,339.405 93.6961,340.429 93.6788,341.492 93.6577,342.558 93.628,343.563 93.5945,344.584 93.5736,345.612 93.5626,346.671 93.5576,347.723 93.5632,348.772 93.5661,349.835 93.574,350.884 93.5885,351.961 93.6094,352.989 93.6348,354.078 93.6659,355.094 93.7034,356.182 93.7438,357.206 93.7892,358.312 93.8433,359.3 93.8983,360.384 93.9569,361.39 94.0249,362.4 94.0985,363.28 94.1768,364.284 94.2565,365.211 94.3404,366.239 94.4206,367.286 94.5037,368.471 94.6007,369.622 94.7088,370.639 94.827,371.624 94.9515,372.499 95.0714,373.473 95.1973,374.397 95.3187,375.286 95.4405,376.259 95.5503,377.223 95.6535,378.362 95.7497,379.421 95.8467,380.487 95.9381,381.479 96.0284,382.52 96.1101,383.772 96.2021,384.782 96.3031,385.758 96.4035,386.659 96.5066,387.609 96.6058,388.557 96.707,389.533 96.8032,390.493 96.8965,391.426 96.9898,392.358 97.0764,393.339 97.1589,394.364 97.2251,395.449 97.2864,396.531 97.344,397.612 97.3993,398.595 97.4544,399.615 97.5011,400.591 97.5422,401.652 97.5746,402.652 97.6044,403.713 97.6206,404.73 97.6262,405.841 97.6302,406.864 97.6355,407.95 97.6414,408.966 97.6489,410.04 97.6535,411.07 97.6584,412.142 97.6656,413.195 97.675,414.264 97.6951,415.321 97.7229,416.336 97.762,417.34 97.8,418.307 97.8259,419.375 97.8446,420.41 97.8529,421.489 97.8441,422.565 97.8271,423.623 97.8038,424.664 97.7811,425.717 97.7682,426.755 97.7622,427.814 97.7633,428.843 97.7621,429.883 97.7616,430.897 97.7561,431.926 97.7438,432.937 97.7144,433.942 97.6838,434.94 97.6397,435.92 97.595,436.904 97.5468,437.9 97.5137,438.932 97.495,439.999 97.5043,441.061 97.5213,442.113 97.5628,443.124 97.5849,444.189 97.6205,445.259 97.6131,446.387 97.6103,447.532 97.5666,448.543 97.518,449.583 97.5018,450.627 97.487,451.657 97.499,452.649 97.501,453.602 97.5113,454.513 97.5211,455.426 97.5064,456.292 97.495,457.112 97.4569,457.877 97.4401,458.619 97.4231,459.361 97.3739,460.064 97.3499,460.763 97.2827,461.43 97.2131,462.096 " fill="none" stroke-width="1" stroke="rgb(0,0,255)" />
	<polyline points="211.67,189.373 211.189,189.333 210.783,189.306 210.562,189.117 210.336,188.944 210.134,188.784 209.932,188.63 209.718,188.479 209.504,188.341 209.29,188.216 209.077,188.103 208.817,187.978 208.537,187.847 208.253,187.721 207.964,187.599 207.656,187.521 207.345,187.45 207.03,187.388 206.704,187.342 206.376,187.301 206.046,187.266 205.708,187.232 205.369,187.203 205.028,187.177 204.683,187.155 204.335,187.136 203.986,187.122 203.645,187.115 203.302,187.112 202.957,187.113 202.61,187.118 202.261,187.127 201.91,187.139 201.556,187.156 201.201,187.177 200.843,187.201 200.483,187.225 200.12,187.252 199.745,187.283 199.366,187.315 198.984,187.349 198.602,187.38 198.217,187.411 197.829,187.444 197.425,187.475 197.02,187.509 196.612,187.535 196.202,187.563 195.789,187.592 195.375,187.623 194.958,187.656 194.55,187.678 194.141,187.701 193.716,187.722 193.289,187.744 192.862,187.767 192.449,187.785 192.035,187.803 191.602,187.819 191.168,187.837 190.751,187.854 190.333,187.872 189.914,187.891 189.476,187.913 189.037,187.937 188.623,187.969 188.21,188.001 187.803,188.04 187.378,188.085 186.954,188.132 186.552,188.179 186.15,188.228 185.733,188.289 185.316,188.35 184.898,188.41 184.499,188.47 184.1,188.53 183.691,188.605 183.282,188.682 182.874,188.761 182.478,188.84 182.082,188.92 181.678,189.008 181.261,189.075 180.842,189.141 180.447,189.199 180.051,189.258 179.641,189.32 179.229,189.383 178.815,189.447 178.42,189.504 178.022,189.562 177.607,189.625 177.191,189.689 176.789,189.747 176.386,189.806 175.982,189.865 175.563,189.926 175.144,189.988 174.729,190.046 174.314,190.103 173.898,190.161 173.476,190.22 173.054,190.279 172.639,190.338 172.223,190.397 171.808,190.455 171.395,190.514 170.982,190.573 170.564,190.637 170.147,190.701 169.74,190.763 169.334,190.826 168.929,190.888 168.495,190.962 168.093,191.04 167.686,191.124 167.279,191.206 166.873,191.289 166.463,191.365 166.055,191.443 165.629,191.516 165.204,191.588 164.777,191.651 164.351,191.713 163.926,191.775 163.478,191.841 163.029,191.907 162.6,191.96 162.17,192.013 161.741,192.068 161.313,192.122 160.887,192.174 160.448,192.233 160.01,192.29 159.582,192.348 159.155,192.406 158.727,192.46 158.299,192.512 157.871,192.562 157.437,192.605 157.004,192.649 156.571,192.68 156.138,192.711 155.706,192.734 155.274,192.756 154.841,192.776 154.405,192.786 153.969,192.796 153.54,192.805 153.112,192.813 152.673,192.818 152.234,192.823 151.795,192.827 151.369,192.837 150.943,192.846 150.503,192.856 150.063,192.865 149.639,192.862 149.215,192.859 148.779,192.854 148.341,192.849 147.9,192.844 147.47,192.831 147.037,192.818 146.603,192.805 146.166,192.79 145.734,192.776 145.299,192.761 144.861,192.747 144.42,192.729 143.976,192.712 143.534,192.7 143.089,192.689 142.637,192.677 142.181,192.666 141.75,192.653 141.316,192.64 140.878,192.626 140.434,192.61 139.986,192.592 139.56,192.576 139.13,192.559 138.689,192.545 138.244,192.532 137.797,192.518 137.365,192.502 136.932,192.486 136.492,192.47 136.05,192.453 135.626,192.432 135.202,192.412 134.769,192.392 134.336,192.372 133.905,192.352 133.488,192.33 133.072,192.308 132.647,192.286 132.223,192.263 131.801,192.241 131.388,192.215 130.976,192.19 130.543,192.162 130.109,192.134 129.685,192.102 129.259,192.068 128.83,192.034 128.388,191.992 127.941,191.948 127.518,191.898 127.092,191.846 126.668,191.784 126.243,191.721 125.815,191.657 125.4,191.594 124.984,191.53 124.566,191.463 124.149,191.395 123.741,191.327 123.334,191.258 122.928,191.189 122.523,191.115 122.119,191.041 121.724,190.963 121.318,190.892 120.912,190.82 120.493,190.746 120.074,190.672 119.671,190.592 119.267,190.511 118.862,190.428 118.445,190.342 118.027,190.254 117.617,190.164 117.205,190.074 116.786,189.972 116.384,189.863 115.98,189.751 115.59,189.63 115.199,189.506 114.807,189.381 114.41,189.248 114.012,189.113 113.626,188.977 113.239,188.845 112.852,188.712 112.455,188.567 112.057,188.42 111.674,188.281 111.291,188.142 110.907,188.001 110.525,187.848 110.143,187.694 109.766,187.541 109.39,187.387 109.015,187.233 108.643,187.075 108.265,186.907 107.889,186.739 107.504,186.566 107.12,186.392 106.743,186.204 106.367,186.016 106.003,185.842 105.64,185.661 105.279,185.481 104.92,185.3 104.565,185.116 104.213,184.932 103.845,184.732 103.493,184.535 103.142,184.337 102.773,184.142 102.406,183.947 102.062,183.764 101.702,183.566 101.344,183.367 100.989,183.168 100.649,182.98 100.278,182.768 99.9081,182.555 99.5699,182.344 99.2333,182.132 98.8982,181.919 98.5596,181.709 98.2222,181.498 97.886,181.286 97.5408,181.053 97.2002,180.807 96.8593,180.559 96.5066,180.316 96.154,180.071 95.8214,179.819 95.4892,179.566 95.1574,179.311 94.82,179.054 94.4773,178.79 94.1344,178.523 93.8027,178.247 93.4723,177.971 93.1513,177.708 92.8244,177.441 92.4972,177.171 92.1699,176.9 91.8434,176.616 91.5199,176.326 91.1987,176.036 90.882,175.752 90.5659,175.469 90.2516,175.186 89.9391,174.902 89.6232,174.6 89.3091,174.298 88.9969,173.996 88.6916,173.696 88.3882,173.395 88.0865,173.095 87.773,172.763 87.461,172.43 87.1494,172.096 86.8597,171.781 86.5683,171.462 86.2779,171.141 85.9952,170.819 85.7107,170.48 85.426,170.136 85.159,169.81 84.8925,169.482 84.6204,169.144 84.347,168.796 84.0776,168.448 83.815,168.102 83.5729,167.771 83.3333,167.44 83.0966,167.107 82.8606,166.75 82.6294,166.394 82.4032,166.039 82.189,165.692 81.98,165.345 81.7767,165.01 81.5716,164.657 81.3729,164.306 81.1807,163.957 81.006,163.62 80.8386,163.268 80.6779,162.917 80.5307,162.554 80.3902,162.193 80.2566,161.832 80.132,161.474 80.0144,161.117 79.9023,160.752 79.7976,160.387 79.7004,160.022 79.6108,159.661 79.5293,159.3 79.456,158.938 79.3956,158.553 79.3442,158.167 79.3063,157.78 79.2782,157.392 79.26,157.003 79.2675,156.593 79.2852,156.184 79.3205,155.783 79.3661,155.385 79.4221,154.989 79.4978,154.601 79.5819,154.218 79.6742,153.838 79.7802,153.467 79.895,153.099 80.0189,152.739 80.1485,152.387 80.2855,152.037 80.4448,151.687 80.6123,151.339 80.7878,150.993 80.9632,150.656 81.1558,150.319 81.3559,149.984 81.5812,149.655 81.8148,149.327 82.0565,149 82.307,148.672 82.564,148.345 82.8273,148.021 83.0871,147.714 83.3582,147.416 83.6351,147.119 83.9361,146.809 84.2332,146.52 84.5355,146.232 84.8428,145.945 85.1347,145.664 85.4372,145.383 85.7451,145.101 86.083,144.825 86.4029,144.566 86.7262,144.309 87.0527,144.054 87.3801,143.784 87.7105,143.515 88.0436,143.247 88.3575,142.994 88.6834,142.755 89.0112,142.518 89.3699,142.251 89.7311,141.985 90.0716,141.739 90.3967,141.51 90.7225,141.283 91.049,141.058 91.4019,140.801 91.7558,140.546 92.1103,140.294 92.4264,140.081 92.7476,139.88 93.0692,139.681 93.4065,139.469 93.7439,139.259 94.0814,139.052 94.4012,138.848 94.7209,138.647 95.0403,138.448 95.3657,138.239 95.6917,138.032 96.0333,137.826 96.3461,137.642 96.6571,137.462 96.9665,137.286 97.3252,137.071 97.6424,136.897 97.9585,136.727 98.2707,136.563 98.584,136.4 98.8991,136.238 99.2106,136.083 99.5248,135.928 99.8609,135.763 100.171,135.617 100.481,135.472 100.791,135.329 101.103,135.187 101.429,135.039 101.761,134.911 102.095,134.785 102.426,134.662 102.758,134.54 103.091,134.419 103.456,134.321 103.822,134.223 104.202,134.113 104.583,134.005 104.978,133.908 105.355,133.805 105.733,133.702 106.11,133.6 106.5,133.5 " fill="none" stroke-width="1" stroke="rgb(0,0,255)" />
	<polyline points="211.67,189.373 211.941,190.318 212.26,191.24 212.62,192.18 212.923,192.943 213.208,193.702 213.5,194.5 " fill="none" stroke-width="1" stroke="rgb(0,0,255)" />
	<polyline points="262.997,106.257 262.879,106.517 262.758,106.777 262.633,107.035 262.485,107.289 262.334,107.541 262.181,107.792 262.024,108.041 261.879,108.314 261.731,108.586 261.582,108.858 261.429,109.129 261.27,109.402 261.11,109.675 260.949,109.949 260.788,110.205 260.627,110.461 260.464,110.717 260.301,110.973 260.125,111.224 259.947,111.475 259.762,111.743 259.576,112.012 259.392,112.292 259.207,112.572 259.021,112.853 258.843,113.122 258.66,113.392 258.476,113.663 258.294,113.935 258.109,114.202 257.926,114.472 257.745,114.758 257.566,115.046 257.384,115.33 257.204,115.614 257.026,115.9 256.852,116.18 256.681,116.463 256.514,116.747 256.352,117.034 256.196,117.32 256.045,117.608 255.9,117.914 255.77,118.215 255.641,118.516 255.515,118.819 255.392,119.122 255.275,119.427 255.162,119.732 255.051,120.039 254.94,120.348 254.831,120.658 254.724,120.969 254.621,121.269 254.519,121.57 254.42,121.872 254.327,122.183 254.248,122.498 254.202,122.82 254.196,123.148 254.238,123.476 254.301,123.802 254.366,124.127 254.442,124.425 254.522,124.723 254.605,125.02 254.696,125.328 254.79,125.635 254.89,125.941 254.992,126.234 255.1,126.523 255.214,126.812 255.334,127.1 255.465,127.385 255.604,127.671 255.751,127.956 255.921,128.249 256.092,128.526 256.267,128.798 256.449,129.068 256.656,129.349 256.873,129.629 257.097,129.908 257.328,130.164 257.566,130.418 257.81,130.67 258.06,130.92 258.316,131.155 258.576,131.388 258.842,131.618 259.113,131.846 259.375,132.056 259.647,132.267 259.924,132.475 260.203,132.671 260.485,132.864 260.771,133.055 261.062,133.239 261.352,133.412 261.645,133.584 261.94,133.754 262.241,133.913 262.546,134.071 262.849,134.229 263.156,134.381 263.467,134.531 263.78,134.677 264.097,134.82 264.414,134.95 264.741,135.066 265.07,135.181 265.394,135.29 265.721,135.396 266.05,135.501 266.388,135.596 266.729,135.688 267.071,135.778 267.409,135.871 267.749,135.961 268.093,136.051 268.442,136.135 268.792,136.218 269.144,136.299 269.499,136.374 269.855,136.448 270.223,136.511 270.59,136.573 270.959,136.631 271.34,136.681 271.722,136.728 272.104,136.773 272.49,136.807 272.876,136.839 273.273,136.862 273.668,136.883 274.062,136.901 274.451,136.913 274.838,136.922 275.23,136.931 275.622,136.938 276.013,136.943 276.399,136.936 276.784,136.926 277.171,136.915 277.558,136.898 277.947,136.88 278.33,136.849 278.715,136.816 279.101,136.782 279.482,136.743 279.865,136.704 280.25,136.66 280.637,136.615 281.025,136.567 281.404,136.513 281.785,136.456 282.167,136.398 282.532,136.328 282.898,136.255 283.26,136.177 283.622,136.097 283.985,136.014 284.351,135.924 284.717,135.832 285.084,135.738 285.452,135.633 285.821,135.525 286.185,135.412 286.55,135.297 286.917,135.179 287.273,135.049 287.61,134.932 287.947,134.813 288.274,134.685 288.601,134.555 288.928,134.424 289.251,134.296 289.572,134.167 289.893,134.037 290.232,133.891 290.57,133.744 290.907,133.596 291.225,133.454 291.543,133.311 291.86,133.166 292.183,133.014 292.493,132.861 292.801,132.707 293.108,132.552 293.412,132.397 293.714,132.241 294.015,132.085 294.315,131.917 294.624,131.751 294.93,131.585 295.241,131.409 295.55,131.232 295.857,131.055 296.152,130.869 296.445,130.682 296.735,130.496 297.023,130.31 297.314,130.119 297.603,129.926 297.915,129.703 298.201,129.504 298.486,129.304 298.768,129.105 299.05,128.905 299.336,128.695 299.618,128.486 299.896,128.28 300.175,128.067 300.456,127.856 300.734,127.648 301.007,127.443 301.289,127.232 301.568,127.023 301.848,126.806 302.125,126.592 302.405,126.375 302.683,126.16 302.958,125.946 303.248,125.729 303.535,125.515 303.818,125.302 304.099,125.091 304.384,124.884 304.666,124.679 304.945,124.476 305.222,124.275 305.497,124.075 305.775,123.883 306.05,123.692 306.321,123.502 306.59,123.314 306.857,123.127 307.123,122.94 307.388,122.778 307.653,122.617 307.916,122.455 308.179,122.289 308.442,122.122 308.704,121.956 308.947,121.79 " fill="none" stroke-width="1" stroke="rgb(0,0,255)" />
	<polyline points="262.997,106.257 263.264,106.132 263.528,106.009 263.771,105.896 264.014,105.783 264.261,105.669 264.507,105.555 264.752,105.441 264.996,105.328 265.241,105.212 265.483,105.097 265.723,104.984 265.956,104.876 266.189,104.77 266.421,104.665 266.65,104.561 266.879,104.457 267.106,104.354 267.344,104.248 267.579,104.143 267.813,104.039 268.031,103.942 268.263,103.846 268.497,103.75 268.731,103.654 268.966,103.557 269.199,103.459 269.429,103.362 269.658,103.266 269.886,103.17 270.113,103.075 270.349,102.979 " fill="none" stroke-width="1" stroke="rgb(0,0,255)" />
	<polyline points="305.86,128.946 305.772,128.62 305.687,128.298 305.606,127.98 305.53,127.646 305.455,127.313 305.379,126.982 305.309,126.642 305.238,126.303 305.166,125.966 305.105,125.605 305.043,125.247 304.98,124.89 304.916,124.532 304.851,124.176 304.79,123.808 304.727,123.44 304.662,123.074 304.599,122.709 304.534,122.346 304.467,121.984 304.406,121.606 304.343,121.23 304.278,120.856 304.208,120.493 304.136,120.132 304.062,119.771 303.985,119.412 303.904,119.055 303.813,118.713 303.721,118.375 303.626,118.04 303.53,117.708 303.432,117.379 303.332,117.055 303.222,116.743 303.109,116.434 302.995,116.128 302.881,115.831 302.766,115.538 302.649,115.25 302.532,114.968 302.405,114.683 302.276,114.402 302.145,114.125 302.012,113.856 301.869,113.586 301.726,113.321 301.58,113.061 301.423,112.802 301.264,112.549 301.103,112.3 300.94,112.056 300.776,111.815 300.608,111.578 300.438,111.346 300.263,111.117 300.085,110.892 299.89,110.668 299.695,110.451 299.497,110.238 299.296,110.029 299.09,109.827 298.888,109.624 298.676,109.434 298.448,109.26 298.207,109.105 297.956,108.961 297.701,108.828 297.441,108.698 297.177,108.572 296.908,108.449 296.634,108.333 296.355,108.221 296.07,108.114 295.787,108.01 295.499,107.908 295.204,107.81 294.902,107.714 294.594,107.63 294.277,107.55 293.951,107.473 293.623,107.394 293.287,107.318 292.942,107.243 292.594,107.18 292.237,107.118 291.871,107.059 291.506,107.001 291.135,106.941 290.761,106.886 290.378,106.831 289.988,106.778 289.604,106.724 289.215,106.67 288.82,106.617 288.422,106.566 288.02,106.516 287.635,106.459 287.246,106.402 286.855,106.345 286.455,106.292 286.052,106.239 285.67,106.182 285.286,106.125 284.902,106.067 284.497,106.014 284.121,105.954 283.746,105.9 283.373,105.846 283.002,105.791 282.621,105.736 282.243,105.68 281.867,105.623 281.502,105.569 281.139,105.513 280.757,105.459 280.379,105.404 280.004,105.348 279.647,105.291 279.294,105.232 278.944,105.173 278.574,105.114 278.208,105.054 277.845,104.991 277.51,104.919 277.174,104.846 276.835,104.772 276.456,104.702 276.087,104.628 275.755,104.553 275.428,104.475 275.105,104.395 274.732,104.309 274.363,104.22 273.997,104.128 273.67,104.043 273.347,103.956 273.027,103.865 272.684,103.772 272.345,103.676 272.008,103.576 271.682,103.471 271.358,103.364 271.033,103.255 270.69,103.118 270.349,102.979 " fill="none" stroke-width="1" stroke="rgb(0,0,255)" />
	<polyline points="270.349,102.979 270.527,102.744 270.705,102.508 270.884,102.272 271.062,102.036 271.17,101.864 271.277,101.691 271.386,101.516 271.494,101.338 271.604,101.159 271.714,100.977 271.893,100.763 272.076,100.546 272.263,100.327 272.455,100.103 272.651,99.8783 272.847,99.6533 273.051,99.4399 273.278,99.2462 273.523,99.0732 273.795,98.9013 274.066,98.729 274.321,98.5674 274.577,98.4059 274.834,98.2446 275.093,98.0836 275.363,97.9236 275.631,97.7616 275.9,97.6009 276.179,97.4343 276.458,97.2694 276.737,97.106 277.017,96.9441 277.32,96.794 277.622,96.6461 277.924,96.5005 278.223,96.3543 278.523,96.2101 278.825,96.068 279.13,95.9264 279.418,95.7918 279.707,95.6593 279.997,95.5287 280.33,95.4003 280.666,95.2748 281.004,95.1522 281.314,95.0368 281.632,94.9145 281.951,94.7949 282.276,94.6714 282.603,94.5505 282.931,94.432 283.253,94.3225 283.577,94.2154 283.902,94.1107 284.233,93.9963 284.572,93.9011 284.912,93.8084 285.243,93.7186 285.574,93.6313 285.906,93.5469 286.253,93.4636 286.6,93.3832 286.948,93.3059 287.292,93.2338 287.637,93.1652 287.982,93.1003 288.341,93.0397 288.7,92.983 289.058,92.9309 289.417,92.8917 289.777,92.8575 290.137,92.8285 290.498,92.8023 290.859,92.7816 291.216,92.7807 291.574,92.7859 291.93,92.7973 292.289,92.8153 292.647,92.8396 293.004,92.8702 293.344,92.9163 293.682,92.9692 294.02,93.0287 294.361,93.0945 294.701,93.1659 295.041,93.2428 295.362,93.325 295.683,93.4124 296.004,93.5049 296.329,93.602 296.653,93.7036 296.978,93.8095 297.289,93.9181 297.6,94.0307 297.905,94.1448 298.214,94.268 298.523,94.3953 298.832,94.5265 299.141,94.6613 299.441,94.796 299.741,94.9329 300.049,95.0789 300.357,95.2229 300.666,95.37 300.977,95.52 301.289,95.6819 301.603,95.8462 301.917,96.0129 302.225,96.1698 302.535,96.3287 302.844,96.4893 303.154,96.6517 303.467,96.8171 303.78,96.9834 304.102,97.1574 304.426,97.3255 304.751,97.4947 305.075,97.6651 305.4,97.8467 305.726,98.029 306.038,98.1995 306.347,98.3753 306.656,98.5516 306.966,98.7285 307.271,98.9037 307.576,99.0809 307.89,99.2574 308.203,99.4296 308.516,99.602 308.83,99.7744 309.143,99.947 309.443,100.133 309.743,100.322 310.042,100.511 310.361,100.716 310.68,100.922 311.001,101.13 311.298,101.317 311.596,101.506 311.893,101.695 312.217,101.915 312.554,102.145 312.891,102.376 313.188,102.576 313.485,102.776 313.782,102.977 314.078,103.167 314.396,103.38 314.714,103.595 315.032,103.812 315.327,104.004 315.619,104.196 315.911,104.387 316.223,104.59 316.535,104.793 316.847,104.996 317.143,105.18 317.436,105.369 317.729,105.557 318.022,105.746 318.316,105.927 318.62,106.121 318.923,106.316 319.217,106.499 319.51,106.681 319.802,106.864 320.094,107.046 320.396,107.235 320.697,107.423 320.998,107.612 321.308,107.813 321.616,108.012 321.919,108.195 322.25,108.398 322.58,108.6 322.91,108.801 323.229,108.983 323.544,109.186 323.857,109.389 324.167,109.584 324.475,109.78 324.782,109.977 325.085,110.171 325.394,110.369 325.703,110.568 326.012,110.767 326.308,110.967 326.614,111.177 326.919,111.387 327.233,111.615 327.547,111.844 327.859,112.074 328.142,112.281 328.425,112.488 328.707,112.694 328.989,112.899 329.305,113.14 329.62,113.382 329.934,113.624 330.233,113.847 330.532,114.071 330.804,114.276 331.075,114.48 331.357,114.692 331.637,114.904 331.937,115.139 332.233,115.367 332.529,115.594 332.824,115.82 333.118,116.045 333.392,116.265 333.665,116.485 333.938,116.704 334.21,116.925 334.499,117.153 334.787,117.382 335.075,117.611 335.374,117.858 335.673,118.104 335.956,118.341 336.248,118.583 336.54,118.825 336.832,119.067 337.138,119.322 337.448,119.594 " fill="none" stroke-width="1" stroke="rgb(0,0,255)" />
</g></svg>
