<?xml version="1.0" ?>
<svg xmlns="http://www.w3.org/2000/svg" xmlns:ev="http://www.w3.org/2001/xml-events" xmlns:xlink="http://www.w3.org/1999/xlink" baseProfile="full" height="600px" version="1.1" viewBox="17.1867438 54.011473800000005 353.2178124 463.31265239999993" width="458px">
	<defs/>
	<path d="M 97.2131,462.096 L 88.9354,455.204 L 79.3816,446.139 L 68.4992,436.983 L 54.3534,424.088 L 52.0015,421.558 L 50.416,419.238 L 49.5789,417.202 L 49.2288,415.342 L 48.3272,406.001 L 48.0903,390.258 L 47.8043,383.092 L 47.6888,367.247 L 48.2338,356.281 L 48.3164,347.814 L 46.9684,312.111 L 47.0777,293.561 L 46.7823,284.288 L 46.8916,276.884 L 47.9176,253.04 L 48.3475,233.995 L 47.8446,217.382 L 47.8688,206.995 L 48.5513,189.975 L 48.8143,174.224 L 49.0145,171.027 L 49.5,168.5" fill="none" stroke="rgb(31,119,180)" stroke-width="3"/>
	<path d="M 337.448,119.594 L 340.809,133.907 L 340.592,152.321 L 340.282,171.842 L 339.726,192.076 L 339.664,202.895 L 339.988,222.379 L 340.288,230.984 L 340.276,240.56 L 340.683,249.97 L 340.639,269.565 L 339.876,301.983 L 338.916,333.328 L 338.919,351.677 L 338.229,364.703 L 337.976,383.851 L 338.5,399.5" fill="none" stroke="rgb(174,199,232)" stroke-width="3"/>
	<path d="M 264.5,420.5 L 265.584,413.659 L 266.004,407.224 L 266.302,399.569 L 266.31,392.985 L 266.654,378.551 L 267.149,366.962 L 268.039,355.051 L 268.037,340.416 L 268.659,317.354 L 269.094,310.736 L 270.246,300.884 L 271.31,285.05 L 271.591,276.198 L 272.409,265.233 L 272.866,252.876 L 273.738,238.875 L 274.129,229.191 L 273.645,211.846 L 272.175,186.678 L 270.936,161.598" fill="none" stroke="rgb(255,127,14)" stroke-width="3"/>
	<path d="M 93.5,205.5 L 93.9016,211.272 L 94.2604,225.208 L 94.0799,236.353 L 94.4101,259.179 L 94.2787,273.776 L 93.8274,284.855 L 93.6805,304.819 L 94.0796,326.835 L 93.5736,345.612 L 93.5885,351.961 L 93.8983,360.384 L 94.5037,368.471 L 95.5503,377.223 L 96.9898,392.358 L 97.5422,401.652 L 97.8529,421.489 L 97.7438,432.937 L 97.495,439.999 L 97.6205,445.259 L 97.495,457.112 L 97.2131,462.096" fill="none" stroke="rgb(255,187,120)" stroke-width="3"/>
	<path d="M 213.5,194.5 L 209.29,188.216 L 207.656,187.521 L 205.028,187.177 L 201.91,187.139 L 186.15,188.228 L 168.929,190.888 L 165.204,191.588 L 157.004,192.649 L 149.215,192.859 L 136.05,192.453 L 127.092,191.846 L 117.205,190.074 L 110.907,188.001 L 107.12,186.392 L 104.213,184.932 L 97.886,181.286 L 94.4773,178.79 L 89.9391,174.902 L 85.9952,170.819 L 83.0966,167.107 L 80.8386,163.268 L 80.132,161.474 L 79.5293,159.3 L 79.3063,157.78 L 79.2852,156.184 L 79.895,153.099 L 81.1558,150.319 L 83.0871,147.714 L 85.7451,145.101 L 88.3575,142.994 L 92.1103,140.294 L 97.3252,137.071 L 101.429,135.039 L 103.091,134.419 L 106.5,133.5" fill="none" stroke="rgb(44,160,44)" stroke-width="3"/>
	<path d="M 49.5,168.5 L 55.0369,158.595 L 57.4395,154.912 L 60.0186,151.418 L 70.4396,139.004 L 74.2669,135.194 L 77.1446,132.857 L 83.9514,128.193 L 87.5456,126.002 L 92.1025,123.568 L 97.4371,121.013 L 111.458,115.002 L 115.962,113.289 L 122.052,111.191 L 130.993,108.476 L 140.05,106.316 L 148.727,105.004 L 160.024,104.124 L 164.45,104.149 L 167.922,104.461 L 170.791,105.027 L 178.526,106.995 L 184.683,109.095 L 191.658,112.022 L 196.858,114.399 L 204.164,118.055 L 210.079,118.63" fill="none" stroke="rgb(152,223,138)" stroke-width="3"/>
	<path d="M 264.5,420.5 L 255.873,430.813 L 248.867,437.875 L 242.397,443.142 L 235.948,447.437 L 223.131,454.994 L 215.627,459.079 L 211.786,460.935 L 196.861,466.231 L 186.082,469.41 L 182.869,470.144 L 168.846,472.631 L 158.058,474.981 L 149.982,476.507 L 137.005,478.022 L 132.149,478.357 L 125.996,478.554 L 122.946,478.365 L 120.491,477.991 L 117.108,477.145 L 113.979,476.059 L 110.934,474.685 L 105.538,471.775 L 103.052,470.221 L 97.2131,462.096" fill="none" stroke="rgb(214,39,40)" stroke-width="3"/>
	<path d="M 106.5,133.5 L 114.231,130.734 L 120.125,129.007 L 124.762,127.98 L 127.918,127.459 L 150.121,124.665 L 158.799,124.004 L 167.012,123.86 L 172.477,124.17 L 182.88,125.21 L 190.129,126.372 L 192.963,127.005 L 203.933,130.448 L 209.003,132.432 L 213.911,134.843 L 219.057,138.012 L 227.281,143.977 L 231.741,147.563 L 234.147,149.832 L 236.083,152.065 L 237.478,154.125 L 238.439,156.19 L 238.894,158.004 L 238.946,160.121 L 238.49,162.167 L 237.487,164.397 L 235.904,166.83 L 233.896,169.283 L 231.964,171.236 L 230.114,172.764 L 226.849,175.018 L 221.711,178.09 L 218.075,180.006 L 212.5,182.5" fill="none" stroke="rgb(255,152,150)" stroke-width="3"/>
	<path d="M 93.5,205.5 L 99.0362,206.878 L 101.941,207.372 L 107.913,208.123 L 117.765,208.885 L 133.111,209.102 L 144.95,208.39 L 157.927,206.733 L 163.881,205.617 L 169.982,204.798 L 174.059,204.08 L 194.828,199.369 L 200.822,197.678 L 213.5,194.5" fill="none" stroke="rgb(148,103,189)" stroke-width="3"/>
	<path d="M 262.997,106.257 L 260.949,109.949 L 257.926,114.472 L 256.045,117.608 L 254.519,121.57 L 254.196,123.148 L 254.605,125.02 L 255.334,127.1 L 256.092,128.526 L 257.097,129.908 L 258.576,131.388 L 260.203,132.671 L 261.94,133.754 L 264.414,134.95 L 269.855,136.448 L 274.451,136.913 L 277.947,136.88 L 280.637,136.615 L 282.898,136.255 L 285.821,135.525 L 290.907,133.596 L 304.97844925745676,124.46349078431582" fill="none" stroke="rgb(197,176,213)" stroke-width="3"/>
	<path d="M 262.997,106.257 L 271.714,100.977 L 272.847,99.6533 L 274.577,98.4059 L 277.017,96.9441 L 279.707,95.6593 L 284.233,93.9963 L 287.982,93.1003 L 290.859,92.7816 L 294.02,93.0287 L 297.289,93.9181 L 300.977,95.52 L 310.042,100.511 L 326.919,111.387 L 333.118,116.045 L 337.448,119.594" fill="none" stroke="rgb(140,86,75)" stroke-width="3"/>
	<path d="M 338.5,399.5 L 324.175,404.036 L 316.826,406.164 L 299.813,411.476 L 290.541,413.957 L 282.04,416.489 L 267.905,419.574 L 264.5,420.5" fill="none" stroke="rgb(196,156,148)" stroke-width="3"/>
	<path d="M 270.936,161.598 L 258.158,171.991 L 250.049,178.117 L 245.975,180.562 L 234.973,186.127 L 231.622,187.621 L 229.197,188.493 L 223.863,190.001 L 218.691,190.831 L 217.058,190.62 L 215.05,188.98 L 213.566,188.781 L 212.5,182.5" fill="none" stroke="rgb(227,119,194)" stroke-width="3"/>
	<path d="M 270.936,161.598 L 275.271,155.924 L 278.537,153.949 L 282.459,151.928 L 286.716,149.99 L 297.141,145.802 L 313.036,140.06 L 329.728,133.811" fill="none" stroke="rgb(247,182,210)" stroke-width="3"/>
	<path d="M 49.5,168.5 L 62.9137,179.827 L 75.4158,190.001 L 84.2778,196.964 L 87.9699,200.166 L 93.5,205.5" fill="none" stroke="rgb(127,127,127)" stroke-width="3"/>
	<path d="M 210.079,118.63 L 225.26,114.015 L 237.99,110.327 L 247.141,107.233 L 254.005,105.436 L 258.322,104.589 L 260.184,104.639 L 261.517,104.831 L 262.997,106.257" fill="none" stroke="rgb(199,199,199)" stroke-width="3"/>
	<path d="M 304.97844925745676,124.46349078431582 L 303.985,119.412 L 302.995,116.128 L 302.145,114.125 L 301.103,112.3 L 299.89,110.668 L 298.448,109.26 L 296.355,108.221 L 293.287,107.318 L 277.845,104.991 L 273.67,104.043 L 262.997,106.257" fill="none" stroke="rgb(188,189,34)" stroke-width="3"/>
	<path d="M 329.728,133.811 L 337.448,119.594" fill="none" stroke="rgb(219,219,141)" stroke-width="3"/>
</svg>
