<?xml version="1.0" standalone="no" ?>
<!DOCTYPE svg PUBLIC "-//W3C//DTD SVG 1.1//EN" "http://www.w3.org/Graphics/SVG/1.1/DTD/svg11.dtd">
<svg width="512px" height="512px" xmlns="http://www.w3.org/2000/svg" xmlns:xlink="http://www.w3.org/1999/xlink" version="1.1" >

<g>	<image style="overflow: visible; opacity: 0.4" width="512" height="512" xlink:href="3dsketching_train2_512_erode.png" />

</g>
<g>	<polyline points="97.5,275.5 97.5098,275.315 97.5196,275.13 97.5296,274.944 97.5406,274.752 97.5519,274.56 97.5634,274.367 97.5754,274.172 97.5878,273.976 97.5987,273.787 97.6102,273.596 97.6222,273.404 97.6347,273.21 97.6479,273.015 97.6632,272.81 97.6792,272.603 97.6961,272.393 97.7139,272.181 97.7327,271.966 97.7496,271.761 97.7674,271.554 97.7861,271.344 97.8058,271.131 97.8264,270.915 97.8513,270.688 97.8774,270.457 97.9048,270.222 97.9335,269.984 97.9619,269.756 97.9915,269.524 98.0203,269.295 98.0503,269.063 98.0822,268.817 98.1153,268.566 98.1497,268.311 98.1854,268.052 98.222,267.797 98.2601,267.537 98.2994,267.274 98.3402,267.006 98.3858,266.725 98.433,266.441 98.4816,266.153 98.5317,265.863 98.5839,265.577 98.6374,265.291 98.6922,265.004 98.7525,264.711 98.8142,264.417 98.8775,264.125 98.9421,263.838 99.0085,263.551 99.0887,263.259 99.1711,262.965 99.2596,262.656 99.3504,262.346 99.4434,262.034 99.537,261.734 99.6325,261.434 99.7299,261.133 99.8338,260.823 99.9398,260.512 100.048,260.201 100.149,259.907 100.256,259.607 100.364,259.31 100.472,259.017 100.582,258.724 100.694,258.431 100.808,258.138 100.926,257.845 101.045,257.552 101.176,257.261 101.308,256.971 101.443,256.678 101.58,256.387 101.718,256.097 101.855,255.82 101.993,255.544 102.127,255.258 102.263,254.969 102.425,254.675 102.589,254.382 102.754,254.089 102.918,253.81 103.083,253.531 103.232,253.27 103.383,253.008 103.558,252.732 103.734,252.455 103.913,252.178 104.097,251.91 104.281,251.641 104.466,251.372 104.653,251.103 104.853,250.837 105.054,250.572 105.254,250.299 105.455,250.027 105.636,249.762 105.818,249.497 106,249.233 106.2,248.972 106.413,248.711 106.627,248.451 106.841,248.192 107.055,247.933 107.259,247.653 107.463,247.375 107.667,247.097 107.889,246.818 108.11,246.539 " fill="none" stroke-width="1" stroke="rgb(0,0,255)" />
	<polyline points="208.904,340.431 208.955,340.051 209.016,339.671 209.094,339.31 209.173,338.948 209.252,338.583 209.332,338.218 209.411,337.854 209.5,337.5 " fill="none" stroke-width="1" stroke="rgb(0,0,255)" />
	<polyline points="209.5,337.5 209.842,337.128 210.199,336.757 210.556,336.387 210.913,336.017 211.286,335.638 211.659,335.259 212.032,334.88 212.425,334.532 212.816,334.186 213.207,333.821 213.583,333.454 213.96,333.085 214.36,332.731 214.763,332.374 215.169,332.014 215.524,331.649 215.881,331.282 216.247,330.91 216.64,330.533 217.036,330.154 217.354,329.814 217.671,329.477 217.986,329.142 218.37,328.778 218.761,328.408 219.159,328.031 219.496,327.686 219.843,327.333 220.193,326.955 220.609,326.574 221.031,326.189 221.396,325.844 221.765,325.47 222.141,325.088 222.531,324.755 222.921,324.422 223.295,324.076 223.646,323.694 223.999,323.31 224.376,322.93 224.751,322.632 225.124,322.335 225.517,321.988 225.858,321.606 226.234,321.25 226.612,320.894 226.972,320.62 227.37,320.261 227.768,319.903 228.113,319.524 228.481,319.187 228.849,318.851 229.217,318.487 229.59,318.118 229.933,317.744 230.314,317.405 230.698,317.064 231.084,316.757 231.445,316.385 231.809,316.011 232.173,315.626 232.556,315.313 232.942,314.998 233.316,314.611 233.697,314.217 234.082,313.818 234.459,313.533 234.836,313.247 235.262,312.844 235.639,312.449 236.024,312.046 236.398,311.76 236.774,311.474 237.15,311.187 237.569,310.818 237.974,310.409 238.372,310.046 238.739,309.757 239.106,309.467 239.488,309.153 239.897,308.762 240.292,308.393 240.688,308.024 241.051,307.736 241.42,307.442 241.788,307.147 242.185,306.767 242.591,306.379 242.999,305.988 243.368,305.697 243.736,305.407 244.103,305.116 244.493,304.715 244.883,304.315 245.27,303.943 245.643,303.654 246.015,303.366 246.415,303.021 246.768,302.636 247.118,302.255 247.507,301.893 247.881,301.618 248.297,301.264 248.709,300.912 249.076,300.521 249.455,300.186 249.831,299.852 250.249,299.488 250.664,299.126 251.043,298.734 251.415,298.412 251.786,298.09 252.152,297.824 252.544,297.447 252.941,297.064 253.319,296.738 253.699,296.411 254.08,296.082 254.452,295.694 254.832,295.298 255.226,294.962 255.613,294.638 256.001,294.312 256.397,293.925 256.752,293.54 257.112,293.149 257.49,292.841 257.867,292.532 258.261,292.163 258.649,291.765 259.039,291.363 259.411,291.001 259.779,290.688 260.15,290.372 260.531,290.034 260.933,289.632 261.299,289.259 261.666,288.885 262.041,288.552 262.418,288.217 262.796,287.88 263.177,287.485 263.529,287.11 263.912,286.759 264.292,286.413 264.674,286.065 265.041,285.677 265.382,285.302 265.724,284.925 266.12,284.548 266.503,284.195 266.886,283.842 267.22,283.467 267.554,283.093 267.954,282.696 268.34,282.336 268.724,281.978 269.094,281.595 269.424,281.221 269.752,280.849 270.129,280.448 270.517,280.077 270.895,279.693 271.222,279.319 271.547,278.947 271.881,278.571 272.263,278.205 272.642,277.841 273.03,277.467 273.379,277.082 273.708,276.71 274.039,276.338 274.413,275.991 274.801,275.652 275.19,275.314 275.598,274.912 275.998,274.496 276.367,274.163 276.726,273.839 277.085,273.556 277.496,273.201 277.903,272.849 278.271,272.512 278.639,272.176 279.007,271.839 279.39,271.513 279.774,271.187 280.18,270.791 280.552,270.447 280.926,270.101 281.312,269.767 281.698,269.433 282.083,269.1 282.469,268.751 282.858,268.4 283.276,268.02 283.666,267.73 284.055,267.441 284.43,267.166 284.805,266.892 285.206,266.551 285.602,266.214 285.993,265.882 286.356,265.625 286.72,265.369 287.084,265.112 287.474,264.777 287.861,264.445 288.283,264.041 288.666,263.739 289.053,263.434 289.417,263.169 289.781,262.905 290.172,262.567 290.579,262.154 290.984,261.822 291.358,261.548 291.729,261.277 292.096,261.008 292.537,260.612 292.978,260.215 293.347,259.929 293.716,259.652 294.086,259.375 294.511,259.047 294.931,258.687 295.314,258.4 295.699,258.112 296.058,257.843 296.492,257.492 296.926,257.14 297.287,256.873 297.682,256.558 298.08,256.239 298.468,255.895 298.891,255.521 299.274,255.206 299.659,254.889 300.045,254.559 300.42,254.219 300.796,253.878 301.197,253.508 301.581,253.148 301.957,252.822 302.327,252.502 302.697,252.182 303.067,251.862 303.451,251.475 303.834,251.088 304.201,250.78 304.568,250.473 304.933,250.165 305.307,249.851 305.705,249.444 306.097,249.043 306.467,248.736 306.832,248.432 307.214,248.116 307.629,247.71 308.055,247.292 308.413,246.951 308.802,246.613 309.207,246.267 309.605,245.926 310.013,245.541 310.347,245.216 310.684,244.889 311.05,244.547 311.426,244.201 311.798,243.858 312.165,243.512 312.498,243.188 312.834,242.862 313.244,242.493 313.65,242.127 314.013,241.783 314.363,241.45 314.711,241.117 315.08,240.812 315.473,240.489 315.863,240.168 316.221,239.829 316.582,239.486 316.947,239.139 317.336,238.798 317.726,238.455 318.116,238.112 318.49,237.75 318.857,237.394 319.183,237.047 319.551,236.686 319.916,236.328 320.276,235.994 320.639,235.627 320.994,235.268 321.306,234.927 321.648,234.57 321.984,234.218 322.34,233.852 322.694,233.477 323.043,233.106 323.386,232.743 323.733,232.377 324.082,232.007 324.446,231.617 324.806,231.231 325.197,230.87 325.56,230.495 325.925,230.117 326.324,229.732 326.724,229.348 327.127,228.962 327.51,228.583 327.9,228.198 328.245,227.823 328.678,227.458 329.113,227.093 329.489,226.744 329.86,226.399 330.244,226.038 330.62,225.739 330.999,225.439 331.351,225.179 331.706,224.918 332.065,224.59 332.453,224.202 332.847,223.81 333.192,223.555 333.538,223.3 333.885,223.044 334.294,222.647 334.706,222.247 335.121,221.844 335.467,221.6 335.814,221.355 336.162,221.111 336.564,220.765 336.973,220.414 337.344,220.098 337.7,219.849 338.057,219.6 338.415,219.338 338.773,219.077 339.163,218.755 339.54,218.428 339.921,218.098 340.306,217.784 340.693,217.468 341.082,217.151 341.471,216.798 341.856,216.449 342.222,216.097 342.607,215.745 342.989,215.395 343.363,215.038 343.73,214.69 344.094,214.345 344.445,214.019 344.807,213.675 345.166,213.335 345.497,212.989 345.855,212.649 346.204,212.347 346.551,212.046 346.903,211.711 347.228,211.359 347.553,211.007 347.922,210.671 348.274,210.391 348.624,210.112 348.983,209.777 349.351,209.389 349.72,208.999 350.102,208.686 350.461,208.425 350.819,208.164 351.201,207.87 351.642,207.452 352.089,207.027 352.477,206.757 352.863,206.488 353.275,206.187 353.68,205.89 354.111,205.511 354.506,205.178 354.895,204.851 355.298,204.561 355.699,204.273 356.098,203.986 356.502,203.671 356.902,203.358 357.316,202.996 357.719,202.698 358.12,202.402 358.508,202.152 358.905,201.843 359.302,201.483 359.697,201.125 360.101,200.792 360.5,200.5 " fill="none" stroke-width="1" stroke="rgb(0,0,255)" />
	<polyline points="212.5,408.5 212.524,408.107 212.535,407.698 212.547,407.29 212.558,406.881 212.568,406.468 212.577,406.056 " fill="none" stroke-width="1" stroke="rgb(0,0,255)" />
	<polyline points="212.577,406.056 212.549,405.358 212.507,404.641 212.465,403.923 212.421,403.176 212.343,402.456 212.265,401.734 212.232,400.911 212.152,400.181 212.116,399.311 212.079,398.454 212.042,397.569 212.013,396.613 211.962,395.687 211.907,394.823 211.84,393.974 211.764,393.229 211.675,392.447 211.588,391.668 211.494,390.984 211.383,390.203 211.276,389.479 211.169,388.754 211.068,387.861 210.975,387.059 210.92,386.168 210.873,385.272 210.833,384.33 210.796,383.396 210.762,382.446 210.723,381.503 210.685,380.553 210.647,379.593 210.595,378.647 210.541,377.707 210.46,376.842 210.384,376.028 210.253,375.363 210.122,374.691 210.022,374.012 209.929,373.281 209.846,372.518 209.763,371.751 209.692,370.946 209.635,370.098 209.595,369.186 209.563,368.29 209.54,367.386 209.52,366.518 209.501,365.666 209.485,364.807 209.47,363.978 209.456,363.13 209.439,362.307 209.421,361.457 209.404,360.631 209.38,359.833 209.353,359.005 209.31,358.214 209.262,357.405 209.213,356.576 209.162,355.731 209.111,354.891 209.063,354.007 208.995,353.206 208.965,352.318 208.921,351.453 208.876,350.579 208.862,349.668 208.845,348.752 208.849,347.861 208.857,346.963 208.876,346.117 208.892,345.251 208.9,344.408 208.906,343.568 208.913,342.725 208.911,341.924 208.912,341.148 208.904,340.431 " fill="none" stroke-width="1" stroke="rgb(0,0,255)" />
	<polyline points="116.5,286.5 116.764,286.647 117.029,286.793 117.297,286.939 117.577,287.098 117.857,287.258 118.139,287.418 118.415,287.583 118.692,287.748 118.971,287.913 119.254,288.07 119.532,288.211 119.812,288.352 120.094,288.493 120.374,288.635 120.656,288.778 120.939,288.921 121.22,289.061 121.515,289.218 121.811,289.375 122.11,289.533 122.399,289.697 122.692,289.861 122.987,290.026 123.277,290.17 123.571,290.315 123.866,290.46 124.151,290.59 124.436,290.72 124.723,290.852 125.011,290.984 125.316,291.144 125.622,291.304 125.93,291.464 126.22,291.617 126.511,291.769 126.804,291.922 127.098,292.075 127.402,292.226 127.708,292.376 128.014,292.527 128.313,292.659 128.613,292.793 128.913,292.927 129.23,293.089 129.548,293.251 129.867,293.415 130.169,293.574 130.473,293.733 130.778,293.892 131.084,294.052 131.402,294.215 131.722,294.378 132.042,294.543 132.355,294.688 132.668,294.834 132.983,294.979 133.303,295.139 133.623,295.299 133.944,295.46 134.262,295.63 134.58,295.801 134.899,295.971 135.226,296.144 135.553,296.317 135.88,296.491 136.192,296.648 136.503,296.805 136.815,296.963 137.138,297.157 137.446,297.316 137.754,297.476 138.063,297.637 138.373,297.819 138.684,298.002 138.987,298.176 139.304,298.364 139.622,298.553 139.941,298.742 140.244,298.923 140.547,299.104 140.851,299.286 141.156,299.456 141.461,299.627 141.767,299.799 142.072,299.97 142.379,300.164 142.686,300.359 142.992,300.555 143.312,300.769 143.632,300.984 143.933,301.158 144.231,301.335 144.529,301.512 144.826,301.689 145.123,301.865 145.424,302.04 145.74,302.259 146.056,302.477 146.359,302.679 146.661,302.879 146.964,303.078 147.265,303.242 147.567,303.406 147.867,303.57 148.177,303.73 148.486,303.888 148.795,304.045 149.103,304.241 149.435,304.453 149.766,304.663 150.096,304.873 150.406,305.064 150.711,305.219 151.016,305.374 151.316,305.521 151.616,305.669 151.916,305.816 152.216,305.97 152.532,306.158 152.848,306.345 153.191,306.547 153.534,306.75 153.879,306.953 154.198,307.102 154.518,307.251 154.84,307.402 155.16,307.547 155.471,307.686 155.782,307.824 156.092,307.964 156.415,308.143 156.738,308.321 157.062,308.498 157.385,308.662 157.709,308.825 158.033,308.987 158.349,309.13 158.664,309.273 158.979,309.417 159.295,309.557 159.611,309.697 159.927,309.837 160.235,309.985 160.54,310.157 160.845,310.331 161.149,310.506 161.471,310.689 161.791,310.872 162.11,311.055 162.417,311.225 162.722,311.397 163.027,311.568 163.346,311.746 163.664,311.924 163.988,312.122 164.293,312.308 164.598,312.494 164.904,312.68 165.24,312.886 165.576,313.094 165.903,313.289 166.224,313.491 166.546,313.694 166.867,313.899 167.183,314.074 167.479,314.249 167.776,314.425 168.072,314.602 168.363,314.778 168.654,314.954 168.963,315.145 169.265,315.322 169.567,315.499 169.869,315.675 170.176,315.863 170.483,316.05 170.781,316.235 171.079,316.42 171.382,316.602 171.685,316.783 171.987,316.965 172.311,317.179 172.635,317.391 172.96,317.602 173.277,317.793 173.593,317.984 173.908,318.168 174.237,318.384 174.566,318.601 174.895,318.818 175.208,319.006 175.522,319.208 175.836,319.409 176.151,319.609 176.479,319.825 176.807,320.041 177.139,320.237 177.447,320.406 177.755,320.575 178.064,320.744 178.397,320.915 178.731,321.085 179.056,321.282 179.356,321.461 179.657,321.641 179.959,321.82 180.28,322.01 180.589,322.162 180.9,322.312 181.2,322.454 181.5,322.597 181.8,322.739 182.1,322.882 182.416,323.024 182.737,323.213 183.058,323.402 183.375,323.589 183.692,323.776 184.008,323.963 184.318,324.113 184.629,324.261 184.94,324.406 185.249,324.551 185.557,324.694 185.865,324.837 186.175,324.974 186.497,325.163 186.818,325.351 187.138,325.538 187.476,325.739 187.814,325.938 188.121,326.075 188.428,326.21 188.735,326.344 189.042,326.475 189.35,326.602 189.657,326.727 189.964,326.85 190.267,326.979 190.582,327.136 190.897,327.289 191.236,327.455 191.573,327.618 191.91,327.777 192.224,327.914 192.537,328.05 192.854,328.167 193.163,328.269 193.471,328.37 193.779,328.471 194.087,328.57 194.401,328.691 194.715,328.809 195.03,328.924 195.336,329.016 195.659,329.138 195.983,329.257 196.291,329.358 196.599,329.457 196.908,329.551 197.223,329.649 197.538,329.743 197.854,329.833 198.16,329.908 198.467,329.977 198.796,330.041 199.126,330.099 199.452,330.16 199.779,330.213 200.108,330.258 200.424,330.272 200.74,330.28 201.056,330.28 201.386,330.316 201.715,330.357 202.041,330.401 202.375,330.446 202.708,330.489 203.041,330.531 203.401,330.566 203.76,330.602 204.119,330.639 " fill="none" stroke-width="1" stroke="rgb(0,0,255)" />
	<polyline points="116.5,286.5 116.238,286.347 115.977,286.194 115.709,286.04 115.434,285.875 115.158,285.711 114.882,285.546 114.627,285.38 114.371,285.214 114.115,285.047 113.861,284.896 113.606,284.744 113.351,284.592 113.094,284.44 112.85,284.295 112.606,284.15 112.361,284.005 112.119,283.84 111.848,283.669 111.576,283.498 111.303,283.327 111.029,283.155 110.784,282.992 110.526,282.843 110.268,282.694 110.009,282.544 109.749,282.392 109.488,282.239 109.225,282.086 108.943,281.913 108.696,281.751 108.45,281.591 108.204,281.432 107.96,281.275 107.682,281.108 107.404,280.942 107.145,280.794 106.886,280.647 106.639,280.506 106.39,280.364 106.14,280.222 105.888,280.08 105.63,279.94 105.373,279.789 105.114,279.637 104.876,279.493 104.637,279.349 104.398,279.205 104.159,279.062 103.919,278.925 103.669,278.785 103.419,278.646 103.169,278.507 102.919,278.368 102.677,278.232 102.434,278.097 102.192,277.962 101.946,277.821 101.685,277.677 101.424,277.534 101.163,277.391 100.902,277.249 100.644,277.104 100.387,276.96 100.118,276.817 99.8332,276.666 99.5483,276.515 99.2632,276.364 98.9782,276.214 98.6923,276.071 98.3956,275.924 98.099,275.776 97.7995,275.638 97.5,275.5 " fill="none" stroke-width="1" stroke="rgb(0,0,255)" />
	<polyline points="116.5,286.5 116.526,286.868 116.588,287.248 116.649,287.628 116.71,288.009 116.753,288.4 116.796,288.792 116.839,289.184 116.909,289.58 116.979,289.977 117.038,290.379 117.095,290.781 117.153,291.184 117.219,291.59 117.285,291.996 117.347,292.4 117.409,292.805 117.472,293.206 117.534,293.609 117.596,294.012 117.656,294.418 117.715,294.824 117.778,295.217 117.841,295.611 117.906,296.004 117.99,296.408 118.063,296.801 118.138,297.193 118.213,297.567 118.287,297.942 118.361,298.32 118.434,298.699 118.508,299.078 118.571,299.445 118.634,299.813 118.692,300.199 118.749,300.586 118.806,300.974 118.861,301.352 118.916,301.731 118.97,302.111 119.023,302.509 119.071,302.895 119.134,303.27 119.197,303.645 119.26,304.022 119.314,304.425 119.366,304.829 119.423,305.222 119.479,305.615 119.536,306.01 119.574,306.409 119.61,306.809 119.649,307.21 119.686,307.612 119.722,308.015 119.748,308.407 119.774,308.8 119.798,309.194 119.824,309.599 119.848,310.005 119.868,310.401 119.887,310.797 119.906,311.193 119.928,311.61 119.949,312.028 119.966,312.437 119.984,312.847 120.014,313.28 120.057,313.695 120.101,314.11 120.141,314.534 120.182,314.959 120.233,315.371 120.285,315.784 120.338,316.198 120.382,316.6 120.427,317.004 120.473,317.397 120.519,317.791 120.566,318.186 120.608,318.568 120.649,318.951 120.691,319.341 120.732,319.734 120.773,320.128 120.809,320.508 120.844,320.89 120.874,321.289 120.904,321.69 120.934,322.091 120.962,322.479 120.989,322.868 121.016,323.275 121.042,323.682 121.069,324.088 121.1,324.479 121.131,324.868 121.166,325.28 121.201,325.69 121.236,326.099 121.279,326.489 121.322,326.878 121.372,327.289 121.422,327.698 121.473,328.105 121.522,328.498 121.571,328.889 121.624,329.3 121.678,329.709 121.732,330.118 121.788,330.522 121.844,330.926 121.901,331.337 121.957,331.749 122.013,332.16 122.063,332.581 122.113,333.003 122.164,333.431 122.216,333.859 122.27,334.267 122.325,334.674 122.38,335.081 122.444,335.481 122.507,335.88 122.571,336.274 122.636,336.666 122.701,337.058 122.768,337.434 122.837,337.808 122.907,338.181 122.975,338.569 123.046,338.973 123.118,339.348 123.191,339.721 123.265,340.093 123.338,340.493 123.413,340.891 123.496,341.257 123.581,341.623 123.666,341.988 123.752,342.389 123.838,342.791 123.924,343.193 124.013,343.575 124.093,343.94 124.169,344.356 124.247,344.771 124.327,345.187 124.411,345.553 124.495,345.918 124.587,346.314 124.68,346.707 124.774,347.098 124.869,347.457 124.966,347.813 125.078,348.194 125.193,348.571 125.311,348.945 125.434,349.306 125.558,349.664 125.686,350.019 125.822,350.38 125.961,350.738 126.115,351.077 126.279,351.415 126.448,351.751 126.62,352.083 126.781,352.406 126.946,352.725 127.128,353.047 127.312,353.361 127.501,353.672 127.696,353.98 127.912,354.293 128.115,354.59 128.323,354.882 128.553,355.182 128.789,355.476 129.031,355.764 129.278,356.034 129.554,356.301 129.835,356.562 130.123,356.819 130.416,357.076 130.717,357.316 131.024,357.553 131.328,357.775 131.638,357.994 131.955,358.205 132.265,358.395 132.579,358.583 132.898,358.772 133.24,358.978 133.562,359.181 133.888,359.386 134.232,359.609 134.58,359.835 134.932,360.064 135.263,360.261 135.597,360.459 135.934,360.659 136.257,360.845 136.581,361.033 136.944,361.291 137.276,361.521 137.611,361.752 137.947,361.983 138.274,362.17 138.601,362.355 138.93,362.54 139.256,362.723 139.583,362.908 139.915,363.132 140.287,363.41 140.66,363.69 141.032,363.972 141.357,364.163 141.682,364.354 142.007,364.545 142.33,364.733 142.653,364.922 143.015,365.195 143.369,365.446 143.723,365.695 144.078,365.941 144.404,366.122 144.73,366.303 145.055,366.483 145.384,366.667 145.713,366.852 146.04,367.038 146.372,367.273 146.702,367.509 147.03,367.746 147.394,368.021 147.722,368.225 148.048,368.427 148.386,368.641 148.723,368.854 149.057,369.067 149.42,369.351 149.781,369.632 150.141,369.911 150.503,370.148 150.865,370.385 151.206,370.62 151.546,370.855 151.887,371.09 152.187,371.3 152.487,371.511 152.787,371.723 153.087,371.936 153.431,372.194 153.776,372.452 154.121,372.71 154.462,372.95 154.772,373.166 155.083,373.381 155.411,373.637 155.741,373.897 156.078,374.156 156.407,374.387 156.738,374.619 157.072,374.852 157.407,375.096 157.72,375.321 158.036,375.548 158.361,375.759 158.689,375.972 159.02,376.202 159.35,376.439 159.682,376.677 160.016,376.916 160.346,377.126 160.677,377.336 161.01,377.547 161.326,377.758 161.642,377.969 161.971,378.201 162.317,378.445 162.663,378.689 163.009,378.933 163.322,379.132 163.635,379.33 163.947,379.526 164.279,379.725 164.61,379.924 164.956,380.161 165.298,380.41 165.639,380.658 165.979,380.907 166.308,381.108 166.637,381.308 166.965,381.506 167.279,381.691 167.591,381.875 167.903,382.059 168.273,382.326 168.641,382.592 169.008,382.856 169.336,383.092 169.647,383.267 169.958,383.44 170.277,383.622 170.594,383.803 170.912,383.982 171.236,384.216 171.558,384.449 171.88,384.683 172.251,384.959 172.57,385.152 172.888,385.346 173.206,385.538 173.524,385.73 173.842,385.923 174.206,386.199 174.571,386.474 174.936,386.749 175.254,386.983 175.577,387.191 175.901,387.4 176.226,387.615 176.551,387.832 176.877,388.051 177.193,388.287 177.51,388.523 177.83,388.759 178.15,388.995 178.489,389.228 178.829,389.461 179.173,389.695 179.518,389.93 179.836,390.158 180.174,390.406 180.515,390.657 180.859,390.911 181.2,391.151 181.543,391.391 181.887,391.633 182.227,391.85 182.569,392.068 182.904,392.293 183.237,392.517 183.57,392.74 183.904,392.964 184.234,393.17 184.565,393.375 184.896,393.58 185.23,393.794 185.564,394.008 185.892,394.209 186.213,394.402 186.533,394.594 186.853,394.786 187.176,394.979 187.517,395.187 187.858,395.395 188.184,395.587 188.509,395.779 188.834,395.971 189.172,396.17 189.51,396.368 189.848,396.564 190.187,396.767 190.526,396.971 190.865,397.185 191.255,397.452 191.644,397.719 192.031,397.984 192.38,398.19 192.729,398.395 193.077,398.598 193.419,398.79 193.76,398.983 194.136,399.237 194.466,399.449 194.796,399.658 195.126,399.863 195.492,400.081 195.836,400.253 196.173,400.419 196.51,400.584 196.846,400.749 197.211,400.925 197.577,401.136 197.94,401.346 198.277,401.54 198.612,401.733 198.947,401.925 199.296,402.099 199.644,402.272 199.993,402.445 200.32,402.602 200.648,402.76 200.977,402.919 201.319,403.075 201.671,403.278 202.019,403.478 202.366,403.672 202.712,403.865 203.057,404.057 203.394,404.215 203.73,404.372 204.067,404.528 204.408,404.685 204.748,404.842 205.088,404.999 205.431,405.199 205.773,405.396 206.116,405.593 206.5,405.818 206.884,406.041 207.243,406.199 207.602,406.356 207.96,406.512 208.334,406.674 208.707,406.835 209.08,406.996 209.464,407.195 209.847,407.392 210.23,407.555 210.613,407.717 210.997,407.88 211.386,408.062 211.759,408.207 212.132,408.352 212.5,408.5 " fill="none" stroke-width="1" stroke="rgb(0,0,255)" />
	<polyline points="216.704,404.297 217.239,403.881 217.799,403.386 218.357,402.899 218.904,402.443 219.431,402.016 219.98,401.498 220.501,401.045 221.015,400.621 221.5,400.234 221.981,399.85 222.457,399.438 222.926,399.032 223.374,398.684 223.823,398.334 224.276,397.981 224.758,397.551 225.239,397.121 225.729,396.706 226.221,396.288 226.729,395.864 227.257,395.4 227.808,394.904 228.353,394.43 228.893,393.959 229.432,393.466 229.972,392.972 230.5,392.5 " fill="none" stroke-width="1" stroke="rgb(0,0,255)" />
	<polyline points="212.5,408.5 213.629,407.237 214.622,406.128 216.704,404.297 " fill="none" stroke-width="1" stroke="rgb(0,0,255)" />
	<polyline points="212.577,406.056 213.229,405.895 213.805,405.629 214.405,405.366 215.006,405.101 215.574,404.834 216.143,404.567 216.704,404.297 " fill="none" stroke-width="1" stroke="rgb(0,0,255)" />
	<polyline points="108.11,246.539 108.516,246.736 108.922,246.932 109.306,247.093 109.69,247.254 110.073,247.416 110.462,247.6 110.85,247.784 111.242,247.925 111.635,248.066 112.052,248.171 112.474,248.277 112.897,248.373 113.314,248.437 113.728,248.43 114.144,248.373 114.557,248.32 114.97,248.267 115.39,248.223 115.81,248.182 116.232,248.15 116.655,248.132 117.077,248.121 117.497,248.117 117.916,248.116 118.329,248.125 118.741,248.139 119.153,248.157 119.555,248.185 119.956,248.217 120.348,248.256 120.74,248.298 121.13,248.345 121.513,248.405 121.895,248.469 122.257,248.537 122.619,248.608 122.982,248.681 123.359,248.767 123.737,248.854 124.117,248.943 124.484,249.022 124.855,249.13 125.244,249.25 125.634,249.371 126.025,249.495 126.409,249.615 126.794,249.736 127.18,249.859 127.575,249.989 128.003,250.088 128.387,250.18 128.771,250.272 129.157,250.367 129.573,250.491 129.99,250.616 130.374,250.724 130.759,250.834 131.145,250.944 131.547,251.106 131.951,251.269 132.356,251.438 132.761,251.607 133.167,251.779 133.563,251.95 133.974,252.108 134.349,252.235 134.724,252.363 135.1,252.491 135.525,252.645 135.95,252.802 136.326,252.932 136.703,253.065 137.104,253.232 137.494,253.386 137.886,253.541 138.267,253.685 138.65,253.83 139.032,253.976 139.445,254.122 139.859,254.269 140.23,254.405 140.602,254.542 140.974,254.68 141.372,254.84 141.771,255.001 142.137,255.155 142.507,255.313 142.877,255.472 143.238,255.645 143.599,255.818 143.961,255.993 144.337,256.188 144.713,256.385 145.09,256.581 145.487,256.821 145.885,257.063 146.264,257.27 146.643,257.478 147.022,257.687 147.38,257.894 147.739,258.102 148.123,258.358 148.494,258.594 148.865,258.83 149.232,259.061 149.584,259.266 149.936,259.472 150.294,259.674 150.65,259.876 151.006,260.079 151.365,260.297 151.724,260.516 152.081,260.734 152.437,260.967 152.8,261.19 153.162,261.414 153.527,261.654 153.89,261.894 154.24,262.152 154.587,262.409 154.932,262.667 155.318,262.957 155.683,263.214 156.046,263.469 156.397,263.707 156.746,263.945 157.086,264.2 157.483,264.525 157.878,264.852 158.222,265.115 158.554,265.332 158.885,265.549 159.219,265.771 159.552,265.995 159.934,266.321 160.296,266.614 160.658,266.905 161,267.132 161.336,267.373 161.671,267.615 162.005,267.856 162.346,268.109 162.704,268.416 163.059,268.724 163.395,269.01 163.722,269.262 164.046,269.513 164.374,269.78 164.699,270.046 165.028,270.34 165.355,270.623 165.679,270.905 165.993,271.16 166.317,271.449 166.638,271.736 166.956,272.022 167.279,272.325 167.6,272.628 167.918,272.931 168.205,273.253 168.492,273.574 168.78,273.895 169.049,274.205 169.36,274.52 169.669,274.838 169.978,275.159 170.229,275.472 170.48,275.787 170.73,276.103 170.97,276.412 171.277,276.742 171.586,277.073 171.891,277.397 172.137,277.717 172.383,278.037 172.623,278.35 172.863,278.663 173.169,279.003 173.471,279.338 173.775,279.674 174.08,280.009 174.345,280.336 174.609,280.663 174.872,280.991 175.163,281.317 175.455,281.643 175.747,281.97 176.078,282.286 176.367,282.605 176.656,282.923 176.906,283.253 177.193,283.581 177.479,283.909 177.806,284.227 178.133,284.544 178.439,284.869 178.7,285.212 178.961,285.554 179.225,285.893 179.548,286.253 179.871,286.612 180.172,286.951 180.438,287.293 180.703,287.635 180.967,287.979 181.243,288.321 181.52,288.664 181.797,289.01 182.037,289.348 182.303,289.684 182.569,290.021 182.853,290.349 183.137,290.679 183.409,291.021 183.665,291.363 183.922,291.707 184.186,292.049 184.457,292.393 184.729,292.739 185,293.085 185.231,293.426 185.462,293.768 185.693,294.11 185.917,294.447 186.156,294.789 186.396,295.131 186.631,295.475 186.866,295.819 187.099,296.162 187.325,296.509 187.55,296.857 187.776,297.202 188.002,297.548 188.262,297.913 188.547,298.277 188.831,298.641 189.116,299.005 189.352,299.359 189.588,299.713 189.823,300.068 190.039,300.441 190.318,300.81 190.621,301.227 190.926,301.645 191.132,301.995 191.329,302.345 191.525,302.696 191.721,303.049 191.923,303.401 192.228,303.834 192.497,304.201 192.765,304.569 193.031,304.936 193.226,305.291 193.421,305.646 193.616,306.001 193.804,306.344 193.992,306.687 194.254,307.049 194.54,307.465 194.825,307.882 195.08,308.241 195.272,308.581 195.465,308.923 195.672,309.282 195.882,309.645 196.092,310.009 196.358,310.382 196.615,310.749 196.865,311.111 197.098,311.484 197.289,311.839 197.478,312.177 197.667,312.515 197.855,312.853 198.033,313.207 198.255,313.58 198.474,313.952 198.685,314.304 198.893,314.653 199.096,314.998 199.283,315.365 199.467,315.731 199.648,316.095 199.861,316.457 200.067,316.817 200.269,317.207 200.467,317.595 200.661,317.981 200.858,318.338 201.048,318.695 201.219,319.057 201.36,319.421 201.498,319.785 201.633,320.147 201.771,320.491 201.904,320.835 202.025,321.173 202.158,321.509 202.289,321.845 202.433,322.193 202.572,322.541 202.706,322.89 202.827,323.224 202.942,323.559 203.051,323.896 203.147,324.244 203.239,324.592 203.329,324.941 203.408,325.27 203.483,325.6 203.551,325.933 203.6,326.293 203.639,326.658 203.682,327.019 203.724,327.411 203.769,327.8 203.816,328.186 203.873,328.58 203.932,328.973 203.985,329.389 204.042,329.793 204.095,330.207 204.119,330.639 " fill="none" stroke-width="1" stroke="rgb(0,0,255)" />
	<polyline points="108.11,246.539 108.308,246.393 108.507,246.248 108.705,246.102 108.904,245.956 109.096,245.808 109.298,245.654 109.5,245.5 " fill="none" stroke-width="1" stroke="rgb(0,0,255)" />
	<polyline points="204.119,330.639 204.295,330.968 204.465,331.294 204.634,331.619 204.803,331.944 204.985,332.267 205.154,332.594 205.321,332.92 205.502,333.238 205.68,333.556 205.855,333.873 206.02,334.193 206.177,334.517 206.332,334.839 206.486,335.159 206.638,335.476 206.789,335.792 206.939,336.107 207.093,336.417 207.245,336.726 207.397,337.034 207.551,337.341 207.704,337.647 207.856,337.951 208,338.258 208.138,338.569 208.276,338.879 208.403,339.19 208.53,339.501 208.657,339.811 208.783,340.121 208.904,340.431 " fill="none" stroke-width="1" stroke="rgb(0,0,255)" />
	<polyline points="382.83,186.975 382.781,186.669 382.733,186.364 382.685,186.06 382.637,185.751 382.589,185.442 382.542,185.135 382.507,184.802 382.471,184.47 382.436,184.139 382.41,183.79 382.384,183.441 382.358,183.092 382.333,182.744 382.309,182.396 382.284,182.048 382.262,181.692 382.24,181.334 382.218,180.973 382.185,180.618 382.151,180.26 382.115,179.9 382.076,179.527 382.035,179.15 382.017,178.755 381.999,178.352 381.983,177.946 381.964,177.543 381.945,177.137 381.929,176.734 381.913,176.331 381.896,175.928 381.875,175.536 381.853,175.144 381.829,174.761 381.805,174.377 381.78,173.994 381.756,173.617 381.732,173.241 381.706,172.868 381.677,172.501 381.648,172.137 381.617,171.768 381.586,171.402 381.554,171.039 381.515,170.682 381.474,170.326 381.433,169.972 381.386,169.596 381.339,169.22 381.29,168.845 381.231,168.484 381.172,168.124 381.11,167.735 381.047,167.341 380.982,166.941 380.924,166.568 380.863,166.186 380.801,165.762 380.738,165.34 380.674,164.92 380.612,164.537 380.548,164.153 380.478,163.74 380.407,163.33 380.335,162.923 380.267,162.544 380.198,162.168 380.125,161.774 380.051,161.381 379.975,160.991 379.884,160.611 379.791,160.23 379.696,159.848 379.6,159.465 379.501,159.083 379.391,158.714 379.279,158.344 379.164,157.975 379.041,157.602 378.914,157.257 378.785,156.914 378.647,156.58 378.507,156.246 378.363,155.914 378.229,155.583 378.091,155.253 377.95,154.922 377.785,154.597 377.615,154.27 377.441,153.942 377.25,153.602 377.054,153.258 376.902,152.935 376.748,152.62 376.59,152.304 376.43,151.987 376.264,151.665 376.096,151.346 375.927,151.028 375.72,150.712 375.512,150.399 375.305,150.089 375.067,149.751 374.879,149.439 374.688,149.125 374.503,148.818 374.316,148.512 374.129,148.207 373.94,147.904 373.682,147.571 373.42,147.236 373.152,146.898 372.928,146.6 372.708,146.293 372.485,145.984 372.247,145.667 372.008,145.35 371.745,145.028 371.507,144.734 371.265,144.439 371.02,144.141 370.768,143.842 370.513,143.542 370.256,143.241 369.997,142.94 369.744,142.645 369.488,142.349 369.23,142.052 368.969,141.744 368.711,141.429 368.451,141.114 368.197,140.808 367.944,140.506 367.693,140.215 367.441,139.924 367.18,139.624 366.921,139.327 366.66,139.017 366.399,138.718 366.137,138.417 365.872,138.114 365.608,137.824 365.344,137.534 365.079,137.245 364.797,136.943 364.52,136.662 364.242,136.38 363.963,136.098 363.707,135.814 363.451,135.531 363.196,135.25 362.942,134.971 362.661,134.711 362.381,134.452 362.102,134.194 361.827,133.921 361.572,133.64 361.317,133.362 361.065,133.086 360.782,132.847 360.501,132.609 360.22,132.372 359.938,132.134 359.651,131.875 359.371,131.584 359.093,131.297 358.821,131.049 358.532,130.834 358.242,130.62 357.95,130.408 357.653,130.18 357.353,129.953 357.022,129.667 356.734,129.421 356.447,129.176 356.159,128.932 355.859,128.731 355.552,128.521 355.245,128.312 354.937,128.103 354.631,127.913 354.326,127.674 354.022,127.439 353.668,127.18 353.313,126.924 353,126.738 352.679,126.559 352.358,126.382 352.035,126.206 351.713,126.031 351.348,125.801 350.982,125.572 350.654,125.365 350.327,125.159 350.002,124.956 349.688,124.795 349.375,124.635 349.061,124.475 348.737,124.311 348.413,124.147 348.088,123.982 347.756,123.775 347.422,123.567 347.089,123.358 346.764,123.156 346.44,122.954 346.122,122.774 345.811,122.604 345.501,122.435 345.192,122.265 344.885,122.096 344.565,121.896 344.245,121.696 343.926,121.495 343.597,121.283 343.27,121.072 342.954,120.893 342.629,120.708 342.306,120.523 341.985,120.339 341.66,120.163 341.338,119.987 340.999,119.788 340.668,119.603 340.341,119.42 340.016,119.239 339.673,119.052 339.343,118.882 339.015,118.714 338.691,118.553 338.369,118.395 338.048,118.239 337.712,118.081 337.376,117.927 337.033,117.776 336.706,117.629 336.38,117.487 336.054,117.35 335.707,117.228 335.358,117.113 335.008,117.004 334.68,116.895 334.349,116.792 334.015,116.694 333.655,116.607 333.291,116.527 332.923,116.453 332.56,116.381 332.193,116.314 331.822,116.252 331.44,116.204 331.054,116.16 330.665,116.122 330.273,116.088 329.877,116.057 329.48,116.034 329.083,116.012 328.688,115.993 328.303,115.962 327.911,115.934 327.509,115.907 327.104,115.882 326.709,115.858 326.313,115.834 325.913,115.811 325.509,115.791 325.102,115.77 324.71,115.751 324.316,115.732 323.92,115.713 323.519,115.699 323.117,115.685 322.729,115.674 322.34,115.664 321.949,115.655 321.547,115.65 321.145,115.646 320.758,115.642 320.37,115.639 319.984,115.637 319.577,115.644 319.171,115.652 318.779,115.659 318.388,115.667 317.999,115.675 317.588,115.702 317.18,115.728 316.78,115.744 316.382,115.761 315.987,115.778 315.583,115.812 315.181,115.847 314.784,115.867 314.39,115.888 313.998,115.909 313.606,115.941 313.216,115.974 312.829,116.008 312.429,116.046 312.031,116.086 311.645,116.144 311.26,116.205 310.877,116.267 310.482,116.328 310.089,116.391 309.727,116.459 309.366,116.527 309.004,116.597 308.624,116.662 308.243,116.728 307.861,116.794 307.5,116.859 307.137,116.924 306.753,116.989 306.372,117.048 305.99,117.108 305.626,117.17 305.261,117.231 304.895,117.292 304.521,117.362 304.147,117.433 303.783,117.503 303.418,117.572 303.053,117.64 302.675,117.713 302.297,117.785 301.92,117.855 301.548,117.927 301.177,117.997 300.79,118.072 300.404,118.147 300.019,118.222 299.641,118.292 299.264,118.362 298.887,118.433 298.519,118.515 298.151,118.599 297.777,118.688 297.404,118.779 297.034,118.872 296.681,118.962 296.321,119.06 295.963,119.161 295.593,119.269 295.225,119.379 294.858,119.49 294.514,119.601 294.17,119.715 293.816,119.837 293.461,119.96 293.106,120.082 292.769,120.196 292.432,120.313 292.095,120.432 291.747,120.569 291.399,120.708 291.051,120.852 290.718,120.998 290.389,121.156 290.06,121.318 289.73,121.497 289.4,121.68 289.068,121.867 288.741,122.054 288.408,122.24 288.074,122.428 287.742,122.615 287.41,122.805 287.077,122.997 286.758,123.199 286.439,123.404 286.119,123.614 285.802,123.822 285.484,124.033 285.167,124.221 284.849,124.41 284.54,124.588 284.23,124.765 283.919,124.942 283.589,125.165 283.258,125.389 282.926,125.614 282.605,125.825 282.284,126.037 281.977,126.203 281.66,126.381 281.342,126.558 281.025,126.734 280.718,126.897 280.397,127.104 280.077,127.309 279.73,127.536 279.383,127.76 279.036,127.981 278.724,128.141 278.411,128.299 278.098,128.457 277.775,128.625 277.453,128.793 277.13,128.963 276.816,129.171 276.503,129.381 276.191,129.594 275.881,129.809 275.525,130.066 275.206,130.259 274.89,130.451 274.58,130.639 274.271,130.827 273.965,131.016 273.619,131.283 273.274,131.551 272.93,131.819 272.635,132.035 272.336,132.248 272.037,132.461 271.724,132.694 271.41,132.932 271.082,133.201 270.788,133.435 270.492,133.673 270.193,133.914 269.893,134.151 269.581,134.404 269.268,134.66 268.955,134.916 268.659,135.166 268.363,135.415 268.068,135.663 267.758,135.929 267.459,136.161 267.16,136.391 266.862,136.62 266.567,136.844 266.272,137.066 265.979,137.292 265.663,137.541 265.346,137.79 265.028,138.039 264.728,138.255 264.427,138.471 264.124,138.686 263.822,138.899 263.506,139.11 263.189,139.32 262.872,139.53 262.567,139.725 262.261,139.919 261.946,140.134 261.639,140.344 261.332,140.553 261.027,140.762 260.704,140.988 260.395,141.18 260.086,141.372 259.777,141.565 259.469,141.758 259.162,141.951 258.824,142.207 258.487,142.464 258.15,142.722 257.839,142.954 257.527,143.155 257.215,143.357 256.905,143.56 256.582,143.776 256.261,143.992 255.92,144.258 255.61,144.501 255.302,144.744 254.995,144.985 254.67,145.203 254.347,145.42 254.026,145.635 253.722,145.836 253.42,146.035 253.123,146.259 252.782,146.523 252.44,146.787 252.098,147.052 251.797,147.24 251.494,147.428 251.19,147.615 250.883,147.803 250.563,148.006 250.212,148.263 249.857,148.521 249.537,148.751 249.213,148.98 248.891,149.151 248.564,149.338 248.236,149.525 247.906,149.712 247.584,149.891 247.252,150.114 246.918,150.337 246.571,150.558 246.222,150.779 245.872,151 245.543,151.181 245.213,151.362 244.882,151.543 244.548,151.723 244.212,151.902 243.853,152.121 243.519,152.321 243.184,152.519 242.85,152.715 242.491,152.921 242.153,153.091 241.803,153.264 241.454,153.437 241.106,153.61 240.772,153.775 240.439,153.938 240.087,154.13 239.768,154.301 239.45,154.472 239.134,154.641 238.784,154.835 238.437,155.029 238.107,155.203 237.757,155.399 237.408,155.594 237.06,155.79 236.735,155.962 236.395,156.153 236.056,156.345 235.74,156.518 235.424,156.692 235.109,156.869 234.773,157.072 234.453,157.264 234.133,157.458 233.791,157.685 233.449,157.914 233.128,158.107 232.802,158.313 232.476,158.518 232.149,158.725 231.825,158.934 231.485,159.181 231.144,159.43 230.817,159.65 230.49,159.87 230.161,160.09 229.844,160.288 229.528,160.488 229.211,160.689 228.894,160.889 228.573,161.088 228.242,161.308 227.912,161.527 227.57,161.766 227.227,162.003 226.918,162.183 226.586,162.382 226.255,162.58 225.924,162.778 225.615,162.955 225.273,163.186 224.932,163.414 224.6,163.639 224.267,163.862 223.934,164.082 223.616,164.249 223.297,164.415 222.978,164.579 222.652,164.751 222.326,164.925 221.989,165.145 221.655,165.365 221.322,165.587 220.991,165.813 220.639,166.068 220.321,166.254 220.004,166.438 219.691,166.619 219.378,166.801 219.067,166.983 218.708,167.255 218.35,167.527 217.992,167.798 217.682,168.019 217.374,168.199 217.067,168.379 216.748,168.575 216.43,168.773 216.112,168.973 215.804,169.211 215.497,169.45 215.191,169.691 214.888,169.933 214.566,170.161 214.246,170.388 213.928,170.612 213.626,170.814 213.325,171.015 213.03,171.245 212.707,171.53 212.385,171.812 212.064,172.092 211.766,172.292 211.467,172.492 211.168,172.69 210.869,172.888 210.543,173.144 210.215,173.4 209.885,173.654 209.582,173.869 209.277,174.084 208.97,174.283 208.645,174.494 208.32,174.705 207.994,174.919 207.685,175.133 207.376,175.348 207.066,175.563 206.738,175.792 206.41,176.022 206.089,176.231 205.781,176.438 205.474,176.645 205.168,176.852 204.863,177.059 204.553,177.272 204.244,177.484 203.937,177.697 203.627,177.915 203.33,178.128 203.035,178.339 202.714,178.573 202.396,178.808 202.08,179.044 201.766,179.276 201.456,179.507 201.153,179.735 200.855,179.96 200.567,180.189 200.277,180.422 199.988,180.656 199.701,180.9 199.406,181.14 199.113,181.38 198.841,181.596 198.572,181.811 198.304,182.026 198.036,182.264 197.768,182.527 197.501,182.789 197.235,183.05 196.947,183.303 196.666,183.53 196.386,183.755 196.105,183.978 195.822,184.242 195.538,184.505 195.253,184.767 194.966,185.027 194.667,185.248 194.367,185.468 194.063,185.686 193.745,185.921 193.43,186.161 193.112,186.4 192.81,186.625 192.505,186.849 192.197,187.072 191.869,187.269 191.53,187.466 191.188,187.664 190.843,187.863 190.509,188.056 190.189,188.266 189.866,188.476 189.541,188.668 189.214,188.859 188.883,189.051 188.563,189.223 188.241,189.397 187.917,189.572 187.586,189.745 187.255,189.919 186.93,190.108 186.61,190.317 186.289,190.528 185.969,190.741 185.64,190.949 185.314,191.14 184.989,191.331 184.679,191.517 184.37,191.703 184.061,191.89 183.74,192.078 183.415,192.285 183.091,192.491 182.772,192.704 182.452,192.917 182.151,193.104 181.834,193.291 181.517,193.479 181.2,193.666 180.883,193.855 180.583,194.044 180.27,194.247 179.958,194.451 179.634,194.657 179.31,194.864 178.985,195.071 178.675,195.277 178.365,195.484 178.055,195.69 177.743,195.877 177.432,196.065 177.097,196.282 176.783,196.479 176.469,196.676 176.156,196.874 175.816,197.098 175.509,197.294 175.201,197.489 174.894,197.684 174.564,197.911 174.251,198.098 173.937,198.286 173.595,198.507 173.253,198.728 172.91,198.949 172.574,199.187 172.238,199.424 171.901,199.661 171.595,199.863 171.289,200.064 170.945,200.269 170.622,200.468 170.297,200.664 169.972,200.86 169.638,201.064 169.33,201.268 169.021,201.473 168.67,201.741 168.319,202.011 167.995,202.22 167.676,202.423 167.356,202.626 167.037,202.829 166.717,203.033 166.372,203.304 166.027,203.577 165.705,203.81 165.383,204.043 165.073,204.229 164.755,204.42 164.437,204.611 164.118,204.802 163.809,204.984 163.481,205.214 163.153,205.444 162.821,205.681 162.49,205.919 162.172,206.106 161.855,206.292 161.541,206.477 161.227,206.662 160.914,206.847 160.601,207.031 160.278,207.257 159.956,207.482 159.613,207.723 159.27,207.962 158.944,208.144 158.632,208.328 158.321,208.512 158.01,208.695 157.691,208.888 157.347,209.137 157.005,209.386 156.699,209.614 156.394,209.844 156.09,210.074 155.775,210.296 155.461,210.517 155.148,210.737 154.847,210.934 154.544,211.168 154.241,211.402 153.94,211.635 153.608,211.922 153.291,212.162 152.976,212.401 152.674,212.605 152.374,212.81 152.074,213.016 151.744,213.292 151.414,213.568 151.084,213.843 150.778,214.072 150.48,214.284 150.183,214.495 149.886,214.705 149.568,214.948 149.251,215.206 148.937,215.465 148.629,215.699 148.323,215.933 148.038,216.15 147.746,216.379 147.455,216.609 147.165,216.838 146.876,217.067 146.579,217.301 146.284,217.535 145.989,217.768 145.703,218.013 145.417,218.257 145.133,218.501 144.846,218.75 144.561,218.999 144.27,219.241 143.979,219.481 143.694,219.721 143.409,219.96 143.128,220.216 142.841,220.475 142.555,220.734 142.269,220.992 141.971,221.239 141.683,221.476 141.395,221.713 141.107,221.949 140.821,222.207 140.534,222.465 140.246,222.723 139.957,222.981 139.67,223.202 139.381,223.423 139.091,223.645 138.799,223.87 138.505,224.097 138.213,224.351 137.919,224.606 137.639,224.841 137.358,225.077 137.069,225.288 136.777,225.509 136.483,225.732 136.187,225.955 135.884,226.212 135.6,226.449 135.314,226.688 135.027,226.928 134.729,227.148 134.429,227.369 134.128,227.591 133.832,227.799 133.534,228.007 133.242,228.246 132.949,228.485 132.628,228.757 132.307,229.029 132.002,229.246 131.701,229.449 131.4,229.653 131.098,229.857 130.796,230.064 130.47,230.334 130.144,230.605 129.844,230.838 129.544,231.071 129.244,231.271 128.944,231.471 128.642,231.677 128.342,231.882 128.023,232.134 127.722,232.361 127.422,232.586 127.123,232.811 126.811,233.054 126.509,233.259 126.208,233.464 125.907,233.668 125.612,233.868 125.317,234.067 125.015,234.283 124.708,234.514 124.401,234.745 124.095,234.975 123.799,235.176 123.504,235.377 123.21,235.577 122.917,235.777 122.618,235.977 122.316,236.198 122.015,236.418 121.71,236.625 121.406,236.831 121.104,237.037 120.803,237.239 120.503,237.44 120.204,237.641 119.907,237.842 119.609,238.067 119.307,238.275 119.006,238.483 118.712,238.69 118.419,238.896 118.121,239.109 117.822,239.343 117.525,239.574 117.23,239.804 116.937,240.032 116.641,240.231 116.347,240.428 116.055,240.625 115.765,240.821 115.476,241.016 115.18,241.247 114.887,241.476 114.6,241.691 114.315,241.905 114.023,242.104 113.732,242.306 113.443,242.507 113.155,242.708 112.869,242.909 112.586,243.124 112.305,243.339 112.024,243.553 111.741,243.785 111.459,244.018 111.172,244.228 110.886,244.438 110.607,244.636 110.329,244.834 110.051,245.032 109.776,245.266 109.5,245.5 " fill="none" stroke-width="1" stroke="rgb(0,0,255)" />
	<polyline points="360.5,200.5 360.805,200.258 361.109,200.016 361.395,199.752 361.679,199.49 361.963,199.229 362.247,198.973 362.528,198.722 362.809,198.471 363.09,198.22 363.363,197.967 363.62,197.727 363.878,197.487 364.136,197.243 364.395,196.998 364.639,196.761 364.885,196.524 365.134,196.288 365.385,196.051 365.627,195.826 365.87,195.6 366.114,195.373 366.371,195.133 366.63,194.891 366.869,194.652 367.109,194.412 367.362,194.176 367.617,193.938 367.882,193.711 368.161,193.472 368.439,193.234 368.716,192.996 368.977,192.745 369.236,192.506 369.494,192.268 369.751,192.03 370.03,191.812 370.32,191.579 370.611,191.347 370.902,191.115 371.184,190.894 371.447,190.652 371.71,190.411 371.973,190.17 372.261,189.914 372.565,189.672 372.869,189.43 373.17,189.215 373.473,189 373.746,188.755 374.018,188.512 374.323,188.246 374.625,187.983 374.924,187.751 375.211,187.539 375.498,187.327 375.784,187.115 376.07,186.904 376.364,186.635 376.658,186.367 376.95,186.099 377.237,185.881 377.523,185.664 377.809,185.447 378.093,185.23 378.394,184.991 378.686,184.723 378.977,184.456 379.27,184.203 379.563,183.948 379.876,183.716 380.195,183.475 380.514,183.234 380.832,182.993 381.142,182.729 381.457,182.477 381.771,182.224 382.086,181.971 382.399,181.762 382.712,181.553 383.024,181.344 383.332,181.142 383.638,180.941 383.933,180.755 384.214,180.582 384.491,180.402 384.763,180.214 385.034,180.027 385.27,179.856 385.5,179.683 385.725,179.501 385.943,179.309 " fill="none" stroke-width="1" stroke="rgb(0,0,255)" />
	<polyline points="358.5,251.5 358.609,250.807 358.705,250.006 358.793,249.226 358.877,248.349 358.948,247.497 359.019,246.654 359.086,245.73 359.129,244.796 359.174,243.778 359.206,242.777 359.24,241.732 359.267,240.725 359.301,239.69 359.331,238.695 359.376,237.681 359.419,236.704 359.492,235.732 359.57,234.819 359.716,234.008 359.838,233.296 359.953,232.535 360.053,231.807 360.139,231.066 360.217,230.255 360.279,229.403 360.326,228.44 360.363,227.491 360.392,226.504 360.42,225.538 360.444,224.611 360.465,223.647 360.485,222.717 360.507,221.735 360.531,220.768 360.559,219.769 360.598,218.753 360.648,217.809 360.725,216.812 360.803,215.949 360.891,214.928 360.899,213.995 360.962,212.863 360.986,211.741 361.011,210.5 361.026,209.33 361.017,208.135 361.01,207.097 360.939,206.094 360.901,205.275 360.842,204.476 360.784,203.693 360.74,203.019 360.68,202.348 360.623,201.687 360.568,201.093 360.5,200.5 " fill="none" stroke-width="1" stroke="rgb(0,0,255)" />
	<polyline points="358.5,251.5 358.6,251.92 358.665,252.315 358.73,252.709 358.795,253.104 358.87,253.485 358.941,253.865 359.013,254.236 359.071,254.59 359.128,254.943 359.173,255.279 359.217,255.615 359.261,255.95 359.301,256.271 359.343,256.592 359.384,256.913 " fill="none" stroke-width="1" stroke="rgb(0,0,255)" />
	<polyline points="314.669,302.463 314.728,302.092 314.776,301.72 314.824,301.349 314.873,300.98 314.916,300.611 314.959,300.242 315.003,299.875 315.034,299.541 315.065,299.202 315.097,298.856 315.127,298.511 315.158,298.16 315.188,297.812 315.219,297.458 315.25,297.097 315.285,296.727 315.319,296.35 315.355,295.966 315.397,295.575 315.44,295.178 315.505,294.797 315.569,294.42 315.634,294.046 315.694,293.654 315.754,293.274 315.814,292.904 315.877,292.563 315.94,292.221 316.004,291.88 316.096,291.499 316.189,291.118 316.278,290.76 316.367,290.404 316.458,290.049 316.557,289.684 316.657,289.321 316.757,288.958 316.852,288.62 316.947,288.284 317.043,287.949 317.116,287.614 317.19,287.277 317.266,286.936 317.348,286.613 317.431,286.289 317.516,285.965 317.611,285.617 317.706,285.272 317.802,284.93 317.892,284.613 317.984,284.295 318.103,283.964 318.237,283.616 318.372,283.267 318.51,282.917 318.647,282.577 318.785,282.238 318.924,281.9 319.071,281.562 319.194,281.227 319.319,280.89 319.437,280.574 319.555,280.26 319.673,279.948 319.805,279.623 319.938,279.297 320.084,278.977 320.244,278.649 320.405,278.323 320.567,277.997 320.717,277.686 320.868,277.376 321.02,277.066 321.156,276.759 321.292,276.454 321.428,276.151 321.578,275.84 321.728,275.528 321.88,275.217 322.033,274.906 322.195,274.59 322.358,274.276 322.52,273.964 322.672,273.671 322.824,273.378 322.979,273.086 323.14,272.776 323.302,272.467 323.464,272.159 323.628,271.852 323.806,271.541 323.985,271.231 324.144,270.942 324.319,270.629 324.495,270.317 324.671,270.007 324.845,269.715 325.019,269.426 325.234,269.106 325.434,268.797 325.636,268.488 325.84,268.179 326.047,267.871 326.246,267.582 326.446,267.296 326.647,267.012 326.84,266.73 327.035,266.448 327.261,266.154 327.49,265.86 327.738,265.566 327.988,265.274 328.236,264.995 328.451,264.719 328.668,264.443 328.886,264.168 329.106,263.895 329.361,263.63 329.619,263.365 329.879,263.101 330.117,262.844 330.349,262.581 330.582,262.318 330.818,262.056 331.055,261.812 331.316,261.572 331.578,261.332 331.841,261.095 332.087,260.855 332.337,260.602 332.589,260.349 332.843,260.096 333.099,259.861 333.369,259.642 333.638,259.426 333.907,259.212 334.166,258.977 334.432,258.733 334.7,258.491 334.968,258.251 335.243,258.031 335.529,257.823 335.817,257.617 336.105,257.413 336.375,257.206 336.647,257 336.944,256.772 337.237,256.574 337.529,256.379 337.822,256.186 338.114,255.996 338.388,255.808 338.661,255.622 338.935,255.439 339.217,255.265 339.5,255.094 339.783,254.924 340.081,254.76 340.366,254.587 340.648,254.419 340.929,254.254 341.221,254.115 341.513,253.978 341.798,253.826 342.081,253.678 342.354,253.537 342.627,253.4 342.899,253.266 343.196,253.117 343.494,252.972 343.787,252.854 344.08,252.738 344.369,252.615 344.658,252.493 344.947,252.374 345.245,252.261 345.543,252.149 345.842,252.039 346.147,251.937 346.438,251.835 346.73,251.735 347.023,251.638 347.331,251.548 347.639,251.46 347.948,251.375 348.26,251.299 348.573,251.225 348.886,251.154 349.231,251.109 349.575,251.063 349.917,251.017 350.277,251.007 350.636,250.996 350.993,250.976 351.331,250.963 351.667,250.954 352.002,250.947 352.349,250.94 352.694,250.935 353.038,250.933 353.367,250.943 353.695,250.955 354.022,250.968 354.37,250.989 354.717,251.01 355.071,251.047 355.42,251.087 355.768,251.128 356.117,251.169 356.463,251.214 356.809,251.261 357.155,251.31 357.489,251.355 357.823,251.401 358.157,251.448 358.5,251.5 " fill="none" stroke-width="1" stroke="rgb(0,0,255)" />
	<polyline points="358.5,251.5 358.816,251.647 359.132,251.793 359.439,251.919 359.747,252.045 360.04,252.172 360.342,252.301 360.643,252.43 360.944,252.56 361.232,252.695 361.519,252.831 361.806,252.969 362.106,253.106 362.41,253.256 362.714,253.406 363.018,253.556 363.314,253.693 363.611,253.829 363.908,253.965 364.198,254.098 364.489,254.23 364.78,254.362 365.071,254.493 365.362,254.626 365.653,254.757 365.945,254.887 366.239,255.017 366.544,255.164 366.849,255.311 367.161,255.458 367.472,255.604 367.785,255.75 368.097,255.895 368.401,256.042 368.706,256.184 369.013,256.324 369.316,256.469 369.619,256.613 369.923,256.757 370.235,256.9 370.549,257.041 370.866,257.197 371.183,257.348 371.5,257.5 " fill="none" stroke-width="1" stroke="rgb(0,0,255)" />
	<polyline points="258.5,410.5 258.495,410.065 258.498,409.641 258.5,409.22 258.503,408.801 258.496,408.374 258.488,407.949 258.494,407.538 258.501,407.129 258.488,406.704 258.476,406.279 258.465,405.857 258.471,405.449 258.477,405.043 258.462,404.626 258.448,404.21 258.435,403.796 258.439,403.397 258.443,402.995 258.44,402.6 258.437,402.201 258.435,401.8 258.433,401.397 258.431,400.983 258.431,400.588 258.431,400.186 258.432,399.771 258.434,399.35 258.437,398.924 258.44,398.506 258.443,398.085 258.445,397.628 258.447,397.163 258.453,396.696 258.459,396.224 258.468,395.724 258.478,395.225 258.515,394.747 258.552,394.274 258.591,393.805 258.64,393.349 258.69,392.906 258.74,392.459 258.791,392.023 258.848,391.617 258.907,391.211 258.969,390.774 259.032,390.339 259.107,389.908 259.193,389.523 259.28,389.138 259.374,388.716 259.472,388.287 259.573,387.851 259.669,387.458 259.767,387.065 259.866,386.62 259.967,386.177 260.059,385.783 260.153,385.386 260.248,384.988 260.349,384.535 260.45,384.088 260.547,383.695 260.646,383.3 260.746,382.904 260.849,382.462 260.953,382.026 261.069,381.611 261.187,381.194 261.311,380.771 261.438,380.343 261.568,379.91 261.717,379.505 261.867,379.099 262.02,378.691 262.181,378.273 262.344,377.852 262.495,377.453 262.647,377.055 262.8,376.655 262.955,376.253 263.105,375.87 263.27,375.477 263.437,375.085 263.588,374.718 263.739,374.352 263.891,373.988 264.06,373.618 264.248,373.233 264.437,372.848 264.624,372.46 264.813,372.072 265.004,371.698 265.19,371.332 265.376,370.965 265.555,370.601 265.733,370.239 265.912,369.88 266.118,369.517 266.324,369.157 266.558,368.767 266.794,368.376 267.033,367.982 267.239,367.608 267.446,367.234 267.654,366.86 267.84,366.501 268.028,366.141 268.264,365.775 268.504,365.405 268.748,365.032 269.037,364.611 269.23,364.248 269.423,363.888 269.634,363.52 269.846,363.153 270.046,362.795 270.347,362.376 270.651,361.956 270.908,361.591 271.103,361.24 271.299,360.889 271.502,360.539 271.703,360.193 271.902,359.852 272.096,359.519 272.336,359.177 272.577,358.833 272.844,358.453 273.115,358.068 273.314,357.729 273.513,357.39 273.712,357.051 273.913,356.711 274.174,356.343 274.435,355.977 274.711,355.606 274.983,355.242 275.176,354.906 275.375,354.576 275.574,354.248 275.773,353.921 275.986,353.584 276.283,353.205 276.582,352.823 276.852,352.471 277.131,352.109 277.4,351.737 277.665,351.371 277.927,351.009 278.206,350.663 278.483,350.32 278.758,349.979 279.097,349.632 279.375,349.29 279.65,348.951 279.879,348.624 280.108,348.298 280.367,347.976 280.68,347.646 280.992,347.318 281.26,346.987 281.482,346.669 281.703,346.35 281.923,346.033 282.224,345.702 282.526,345.37 282.829,345.037 283.074,344.718 283.321,344.388 283.565,344.06 283.854,343.721 284.139,343.384 284.425,343.06 284.684,342.732 284.94,342.406 285.21,342.077 285.512,341.758 285.809,341.441 286.102,341.125 286.395,340.789 286.69,340.451 286.986,340.111 287.275,339.818 287.555,339.528 287.826,339.241 288.089,338.956 288.356,338.66 288.615,338.369 288.865,338.081 289.092,337.82 289.333,337.546 289.577,337.271 289.823,336.993 290.049,336.687 290.296,336.368 290.54,336.051 290.802,335.761 291.065,335.471 291.323,335.177 291.582,334.883 291.799,334.572 292.015,334.263 292.267,333.946 292.528,333.633 " fill="none" stroke-width="1" stroke="rgb(0,0,255)" />
	<polyline points="295.611,330.92 296.053,330.23 296.024,329.509 295.991,328.778 296.206,328.242 296.421,327.675 296.63,327.117 296.828,326.609 297.024,326.104 297.392,325.524 297.831,324.911 298.487,324.114 298.792,323.594 299.35,322.882 300.281,321.972 300.661,321.396 301.034,320.827 302.153,319.66 302.453,319.162 302.877,318.51 303.239,317.924 303.577,317.358 304.262,316.534 304.873,315.818 305.42,315.158 306.062,314.421 306.698,313.733 307.274,313.076 307.943,312.366 308.602,311.7 309.264,310.976 309.97,310.237 310.592,309.525 311.229,308.795 311.919,308.029 312.425,307.363 312.95,306.672 313.517,305.943 314.088,305.181 314.5,304.5 " fill="none" stroke-width="1" stroke="rgb(0,0,255)" />
	<polyline points="314.5,304.5 314.541,304.011 314.585,303.495 314.629,302.981 314.669,302.463 " fill="none" stroke-width="1" stroke="rgb(0,0,255)" />
	<polyline points="340.5,324.5 340.135,324.388 339.767,324.267 339.399,324.146 339.031,324.025 338.65,323.897 338.268,323.769 337.885,323.639 337.518,323.481 337.149,323.321 336.784,323.183 336.418,323.043 336.078,322.914 335.741,322.779 335.404,322.643 335.068,322.506 334.75,322.37 334.432,322.234 334.114,322.097 333.792,321.96 333.459,321.793 333.126,321.626 332.794,321.468 332.462,321.31 332.13,321.15 331.815,320.98 331.504,320.834 331.193,320.686 330.884,320.538 330.587,320.393 330.292,320.247 329.998,320.1 329.694,319.948 329.391,319.774 329.09,319.599 328.78,319.415 328.472,319.23 328.166,319.045 327.884,318.891 327.6,318.727 327.317,318.562 327.035,318.396 326.758,318.228 326.484,318.059 326.199,317.854 325.914,317.647 325.648,317.461 325.385,317.273 325.124,317.084 324.858,316.904 324.592,316.722 324.328,316.538 324.065,316.351 323.801,316.143 323.542,315.934 323.292,315.736 323.044,315.537 322.795,315.327 322.548,315.115 322.304,314.9 322.06,314.682 321.816,314.446 321.575,314.208 321.336,313.968 321.103,313.737 320.869,313.483 320.637,313.228 320.408,312.97 320.18,312.707 319.955,312.442 319.744,312.173 319.536,311.903 319.321,311.636 319.108,311.367 318.891,311.093 318.694,310.814 318.499,310.534 318.308,310.254 318.12,309.974 317.953,309.678 317.787,309.382 317.623,309.082 317.471,308.781 317.32,308.474 317.17,308.163 317.021,307.846 316.811,307.512 316.606,307.181 316.409,306.853 316.233,306.538 316.06,306.226 315.921,305.922 315.769,305.597 315.624,305.27 315.486,304.941 315.365,304.603 315.246,304.261 315.128,303.916 315.023,303.552 314.901,303.189 314.78,302.827 314.669,302.463 " fill="none" stroke-width="1" stroke="rgb(0,0,255)" />
	<polyline points="314.5,304.5 314.5,304.5 314.5,304.5 314.5,304.5 " fill="none" stroke-width="1" stroke="rgb(0,0,255)" />
	<polyline points="292.528,333.633 288.232,329.873 " fill="none" stroke-width="1" stroke="rgb(0,0,255)" />
	<polyline points="291.5,331.5 291.795,331.728 292.09,331.957 292.388,332.184 292.687,332.412 292.985,332.639 293.271,332.829 293.557,333.018 293.852,333.255 294.146,333.491 294.446,333.731 294.745,333.971 295.038,334.205 295.334,334.409 295.63,334.613 295.926,334.816 296.212,335.044 296.511,335.275 296.809,335.506 297.108,335.736 297.408,335.965 297.712,336.182 298.017,336.399 298.304,336.622 298.592,336.844 298.882,337.064 299.191,337.282 299.5,337.5 " fill="none" stroke-width="1" stroke="rgb(0,0,255)" />
	<polyline points="299.5,337.5 299.617,337.78 299.733,338.061 299.852,338.338 299.972,338.615 300.079,338.877 300.187,339.141 300.296,339.405 300.406,339.669 300.518,339.932 300.63,340.189 300.742,340.447 300.855,340.705 300.968,340.964 301.084,341.228 301.2,341.493 301.316,341.759 301.432,342.027 301.542,342.291 301.651,342.556 301.759,342.822 301.867,343.09 301.974,343.355 302.073,343.61 302.171,343.866 302.269,344.124 302.364,344.39 302.457,344.659 302.55,344.928 302.643,345.195 302.734,345.464 302.824,345.735 302.912,346.007 302.998,346.29 303.076,346.606 303.153,346.923 303.226,347.243 303.299,347.564 303.372,347.886 303.444,348.224 303.516,348.563 303.588,348.902 303.644,349.249 303.699,349.597 303.752,349.945 303.806,350.306 303.857,350.667 303.906,351.029 303.935,351.386 303.959,351.742 303.98,352.098 304.003,352.456 304.041,352.806 304.077,353.157 304.103,353.508 304.127,353.86 304.145,354.214 304.161,354.568 304.174,354.923 304.179,355.272 304.182,355.621 304.183,355.971 304.177,356.327 304.169,356.682 304.159,357.037 304.142,357.389 304.122,357.74 304.1,358.092 304.068,358.446 304.034,358.799 303.997,359.152 303.953,359.507 303.908,359.861 303.863,360.23 303.815,360.599 303.764,360.968 303.698,361.331 303.629,361.695 303.558,362.059 303.48,362.401 303.399,362.744 303.315,363.088 303.229,363.45 303.141,363.813 303.051,364.178 302.959,364.514 302.873,364.842 302.776,365.199 302.676,365.557 302.575,365.916 302.482,366.234 302.388,366.554 302.293,366.875 302.181,367.217 302.066,367.559 301.949,367.902 301.832,368.221 301.712,368.54 301.591,368.861 301.453,369.202 301.315,369.545 301.174,369.889 301.047,370.201 300.931,370.512 300.814,370.824 300.696,371.137 300.559,371.469 300.42,371.802 300.281,372.135 300.159,372.443 300.037,372.753 299.895,373.058 299.724,373.393 299.551,373.728 299.374,374.065 299.219,374.371 299.061,374.678 298.93,374.981 298.783,375.299 298.636,375.616 298.488,375.933 298.357,376.234 298.226,376.536 298.095,376.837 297.963,377.139 297.777,377.477 297.589,377.814 297.399,378.15 297.224,378.463 297.048,378.775 296.911,379.074 296.766,379.381 296.621,379.687 296.475,379.991 296.336,380.292 296.197,380.592 296.059,380.891 295.867,381.227 295.674,381.561 295.482,381.894 295.292,382.207 295.102,382.518 294.912,382.828 294.765,383.123 294.615,383.421 294.463,383.718 294.311,384.013 294.161,384.309 294.01,384.604 293.818,384.907 293.621,385.234 293.424,385.56 293.227,385.885 293.03,386.184 292.875,386.48 292.719,386.774 292.562,387.067 292.39,387.362 292.219,387.655 292.046,387.948 291.841,388.235 291.635,388.521 291.427,388.806 291.218,389.091 290.984,389.4 290.79,389.688 290.595,389.975 290.407,390.257 290.217,390.538 290.028,390.819 289.816,391.096 289.572,391.384 289.329,391.67 289.084,391.956 288.878,392.24 288.672,392.525 288.465,392.808 288.257,393.091 288.037,393.38 287.807,393.654 287.576,393.928 287.346,394.215 287.118,394.501 286.89,394.788 286.657,395.096 286.423,395.379 286.19,395.663 285.957,395.946 285.711,396.231 285.464,396.515 285.217,396.798 284.969,397.08 284.732,397.357 284.495,397.632 284.257,397.907 284.002,398.189 283.749,398.465 283.496,398.741 283.241,399.016 283.008,399.283 282.764,399.55 282.52,399.817 282.276,400.084 282.008,400.347 281.746,400.618 281.482,400.887 281.238,401.158 280.993,401.427 280.747,401.671 280.499,401.914 280.235,402.139 279.971,402.363 279.703,402.609 279.434,402.852 279.165,403.092 278.899,403.354 278.643,403.576 278.387,403.794 278.131,404.009 277.845,404.24 277.558,404.466 277.27,404.69 276.981,404.91 276.717,405.104 276.453,405.296 276.188,405.486 275.922,405.672 275.617,405.906 275.317,406.113 275.018,406.317 274.727,406.501 274.436,406.681 274.146,406.856 273.85,407.04 273.547,407.213 273.243,407.385 272.938,407.555 272.646,407.721 272.353,407.883 272.059,408.043 271.754,408.164 271.449,408.283 271.143,408.399 270.84,408.511 270.537,408.62 270.233,408.726 269.928,408.829 269.629,408.918 269.33,409.005 269.012,409.106 268.676,409.208 268.34,409.309 268.005,409.408 267.663,409.482 267.322,409.555 266.981,409.625 266.635,409.687 266.29,409.746 265.945,409.803 265.612,409.846 265.28,409.887 264.948,409.926 264.61,409.961 264.272,409.993 263.94,410.031 263.614,410.065 263.288,410.097 262.962,410.129 262.619,410.159 262.275,410.188 261.931,410.217 261.595,410.249 261.259,410.282 260.922,410.314 260.575,410.339 260.228,410.364 259.881,410.389 259.537,410.419 259.193,410.449 258.849,410.48 258.5,410.5 " fill="none" stroke-width="1" stroke="rgb(0,0,255)" />
	<polyline points="258.5,410.5 258.192,410.343 257.883,410.187 257.565,410.022 257.251,409.855 256.936,409.688 256.632,409.517 256.327,409.346 256.021,409.175 255.714,408.999 255.397,408.819 255.079,408.638 254.78,408.468 254.48,408.297 254.18,408.127 253.88,407.956 253.584,407.772 253.286,407.588 252.988,407.403 252.687,407.211 252.386,407.018 252.097,406.85 251.81,406.68 251.523,406.509 251.235,406.339 250.946,406.167 250.664,405.999 250.359,405.798 250.053,405.597 249.776,405.404 249.498,405.211 249.221,405.018 248.951,404.859 248.679,404.697 248.407,404.534 248.135,404.371 247.865,404.209 247.594,404.045 247.324,403.855 247.054,403.664 246.749,403.455 246.44,403.242 246.129,403.028 245.845,402.853 245.56,402.677 245.274,402.5 244.987,402.323 244.702,402.144 244.415,401.963 244.106,401.744 243.816,401.539 243.529,401.336 243.245,401.135 242.963,400.936 242.687,400.762 242.412,400.588 242.137,400.415 241.863,400.241 241.587,400.065 241.313,399.872 241.038,399.679 240.763,399.48 240.487,399.281 240.211,399.082 239.932,398.902 239.665,398.718 239.397,398.534 239.13,398.35 238.85,398.172 238.57,397.994 238.289,397.804 238.01,397.614 237.734,397.426 237.459,397.239 237.184,397.051 236.918,396.871 236.632,396.688 236.347,396.506 236.063,396.324 235.793,396.147 235.524,395.97 235.24,395.783 234.957,395.596 234.669,395.413 234.382,395.231 234.096,395.049 233.794,394.845 233.494,394.642 233.196,394.44 232.899,394.24 232.601,394.03 232.298,393.827 231.996,393.623 231.695,393.4 231.394,393.177 231.092,392.954 230.796,392.727 230.5,392.5 " fill="none" stroke-width="1" stroke="rgb(0,0,255)" />
	<polyline points="295.611,330.92 299.5,337.5 " fill="none" stroke-width="1" stroke="rgb(0,0,255)" />
	<polyline points="288.232,329.873 287.943,329.809 287.682,329.743 287.422,329.676 287.161,329.61 286.9,329.544 286.635,329.472 286.37,329.4 286.104,329.328 285.846,329.255 285.587,329.182 285.328,329.108 285.068,329.033 284.805,328.962 284.54,328.891 284.274,328.82 284.007,328.747 283.732,328.674 283.456,328.599 283.179,328.524 282.9,328.449 282.617,328.37 282.333,328.29 282.048,328.209 281.751,328.126 281.452,328.043 281.158,327.95 280.862,327.856 280.55,327.764 280.236,327.67 279.919,327.576 279.591,327.486 279.26,327.395 278.928,327.304 278.595,327.213 278.26,327.122 277.923,327.032 277.592,326.951 277.259,326.871 276.923,326.791 276.57,326.716 276.215,326.641 275.858,326.568 275.509,326.494 275.158,326.422 274.782,326.359 274.403,326.296 274.021,326.236 273.64,326.193 273.255,326.154 272.864,326.117 272.455,326.106 272.043,326.098 271.654,326.091 271.265,326.088 270.876,326.088 270.485,326.093 270.096,326.101 269.712,326.11 269.33,326.121 268.95,326.136 268.577,326.163 268.207,326.193 267.839,326.226 267.473,326.276 267.109,326.329 266.747,326.384 266.387,326.443 266.028,326.504 265.669,326.577 265.311,326.653 264.955,326.732 264.602,326.823 264.251,326.916 263.901,327.013 263.565,327.173 263.23,327.341 262.896,327.514 262.564,327.681 262.233,327.852 261.903,328.028 261.58,328.192 261.257,328.359 260.935,328.528 260.613,328.702 260.291,328.879 259.97,329.058 259.662,329.253 259.354,329.451 259.046,329.651 258.723,329.871 258.401,330.092 258.058,330.304 257.733,330.519 257.409,330.737 257.087,330.956 256.769,331.211 256.451,331.467 256.135,331.726 255.833,331.965 255.516,332.213 255.2,332.462 254.884,332.713 254.565,333.004 254.272,333.281 253.982,333.56 253.692,333.834 253.402,334.111 253.108,334.386 252.834,334.682 252.56,334.98 252.284,335.282 252.008,335.588 251.723,335.891 251.448,336.186 251.174,336.483 250.899,336.782 250.638,337.083 250.372,337.397 250.105,337.713 249.83,338.029 249.577,338.332 249.326,338.638 249.076,338.945 248.827,339.264 248.579,339.585 248.331,339.908 248.096,340.224 247.85,340.541 247.604,340.86 247.373,341.177 247.143,341.495 246.914,341.813 246.708,342.138 246.498,342.467 246.29,342.796 246.083,343.126 245.868,343.456 245.655,343.787 245.445,344.12 245.232,344.462 245.02,344.805 244.826,345.147 244.656,345.482 244.488,345.818 244.322,346.155 244.139,346.506 243.957,346.858 243.764,347.204 243.573,347.552 243.383,347.901 243.207,348.247 243.031,348.595 242.847,348.955 242.687,349.291 242.528,349.627 242.37,349.965 242.195,350.327 242.02,350.689 241.861,351.033 241.688,351.377 241.516,351.722 241.343,352.066 241.183,352.409 241.023,352.751 240.838,353.112 240.67,353.445 240.503,353.779 240.336,354.113 240.153,354.472 239.971,354.83 239.823,355.168 239.666,355.513 239.51,355.858 239.362,356.194 239.215,356.529 239.067,356.865 238.889,357.212 238.711,357.559 238.534,357.906 238.336,358.274 238.138,358.641 237.941,359.008 237.793,359.358 237.645,359.71 237.499,360.061 237.361,360.4 237.221,360.739 237.079,361.079 236.926,361.438 236.743,361.806 236.556,362.197 236.371,362.588 236.189,362.982 236.022,363.359 235.881,363.737 235.742,364.114 235.623,364.471 235.505,364.828 235.359,365.203 235.212,365.577 235.061,365.953 234.94,366.33 234.795,366.715 234.657,367.097 234.518,367.481 234.381,367.864 234.254,368.253 234.128,368.641 234.005,369.028 233.895,369.405 233.786,369.782 233.679,370.16 233.585,370.523 233.493,370.887 233.38,371.259 233.268,371.632 233.155,372.003 233.067,372.366 232.981,372.729 232.876,373.116 232.777,373.507 232.678,373.897 232.584,374.303 232.491,374.708 232.401,375.112 232.318,375.503 232.236,375.894 232.161,376.304 232.088,376.714 232.017,377.123 231.969,377.502 231.921,377.881 231.874,378.281 231.829,378.681 231.784,379.08 231.742,379.46 231.701,379.838 231.652,380.243 231.604,380.646 231.556,381.048 231.509,381.424 231.46,381.798 231.41,382.17 231.334,382.567 231.258,382.962 231.205,383.321 231.152,383.679 231.101,384.035 231.063,384.419 231.027,384.8 230.994,385.18 230.962,385.56 230.931,385.939 230.902,386.328 230.874,386.715 230.846,387.1 230.822,387.485 230.8,387.868 230.774,388.244 230.75,388.619 230.729,388.992 230.71,389.359 230.692,389.725 230.676,390.09 230.651,390.438 230.629,390.785 230.608,391.132 230.584,391.477 230.559,391.822 230.533,392.166 230.5,392.5 " fill="none" stroke-width="1" stroke="rgb(0,0,255)" />
	<polyline points="288.232,329.873 288.591,330.058 288.931,330.228 289.232,330.363 289.533,330.498 289.834,330.631 290.136,330.764 290.469,330.942 290.818,331.127 291.168,331.311 291.5,331.5 " fill="none" stroke-width="1" stroke="rgb(0,0,255)" />
	<polyline points="371.5,257.5 371.667,257.818 371.835,258.137 371.999,258.451 372.158,258.78 372.316,259.11 372.477,259.434 372.637,259.759 372.797,260.084 372.948,260.41 373.101,260.728 373.253,261.048 373.405,261.372 373.555,261.697 373.703,262.024 373.839,262.348 373.972,262.673 374.089,263.001 374.204,263.342 374.318,263.685 374.431,264.028 374.535,264.354 374.638,264.681 374.739,265.01 374.827,265.357 374.912,265.706 374.996,266.056 375.075,266.43 375.152,266.805 375.227,267.181 375.284,267.563 375.339,267.945 375.388,268.327 375.435,268.709 375.479,269.092 375.512,269.468 375.542,269.845 375.568,270.224 375.592,270.604 375.613,270.985 375.626,271.355 375.637,271.727 375.645,272.099 375.647,272.478 375.647,272.859 375.637,273.228 375.626,273.597 375.611,273.968 375.588,274.35 375.562,274.733 375.532,275.119 375.494,275.486 375.453,275.854 375.401,276.235 375.345,276.617 375.287,277.002 375.221,277.365 375.153,277.73 375.082,278.097 375.005,278.468 374.953,278.812 374.898,279.156 374.836,279.497 374.771,279.839 374.704,280.174 374.635,280.509 374.565,280.843 374.483,281.179 374.401,281.516 374.319,281.854 374.239,282.185 374.157,282.516 374.073,282.846 373.981,283.179 373.852,283.541 373.721,283.905 373.607,284.248 373.492,284.592 373.375,284.937 373.247,285.299 373.117,285.661 372.987,286.024 372.893,286.363 372.798,286.702 372.701,287.041 372.589,287.404 372.477,287.767 372.365,288.131 372.259,288.478 372.152,288.824 372.029,289.196 371.869,289.572 371.707,289.947 371.546,290.31 371.383,290.673 371.219,291.036 371.044,291.398 370.9,291.75 370.755,292.102 370.607,292.445 370.459,292.788 370.312,293.131 370.158,293.472 370.003,293.813 369.828,294.155 369.65,294.496 369.471,294.836 369.289,295.181 369.106,295.525 368.923,295.869 368.765,296.201 368.606,296.533 368.446,296.864 368.28,297.185 368.113,297.505 367.944,297.824 367.764,298.164 367.585,298.501 367.404,298.837 367.223,299.179 367.04,299.52 366.87,299.843 366.705,300.166 366.541,300.49 366.377,300.814 366.212,301.139 366.031,301.48 365.85,301.824 365.668,302.167 365.464,302.538 365.259,302.907 365.07,303.239 364.87,303.569 364.67,303.897 364.48,304.221 364.289,304.544 364.095,304.866 363.895,305.186 363.694,305.505 363.492,305.823 363.289,306.141 363.079,306.473 362.87,306.793 362.66,307.111 362.439,307.429 362.218,307.746 361.997,308.062 361.788,308.382 361.578,308.701 361.367,309.018 361.128,309.348 360.888,309.677 360.647,309.986 360.408,310.303 360.167,310.618 359.927,310.932 359.684,311.244 359.442,311.554 359.198,311.863 358.965,312.173 358.712,312.479 358.456,312.784 358.199,313.087 357.937,313.381 357.689,313.661 357.44,313.94 357.193,314.235 356.948,314.529 356.649,314.802 356.35,315.073 356.075,315.345 355.822,315.618 355.567,315.89 355.292,316.177 355.017,316.463 354.727,316.696 354.437,316.927 354.161,317.172 353.885,317.415 353.61,317.695 353.333,317.973 353.039,318.231 352.759,318.434 352.479,318.635 352.198,318.833 351.918,319.028 351.608,319.296 351.298,319.561 350.987,319.823 350.708,320.041 350.42,320.223 350.132,320.405 349.842,320.598 349.551,320.789 349.261,320.978 348.947,321.189 348.656,321.381 348.363,321.569 348.069,321.753 347.76,321.919 347.45,322.08 347.124,322.217 346.802,322.349 346.48,322.481 346.158,322.611 345.826,322.731 345.493,322.85 345.16,322.966 344.808,323.101 344.456,323.234 344.104,323.367 343.751,323.512 343.397,323.655 343.044,323.797 342.685,323.913 342.327,324.029 341.968,324.122 341.601,324.221 341.234,324.32 340.867,324.419 340.5,324.5 " fill="none" stroke-width="1" stroke="rgb(0,0,255)" />
	<polyline points="340.5,324.5 340.503,324.023 340.483,323.525 340.464,323.026 340.464,322.545 340.465,322.065 340.448,321.57 340.431,321.076 340.426,320.599 340.421,320.122 340.406,319.635 340.392,319.148 340.379,318.682 340.367,318.21 340.367,317.733 340.367,317.247 340.368,316.755 340.37,316.259 340.387,315.734 340.405,315.185 340.425,314.617 340.446,314.036 340.5,313.499 340.556,312.957 340.613,312.4 340.671,311.848 340.727,311.316 340.782,310.801 340.831,310.267 340.882,309.74 340.927,309.227 340.961,308.685 340.995,308.166 341.021,307.641 341.049,307.119 341.075,306.596 341.102,306.073 341.135,305.555 341.17,305.039 341.206,304.516 341.25,303.992 341.315,303.479 341.38,302.964 341.449,302.432 341.52,301.892 341.62,301.395 341.722,300.899 341.83,300.385 341.945,299.866 342.055,299.393 342.146,298.874 342.255,298.354 342.367,297.83 342.479,297.346 342.594,296.858 342.732,296.376 342.872,295.896 343.011,295.44 343.193,294.939 343.347,294.5 343.505,294.058 343.687,293.6 343.874,293.139 344.048,292.709 344.272,292.262 344.503,291.807 344.729,291.36 344.959,290.907 345.149,290.483 345.341,290.056 345.558,289.61 345.778,289.16 345.988,288.729 346.262,288.262 346.539,287.795 346.79,287.357 347.044,286.918 347.261,286.497 347.479,286.074 347.685,285.661 347.89,285.248 348.116,284.839 348.357,284.404 348.6,283.969 348.83,283.56 349.063,283.15 349.294,282.719 349.524,282.294 349.752,281.875 349.978,281.465 350.241,281.046 350.526,280.593 350.815,280.137 351.099,279.695 351.331,279.277 351.563,278.86 351.78,278.454 351.996,278.05 352.312,277.592 352.631,277.131 352.939,276.678 353.153,276.284 353.367,275.895 353.59,275.505 353.814,275.116 354.03,274.737 354.352,274.296 354.673,273.858 355.039,273.384 355.265,273.007 355.493,272.64 355.721,272.279 355.947,271.924 356.341,271.458 356.735,270.996 357.097,270.574 357.358,270.204 357.621,269.835 357.959,269.418 358.412,269.029 358.793,268.622 359.182,268.208 359.494,267.819 359.949,267.372 360.348,267.053 360.737,266.665 361.12,266.285 361.465,265.889 361.869,265.561 362.225,265.286 362.579,265.014 362.975,264.655 363.405,264.27 363.831,263.889 364.183,263.638 364.535,263.388 364.887,263.138 365.319,262.759 365.75,262.381 366.177,262.004 366.549,261.736 366.922,261.464 367.334,261.161 367.773,260.842 368.211,260.416 368.64,260.017 369.064,259.692 369.491,259.35 369.92,259.009 370.313,258.628 370.706,258.249 371.099,257.872 371.5,257.5 " fill="none" stroke-width="1" stroke="rgb(0,0,255)" />
</g></svg>
