<?xml version="1.0" ?>
<svg xmlns="http://www.w3.org/2000/svg" xmlns:ev="http://www.w3.org/2001/xml-events" xmlns:xlink="http://www.w3.org/1999/xlink" baseProfile="full" height="600px" version="1.1" viewBox="68.87584937718375 86.0450875 342.015682473795 354.084825" width="580px">
	<defs/>
	<path d="M 382.2673812281625,181.84581544480986 L 380.051,161.381 L 379.164,157.975 L 377.785,154.597 L 375.927,151.028 L 373.94,147.904 L 371.507,144.734 L 366.66,139.017 L 361.065,133.086 L 358.821,131.049 L 356.159,128.932 L 353.313,126.924 L 341.985,120.339 L 337.376,117.927 L 334.015,116.694 L 331.44,116.204 L 323.92,115.713 L 317.999,115.675 L 312.829,116.008 L 310.089,116.391 L 298.887,118.433 L 294.514,119.601 L 290.06,121.318 L 287.077,122.997 L 279.036,127.981 L 277.13,128.963 L 273.965,131.016 L 264.427,138.471 L 259.162,141.951 L 249.213,148.98 L 242.491,152.921 L 234.453,157.264 L 227.227,162.003 L 222.326,164.925 L 216.112,168.973 L 212.064,172.092 L 200.855,179.96 L 194.966,185.027 L 192.197,187.072 L 186.93,190.108 L 180.583,194.044 L 169.638,201.064 L 162.49,205.919 L 157.691,208.888 L 152.074,213.016 L 145.989,217.768 L 139.957,222.981 L 132.307,229.029 L 115.476,241.016 L 108.11,246.539" fill="none" stroke="rgb(31,119,180)" stroke-width="3"/>
	<path d="M 208.904,340.431 L 224.376,322.93 L 227.768,319.903 L 234.082,313.818 L 244.103,305.116 L 260.531,290.034 L 264.674,286.065 L 274.039,276.338 L 275.998,274.496 L 283.276,268.02 L 287.084,265.112 L 300.045,254.559 L 318.116,238.112 L 328.245,227.823 L 335.121,221.844 L 341.082,217.151 L 349.72,208.999 L 360.5,200.5" fill="none" stroke="rgb(174,199,232)" stroke-width="3"/>
	<path d="M 116.5,286.5 L 119.536,306.01 L 120.014,313.28 L 120.773,320.128 L 121.236,326.099 L 122.38,335.081 L 123.413,340.891 L 124.774,347.098 L 125.822,350.38 L 126.946,352.725 L 129.031,355.764 L 131.328,357.775 L 139.583,362.908 L 144.078,365.941 L 146.04,367.038 L 160.016,376.916 L 173.842,385.923 L 183.904,392.964 L 195.492,400.081 L 206.884,406.041 L 212.5,408.5" fill="none" stroke="rgb(255,127,14)" stroke-width="3"/>
	<path d="M 108.11,246.539 L 111.635,248.066 L 113.314,248.437 L 116.232,248.15 L 119.153,248.157 L 121.513,248.405 L 124.484,249.022 L 131.145,250.944 L 142.137,255.155 L 147.022,257.687 L 153.89,261.894 L 162.346,268.109 L 165.993,271.16 L 167.918,272.931 L 169.978,275.159 L 174.872,280.991 L 180.172,286.951 L 185.0,293.085 L 190.926,301.645 L 197.098,311.484 L 201.219,319.057 L 202.827,323.224 L 203.329,324.941 L 204.119,330.639" fill="none" stroke="rgb(255,187,120)" stroke-width="3"/>
	<path d="M 292.528,333.633 L 277.923,327.032 L 274.021,326.236 L 269.33,326.121 L 266.028,326.504 L 263.565,327.173 L 259.97,329.058 L 257.409,330.737 L 254.565,333.004 L 250.899,336.782 L 247.373,341.177 L 244.826,345.147 L 237.941,359.008 L 236.022,363.359 L 235.061,365.953 L 233.155,372.003 L 232.017,377.123 L 231.063,384.419 L 230.5,392.5" fill="none" stroke="rgb(44,160,44)" stroke-width="3"/>
	<path d="M 116.5,286.5 L 122.987,290.026 L 138.063,297.637 L 150.406,305.064 L 153.879,306.953 L 160.235,309.985 L 169.869,315.675 L 177.139,320.237 L 187.814,325.938 L 192.537,328.05 L 197.538,329.743 L 200.108,330.258 L 204.119,330.639" fill="none" stroke="rgb(152,223,138)" stroke-width="3"/>
	<path d="M 292.528,333.633 L 302.364,344.39 L 302.998,346.29 L 303.588,348.902 L 303.906,351.029 L 304.161,354.568 L 303.997,359.152 L 303.698,361.331 L 303.051,364.178 L 301.591,368.861 L 300.037,372.753 L 297.963,377.139 L 294.01,384.604 L 292.046,387.948 L 290.028,390.819 L 285.957,395.946 L 280.747,401.671 L 276.717,405.104 L 274.727,406.501 L 272.059,408.043 L 268.34,409.309 L 265.28,409.887 L 258.5,410.5" fill="none" stroke="rgb(214,39,40)" stroke-width="3"/>
	<path d="M 258.5,410.5 L 258.478,395.225 L 259.032,390.339 L 261.438,380.343 L 263.891,373.988 L 265.912,369.88 L 268.028,366.141 L 272.096,359.519 L 275.986,353.584 L 281.923,346.033 L 285.21,342.077 L 289.823,336.993 L 292.528,333.633" fill="none" stroke="rgb(255,152,150)" stroke-width="3"/>
	<path d="M 371.5,257.5 L 373.972,262.673 L 374.996,266.056 L 375.542,269.845 L 375.611,273.968 L 375.287,277.002 L 373.981,283.179 L 372.029,289.196 L 370.003,293.813 L 365.668,302.167 L 363.694,305.505 L 360.888,309.677 L 356.948,314.529 L 353.039,318.231 L 350.708,320.041 L 348.069,321.753 L 343.044,323.797 L 340.5,324.5" fill="none" stroke="rgb(148,103,189)" stroke-width="3"/>
	<path d="M 340.5,324.5 L 340.446,314.036 L 341.25,303.992 L 341.52,301.892 L 342.594,296.858 L 344.048,292.709 L 345.988,288.729 L 349.978,281.465 L 354.03,274.737 L 355.947,271.924 L 357.959,269.418 L 361.465,265.889 L 367.773,260.842 L 371.5,257.5" fill="none" stroke="rgb(197,176,213)" stroke-width="3"/>
	<path d="M 314.669,302.463 L 315.44,295.178 L 315.94,292.221 L 318.103,283.964 L 319.938,279.297 L 323.628,271.852 L 326.047,267.871 L 329.106,263.895 L 332.843,260.096 L 335.243,258.031 L 339.217,255.265 L 343.494,252.972 L 347.023,251.638 L 349.917,251.017 L 354.022,250.968 L 358.5,251.5" fill="none" stroke="rgb(140,86,75)" stroke-width="3"/>
	<path d="M 212.5,408.5 L 211.84,393.974 L 210.975,387.059 L 210.541,377.707 L 209.635,370.098 L 209.353,359.005 L 208.876,350.579 L 208.904,340.431" fill="none" stroke="rgb(196,156,148)" stroke-width="3"/>
	<path d="M 358.5,251.5 L 359.086,245.73 L 359.492,235.732 L 360.279,229.403 L 360.598,218.753 L 360.891,214.928 L 361.01,207.097 L 360.5,200.5" fill="none" stroke="rgb(227,119,194)" stroke-width="3"/>
	<path d="M 340.5,324.5 L 333.792,321.96 L 329.694,319.948 L 326.484,318.059 L 322.548,315.115 L 320.18,312.707 L 318.12,309.974 L 315.769,305.597 L 314.669,302.463" fill="none" stroke="rgb(247,182,210)" stroke-width="3"/>
	<path d="M 258.5,410.5 L 253.88,407.956 L 247.594,404.045 L 230.5,392.5" fill="none" stroke="rgb(127,127,127)" stroke-width="3"/>
	<path d="M 360.5,200.5 L 367.617,193.938 L 372.261,189.914 L 382.086,181.971 L 382.2673812281625,181.84581544480986" fill="none" stroke="rgb(199,199,199)" stroke-width="3"/>
	<path d="M 292.528,333.633 L 296.053,330.23 L 295.991,328.778 L 297.024,326.104 L 297.392,325.524 L 299.35,322.882 L 300.281,321.972 L 301.034,320.827 L 302.153,319.66 L 303.577,317.358 L 306.062,314.421 L 311.919,308.029 L 314.669,302.463" fill="none" stroke="rgb(188,189,34)" stroke-width="3"/>
	<path d="M 97.5,275.5 L 97.8513,270.688 L 98.5839,265.577 L 99.2596,262.656 L 100.472,259.017 L 102.263,254.969 L 103.383,253.008 L 106.0,249.233 L 108.11,246.539" fill="none" stroke="rgb(219,219,141)" stroke-width="3"/>
	<path d="M 116.5,286.5 L 104.159,279.062 L 97.5,275.5" fill="none" stroke="rgb(23,190,207)" stroke-width="3"/>
	<path d="M 212.5,408.5 L 224.276,397.981 L 230.5,392.5" fill="none" stroke="rgb(158,218,229)" stroke-width="3"/>
	<path d="M 358.5,251.5 L 371.5,257.5" fill="none" stroke="rgb(31,119,180)" stroke-width="3"/>
	<path d="M 204.119,330.639 L 206.02,334.193 L 208.904,340.431" fill="none" stroke="rgb(174,199,232)" stroke-width="3"/>
</svg>
