<?xml version="1.0" ?>
<svg xmlns="http://www.w3.org/2000/svg" xmlns:ev="http://www.w3.org/2001/xml-events" xmlns:xlink="http://www.w3.org/1999/xlink" baseProfile="full" height="600px" version="1.1" viewBox="-12.637294300000004 -10.639784300000002 500.0998886 543.6309686" width="552px">
	<defs/>
	<path d="M 38.5,82.5 L 40.9494,81.8086 L 52.1696,77.233 L 58.1616,75.1765 L 62.2854,74.2054 L 70.944,72.6432 L 84.8682,68.8616 L 92.7607,67.45 L 110.839,63.0312 L 127.265,59.856 L 139.681,57.0057 L 152.212,55.3248 L 174.119,51.3194 L 185.909,48.6089 L 196.089,46.8375 L 212.016,44.7567 L 220.999,43.833 L 232.877,42.8716 L 251.219,39.5499 L 258.828,38.6223 L 270.113,36.97 L 275.058,36.5392 L 285.795,36.1061 L 298.83,34.8514 L 302.835,34.8517 L 312.189,35.2771 L 324.748,35.1276 L 334.839,35.5719 L 344.697,36.3539 L 357.16,36.7945 L 366.929,37.4334 L 371.5,37.5" fill="none" stroke="rgb(31,119,180)" stroke-width="3"/>
	<path d="M 118.537,178.94 L 138.896,180.155 L 144.937,179.065 L 159.065,177.314 L 174.2,174.675 L 183.668,173.299 L 199.693,171.821 L 214.043,169.303 L 226.079,167.688 L 236.986,164.79 L 240.845,163.994 L 244.901,163.483 L 254.056,162.742 L 258.126,162.26 L 267.829,160.647 L 275.775,159.529 L 289.099,156.967 L 298.044,155.643 L 301.954,154.815 L 310.802,152.063 L 322.944,149.031 L 340.127,143.99 L 349.188,140.987 L 359.345,137.99 L 367.852,134.914 L 372.956,132.819 L 383.107,128.028 L 407.399,118.015 L 426.814,108.742 L 433.784,105.073 L 437.5,103.5" fill="none" stroke="rgb(174,199,232)" stroke-width="3"/>
	<path d="M 122.5,448.5 L 125.891,448.331 L 129.217,447.776 L 145.55,443.963 L 167.175,439.595 L 177.815,436.844 L 192.062,433.628 L 210.472,428.016 L 213.718,426.623 L 226.03,420.582 L 240.221,415.074 L 251.927,410.856 L 262.022,406.0 L 271.246,401.972 L 285.001,396.253 L 295.966,392.082 L 304.044,388.483 L 311.83,385.542 L 318.985,381.938 L 327.875,377.944 L 351.931,368.471 L 367.194,360.914 L 378.152,355.102 L 390.01,349.516 L 391.466,348.977" fill="none" stroke="rgb(255,127,14)" stroke-width="3"/>
	<path d="M 35.6278,353.295 L 33.123,341.247 L 32.732,337.101 L 32.3825,328.147 L 32.6834,310.439 L 32.2782,297.972 L 31.7069,289.417 L 30.5807,279.201 L 29.3838,258.473 L 29.2263,234.536 L 29.4341,221.141 L 30.3733,192.889 L 30.4623,175.662 L 32.5769,142.023 L 35.1572,118.31 L 38.077,98.1212 L 38.6985,95.3273 L 39.1554,93.6155 L 40.5814,93.4651 L 41.1004,92.509 L 41.3205,91.7055 L 38.5,82.5" fill="none" stroke="rgb(255,187,120)" stroke-width="3"/>
	<path d="M 113.5,440.5 L 114.878,417.653 L 114.871,404.727 L 113.603,376.314 L 112.613,364.705 L 112.626,351.686 L 112.373,332.651 L 111.577,318.945 L 111.529,307.6 L 110.931,298.739 L 110.842,293.864 L 111.672,273.745 L 111.343,259.462 L 111.435,251.356 L 112.253,237.816 L 112.702,218.422 L 114.207,191.07 L 115.053,182.575 L 118.537,178.94" fill="none" stroke="rgb(44,160,44)" stroke-width="3"/>
	<path d="M 397.564,337.707 L 398.398,330.988 L 399.361,323.918 L 401.972,308.712 L 406.728,285.889 L 411.003,269.203 L 416.064,251.813 L 421.239,230.234 L 424.779,214.077 L 427.328,198.789 L 429.795,187.853 L 432.977,172.442 L 435.214,157.991 L 437.021,147.868 L 438.626,141.15 L 441.808,129.053 L 443.744,120.268 L 445.016,112.333 L 445.407,108.989 L 445.599,105.165 L 437.5,103.5" fill="none" stroke="rgb(152,223,138)" stroke-width="3"/>
	<path d="M 54.5,201.5 L 58.8975,204.353 L 61.1587,206.185 L 63.9415,209.086 L 67.0531,213.268 L 68.6868,215.994 L 71.7141,222.141 L 72.8043,224.887 L 74.1669,228.994 L 75.293,236.339 L 75.5287,240.063 L 75.4975,243.391 L 74.9483,251.406 L 74.5232,255.37 L 73.9368,258.831 L 72.6053,263.894 L 71.7985,265.793 L 70.081,268.588 L 69.0621,269.895 L 66.9212,272.156 L 64.8145,273.901 L 63.1153,274.901 L 60.9159,275.675 L 59.3545,275.901 L 58.1111,275.873 L 56.9898,275.59 L 55.8753,275.152 L 54.8452,274.513 L 52.675,272.296 L 50.5448,269.06 L 48.1325,264.412 L 46.4223,260.111 L 44.952,254.898 L 44.2879,250.085 L 44.0046,244.936 L 44.5005,236.947 L 46.1295,221.842 L 46.8692,217.975 L 48.1474,213.051 L 50.0633,207.87 L 50.9479,206.345 L 54.5,201.5" fill="none" stroke="rgb(214,39,40)" stroke-width="3"/>
	<path d="M 118.5,487.5 L 113.964,486.612 L 111.883,485.954 L 108.41,484.503 L 105.471,482.952 L 102.863,481.355 L 99.7889,479.05 L 96.1956,475.914 L 92.9469,472.732 L 88.5074,467.966 L 84.4934,462.929 L 79.9651,456.026 L 73.9496,447.825 L 62.9755,432.067 L 44.9972,401.795 L 42.4847,396.196 L 37.9469,385.243 L 36.9158,381.171 L 34.9761,363.829 L 34.8268,361.139 L 35.0146,357.164 L 35.6278,353.295" fill="none" stroke="rgb(255,152,150)" stroke-width="3"/>
	<path d="M 199.5,451.5 L 212.148,448.379 L 228.97,443.175 L 251.078,435.747 L 263.644,431.866 L 271.338,428.941 L 279.791,424.883 L 290.818,420.126 L 295.815,417.721 L 319.04,405.227 L 324.427,401.76 L 340.5,390.5" fill="none" stroke="rgb(148,103,189)" stroke-width="3"/>
	<path d="M 35.6278,353.295 L 38.7912,355.467 L 40.1159,357.0 L 42.8059,360.532 L 59.5914,384.059 L 71.0735,397.706 L 76.8403,403.987 L 84.0935,410.565 L 88.1346,414.519 L 98.0189,424.968 L 113.5,440.5" fill="none" stroke="rgb(197,176,213)" stroke-width="3"/>
	<path d="M 169.5541361790483,418.5980641552493 L 175.438,402.136 L 182.056,377.659 L 185.271,366.906 L 188.158,357.912 L 189.655,352.455 L 191.441,344.8 L 194.79,326.823 L 199.5,305.5" fill="none" stroke="rgb(140,86,75)" stroke-width="3"/>
	<path d="M 118.537,178.94 L 114.716,174.076 L 108.891,165.965 L 103.999,159.894 L 92.5347,145.044 L 85.6241,136.842 L 79.9899,130.845 L 69.1112,120.009 L 62.8593,112.718 L 56.0014,105.191 L 48.1362,96.1983 L 44.5186,92.3593 L 38.5,82.5" fill="none" stroke="rgb(196,156,148)" stroke-width="3"/>
	<path d="M 358.5,234.5 L 357.858,236.42 L 356.483,241.089 L 355.068,244.923 L 354.238,247.823 L 352.813,256.759 L 350.042,267.661 L 347.17,288.119 L 346.214,298.134 L 343.905,314.163 L 343.386,320.242 L 343.161,329.163 L 342.522,343.932 L 342.623,347.99 L 342.912,349.562" fill="none" stroke="rgb(227,119,194)" stroke-width="3"/>
	<path d="M 265.5,256.5 L 275.15,254.387 L 295.905,249.063 L 334.593,241.034 L 338.156,240.06 L 347.845,236.799 L 351.981,235.797 L 358.5,234.5" fill="none" stroke="rgb(247,182,210)" stroke-width="3"/>
	<path d="M 262.5,291.5 L 270.856,299.641 L 277.925,304.872 L 284.169,309.978 L 302.403,323.938 L 306.976,327.645 L 311.122,330.658 L 315.943,333.827 L 318.941,336.076 L 327.017,342.854 L 338.461,352.832 L 339.063,353.223 L 342.912,349.562" fill="none" stroke="rgb(127,127,127)" stroke-width="3"/>
	<path d="M 371.5,37.5 L 377.07,43.4234 L 379.556,45.7666 L 391.939,56.219 L 398.946,62.7978 L 404.03,66.8658 L 406.262,68.8482 L 408.899,71.7551 L 412.999,76.6966 L 419.004,83.1812 L 423.045,87.9817 L 429.066,94.0867 L 435.305,100.855 L 437.5,103.5" fill="none" stroke="rgb(199,199,199)" stroke-width="3"/>
	<path d="M 195.5,469.5 L 184.162,473.532 L 176.607,476.027 L 171.903,477.312 L 162.898,479.466 L 153.605,482.005 L 140.639,484.654 L 130.861,486.428 L 122.853,487.253 L 118.5,487.5" fill="none" stroke="rgb(188,189,34)" stroke-width="3"/>
	<path d="M 199.5,305.5 L 205.076,304.206 L 209.539,302.589 L 215.043,301.026 L 224.067,299.013 L 236.876,295.709 L 250.077,292.749 L 255.96,291.853 L 262.5,291.5" fill="none" stroke="rgb(219,219,141)" stroke-width="3"/>
	<path d="M 204.5,275.5 L 208.022,275.092 L 209.91,274.535 L 233.127,266.458 L 247.088,262.129 L 257.955,258.509 L 265.5,256.5" fill="none" stroke="rgb(23,190,207)" stroke-width="3"/>
	<path d="M 113.5,440.5 L 117.223,437.824 L 119.185,436.746 L 128.398,432.945 L 138.027,429.888 L 149.054,425.97 L 169.5541361790483,418.5980641552493" fill="none" stroke="rgb(158,218,229)" stroke-width="3"/>
	<path d="M 397.564,337.707 L 394.164,336.868 L 390.226,337.473 L 379.155,340.839 L 357.969,346.012 L 354.547,347.02 L 347.943,349.295 L 345.006,349.751 L 344.021,349.532 L 342.912,349.562" fill="none" stroke="rgb(31,119,180)" stroke-width="3"/>
	<path d="M 336.5,407.5 L 341.457,406.839 L 344.889,406.111 L 350.935,404.383 L 357.872,401.784 L 362.142,399.76 L 366.232,397.578 L 381.076,388.834 L 385.5,386.5" fill="none" stroke="rgb(174,199,232)" stroke-width="3"/>
	<path d="M 118.5,487.5 L 119.08,476.786 L 120.207,465.015 L 121.199,456.629 L 122.5,448.5" fill="none" stroke="rgb(255,127,14)" stroke-width="3"/>
	<path d="M 385.5,386.5 L 387.856,373.864 L 389.985,364.006 L 390.646,359.948 L 391.655,353.01 L 391.466,348.977" fill="none" stroke="rgb(255,187,120)" stroke-width="3"/>
	<path d="M 265.5,256.5 L 265.57,260.643 L 265.381,264.419 L 263.325,278.92 L 262.5,291.5" fill="none" stroke="rgb(44,160,44)" stroke-width="3"/>
	<path d="M 199.5,305.5 L 201.032,295.022 L 203.121,284.216 L 204.5,275.5" fill="none" stroke="rgb(152,223,138)" stroke-width="3"/>
	<path d="M 195.5,469.5 L 197.785,460.804 L 199.5,451.5" fill="none" stroke="rgb(214,39,40)" stroke-width="3"/>
	<path d="M 340.5,390.5 L 338.704,396.726 L 336.5,407.5" fill="none" stroke="rgb(255,152,150)" stroke-width="3"/>
	<path d="M 391.466,348.977 L 397.564,337.707" fill="none" stroke="rgb(148,103,189)" stroke-width="3"/>
	<path d="M 113.5,440.5 L 118.123,444.889 L 122.5,448.5" fill="none" stroke="rgb(197,176,213)" stroke-width="3"/>
</svg>
