<?xml version="1.0" encoding="UTF-8" standalone="no"?>
<svg
   height="537px"
   version="1.1"
   viewBox="17.02581099999999 26.422941 471.72637800000007 421.49641799999995"
   width="600px"
   id="svg36"
   sodipodi:docname="3dsketching_car_clean.svg"
   inkscape:version="1.3.2 (091e20e, 2023-11-25)"
   xmlns:inkscape="http://www.inkscape.org/namespaces/inkscape"
   xmlns:sodipodi="http://sodipodi.sourceforge.net/DTD/sodipodi-0.dtd"
   xmlns="http://www.w3.org/2000/svg"
   xmlns:svg="http://www.w3.org/2000/svg">
  <sodipodi:namedview
     id="namedview36"
     pagecolor="#ffffff"
     bordercolor="#666666"
     borderopacity="1.0"
     inkscape:showpageshadow="2"
     inkscape:pageopacity="0.0"
     inkscape:pagecheckerboard="0"
     inkscape:deskcolor="#d1d1d1"
     inkscape:zoom="3.8075976"
     inkscape:cx="471.6885"
     inkscape:cy="303.86615"
     inkscape:window-width="1280"
     inkscape:window-height="747"
     inkscape:window-x="0"
     inkscape:window-y="25"
     inkscape:window-maximized="0"
     inkscape:current-layer="svg36" />
  <defs
     id="defs1" />
  <path
     d="M 151.779,390.481 L 147.785,389.277 L 144.298,387.72 L 140.466,385.266 L 137.88,383.209 L 134.124,379.575 L 123.038,367.494 L 115.848,358.94 L 109.121,350.025 L 104.274,343.991 L 96.9363,335.947 L 95.274,333.94 L 92.2421,329.904 L 82.5758,316.111 L 74.8423,307.01 L 70.9522,301.626 L 68.5088,297.894 L 66.9378,294.927 L 64.7901,289.151 L 60.5917,271.011 L 58.2573,258.906 L 57.6584,252.371 L 57.7728,246.272 L 59.1021,237.41 L 59.9916,235.396"
     fill="none"
     stroke="rgb(31,119,180)"
     stroke-width="3"
     id="path1" />
  <path
     d="M 237.5,208.5 L 247.755,204.001 L 254.092,200.974 L 270.761,193.978 L 280.898,189.36 L 288.9,185.975 L 297.028,182.99 L 301.916,180.987 L 308.886,177.874 L 317.555,173.0 L 329.046,167.099 L 337.428,163.031 L 345.703,158.063 L 353.368,154.007 L 359.5,151.055 L 368.6,147.008 L 377.579,142.514 L 380.093,140.968 L 382.639,138.954 L 386.788,134.516"
     fill="none"
     stroke="rgb(174,199,232)"
     stroke-width="3"
     id="path2" />
  <path
     d="M 127.5,115.5 L 130.417,113.139 L 134.371,110.954 L 143.247,106.983 L 150.644,103.991 L 162.713,100.053 L 177.992,94.7439 L 188.165,90.965 L 208.879,84.3257 L 231.017,78.658 L 249.957,71.5918 L 266.178,66.0037 L 276.421,61.7113"
     fill="none"
     stroke="rgb(255,127,14)"
     stroke-width="3"
     id="path3" />
  <path
     d="M 233.887,285.153 L 224.985,276.91 L 216.459,270.066 L 208.708,263.021 L 201.489,256.955 L 196.124,252.066 L 183.962,242.069 L 177.116,236.038 L 173.385,232.067 L 161.899,218.525 L 154.455,210.121 L 148.298,204.001 L 132.5,189.5"
     fill="none"
     stroke="rgb(255,187,120)"
     stroke-width="3"
     id="path4" />
  <path
     d="M 127.5,115.5 L 136.09,124.679 L 138.091,125.557 L 140.695,127.088 L 143.869,129.326 L 158.518,141.03 L 165.955,147.463 L 173.812,153.889 L 177.476,157.096 L 184.0,163.327 L 187.186,166.103 L 189.632,167.911 L 198.929,174.088 L 206.032,179.321 L 210.133,182.866 L 219.597,192.078 L 229.071,200.923 L 234.024,205.19 L 237.5,208.5"
     fill="none"
     stroke="rgb(44,160,44)"
     stroke-width="3"
     id="path5" />
  <path
     d="M 151.5,333.5 L 146.939,328.129 L 138.501,318.989 L 130.53,309.961 L 122.95,301.947 L 116.859,295.091 L 106.848,284.945 L 100.966,278.702 L 97.3473,274.151 L 92.3554,267.071 L 87.0802,260.528 L 81.0898,252.271 L 77.4438,247.953 L 71.3975,241.935 L 67.6619,239.083 L 63.7609,236.855 L 59.9916,235.396"
     fill="none"
     stroke="rgb(152,223,138)"
     stroke-width="3"
     id="path6" />
  <path
     d="M 276.421,61.7113 L 288.56,68.0585 L 293.921,71.9069 L 297.07,73.9386 L 300.725,75.982 L 308.665,80.0023 L 317.569,85.0229 L 321.449,86.9751 L 327.008,89.4024 L 332.375,91.9929 L 341.045,97.6959 L 347.308,101.187 L 351.183,103.662 L 358.888,109.306 L 368.908,116.2 L 373.727,119.944 L 378.441,123.898 L 380.924,126.314 L 383.241,128.9 L 384.76,130.935 L 386.788,134.516"
     fill="none"
     stroke="rgb(214,39,40)"
     stroke-width="3"
     id="path7" />
  <path
     d="M 232.5,401.5 L 236.118,405.686 L 238.401,407.951 L 241.092,409.924 L 243.301,411.066 L 246.001,411.94 L 248.916,412.439 L 252.6,412.631 L 255.927,412.466 L 258.844,412.032 L 263.699,410.853 L 269.118,408.932 L 272.088,407.456 L 274.896,405.722 L 278.494,403.013 L 281.97,400.039 L 288.007,394.022 L 290.977,390.405 L 294.017,386.201 L 297.432,380.882 L 299.955,376.485 L 302.469,371.309 L 303.893,367.963 L 305.373,362.196 L 305.796,359.233 L 305.904,355.889 L 305.612,352.722 L 304.985,349.065 L 304.094,345.988 L 303.237,344.018 L 301.944,341.521 L 299.5,337.5"
     fill="none"
     stroke="rgb(255,152,150)"
     stroke-width="3"
     id="path8" />
  <path
     d="M 218.5,370.5 L 221.471,361.871 L 223.97,355.971 L 227.016,350.265 L 230.087,345.932 L 234.99,340.468 L 242.55,333.012 L 244.801,331.063 L 247.675,328.924 L 253.108,325.557 L 257.437,323.306 L 260.295,322.174 L 262.567,321.487 L 268.625,320.232 L 271.143,319.999 L 274.168,319.975 L 276.699,320.285 L 279.625,320.901 L 284.11,322.429 L 288.039,324.406 L 292.5,327.5"
     fill="none"
     stroke="rgb(148,103,189)"
     stroke-width="3"
     id="path9" />
  <path
     d="M 410.5,276.5 L 411.284,282.578 L 411.274,288.181 L 410.431,294.076 L 408.9,299.897 L 406.037,307.275 L 403.756,311.817 L 401.964,315.057 L 399.532,318.97 L 397.09,322.553 L 394.974,325.25 L 390.41,330.019 L 385.869,333.977 L 380.537,337.846 L 376.119,340.332 L 371.869,341.994 L 369.975,342.566 L 368.364,342.845 L 361.81,343.565 L 355.5,343.5"
     fill="none"
     stroke="rgb(197,176,213)"
     stroke-width="3"
     id="path10" />
  <path
     d="M 151.5,333.5 L 161.071,329.023 L 169.864,324.036 L 177.77,320.142 L 192.983,313.122 L 206.815,306.055 L 225.009,296.346 L 235.599,290.028 L 233.887,285.153"
     fill="none"
     stroke="rgb(140,86,75)"
     stroke-width="3"
     id="path11" />
  <path
     d="M 406.386,265.676 L 398.031,272.429 L 396.555,273.487 L 384.715,279.334 L 380.346,281.95 L 377.968,283.664 L 373.045,287.77 L 368.648,292.107 L 365.419,295.935 L 363.062,299.197 L 359.376,304.971 L 357.927,307.564 L 355.968,311.603 L 354.342,315.842 L 353.136,320.052 L 352.071,325.984 L 351.964,329.713 L 352.143,331.946 L 353.017,336.477 L 355.5,343.5"
     fill="none"
     stroke="rgb(196,156,148)"
     stroke-width="3"
     id="path12" />
  <path
     d="M 292.5,327.5 L 288.992,335.92 L 287.676,336.682 L 284.441,338.014 L 281.232,339.021 L 272.873,342.07 L 266.874,345.187 L 262.595,347.913 L 259.076,350.536 L 254.921,354.068 L 252.066,356.946 L 248.669,361.108 L 246.081,364.808 L 243.054,369.89 L 241.779,372.391 L 238.209,380.958 L 232.5,401.5"
     fill="none"
     stroke="rgb(227,119,194)"
     stroke-width="3"
     id="path13" />
  <path
     d="M 406.386,265.676 L 398.063,264.972 L 394.994,263.056 L 392.721,262.007 L 390.718,261.301 L 387.07,260.483 L 381.089,260.061 L 376.715,260.382 L 372.843,261.356 L 367.71,263.67 L 362.065,266.954 L 358.061,269.864 L 354.523,273.203 L 350.006,278.59 L 346.157,283.866 L 343.088,288.934 L 339.873,294.985 L 335.144,304.703"
     fill="none"
     stroke="rgb(247,182,210)"
     stroke-width="3"
     id="path14" />
  <path
     d="M 56.5,225.5 L 62.9383,222.524 L 75.8763,215.938 L 91.1133,209.025 L 98.3124,205.992 L 115.125,198.198 L 126.062,192.502 L 132.5,189.5"
     fill="none"
     stroke="rgb(127,127,127)"
     stroke-width="3"
     id="path15" />
  <path
     d="M 237.5,208.5 L 238.472,213.311 L 238.82,216.938 L 239.575,240.319 L 241.017,255.79 L 241.429,273.106 L 241.639,276.143 L 242.241,280.983 L 233.887,285.153"
     fill="none"
     stroke="rgb(199,199,199)"
     stroke-width="3"
     id="path16" />
  <path
     d="M 446.784,180.009 L 449.278,186.888 L 448.155,197.529 L 447.037,204.152 L 445.62,210.96 L 443.874,220.995 L 443.008,227.078 L 441.156,234.159 L 439.662,240.818 L 437.641,246.59"
     fill="none"
     stroke="rgb(188,189,34)"
     stroke-width="3"
     id="path17" />
  <path
     d="M 388.5,213.5 L 393.001,211.816 L 394.999,210.892 L 401.931,207.055 L 414.135,199.957 L 424.88,193.247 L 434.567,188.006 L 437.484,186.275 L 443.464,182.501 L 446.784,180.009"
     fill="none"
     stroke="rgb(219,219,141)"
     stroke-width="3"
     id="path18" />
  <path
     d="M 132.5,189.5 L 132.679,177.013 L 132.596,167.214 L 131.225,151.973 L 130.47,146.549 L 129.983,141.175 L 130.549,130.876 L 131.164,126.065 L 131.453,124.854 L 127.5,115.5"
     fill="none"
     stroke="rgb(23,190,207)"
     stroke-width="3"
     id="path19" />
  <path
     d="M 156.5,403.5 L 161.049,401.334 L 170.992,395.946 L 176.908,393.104 L 203.316,378.948 L 209.632,375.993 L 218.5,370.5"
     fill="none"
     stroke="rgb(158,218,229)"
     stroke-width="3"
     id="path20" />
  <path
     d="M 396.5,148.5 L 395.243,156.882 L 393.668,169.582 L 392.369,176.893 L 391.025,190.022 L 390.009,195.296 L 389.526,198.792 L 388.983,204.639 L 388.5,213.5"
     fill="none"
     stroke="rgb(31,119,180)"
     stroke-width="3"
     id="path21" />
  <path
     d="M 396.5,148.5 L 400.935,150.854 L 409.991,156.274 L 417.971,161.257 L 423.631,164.998 L 438.106,173.807 L 442.752,176.938 L 446.784,180.009"
     fill="none"
     stroke="rgb(174,199,232)"
     stroke-width="3"
     id="path22" />
  <path
     d="M 151.779,390.481 L 152.822,380.869 L 152.439,376.92 L 152.407,373.233 L 151.295,354.718 L 151.5,333.5"
     fill="none"
     stroke="rgb(255,127,14)"
     stroke-width="3"
     id="path23" />
  <path
     d="M 292.5,327.5 L 310.857,318.22 L 321.634,312.224 L 332.393,305.894 L 335.144,304.703"
     fill="none"
     stroke="rgb(255,187,120)"
     stroke-width="3"
     id="path24" />
  <path
     d="M 335.144,304.703 L 334.746,312.676 L 334.826,315.998 L 335.495,319.894 L 336.175,322.022 L 337.092,324.141 L 337.883,325.509 L 339.922,328.116 L 345.928,334.318 L 349.834,338.612 L 350.791,339.168 L 355.5,343.5"
     fill="none"
     stroke="rgb(44,160,44)"
     stroke-width="3"
     id="path25" />
  <path
     d="M 437.641,246.59 L 424.925,254.36 L 414.985,260.566 L 406.386,265.676"
     fill="none"
     stroke="rgb(152,223,138)"
     stroke-width="3"
     id="path26" />
  <path
     d="M 232.5,401.5 L 227.405,394.931 L 222.846,390.824 L 219.383,386.933 L 215.5,381.5"
     fill="none"
     stroke="rgb(214,39,40)"
     stroke-width="3"
     id="path27" />
  <path
     d="M 156.5,403.5 L 155.653,400.148 L 154.684,397.133 L 151.779,390.481"
     fill="none"
     stroke="rgb(255,152,150)"
     stroke-width="3"
     id="path28" />
  <path
     d="M 386.788,134.516 L 396.407,143.931 L 396.5,148.5"
     fill="none"
     stroke="rgb(148,103,189)"
     stroke-width="3"
     id="path29" />
  <path
     d="M 292.5,327.5 L 295.814,331.813 L 299.5,337.5"
     fill="none"
     stroke="rgb(197,176,213)"
     stroke-width="3"
     id="path30" />
  <path
     d="M 410.5,276.5 L 407.348,270.396 L 407.206,268.63 L 406.386,265.676"
     fill="none"
     stroke="rgb(140,86,75)"
     stroke-width="3"
     id="path31" />
  <path
     d="M 59.9916,235.396 L 58.151,230.81 L 56.5,225.5"
     fill="none"
     stroke="rgb(196,156,148)"
     stroke-width="3"
     id="path32" />
  <path
     d="M 215.5,381.5 L 215.053,379.1 L 215.025,377.349 L 218.5,370.5"
     fill="none"
     stroke="rgb(127,127,127)"
     stroke-width="3"
     id="path35" />
</svg>
