<?xml version="1.0" encoding="UTF-8" standalone="no"?>
<svg
   height="600px"
   version="1.1"
   viewBox="50.795 8.295000000000002 402.40999999999997 492.40999999999997"
   width="491px"
   id="svg35"
   sodipodi:docname="house_4views_1_clean_clean.svg"
   inkscape:version="1.3.2 (091e20e, 2023-11-25)"
   xmlns:inkscape="http://www.inkscape.org/namespaces/inkscape"
   xmlns:sodipodi="http://sodipodi.sourceforge.net/DTD/sodipodi-0.dtd"
   xmlns="http://www.w3.org/2000/svg"
   xmlns:svg="http://www.w3.org/2000/svg">
  <sodipodi:namedview
     id="namedview35"
     pagecolor="#ffffff"
     bordercolor="#666666"
     borderopacity="1.0"
     inkscape:showpageshadow="2"
     inkscape:pageopacity="0.0"
     inkscape:pagecheckerboard="0"
     inkscape:deskcolor="#d1d1d1"
     inkscape:zoom="1.7461502"
     inkscape:cx="168.3704"
     inkscape:cy="474.18602"
     inkscape:window-width="1280"
     inkscape:window-height="747"
     inkscape:window-x="0"
     inkscape:window-y="25"
     inkscape:window-maximized="0"
     inkscape:current-layer="svg35" />
  <defs
     id="defs1" />
  <path
     d="M 189.5,49.5 L 193.85,51.7403 L 205.922,58.6288 L 217.749,65.0019 L 237.119,75.0733 L 245.99,79.4856 L 250.94,82.1669 L 259.001,86.8597 L 262.97,89.4237 L 268.858,92.7653 L 281.156,100.353 L 288.141,104.945 L 297.951,110.535 L 302.973,113.005 L 308.159,115.211 L 320.947,120.12 L 340.888,128.066 L 351.634,132.986 L 358.909,136.578 L 361.568,137.983 L 365.5,140.5"
     fill="none"
     stroke="rgb(31,119,180)"
     stroke-width="3"
     id="path1" />
  <path
     d="M 276.383,287.52 L 277.179,283.313 L 278.492,278.908 L 281.093,272.188 L 282.939,268.487 L 285.956,264.113 L 296.355,250.127 L 305.02,237.897 L 317.974,217.519 L 323.548,207.874 L 331.942,194.666 L 339.007,184.359 L 343.029,178.016 L 351.838,164.915 L 358.439,153.829 L 365.5,140.5"
     fill="none"
     stroke="rgb(174,199,232)"
     stroke-width="3"
     id="path2" />
  <path
     d="M 256.5,445.5 L 257.999,443.971 L 270.373,435.011 L 275.083,431.359 L 286.389,423.971 L 291.943,419.526 L 298.839,414.677 L 313.831,405.269 L 330.876,394.848 L 348.07,385.125 L 354.182,381.856 L 366.094,374.729 L 369.581,372.501 L 375.867,368.122 L 395.5,355.5"
     fill="none"
     stroke="rgb(255,127,14)"
     stroke-width="3"
     id="path3" />
  <path
     d="M 276.383,287.52 L 280.815,287.056 L 284.529,285.964 L 288.394,284.461 L 295.821,281.044 L 301.356,278.062 L 320.079,267.428 L 336.939,258.293 L 347.477,253.072 L 356.906,249.002 L 371.035,241.522 L 383.835,235.454 L 402.68,226.034 L 419.5,218.5"
     fill="none"
     stroke="rgb(255,187,120)"
     stroke-width="3"
     id="path4" />
  <path
     d="M 419.5,218.5 L 417.972,238.82 L 417.628,245.151 L 416.307,252.913 L 415.742,257.165 L 414.664,262.869 L 411.525,276.105 L 409.829,284.647 L 407.512,293.914 L 405.73,301.92 L 403.846,308.952 L 402.62,314.224 L 399.502,330.278 L 398.109,339.155 L 396.886,348.452 L 395.5,355.5"
     fill="none"
     stroke="rgb(44,160,44)"
     stroke-width="3"
     id="path5" />
  <path
     d="M 252.678,436.236 L 253.723,431.894 L 255.947,401.156 L 256.967,394.277 L 258.685,377.164 L 259.306,362.828 L 260.733,349.257 L 261.13,342.868 L 261.712,337.193 L 262.063,330.955 L 262.962,322.669 L 263.5,301.5"
     fill="none"
     stroke="rgb(152,223,138)"
     stroke-width="3"
     id="path6" />
  <path
     d="M 124.5,166.5 L 124.71,163.221 L 125.157,160.929 L 126.002,158.425 L 127.087,155.947 L 129.966,150.156 L 136.941,138.001 L 141.786,128.784 L 150.052,115.024 L 156.463,103.018 L 161.122,95.0004 L 168.044,82.0051 L 173.968,71.978 L 182.427,58.8748 L 189.5,49.5"
     fill="none"
     stroke="rgb(214,39,40)"
     stroke-width="3"
     id="path7" />
  <path
     d="M 103.722,232.167 L 104.987,233.178 L 106.425,234.94 L 108.914,238.736 L 110.748,242.118 L 112.514,246.082 L 114.727,253.118 L 120.218,275.852 L 121.628,280.975 L 125.054,290.574 L 130.036,307.128 L 132.237,313.909 L 135.993,324.822 L 139.992,335.681 L 143.014,345.035 L 144.037,348.865 L 144.617,351.848 L 145.0,354.844 L 144.987,357.984"
     fill="none"
     stroke="rgb(255,152,150)"
     stroke-width="3"
     id="path8" />
  <path
     d="M 365.5,140.5 L 368.136,145.015 L 369.936,147.723 L 378.047,158.865 L 381.925,165.356 L 384.278,168.98 L 398.902,189.868 L 406.01,201.263 L 409.45,206.133 L 413.81,211.911 L 419.5,218.5"
     fill="none"
     stroke="rgb(148,103,189)"
     stroke-width="3"
     id="path9" />
  <path
     d="M 154.713,438.929 L 150.915,436.758 L 147.573,433.96 L 143.451,429.951 L 136.041,421.855 L 132.0,417.035 L 129.309,413.558 L 117.518,396.106 L 113.649,390.074 L 111.297,386.89 L 106.972,381.705 L 102.933,377.42 L 101.05,375.906 L 97.5,373.5"
     fill="none"
     stroke="rgb(197,176,213)"
     stroke-width="3"
     id="path10" />
  <path
     d="M 144.987,357.984 L 140.958,355.604 L 135.972,351.146 L 133.153,348.163 L 129.359,343.861 L 112.707,323.122 L 108.42,318.413 L 102.514,312.357 L 98.3611,308.429 L 94.0568,304.994 L 91.1271,303.11 L 88.815,302.155"
     fill="none"
     stroke="rgb(140,86,75)"
     stroke-width="3"
     id="path11" />
  <path
     d="M 198.5,248.5 L 204.088,262.465 L 204.46,265.58 L 205.011,268.279 L 212.031,293.161 L 215.592,307.922 L 217.98,318.749 L 220.233,326.082 L 223.577,332.852"
     fill="none"
     stroke="rgb(196,156,148)"
     stroke-width="3"
     id="path12" />
  <path
     d="m 164.151,450.548 8.912,-5.323 11.83,-6.182 16.755,-9.999 11.525,-5.984 10.224,-6.092 5.103,-2.468"
     fill="none"
     stroke="#e377c2"
     stroke-width="3"
     id="path13"
     sodipodi:nodetypes="ccccccc" />
  <path
     d="M 153.5,373.5 L 161.115,369.391 L 171.878,363.02 L 189.429,353.912 L 203.95,345.346 L 207.929,343.346 L 212.036,341.618 L 217.027,340.055 L 223.577,332.852"
     fill="none"
     stroke="rgb(247,182,210)"
     stroke-width="3"
     id="path14" />
  <path
     d="M 198.5,248.5 L 208.685,257.644 L 211.301,259.111 L 214.304,261.082 L 218.879,264.478 L 231.169,274.61 L 240.08,282.581 L 250.696,290.969 L 260.841,299.549 L 263.5,301.5"
     fill="none"
     stroke="rgb(127,127,127)"
     stroke-width="3"
     id="path15" />
  <path
     d="M 198.5,248.5 L 199.889,235.164 L 201.023,226.511 L 202.249,217.918 L 204.424,205.825 L 205.09,202.862 L 208.514,190.073 L 211.458,180.106 L 212.5,175.5"
     fill="none"
     stroke="rgb(199,199,199)"
     stroke-width="3"
     id="path16" />
  <path
     d="M 97.5,373.5 L 96.0248,367.335 L 94.1979,356.162 L 93.3655,349.508 L 91.3792,339.082 L 90.597,334.149 L 88.4122,323.117 L 87.5926,314.077 L 87.4439,308.262 L 88.0777,304.567 L 88.815,302.155"
     fill="none"
     stroke="rgb(188,189,34)"
     stroke-width="3"
     id="path17" />
  <path
     d="M 227.449,342.434 L 228.148,347.893 L 228.287,353.287 L 228.045,363.452 L 228.061,372.546 L 228.274,381.946 L 227.987,391.497 L 227.925,403.099 L 227.957,406.789 L 228.5,414.5"
     fill="none"
     stroke="rgb(219,219,141)"
     stroke-width="3"
     id="path18" />
  <path
     d="M 149.5,201.5 L 156.07,198.604 L 187.862,185.85 L 206.343,177.485 L 209.178,176.41 L 212.5,175.5"
     fill="none"
     stroke="rgb(23,190,207)"
     stroke-width="3"
     id="path19" />
  <path
     d="M 154.713,438.929 L 156.461,432.313 L 156.508,426.144 L 156.231,419.865 L 154.292,403.061 L 153.521,394.156 L 153.39,384.105 L 153.5,373.5"
     fill="none"
     stroke="rgb(158,218,229)"
     stroke-width="3"
     id="path20" />
  <path
     d="M 84.5,292.5 L 88.0194,282.653 L 91.4535,271.88 L 98.0181,245.059 L 100.161,239.277 L 102.905,233.392 L 103.222,233.167 L 103.722,232.167"
     fill="none"
     stroke="rgb(31,119,180)"
     stroke-width="3"
     id="path21" />
  <path
     d="M 124.5,166.5 L 121.103,172.867 L 134.468,186.14 L 141.732,192.792 L 147.321,198.789 L 149.5,201.5"
     fill="none"
     stroke="rgb(174,199,232)"
     stroke-width="3"
     id="path22" />
  <path
     d="M 121.5,211.5 L 119.162,185.955 L 119.116,177.389 L 124.5,166.5"
     fill="none"
     stroke="rgb(255,127,14)"
     stroke-width="3"
     id="path23" />
  <path
     d="M 228.5,414.5 L 231.357,418.072 L 234.038,421.042 L 237.983,425.069 L 243.175,429.916 L 248.047,433.86 L 249.379,434.668 L 252.678,436.236"
     fill="none"
     stroke="rgb(255,187,120)"
     stroke-width="3"
     id="path24" />
  <path
     d="M 121.5,211.5 L 133.355,207.001 L 143.055,203.965 L 149.5,201.5"
     fill="none"
     stroke="rgb(44,160,44)"
     stroke-width="3"
     id="path25" />
  <path
     d="M 101.5,220.5 L 105.909,218.746 L 111.94,215.823 L 121.5,211.5"
     fill="none"
     stroke="rgb(152,223,138)"
     stroke-width="3"
     id="path26" />
  <path
     d="M 144.987,357.984 L 153.5,373.5"
     fill="none"
     stroke="rgb(214,39,40)"
     stroke-width="3"
     id="path27" />
  <path
     d="m 164.151,450.548 -9.438,-11.619"
     fill="none"
     stroke="#ff9896"
     stroke-width="3"
     id="path28"
     sodipodi:nodetypes="cc" />
  <path
     d="M 263.5,301.5 L 276.383,287.52"
     fill="none"
     stroke="rgb(148,103,189)"
     stroke-width="3"
     id="path29" />
  <path
     d="M 103.722,232.167 L 101.5,220.5"
     fill="none"
     stroke="rgb(197,176,213)"
     stroke-width="3"
     id="path30" />
  <path
     d="M 88.815,302.155 L 84.5,292.5"
     fill="none"
     stroke="rgb(140,86,75)"
     stroke-width="3"
     id="path31" />
  <path
     d="M 223.577,332.852 L 224.378,336.275 L 224.981,338.076 L 225.937,339.978 L 227.449,342.434"
     fill="none"
     stroke="rgb(196,156,148)"
     stroke-width="3"
     id="path32" />
  <path
     d="M 256.5,445.5 L 252.678,436.236"
     fill="none"
     stroke="rgb(247,182,210)"
     stroke-width="3"
     id="path34" />
</svg>
