<?xml version="1.0" standalone="no" ?>
<!DOCTYPE svg PUBLIC "-//W3C//DTD SVG 1.1//EN" "http://www.w3.org/Graphics/SVG/1.1/DTD/svg11.dtd">
<svg width="512px" height="512px" xmlns="http://www.w3.org/2000/svg" xmlns:xlink="http://www.w3.org/1999/xlink" version="1.1" >

<g>	<image style="overflow: visible; opacity: 0.4" width="512" height="512" xlink:href="p5_vacuum_cleaner_view1_512_erode.png" />

</g>
<g>	<polyline points="216.324,73.4957 216.807,73.008 217.297,72.7271 217.788,72.4463 218.272,72.1797 218.762,71.9145 219.239,71.6619 219.725,71.4313 220.253,71.2534 220.825,71.1182 221.4,71.0043 221.999,70.8985 222.599,70.8046 223.221,70.7219 223.789,70.6335 224.363,70.5469 224.94,70.4602 225.484,70.3704 226.032,70.2806 226.604,70.1965 227.187,70.1162 227.734,70.0305 228.355,69.9695 228.976,69.9068 229.578,69.8443 230.186,69.7818 230.811,69.7216 231.4,69.6573 231.992,69.5931 232.598,69.5279 233.207,69.4627 233.781,69.3941 234.377,69.3243 234.975,69.2545 235.528,69.1785 236.082,69.1026 236.693,69.0308 237.297,68.9603 237.83,68.8733 238.438,68.7979 239.048,68.7224 239.614,68.6451 240.183,68.5677 240.825,68.4994 241.415,68.4238 242.007,68.3482 242.642,68.2754 243.28,68.2025 243.85,68.1103 244.469,68.0273 245.169,67.9616 245.711,67.8571 246.255,67.7517 246.844,67.6598 247.401,67.559 247.962,67.4578 248.521,67.3565 249.083,67.255 249.665,67.1581 250.25,67.061 250.788,66.9493 251.368,66.8505 251.949,66.7516 252.51,66.641 253.072,66.5304 253.641,66.4317 254.211,66.3327 254.834,66.235 255.393,66.1352 255.953,66.0352 256.607,65.9474 257.263,65.8595 257.837,65.7689 258.45,65.6784 259.065,65.5878 259.622,65.4943 260.182,65.4007 260.772,65.307 261.321,65.2092 261.871,65.1116 262.473,65.0192 263.047,64.9214 263.592,64.8197 264.136,64.7181 264.712,64.6205 265.289,64.5276 265.864,64.4349 266.436,64.337 267.005,64.2394 267.598,64.1483 268.188,64.0574 268.713,63.9358 269.235,63.8147 269.846,63.7222 270.435,63.6311 271.011,63.5407 271.62,63.4571 272.218,63.374 272.797,63.2914 273.42,63.2131 274.037,63.1349 274.639,63.0554 275.239,62.9757 275.877,62.8951 276.463,62.8155 277.051,62.7356 277.648,62.651 278.25,62.566 278.837,62.4865 279.429,62.3986 280.026,62.3103 280.6,62.2225 281.178,62.1345 281.727,62.0337 282.306,61.9442 282.893,61.8543 283.439,61.7494 283.99,61.644 284.568,61.5502 285.149,61.4562 285.721,61.3611 286.299,61.2666 286.878,61.1722 287.446,61.0787 288.015,60.9851 288.609,60.895 289.203,60.8049 289.767,60.71 290.335,60.6175 290.903,60.525 291.483,60.4311 292.062,60.3374 292.616,60.2421 293.166,60.1469 293.768,60.0519 294.317,59.9542 294.851,59.8525 295.43,59.7486 296.003,59.6446 296.545,59.5485 297.083,59.4527 297.662,59.3523 298.236,59.2523 298.772,59.1564 299.393,59.0557 300.007,58.9549 300.582,58.8608 301.153,58.7671 301.74,58.68 302.32,58.5904 302.896,58.501 303.487,58.4171 304.076,58.3331 304.687,58.2482 305.299,58.1633 305.918,58.0803 306.616,58.0207 307.253,57.9377 307.86,57.8522 308.45,57.7615 309.048,57.6703 309.636,57.5773 310.233,57.4838 310.813,57.3876 311.383,57.2812 311.961,57.1743 312.51,57.0675 313.065,56.9602 313.642,56.857 314.223,56.7529 314.782,56.6463 315.328,56.5406 315.876,56.4345 316.461,56.3301 317.048,56.2255 317.586,56.1205 318.125,56.0154 318.687,55.9036 319.246,55.7907 319.76,55.6785 320.328,55.5705 320.895,55.4626 321.405,55.3497 321.914,55.237 322.497,55.1326 323.076,55.0281 323.594,54.9132 324.1,54.7937 324.67,54.6829 325.236,54.5722 325.775,54.459 326.369,54.3522 326.96,54.2456 327.547,54.1376 328.13,54.0296 328.823,53.9423 329.444,53.8266 330.063,53.7113 330.66,53.6022 331.255,53.4932 331.82,53.376 332.366,53.2606 332.911,53.1451 333.477,53.0315 334.127,52.9403 334.652,52.8213 335.176,52.7021 335.751,52.5957 336.289,52.4842 336.828,52.3723 337.403,52.2699 337.979,52.1672 338.55,52.0638 339.122,51.96 339.729,51.8639 340.366,51.7728 341.006,51.6814 341.576,51.565 342.15,51.4482 342.748,51.3345 343.342,51.2149 343.943,51.0948 344.573,50.9738 345.198,50.8482 345.835,50.7144 346.498,50.5715 347.092,50.383 347.653,50.1158 347.782,49.697 347.915,49.3103 348.448,49.0191 348.603,48.6073 348.761,48.214 348.921,47.8383 349.14,47.418 349.359,46.9981 349.584,46.5787 349.809,46.1588 " fill="none" stroke-width="1" stroke="rgb(0,0,255)" />
	<polyline points="375.816,50.0672 376.363,49.9844 376.902,49.9505 377.427,49.933 377.952,49.9178 378.445,49.906 378.911,49.9171 379.349,49.9606 379.777,50.0175 380.199,50.072 380.607,50.1378 381.012,50.2114 381.404,50.287 381.798,50.3638 382.195,50.4418 382.585,50.5278 382.978,50.6149 383.381,50.7043 383.786,50.7948 384.194,50.8864 384.59,50.9887 384.982,51.0962 385.38,51.2188 385.78,51.3432 386.181,51.4695 386.58,51.6046 386.981,51.7413 387.408,51.8858 387.836,52.0329 388.262,52.1705 388.688,52.3101 389.115,52.4516 389.571,52.6303 390.028,52.8094 390.46,52.9774 390.922,53.1318 391.377,53.3447 391.833,53.5581 392.275,53.735 392.717,53.9115 393.141,54.0888 393.547,54.2806 393.952,54.4725 394.361,54.6572 394.768,54.8439 395.175,55.0328 395.613,55.2846 396.051,55.5365 396.461,55.7425 396.871,55.9484 397.277,56.172 397.682,56.397 398.086,56.6236 398.511,56.8583 398.935,57.0943 399.348,57.3261 399.761,57.5576 400.173,57.7889 400.597,58.0367 401.095,58.3563 401.528,58.6132 401.963,58.8728 402.41,59.1452 402.856,59.4194 403.295,59.7 403.732,59.9824 404.143,60.2268 404.597,60.5448 405.05,60.8653 405.48,61.1773 405.907,61.489 406.324,61.7941 406.737,62.0937 407.233,62.5275 407.631,62.8225 408.049,63.1877 408.421,63.4589 408.801,63.7384 409.27,64.1372 409.656,64.4168 410.044,64.7012 410.403,64.9559 410.767,65.2189 411.132,65.4834 411.497,65.736 411.862,65.9891 412.218,66.2374 412.573,66.4859 412.928,66.7345 413.301,67.0117 413.668,67.2833 414.035,67.5558 414.411,67.8497 414.836,68.2159 415.233,68.5465 415.629,68.8779 416.016,69.2174 416.41,69.5674 416.802,69.9181 417.205,70.2866 417.606,70.6554 418.005,71.0244 418.393,71.3803 418.779,71.736 419.164,72.0917 419.562,72.4623 419.959,72.8318 420.341,73.1662 420.714,73.4983 421.086,73.8303 421.5,74.209 421.913,74.588 422.297,74.9359 422.657,75.2499 423.016,75.5638 423.394,75.9122 423.83,76.3904 424.221,76.7677 424.611,77.1422 424.982,77.5056 425.359,77.8721 425.74,78.2083 426.121,78.5443 426.493,78.9167 426.873,79.2944 427.244,79.6633 427.613,80.0297 427.944,80.4133 428.311,80.7858 428.674,81.1546 429.021,81.5183 429.384,81.8923 429.786,82.2687 430.185,82.6433 430.536,83.0207 430.956,83.4811 431.307,83.8588 431.649,84.2417 431.99,84.6244 432.342,85.0182 432.701,85.4225 433.059,85.8263 433.392,86.2006 433.721,86.5741 434.047,86.9466 434.391,87.3412 434.729,87.7347 435.063,88.1277 435.357,88.4918 435.652,88.8562 436.059,89.3076 436.366,89.6945 436.677,90.0841 436.968,90.4545 437.261,90.8287 437.555,91.2107 437.849,91.5965 438.254,92.0903 438.56,92.4863 438.865,92.8864 439.14,93.2644 439.419,93.6457 439.701,94.0307 440.139,94.5523 440.423,94.9481 440.675,95.3178 440.93,95.6915 441.19,96.0729 441.452,96.4763 441.715,96.8835 441.969,97.2674 442.216,97.6474 442.465,98.0299 442.739,98.4423 443.013,98.8569 443.269,99.2542 443.527,99.6537 443.79,100.058 444.21,100.63 444.502,101.062 444.756,101.459 445.009,101.858 445.27,102.276 445.532,102.697 445.795,103.121 446.054,103.536 446.302,103.943 446.544,104.356 446.788,104.772 447.032,105.189 447.27,105.594 447.508,105.999 447.771,106.436 448.033,106.875 448.276,107.289 448.518,107.705 448.759,108.12 449.03,108.579 449.303,109.039 449.541,109.46 449.78,109.88 450.128,110.432 450.388,110.873 450.629,111.303 450.869,111.733 451.109,112.165 451.346,112.595 451.584,113.027 451.828,113.473 452.07,113.921 452.303,114.346 452.536,114.772 452.767,115.199 453.016,115.668 453.266,116.138 453.483,116.563 453.701,116.99 454.004,117.533 454.221,117.99 454.437,118.423 454.652,118.856 454.848,119.302 455.045,119.75 455.236,120.194 455.432,120.625 455.627,121.056 455.812,121.498 455.996,121.94 456.181,122.38 456.366,122.819 456.545,123.265 456.723,123.712 456.9,124.16 457.068,124.606 457.235,125.053 457.427,125.521 457.619,125.989 457.785,126.446 457.95,126.904 458.111,127.37 458.274,127.836 458.449,128.317 458.624,128.8 458.775,129.265 458.925,129.732 459.074,130.203 459.23,130.692 459.388,131.18 459.536,131.642 459.683,132.103 459.836,132.588 459.988,133.072 460.136,133.532 460.282,133.993 460.432,134.471 460.582,134.948 460.732,135.41 460.882,135.872 461.034,136.356 461.189,136.838 461.347,137.299 461.503,137.758 461.659,138.217 461.822,138.702 461.983,139.186 462.131,139.649 462.277,140.109 462.445,140.61 462.611,141.108 462.756,141.568 462.899,142.025 463.076,142.561 463.227,143.043 463.376,143.531 463.524,144.016 463.674,144.488 463.824,144.957 464,145.515 464.142,146.011 464.275,146.484 464.406,146.953 464.534,147.461 464.661,147.966 464.781,148.441 464.899,148.914 464.993,149.489 465.107,149.986 465.221,150.453 465.333,150.918 465.445,151.422 465.555,151.923 465.659,152.373 465.761,152.821 465.873,153.314 465.981,153.807 466.076,154.25 466.168,154.69 466.259,155.126 466.358,155.617 466.456,156.102 466.54,156.543 466.622,156.979 466.706,157.465 466.788,157.945 466.866,158.406 466.942,158.864 466.998,159.402 467.072,159.905 467.14,160.432 467.207,160.955 467.271,161.503 467.332,162.049 467.389,162.604 467.442,163.157 467.479,163.723 467.497,164.289 467.513,164.853 467.514,165.402 467.512,165.949 467.498,166.486 467.483,167.021 467.461,167.533 467.437,168.045 467.409,168.556 467.38,169.067 467.346,169.554 467.312,170.041 467.274,170.54 467.236,171.04 467.194,171.524 467.151,172.008 467.103,172.51 467.054,173.014 466.997,173.5 466.928,173.953 466.876,174.479 466.824,175.005 466.748,175.476 466.671,175.948 466.592,176.439 466.513,176.93 466.431,177.415 466.349,177.901 466.266,178.396 466.182,178.892 466.1,179.387 466.018,179.883 465.926,180.386 465.833,180.888 465.732,181.371 465.629,181.853 465.525,182.339 " fill="none" stroke-width="1" stroke="rgb(0,0,255)" />
	<polyline points="465.525,182.339 465.791,182.855 465.893,183.389 465.994,183.923 466.089,184.463 466.187,185.002 466.275,185.521 466.363,186.044 466.447,186.549 466.531,187.059 466.613,187.54 466.696,188.025 466.774,188.503 466.844,188.989 466.907,189.455 466.963,189.931 467.013,190.405 467.057,190.892 467.103,191.363 467.148,191.84 467.192,192.319 467.235,192.802 467.277,193.277 467.314,193.756 467.347,194.24 467.379,194.727 467.41,195.217 467.442,195.701 467.473,196.186 467.504,196.677 467.535,197.169 467.566,197.657 467.594,198.144 467.619,198.639 467.644,199.133 467.671,199.626 467.696,200.117 467.721,200.619 467.745,201.12 467.769,201.62 467.793,202.117 467.81,202.628 467.822,203.139 467.837,203.637 467.852,204.133 467.864,204.639 467.876,205.143 467.893,205.638 467.909,206.13 467.924,206.627 467.938,207.122 467.959,207.615 467.979,208.106 467.993,208.595 468.007,209.088 468.019,209.59 468.031,210.087 468.035,210.597 468.039,211.104 468.034,211.608 468.028,212.111 468.014,212.649 467.999,213.19 467.949,213.673 467.897,214.159 467.853,214.755 467.811,215.262 467.769,215.771 467.718,216.315 467.665,216.861 467.611,217.342 467.556,217.828 467.486,218.317 467.413,218.812 467.339,219.265 467.262,219.723 467.183,220.186 467.1,220.641 467.016,221.1 466.921,221.543 466.825,221.987 466.722,222.419 466.617,222.853 466.51,223.3 466.403,223.749 466.293,224.199 466.178,224.621 466.061,225.044 465.893,225.516 465.722,225.991 465.586,226.41 465.448,226.832 465.282,227.267 465.113,227.704 464.94,228.143 464.779,228.544 464.614,228.945 464.426,229.355 464.236,229.766 464.042,230.176 463.841,230.588 463.636,231 463.411,231.417 463.183,231.835 462.981,232.229 462.781,232.621 462.58,233.011 462.348,233.421 462.115,233.829 461.899,234.221 461.679,234.607 461.46,234.988 461.21,235.383 460.968,235.767 460.657,236.206 460.422,236.581 460.183,236.959 459.891,237.376 459.614,237.761 459.337,238.14 459.025,238.541 458.727,238.925 458.391,239.323 458.058,239.713 457.748,240.076 457.391,240.458 457.036,240.835 456.696,241.208 456.356,241.578 456.015,241.946 455.664,242.313 455.311,242.68 454.956,243.047 454.61,243.409 454.26,243.773 453.907,244.141 453.543,244.511 453.173,244.885 452.819,245.213 452.456,245.549 452.085,245.892 451.715,246.221 451.337,246.556 450.953,246.895 450.59,247.199 450.223,247.508 449.851,247.819 449.48,248.124 449.115,248.414 448.738,248.723 448.357,249.033 447.985,249.331 447.605,249.636 447.223,249.943 446.848,250.234 446.442,250.568 446.032,250.905 445.647,251.203 445.259,251.502 444.869,251.803 444.484,252.095 444.083,252.404 443.697,252.693 443.31,252.983 442.934,253.252 442.545,253.539 442.155,253.825 441.775,254.093 441.368,254.4 440.96,254.706 440.559,254.996 440.151,255.292 439.745,255.578 439.338,255.864 438.926,256.153 438.526,256.415 438.123,256.677 437.724,256.933 437.306,257.205 436.884,257.479 436.487,257.711 436.088,257.943 435.685,258.17 435.279,258.398 434.87,258.626 434.473,258.823 434.073,259.019 433.65,259.242 433.224,259.466 432.796,259.689 432.381,259.884 431.966,260.077 431.54,260.281 431.115,260.486 430.687,260.668 430.26,260.85 429.833,261.03 429.391,261.244 428.952,261.457 428.517,261.656 428.084,261.855 427.639,262.075 427.2,262.288 426.768,262.495 426.338,262.7 425.911,262.905 425.479,263.13 425.049,263.354 424.633,263.554 424.219,263.754 423.805,263.956 423.358,264.184 422.912,264.413 422.503,264.608 422.094,264.805 421.603,265.071 421.193,265.28 420.783,265.483 420.373,265.687 419.963,265.892 419.553,266.101 419.117,266.327 418.702,266.534 418.286,266.742 417.87,266.949 417.461,267.167 417.051,267.385 416.618,267.62 416.183,267.855 415.777,268.068 415.367,268.281 414.956,268.493 414.514,268.728 414.071,268.962 413.665,269.167 413.258,269.372 412.849,269.578 412.386,269.808 411.921,270.037 411.513,270.227 411.103,270.418 410.611,270.632 410.115,270.847 409.706,271.02 409.278,271.21 408.848,271.4 408.399,271.593 407.948,271.787 407.504,271.99 407.082,272.161 406.628,272.382 406.172,272.603 405.747,272.776 405.321,272.951 404.869,273.148 404.434,273.352 404,273.556 403.55,273.766 403.101,273.976 402.667,274.183 402.233,274.39 401.801,274.596 401.384,274.773 400.968,274.951 400.549,275.145 400.13,275.338 399.713,275.524 399.296,275.71 398.878,275.896 398.434,276.113 397.989,276.33 397.571,276.505 397.151,276.679 396.704,276.895 396.265,277.104 395.833,277.297 395.408,277.472 394.979,277.649 394.534,277.85 394.088,278.05 393.65,278.225 393.211,278.4 392.755,278.598 392.299,278.797 391.843,278.995 391.398,279.171 390.952,279.348 390.501,279.53 390.05,279.712 389.598,279.881 389.145,280.05 388.69,280.228 388.233,280.405 387.777,280.582 387.32,280.74 386.862,280.897 386.402,281.074 385.948,281.224 385.483,281.378 385.017,281.531 384.558,281.698 384.099,281.865 383.635,282.026 383.173,282.188 382.71,282.349 382.248,282.51 381.786,282.669 381.323,282.836 380.86,283 380.399,283.142 379.94,283.283 379.471,283.437 379.004,283.59 378.545,283.726 378.088,283.861 377.619,283.999 377.153,284.138 376.692,284.264 376.232,284.389 375.774,284.513 375.305,284.639 374.838,284.763 374.375,284.877 373.914,284.991 373.442,285.108 372.972,285.224 372.504,285.331 372.038,285.437 371.571,285.55 371.105,285.662 370.64,285.769 370.176,285.875 369.717,285.994 369.26,286.105 368.805,286.216 368.35,286.325 367.895,286.434 367.441,286.545 366.988,286.656 366.531,286.764 366.074,286.873 365.624,286.982 365.17,287.091 364.696,287.194 364.224,287.297 363.77,287.398 363.318,287.499 362.868,287.599 362.408,287.704 361.95,287.808 361.505,287.906 361.062,288.003 360.606,288.102 360.152,288.201 359.704,288.297 359.257,288.393 358.811,288.488 358.349,288.588 357.887,288.688 357.429,288.782 356.973,288.875 356.506,288.974 356.041,289.071 355.581,289.162 355.125,289.253 354.659,289.345 354.198,289.436 353.739,289.519 353.286,289.6 352.839,289.68 352.378,289.757 351.924,289.833 351.463,289.9 351.002,289.967 350.52,290.033 350.013,290.078 349.498,290.123 348.98,290.168 348.512,290.23 348.038,290.291 347.55,290.352 347.055,290.413 346.571,290.471 346.084,290.529 345.598,290.587 345.111,290.645 344.635,290.701 344.159,290.756 343.69,290.813 343.221,290.868 342.752,290.921 342.281,290.973 341.807,291.025 341.335,291.078 340.86,291.131 340.374,291.18 339.886,291.228 339.4,291.278 338.913,291.328 338.419,291.373 337.926,291.417 337.43,291.458 336.935,291.498 336.435,291.533 335.937,291.567 335.432,291.596 334.93,291.624 334.429,291.647 333.93,291.67 333.427,291.691 332.928,291.711 332.434,291.73 331.942,291.75 331.448,291.77 330.956,291.79 330.468,291.81 329.98,291.83 329.489,291.854 328.996,291.879 328.505,291.904 328.013,291.93 327.52,291.961 327.027,291.992 326.532,292.018 326.038,292.045 325.542,292.074 325.049,292.103 324.559,292.128 324.072,292.153 323.58,292.175 323.091,292.197 322.603,292.215 322.116,292.232 321.622,292.247 321.128,292.261 320.634,292.269 320.139,292.278 319.633,292.283 319.126,292.288 318.63,292.285 318.132,292.283 317.622,292.278 317.109,292.273 316.617,292.267 316.124,292.261 315.618,292.254 315.111,292.247 314.618,292.241 314.124,292.234 313.617,292.225 313.11,292.215 312.619,292.202 312.127,292.188 311.62,292.172 311.111,292.156 310.62,292.139 310.128,292.121 309.619,292.104 309.108,292.086 308.616,292.064 308.125,292.043 307.618,292.019 307.111,291.995 306.637,291.962 306.165,291.929 305.661,291.901 305.16,291.873 304.687,291.84 304.214,291.806 303.713,291.774 303.211,291.741 302.735,291.704 302.257,291.666 301.775,291.627 301.269,291.585 300.758,291.541 300.283,291.494 299.805,291.445 299.307,291.387 298.806,291.328 298.343,291.268 297.877,291.208 297.394,291.131 296.908,291.054 296.462,290.981 296.018,290.908 295.548,290.822 295.076,290.734 294.632,290.656 294.187,290.578 293.715,290.485 293.245,290.392 292.774,290.297 292.333,290.212 291.893,290.126 291.42,290.028 290.951,289.933 290.505,289.844 290.059,289.755 289.602,289.657 289.145,289.558 288.679,289.464 288.212,289.369 287.745,289.277 287.277,289.184 286.805,289.091 286.265,288.991 285.8,288.889 285.321,288.792 284.838,288.694 284.365,288.591 283.889,288.488 283.423,288.385 282.954,288.28 282.469,288.171 281.979,288.061 281.522,287.946 281.066,287.833 280.593,287.706 280.118,287.578 279.669,287.456 279.217,287.332 278.749,287.197 278.28,287.061 277.807,286.932 277.347,286.791 276.884,286.65 276.417,286.514 275.947,286.378 275.478,286.228 275.007,286.077 274.539,285.938 274.078,285.788 273.625,285.639 273.171,285.488 272.713,285.334 272.252,285.179 271.791,285.023 271.336,284.864 270.881,284.703 270.411,284.536 269.941,284.368 269.492,284.208 269.044,284.048 268.592,283.88 268.141,283.712 267.7,283.556 267.26,283.4 266.82,283.243 266.366,283.06 265.841,282.828 265.408,282.655 264.974,282.482 264.49,282.263 264.005,282.044 263.581,281.857 263.156,281.669 262.714,281.458 262.271,281.245 261.827,281.031 261.4,280.832 260.973,280.632 260.521,280.407 260.067,280.181 259.647,279.988 259.228,279.797 258.808,279.606 258.37,279.393 257.931,279.18 257.509,278.983 257.087,278.784 256.649,278.571 256.21,278.358 255.788,278.159 255.366,277.961 254.943,277.759 254.504,277.542 254.066,277.325 253.643,277.119 253.219,276.913 252.799,276.712 252.371,276.507 251.945,276.302 251.524,276.103 251.104,275.897 250.68,275.692 250.256,275.487 249.832,275.282 249.415,275.078 248.997,274.873 248.573,274.662 248.15,274.451 247.737,274.245 247.325,274.038 246.911,273.831 246.465,273.593 246.021,273.355 245.6,273.132 245.18,272.909 244.75,272.671 244.319,272.432 243.889,272.194 243.48,271.977 243.06,271.749 242.605,271.491 242.15,271.233 241.742,271.022 241.336,270.808 240.93,270.594 240.511,270.365 240.093,270.137 239.687,269.924 239.281,269.714 238.876,269.504 238.429,269.253 237.982,269.002 237.573,268.783 237.164,268.565 236.747,268.334 236.33,268.103 235.912,267.873 235.476,267.625 235.04,267.376 234.631,267.156 234.222,266.935 233.811,266.709 233.389,266.476 232.967,266.242 232.561,266.021 232.157,265.801 231.74,265.565 231.325,265.33 230.912,265.096 230.507,264.865 230.104,264.636 229.679,264.383 229.255,264.132 228.832,263.88 228.432,263.649 228.034,263.418 227.632,263.183 227.23,262.948 226.827,262.708 226.404,262.444 225.982,262.181 225.586,261.948 225.183,261.702 224.784,261.46 224.385,261.217 223.985,260.973 223.594,260.742 223.203,260.51 222.813,260.279 222.383,260.002 221.984,259.754 221.575,259.494 221.168,259.235 220.771,258.987 220.357,258.725 219.945,258.463 219.548,258.217 219.151,257.97 218.758,257.726 218.365,257.482 217.971,257.239 217.569,256.986 217.162,256.726 216.763,256.474 216.364,256.222 215.965,255.97 215.562,255.717 215.158,255.463 214.751,255.203 214.343,254.944 213.947,254.696 213.521,254.415 213.094,254.133 212.694,253.88 212.263,253.594 211.831,253.307 211.416,253.04 210.996,252.768 210.583,252.501 210.169,252.233 209.764,251.98 209.348,251.718 208.933,251.456 208.516,251.186 208.098,250.917 207.699,250.671 207.301,250.426 206.905,250.183 206.504,249.931 206.105,249.682 205.694,249.425 205.285,249.169 204.875,248.912 204.479,248.665 204.084,248.418 203.69,248.174 203.296,247.931 202.897,247.686 202.509,247.453 202.122,247.221 201.718,246.969 201.32,246.723 200.923,246.477 200.531,246.235 200.138,245.993 199.733,245.739 199.329,245.486 198.927,245.234 198.545,245.007 198.153,244.767 197.759,244.532 197.366,244.296 196.973,244.061 196.584,243.826 196.196,243.591 195.807,243.356 195.408,243.11 195.019,242.88 194.615,242.631 194.212,242.383 193.81,242.135 193.411,241.892 193.005,241.644 192.586,241.384 192.168,241.124 191.733,240.854 191.298,240.584 190.863,240.315 190.425,240.048 189.953,239.76 189.5,239.5 " fill="none" stroke-width="1" stroke="rgb(0,0,255)" />
	<polyline points="189.5,239.5 189.15,239.288 188.794,239.073 188.429,238.844 188.064,238.617 187.708,238.407 187.353,238.198 186.999,237.99 186.648,237.776 186.297,237.563 185.946,237.35 185.595,237.13 185.244,236.91 184.905,236.705 184.574,236.486 184.243,236.268 183.912,236.05 183.581,235.831 183.25,235.612 182.918,235.393 182.604,235.192 182.29,234.991 181.978,234.785 181.665,234.58 181.351,234.374 181.036,234.167 180.728,233.964 180.422,233.766 180.115,233.567 179.8,233.356 179.485,233.144 179.168,232.932 178.85,232.718 178.539,232.51 178.226,232.302 177.912,232.093 177.59,231.877 177.267,231.661 176.942,231.443 176.63,231.247 176.317,231.05 175.995,230.841 175.675,230.642 175.353,230.443 175.029,230.243 174.704,230.037 174.385,229.841 174.067,229.646 173.745,229.449 173.422,229.252 173.098,229.054 172.771,228.854 172.445,228.654 172.118,228.454 171.793,228.259 171.469,228.064 171.149,227.875 170.824,227.68 170.499,227.486 170.174,227.292 169.849,227.098 169.511,226.889 169.173,226.68 168.836,226.47 168.516,226.282 168.195,226.094 167.871,225.903 167.55,225.713 167.228,225.524 166.904,225.333 166.576,225.144 166.248,224.955 165.922,224.768 165.588,224.573 165.252,224.378 164.917,224.182 164.584,223.993 164.252,223.799 163.919,223.605 163.595,223.417 163.27,223.228 162.946,223.039 162.617,222.84 162.288,222.642 161.96,222.443 161.637,222.252 161.314,222.061 160.993,221.871 160.659,221.665 160.326,221.458 159.993,221.252 159.671,221.054 159.347,220.855 159.023,220.656 158.699,220.449 158.375,220.243 158.051,220.036 157.728,219.831 157.405,219.625 157.083,219.419 156.754,219.205 156.426,218.991 156.106,218.788 155.776,218.574 155.446,218.36 155.116,218.145 154.796,217.943 154.465,217.723 154.135,217.502 153.813,217.298 153.491,217.094 153.164,216.882 152.839,216.67 152.523,216.47 152.206,216.269 151.89,216.069 151.563,215.857 151.236,215.645 150.911,215.433 150.588,215.218 150.265,215.002 149.953,214.803 149.634,214.591 149.315,214.379 148.996,214.167 148.684,213.97 148.369,213.765 148.056,213.562 147.737,213.349 147.419,213.137 147.103,212.926 146.788,212.725 146.475,212.526 146.163,212.327 145.852,212.129 145.538,211.92 145.227,211.715 144.918,211.512 144.615,211.322 144.314,211.133 144.016,210.947 143.697,210.74 143.379,210.534 143.064,210.329 142.74,210.12 142.417,209.912 142.11,209.722 141.791,209.517 141.474,209.313 141.16,209.111 140.789,208.886 140.42,208.662 140.051,208.439 139.667,208.204 139.286,207.972 138.929,207.742 138.58,207.53 138.232,207.319 137.886,207.109 137.483,206.838 137.081,206.567 136.68,206.311 136.278,206.054 135.885,205.789 135.5,205.5 " fill="none" stroke-width="1" stroke="rgb(0,0,255)" />
	<polyline points="465.525,182.339 464.836,182.435 464.332,182.828 463.841,183.219 463.369,183.598 462.905,183.98 462.511,184.328 462.135,184.678 461.768,185.022 461.41,185.362 461.05,185.706 460.669,186.067 460.269,186.419 459.864,186.78 459.449,187.154 459.014,187.529 458.577,187.919 458.14,188.334 457.727,188.656 457.306,188.985 456.871,189.343 456.449,189.663 456.021,189.989 455.609,190.291 455.192,190.596 454.775,190.897 454.362,191.195 453.946,191.496 453.519,191.807 453.088,192.12 452.657,192.432 452.223,192.747 451.786,193.065 451.341,193.384 450.893,193.707 450.474,193.998 450.052,194.291 449.613,194.594 449.171,194.898 448.753,195.177 448.333,195.456 447.912,195.738 447.3,196.24 446.865,196.526 446.428,196.811 445.991,197.097 445.548,197.39 445.104,197.685 444.496,198.139 444.041,198.441 443.578,198.752 443.112,199.066 442.645,199.379 442.174,199.694 441.675,200.046 441.16,200.4 440.68,200.718 440.194,201.041 439.681,201.378 439.163,201.716 438.713,201.979 438.248,202.251 437.779,202.524 437.111,202.973 436.666,203.205 436.22,203.438 435.755,203.665 435.287,203.893 434.825,204.111 434.38,204.332 433.933,204.554 433.477,204.759 433.02,204.965 432.566,205.186 432.11,205.407 431.646,205.618 431.18,205.829 430.705,206.074 430.23,206.31 429.751,206.535 429.271,206.759 428.79,206.981 428.285,207.235 427.78,207.487 427.289,207.724 426.671,208.069 426.148,208.328 425.655,208.563 425.163,208.798 424.55,209.132 424.043,209.368 423.539,209.61 423.035,209.85 422.534,210.075 422.034,210.299 421.509,210.547 420.984,210.793 420.496,210.987 420,211.19 419.47,211.438 418.939,211.684 418.442,211.879 417.944,212.074 417.41,212.301 416.876,212.528 416.372,212.715 415.868,212.903 415.322,213.104 414.776,213.306 414.273,213.47 413.77,213.634 413.215,213.807 412.711,213.958 412.206,214.106 411.648,214.274 411.089,214.441 410.582,214.587 410.075,214.732 409.506,214.9 408.936,215.066 408.427,215.209 407.917,215.351 407.348,215.514 406.78,215.676 406.267,215.813 405.755,215.949 405.208,216.091 404.691,216.225 404.176,216.357 403.635,216.492 403.096,216.626 402.574,216.753 402.054,216.88 401.517,217.01 400.978,217.138 400.441,217.259 399.908,217.379 399.346,217.501 398.788,217.621 398.233,217.738 397.636,217.85 397.044,217.961 396.475,218.078 395.909,218.194 395.331,218.306 394.757,218.418 394.203,218.546 393.674,218.664 393.147,218.782 392.593,218.92 392.015,219.08 391.511,219.2 391.011,219.319 390.457,219.462 389.908,219.603 389.41,219.718 388.916,219.832 388.374,219.96 387.809,220.126 387.3,220.235 386.795,220.342 386.248,220.455 385.693,220.55 385.145,220.644 384.606,220.736 384.074,220.827 383.46,220.907 382.853,220.986 382.327,221.063 381.807,221.141 381.193,221.213 380.674,221.284 380.161,221.355 379.559,221.424 378.964,221.491 378.438,221.551 377.916,221.61 377.316,221.672 376.718,221.733 376.195,221.791 375.576,221.848 374.959,221.905 374.444,221.965 373.931,222.023 373.315,222.078 372.702,222.133 372.189,222.19 371.597,222.245 371.005,222.3 370.471,222.348 369.937,222.396 369.345,222.441 368.755,222.485 368.19,222.524 367.607,222.566 367.029,222.607 366.456,222.646 365.888,222.685 365.301,222.717 364.71,222.742 364.106,222.763 363.509,222.778 362.918,222.792 362.311,222.792 361.707,222.791 361.11,222.781 360.513,222.762 359.915,222.742 359.332,222.716 358.748,222.689 358.171,222.661 357.611,222.63 357.048,222.598 356.504,222.561 355.956,222.523 355.408,222.487 354.854,222.45 354.304,222.41 353.749,222.37 353.174,222.337 352.62,222.295 352.064,222.252 351.415,222.244 350.763,222.237 350.218,222.187 349.658,222.15 349.095,222.114 348.504,222.067 347.907,222.018 347.366,221.981 346.83,221.938 346.264,221.886 345.697,221.84 345.127,221.792 344.604,221.723 344.075,221.653 343.525,221.581 342.968,221.505 342.431,221.427 341.883,221.347 341.343,221.253 340.792,221.157 340.264,221.064 339.732,220.954 339.195,220.813 338.68,220.705 338.158,220.593 337.629,220.469 337.096,220.343 336.578,220.214 336.055,220.084 335.532,219.951 334.999,219.824 334.48,219.684 333.959,219.543 333.415,219.398 332.868,219.251 332.35,219.095 331.83,218.938 331.28,218.773 330.727,218.606 330.21,218.437 329.662,218.255 329.112,218.071 328.597,217.887 328.082,217.701 327.539,217.488 326.994,217.273 326.483,217.074 325.931,216.822 325.406,216.601 324.878,216.378 324.371,216.152 323.862,215.924 323.345,215.703 322.826,215.48 322.329,215.235 321.833,214.989 321.324,214.769 320.818,214.548 320.337,214.313 319.859,214.078 319.356,213.847 318.86,213.617 318.408,213.383 317.964,213.151 317.377,212.839 316.794,212.527 316.333,212.263 315.872,211.998 315.372,211.703 314.868,211.404 314.405,211.114 313.892,210.765 313.4,210.46 312.905,210.153 312.432,209.845 311.965,209.541 311.494,209.236 311.027,208.934 310.578,208.649 310.132,208.365 309.661,208.052 309.196,207.742 308.755,207.454 308.316,207.167 307.735,206.738 307.282,206.436 306.827,206.133 306.374,205.833 305.919,205.532 305.464,205.224 305.011,204.916 304.539,204.599 304.07,204.283 303.589,203.934 303.13,203.608 302.642,203.253 302.169,202.909 301.714,202.571 301.265,202.237 300.824,201.908 300.361,201.566 299.9,201.225 299.461,200.89 299.042,200.579 298.598,200.246 297.98,199.702 297.564,199.384 297.148,199.063 296.712,198.726 296.268,198.383 295.818,198.034 295.385,197.696 294.954,197.359 294.511,197.014 294.058,196.646 293.625,196.296 293.198,195.95 292.76,195.585 292.329,195.226 291.903,194.87 291.464,194.493 291.022,194.113 290.608,193.77 290.193,193.425 289.777,193.082 289.319,192.697 288.864,192.315 288.431,191.95 288.032,191.622 287.61,191.26 287.083,190.74 286.66,190.354 286.247,189.978 285.847,189.586 285.432,189.198 285.031,188.798 284.619,188.407 284.203,188.013 283.786,187.617 283.364,187.216 282.938,186.811 282.511,186.403 282.085,185.996 281.662,185.601 281.239,185.207 280.815,184.813 280.382,184.407 279.948,183.999 279.512,183.596 279.082,183.198 278.664,182.829 278.232,182.419 277.808,182.014 277.385,181.607 276.96,181.195 276.546,180.784 276.129,180.37 275.721,179.955 275.312,179.543 274.903,179.13 274.489,178.717 274.073,178.302 273.664,177.887 273.256,177.472 272.849,177.057 272.434,176.643 272.021,176.229 271.605,175.813 271.197,175.397 270.783,174.975 270.366,174.555 269.952,174.138 269.543,173.721 269.141,173.31 268.73,172.89 268.315,172.47 267.904,172.052 267.495,171.638 267.095,171.229 266.691,170.816 266.287,170.395 265.886,169.975 265.473,169.543 265.071,169.122 264.676,168.696 264.289,168.279 263.911,167.871 263.519,167.447 263.124,167.019 262.704,166.56 262.285,166.1 261.955,165.673 261.554,165.229 261.156,164.789 260.734,164.335 260.312,163.881 259.89,163.426 259.503,162.996 259.11,162.561 258.738,162.141 258.364,161.72 257.978,161.287 257.606,160.863 257.255,160.457 256.902,160.052 256.554,159.653 256.204,159.251 255.762,158.799 255.398,158.394 255.025,157.979 254.642,157.558 254.248,157.126 253.891,156.716 253.48,156.271 253.074,155.833 252.673,155.4 252.277,154.972 251.923,154.571 251.516,154.134 251.129,153.705 250.721,153.268 250.317,152.837 249.966,152.437 249.572,152.002 249.206,151.596 248.849,151.201 248.491,150.804 248.145,150.414 247.615,149.886 247.239,149.479 246.852,149.059 246.448,148.627 246.045,148.197 245.63,147.765 245.222,147.339 244.821,146.921 244.403,146.497 243.999,146.087 243.588,145.679 243.193,145.286 242.81,144.902 242.391,144.502 241.98,144.108 241.568,143.71 241.157,143.312 240.696,142.898 240.278,142.502 239.85,142.098 239.414,141.685 238.965,141.26 238.525,140.871 238.104,140.462 237.682,140.055 237.267,139.648 236.846,139.235 236.392,138.793 235.976,138.372 235.575,137.959 235.183,137.556 234.767,137.131 234.361,136.722 233.947,136.305 233.525,135.888 233.116,135.484 232.701,135.096 232.286,134.707 231.869,134.317 231.458,133.937 231.038,133.548 230.614,133.149 230.205,132.777 229.784,132.378 229.358,131.974 228.928,131.578 228.49,131.146 228.035,130.701 227.6,130.258 227.165,129.814 226.759,129.381 226.35,128.945 225.982,128.531 225.612,128.116 225.234,127.693 224.856,127.27 224.493,126.86 224.124,126.445 223.769,126.041 223.363,125.608 222.96,125.177 222.544,124.742 222.129,124.308 221.731,123.885 221.317,123.459 220.904,123.033 220.487,122.607 220.071,122.183 219.665,121.763 219.274,121.347 218.895,120.934 218.512,120.519 218.134,120.108 217.767,119.702 217.403,119.297 217.041,118.896 216.664,118.485 216.29,118.077 215.895,117.688 215.529,117.28 215.167,116.875 214.796,116.463 214.433,116.058 214.012,115.623 213.651,115.215 213.292,114.808 212.961,114.41 212.592,113.991 212.245,113.576 211.902,113.165 211.518,112.727 211.131,112.285 210.711,111.816 210.283,111.341 209.859,110.871 209.407,110.407 208.967,109.955 208.5,109.5 " fill="none" stroke-width="1" stroke="rgb(0,0,255)" />
	<polyline points="208.5,109.5 208.074,109.172 207.671,108.855 207.274,108.566 206.88,108.279 206.49,107.986 206.105,107.705 205.748,107.433 205.394,107.163 205.042,106.895 204.705,106.635 204.369,106.375 204.032,106.115 203.706,105.856 203.377,105.595 203.045,105.332 202.723,105.084 202.398,104.842 202.072,104.599 201.748,104.357 201.423,104.115 201.096,103.871 200.769,103.632 200.442,103.393 200.115,103.155 199.795,102.931 199.469,102.701 199.141,102.47 198.771,102.185 198.402,101.902 198.059,101.667 197.718,101.426 197.377,101.185 197.035,100.944 196.678,100.71 196.324,100.478 195.975,100.249 195.648,100.044 195.31,99.8246 194.974,99.6067 194.603,99.3819 194.234,99.1583 193.867,98.936 193.498,98.7224 193.129,98.5086 192.703,98.262 192.278,98.0164 191.873,97.7975 191.458,97.5751 191.043,97.3534 190.6,97.1154 190.157,96.8808 189.711,96.6421 189.266,96.4041 188.822,96.1667 188.376,95.9263 187.932,95.7071 187.5,95.5 " fill="none" stroke-width="1" stroke="rgb(0,0,255)" />
	<polyline points="187.5,95.5 186.926,95.3016 186.339,95.0926 185.761,94.8793 185.198,94.6767 184.634,94.4893 184.069,94.3011 183.537,94.1191 183.003,93.9363 182.442,93.795 181.88,93.6528 181.392,93.4923 180.902,93.3309 180.408,93.172 179.912,93.0122 179.451,92.8566 178.988,92.7002 178.513,92.543 178.036,92.3849 177.59,92.2219 177.142,92.0582 176.673,91.8953 176.201,91.7316 175.758,91.5644 175.314,91.3965 174.867,91.228 174.402,91.057 173.886,90.8525 173.441,90.6854 172.994,90.5179 172.537,90.3351 172.08,90.1517 171.627,89.9865 171.168,89.8207 170.699,89.6308 170.228,89.4396 169.726,89.2707 169.218,89.0954 168.699,88.904 168.215,88.7264 167.75,88.5677 167.283,88.4097 166.813,88.2513 166.323,88.0831 165.831,87.9151 165.382,87.7582 164.931,87.6008 164.442,87.4288 163.95,87.2563 163.494,87.1003 163.037,86.9438 162.537,86.7637 162.035,86.583 161.581,86.4244 161.126,86.2654 160.62,86.0654 160.134,85.8995 159.677,85.7414 159.219,85.5828 158.737,85.4133 158.254,85.2433 157.769,85.0727 157.302,84.9174 156.833,84.7617 156.337,84.5891 155.84,84.416 155.363,84.2545 154.884,84.0925 154.339,83.9145 153.835,83.7488 153.352,83.5902 152.87,83.4314 152.37,83.2681 151.87,83.1047 151.391,82.9463 150.914,82.7856 150.423,82.618 149.932,82.4502 149.459,82.2897 148.987,82.1293 148.498,81.9674 148.012,81.8041 147.542,81.6405 147.074,81.4771 146.585,81.3061 146.098,81.1355 145.628,80.976 145.16,80.8164 144.66,80.6409 144.163,80.466 143.692,80.302 143.223,80.1384 142.684,79.9588 142.192,79.7931 141.712,79.6291 141.234,79.4657 140.75,79.2986 140.268,79.132 139.788,78.966 139.299,78.7969 138.812,78.6284 138.32,78.4623 137.831,78.2967 137.334,78.1222 136.839,77.9482 136.319,77.7726 135.8,77.5973 135.31,77.4053 134.821,77.2139 134.341,77.0426 133.865,76.8702 133.391,76.6831 132.918,76.496 132.448,76.3225 131.979,76.149 131.467,75.9362 130.969,75.7541 130.477,75.5732 129.983,75.3921 129.45,75.2071 128.915,75.0217 128.384,74.837 127.85,74.6514 127.321,74.4634 126.788,74.2747 126.27,74.0992 125.749,73.9234 125.217,73.72 124.73,73.5438 124.241,73.367 123.691,73.1335 123.14,72.8992 122.688,72.7284 122.234,72.5571 121.778,72.3853 121.286,72.1975 120.793,72.0095 120.348,71.8386 119.903,71.6674 119.42,71.4573 118.935,71.2465 118.492,71.0813 118.049,70.9123 117.581,70.7143 117.112,70.5159 116.666,70.3379 116.219,70.1597 115.734,69.9324 115.255,69.7201 114.776,69.5076 114.328,69.3248 113.879,69.1418 113.352,68.8925 112.884,68.7021 112.424,68.5275 111.965,68.3529 111.491,68.1715 111.017,67.9901 110.558,67.8286 110.099,67.6672 109.626,67.4924 109.154,67.3178 108.693,67.1551 108.232,66.9925 107.754,66.8098 107.276,66.6273 106.799,66.4452 106.334,66.283 105.87,66.121 105.383,65.9299 104.893,65.7606 104.422,65.5905 103.951,65.4207 103.442,65.2485 102.933,65.0768 102.441,64.9074 101.949,64.7381 101.363,64.5032 100.776,64.2686 100.24,64.0704 99.6318,63.8759 99.024,63.6816 98.5,63.5 " fill="none" stroke-width="1" stroke="rgb(0,0,255)" />
	<polyline points="107.411,46.3207 107.572,46.1999 107.732,46.0791 107.892,45.9586 108.052,45.8395 108.213,45.7204 108.374,45.6019 108.536,45.484 108.7,45.3668 108.864,45.2506 109.03,45.1353 109.199,45.0209 109.369,44.9072 109.54,44.7951 109.713,44.6845 109.888,44.5755 110.065,44.4683 110.243,44.3634 110.422,44.2603 110.604,44.1593 110.789,44.0602 110.975,43.9632 111.16,43.8694 111.347,43.7777 111.537,43.6881 111.73,43.6006 111.925,43.5153 112.123,43.4335 112.323,43.3539 112.526,43.2765 112.731,43.2013 112.94,43.1284 113.15,43.0573 113.362,42.9886 113.579,42.9219 113.799,42.8577 114.021,42.7961 114.251,42.7373 114.484,42.6811 114.719,42.6276 114.956,42.5766 115.191,42.5282 115.429,42.4822 115.669,42.4385 115.91,42.3971 116.158,42.3609 116.407,42.3275 116.659,42.297 116.912,42.2693 117.168,42.2446 117.425,42.2227 117.684,42.2036 117.945,42.1872 118.203,42.1726 118.463,42.1606 118.725,42.1512 118.988,42.1443 119.251,42.1389 119.515,42.1354 119.78,42.1337 120.046,42.1337 120.309,42.135 120.574,42.1387 120.84,42.1448 121.108,42.1532 121.382,42.1668 121.657,42.1814 121.933,42.1969 122.203,42.2103 122.473,42.2248 122.745,42.2403 123.016,42.2567 123.291,42.2761 123.565,42.2961 123.841,42.3166 124.117,42.3377 124.387,42.3572 124.657,42.3772 124.928,42.3977 125.201,42.4206 125.474,42.4433 125.748,42.466 126.022,42.4884 126.292,42.5089 126.563,42.5292 126.834,42.5493 127.105,42.5691 127.376,42.5873 127.647,42.6049 127.918,42.6218 128.186,42.6353 128.454,42.6484 128.722,42.6608 128.991,42.6727 129.26,42.6851 129.53,42.697 129.799,42.7087 " fill="none" stroke-width="1" stroke="rgb(0,0,255)" />
	<polyline points="85.5,59.5 85.6595,59.0688 85.8192,58.647 85.9789,58.2233 86.1404,57.7986 86.3216,57.3831 86.5038,56.9569 86.7429,56.4968 86.983,56.0332 87.2085,55.586 87.4347,55.1362 87.684,54.7122 87.933,54.2891 88.1759,53.8807 88.4259,53.4796 88.6765,53.0777 88.9371,52.6726 89.2105,52.2738 89.484,51.8751 89.7974,51.4565 90.1084,51.041 90.388,50.6515 90.6651,50.2646 90.9397,49.8806 91.2614,49.4872 91.6041,49.0992 91.986,48.6964 92.3814,48.3089 92.7696,47.9287 93.1792,47.5481 93.5611,47.1711 93.9774,46.7936 94.3607,46.4821 94.7404,46.1736 95.1142,45.8649 95.4812,45.6146 95.8533,45.3873 96.2368,45.1658 96.6108,44.9503 97.0079,44.7201 97.3777,44.5322 97.754,44.3651 98.1391,44.2177 98.5537,44.0811 98.9637,43.9463 99.4253,43.8362 99.8799,43.7272 100.333,43.6219 100.778,43.5176 101.213,43.4143 101.639,43.3134 102.058,43.212 102.47,43.1365 102.919,43.1157 103.395,43.1356 103.9,43.1953 104.421,43.3486 104.667,43.7737 104.895,44.2015 105.228,44.5599 105.611,44.8607 106.01,45.1389 106.477,45.5589 106.947,45.969 107.411,46.3207 " fill="none" stroke-width="1" stroke="rgb(0,0,255)" />
	<polyline points="375.816,50.0672 375.857,50.6432 375.907,51.2291 375.95,51.7087 376.144,51.9383 376.234,52.4242 376.581,52.6643 376.929,52.8919 377.271,53.1083 377.612,53.324 377.953,53.5397 378.3,53.7702 378.646,53.9994 379.006,54.237 379.343,54.4558 379.679,54.6757 380.014,54.8966 380.361,55.1315 380.706,55.3694 381.051,55.6104 381.388,55.8511 381.724,56.0908 382.069,56.3461 382.41,56.5891 382.751,56.8321 383.089,57.0754 383.431,57.3334 383.771,57.5939 384.109,57.8617 384.462,58.2065 384.842,58.6521 385.263,59.1383 385.732,59.7173 386.307,60.6133 " fill="none" stroke-width="1" stroke="rgb(0,0,255)" />
	<polyline points="85.5,80.5 85.5048,79.4547 85.5171,78.3916 85.4807,77.3946 85.4733,76.1986 85.4497,74.9839 85.4381,73.6027 85.4249,72.0667 85.4097,70.3988 85.3971,68.5468 85.3911,66.5632 85.4,64.7305 85.4313,63.2473 85.4648,62.0243 85.4887,60.7737 85.5,59.5 " fill="none" stroke-width="1" stroke="rgb(0,0,255)" />
	<polyline points="98.5,63.5 98.7945,62.9352 99.2004,62.2698 99.4752,61.5781 99.7627,60.8371 100.014,60.2628 100.244,59.6341 100.462,59.0054 100.691,58.4089 100.919,57.8182 101.14,57.1501 101.38,56.5632 101.619,55.9785 101.883,55.3608 102.217,54.7055 102.477,54.1192 102.783,53.4925 103.082,52.88 103.386,52.2686 103.76,51.5824 104.257,50.71 104.676,50.0198 105.021,49.3418 105.728,48.4102 106.609,47.3187 107.411,46.3207 " fill="none" stroke-width="1" stroke="rgb(0,0,255)" />
	<polyline points="202.567,71.2292 202.873,71.2435 203.184,71.2636 203.496,71.2841 203.807,71.3048 204.119,71.3259 204.429,71.3402 204.739,71.3545 205.049,71.369 205.357,71.3849 205.666,71.4003 205.974,71.4152 206.281,71.4289 206.588,71.4422 206.895,71.4553 207.198,71.4778 207.5,71.5 " fill="none" stroke-width="1" stroke="rgb(0,0,255)" />
	<polyline points="207.5,71.5 207.738,71.5542 207.977,71.6079 208.217,71.665 208.457,71.7217 208.698,71.778 208.938,71.8339 209.181,71.8887 209.423,71.9434 209.666,71.9979 209.907,72.0531 210.151,72.11 210.395,72.1664 210.639,72.2224 210.883,72.2779 211.127,72.3337 211.372,72.3892 211.616,72.4444 211.861,72.4993 212.106,72.554 212.353,72.6104 212.6,72.6665 212.847,72.7222 213.095,72.7777 213.342,72.8322 213.59,72.8864 213.838,72.9401 214.085,72.9935 214.334,73.0497 214.582,73.1058 214.83,73.1619 215.079,73.2179 215.328,73.2736 215.577,73.3292 215.826,73.3848 216.075,73.4403 216.324,73.4957 " fill="none" stroke-width="1" stroke="rgb(0,0,255)" />
	<polyline points="230.5,89.5 230.175,89.1062 229.841,88.7151 229.521,88.3352 229.204,87.9586 228.88,87.5783 228.571,87.212 228.266,86.8494 227.97,86.5052 227.698,86.1698 227.428,85.8351 227.129,85.4978 226.801,85.1668 226.493,84.8333 226.199,84.509 225.906,84.1809 225.599,83.8686 225.305,83.5476 225.014,83.2298 224.734,82.9093 224.428,82.5869 224.125,82.2668 223.803,81.925 223.494,81.6128 223.182,81.2991 222.87,80.9847 222.524,80.6602 222.184,80.34 221.85,80.0238 221.538,79.7305 221.234,79.4429 220.939,79.1605 220.625,78.8567 220.332,78.583 220.04,78.3097 219.754,78.0465 219.479,77.7747 219.202,77.5003 218.92,77.2233 218.628,76.8986 218.334,76.6001 218.033,76.2896 217.75,75.9238 217.475,75.546 217.205,75.1755 217.052,74.7531 216.797,74.3358 216.546,73.9218 216.324,73.4957 " fill="none" stroke-width="1" stroke="rgb(0,0,255)" />
	<polyline points="85.5,59.5 86.4999,59.7007 87.4948,59.9058 88.3277,60.1173 88.9426,60.3061 89.6351,60.5151 90.343,60.7278 90.9391,60.9011 91.5561,61.1103 92.1839,61.3215 92.7724,61.5065 93.3846,61.7125 94.0061,61.9203 94.5992,62.1186 95.1985,62.3194 95.9071,62.5475 96.5121,62.7764 97.1203,63.0075 97.8675,63.2586 98.5,63.5 " fill="none" stroke-width="1" stroke="rgb(0,0,255)" />
	<polyline points="215.5,93.5 216.195,93.4438 216.891,93.388 217.476,93.2989 218.018,93.1788 218.569,93.0559 219.102,92.9188 219.608,92.7788 220.112,92.6376 220.653,92.4862 221.195,92.3349 221.674,92.1991 222.152,92.0634 222.634,91.9299 223.114,91.7952 223.576,91.6652 224.038,91.5354 224.517,91.4015 224.995,91.2676 225.448,91.1324 225.9,90.9974 226.36,90.8537 226.821,90.7101 227.258,90.5726 227.695,90.4352 228.131,90.298 228.566,90.1442 229.002,89.9902 229.504,89.8328 230.006,89.6756 230.5,89.5 " fill="none" stroke-width="1" stroke="rgb(0,0,255)" />
	<polyline points="187.5,95.5 187.658,95.0577 187.816,94.616 187.975,94.1755 188.128,93.7375 188.282,93.3009 188.436,92.8659 188.588,92.4482 188.74,92.0309 188.88,91.618 189.02,91.2087 189.163,90.8236 189.35,90.4079 189.536,89.995 189.683,89.6197 189.831,89.2463 189.978,88.8745 190.134,88.5115 190.291,88.146 190.452,87.7499 190.612,87.354 190.773,86.9583 190.958,86.5855 191.14,86.2133 191.322,85.842 191.521,85.4675 191.721,85.0933 191.923,84.7155 192.12,84.3427 192.318,83.9697 192.53,83.5697 192.743,83.1701 192.995,82.7533 193.214,82.3684 193.434,81.9829 193.713,81.5764 193.988,81.1743 194.275,80.773 194.562,80.3722 194.85,79.9718 195.174,79.5664 195.498,79.1631 195.817,78.7549 196.131,78.353 196.46,77.9623 196.799,77.5759 197.133,77.1942 197.459,76.8351 197.782,76.4822 198.101,76.1323 198.421,75.7872 198.74,75.4435 199.057,75.1012 199.372,74.7706 199.688,74.44 200.005,74.1092 200.343,73.7404 200.681,73.3721 201.02,73.0041 201.334,72.6587 201.647,72.3142 201.958,71.9706 202.262,71.6002 202.567,71.2292 " fill="none" stroke-width="1" stroke="rgb(0,0,255)" />
	<polyline points="189.5,239.5 189.655,238.641 189.811,237.705 189.767,235.41 189.583,233.079 189.431,230.939 189.185,227.358 189.033,223.996 189.023,220.824 189.009,217.648 188.972,214.621 188.938,211.589 188.94,208.569 188.96,205.311 188.961,202.185 188.941,199.216 188.891,196.497 188.821,193.69 188.741,190.868 188.664,187.777 188.592,184.758 188.518,181.747 188.448,178.741 188.384,175.731 188.321,172.719 188.252,169.731 188.197,166.709 188.131,163.923 188.066,160.917 187.993,157.924 187.913,155.066 187.855,152.206 187.826,149.191 187.801,146.174 187.773,143.163 187.748,140.166 187.722,137.154 187.691,134.153 187.661,131.148 187.627,128.127 187.58,125.164 187.543,122.16 187.516,119.148 187.498,116.112 187.487,113.002 187.475,109.619 187.451,105.037 187.405,100.797 187.442,99.1793 187.4,97.2317 187.5,95.5 " fill="none" stroke-width="1" stroke="rgb(0,0,255)" />
	<polyline points="129.799,42.7087 130.201,42.5851 130.596,42.4607 130.994,42.3399 131.391,42.2212 131.794,42.1078 132.203,41.9999 132.591,41.8908 132.985,41.7859 133.389,41.6841 133.802,41.5866 134.213,41.4961 134.629,41.4088 135.05,41.3249 135.47,41.234 135.897,41.1461 136.318,41.0634 136.744,40.9834 137.167,40.9037 137.606,40.8197 138.049,40.7375 138.451,40.6539 138.856,40.572 139.303,40.4914 139.754,40.4126 140.207,40.3355 140.634,40.2596 141.065,40.1863 141.528,40.1141 141.995,40.0438 142.446,39.9777 142.907,39.914 143.392,39.8479 143.878,39.7834 144.336,39.7126 144.795,39.6433 145.289,39.5774 145.783,39.513 146.236,39.4217 146.688,39.3319 147.14,39.2436 147.645,39.1712 148.15,39.1006 148.571,39.0184 149.013,38.9555 149.492,38.8987 149.972,38.8424 150.447,38.8045 150.923,38.7678 151.414,38.7305 151.906,38.6941 152.374,38.6544 152.845,38.6157 153.33,38.578 153.818,38.5412 154.288,38.4971 154.762,38.4537 155.238,38.411 155.723,38.3695 156.211,38.3286 156.694,38.2771 157.18,38.226 157.662,38.1769 158.146,38.1281 158.63,38.0511 159.115,37.9741 159.574,37.9218 160.033,37.8689 160.487,37.8197 160.942,37.7703 161.406,37.7241 161.869,37.6778 162.33,37.6381 162.789,37.5984 163.273,37.5691 163.754,37.5398 164.232,37.5106 164.701,37.4878 165.166,37.4648 165.671,37.4443 166.172,37.4231 166.642,37.399 167.108,37.3741 167.621,37.3379 168.132,37.3014 168.588,37.2793 169.042,37.2568 169.542,37.2293 170.042,37.2018 170.492,37.1777 170.943,37.1533 171.44,37.1278 171.94,37.1028 172.392,37.0807 172.846,37.0586 173.336,37.0368 173.827,37.0148 174.28,36.9911 174.758,36.9834 175.235,36.9757 175.74,36.9696 176.244,36.9637 176.717,36.9426 177.189,36.9214 177.668,36.8905 178.147,36.8594 178.627,36.8231 179.107,36.7866 179.571,36.7313 180.034,36.6757 180.503,36.6108 180.971,36.5456 181.44,36.4782 181.907,36.4108 182.391,36.3577 182.872,36.3045 183.355,36.2529 183.835,36.201 184.341,36.1832 184.843,36.1648 185.339,36.1344 185.83,36.1034 186.312,36.1058 186.79,36.1073 187.263,36.0941 187.733,36.08 188.2,36.0651 188.686,36.0539 189.17,36.0422 189.634,35.9964 190.097,35.9494 190.568,35.913 191.039,35.8762 191.488,35.8037 191.939,35.7312 192.392,35.6681 192.847,35.6049 193.31,35.5512 193.776,35.4977 194.27,35.4668 194.766,35.4362 195.237,35.3856 195.707,35.3356 196.178,35.2862 196.677,35.2633 197.176,35.2412 197.646,35.192 198.118,35.1436 198.611,35.1097 199.106,35.0765 199.597,35.0316 200.09,34.9871 200.583,34.951 201.078,34.9152 201.575,34.8743 202.072,34.8333 202.565,34.794 203.057,34.7546 203.557,34.7173 204.054,34.6776 204.526,34.6233 204.996,34.5679 205.484,34.5376 205.968,34.5069 206.467,34.499 206.963,34.4901 207.446,34.4898 207.928,34.4886 208.414,34.4642 208.9,34.4389 209.374,34.4169 209.853,34.3957 210.341,34.365 210.835,34.3352 211.315,34.3063 211.802,34.2785 212.29,34.2372 212.784,34.1968 213.266,34.1605 213.752,34.125 214.242,34.0904 214.739,34.0501 215.237,34.0105 215.716,33.973 216.196,33.936 216.696,33.9024 217.196,33.869 217.665,33.8335 218.132,33.7984 218.63,33.7707 219.125,33.7424 219.593,33.7143 220.059,33.6864 220.548,33.6592 221.038,33.6319 221.535,33.6304 222.035,33.6296 222.557,33.6285 223.084,33.6283 223.569,33.6124 224.06,33.597 224.549,33.5633 225.043,33.5298 225.502,33.4794 225.964,33.4288 226.417,33.3616 226.871,33.2944 227.329,33.2239 227.786,33.1534 228.228,33.0816 228.668,33.0098 229.134,32.9542 229.609,32.8948 230.078,32.8346 230.561,32.7808 231.039,32.726 231.515,32.6718 231.985,32.6173 232.499,32.6047 233.005,32.5913 233.5,32.5777 233.99,32.5637 234.457,32.5428 234.92,32.5219 235.374,32.4883 235.827,32.4549 236.283,32.4158 236.741,32.3771 237.202,32.3386 237.666,32.2826 238.133,32.2263 238.61,32.1609 239.089,32.0951 239.603,32.0356 240.119,31.9757 240.593,31.9318 241.068,31.8875 241.551,31.8412 242.035,31.7944 242.532,31.7662 243.028,31.7368 243.519,31.7055 244.008,31.6736 244.495,31.6527 244.981,31.6317 245.472,31.6127 245.961,31.5939 246.426,31.5644 246.89,31.5348 247.382,31.507 247.874,31.4792 248.34,31.445 248.804,31.4099 249.305,31.3706 249.805,31.3302 250.281,31.2979 250.758,31.2655 251.254,31.2247 251.75,31.1837 252.247,31.1425 252.722,31.1 253.199,31.0576 253.68,31.0054 254.164,30.9577 254.639,30.9128 255.113,30.868 255.6,30.8278 256.087,30.7876 256.583,30.7637 257.077,30.7395 257.558,30.6916 258.037,30.6427 258.513,30.5945 258.989,30.5466 259.463,30.4888 259.937,30.4311 260.4,30.3699 260.864,30.3091 261.331,30.2404 261.8,30.1721 262.262,30.1069 262.726,30.0421 263.191,29.9779 263.673,29.9126 264.155,29.8477 264.624,29.7803 265.092,29.7134 265.59,29.6532 266.088,29.5934 266.548,29.5153 267.008,29.4377 267.49,29.4147 267.971,29.3927 268.45,29.3405 268.929,29.2896 269.404,29.2886 269.878,29.2895 270.35,29.2805 270.821,29.2729 271.3,29.2831 271.777,29.2945 272.263,29.2797 272.749,29.2674 273.235,29.2578 273.729,29.2584 274.222,29.2615 274.708,29.253 275.194,29.2479 275.681,29.2601 276.167,29.2751 276.643,29.2769 277.121,29.2818 277.608,29.2923 278.095,29.3057 278.591,29.3187 279.088,29.3347 279.56,29.3439 280.032,29.3564 280.513,29.3719 280.994,29.3897 281.475,29.4013 281.956,29.4158 282.431,29.4668 282.906,29.52 283.383,29.5554 283.859,29.5924 284.324,29.6559 284.789,29.7211 285.266,29.7621 285.745,29.8029 286.225,29.8434 286.674,29.9171 287.123,29.9922 287.55,30.07 287.976,30.1488 288.411,30.2397 288.845,30.3312 289.28,30.415 289.713,30.4999 290.145,30.5859 290.622,30.6545 291.097,30.7247 291.583,30.7896 292.07,30.8552 292.566,30.9068 293.061,30.9596 293.557,31.0172 294.016,31.1013 294.446,31.1987 294.876,31.2967 295.356,31.368 295.837,31.4384 296.28,31.5317 296.725,31.6251 297.171,31.7188 297.647,31.8019 298.126,31.8844 298.588,31.987 299.052,32.0754 299.524,32.1634 299.999,32.2509 300.446,32.3428 300.896,32.4355 301.379,32.5289 301.866,32.6217 302.302,32.713 302.741,32.8047 303.181,32.897 303.658,32.9646 304.133,33.0853 304.611,33.1748 305.092,33.2647 305.541,33.3733 305.992,33.4832 306.496,33.5903 307.003,33.6978 307.44,33.8203 307.878,33.9432 308.348,34.0711 308.819,34.1999 309.243,34.2938 309.668,34.3879 310.094,34.4822 310.557,34.5842 311.021,34.686 311.436,34.793 311.852,34.9004 312.327,34.9804 312.77,35.1079 313.212,35.2371 313.689,35.3708 314.166,35.5053 314.61,35.6101 315.054,35.7156 315.573,35.7873 316.092,35.8589 316.538,35.946 316.985,36.0334 317.401,36.1127 317.817,36.1925 318.284,36.3109 318.751,36.4294 319.217,36.548 319.626,36.6666 320.035,36.7848 320.489,36.9221 320.943,37.0579 321.375,37.1275 321.805,37.198 322.28,37.3495 322.754,37.501 323.229,37.6527 323.645,37.745 324.06,37.838 324.54,38.0037 325.036,38.1018 325.439,38.1983 325.842,38.2965 326.352,38.4573 326.864,38.6199 327.271,38.7286 327.678,38.8381 328.085,38.9483 328.613,39.0567 329.142,39.167 329.549,39.2781 329.956,39.3905 330.496,39.5523 331.038,39.7154 331.451,39.8275 331.867,39.9407 332.355,40.0624 332.838,40.1861 333.265,40.3263 333.689,40.4663 334.111,40.6063 334.63,40.7596 335.148,40.9127 335.559,41.037 335.97,41.1404 336.448,41.2627 336.923,41.3875 337.317,41.506 337.708,41.6265 338.098,41.7489 338.568,41.9538 338.993,42.0922 339.382,42.2205 339.77,42.3489 340.155,42.4774 340.569,42.6124 340.982,42.7461 341.362,42.8689 341.74,42.9929 342.111,43.1297 342.507,43.2688 342.9,43.4092 343.272,43.5358 343.642,43.6627 344.009,43.7898 344.394,43.9208 344.776,44.0549 345.166,44.2167 345.531,44.3564 345.895,44.4959 346.276,44.6462 346.655,44.7975 347.032,44.9499 347.42,45.1195 347.808,45.2889 348.194,45.4512 348.58,45.6135 348.965,45.7757 349.378,45.9754 349.809,46.1588 " fill="none" stroke-width="1" stroke="rgb(0,0,255)" />
	<polyline points="386.307,60.6133 386.772,60.766 387.228,60.9211 387.68,61.0734 388.209,61.1711 388.689,61.3182 389.172,61.4558 389.642,61.6012 390.114,61.7475 390.538,61.8929 390.966,62.0383 391.416,62.1515 391.868,62.2672 392.319,62.3961 392.771,62.5279 393.227,62.6593 393.628,62.8222 394.023,63.0095 394.391,63.1857 394.761,63.3649 395.134,63.5474 395.5,63.7312 395.869,63.9173 396.242,64.1185 396.618,64.3222 396.997,64.5284 397.384,64.7521 397.775,64.9781 398.162,65.2119 398.529,65.4205 398.897,65.6313 399.277,65.8582 399.659,66.0886 400.052,66.3446 400.446,66.595 400.843,66.8478 401.239,67.1062 401.614,67.339 401.992,67.5737 402.381,67.8235 402.772,68.0768 403.167,68.3311 403.565,68.6029 403.964,68.8762 404.357,69.1394 404.751,69.4036 405.144,69.6686 405.544,69.9493 405.929,70.2124 406.335,70.4958 406.74,70.7791 407.143,71.062 407.547,71.3593 407.948,71.6556 408.36,71.9628 408.955,72.5033 409.354,72.8028 409.75,73.0995 410.159,73.4223 410.563,73.7329 410.965,74.0428 411.355,74.3312 411.744,74.6189 412.132,74.9061 412.513,75.1935 412.893,75.4809 413.276,75.771 413.657,76.0603 414.145,76.4961 414.538,76.8055 414.93,77.1134 415.319,77.4172 415.707,77.724 416.093,78.0339 416.5,78.3668 416.905,78.7011 417.299,79.0332 417.681,79.3498 418.06,79.6641 418.457,79.9985 418.936,80.4756 419.329,80.8221 419.718,81.1629 420.114,81.5663 420.499,81.905 420.875,82.2095 421.266,82.5718 421.656,82.9359 422.053,83.2741 422.438,83.6403 422.823,84.0083 423.203,84.3879 423.583,84.7682 423.963,85.1496 424.336,85.5337 424.71,85.9199 425.051,86.302 425.407,86.6892 425.763,87.0789 426.097,87.4673 426.458,87.8764 426.75,88.2418 427.041,88.6068 427.348,88.9846 427.778,89.4627 428.202,89.9358 428.492,90.3162 428.786,90.7038 429.085,91.0987 429.393,91.5076 429.702,91.9217 429.955,92.2911 430.257,92.6996 430.559,93.1117 430.974,93.6359 431.268,94.0457 431.537,94.4323 431.807,94.8218 432.081,95.2166 432.347,95.6151 432.615,96.0168 432.954,96.4651 433.216,96.8605 433.489,97.2686 433.762,97.68 434.037,98.0947 434.305,98.503 434.577,98.9145 434.96,99.4531 435.225,99.868 435.465,100.261 435.707,100.657 435.949,101.054 436.213,101.479 436.477,101.905 436.713,102.304 436.95,102.704 437.183,103.103 437.416,103.507 437.648,103.911 437.877,104.313 438.105,104.715 438.339,105.123 438.596,105.555 438.849,105.984 439.142,106.433 439.393,106.851 439.695,107.322 439.996,107.794 440.244,108.218 440.494,108.642 440.744,109.066 441.169,109.692 441.448,110.164 441.675,110.581 441.903,111 442.13,111.441 442.358,111.883 442.599,112.315 442.84,112.75 443.083,113.187 443.329,113.632 443.576,114.08 443.827,114.523 444.076,114.969 444.327,115.416 444.579,115.865 444.829,116.325 445.079,116.786 445.319,117.232 445.56,117.679 445.801,118.127 446.021,118.57 446.239,119.012 446.463,119.458 446.686,119.904 446.897,120.349 447.109,120.797 447.325,121.263 447.538,121.728 447.748,122.192 447.948,122.65 448.128,123.109 448.305,123.588 448.48,124.065 448.637,124.527 448.793,124.987 448.948,125.469 449.101,125.951 449.244,126.414 449.386,126.873 449.542,127.378 449.695,127.876 449.829,128.346 449.961,128.809 450.107,129.333 450.25,129.848 450.375,130.323 450.497,130.792 450.621,131.35 450.741,131.898 450.845,132.41 450.946,132.914 451.016,133.505 451.107,134.056 451.18,134.576 451.251,135.092 451.314,135.628 451.374,136.159 451.428,136.685 451.48,137.21 451.529,137.72 451.576,138.229 451.625,138.759 451.676,139.25 451.726,139.739 451.776,140.282 451.823,140.824 451.864,141.323 451.901,141.821 451.901,142.407 451.898,142.991 451.925,143.514 451.95,144.04 451.944,144.628 451.936,145.222 451.913,145.816 451.834,146.308 451.749,146.8 451.671,147.344 451.589,147.893 451.488,148.368 451.384,148.845 451.271,149.322 451.154,149.8 451.025,150.262 450.86,150.73 450.69,151.2 450.544,151.643 450.394,152.086 450.219,152.541 450.038,152.995 449.828,153.427 449.611,153.859 449.399,154.298 449.182,154.734 448.959,155.167 448.713,155.584 448.465,155.998 448.174,156.439 447.88,156.877 447.567,157.302 447.251,157.722 446.936,158.137 446.598,158.56 446.264,158.97 445.935,159.361 445.603,159.752 445.274,160.134 444.931,160.525 444.565,160.929 444.191,161.319 443.801,161.714 443.403,162.114 443.031,162.47 442.627,162.828 442.229,163.184 441.83,163.537 441.45,163.854 441.083,164.194 440.701,164.519 440.318,164.841 439.919,165.22 439.529,165.537 439.134,165.854 438.733,166.156 438.326,166.461 437.909,166.772 437.464,167.046 437.044,167.345 436.622,167.634 436.188,167.93 435.771,168.198 435.346,168.471 434.911,168.746 434.496,168.996 434.077,169.254 433.648,169.517 433.208,169.785 432.778,170.034 432.349,170.271 431.919,170.508 431.458,170.768 430.997,171.028 430.543,171.282 430.089,171.535 429.638,171.783 429.189,172.029 428.745,172.244 428.304,172.457 427.868,172.668 427.409,172.888 426.955,173.106 426.501,173.314 426.052,173.52 425.594,173.728 425.141,173.934 424.688,174.127 424.239,174.319 423.797,174.512 423.318,174.724 422.845,174.934 422.398,175.15 421.953,175.367 421.466,175.575 420.976,175.786 420.545,176.017 420.124,176.215 419.687,176.411 419.24,176.607 418.785,176.801 418.367,176.97 417.939,177.14 417.484,177.334 417.023,177.528 416.58,177.691 416.132,177.853 415.658,178.049 415.196,178.21 414.735,178.37 414.271,178.529 413.806,178.686 413.317,178.831 412.829,178.974 412.335,179.134 411.844,179.292 411.351,179.433 410.861,179.571 410.331,179.727 409.807,179.881 409.318,180.028 408.83,180.168 408.359,180.316 407.894,180.463 407.411,180.611 406.932,180.757 406.451,180.892 405.972,181.025 405.476,181.164 404.984,181.303 404.474,181.413 403.969,181.522 403.464,181.64 402.964,181.755 402.462,181.86 401.964,181.963 401.482,182.077 401.002,182.191 400.505,182.3 400.006,182.409 399.525,182.54 399.043,182.674 398.545,182.816 398.044,182.959 397.564,183.101 397.081,183.243 396.582,183.387 396.08,183.531 395.623,183.663 395.162,183.794 394.664,183.926 394.162,184.058 393.701,184.172 393.237,184.286 392.717,184.392 392.193,184.499 391.718,184.593 391.241,184.688 390.725,184.778 390.206,184.869 389.727,184.96 389.243,185.05 388.724,185.131 388.206,185.211 387.704,185.293 387.206,185.377 386.689,185.449 386.174,185.52 385.637,185.587 385.1,185.654 384.596,185.721 384.091,185.788 383.541,185.851 382.99,185.914 382.499,185.985 381.998,186.055 381.455,186.124 380.914,186.193 380.431,186.264 379.949,186.335 379.426,186.403 378.903,186.47 378.413,186.529 377.921,186.588 377.401,186.648 376.875,186.708 376.374,186.761 375.865,186.815 375.336,186.87 374.801,186.924 374.283,186.975 373.758,187.024 373.218,187.072 372.695,187.117 372.173,187.161 371.64,187.202 371.11,187.241 370.59,187.275 370.072,187.307 369.544,187.333 369.015,187.358 368.49,187.379 367.964,187.399 367.43,187.414 366.894,187.429 366.361,187.438 365.827,187.447 365.292,187.45 364.756,187.451 364.222,187.448 363.689,187.441 363.156,187.433 362.62,187.425 362.085,187.416 361.554,187.405 361.024,187.394 360.492,187.382 359.966,187.369 359.446,187.355 358.934,187.342 358.421,187.33 357.914,187.317 357.405,187.301 356.896,187.286 356.376,187.271 355.853,187.256 355.32,187.243 354.786,187.23 354.247,187.217 353.711,187.204 353.174,187.192 352.633,187.176 352.092,187.159 351.557,187.139 351.018,187.118 350.486,187.087 349.951,187.056 349.415,187.022 348.877,186.988 348.363,186.944 347.85,186.899 347.324,186.857 346.803,186.815 346.299,186.771 345.802,186.726 345.281,186.683 344.764,186.64 344.265,186.598 343.726,186.55 343.173,186.501 342.681,186.447 342.181,186.39 341.629,186.315 341.069,186.238 340.596,186.162 340.118,186.084 339.588,185.985 339.007,185.86 338.554,185.762 338.096,185.663 337.586,185.545 337.07,185.424 336.608,185.313 336.141,185.2 335.644,185.077 335.141,184.951 334.667,184.823 334.188,184.692 333.708,184.556 333.223,184.417 332.737,184.262 332.248,184.105 331.756,183.946 331.29,183.793 330.823,183.638 330.337,183.456 329.849,183.272 329.392,183.102 328.934,182.93 328.459,182.743 327.982,182.554 327.54,182.366 327.1,182.177 326.638,181.985 326.179,181.79 325.727,181.572 325.276,181.353 324.828,181.134 324.381,180.93 323.933,180.72 323.501,180.495 323.07,180.27 322.614,180.04 322.146,179.799 321.705,179.549 321.265,179.299 320.828,179.048 320.352,178.8 319.881,178.553 319.429,178.302 318.984,178.053 318.532,177.814 318.087,177.576 317.647,177.293 317.211,177.011 316.748,176.718 316.286,176.425 315.823,176.129 315.395,175.834 314.963,175.536 314.532,175.23 314.105,174.927 313.685,174.613 313.265,174.298 312.846,173.984 312.439,173.685 312.024,173.381 311.625,173.099 311.213,172.798 310.8,172.495 310.396,172.21 309.992,171.924 309.598,171.647 309.203,171.369 308.784,171.059 308.374,170.758 307.967,170.458 307.548,170.137 307.138,169.823 306.71,169.48 306.289,169.144 305.883,168.83 305.462,168.489 305.046,168.152 304.608,167.802 304.179,167.458 303.79,167.164 303.403,166.872 303.002,166.575 302.577,166.264 302.157,165.957 301.745,165.654 301.34,165.355 300.939,165.059 300.468,164.673 300.002,164.291 299.589,163.943 299.167,163.625 298.761,163.256 298.357,162.887 298,162.521 297.646,162.157 297.287,161.782 296.921,161.398 296.556,161.01 296.205,160.631 295.851,160.248 295.513,159.878 295.158,159.5 294.8,159.115 294.428,158.733 294.054,158.349 293.667,157.957 293.288,157.577 292.906,157.195 292.503,156.806 292.123,156.428 291.741,156.068 291.364,155.696 290.989,155.326 290.602,154.961 290.224,154.587 289.843,154.208 289.463,153.849 289.083,153.472 288.698,153.103 288.317,152.728 287.937,152.353 287.559,151.994 287.172,151.625 286.786,151.253 286.398,150.881 286.015,150.513 285.633,150.142 285.242,149.767 284.852,149.393 284.468,149.01 284.08,148.624 283.704,148.239 283.328,147.854 282.956,147.463 282.591,147.076 282.23,146.693 281.866,146.307 281.513,145.925 281.147,145.534 280.794,145.152 280.431,144.766 280.069,144.381 279.719,143.999 279.334,143.602 278.949,143.205 278.593,142.819 278.218,142.427 277.845,142.036 277.468,141.644 277.096,141.257 276.76,140.886 276.401,140.504 276.039,140.119 275.674,139.729 275.308,139.336 274.94,138.942 274.599,138.565 274.267,138.197 273.847,137.783 273.507,137.409 273.164,137.031 272.862,136.675 272.536,136.304 272.205,135.927 271.878,135.548 271.538,135.16 271.202,134.773 270.864,134.386 270.521,133.996 270.164,133.596 269.831,133.214 269.498,132.831 269.13,132.428 268.776,132.033 268.393,131.626 268.015,131.225 267.673,130.846 267.31,130.458 266.948,130.071 266.585,129.686 266.225,129.302 265.867,128.92 265.509,128.538 265.152,128.157 264.8,127.776 264.444,127.39 264.081,126.997 263.717,126.601 263.356,126.206 262.996,125.814 262.65,125.427 262.307,125.044 262.001,124.679 261.662,124.297 261.317,123.909 260.98,123.521 260.634,123.131 260.295,122.738 259.956,122.348 259.607,121.956 259.247,121.56 258.89,121.169 258.529,120.777 258.171,120.388 257.812,119.993 257.458,119.612 257.112,119.237 256.792,118.873 256.455,118.503 256.116,118.131 255.763,117.746 255.402,117.351 255.028,116.945 254.668,116.539 254.307,116.13 253.853,115.68 253.491,115.271 253.146,114.881 252.829,114.506 252.518,114.139 252.233,113.793 251.949,113.449 251.658,113.098 251.343,112.727 251.022,112.346 250.54,111.874 250.226,111.508 249.906,111.135 249.56,110.749 249.216,110.364 248.873,109.98 248.523,109.601 248.171,109.221 247.824,108.859 247.473,108.486 247.124,108.114 246.775,107.744 246.427,107.375 246.08,107.007 245.728,106.633 245.376,106.257 245.022,105.881 244.685,105.505 244.348,105.131 243.971,104.74 243.619,104.35 243.281,103.974 242.82,103.528 242.517,103.176 242.221,102.83 241.942,102.492 241.641,102.141 241.322,101.771 241.006,101.404 240.724,101.066 240.439,100.732 240.159,100.402 239.883,100.076 239.596,99.7443 239.315,99.4176 239.038,99.0963 238.769,98.7772 238.504,98.4622 238.243,98.1512 237.987,97.8439 237.725,97.5278 237.467,97.2167 237.213,96.9105 236.964,96.6079 236.715,96.3033 236.469,96.005 236.213,95.6977 235.956,95.3914 235.646,95.0651 235.371,94.7447 235.095,94.4246 234.79,94.1015 234.499,93.7817 234.213,93.4653 233.929,93.151 233.631,92.8528 233.342,92.5494 233.057,92.2517 232.769,91.9731 232.506,91.6817 232.246,91.393 231.987,91.1066 231.724,90.83 231.465,90.5575 231.21,90.2885 230.957,90.0228 230.728,89.761 230.5,89.5 " fill="none" stroke-width="1" stroke="rgb(0,0,255)" />
	<polyline points="129.799,42.7087 129.933,43.3467 130.067,43.9855 130.136,44.3353 130.21,44.6871 130.288,45.0412 130.367,45.4214 130.454,45.8056 130.548,46.1941 130.984,46.4569 131.443,46.71 131.907,46.948 132.376,47.1721 132.849,47.3902 133.283,47.6089 133.721,47.8188 134.163,48.0209 134.608,48.2158 135.055,48.4095 135.494,48.6222 135.935,48.8351 136.369,49.0251 136.81,49.2211 137.242,49.3955 137.676,49.5702 138.111,49.7453 138.551,49.9433 138.999,50.1315 139.438,50.3017 139.878,50.4722 140.365,50.6634 140.853,50.8554 141.293,51.0256 141.738,51.1851 142.185,51.3451 142.645,51.502 143.107,51.6592 143.55,51.8146 143.995,51.9702 144.46,52.1335 144.928,52.297 145.374,52.4547 145.821,52.6121 146.306,52.779 146.793,52.9449 147.245,53.1054 147.697,53.2656 148.151,53.4254 148.645,53.6037 149.14,53.781 149.597,53.9314 150.055,54.0808 150.556,54.2602 151.057,54.4391 151.517,54.5878 151.977,54.7356 152.525,54.9169 153.035,55.0829 153.508,55.2207 153.983,55.3617 154.48,55.5077 154.976,55.6537 155.477,55.7951 155.977,55.9361 156.473,56.0671 156.968,56.1979 157.463,56.3337 157.957,56.4688 158.449,56.599 158.939,56.7287 159.453,56.8621 159.966,56.9938 160.475,57.1256 160.983,57.2564 161.489,57.3997 161.993,57.5426 162.485,57.671 162.976,57.7988 163.477,57.9313 163.979,58.0621 164.505,58.1894 165.029,58.3158 165.536,58.4378 166.041,58.5595 166.566,58.6793 167.089,58.799 167.579,58.9256 168.069,59.0525 168.576,59.1825 169.083,59.3133 169.568,59.4417 170.052,59.5707 170.558,59.7131 171.065,59.8557 171.549,59.9902 172.082,60.1091 172.586,60.2476 173.088,60.3877 173.563,60.5245 174.039,60.6616 174.534,60.7968 175.029,60.9324 175.499,61.0693 175.969,61.2064 176.461,61.3451 176.952,61.4836 177.431,61.6276 177.909,61.7712 178.406,61.9172 178.943,62.0863 179.439,62.2346 179.936,62.3836 180.421,62.5433 180.906,62.7034 181.393,62.8523 181.881,63.0007 182.36,63.1471 182.839,63.2942 183.331,63.4412 183.822,63.5883 184.302,63.733 184.781,63.8778 185.293,64.0216 185.799,64.1411 186.278,64.2807 186.755,64.4215 187.229,64.5635 187.695,64.6978 188.16,64.8319 188.627,64.9702 189.138,65.0902 189.597,65.2213 190.054,65.3521 190.523,65.4823 190.989,65.6123 191.443,65.745 191.894,65.8772 192.356,66.0096 192.803,66.1672 193.276,66.3116 193.747,66.4549 194.216,66.597 194.665,66.7346 195.112,66.872 195.553,67.0093 195.988,67.1466 196.45,67.2737 196.91,67.401 197.344,67.5509 197.778,67.7007 198.209,67.8505 198.664,67.9993 199.111,68.1586 199.548,68.3458 199.984,68.5304 200.433,68.7395 200.871,68.9939 201.31,69.2695 201.747,69.5552 202.182,69.8486 202.381,70.5382 202.567,71.2292 " fill="none" stroke-width="1" stroke="rgb(0,0,255)" />
	<polyline points="349.809,46.1588 350.12,46.1991 350.435,46.2444 350.749,46.2891 351.065,46.3332 351.385,46.3755 351.706,46.4174 352.027,46.4591 352.347,46.5003 352.668,46.5412 352.989,46.5817 353.313,46.6259 353.637,46.6696 353.961,46.7128 354.277,46.7495 354.593,46.786 354.909,46.822 355.223,46.8496 355.536,46.8775 355.849,46.9056 356.168,46.9345 356.486,46.9632 356.803,46.9916 357.126,47.0234 357.437,47.0448 357.748,47.0662 358.058,47.0876 358.37,47.1158 358.682,47.1454 358.993,47.1766 359.301,47.2028 359.609,47.2299 359.917,47.2578 360.231,47.2876 360.545,47.32 360.858,47.3551 361.181,47.3886 361.504,47.4244 361.826,47.4627 362.148,47.5034 362.474,47.5571 362.799,47.6127 363.124,47.6701 363.446,47.72 363.769,47.7716 364.091,47.8247 364.391,47.8838 364.691,47.9435 364.991,48.0036 365.3,48.0815 365.609,48.1591 365.918,48.2364 366.224,48.3108 366.529,48.3859 366.834,48.4616 367.14,48.5379 367.448,48.6071 367.757,48.6765 368.066,48.7463 368.378,48.8149 368.69,48.8832 369.003,48.9513 369.307,49.0123 369.619,49.0796 369.93,49.1469 370.245,49.2009 370.56,49.2539 370.876,49.3059 371.19,49.3557 371.503,49.4052 371.817,49.4542 372.131,49.5027 372.434,49.5522 372.737,49.6003 373.041,49.6468 373.351,49.6904 373.66,49.7345 373.97,49.7793 374.278,49.8287 374.586,49.8771 374.894,49.9246 375.198,49.972 375.502,50.0196 375.816,50.0672 " fill="none" stroke-width="1" stroke="rgb(0,0,255)" />
	<polyline points="386.307,60.6133 385.892,60.9617 385.433,61.1402 384.976,61.319 384.523,61.4857 384.068,61.6457 383.622,61.7952 383.176,61.9435 382.75,62.1009 382.32,62.2471 381.885,62.3827 381.445,62.5139 381.005,62.6454 380.587,62.7709 380.166,62.8918 379.723,63.0033 379.29,63.1216 378.857,63.24 378.437,63.3572 378.017,63.4744 377.591,63.5985 377.166,63.7226 376.741,63.8305 376.313,63.9312 375.88,64.0251 375.422,64.1151 374.965,64.2053 374.505,64.2928 374.046,64.38 373.587,64.475 373.129,64.5705 372.676,64.668 372.223,64.7662 371.747,64.8541 371.27,64.9412 370.793,65.0275 370.334,65.1238 369.874,65.2199 369.41,65.3103 368.944,65.4004 368.481,65.496 368.017,65.5913 367.549,65.6853 367.078,65.7787 366.605,65.8751 366.129,65.9706 365.661,66.0533 365.189,66.1355 364.721,66.2216 364.249,66.3074 363.775,66.3931 363.321,66.4728 362.864,66.5525 362.423,66.6476 361.979,66.7427 361.54,66.8318 361.098,66.921 360.659,67.0077 360.212,67.0981 359.769,67.1768 359.323,67.2555 358.874,67.3342 358.419,67.4176 357.961,67.5009 357.505,67.573 357.048,67.645 356.577,67.7198 356.104,67.7943 355.626,67.8569 355.146,67.9193 354.663,67.992 354.193,68.0719 353.726,68.1425 353.258,68.2136 352.788,68.2851 352.298,68.3565 351.806,68.4283 351.335,68.5026 350.863,68.5775 350.387,68.6571 349.909,68.7371 349.45,68.8219 348.989,68.9075 348.522,68.9965 348.046,69.0737 347.584,69.1573 347.12,69.2413 346.653,69.3229 346.183,69.4047 345.726,69.4932 345.267,69.582 344.805,69.6711 344.34,69.756 343.874,69.8411 343.417,69.9374 342.959,70.0339 342.498,70.119 342.037,70.2045 341.566,70.297 341.095,70.3895 340.633,70.4747 340.171,70.5599 339.701,70.6567 339.233,70.7534 338.768,70.8503 338.313,70.9414 337.858,71.0327 337.375,71.1268 336.894,71.2208 336.428,71.3062 335.964,71.3913 335.481,71.4829 335.001,71.5743 334.534,71.66 334.071,71.7454 333.584,71.8313 333.102,71.9175 332.623,72.0003 332.148,72.0819 331.673,72.1717 331.203,72.2613 330.723,72.3511 330.247,72.4408 329.774,72.5305 329.315,72.6218 328.856,72.712 328.358,72.7991 327.86,72.8856 327.411,72.9729 326.963,73.0715 326.418,73.1545 325.872,73.2383 325.421,73.3161 324.968,73.3945 324.493,73.54 324.017,73.6861 323.583,73.7719 323.149,73.8577 322.685,73.9649 322.172,74.0481 321.715,74.1227 321.256,74.1977 320.796,74.2729 320.314,74.3507 319.83,74.428 319.385,74.5162 318.937,74.6038 318.483,74.6854 318.027,74.7669 317.569,74.8491 317.111,74.9308 316.665,75.0087 316.204,75.0753 315.711,75.1417 315.216,75.2071 314.773,75.2828 314.328,75.358 313.883,75.4329 313.4,75.4999 312.916,75.567 312.468,75.6348 312.018,75.7028 311.531,75.7684 311.04,75.8344 310.597,75.9038 310.15,75.9738 309.697,76.0543 309.241,76.1355 308.781,76.2174 308.329,76.2926 307.874,76.3687 307.408,76.4451 306.939,76.5224 306.472,76.5967 306.002,76.6715 305.541,76.7506 305.079,76.8304 304.623,76.9162 304.166,77.0025 303.708,77.0853 303.25,77.1682 302.792,77.2513 302.33,77.3313 301.868,77.4111 301.416,77.4992 300.972,77.5954 300.525,77.6901 300.078,77.7844 299.636,77.8838 299.196,77.9828 298.721,78.074 298.248,78.1644 297.776,78.254 297.32,78.3467 296.864,78.4381 296.402,78.5333 295.94,78.6268 295.487,78.7196 295.034,78.8113 294.574,78.9051 294.114,78.9977 293.674,79.0853 293.235,79.1714 292.798,79.2561 292.344,79.3464 291.892,79.4352 291.455,79.5179 291.018,79.5994 290.566,79.6837 290.114,79.7673 289.678,79.8456 289.241,79.9235 288.805,80.001 288.364,80.0756 287.922,80.1502 287.483,80.2316 287.043,80.3133 286.601,80.3899 286.157,80.4671 285.7,80.5462 285.24,80.6256 284.778,80.7054 284.323,80.7801 283.867,80.8553 283.394,80.936 282.918,81.0165 282.453,81.0874 281.987,81.1588 281.506,81.2364 281.024,81.3145 280.568,81.3908 280.113,81.4675 279.652,81.5511 279.193,81.6349 278.741,81.7132 278.289,81.7919 277.839,81.8707 277.392,81.9568 276.946,82.0436 276.512,82.1351 276.078,82.2264 275.643,82.3275 275.208,82.4285 274.77,82.5275 274.332,82.6262 273.893,82.7248 273.459,82.8255 273.024,82.9259 272.571,83.0217 272.083,83.1033 271.631,83.2078 271.18,83.3119 270.717,83.4118 270.254,83.5111 269.793,83.6099 269.327,83.7121 268.862,83.8136 268.403,83.9109 267.945,84.0076 267.469,84.1078 266.994,84.2077 266.535,84.3001 266.076,84.3919 265.597,84.4807 265.119,84.5691 264.653,84.6547 264.187,84.7398 263.718,84.8248 263.249,84.9094 262.781,84.9935 262.304,85.0751 261.826,85.1562 261.367,85.2408 260.907,85.325 260.421,85.4078 259.935,85.49 259.482,85.5711 259.029,85.652 258.548,85.7318 258.067,85.8113 257.612,85.8862 257.158,85.9608 256.682,86.0424 256.205,86.1237 255.756,86.1998 255.306,86.2755 254.857,86.351 254.373,86.4292 253.89,86.507 253.433,86.5784 252.977,86.6493 252.485,86.723 251.995,86.7962 251.533,86.8662 251.072,86.9356 250.592,87.01 250.114,87.0909 249.644,87.1559 249.175,87.2202 248.696,87.2928 248.218,87.3645 247.742,87.4244 247.266,87.4835 246.792,87.5418 246.321,87.6109 245.851,87.6792 245.376,87.739 244.902,87.7979 244.432,87.8633 243.963,87.9279 243.478,87.9834 242.992,88.0387 242.512,88.0993 242.033,88.1592 241.535,88.2157 241.038,88.2716 240.546,88.3311 240.054,88.3897 239.538,88.4429 239.022,88.4957 238.518,88.5545 238.013,88.6122 237.449,88.6455 236.885,88.6781 236.35,88.7205 235.813,88.7623 235.228,88.7706 234.725,88.8204 234.221,88.8706 233.703,88.9042 233.185,88.939 232.728,89.0263 232.28,89.1193 231.831,89.2118 231.377,89.3018 230.924,89.3922 230.5,89.5 " fill="none" stroke-width="1" stroke="rgb(0,0,255)" />
	<polyline points="135.5,205.5 135.048,205.611 134.598,205.712 134.147,205.814 133.695,205.91 133.244,206.006 132.789,206.1 132.352,206.191 131.915,206.281 131.485,206.367 131.055,206.453 130.637,206.536 130.22,206.619 129.803,206.702 129.395,206.78 128.988,206.859 128.585,206.935 128.183,207.011 127.787,207.083 127.392,207.155 126.998,207.227 126.608,207.297 126.219,207.366 125.83,207.435 125.449,207.508 125.068,207.58 124.687,207.649 124.307,207.717 123.928,207.784 123.561,207.866 123.195,207.946 122.829,208.026 122.454,208.102 122.08,208.177 121.706,208.246 121.333,208.313 120.962,208.379 120.589,208.46 120.217,208.539 119.847,208.618 119.48,208.687 119.115,208.755 118.746,208.812 118.38,208.866 118.014,208.92 117.639,208.979 117.254,209.046 116.848,209.086 116.409,209.067 115.94,209.019 115.424,208.965 114.908,208.904 114.386,208.84 113.861,208.769 113.397,208.513 " fill="none" stroke-width="1" stroke="rgb(0,0,255)" />
	<polyline points="85.5,80.5 86.0647,80.4074 86.6002,80.304 87.1355,80.2004 87.68,80.0929 88.2245,79.9855 88.6986,79.8832 89.173,79.7813 89.6567,79.6819 90.1407,79.5828 90.5989,79.4804 91.0576,79.3785 91.5237,79.2784 91.9899,79.1787 92.4451,79.0775 92.9006,78.9768 93.3809,78.8774 93.861,78.7784 94.3302,78.6746 94.799,78.5713 95.2947,78.4672 95.7904,78.3641 96.2812,78.2617 96.7716,78.1602 97.2639,78.0635 97.7565,77.9682 98.2393,77.857 98.7367,77.7539 99.2344,77.6523 99.7063,77.546 100.178,77.4406 100.707,77.3611 101.237,77.2825 101.734,77.1825 102.231,77.0834 102.782,77.0317 103.282,76.9558 103.784,76.8806 104.276,76.8078 104.771,76.7357 105.272,76.6639 105.777,76.593 106.262,76.5209 106.751,76.4496 107.244,76.3791 107.787,76.3204 108.341,76.2645 108.9,76.2098 109.488,76.1744 110.082,76.1419 110.691,76.1326 111.309,76.1269 111.885,76.1694 112.375,76.2609 112.851,76.3798 113.295,76.5353 113.741,76.6933 114.19,76.8534 114.63,76.9924 115.059,77.1338 115.464,77.2894 115.871,77.4443 116.294,77.6211 116.713,77.812 117.135,78.0018 117.527,78.1876 117.92,78.3746 118.332,78.5782 118.743,78.7846 119.155,78.9936 119.573,79.2336 119.991,79.4738 120.399,79.6978 120.807,79.922 121.305,80.263 121.8,80.6038 122.207,80.8593 122.666,81.2081 123.125,81.5584 123.535,81.8308 123.946,82.1058 124.346,82.3772 124.747,82.652 125.149,82.9303 125.628,83.3403 126.109,83.7542 126.515,84.0508 126.985,84.4825 127.381,84.7878 127.779,85.0977 128.151,85.375 128.547,85.6848 128.945,85.9991 129.33,86.304 129.715,86.6103 130.1,86.9174 130.488,87.2304 130.875,87.5442 131.255,87.859 131.641,88.1864 132.024,88.5132 132.421,88.8683 132.835,89.2762 133.223,89.6261 133.609,89.9761 133.984,90.313 134.376,90.6868 134.768,91.062 135.159,91.4231 135.554,91.8182 135.935,92.2098 136.313,92.6074 136.689,93.0051 137.023,93.3842 137.375,93.7807 137.726,94.1791 138.144,94.6172 138.464,95.0062 138.779,95.3958 139.094,95.7876 139.4,96.1774 139.699,96.5635 139.998,96.9511 140.309,97.3619 140.619,97.7737 140.927,98.1862 141.212,98.5837 141.496,98.9819 141.963,99.542 142.27,99.9873 142.538,100.402 142.806,100.819 143.064,101.266 143.336,101.705 143.608,102.147 143.876,102.599 144.165,103.077 144.426,103.522 144.686,103.97 144.919,104.399 145.161,104.833 145.416,105.278 145.67,105.727 145.924,106.179 146.152,106.601 146.38,107.026 146.621,107.474 146.861,107.926 147.083,108.364 147.298,108.816 147.532,109.311 147.766,109.81 147.95,110.31 148.151,110.768 148.358,111.232 148.618,111.765 148.829,112.239 149.034,112.698 149.24,113.147 149.465,113.608 149.69,114.069 149.892,114.502 150.094,114.937 150.332,115.397 150.569,115.86 150.77,116.29 150.97,116.721 151.16,117.149 151.378,117.598 151.595,118.048 151.785,118.48 151.975,118.912 152.194,119.377 152.412,119.842 152.594,120.281 152.775,120.72 152.956,121.159 153.165,121.646 153.374,122.132 153.546,122.583 153.717,123.034 153.965,123.601 154.152,124.101 154.328,124.565 154.503,125.028 154.678,125.516 154.852,126.002 155.054,126.493 155.22,126.962 155.393,127.436 155.563,127.906 155.721,128.386 155.875,128.863 156.04,129.337 156.182,129.817 156.322,130.33 156.458,130.837 156.58,131.337 156.698,131.831 156.786,132.402 156.871,132.963 156.957,133.478 157.041,133.998 157.123,134.496 157.203,134.989 157.271,135.506 157.336,136.02 157.406,136.509 157.474,136.996 157.532,137.508 157.588,138.019 157.644,138.509 157.699,138.998 157.745,139.518 157.79,140.034 157.838,140.527 157.886,141.017 157.928,141.523 157.968,142.027 157.992,142.553 158.022,143.055 158.053,143.573 158.083,144.095 158.109,144.604 158.133,145.115 158.16,145.647 158.184,146.179 158.201,146.693 158.216,147.202 158.234,147.733 158.251,148.259 158.262,148.762 158.276,149.293 158.291,149.823 158.295,150.328 158.299,150.833 158.296,151.366 158.293,151.898 158.283,152.404 158.273,152.908 158.254,153.437 158.235,153.966 158.211,154.471 158.186,154.977 158.153,155.504 158.119,156.033 158.079,156.54 158.039,157.049 157.989,157.573 157.922,158.076 157.85,158.551 157.776,159.026 157.719,159.542 157.661,160.057 157.607,160.567 157.552,161.075 157.489,161.608 157.426,162.14 157.358,162.632 157.292,163.126 157.222,163.624 157.155,164.123 157.09,164.623 157.026,165.123 156.948,165.653 156.869,166.186 156.8,166.762 156.733,167.282 156.664,167.806 156.601,168.358 156.537,168.915 156.469,169.428 156.398,169.946 156.331,170.484 156.261,171.03 156.181,171.53 156.098,172.036 156.018,172.564 155.934,173.087 155.85,173.592 155.763,174.101 155.668,174.615 155.57,175.133 155.472,175.629 155.372,176.128 155.26,176.625 155.145,177.125 155.033,177.607 154.919,178.103 154.804,178.596 154.687,179.09 154.555,179.568 154.422,180.047 154.29,180.517 154.155,180.986 154.003,181.45 153.858,181.906 153.706,182.361 153.551,182.814 153.388,183.256 153.224,183.696 153.059,184.136 152.892,184.566 152.723,184.994 152.533,185.423 152.341,185.85 152.158,186.269 151.973,186.686 151.787,187.101 151.588,187.514 151.389,187.923 151.187,188.336 150.985,188.746 150.787,189.15 150.57,189.556 150.354,189.959 150.138,190.364 149.924,190.766 149.683,191.175 149.453,191.577 149.222,191.976 148.964,192.393 148.688,192.818 148.414,193.236 148.141,193.649 147.856,194.062 147.562,194.486 147.268,194.907 146.907,195.374 146.547,195.815 146.125,196.305 145.78,196.728 145.437,197.145 145.018,197.595 144.646,197.987 144.237,198.397 143.836,198.796 143.457,199.14 143.081,199.502 142.73,199.824 142.383,200.141 142.02,200.469 141.657,200.776 141.297,201.078 140.944,201.391 140.602,201.679 140.262,201.963 139.913,202.25 139.548,202.535 139.185,202.817 138.824,203.096 138.466,203.379 138.11,203.66 137.736,203.943 137.36,204.209 136.984,204.474 136.616,204.729 136.248,204.982 135.871,205.258 135.5,205.5 " fill="none" stroke-width="1" stroke="rgb(0,0,255)" />
	<polyline points="82.6499,83.0285 82.2553,83.069 81.8604,83.1116 81.4647,83.1555 81.0685,83.2013 80.6725,83.2466 80.2759,83.293 79.8785,83.3403 79.4791,83.3912 79.0789,83.4427 78.6766,83.4919 78.2732,83.5419 77.8684,83.5927 77.4662,83.6507 77.0627,83.7092 76.6526,83.7609 76.2408,83.8133 75.8272,83.8663 75.4214,83.9264 75.0137,83.9868 74.6078,84.0594 74.2003,84.1332 73.7931,84.1922 73.3848,84.2529 72.9756,84.3151 72.5613,84.3776 72.1462,84.4423 71.7438,84.5208 71.3409,84.6013 70.9376,84.6838 70.5409,84.7829 70.1436,84.8835 69.7825,84.9829 69.429,85.081 69.0765,85.1825 68.7285,85.2937 68.3812,85.4073 68.0347,85.5231 67.7086,85.6434 67.3829,85.7652 67.0577,85.8884 66.7176,86.0244 66.3863,86.1626 66.0562,86.3038 65.7393,86.4473 65.423,86.5925 65.1072,86.7393 64.7792,86.8976 64.4523,87.0589 64.1284,87.2206 63.8098,87.3798 63.4918,87.5407 63.1747,87.7034 62.8585,87.8679 62.5289,88.0433 62.2044,88.2074 61.8819,88.3741 61.5501,88.5405 61.2203,88.7088 60.8926,88.8792 60.5659,89.0674 60.242,89.2566 59.92,89.4484 59.5867,89.6773 59.2553,89.9069 58.9213,90.1451 58.585,90.4071 58.2549,90.6767 57.9235,90.943 57.5893,91.2219 57.2557,91.5012 56.9223,91.7815 56.599,92.0691 56.2699,92.377 55.9434,92.6899 55.621,92.9911 55.3198,93.3032 55.019,93.6192 54.7363,93.9108 54.4558,94.2159 54.1745,94.5245 53.8922,94.837 53.6023,95.1381 53.3267,95.4437 53.0506,95.7541 52.7804,96.0532 52.5271,96.3576 52.2731,96.6658 52.0183,96.9777 51.7718,97.2948 51.5254,97.6155 51.2792,97.9398 51.0374,98.2579 50.8035,98.583 50.5702,98.9114 50.3307,99.2479 50.0912,99.5878 49.888,99.9094 49.6859,100.239 49.4864,100.572 49.2897,100.909 49.1125,101.236 48.937,101.566 48.7294,101.924 48.5387,102.284 48.3497,102.645 48.1623,103.008 47.9578,103.374 47.7941,103.719 47.6308,104.064 47.4788,104.415 47.3275,104.767 47.1768,105.121 47.012,105.479 46.8491,105.857 46.717,106.229 46.5858,106.602 46.4554,106.977 46.3011,107.372 46.1482,107.769 45.9969,108.167 45.8924,108.547 45.7889,108.928 45.6865,109.323 45.5848,109.719 45.4838,110.115 45.3933,110.498 45.3038,110.882 45.2148,111.275 45.127,111.669 45.0403,112.063 44.9602,112.449 44.8815,112.836 44.8043,113.231 44.7279,113.627 44.6525,114.022 44.5796,114.414 44.5077,114.805 44.4391,115.202 44.3714,115.599 44.3048,115.995 44.2383,116.392 44.1728,116.788 44.1083,117.184 44.0417,117.578 43.9761,117.972 43.9093,118.372 43.8439,118.77 43.7798,119.168 43.7227,119.569 43.667,119.969 43.6161,120.381 43.5672,120.793 43.5195,121.207 43.4811,121.622 43.4431,122.036 43.4107,122.457 43.379,122.877 43.3534,123.3 43.3287,123.722 43.3051,124.143 43.2887,124.566 43.2732,124.987 43.2638,125.412 43.2555,125.836 43.2516,126.258 43.2487,126.679 43.2468,127.098 43.2471,127.508 43.248,127.917 43.2507,128.325 43.2541,128.732 43.2582,129.139 43.2624,129.542 43.2673,129.945 43.2713,130.35 43.2758,130.755 43.2808,131.161 43.2853,131.569 43.2903,131.977 43.2945,132.389 43.2989,132.801 43.303,133.221 43.3072,133.64 43.3118,134.058 43.3179,134.482 43.3245,134.905 43.3316,135.341 43.34,135.776 43.3498,136.21 43.365,136.649 43.3818,137.089 43.4104,137.514 43.4398,137.941 43.4744,138.37 43.5096,138.802 43.552,139.213 43.5946,139.626 43.6374,140.04 43.6836,140.455 43.7309,140.869 43.779,141.273 43.8278,141.676 43.8776,142.08 43.9331,142.482 43.9897,142.883 44.0489,143.275 44.1095,143.667 44.1716,144.061 44.2379,144.444 44.306,144.829 44.3807,145.214 44.4569,145.6 44.5346,145.989 44.6113,146.367 44.6895,146.747 44.769,147.13 44.8617,147.52 44.9558,147.913 45.0469,148.289 45.139,148.665 45.2323,149.043 45.332,149.429 45.4331,149.817 45.5338,150.194 45.6352,150.571 45.7374,150.95 45.8474,151.333 45.9572,151.717 46.0928,152.119 46.2013,152.504 46.3102,152.889 46.4283,153.283 46.5471,153.678 46.6665,154.073 46.7891,154.469 46.9119,154.866 47.0282,155.259 47.1444,155.645 47.2608,156.032 47.3826,156.417 47.506,156.802 47.6311,157.187 47.7597,157.572 47.888,157.959 48.0083,158.345 48.1297,158.732 48.2519,159.121 48.4001,159.54 48.5491,159.961 48.6785,160.345 48.8091,160.729 48.9407,161.113 49.0808,161.499 49.2227,161.884 49.359,162.258 49.4956,162.63 49.6324,163.002 49.7797,163.389 49.926,163.777 50.0714,164.163 50.2168,164.537 50.3616,164.91 50.5166,165.311 50.6712,165.712 50.8252,166.112 50.9781,166.49 51.1253,166.865 51.2731,167.251 51.4213,167.636 51.5699,168.021 51.7214,168.405 51.8728,168.789 52.024,169.172 52.1609,169.56 52.2976,169.947 52.4546,170.353 52.6119,170.759 52.7696,171.165 52.908,171.543 53.0467,171.922 53.1945,172.317 53.3443,172.711 53.496,173.105 53.6485,173.482 53.8013,173.86 53.956,174.248 54.1161,174.631 54.2768,175.014 54.4292,175.384 54.583,175.753 54.7383,176.122 54.9068,176.497 55.0748,176.873 55.2348,177.236 55.3958,177.599 55.5577,177.962 55.7432,178.342 55.9293,178.721 56.1166,179.087 56.2871,179.441 56.4585,179.795 56.6307,180.149 56.8122,180.503 56.9947,180.857 57.1874,181.211 57.381,181.566 57.5754,181.92 57.7598,182.265 57.9452,182.609 58.1395,182.956 58.3367,183.306 58.5346,183.655 58.7331,184.005 58.9355,184.35 59.1326,184.689 59.3301,185.029 59.5403,185.376 59.751,185.724 59.9622,186.07 60.1772,186.412 60.3928,186.754 60.609,187.095 60.8469,187.452 61.085,187.808 61.2986,188.144 61.5275,188.484 61.7563,188.824 61.9852,189.162 62.2424,189.522 62.4999,189.881 62.7274,190.212 62.956,190.543 63.194,190.879 63.4286,191.21 63.664,191.541 63.9002,191.87 64.1326,192.195 64.365,192.519 64.5973,192.841 64.8604,193.183 65.123,193.524 65.3621,193.847 65.6078,194.172 65.8533,194.495 66.0984,194.817 66.3315,195.132 66.5888,195.461 66.8451,195.787 67.1002,196.112 67.342,196.427 67.5831,196.741 67.8237,197.052 68.0788,197.371 68.335,197.69 68.5906,198.008 68.8487,198.326 69.1066,198.643 69.3572,198.952 69.623,199.264 69.8886,199.574 70.1453,199.885 70.4354,200.206 70.726,200.525 71.0182,200.844 71.2777,201.147 71.556,201.452 71.8324,201.753 72.1081,202.052 72.4095,202.358 72.7107,202.662 73.0119,202.966 73.3088,203.263 73.6056,203.56 73.9013,203.857 74.2194,204.141 74.5287,204.432 74.8402,204.72 75.1528,205.007 75.4714,205.294 75.7907,205.581 76.1111,205.866 76.4372,206.125 76.7625,206.387 77.0882,206.647 77.4121,206.89 77.7448,207.143 78.0779,207.394 78.404,207.613 78.7305,207.828 79.0573,208.039 79.3892,208.256 79.721,208.47 80.0527,208.68 80.3867,208.869 80.7212,209.054 81.0467,209.22 81.3754,209.393 81.7046,209.563 82.0343,209.731 82.3614,209.879 82.6893,210.025 83.0308,210.173 83.3676,210.319 83.7046,210.463 84.0418,210.604 84.38,210.727 84.7186,210.847 85.0578,210.964 85.395,211.073 85.7325,211.18 86.0701,211.284 86.4126,211.381 86.7556,211.475 87.0991,211.567 87.4411,211.657 87.7835,211.744 88.1262,211.829 88.4773,211.912 88.829,211.992 89.1874,212.077 89.546,212.16 89.9047,212.241 90.2852,212.316 90.6659,212.389 91.0468,212.459 91.4225,212.529 91.7984,212.596 92.1744,212.661 92.5792,212.715 92.9835,212.767 93.3848,212.819 93.7854,212.868 94.2217,212.896 94.6563,212.922 95.0894,212.945 95.5363,212.96 95.9817,212.972 96.43,212.971 96.8761,212.967 97.321,212.954 97.7635,212.938 98.204,212.919 98.6275,212.884 99.0489,212.847 99.4542,212.795 99.8577,212.74 100.23,212.668 100.601,212.595 100.971,212.519 101.357,212.444 101.742,212.367 102.127,212.288 102.482,212.197 102.837,212.104 103.206,212.007 103.558,211.91 103.909,211.811 104.253,211.702 104.597,211.591 104.94,211.478 105.289,211.368 105.638,211.256 105.987,211.143 106.332,211.021 106.677,210.899 107.023,210.776 107.389,210.651 107.755,210.525 108.121,210.398 108.477,210.271 108.833,210.142 109.213,210.016 109.569,209.886 109.924,209.754 110.29,209.62 110.656,209.485 111.022,209.35 111.405,209.214 111.789,209.078 112.185,208.899 112.59,208.772 112.995,208.646 113.397,208.513 " fill="none" stroke-width="1" stroke="rgb(0,0,255)" />
	<polyline points="82.6499,83.0285 83.0326,82.7229 83.4168,82.4254 83.8118,82.1233 84.1742,81.7845 84.4668,81.447 84.7572,81.0984 85.1189,80.785 85.5,80.5 " fill="none" stroke-width="1" stroke="rgb(0,0,255)" />
	<polyline points="113.397,208.513 113.54,208.09 113.705,207.701 113.878,207.304 114.062,206.899 114.259,206.52 114.484,206.13 114.718,205.742 114.962,205.351 115.202,204.973 115.457,204.594 115.725,204.21 116.006,203.821 116.265,203.423 116.53,203.02 116.799,202.611 117.074,202.199 117.318,201.782 117.562,201.365 117.805,200.949 118.031,200.557 118.242,200.172 118.458,199.769 118.673,199.367 118.885,198.968 119.066,198.599 119.27,198.208 119.54,197.751 119.809,197.296 120.077,196.842 120.257,196.416 120.438,195.987 120.607,195.58 120.779,195.167 120.927,194.677 121.096,194.239 121.264,193.798 121.42,193.381 121.578,192.959 121.739,192.514 121.901,192.067 122.051,191.646 122.202,191.204 122.352,190.744 122.502,190.281 122.653,189.816 122.815,189.371 122.977,188.925 123.123,188.488 123.269,188.053 123.4,187.633 123.531,187.212 123.662,186.79 123.809,186.358 123.955,185.926 124.083,185.497 124.21,185.066 124.336,184.617 124.461,184.164 124.586,183.729 124.709,183.293 124.831,182.858 124.952,182.414 125.075,181.969 125.187,181.532 125.298,181.097 125.413,180.654 125.527,180.212 125.632,179.773 125.736,179.337 125.839,178.903 125.953,178.47 126.056,178.025 126.154,177.564 126.25,177.108 126.337,176.615 126.422,176.126 126.504,175.624 126.583,175.137 126.651,174.619 126.717,174.104 126.788,173.59 126.858,173.08 126.917,172.543 126.974,172.007 127.036,171.492 127.096,170.981 127.152,170.455 127.205,169.929 127.255,169.398 127.303,168.87 127.348,168.337 127.391,167.809 127.427,167.286 127.463,166.769 127.493,166.251 127.513,165.745 127.53,165.244 127.545,164.735 127.558,164.22 127.559,163.723 127.559,163.219 127.554,162.701 127.548,162.178 127.532,161.688 127.515,161.194 127.491,160.697 127.466,160.197 127.437,159.732 127.407,159.263 127.376,158.791 127.338,158.304 127.299,157.812 127.258,157.346 127.217,156.877 127.166,156.386 127.114,155.891 127.062,155.426 127.008,154.962 126.943,154.474 126.876,153.986 126.818,153.529 126.76,153.072 126.691,152.6 126.621,152.131 126.559,151.68 126.497,151.229 126.437,150.738 126.377,150.249 126.317,149.761 126.257,149.276 126.195,148.783 126.128,148.279 126.061,147.773 125.986,147.293 125.908,146.797 125.831,146.299 125.755,145.803 125.671,145.319 125.586,144.835 125.5,144.369 125.414,143.903 125.311,143.421 125.206,142.937 125.105,142.498 125.004,142.06 124.889,141.596 124.775,141.141 124.671,140.717 124.565,140.29 124.457,139.859 124.341,139.395 124.224,138.93 124.118,138.481 124.011,138.031 123.897,137.522 123.782,137.014 123.673,136.54 123.564,136.066 123.445,135.554 123.325,135.042 123.198,134.561 123.068,134.076 122.931,133.533 122.809,133.004 122.68,132.52 122.55,132.033 122.413,131.532 122.275,131.027 122.136,130.574 121.994,130.117 121.85,129.65 121.706,129.184 121.565,128.753 121.422,128.319 121.278,127.882 121.125,127.437 120.97,126.991 120.824,126.565 120.676,126.137 120.522,125.714 120.367,125.291 120.211,124.87 120.055,124.449 119.865,124.013 119.708,123.598 119.55,123.182 119.372,122.761 119.192,122.337 119.01,121.912 118.843,121.493 118.675,121.074 118.477,120.635 118.278,120.196 118.094,119.773 117.91,119.355 117.719,118.943 117.515,118.52 117.313,118.104 117.112,117.703 116.849,117.253 116.583,116.801 116.365,116.391 116.145,115.979 115.922,115.571 115.702,115.169 115.485,114.772 115.266,114.376 115.046,113.98 114.804,113.569 114.561,113.16 114.315,112.752 114.071,112.348 113.828,111.955 113.579,111.559 113.335,111.172 113.072,110.776 112.686,110.278 112.304,109.79 112.053,109.41 111.816,109.041 111.536,108.647 111.258,108.258 110.983,107.876 110.696,107.489 110.407,107.102 110.136,106.729 109.866,106.36 109.575,105.986 109.286,105.609 108.998,105.235 108.731,104.878 108.459,104.525 108.186,104.173 107.873,103.793 107.404,103.336 106.946,102.889 106.636,102.523 106.327,102.159 105.971,101.78 105.608,101.411 105.246,101.044 104.892,100.678 104.531,100.313 104.17,99.9489 103.807,99.5913 103.443,99.238 103.077,98.8883 102.704,98.5481 102.331,98.2085 101.959,97.8697 101.591,97.5483 101.225,97.2278 100.859,96.9083 100.488,96.5866 100.119,96.2665 99.7667,95.9789 99.3962,95.6669 99.0255,95.3552 98.6547,95.0516 98.2713,94.7252 97.8939,94.4041 97.5453,94.1225 97.1671,93.8219 96.7447,93.4486 96.3267,93.0796 95.9321,92.7781 95.5302,92.4958 95.1328,92.2165 94.7486,91.9773 94.3787,91.719 94.0117,91.4625 93.61,91.1942 93.2104,90.9273 92.8023,90.6574 92.44,90.4176 92.0766,90.1775 91.6514,89.873 91.2914,89.6229 90.9274,89.3708 90.5943,89.1414 90.2583,88.9107 89.9214,88.6839 89.5463,88.4304 89.1679,88.1753 88.8225,87.9442 88.4845,87.7131 88.1472,87.4822 87.783,87.2392 87.416,86.9949 87.0444,86.748 86.6435,86.4777 86.2431,86.2076 85.8429,85.9375 85.461,85.7086 85.0768,85.4785 84.682,85.2619 84.2944,85.0222 83.9074,84.7447 83.4935,84.4385 83.0711,84.1283 82.951,83.6127 82.6499,83.0285 " fill="none" stroke-width="1" stroke="rgb(0,0,255)" />
	<polyline points="386.312,148.698 385.907,148.693 385.492,148.694 385.076,148.696 384.651,148.695 384.223,148.694 383.795,148.692 383.355,148.691 382.913,148.689 382.449,148.676 381.981,148.663 381.501,148.637 381.017,148.609 380.544,148.555 380.067,148.5 379.614,148.428 379.158,148.354 378.745,148.261 378.331,148.167 377.916,148.071 377.521,147.969 377.149,147.857 376.792,147.74 376.435,147.62 376.077,147.5 375.719,147.377 375.361,147.252 375.003,147.126 374.656,146.998 374.307,146.88 373.958,146.76 373.621,146.622 373.285,146.483 372.948,146.342 372.609,146.201 372.271,146.058 371.943,145.901 371.612,145.728 371.28,145.553 370.949,145.376 370.616,145.205 370.283,145.031 369.958,144.86 369.636,144.676 369.314,144.489 368.992,144.299 368.654,144.097 368.327,143.883 368,143.665 367.681,143.457 367.363,143.246 367.047,143.032 366.714,142.771 366.382,142.508 366.051,142.241 365.723,141.98 365.388,141.673 365.054,141.361 364.74,141.074 364.43,140.779 364.123,140.482 363.811,140.175 363.502,139.866 363.206,139.565 362.912,139.262 362.631,138.952 362.367,138.65 362.107,138.349 361.847,138.038 361.594,137.734 361.346,137.431 361.103,137.128 360.879,136.826 360.66,136.526 360.446,136.227 360.237,135.929 360.025,135.626 359.82,135.323 359.62,135.02 359.444,134.722 359.271,134.425 359.1,134.128 358.951,133.83 358.793,133.522 358.638,133.214 358.485,132.907 358.346,132.605 358.208,132.301 358.07,131.996 357.919,131.666 357.77,131.336 357.62,131.004 357.484,130.675 357.347,130.345 357.21,130.013 357.075,129.666 356.967,129.316 356.883,128.948 356.818,128.56 356.755,128.171 356.708,127.749 356.661,127.328 356.614,126.907 356.6,126.461 356.586,126.014 356.585,125.573 356.609,125.142 356.693,124.741 356.821,124.362 356.97,123.99 357.126,123.644 357.28,123.312 357.433,122.991 357.597,122.674 357.761,122.356 357.925,122.039 358.106,121.732 358.298,121.428 358.501,121.125 358.739,120.8 358.984,120.478 359.249,120.189 359.537,119.912 359.84,119.633 360.146,119.349 360.434,119.066 360.771,118.755 361.105,118.448 361.427,118.17 361.752,117.89 362.091,117.637 362.415,117.403 362.741,117.168 363.07,116.932 363.422,116.65 363.77,116.37 364.117,116.092 364.438,115.871 364.76,115.65 365.082,115.428 " fill="none" stroke-width="1" stroke="rgb(0,0,255)" />
	<polyline points="365.082,115.428 365.431,115.458 365.78,115.488 366.129,115.518 366.467,115.528 366.805,115.54 367.143,115.552 367.483,115.561 367.822,115.57 368.162,115.581 368.496,115.591 368.83,115.603 369.165,115.616 369.507,115.637 369.849,115.659 370.193,115.691 370.537,115.725 370.882,115.76 371.232,115.808 371.583,115.857 371.934,115.907 372.262,115.966 372.59,116.027 372.913,116.091 373.243,116.169 373.573,116.249 373.902,116.333 374.214,116.433 374.526,116.535 374.837,116.639 375.169,116.743 375.502,116.847 375.836,116.952 376.151,117.062 376.444,117.165 376.735,117.269 377.026,117.376 377.335,117.503 377.644,117.631 377.952,117.762 378.233,117.869 378.514,117.978 378.786,118.087 379.057,118.199 379.337,118.328 379.617,118.458 379.896,118.591 380.165,118.714 380.434,118.839 380.703,118.964 380.97,119.099 381.249,119.254 381.528,119.411 381.806,119.57 382.083,119.732 382.348,119.875 382.611,120.019 382.881,120.178 383.146,120.33 383.409,120.485 383.672,120.642 383.933,120.802 384.214,120.988 384.478,121.151 384.74,121.317 385.001,121.486 385.274,121.688 385.546,121.89 385.817,122.092 386.083,122.277 386.378,122.499 386.668,122.723 386.955,122.949 387.232,123.171 387.505,123.394 387.774,123.619 388.039,123.845 388.281,124.071 388.532,124.326 388.778,124.583 389.019,124.841 389.239,125.069 389.465,125.328 389.687,125.589 389.903,125.851 390.116,126.096 390.331,126.358 390.542,126.621 390.749,126.885 390.954,127.138 391.142,127.407 391.326,127.675 391.507,127.943 391.694,128.211 391.875,128.481 392.049,128.752 392.21,129.028 392.373,129.297 392.529,129.567 392.679,129.84 392.821,130.114 392.951,130.388 393.071,130.663 393.188,130.938 393.297,131.229 393.403,131.52 393.505,131.812 393.604,132.106 393.696,132.403 393.784,132.701 393.87,133 393.946,133.29 394.019,133.582 394.088,133.877 394.153,134.17 394.217,134.464 394.279,134.759 394.34,135.055 394.395,135.352 394.448,135.65 394.501,135.949 394.55,136.251 394.579,136.556 394.568,136.865 394.517,137.168 394.438,137.463 394.346,137.754 394.254,138.045 394.156,138.34 394.056,138.633 393.955,138.926 393.843,139.209 393.731,139.49 393.616,139.771 393.499,140.052 393.378,140.328 393.254,140.604 393.127,140.879 392.995,141.16 392.856,141.426 392.713,141.69 392.567,141.954 392.407,142.225 392.243,142.497 392.075,142.767 391.905,143.027 391.727,143.286 391.544,143.543 391.357,143.799 391.167,144.053 390.965,144.308 390.768,144.536 390.567,144.761 390.362,144.983 390.145,145.22 389.925,145.456 389.706,145.675 389.484,145.892 389.26,146.108 389.034,146.324 388.816,146.523 388.596,146.721 388.375,146.917 388.143,147.123 387.91,147.329 387.682,147.526 387.452,147.724 387.222,147.921 386.993,148.118 386.766,148.311 386.539,148.504 386.312,148.698 " fill="none" stroke-width="1" stroke="rgb(0,0,255)" />
</g></svg>
