<?xml version="1.0" ?>
<svg xmlns="http://www.w3.org/2000/svg" xmlns:ev="http://www.w3.org/2001/xml-events" xmlns:xlink="http://www.w3.org/1999/xlink" baseProfile="full" height="372px" version="1.1" viewBox="0.6053148499999921 2.7356348500000003 510.07707030000006 316.0236303" width="600px">
	<defs/>
	<path d="M 386.307,60.6133 L 393.227,62.6593 L 395.869,63.9173 L 398.897,65.6313 L 405.144,69.6686 L 413.657,76.0603 L 418.457,79.9985 L 422.823,84.0083 L 426.458,87.8764 L 428.202,89.9358 L 430.974,93.6359 L 434.96,99.4531 L 441.448,110.164 L 445.079,116.786 L 447.538,121.728 L 448.793,124.987 L 450.25,129.848 L 450.946,132.914 L 451.726,139.739 L 451.901,141.821 L 451.913,145.816 L 451.154,149.8 L 450.038,152.995 L 449.182,154.734 L 446.936,158.137 L 443.403,162.114 L 438.733,166.156 L 434.911,168.746 L 429.189,172.029 L 418.785,176.801 L 415.658,178.049 L 411.844,179.292 L 404.984,181.303 L 400.006,182.409 L 394.162,184.058 L 391.241,184.688 L 387.206,185.377 L 378.903,186.47 L 371.11,187.241 L 364.222,187.448 L 348.877,186.988 L 341.069,186.238 L 334.667,184.823 L 330.823,183.638 L 326.179,181.79 L 318.087,177.576 L 314.963,175.536 L 307.967,170.458 L 300.939,165.059 L 298.357,162.887 L 293.288,157.577 L 283.328,147.854 L 273.847,137.783 L 253.853,115.68 L 251.022,112.346 L 242.82,103.528 L 235.956,95.3914 L 230.5,89.5" fill="none" stroke="rgb(31,119,180)" stroke-width="3"/>
	<path d="M 465.525,182.339 L 466.844,188.989 L 467.277,193.277 L 467.979,208.106 L 467.999,213.19 L 467.556,217.828 L 467.016,221.1 L 466.061,225.044 L 464.94,228.143 L 463.636,231.0 L 461.46,234.988 L 458.727,238.925 L 453.173,244.885 L 450.223,247.508 L 445.647,251.203 L 440.151,255.292 L 436.884,257.479 L 432.796,259.689 L 425.911,262.905 L 411.103,270.418 L 391.843,278.995 L 380.86,283.0 L 372.972,285.224 L 356.041,289.071 L 350.52,290.033 L 336.935,291.498 L 321.622,292.247 L 312.619,292.202 L 305.16,291.873 L 297.877,291.208 L 284.838,288.694 L 277.807,286.932 L 271.791,285.023 L 264.974,282.482 L 254.943,277.759 L 245.18,272.909 L 232.157,265.801 L 226.827,262.708 L 204.084,248.418 L 189.5,239.5" fill="none" stroke="rgb(174,199,232)" stroke-width="3"/>
	<path d="M 465.525,182.339 L 458.14,188.334 L 456.021,189.989 L 447.3,196.24 L 437.111,202.973 L 424.55,209.132 L 418.939,211.684 L 414.776,213.306 L 406.78,215.676 L 387.809,220.126 L 384.074,220.827 L 373.931,222.023 L 365.301,222.717 L 359.332,222.716 L 345.127,221.792 L 339.732,220.954 L 332.868,219.251 L 328.597,217.887 L 324.878,216.378 L 318.86,213.617 L 314.868,211.404 L 308.316,207.167 L 302.169,202.909 L 294.511,197.014 L 287.61,191.26 L 276.96,181.195 L 266.691,170.816 L 246.045,148.197 L 242.81,144.902 L 227.165,129.814 L 208.5,109.5" fill="none" stroke="rgb(255,127,14)" stroke-width="3"/>
	<path d="M 129.799,42.7087 L 133.802,41.5866 L 138.856,40.572 L 148.571,39.0184 L 161.869,37.6778 L 178.147,36.8594 L 183.835,36.201 L 189.17,36.0422 L 193.776,35.4977 L 204.996,34.5679 L 209.853,34.3957 L 221.038,33.6319 L 225.043,33.5298 L 231.985,32.6173 L 235.827,32.4549 L 242.035,31.7944 L 257.077,30.7395 L 267.008,29.4377 L 268.929,29.2896 L 275.194,29.2479 L 281.956,29.4158 L 286.225,29.8434 L 295.837,31.4384 L 307.003,33.6978 L 315.054,35.7156 L 317.817,36.1925 L 332.838,40.1861 L 338.098,41.7489 L 344.776,44.0549 L 349.809,46.1588" fill="none" stroke="rgb(255,187,120)" stroke-width="3"/>
	<path d="M 85.5,80.5 L 72.1462,84.4423 L 69.0765,85.1825 L 64.7792,86.8976 L 60.8926,88.8792 L 58.9213,90.1451 L 56.599,92.0691 L 54.7363,93.9108 L 52.2731,96.6658 L 50.0912,99.5878 L 47.6308,104.064 L 45.9969,108.167 L 45.4838,110.115 L 43.7798,119.168 L 43.2887,124.566 L 43.3818,137.089 L 44.1716,144.061 L 45.7374,150.95 L 48.9407,161.113 L 54.583,175.753 L 57.9452,182.609 L 60.3928,186.754 L 62.956,190.543 L 66.3315,195.132 L 70.1453,199.885 L 73.0119,202.966 L 76.1111,205.866 L 78.7305,207.828 L 82.0343,209.731 L 85.395,211.073 L 89.9047,212.241 L 93.7854,212.868 L 97.7635,212.938 L 99.8577,212.74 L 103.909,211.811 L 113.397,208.513" fill="none" stroke="rgb(44,160,44)" stroke-width="3"/>
	<path d="M 85.5,80.5 L 100.178,77.4406 L 107.244,76.3791 L 110.082,76.1419 L 111.885,76.1694 L 115.059,77.1338 L 117.92,78.3746 L 120.807,79.922 L 125.149,82.9303 L 131.255,87.859 L 136.689,93.0051 L 139.094,95.7876 L 142.27,99.9873 L 145.924,106.179 L 147.766,109.81 L 152.412,119.842 L 153.965,123.601 L 156.182,129.817 L 156.698,131.831 L 157.203,134.989 L 157.968,142.027 L 158.291,149.823 L 158.153,155.504 L 156.261,171.03 L 155.372,176.128 L 153.858,181.906 L 151.787,187.101 L 148.964,192.393 L 147.268,194.907 L 145.437,197.145 L 143.836,198.796 L 140.602,201.679 L 135.5,205.5" fill="none" stroke="rgb(152,223,138)" stroke-width="3"/>
	<path d="M 375.816,50.0672 L 378.911,49.9171 L 380.199,50.072 L 384.982,51.0962 L 390.922,53.1318 L 395.175,55.0328 L 396.871,55.9484 L 400.597,58.0367 L 405.05,60.8653 L 414.411,67.8497 L 423.016,75.5638 L 426.121,78.5443 L 430.185,82.6433 L 433.721,86.5741 L 436.059,89.3076 L 440.139,94.5523 L 445.009,101.858 L 450.388,110.873 L 454.652,118.856 L 457.785,126.446 L 464.0,145.515 L 466.076,154.25 L 467.207,160.955 L 467.479,163.723 L 467.512,165.949 L 467.312,170.041 L 466.824,175.005 L 465.525,182.339" fill="none" stroke="rgb(214,39,40)" stroke-width="3"/>
	<path d="M 386.307,60.6133 L 381.885,62.3827 L 376.741,63.8305 L 366.129,65.9706 L 357.961,67.5009 L 346.183,69.4047 L 324.968,73.3945 L 322.685,73.9649 L 301.868,77.4111 L 290.566,79.6837 L 276.946,82.0436 L 264.653,84.6547 L 248.218,87.3645 L 238.013,88.6122 L 233.185,88.939 L 230.5,89.5" fill="none" stroke="rgb(255,152,150)" stroke-width="3"/>
	<path d="M 113.397,208.513 L 114.718,205.742 L 118.031,200.557 L 120.077,196.842 L 120.779,195.167 L 123.269,188.053 L 124.831,182.858 L 126.25,177.108 L 126.858,173.08 L 127.391,167.809 L 127.558,164.22 L 127.217,156.877 L 125.586,144.835 L 123.325,135.042 L 122.275,131.027 L 120.676,126.137 L 118.675,121.074 L 117.313,118.104 L 113.335,111.172 L 108.186,104.173 L 103.077,98.8883 L 96.3267,93.0796 L 83.9074,84.7447 L 83.0711,84.1283 L 85.5,80.5" fill="none" stroke="rgb(148,103,189)" stroke-width="3"/>
	<path d="M 189.5,239.5 L 189.811,237.705 L 189.033,223.996 L 188.941,199.216 L 187.855,152.206 L 187.516,119.148 L 187.4,97.2317 L 187.5,95.5" fill="none" stroke="rgb(197,176,213)" stroke-width="3"/>
	<path d="M 216.324,73.4957 L 219.725,71.4313 L 221.999,70.8985 L 227.734,70.0305 L 245.169,67.9616 L 269.235,63.8147 L 281.178,62.1345 L 301.153,58.7671 L 310.233,57.4838 L 344.573,50.9738 L 346.498,50.5715 L 347.653,50.1158 L 347.915,49.3103 L 348.448,49.0191 L 349.809,46.1588" fill="none" stroke="rgb(140,86,75)" stroke-width="3"/>
	<path d="M 187.5,95.5 L 178.036,92.3849 L 170.228,89.4396 L 160.62,86.0654 L 135.8,77.5973 L 124.241,73.367 L 111.017,67.9901 L 98.5,63.5" fill="none" stroke="rgb(196,156,148)" stroke-width="3"/>
	<path d="M 129.799,42.7087 L 130.548,46.1941 L 131.907,46.948 L 138.999,50.1315 L 151.057,54.4391 L 155.977,55.9361 L 175.029,60.9324 L 198.664,67.9993 L 200.433,68.7395 L 202.182,69.8486 L 202.567,71.2292" fill="none" stroke="rgb(227,119,194)" stroke-width="3"/>
	<path d="M 189.5,239.5 L 184.905,236.705 L 174.704,230.037 L 159.023,220.656 L 135.5,205.5" fill="none" stroke="rgb(247,182,210)" stroke-width="3"/>
	<path d="M 386.312,148.698 L 381.017,148.609 L 377.916,148.071 L 373.958,146.76 L 369.958,144.86 L 367.047,143.032 L 364.43,140.779 L 361.847,138.038 L 359.62,135.02 L 358.485,132.907 L 356.967,129.316 L 356.614,126.907 L 356.693,124.741 L 357.925,122.039 L 358.984,120.478 L 361.752,117.89 L 365.082,115.428" fill="none" stroke="rgb(127,127,127)" stroke-width="3"/>
	<path d="M 365.082,115.428 L 369.849,115.659 L 371.934,115.907 L 373.902,116.333 L 377.026,117.376 L 380.703,118.964 L 383.146,120.33 L 385.001,121.486 L 388.039,123.845 L 390.116,126.096 L 391.875,128.481 L 392.951,130.388 L 393.696,132.403 L 394.34,135.055 L 394.568,136.865 L 393.955,138.926 L 393.254,140.604 L 392.243,142.497 L 390.965,144.308 L 389.034,146.324 L 386.312,148.698" fill="none" stroke="rgb(199,199,199)" stroke-width="3"/>
	<path d="M 85.5,59.5 L 87.4347,55.1362 L 88.9371,52.6726 L 90.9397,49.8806 L 93.9774,46.7936 L 95.1142,45.8649 L 97.0079,44.7201 L 98.9637,43.9463 L 102.058,43.212 L 103.9,43.1953 L 104.421,43.3486 L 105.228,44.5599 L 107.411,46.3207" fill="none" stroke="rgb(188,189,34)" stroke-width="3"/>
	<path d="M 187.5,95.5 L 189.163,90.8236 L 190.773,86.9583 L 193.434,81.9829 L 196.46,77.9623 L 202.567,71.2292" fill="none" stroke="rgb(219,219,141)" stroke-width="3"/>
	<path d="M 349.809,46.1588 L 362.148,47.5034 L 369.93,49.1469 L 375.816,50.0672" fill="none" stroke="rgb(23,190,207)" stroke-width="3"/>
	<path d="M 208.5,109.5 L 197.035,100.944 L 192.278,98.0164 L 187.5,95.5" fill="none" stroke="rgb(158,218,229)" stroke-width="3"/>
	<path d="M 107.411,46.3207 L 109.888,44.5755 L 111.73,43.6006 L 113.799,42.8577 L 115.91,42.3971 L 120.574,42.1387 L 129.799,42.7087" fill="none" stroke="rgb(31,119,180)" stroke-width="3"/>
	<path d="M 135.5,205.5 L 117.254,209.046 L 113.861,208.769 L 113.397,208.513" fill="none" stroke="rgb(174,199,232)" stroke-width="3"/>
	<path d="M 230.5,89.5 L 227.428,85.8351 L 224.734,82.9093 L 218.033,76.2896 L 217.205,75.1755 L 216.324,73.4957" fill="none" stroke="rgb(255,127,14)" stroke-width="3"/>
	<path d="M 85.5,80.5 L 85.3911,66.5632 L 85.5,59.5" fill="none" stroke="rgb(255,187,120)" stroke-width="3"/>
	<path d="M 98.5,63.5 L 99.2004,62.2698 L 101.619,55.9785 L 103.386,52.2686 L 105.021,49.3418 L 107.411,46.3207" fill="none" stroke="rgb(44,160,44)" stroke-width="3"/>
	<path d="M 215.5,93.5 L 217.476,93.2989 L 219.102,92.9188 L 225.9,90.9974 L 230.5,89.5" fill="none" stroke="rgb(152,223,138)" stroke-width="3"/>
	<path d="M 375.816,50.0672 L 375.95,51.7087 L 376.234,52.4242 L 380.706,55.3694 L 384.109,57.8617 L 385.732,59.7173 L 386.307,60.6133" fill="none" stroke="rgb(214,39,40)" stroke-width="3"/>
	<path d="M 85.5,59.5 L 88.3277,60.1173 L 90.9391,60.9011 L 98.5,63.5" fill="none" stroke="rgb(255,152,150)" stroke-width="3"/>
	<path d="M 202.567,71.2292 L 216.324,73.4957" fill="none" stroke="rgb(148,103,189)" stroke-width="3"/>
</svg>
