<?xml version="1.0" ?>
<svg xmlns="http://www.w3.org/2000/svg" xmlns:ev="http://www.w3.org/2001/xml-events" xmlns:xlink="http://www.w3.org/1999/xlink" baseProfile="full" height="600px" version="1.1" viewBox="-4.661993500000001 -8.442843499999995 369.11048700000003 545.5986869999999" width="406px">
	<defs/>
	<path d="M 148.5,259.5 L 154.237,264.893 L 164.76,273.106 L 172.538,280.052 L 179.93,287.006 L 186.871,294.257 L 208.975,314.163 L 219.999,324.734 L 225.945,330.107 L 241.83,346.004 L 251.473,355.193 L 257.057,360.273 L 276.833,379.238 L 284.481,386.807 L 292.247,393.985 L 322.058,423.995 L 331.151,432.127 L 333.5,434.5" fill="none" stroke="rgb(31,119,180)" stroke-width="3"/>
	<path d="M 118.5,491.5 L 125.714,490.021 L 154.996,482.006 L 172.919,477.476 L 199.183,469.183 L 203.045,468.371 L 218.974,464.274 L 236.455,459.476 L 272.896,451.324 L 278.742,449.865 L 315.997,440.019 L 326.844,436.775 L 333.5,434.5" fill="none" stroke="rgb(174,199,232)" stroke-width="3"/>
	<path d="M 111.5,250.5 L 149.025,284.084 L 157.19,291.218 L 169.161,302.049 L 201.293,332.053 L 206.732,336.817 L 237.745,365.922 L 246.965,375.055 L 253.066,381.351 L 259.377,388.085 L 267.062,396.751 L 270.1,400.461 L 272.397,403.923 L 273.157,405.398 L 272.968,405.892 L 273.246,407.066 L 273.086,407.611" fill="none" stroke="rgb(255,127,14)" stroke-width="3"/>
	<path d="M 190.5,373.5 L 182.051,365.876 L 167.948,352.171 L 157.152,342.215 L 143.857,329.165 L 134.002,320.206 L 129.804,316.723 L 125.843,312.966 L 119.103,307.166 L 89.7716,280.526 L 81.8823,273.674 L 69.96,262.833 L 58.856,252.337 L 47.5957,240.877 L 41.5944,234.14 L 41.13,233.391 L 39.7153,229.97" fill="none" stroke="rgb(255,187,120)" stroke-width="3"/>
	<path d="M 316.5,40.5 L 316.731,54.419 L 317.311,75.8018 L 317.723,88.2737 L 318.494,103.068 L 317.086,137.976 L 317.277,145.353 L 317.159,155.436 L 317.298,169.037 L 317.119,177.811 L 317.242,185.346 L 317.056,191.225 L 317.063,200.323 L 316.83,205.076 L 316.95,214.447 L 316.46,221.035 L 316.5,233.5" fill="none" stroke="rgb(44,160,44)" stroke-width="3"/>
	<path d="M 116.308,472.465 L 119.126,471.936 L 122.926,471.824 L 127.968,471.148 L 144.859,467.948 L 155.855,465.345 L 164.489,463.034 L 173.108,460.986 L 186.971,457.244 L 196.724,454.971 L 209.044,451.362 L 221.104,447.327 L 228.808,444.944 L 247.954,439.835 L 257.65,437.028 L 281.14,430.731 L 290.896,427.956 L 295.998,426.895 L 300.5,425.5" fill="none" stroke="rgb(152,223,138)" stroke-width="3"/>
	<path d="M 302.5,40.5 L 302.54,62.807 L 303.193,85.4285 L 303.043,104.087 L 303.743,124.364 L 303.778,136.94 L 303.696,142.905 L 302.663,165.965 L 302.751,174.822 L 302.428,193.578 L 301.5,219.5" fill="none" stroke="rgb(214,39,40)" stroke-width="3"/>
	<path d="M 280.829,217.256 L 277.801,219.688 L 276.409,220.409 L 274.954,220.918 L 267.65,222.961 L 257.161,225.47 L 241.293,228.007 L 229.861,230.02 L 201.233,235.587 L 189.113,237.353 L 173.801,239.263 L 152.139,242.946 L 139.956,244.728 L 113.218,249.828 L 111.5,250.5" fill="none" stroke="rgb(255,152,150)" stroke-width="3"/>
	<path d="M 148.5,259.5 L 155.022,259.166 L 162.912,258.454 L 188.153,254.988 L 193.588,254.025 L 197.897,253.529 L 202.216,252.788 L 218.09,249.569 L 226.01,248.29 L 230.768,247.283 L 248.168,244.141 L 266.782,241.29 L 278.508,239.996 L 285.225,239.05 L 297.78,237.007 L 310.14,234.363 L 316.5,233.5" fill="none" stroke="rgb(148,103,189)" stroke-width="3"/>
	<path d="M 33.2075,218.078 L 58.8337,215.434 L 82.9586,212.002 L 94.6004,209.984 L 115.212,206.721 L 120.915,205.65 L 148.831,201.352 L 155.798,199.972 L 162.809,198.977 L 185.091,194.944 L 188.5,194.5" fill="none" stroke="rgb(197,176,213)" stroke-width="3"/>
	<path d="M 34.4446,411.313 L 37.7229,409.337 L 41.3975,408.042 L 49.9441,405.568 L 54.9655,404.303 L 71.8928,400.973 L 91.0267,396.703 L 103.123,393.756 L 119.842,390.215 L 127.199,388.872 L 139.845,386.057 L 150.014,384.012 L 166.832,380.018 L 173.943,378.48 L 183.621,375.987 L 190.5,373.5" fill="none" stroke="rgb(140,86,75)" stroke-width="3"/>
	<path d="M 188.5,194.5 L 188.277,189.733 L 188.448,183.769 L 189.034,174.92 L 189.288,153.463 L 189.148,132.53 L 188.536,110.619 L 188.691,101.399 L 189.032,94.6499 L 189.039,87.4978 L 188.744,73.6445 L 188.877,59.5894 L 188.797,47.6507 L 188.5,37.5" fill="none" stroke="rgb(196,156,148)" stroke-width="3"/>
	<path d="M 188.5,37.5 L 193.914,37.2577 L 218.197,37.213 L 224.611,37.4165 L 233.607,37.4599 L 249.988,38.2786 L 257.228,38.1853 L 270.735,38.7361 L 302.5,40.5" fill="none" stroke="rgb(227,119,194)" stroke-width="3"/>
	<path d="M 27.5,427.5 L 45.6346,440.109 L 62.0438,451.386 L 85.5777,469.017 L 97.9766,477.605 L 112.085,487.743 L 114.998,489.596 L 118.5,491.5" fill="none" stroke="rgb(247,182,210)" stroke-width="3"/>
	<path d="M 34.4446,411.313 L 38.6972,415.966 L 41.9688,418.687 L 48.935,423.661 L 67.0923,436.096 L 78.1445,444.129 L 87.3155,451.371 L 93.0482,455.403 L 116.308,472.465" fill="none" stroke="rgb(127,127,127)" stroke-width="3"/>
	<path d="M 188.5,194.5 L 192.609,194.96 L 202.825,196.979 L 226.879,202.241 L 247.023,207.04 L 265.151,210.768 L 269.652,212.051 L 274.81,213.965 L 278.059,215.529 L 280.829,217.256" fill="none" stroke="rgb(199,199,199)" stroke-width="3"/>
	<path d="M 190.5,373.5 L 214.942,384.194 L 237.186,394.918 L 257.165,403.716 L 262.861,405.74 L 268.002,407.201 L 273.086,407.611" fill="none" stroke="rgb(188,189,34)" stroke-width="3"/>
	<path d="M 39.7153,229.97 L 43.8038,229.371 L 46.5948,229.688 L 54.088,231.051 L 59.2908,232.488 L 72.9894,236.897 L 85.9348,241.34 L 111.5,250.5" fill="none" stroke="rgb(219,219,141)" stroke-width="3"/>
	<path d="M 273.086,407.611 L 276.009,409.312 L 300.5,425.5" fill="none" stroke="rgb(23,190,207)" stroke-width="3"/>
	<path d="M 280.829,217.256 L 283.819,217.753 L 293.049,218.472 L 301.5,219.5" fill="none" stroke="rgb(158,218,229)" stroke-width="3"/>
	<path d="M 116.308,472.465 L 117.146,474.125 L 117.004,474.764 L 117.731,484.048 L 118.5,491.5" fill="none" stroke="rgb(31,119,180)" stroke-width="3"/>
	<path d="M 27.5,427.5 L 26.2865,418.849 L 34.4446,411.313" fill="none" stroke="rgb(174,199,232)" stroke-width="3"/>
	<path d="M 302.5,40.5 L 316.5,40.5" fill="none" stroke="rgb(255,127,14)" stroke-width="3"/>
	<path d="M 39.7153,229.97 L 33.2075,218.078" fill="none" stroke="rgb(255,187,120)" stroke-width="3"/>
</svg>
