<?xml version="1.0" standalone="no" ?>
<!DOCTYPE svg PUBLIC "-//W3C//DTD SVG 1.1//EN" "http://www.w3.org/Graphics/SVG/1.1/DTD/svg11.dtd">
<svg width="512px" height="512px" xmlns="http://www.w3.org/2000/svg" xmlns:xlink="http://www.w3.org/1999/xlink" version="1.1" >

<g>	<image style="overflow: visible; opacity: 0.4" width="512" height="512" xlink:href="chair37_512_erode.png" />

</g>
<g>	<polyline points="188.5,37.5 189.284,37.4422 190.08,37.4228 190.856,37.3691 191.606,37.3334 192.356,37.299 193.152,37.2726 193.914,37.2577 194.727,37.2652 195.509,37.2765 196.289,37.2878 197.108,37.295 197.896,37.3068 198.729,37.3073 199.535,37.3068 200.337,37.3072 201.149,37.2971 201.936,37.2803 202.749,37.2653 203.547,37.2518 204.341,37.2382 205.167,37.2337 205.983,37.2355 206.814,37.2441 207.629,37.2443 208.454,37.2574 209.274,37.269 210.084,37.2642 210.894,37.2602 211.708,37.2582 212.519,37.2532 213.329,37.2476 214.145,37.2476 214.955,37.2404 215.76,37.2312 216.568,37.224 217.382,37.2167 218.197,37.213 219.019,37.2289 219.822,37.251 220.625,37.2836 221.405,37.3165 222.189,37.3496 222.997,37.3791 223.796,37.4013 224.611,37.4165 225.427,37.4247 226.242,37.4326 227.056,37.4333 227.871,37.4348 228.682,37.4334 229.491,37.4334 230.303,37.4316 231.127,37.4303 231.948,37.4323 232.781,37.4435 233.607,37.4599 234.422,37.4895 235.247,37.5192 236.06,37.5509 236.846,37.5933 237.638,37.633 238.43,37.6756 239.227,37.7192 240.019,37.7626 240.79,37.8106 241.565,37.858 242.332,37.9053 243.056,37.9587 243.785,38.0115 244.578,38.0449 245.359,38.0782 246.12,38.1179 246.888,38.1542 247.646,38.1956 248.433,38.2237 249.211,38.2514 249.988,38.2786 250.795,38.2829 251.59,38.2874 252.385,38.2922 253.191,38.27 253.996,38.2584 254.788,38.2216 255.594,38.2129 256.405,38.204 257.228,38.1853 258.035,38.2072 258.849,38.234 259.605,38.2817 260.362,38.3297 261.137,38.3789 261.898,38.423 262.692,38.4652 263.465,38.5023 264.235,38.5393 265.031,38.5796 265.825,38.6071 266.652,38.6322 267.469,38.6481 268.283,38.6641 269.116,38.6814 269.924,38.7021 270.735,38.7361 271.517,38.7712 272.299,38.8063 273.089,38.851 273.83,38.9032 274.597,38.9598 275.364,39.0164 276.132,39.0586 276.939,39.0874 277.72,39.1208 278.538,39.1374 279.358,39.1526 280.149,39.1813 280.962,39.2091 281.717,39.2551 282.488,39.304 283.261,39.3524 284.002,39.4035 284.764,39.4559 285.515,39.5034 286.269,39.5509 287.069,39.5903 287.844,39.6306 288.636,39.6717 289.382,39.7203 290.127,39.7689 290.891,39.8169 291.616,39.8705 292.34,39.9238 293.059,39.9826 293.831,40.0238 294.639,40.0623 295.428,40.1015 296.211,40.1403 297.03,40.1745 297.816,40.2154 298.63,40.2593 299.389,40.3165 300.146,40.3729 300.956,40.4111 301.695,40.4659 302.5,40.5 " fill="none" stroke-width="1" stroke="rgb(0,0,255)" />
	<polyline points="302.5,40.5 303.482,40.5134 304.352,40.5468 305.313,40.564 306.19,40.589 307.149,40.5897 308.041,40.5894 309.011,40.5749 309.87,40.5556 310.822,40.5354 311.703,40.5167 312.663,40.5037 313.585,40.4966 314.52,40.4788 315.5,40.4931 316.5,40.5 " fill="none" stroke-width="1" stroke="rgb(0,0,255)" />
	<polyline points="188.5,194.5 188.399,193.599 188.392,192.541 188.312,191.649 188.336,190.651 188.277,189.733 188.334,188.712 188.329,187.55 188.363,186.238 188.403,185.059 188.448,183.769 188.501,182.634 188.566,181.475 188.64,180.358 188.714,179.27 188.795,178.21 188.875,177.138 188.956,176.031 189.034,174.92 189.052,173.577 189.046,172.279 189.045,171.045 189.039,169.797 189.043,168.608 189.046,167.447 189.076,166.328 189.091,165.138 189.108,163.97 189.106,162.767 189.104,161.564 189.121,160.387 189.144,159.189 189.179,158.067 189.206,156.884 189.243,155.788 189.263,154.606 189.288,153.463 189.283,152.274 189.265,151.092 189.253,149.907 189.236,148.729 189.234,147.575 189.233,146.416 189.235,145.25 189.238,144.068 189.235,142.95 189.23,141.782 189.233,140.658 189.231,139.461 189.219,138.301 189.208,137.179 189.184,136.019 189.166,134.885 189.156,133.673 189.148,132.53 189.127,131.387 189.086,130.228 189.038,129.113 188.983,128.002 188.969,126.815 188.93,125.642 188.901,124.478 188.85,123.392 188.805,122.261 188.785,121.102 188.784,119.874 188.783,118.691 188.765,117.474 188.721,116.332 188.668,115.253 188.628,114.103 188.586,112.974 188.565,111.792 188.536,110.619 188.536,109.452 188.561,108.329 188.581,107.173 188.611,106.067 188.628,104.902 188.648,103.759 188.662,102.569 188.691,101.399 188.728,100.252 188.777,99.1034 188.835,97.9934 188.901,96.903 188.965,95.8261 189.032,94.6499 189.036,93.4055 189.018,92.1895 189.011,90.9887 189.014,89.8061 189.029,88.6643 189.039,87.4978 189.035,86.3101 189.03,85.1567 189.003,83.9516 188.982,82.8262 188.938,81.6566 188.898,80.544 188.868,79.4053 188.839,78.1772 188.813,77.0505 188.777,75.9082 188.767,74.7861 188.744,73.6445 188.781,72.5545 188.804,71.4059 188.812,70.1749 188.8,69.0304 188.799,67.778 188.745,66.7223 188.75,65.4482 188.772,64.174 188.766,63.0645 188.794,61.8059 188.84,60.7678 188.877,59.5894 188.87,58.3587 188.867,57.2624 188.85,56.0222 188.826,54.9317 188.82,53.6623 188.788,52.5661 188.78,51.4251 188.8,50.1428 188.79,48.9983 188.797,47.6507 188.781,46.4045 188.76,45.1788 188.754,43.9257 188.727,42.7609 188.717,41.5937 188.658,40.5514 188.631,39.469 188.539,38.5675 188.5,37.5 " fill="none" stroke-width="1" stroke="rgb(0,0,255)" />
	<polyline points="316.5,40.5 316.565,41.8363 316.614,43.0213 316.64,44.2216 316.65,45.3212 316.643,46.489 316.648,47.791 316.66,49.0485 316.672,50.4015 316.688,51.7629 316.706,53.0805 316.731,54.419 316.768,55.7245 316.814,56.9781 316.861,58.2193 316.916,59.3882 316.957,60.6279 316.99,61.9033 317.022,63.1793 317.051,64.4528 317.085,65.6927 317.114,66.9702 317.149,68.1983 317.179,69.4643 317.209,70.7326 317.231,71.9951 317.256,73.2957 317.278,74.562 317.311,75.8018 317.356,77.0354 317.397,78.2494 317.45,79.4261 317.494,80.6417 317.54,81.8745 317.574,83.1362 317.606,84.4347 317.637,85.7312 317.672,87.0371 317.723,88.2737 317.786,89.5033 317.855,90.7007 317.918,91.8985 317.976,93.2111 318.037,94.4799 318.104,95.7263 318.191,96.8936 318.268,98.1008 318.361,99.2286 318.428,100.469 318.472,101.747 318.494,103.068 318.455,104.31 318.424,105.598 318.366,106.853 318.301,108.111 318.24,109.384 318.169,110.597 318.093,111.76 318.039,113.028 317.978,114.25 317.921,115.469 317.875,116.731 317.829,118 317.786,119.298 317.748,120.589 317.722,121.804 317.694,123.084 317.668,124.306 317.621,125.505 317.584,126.659 317.577,127.997 317.532,129.14 317.487,130.461 317.421,131.734 317.356,132.925 317.278,134.189 317.21,135.334 317.14,136.612 317.086,137.976 317.15,139.086 317.15,140.5 317.182,141.823 317.213,143.007 317.254,144.231 317.277,145.353 317.27,146.599 317.255,147.871 317.246,149.081 317.244,150.383 317.225,151.657 317.209,152.967 317.178,154.134 317.159,155.436 317.183,156.727 317.209,157.877 317.256,159.073 317.238,160.254 317.238,161.522 317.233,162.795 317.239,164.045 317.265,165.242 317.286,166.491 317.295,167.76 317.298,169.037 317.286,170.32 317.246,171.548 317.215,172.802 317.177,174.015 317.162,175.304 317.126,176.522 317.119,177.811 317.139,179.045 317.156,180.314 317.178,181.56 317.212,182.792 317.236,184.037 317.242,185.346 317.226,186.617 317.17,187.74 317.116,188.839 317.074,190.015 317.056,191.225 317.054,192.489 317.052,193.75 317.044,194.966 317.039,196.255 317.049,197.546 317.077,198.821 317.063,200.323 317.022,201.606 316.944,202.597 316.89,204.028 316.83,205.076 316.824,206.539 316.841,207.895 316.829,209.039 316.845,210.428 316.897,211.788 316.915,213.029 316.95,214.447 316.882,215.59 316.793,216.61 316.722,217.593 316.631,218.487 316.539,219.377 316.517,220.225 316.46,221.035 316.52,222.378 316.467,223.539 316.449,224.909 316.413,226.454 316.47,227.854 316.527,228.912 316.542,230.657 316.493,232.088 316.5,233.5 " fill="none" stroke-width="1" stroke="rgb(0,0,255)" />
	<polyline points="302.5,40.5 302.507,41.455 302.483,42.382 302.506,43.324 302.505,44.2641 302.516,45.2239 302.516,46.1907 302.527,47.1712 302.532,48.1583 302.548,49.1278 302.555,50.1209 302.573,51.0756 302.517,52.0391 302.509,53.0328 302.45,54.0141 302.457,54.9711 302.451,55.9951 302.465,56.9224 302.479,57.9045 302.485,58.8706 302.499,59.8639 302.512,60.8286 302.525,61.8393 302.54,62.807 302.56,63.8103 302.586,64.7523 302.614,65.7403 302.643,66.6796 302.659,67.7047 302.677,68.6967 302.684,69.7407 302.706,70.7347 302.735,71.7409 302.772,72.6874 302.814,73.6592 302.857,74.6008 302.901,75.5728 302.943,76.5321 302.97,77.533 303.016,78.4741 303.07,79.3999 303.099,80.405 303.135,81.3841 303.147,82.4011 303.174,83.3922 303.182,84.405 303.193,85.4285 303.197,86.4456 303.185,87.4708 303.179,88.4685 303.171,89.4697 303.159,90.4151 303.152,91.3341 303.104,92.2023 303.087,93.1146 303.055,94.0537 303.043,95.0359 303.036,96.0552 303.038,97.0715 303.031,98.0857 303.032,99.0924 303.023,100.088 303.021,101.084 303.02,102.087 303.03,103.086 303.043,104.087 303.059,105.066 303.093,105.999 303.089,106.885 303.129,107.704 303.172,108.643 303.202,109.575 303.247,110.544 303.281,111.516 303.325,112.501 303.369,113.482 303.404,114.473 303.432,115.471 303.453,116.476 303.469,117.48 303.499,118.485 303.538,119.469 303.583,120.444 303.625,121.429 303.671,122.395 303.708,123.379 303.743,124.364 303.756,125.366 303.771,126.374 303.764,127.365 303.764,128.374 303.749,129.353 303.739,130.354 303.722,131.303 303.731,132.3 303.731,133.219 303.756,134.191 303.77,135.028 303.78,136.003 303.778,136.94 303.757,137.895 303.75,138.889 303.746,139.859 303.739,140.893 303.727,141.874 303.696,142.905 303.646,143.83 303.581,144.76 303.517,145.65 303.46,146.599 303.413,147.553 303.366,148.526 303.324,149.491 303.281,150.445 303.247,151.424 303.206,152.375 303.172,153.366 303.129,154.325 303.084,155.306 303.019,156.174 302.97,157.145 302.932,158.133 302.885,159.093 302.847,160.06 302.825,161.063 302.796,162.051 302.77,163.045 302.732,164.013 302.694,164.979 302.663,165.965 302.645,166.958 302.635,167.964 302.636,168.965 302.647,169.959 302.673,170.931 302.707,171.881 302.743,172.833 302.751,173.826 302.751,174.822 302.732,175.802 302.723,176.793 302.706,177.77 302.696,178.762 302.688,179.751 302.68,180.75 302.662,181.729 302.634,182.685 302.607,183.641 302.577,184.584 302.549,185.533 302.524,186.512 302.508,187.509 302.489,188.522 302.467,189.505 302.445,190.492 302.44,191.513 302.431,192.565 302.428,193.578 302.399,194.555 302.359,195.459 302.32,196.365 302.276,197.256 302.239,198.166 302.21,199.125 302.184,200.083 302.16,201.062 302.138,202.043 302.118,203.047 302.086,204.002 302.058,204.982 302.011,205.889 301.973,206.825 301.927,207.75 301.891,208.698 301.86,209.69 301.834,210.68 301.811,211.708 301.781,212.693 301.752,213.713 301.7,214.61 301.66,215.608 301.617,216.539 301.577,217.545 301.543,218.512 301.5,219.5 " fill="none" stroke-width="1" stroke="rgb(0,0,255)" />
	<polyline points="301.5,219.5 301.402,219.576 301.304,219.653 301.206,219.729 301.108,219.806 301.01,219.882 300.912,219.958 300.814,220.035 300.72,220.107 300.627,220.179 300.534,220.251 300.442,220.323 300.349,220.395 300.256,220.467 300.163,220.539 300.07,220.611 299.978,220.683 299.886,220.755 299.794,220.827 299.703,220.898 299.611,220.97 299.52,221.042 299.429,221.114 299.338,221.187 299.248,221.259 299.157,221.332 299.067,221.405 298.977,221.478 298.887,221.551 298.798,221.625 298.708,221.699 298.62,221.774 298.531,221.849 298.443,221.924 298.355,222 " fill="none" stroke-width="1" stroke="rgb(0,0,255)" />
	<polyline points="33.2075,218.078 33.7007,218.037 34.1938,217.995 34.672,217.953 35.1498,217.91 35.6312,217.867 36.1123,217.824 36.5842,217.774 37.0566,217.724 37.5173,217.677 37.9789,217.629 38.4337,217.578 38.8896,217.527 39.3278,217.481 39.7676,217.436 40.2091,217.39 40.6473,217.339 41.0868,217.287 41.5117,217.239 41.9377,217.191 42.3743,217.139 42.8119,217.087 43.2283,217.035 43.6456,216.983 44.0612,216.932 44.4993,216.882 44.9379,216.831 45.3563,216.783 45.7749,216.734 46.2283,216.686 46.6817,216.637 47.1349,216.589 47.5657,216.542 47.9966,216.495 48.4843,216.451 48.9721,216.408 49.4074,216.359 49.8424,216.309 50.3489,216.266 50.8549,216.223 51.2931,216.171 51.7312,216.119 52.2891,216.094 52.8473,216.068 53.3253,216.036 53.8042,216.003 54.2744,215.955 54.7451,215.907 55.2164,215.859 55.6441,215.81 56.0726,215.76 56.5435,215.709 57.0158,215.657 57.4502,215.603 57.8855,215.549 58.3591,215.492 58.8337,215.434 59.2679,215.372 59.7021,215.31 60.1361,215.248 60.6057,215.18 61.0749,215.111 61.51,215.043 61.9451,214.975 62.3971,214.908 62.8491,214.841 63.3024,214.773 63.7553,214.705 64.2078,214.636 64.6528,214.573 65.0975,214.51 65.5713,214.445 66.045,214.38 66.4764,214.318 66.9079,214.255 67.4308,214.201 67.9539,214.146 68.3919,214.086 68.8307,214.027 69.4159,213.996 69.8851,213.927 70.3036,213.861 70.724,213.793 71.1465,213.726 71.5941,213.652 72.0445,213.578 72.4724,213.509 72.9026,213.44 73.3466,213.364 73.7926,213.289 74.2338,213.217 74.6764,213.146 75.1202,213.074 75.5696,212.999 76.0501,212.937 76.503,212.877 76.9565,212.817 77.4217,212.755 77.8877,212.693 78.3377,212.631 78.7875,212.569 79.251,212.508 79.7148,212.447 80.179,212.386 80.6398,212.324 81.1006,212.262 81.5672,212.197 82.0344,212.131 82.4956,212.067 82.9586,212.002 83.417,211.93 83.8772,211.858 84.3294,211.783 84.7835,211.708 85.2287,211.63 85.6752,211.551 86.1226,211.473 86.5638,211.392 87.0057,211.312 87.4458,211.23 87.8865,211.147 88.3341,211.068 88.782,210.989 89.2359,210.916 89.6894,210.843 90.1422,210.769 90.5846,210.688 91.0259,210.607 91.4697,210.528 91.912,210.448 92.3608,210.366 92.8076,210.284 93.2556,210.211 93.7016,210.138 94.1455,210.065 94.6004,209.984 95.0909,209.906 95.5506,209.841 96.0087,209.776 96.5029,209.703 96.9962,209.63 97.4554,209.561 97.9146,209.491 98.3816,209.414 98.849,209.337 99.3086,209.262 99.7692,209.187 100.238,209.116 100.71,209.046 101.183,208.975 101.63,208.895 102.08,208.815 102.525,208.74 102.972,208.664 103.429,208.586 103.887,208.508 104.33,208.434 104.773,208.361 105.244,208.287 105.714,208.213 106.182,208.14 106.618,208.069 107.052,207.998 107.519,207.924 107.982,207.851 108.416,207.783 108.848,207.716 109.322,207.646 109.793,207.576 110.224,207.51 110.654,207.444 111.083,207.378 111.558,207.305 112.032,207.23 112.46,207.159 112.887,207.088 113.353,207.007 113.855,206.933 114.307,206.862 114.759,206.791 115.212,206.721 115.668,206.636 116.125,206.551 116.558,206.466 116.992,206.381 117.428,206.29 117.864,206.199 118.295,206.108 118.727,206.018 119.16,205.943 119.602,205.871 120.045,205.798 120.48,205.724 120.915,205.65 121.363,205.58 121.811,205.509 122.254,205.438 122.697,205.367 123.14,205.295 123.601,205.225 124.063,205.156 124.506,205.086 124.949,205.016 125.406,204.939 125.862,204.862 126.325,204.793 126.787,204.724 127.26,204.657 127.731,204.589 128.2,204.521 128.656,204.455 129.112,204.389 129.572,204.321 130.033,204.254 130.495,204.193 130.957,204.131 131.415,204.064 131.874,203.996 132.316,203.926 132.757,203.856 133.198,203.786 133.651,203.717 134.103,203.649 134.55,203.576 134.997,203.504 135.442,203.431 135.885,203.359 136.335,203.283 136.784,203.208 137.238,203.14 137.69,203.072 138.142,203.004 138.629,202.94 139.116,202.875 139.559,202.803 140.003,202.731 140.466,202.652 140.929,202.573 141.364,202.498 141.799,202.423 142.256,202.339 142.712,202.254 143.168,202.169 143.602,202.09 144.037,202.011 144.555,201.946 145.077,201.882 145.549,201.823 146.023,201.763 146.518,201.699 147.016,201.634 147.465,201.567 147.915,201.499 148.372,201.426 148.831,201.352 149.264,201.277 149.7,201.201 150.137,201.125 150.579,201.047 151.022,200.968 151.445,200.872 151.87,200.775 152.3,200.685 152.73,200.594 153.162,200.504 153.595,200.413 154.029,200.323 154.467,200.24 154.905,200.157 155.351,200.064 155.798,199.972 156.249,199.903 156.701,199.834 157.154,199.764 157.624,199.699 158.095,199.633 158.567,199.571 159.039,199.508 159.527,199.445 160.015,199.382 160.488,199.319 160.96,199.256 161.434,199.188 161.908,199.12 162.359,199.049 162.809,198.977 163.254,198.896 163.697,198.814 164.139,198.733 164.581,198.653 165.022,198.573 165.451,198.491 165.877,198.408 166.308,198.323 166.738,198.237 167.166,198.152 167.584,198.068 168.001,197.984 168.453,197.914 168.904,197.844 169.335,197.773 169.764,197.701 170.191,197.629 170.636,197.554 171.079,197.48 171.501,197.406 171.921,197.332 172.375,197.26 172.827,197.187 173.26,197.114 173.69,197.04 174.099,196.952 174.543,196.865 174.983,196.779 175.413,196.696 175.838,196.614 176.268,196.53 176.694,196.446 177.116,196.363 177.544,196.286 177.968,196.21 178.396,196.133 178.819,196.057 179.247,195.985 179.665,195.913 180.08,195.84 180.509,195.768 180.934,195.696 181.348,195.621 181.757,195.547 182.163,195.473 182.586,195.396 183.004,195.32 183.412,195.244 183.817,195.169 184.247,195.094 184.673,195.019 185.091,194.944 185.53,194.893 185.967,194.842 186.378,194.77 186.788,194.697 187.224,194.654 187.658,194.611 188.092,194.568 188.5,194.5 " fill="none" stroke-width="1" stroke="rgb(0,0,255)" />
	<polyline points="188.5,194.5 188.905,194.525 189.316,194.573 189.728,194.62 190.14,194.668 190.548,194.701 190.957,194.734 191.368,194.788 191.78,194.841 192.193,194.895 192.609,194.96 193.01,195.044 193.402,195.12 193.796,195.196 194.191,195.272 194.574,195.356 194.958,195.441 195.344,195.517 195.731,195.595 196.119,195.673 196.503,195.757 196.888,195.843 197.277,195.924 197.666,196.008 198.07,196.09 198.474,196.155 198.881,196.221 199.279,196.299 199.678,196.377 200.079,196.456 200.475,196.522 200.872,196.588 201.264,196.669 201.657,196.75 202.051,196.831 202.437,196.905 202.825,196.979 203.206,197.062 203.588,197.146 203.97,197.23 204.349,197.318 204.729,197.407 205.109,197.496 205.494,197.582 205.88,197.669 206.256,197.756 206.634,197.842 207.012,197.929 207.4,198.02 207.795,198.103 208.19,198.186 208.576,198.259 208.963,198.333 209.367,198.415 209.772,198.498 210.178,198.581 210.569,198.655 210.962,198.729 211.368,198.815 211.775,198.9 212.182,198.986 212.557,199.07 212.933,199.155 213.328,199.249 213.724,199.344 214.12,199.439 214.499,199.525 214.877,199.611 215.277,199.713 215.677,199.815 216.077,199.917 216.449,200.003 216.837,200.092 217.268,200.191 217.7,200.291 218.132,200.39 218.519,200.47 218.908,200.549 219.331,200.64 219.756,200.73 220.18,200.821 220.565,200.895 220.951,200.97 221.349,201.059 221.747,201.148 222.146,201.238 222.53,201.313 222.913,201.389 223.318,201.475 223.723,201.56 224.128,201.646 224.515,201.723 224.902,201.801 225.307,201.893 225.713,201.985 226.123,202.083 226.501,202.162 226.879,202.241 227.282,202.35 227.685,202.458 228.089,202.566 228.469,202.648 228.849,202.729 229.246,202.827 229.644,202.925 230.041,203.024 230.426,203.108 230.81,203.192 231.205,203.284 231.6,203.376 231.996,203.468 232.385,203.556 232.775,203.644 233.165,203.732 233.564,203.82 233.962,203.908 234.357,204.002 234.767,204.106 235.177,204.209 235.559,204.3 235.942,204.391 236.355,204.493 236.768,204.594 237.181,204.696 237.562,204.784 237.942,204.871 238.347,204.967 238.742,205.066 239.137,205.164 239.509,205.255 239.882,205.345 240.274,205.446 240.667,205.547 241.059,205.648 241.432,205.739 241.805,205.83 242.179,205.921 242.571,206.016 242.976,206.103 243.372,206.19 243.768,206.277 244.164,206.363 244.569,206.455 244.975,206.548 245.38,206.645 245.786,206.742 246.192,206.84 246.607,206.94 247.023,207.04 247.415,207.125 247.807,207.21 248.203,207.297 248.6,207.385 248.997,207.473 249.382,207.558 249.766,207.643 250.151,207.728 250.549,207.813 250.947,207.897 251.326,207.978 251.712,208.064 252.099,208.15 252.499,208.23 252.899,208.31 253.284,208.391 253.668,208.472 254.052,208.552 254.455,208.627 254.857,208.702 255.249,208.778 255.64,208.854 256.031,208.93 256.45,208.997 256.834,209.071 257.229,209.145 257.623,209.219 258.017,209.293 258.403,209.366 258.788,209.439 259.172,209.512 259.577,209.591 259.981,209.67 260.362,209.749 260.742,209.828 261.121,209.907 261.537,209.997 261.943,210.078 262.34,210.156 262.736,210.234 263.131,210.313 263.54,210.404 263.947,210.497 264.35,210.586 264.751,210.677 265.151,210.768 265.558,210.878 265.963,210.989 266.33,211.088 266.695,211.187 267.057,211.287 267.46,211.396 267.858,211.506 268.211,211.611 268.561,211.716 268.908,211.822 269.282,211.935 269.652,212.051 270.03,212.18 270.385,212.304 270.736,212.428 271.085,212.553 271.45,212.682 271.811,212.812 272.172,212.943 272.504,213.06 272.832,213.179 273.175,213.31 273.515,213.442 273.852,213.576 274.173,213.704 274.493,213.834 274.81,213.965 275.129,214.108 275.482,214.284 275.83,214.458 276.167,214.63 276.486,214.772 276.807,214.917 277.127,215.063 277.441,215.214 277.754,215.366 278.059,215.529 278.36,215.703 278.66,215.877 278.959,216.051 279.262,216.232 279.563,216.416 279.862,216.603 280.176,216.805 280.49,217.005 280.829,217.256 " fill="none" stroke-width="1" stroke="rgb(0,0,255)" />
	<polyline points="25.5,220.5 26.3095,220.168 27.0412,219.907 27.8184,219.646 28.5438,219.41 29.2694,219.175 30.012,218.928 30.7771,218.713 31.6207,218.483 32.4142,218.281 33.2075,218.078 " fill="none" stroke-width="1" stroke="rgb(0,0,255)" />
	<polyline points="190.5,373.5 190.157,373.184 189.817,372.883 189.478,372.597 189.138,372.311 188.793,372.002 188.449,371.678 188.104,371.353 187.754,371.032 187.407,370.727 187.056,370.419 186.7,370.097 186.338,369.763 185.974,369.426 185.609,369.093 185.259,368.782 184.904,368.468 184.529,368.141 184.164,367.82 183.804,367.485 183.441,367.148 183.092,366.832 182.748,366.516 182.401,366.197 182.051,365.876 181.7,365.531 181.347,365.182 180.989,364.83 180.633,364.485 180.276,364.139 179.926,363.794 179.575,363.446 179.222,363.096 178.893,362.762 178.543,362.414 178.191,362.066 177.85,361.719 177.488,361.367 177.127,361.015 176.786,360.681 176.444,360.347 176.104,360.014 175.71,359.653 175.317,359.293 174.927,358.935 174.587,358.605 174.246,358.273 173.905,357.941 173.507,357.601 173.108,357.261 172.746,356.914 172.377,356.563 172.007,356.211 171.621,355.84 171.218,355.463 170.82,355.09 170.445,354.716 170.074,354.346 169.715,353.984 169.361,353.624 169.005,353.261 168.669,352.907 168.308,352.54 167.948,352.171 167.581,351.829 167.202,351.483 166.82,351.137 166.455,350.784 166.093,350.434 165.715,350.081 165.316,349.734 164.919,349.388 164.52,349.014 164.166,348.685 163.79,348.342 163.413,347.998 163.021,347.639 162.64,347.3 162.258,346.961 161.934,346.649 161.578,346.328 161.215,346.002 160.849,345.661 160.485,345.321 160.121,344.982 159.759,344.656 159.394,344.327 159.025,343.995 158.66,343.639 158.295,343.283 157.93,342.928 157.544,342.574 157.152,342.215 156.789,341.851 156.41,341.481 156.035,341.116 155.668,340.758 155.303,340.402 154.939,340.048 154.592,339.719 154.238,339.386 153.878,339.047 153.52,338.708 153.161,338.367 152.808,338.029 152.455,337.707 152.097,337.381 151.76,337.05 151.394,336.694 151.027,336.336 150.689,335.992 150.324,335.629 149.957,335.264 149.618,334.919 149.245,334.547 148.87,334.173 148.537,333.816 148.204,333.458 147.869,333.099 147.492,332.736 147.116,332.374 146.768,332.028 146.401,331.651 146.036,331.278 145.696,330.934 145.332,330.583 144.971,330.235 144.621,329.904 144.237,329.532 143.857,329.165 143.461,328.801 143.068,328.44 142.713,328.12 142.327,327.773 141.944,327.428 141.589,327.102 141.186,326.734 140.805,326.391 140.422,326.045 140.04,325.718 139.675,325.386 139.314,325.057 138.933,324.71 138.528,324.347 138.126,323.986 137.769,323.654 137.414,323.325 137.062,322.999 136.662,322.626 136.265,322.257 135.871,321.891 135.499,321.553 135.13,321.216 134.779,320.92 134.39,320.562 134.002,320.206 133.637,319.883 133.257,319.549 132.881,319.219 132.523,318.927 132.129,318.614 131.741,318.293 131.357,317.975 130.977,317.663 130.59,317.349 130.204,317.037 129.804,316.723 129.424,316.369 129.049,316.02 128.688,315.671 128.33,315.324 127.975,314.981 127.631,314.655 127.286,314.327 126.939,313.998 126.576,313.657 126.211,313.313 125.843,312.966 125.484,312.648 125.114,312.32 124.723,312.036 124.33,311.678 123.927,311.311 123.555,310.994 123.195,310.702 122.832,310.409 122.451,310.107 122.067,309.756 121.698,309.424 121.332,309.094 120.963,308.791 120.584,308.471 120.203,308.148 119.846,307.827 119.476,307.498 119.103,307.166 118.721,306.806 118.34,306.447 117.958,306.088 117.593,305.767 117.224,305.441 116.849,305.112 116.464,304.751 116.075,304.386 115.695,304.024 115.325,303.691 114.952,303.356 114.554,302.982 114.179,302.661 113.816,302.324 113.451,301.985 113.088,301.673 112.688,301.287 112.279,300.893 111.915,300.598 111.56,300.286 111.2,299.97 110.834,299.659 110.438,299.292 110.037,298.921 109.674,298.604 109.311,298.288 108.947,297.972 108.554,297.607 108.157,297.239 107.795,296.92 107.421,296.577 107.047,296.235 106.679,295.905 106.275,295.53 105.871,295.155 105.507,294.819 105.142,294.483 104.777,294.163 104.383,293.799 103.986,293.432 103.604,293.103 103.237,292.782 102.873,292.463 102.515,292.157 102.155,291.848 101.754,291.482 101.353,291.114 100.985,290.792 100.612,290.45 100.239,290.108 99.8717,289.76 99.4796,289.399 99.0881,289.039 98.712,288.673 98.3365,288.307 97.9617,287.942 97.5948,287.628 97.2291,287.315 96.8644,287.003 96.4753,286.648 96.087,286.294 95.7158,285.949 95.3428,285.62 94.9699,285.292 94.6068,284.96 94.2303,284.64 93.8546,284.32 93.4915,283.967 93.1134,283.623 92.7375,283.266 92.355,282.902 91.9719,282.575 91.6041,282.227 91.2406,281.884 90.8708,281.551 90.4978,281.197 90.129,280.847 89.7716,280.526 89.4161,280.208 89.0624,279.891 88.6844,279.563 88.3106,279.238 87.9411,278.917 87.5811,278.611 87.2235,278.307 86.8684,278.005 86.47,277.668 86.077,277.335 85.7087,277.031 85.3268,276.701 84.9547,276.379 84.5858,276.067 84.1858,275.719 83.7971,275.378 83.4113,275.04 82.9912,274.672 82.6265,274.345 82.256,274.011 81.8823,273.674 81.507,273.327 81.1269,272.975 80.7637,272.644 80.4015,272.313 80.0403,271.984 79.6806,271.647 79.3206,271.311 78.9601,270.973 78.596,270.642 78.2299,270.308 77.8615,269.973 77.4733,269.61 77.0886,269.25 76.7428,268.928 76.3783,268.602 76.0174,268.279 75.6427,267.958 75.2336,267.584 74.8201,267.206 74.4497,266.88 74.1085,266.581 73.7326,266.252 73.3479,265.916 72.9379,265.537 72.5575,265.203 72.1798,264.871 71.8061,264.53 71.4297,264.187 71.0507,263.841 70.6866,263.505 70.323,263.169 69.96,262.833 69.5987,262.487 69.2375,262.141 68.8499,261.789 68.4726,261.43 68.0961,261.071 67.7443,260.719 67.3921,260.366 67.0392,260.012 66.6639,259.648 66.2872,259.282 65.9092,258.914 65.5386,258.563 65.1675,258.211 64.8053,257.854 64.4459,257.512 64.0863,257.17 63.7191,256.828 63.3525,256.486 62.987,256.145 62.626,255.821 62.2647,255.497 61.9031,255.171 61.5167,254.813 61.1319,254.456 60.74,254.073 60.3512,253.712 59.9745,253.361 59.605,253.008 59.2307,252.673 58.856,252.337 58.4366,251.928 58.0495,251.547 57.7127,251.204 57.3704,250.855 57.0128,250.505 56.6203,250.104 56.2407,249.728 55.8598,249.349 55.525,248.994 55.1931,248.647 54.8657,248.302 54.5305,247.938 54.1801,247.584 53.8241,247.225 53.4653,246.851 53.1424,246.511 52.8125,246.164 52.4596,245.814 52.1016,245.46 51.6901,245.047 51.3621,244.708 51.0367,244.369 50.714,244.03 50.3266,243.672 49.9395,243.314 49.5497,242.922 49.2385,242.591 48.9262,242.259 48.6194,241.926 48.2719,241.566 47.9313,241.212 47.5957,240.877 47.2971,240.547 46.999,240.217 46.7076,239.891 46.398,239.53 46.1008,239.169 45.7988,238.83 45.5233,238.473 45.2446,238.123 44.9617,237.811 44.673,237.503 44.3877,237.197 44.1056,236.893 43.8244,236.587 43.5453,236.282 43.2683,235.978 43.0024,235.672 42.7135,235.371 42.4254,235.07 42.1459,234.76 41.8654,234.454 41.5944,234.14 41.3403,233.784 41.13,233.391 40.9478,232.97 40.7717,232.534 40.5964,232.098 40.3861,231.61 40.1745,231.121 39.9537,230.54 39.7153,229.97 " fill="none" stroke-width="1" stroke="rgb(0,0,255)" />
	<polyline points="39.7153,229.97 39.4411,229.806 39.1669,229.642 38.8927,229.477 38.6202,229.313 38.3479,229.148 38.0759,228.983 37.8032,228.818 37.5307,228.653 37.2584,228.488 36.9864,228.323 36.7459,228.157 36.5075,227.992 36.2538,227.837 36.0004,227.682 35.7587,227.531 35.5172,227.38 35.2759,227.229 35.0347,227.078 34.7818,226.925 34.5292,226.767 34.2768,226.609 34.0247,226.451 33.7736,226.289 33.5234,226.128 33.2739,225.967 33.0298,225.813 32.7781,225.658 32.5268,225.504 32.2759,225.349 32.0254,225.195 31.7891,225.039 31.5391,224.882 " fill="none" stroke-width="1" stroke="rgb(0,0,255)" />
	<polyline points="31.5391,224.882 30.8943,224.473 30.2294,224.036 29.5658,223.602 28.8975,223.164 28.1941,222.667 27.4931,222.118 26.759,221.597 26.0354,221.019 25.5,220.5 " fill="none" stroke-width="1" stroke="rgb(0,0,255)" />
	<polyline points="39.7153,229.97 40.1029,229.882 40.5055,229.806 40.9087,229.729 41.3169,229.667 41.7264,229.603 42.1375,229.537 42.5617,229.493 42.9887,229.45 43.399,229.404 43.8038,229.371 44.1843,229.377 44.528,229.416 44.8712,229.461 45.2158,229.503 45.5615,229.547 45.9082,229.592 46.2509,229.639 46.5948,229.688 46.9397,229.739 47.2882,229.798 47.6376,229.859 47.9879,229.922 48.3387,229.978 48.6824,230.034 49.0265,230.092 49.3787,230.148 49.7311,230.205 50.0838,230.265 50.4388,230.325 50.7941,230.387 51.15,230.451 51.5092,230.523 51.8687,230.596 52.2315,230.665 52.5946,230.736 52.9577,230.809 53.3285,230.887 53.6995,230.967 54.088,231.051 54.511,231.152 54.9369,231.256 55.3366,231.366 55.7386,231.477 56.1427,231.591 56.5407,231.705 56.9405,231.822 57.3577,231.938 57.7766,232.056 58.1613,232.162 58.5359,232.269 58.9118,232.379 59.2908,232.488 59.6706,232.599 60.0506,232.712 60.421,232.827 60.7888,232.943 61.1835,233.064 61.6008,233.192 62.0235,233.322 62.4143,233.438 62.8068,233.555 63.2277,233.683 63.6517,233.812 64.0793,233.942 64.4556,234.066 64.8332,234.191 65.2158,234.32 65.5984,234.452 65.9814,234.587 66.3627,234.722 66.7459,234.857 67.1312,234.993 67.532,235.123 67.9348,235.254 68.3246,235.379 68.7167,235.503 69.1111,235.627 69.4987,235.752 69.8877,235.876 70.273,236.004 70.6683,236.135 71.0648,236.267 71.4418,236.389 71.82,236.512 72.2086,236.64 72.5984,236.768 72.9894,236.897 73.3662,237.028 73.7457,237.168 74.1262,237.308 74.5087,237.45 74.8921,237.594 75.271,237.735 75.6507,237.878 76.0311,238.02 76.4343,238.157 76.838,238.294 77.2181,238.423 77.5984,238.552 77.9789,238.682 78.3971,238.826 78.8155,238.971 79.1961,239.097 79.5767,239.224 79.9573,239.351 80.3551,239.483 80.7524,239.616 81.1491,239.75 81.5269,239.881 81.9045,240.011 82.3316,240.151 82.7587,240.291 83.1856,240.43 83.5668,240.551 83.9478,240.672 84.3814,240.817 84.815,240.961 85.1884,241.087 85.5617,241.214 85.9348,241.34 86.3287,241.479 86.7216,241.619 87.1137,241.76 87.4827,241.893 87.8516,242.026 88.2552,242.173 88.6584,242.32 89.0614,242.467 89.4336,242.598 89.8055,242.729 90.177,242.859 90.5726,243.003 90.9565,243.135 91.3237,243.262 91.6904,243.389 92.0565,243.515 92.444,243.644 92.8307,243.773 93.196,243.898 93.5604,244.022 93.9303,244.153 94.3162,244.285 94.7009,244.416 95.0844,244.548 95.4478,244.675 95.8101,244.801 96.1934,244.935 96.5911,245.08 96.9874,245.225 97.3456,245.355 97.7028,245.484 98.0592,245.612 98.4462,245.756 98.8321,245.899 99.1905,246.029 99.5517,246.159 99.9118,246.288 100.299,246.425 100.685,246.562 101.069,246.699 101.435,246.831 101.799,246.963 102.158,247.093 102.547,247.24 102.934,247.386 103.299,247.515 103.662,247.643 104.023,247.771 104.42,247.917 104.834,248.085 105.226,248.244 105.615,248.402 106.004,248.56 106.427,248.726 106.849,248.891 107.259,249.049 107.651,249.189 108.042,249.329 108.455,249.471 108.868,249.613 109.281,249.76 109.694,249.906 110.105,250.053 110.569,250.197 111.033,250.341 111.5,250.5 " fill="none" stroke-width="1" stroke="rgb(0,0,255)" />
	<polyline points="33.2075,218.078 31.5391,224.882 " fill="none" stroke-width="1" stroke="rgb(0,0,255)" />
	<polyline points="190.5,373.5 190.944,373.737 191.375,373.953 191.815,374.119 192.228,374.309 192.642,374.501 193.056,374.694 193.505,374.873 193.956,375.052 194.344,375.249 194.733,375.446 195.124,375.643 195.507,375.822 195.891,376.001 196.249,376.15 196.608,376.3 196.97,376.449 197.332,376.596 197.695,376.743 198.06,376.889 198.409,377.022 198.766,377.179 199.124,377.337 199.5,377.508 199.877,377.68 200.235,377.841 200.594,378.003 200.938,378.147 201.29,378.3 201.642,378.455 201.994,378.611 202.34,378.766 202.686,378.922 203.063,379.097 203.419,379.25 203.776,379.403 204.134,379.557 204.546,379.744 204.959,379.932 205.333,380.097 205.708,380.262 206.083,380.427 206.458,380.589 206.833,380.752 207.242,380.909 207.653,381.066 208.01,381.211 208.371,381.357 208.732,381.504 209.094,381.652 209.449,381.8 209.806,381.948 210.193,382.114 210.559,382.261 210.927,382.409 211.302,382.58 211.679,382.751 212.056,382.923 212.415,383.08 212.775,383.237 213.134,383.394 213.492,383.549 213.85,383.705 214.211,383.866 214.572,384.027 214.942,384.194 215.315,384.382 215.687,384.57 216.059,384.757 216.437,384.938 216.803,385.105 217.169,385.273 217.535,385.432 217.9,385.59 218.274,385.762 218.648,385.934 219.03,386.113 219.391,386.287 219.751,386.461 220.11,386.635 220.507,386.827 220.904,387.019 221.288,387.202 221.671,387.385 222.053,387.568 222.463,387.77 222.871,387.973 223.235,388.156 223.598,388.338 223.961,388.519 224.348,388.71 224.733,388.901 225.118,389.092 225.508,389.266 225.897,389.44 226.27,389.611 226.641,389.782 227.013,389.955 227.376,390.139 227.738,390.325 228.1,390.511 228.456,390.686 228.812,390.86 229.169,391.034 229.539,391.207 229.909,391.38 230.278,391.557 230.647,391.734 231.016,391.91 231.377,392.082 231.727,392.25 232.078,392.419 232.434,392.586 232.791,392.753 233.148,392.92 233.509,393.099 233.869,393.279 234.233,393.468 234.598,393.658 234.962,393.847 235.328,394.034 235.691,394.206 236.053,394.378 236.431,394.558 236.808,394.738 237.186,394.918 237.545,395.069 237.908,395.241 238.282,395.408 238.656,395.575 239.029,395.742 239.383,395.897 239.736,396.052 240.091,396.203 240.452,396.362 240.814,396.52 241.176,396.676 241.53,396.824 241.883,396.973 242.263,397.147 242.641,397.321 243.02,397.494 243.365,397.644 243.71,397.794 244.055,397.943 244.426,398.103 244.797,398.264 245.168,398.425 245.542,398.588 245.916,398.752 246.309,398.916 246.703,399.079 247.107,399.256 247.467,399.409 247.827,399.56 248.27,399.759 248.713,399.957 249.121,400.14 249.529,400.337 249.937,400.534 250.342,400.725 250.748,400.917 251.148,401.099 251.517,401.256 251.888,401.413 252.282,401.596 252.676,401.778 253.072,401.96 253.451,402.127 253.831,402.293 254.211,402.46 254.591,402.626 254.971,402.792 255.358,402.959 255.712,403.098 256.067,403.236 256.433,403.398 256.799,403.558 257.165,403.716 257.515,403.849 257.864,403.981 258.237,404.139 258.609,404.295 258.979,404.448 259.358,404.572 259.735,404.695 260.111,404.814 260.484,404.938 260.831,405.063 261.169,405.177 261.503,405.284 261.836,405.389 262.179,405.509 262.52,405.626 262.861,405.74 263.192,405.836 263.523,405.93 263.854,406.022 264.203,406.131 264.552,406.237 264.9,406.341 265.239,406.442 265.576,406.54 265.912,406.636 266.261,406.739 266.609,406.838 266.958,406.933 267.297,407.017 267.649,407.111 268.002,407.201 268.357,407.276 268.717,407.34 269.085,407.388 269.473,407.415 269.861,407.439 270.255,407.463 270.648,407.485 271.04,407.508 271.437,407.529 271.837,407.545 272.256,407.564 272.672,407.587 273.086,407.611 " fill="none" stroke-width="1" stroke="rgb(0,0,255)" />
	<polyline points="111.5,250.5 112.334,251.162 113.764,252.292 114.96,253.023 " fill="none" stroke-width="1" stroke="rgb(0,0,255)" />
	<polyline points="34.4446,411.313 34.8238,411.074 35.1865,410.862 35.5468,410.65 35.905,410.44 36.2398,410.244 36.5718,410.049 36.888,409.86 37.1662,409.679 37.4407,409.499 37.7229,409.337 38.0246,409.211 38.3297,409.103 38.6336,408.996 38.9446,408.886 39.2436,408.781 39.5443,408.676 39.8468,408.572 40.1511,408.467 40.4616,408.36 40.7742,408.252 41.0889,408.145 41.3975,408.042 41.7149,407.937 42.034,407.832 42.3803,407.733 42.7288,407.635 43.0795,407.537 43.4121,407.436 43.7467,407.335 44.0834,407.235 44.4829,407.152 44.8858,407.071 45.2403,406.969 45.5822,406.864 45.9264,406.76 46.2989,406.654 46.6742,406.549 47.0523,406.444 47.4024,406.331 47.7541,406.218 48.1073,406.106 48.4986,405.976 48.8682,405.872 49.2251,405.77 49.5838,405.669 49.9441,405.568 50.3011,405.471 50.6596,405.374 51.0194,405.278 51.3755,405.188 51.7326,405.099 52.0907,405.011 52.4513,404.918 52.8125,404.826 53.1741,404.735 53.5316,404.648 53.8895,404.561 54.2481,404.474 54.6068,404.388 54.9655,404.303 55.33,404.22 55.6943,404.137 56.0581,404.055 56.4227,403.975 56.7992,403.907 57.1745,403.839 57.5561,403.773 57.936,403.707 58.3095,403.639 58.6813,403.572 59.0514,403.506 59.4307,403.437 59.8081,403.369 60.1839,403.302 60.5533,403.233 60.9215,403.164 61.3195,403.1 61.7157,403.036 62.0837,402.952 62.4423,402.866 62.7996,402.781 63.1557,402.696 63.5245,402.614 63.892,402.533 64.2575,402.452 64.6214,402.371 64.9838,402.29 65.3605,402.215 65.7354,402.141 66.1087,402.066 66.4726,401.989 66.8443,401.917 67.2452,401.848 67.6443,401.779 68.0419,401.709 68.4182,401.636 68.7932,401.563 69.167,401.489 69.5638,401.417 69.9591,401.345 70.333,401.269 70.7057,401.193 71.0773,401.116 71.4858,401.045 71.8928,400.973 72.2484,400.888 72.6032,400.803 72.9573,400.718 73.3353,400.637 73.7126,400.556 74.0893,400.476 74.454,400.395 74.8185,400.314 75.1854,400.227 75.5521,400.14 75.9187,400.053 76.2949,399.97 76.6525,399.883 77.0104,399.796 77.3859,399.711 77.762,399.627 78.1386,399.543 78.5106,399.456 78.8832,399.368 79.2707,399.284 79.6591,399.2 80.0484,399.116 80.4276,399.028 80.8262,398.95 81.2119,398.866 81.599,398.783 81.9875,398.7 82.3734,398.624 82.7604,398.548 83.1484,398.471 83.5284,398.388 83.9091,398.305 84.2788,398.222 84.6492,398.139 85.0201,398.056 85.3865,397.967 85.7677,397.881 86.1493,397.795 86.5094,397.708 86.8697,397.622 87.2507,397.536 87.6318,397.45 88.013,397.364 88.3827,397.281 88.7526,397.197 89.1227,397.114 89.5175,397.031 89.8873,396.939 90.2663,396.86 90.6461,396.781 91.0267,396.703 91.4012,396.609 91.7771,396.515 92.1544,396.421 92.5312,396.342 92.9096,396.263 93.2824,396.168 93.657,396.073 94.0335,395.978 94.422,395.891 94.8132,395.805 95.2003,395.715 95.5897,395.626 95.9813,395.536 96.368,395.452 96.7572,395.367 97.1489,395.283 97.5317,395.193 97.9167,395.104 98.294,395.014 98.6581,394.918 99.0238,394.822 99.3974,394.717 99.7724,394.612 100.148,394.508 100.514,394.409 100.88,394.311 101.255,394.208 101.63,394.105 102.005,394.002 102.378,393.92 102.75,393.837 103.123,393.756 103.502,393.674 103.882,393.593 104.26,393.518 104.638,393.443 105.015,393.368 105.408,393.296 105.8,393.224 106.192,393.152 106.581,393.083 106.969,393.014 107.341,392.93 107.711,392.847 108.081,392.763 108.452,392.684 108.821,392.604 109.189,392.523 109.555,392.441 109.919,392.36 110.292,392.28 110.662,392.201 111.03,392.121 111.39,392.041 111.747,391.961 112.129,391.894 112.519,391.822 112.907,391.749 113.267,391.673 113.625,391.596 113.981,391.519 114.36,391.439 114.737,391.359 115.111,391.279 115.464,391.199 115.815,391.119 116.205,391.04 116.594,390.961 116.952,390.878 117.3,390.792 117.649,390.706 117.998,390.62 118.372,390.537 118.746,390.454 119.121,390.371 119.482,390.293 119.842,390.215 120.231,390.139 120.619,390.064 121.008,389.989 121.397,389.922 121.786,389.855 122.175,389.789 122.601,389.716 123.028,389.644 123.406,389.577 123.785,389.51 124.164,389.444 124.555,389.369 124.946,389.295 125.306,389.219 125.666,389.143 126.027,389.068 126.392,388.99 126.795,388.931 127.199,388.872 127.567,388.793 127.936,388.714 128.303,388.637 128.671,388.56 129.039,388.482 129.404,388.402 129.769,388.323 130.136,388.242 130.497,388.167 130.859,388.091 131.229,388.012 131.584,387.925 131.94,387.836 132.288,387.753 132.636,387.67 132.984,387.586 133.361,387.504 133.737,387.422 134.113,387.339 134.466,387.255 134.818,387.17 135.206,387.088 135.594,387.005 135.969,386.926 136.315,386.849 136.66,386.773 137.004,386.696 137.367,386.614 137.729,386.533 138.09,386.451 138.434,386.372 138.778,386.293 139.12,386.214 139.483,386.136 139.845,386.057 140.212,385.982 140.601,385.911 140.99,385.84 141.377,385.777 141.762,385.713 142.146,385.648 142.523,385.562 142.899,385.478 143.261,385.397 143.623,385.317 143.985,385.237 144.356,385.151 144.727,385.065 145.097,384.979 145.496,384.908 145.893,384.838 146.272,384.761 146.65,384.685 147.027,384.608 147.409,384.536 147.79,384.465 148.17,384.393 148.55,384.319 148.93,384.245 149.292,384.167 149.653,384.089 150.014,384.012 150.381,383.919 150.748,383.827 151.114,383.735 151.469,383.655 151.824,383.576 152.209,383.496 152.593,383.416 152.977,383.337 153.318,383.249 153.659,383.161 153.999,383.073 154.373,382.99 154.762,382.897 155.151,382.803 155.505,382.717 155.859,382.631 156.224,382.543 156.59,382.454 156.956,382.365 157.3,382.277 157.645,382.189 157.989,382.101 158.346,382.015 158.712,381.944 159.078,381.873 159.452,381.798 159.825,381.722 160.191,381.645 160.556,381.569 160.921,381.492 161.298,381.412 161.674,381.331 162.05,381.251 162.416,381.161 162.781,381.072 163.147,380.984 163.513,380.878 163.879,380.773 164.252,380.68 164.624,380.588 164.996,380.496 165.366,380.399 165.736,380.303 166.105,380.207 166.469,380.112 166.832,380.018 167.215,379.941 167.598,379.863 167.98,379.785 168.336,379.696 168.692,379.607 169.047,379.517 169.444,379.437 169.842,379.357 170.195,379.274 170.548,379.19 170.9,379.107 171.285,379.027 171.678,378.951 172.071,378.874 172.431,378.793 172.791,378.711 173.151,378.629 173.547,378.555 173.943,378.48 174.278,378.382 174.614,378.284 174.949,378.187 175.319,378.094 175.689,378.001 176.074,377.917 176.423,377.821 176.771,377.726 177.119,377.63 177.513,377.546 177.907,377.462 178.264,377.37 178.621,377.277 178.979,377.186 179.354,377.104 179.73,377.022 180.086,376.932 180.447,376.832 180.808,376.733 181.169,376.634 181.516,376.541 181.863,376.449 182.22,376.35 182.577,376.25 182.934,376.151 183.277,376.069 183.621,375.987 183.999,375.915 184.392,375.843 184.786,375.771 185.179,375.7 185.562,375.626 185.944,375.552 186.322,375.467 186.699,375.382 187.077,375.297 " fill="none" stroke-width="1" stroke="rgb(0,0,255)" />
	<polyline points="187.077,375.297 187.891,374.922 188.741,374.418 189.69,374.084 190.5,373.5 " fill="none" stroke-width="1" stroke="rgb(0,0,255)" />
	<polyline points="25.5,409.5 25.7632,409.553 26.0265,409.606 26.2915,409.657 26.5564,409.707 26.8213,409.757 27.0861,409.807 27.3496,409.858 27.6129,409.909 27.8761,409.96 28.1455,410.011 28.4192,410.068 28.6928,410.125 28.9662,410.182 29.2376,410.24 29.5089,410.297 29.7801,410.354 30.051,410.41 30.3259,410.468 30.6006,410.525 30.8751,410.581 31.1485,410.639 31.4219,410.696 31.6951,410.752 31.9683,410.807 32.2434,410.862 32.5184,410.917 32.7934,410.971 33.0683,411.025 33.3436,411.082 33.6189,411.14 33.8942,411.196 34.1694,411.255 34.4446,411.313 " fill="none" stroke-width="1" stroke="rgb(0,0,255)" />
	<polyline points="34.4446,411.313 34.662,411.655 34.8794,411.997 35.1492,412.317 35.4201,412.637 35.6922,412.956 35.9696,413.259 36.2456,413.546 36.5235,413.832 36.8035,414.115 37.081,414.393 37.3478,414.662 37.6171,414.929 37.8825,415.175 38.1511,415.44 38.4226,415.703 38.6972,415.966 38.9712,416.213 39.2313,416.442 39.4937,416.67 39.7583,416.897 40.0284,417.127 40.3013,417.354 40.5765,417.58 40.8537,417.805 41.1332,418.029 41.4095,418.249 41.688,418.468 41.9688,418.687 42.2527,418.893 42.5386,419.097 42.8333,419.314 43.1294,419.529 43.4123,419.735 43.6961,419.939 43.992,420.152 44.2792,420.347 44.5663,420.541 44.8534,420.735 45.1676,420.98 45.4558,421.182 45.7462,421.386 46.0389,421.591 46.3592,421.823 46.6819,422.057 46.976,422.255 47.2847,422.478 47.5948,422.7 47.9063,422.922 48.2476,423.168 48.5905,423.414 48.935,423.661 49.2617,423.876 49.5897,424.092 49.9194,424.331 50.2269,424.536 50.5348,424.744 50.8427,424.953 51.183,425.188 51.5226,425.424 51.8613,425.66 52.1929,425.883 52.5245,426.104 52.8271,426.31 53.1313,426.515 53.4468,426.738 53.7635,426.964 54.086,427.183 54.4147,427.408 54.744,427.633 55.0738,427.858 55.3909,428.067 55.7009,428.279 56.0113,428.49 56.3213,428.694 56.6315,428.898 56.9498,429.107 57.2813,429.329 57.613,429.55 57.9448,429.771 58.2679,429.981 58.5857,430.201 58.9035,430.421 59.2186,430.639 59.5335,430.858 59.8479,431.077 60.168,431.295 60.4878,431.513 60.8073,431.731 61.1264,431.949 61.4443,432.178 61.7617,432.407 62.0786,432.637 62.3873,432.856 62.6955,433.075 62.9977,433.281 63.3039,433.482 63.6097,433.682 63.9152,433.881 64.2159,434.084 64.5384,434.305 64.8604,434.527 65.2056,434.773 65.5499,435.019 65.8582,435.229 66.1677,435.445 66.4765,435.661 66.7847,435.878 67.0923,436.096 67.4457,436.357 67.7986,436.618 68.1513,436.879 68.4734,437.126 68.796,437.372 69.1191,437.617 69.4322,437.837 69.7453,438.06 70.0757,438.302 70.3962,438.525 70.7173,438.748 71.0391,438.973 71.3441,439.19 71.6495,439.407 71.9558,439.627 72.2836,439.886 72.6024,440.116 72.9091,440.335 73.2158,440.558 73.523,440.78 73.8311,441.001 74.1366,441.219 74.4501,441.45 74.7641,441.681 75.0785,441.913 75.3807,442.128 75.6831,442.344 75.9855,442.561 76.2982,442.791 76.6113,443.023 76.9161,443.244 77.2246,443.467 77.5341,443.691 77.8442,443.916 78.1445,444.129 78.4841,444.398 78.8202,444.664 79.1531,444.928 79.4507,445.155 79.7475,445.383 80.044,445.61 80.3522,445.856 80.6602,446.104 80.9967,446.385 81.3022,446.619 81.6074,446.853 81.9122,447.086 82.2278,447.337 82.5426,447.588 82.8565,447.838 83.1533,448.072 83.4657,448.327 83.777,448.582 84.0872,448.837 84.424,449.121 84.7518,449.386 85.0792,449.648 85.382,449.884 85.6876,450.123 85.993,450.36 86.3357,450.626 86.6778,450.892 87.0062,451.142 87.3155,451.371 87.6244,451.598 87.9331,451.825 88.2492,452.059 88.5582,452.279 88.8668,452.499 89.1692,452.713 89.4714,452.926 89.7898,453.149 90.1079,453.372 90.4271,453.595 90.7458,453.817 91.064,454.041 91.3895,454.27 91.7148,454.498 92.0399,454.725 92.3523,454.947 92.7004,455.175 93.0482,455.403 93.4048,455.664 93.7611,455.924 94.0854,456.168 94.3964,456.39 94.7072,456.613 95.0178,456.837 95.3355,457.073 95.6638,457.313 95.9921,457.553 96.2989,457.782 96.6059,458.01 96.908,458.231 97.2246,458.475 97.5413,458.719 97.858,458.964 98.1533,459.185 98.4488,459.405 98.7445,459.625 99.0404,459.846 99.3348,460.054 99.6515,460.296 99.9682,460.539 100.267,460.755 100.566,460.971 100.858,461.186 101.15,461.398 101.442,461.61 101.735,461.82 102.028,462.03 102.326,462.239 102.624,462.446 102.923,462.652 103.236,462.876 103.549,463.1 103.839,463.306 104.128,463.513 104.427,463.747 104.726,463.981 105.017,464.191 105.313,464.403 105.608,464.614 105.903,464.825 106.191,465.034 106.484,465.254 106.776,465.475 107.068,465.695 107.353,465.896 107.638,466.097 107.927,466.307 108.214,466.516 108.5,466.725 108.786,466.933 109.071,467.137 109.361,467.337 109.652,467.536 109.941,467.735 110.226,467.938 110.519,468.149 110.811,468.36 111.102,468.57 111.402,468.793 111.7,469.016 112.004,469.225 112.307,469.445 112.61,469.664 112.912,469.883 113.235,470.113 113.559,470.366 113.882,470.618 114.213,470.864 114.544,471.108 114.884,471.362 115.24,471.636 115.595,471.91 115.947,472.188 116.308,472.465 " fill="none" stroke-width="1" stroke="rgb(0,0,255)" />
	<polyline points="116.308,472.465 117.5,473.5 " fill="none" stroke-width="1" stroke="rgb(0,0,255)" />
	<polyline points="116.308,472.465 116.702,472.376 117.097,472.285 117.497,472.202 117.898,472.118 118.303,472.048 118.71,471.979 119.126,471.936 119.534,471.923 119.94,471.941 120.375,471.954 120.813,471.967 121.24,471.95 121.669,471.93 122.102,471.91 122.512,471.867 122.926,471.824 123.323,471.78 123.723,471.736 124.126,471.691 124.515,471.641 124.907,471.589 125.291,471.539 125.678,471.489 126.069,471.437 126.444,471.381 126.824,471.324 127.202,471.266 127.583,471.207 127.968,471.148 128.338,471.087 128.71,471.025 129.072,470.957 129.438,470.883 129.807,470.809 130.179,470.734 130.543,470.662 130.91,470.59 131.287,470.517 131.666,470.444 132.049,470.369 132.427,470.296 132.807,470.222 133.195,470.154 133.59,470.086 133.988,470.017 134.383,469.943 134.78,469.868 135.18,469.794 135.587,469.725 135.995,469.656 136.397,469.576 136.799,469.496 137.203,469.42 137.608,469.345 138.013,469.268 138.419,469.181 138.825,469.092 139.234,469.011 139.639,468.926 140.044,468.84 140.477,468.759 140.91,468.678 141.334,468.6 141.758,468.521 142.181,468.442 142.639,468.365 143.096,468.286 143.524,468.206 143.953,468.126 144.42,468.042 144.859,467.948 145.277,467.855 145.693,467.762 146.108,467.67 146.542,467.574 146.975,467.479 147.386,467.382 147.796,467.284 148.226,467.187 148.654,467.089 149.081,466.99 149.498,466.885 149.914,466.781 150.357,466.682 150.799,466.583 151.224,466.477 151.648,466.371 152.071,466.265 152.497,466.165 152.922,466.065 153.349,465.95 153.765,465.849 154.181,465.749 154.603,465.647 155.024,465.545 155.44,465.445 155.855,465.345 156.283,465.234 156.711,465.124 157.137,465.013 157.558,464.897 157.978,464.78 158.382,464.67 158.785,464.56 159.187,464.45 159.6,464.342 160.013,464.234 160.421,464.129 160.829,464.025 161.231,463.918 161.634,463.811 162.036,463.703 162.447,463.59 162.857,463.476 163.265,463.366 163.672,463.256 164.079,463.145 164.489,463.034 164.918,462.939 165.349,462.843 165.779,462.747 166.209,462.651 166.627,462.55 167.046,462.45 167.461,462.345 167.875,462.24 168.287,462.128 168.699,462.016 169.114,461.907 169.538,461.806 169.961,461.706 170.404,461.6 170.847,461.494 171.258,461.396 171.669,461.297 172.078,461.197 172.593,461.092 173.108,460.986 173.498,460.874 173.888,460.763 174.299,460.653 174.709,460.542 175.119,460.431 175.505,460.318 175.891,460.205 176.296,460.099 176.7,459.992 177.139,459.892 177.545,459.786 177.95,459.68 178.364,459.568 178.778,459.457 179.191,459.345 179.598,459.232 180.004,459.118 180.399,458.994 180.795,458.88 181.191,458.766 181.591,458.652 181.99,458.537 182.389,458.422 182.788,458.307 183.186,458.193 183.618,458.096 184.049,457.999 184.459,457.891 184.869,457.783 185.289,457.676 185.709,457.57 186.128,457.463 186.55,457.354 186.971,457.244 187.408,457.139 187.845,457.034 188.276,456.939 188.707,456.845 189.138,456.75 189.566,456.654 189.995,456.558 190.412,456.46 190.83,456.363 191.243,456.262 191.658,456.16 192.075,456.058 192.486,455.952 192.916,455.843 193.331,455.739 193.749,455.635 194.172,455.53 194.599,455.438 195.031,455.346 195.469,455.26 195.913,455.173 196.317,455.073 196.724,454.971 197.128,454.866 197.545,454.759 197.966,454.651 198.362,454.539 198.761,454.426 199.161,454.313 199.573,454.196 199.986,454.078 200.381,453.959 200.783,453.842 201.186,453.724 201.602,453.603 202.019,453.482 202.426,453.361 202.834,453.24 203.269,453.106 203.705,452.973 204.114,452.849 204.528,452.728 204.941,452.607 205.347,452.481 205.752,452.355 206.156,452.228 206.574,452.102 206.992,451.976 207.398,451.858 207.803,451.74 208.217,451.614 208.631,451.488 209.044,451.362 209.437,451.238 209.829,451.113 210.243,450.971 210.642,450.842 211.041,450.714 211.446,450.577 211.851,450.44 212.26,450.313 212.67,450.185 213.081,450.055 213.48,449.915 213.88,449.774 214.281,449.628 214.683,449.483 215.085,449.336 215.489,449.197 215.892,449.058 216.292,448.928 216.693,448.797 217.095,448.666 217.51,448.528 217.927,448.391 218.326,448.256 218.726,448.121 219.128,447.986 219.528,447.854 219.93,447.721 220.32,447.59 220.711,447.458 221.104,447.327 221.514,447.198 221.926,447.069 222.311,446.94 222.711,446.817 223.112,446.695 223.541,446.564 223.971,446.435 224.363,446.313 224.755,446.192 225.146,446.071 225.586,445.937 226.003,445.806 226.385,445.681 226.767,445.557 227.151,445.433 227.586,445.303 228.021,445.173 228.414,445.058 228.808,444.944 229.254,444.82 229.701,444.696 230.148,444.573 230.544,444.463 230.94,444.353 231.378,444.234 231.816,444.115 232.218,444.01 232.621,443.906 233.025,443.803 233.461,443.686 233.897,443.569 234.304,443.462 234.711,443.356 235.118,443.251 235.538,443.135 235.957,443.019 236.364,442.9 236.77,442.781 237.175,442.663 237.582,442.556 237.988,442.45 238.414,442.342 238.839,442.235 239.238,442.126 239.636,442.018 240.035,441.912 240.463,441.804 240.889,441.697 241.29,441.59 241.69,441.483 242.089,441.377 242.526,441.268 242.962,441.158 243.371,441.053 243.761,440.942 244.15,440.832 244.587,440.715 245.022,440.599 245.421,440.491 245.819,440.383 246.247,440.267 246.674,440.151 247.1,440.034 247.528,439.935 247.954,439.835 248.382,439.717 248.81,439.598 249.209,439.484 249.609,439.37 250.009,439.256 250.423,439.133 250.837,439.011 251.23,438.888 251.623,438.765 252.017,438.642 252.432,438.522 252.848,438.403 253.249,438.287 253.649,438.172 254.051,438.057 254.45,437.939 254.849,437.822 255.243,437.707 255.637,437.593 256.031,437.479 256.433,437.367 256.836,437.255 257.243,437.141 257.65,437.028 258.075,436.925 258.483,436.815 258.891,436.705 259.305,436.593 259.719,436.481 260.133,436.37 260.534,436.252 260.935,436.135 261.356,436.017 261.871,435.87 262.278,435.756 262.684,435.643 263.092,435.529 263.549,435.413 264.007,435.296 264.413,435.193 264.82,435.09 265.257,434.98 265.673,434.871 266.089,434.763 266.493,434.653 266.897,434.544 267.314,434.436 267.731,434.328 268.15,434.221 268.565,434.116 268.981,434.01 269.403,433.906 269.826,433.802 270.228,433.693 270.63,433.585 271.034,433.476 271.444,433.363 271.855,433.249 272.255,433.14 272.654,433.03 273.053,432.91 273.481,432.786 273.909,432.663 274.309,432.554 274.708,432.445 275.108,432.337 275.533,432.226 275.958,432.115 276.358,432.011 276.757,431.904 277.155,431.796 277.56,431.687 277.963,431.578 278.36,431.471 278.756,431.364 279.152,431.256 279.555,431.147 279.957,431.038 280.352,430.935 280.747,430.833 281.14,430.731 281.539,430.619 281.937,430.506 282.327,430.401 282.716,430.295 283.103,430.19 283.495,430.079 283.885,429.968 284.27,429.853 284.653,429.738 285.033,429.623 285.434,429.519 285.833,429.415 286.223,429.307 286.611,429.2 286.997,429.093 287.403,428.987 287.783,428.86 288.161,428.733 288.549,428.624 288.935,428.516 289.331,428.402 289.724,428.287 290.113,428.172 290.506,428.064 290.896,427.956 291.38,427.872 291.859,427.788 292.315,427.701 292.766,427.613 293.254,427.516 293.737,427.418 294.217,427.317 294.639,427.206 295.059,427.095 295.558,426.998 295.998,426.895 296.404,426.772 296.809,426.648 297.236,426.536 297.663,426.424 298.089,426.313 298.485,426.188 298.881,426.064 299.289,425.938 299.698,425.794 300.106,425.651 300.5,425.5 " fill="none" stroke-width="1" stroke="rgb(0,0,255)" />
	<polyline points="117.5,473.5 117.146,474.125 117.004,474.764 117.094,475.418 117.18,476.068 117.191,476.832 117.259,477.541 117.327,478.252 117.37,479.077 117.433,479.836 117.484,480.694 117.54,481.525 117.596,482.362 117.659,483.226 117.731,484.048 117.816,484.868 117.903,485.688 118.004,486.499 118.06,487.408 118.155,488.203 118.226,489.073 118.327,489.847 118.402,490.717 118.5,491.5 " fill="none" stroke-width="1" stroke="rgb(0,0,255)" />
	<polyline points="114.96,253.023 115.465,253.492 115.971,253.961 116.455,254.373 116.939,254.787 117.423,255.225 117.909,255.666 118.384,256.112 118.83,256.502 119.262,256.898 119.704,257.285 120.149,257.674 120.592,258.084 121.011,258.455 121.446,258.872 121.872,259.212 122.33,259.641 122.791,260.071 123.24,260.522 123.693,260.977 124.158,261.429 124.631,261.873 125.087,262.297 125.594,262.797 126.069,263.246 126.511,263.633 126.954,264.022 127.443,264.471 127.935,264.923 128.343,265.269 128.751,265.615 129.161,265.963 129.609,266.368 130.059,266.775 130.519,267.197 130.949,267.578 131.389,267.967 131.82,268.35 132.285,268.776 132.748,269.201 133.196,269.61 133.621,269.978 134.04,270.346 134.494,270.761 134.945,271.172 135.41,271.58 135.872,271.986 136.342,272.417 136.808,272.841 137.325,273.322 137.836,273.798 138.332,274.269 138.826,274.738 139.258,275.134 139.748,275.573 140.272,276.056 140.778,276.538 141.247,276.985 141.683,277.357 142.119,277.725 142.614,278.17 143.076,278.572 143.551,279.011 143.98,279.388 144.457,279.827 144.903,280.224 145.348,280.63 145.794,281.038 146.266,281.492 146.738,281.946 147.186,282.35 147.647,282.774 148.109,283.2 148.565,283.641 149.025,284.084 149.499,284.51 149.976,284.938 150.435,285.353 150.899,285.773 151.324,286.147 151.783,286.546 152.225,286.927 152.663,287.294 153.102,287.661 153.555,288.063 153.972,288.397 154.406,288.765 154.84,289.133 155.325,289.574 155.809,290.014 156.256,290.401 156.702,290.787 157.19,291.218 157.684,291.668 158.175,292.118 158.625,292.522 159.072,292.924 159.552,293.363 160.029,293.799 160.472,294.205 160.916,294.613 161.401,295.071 161.86,295.487 162.31,295.882 162.781,296.333 163.277,296.827 163.742,297.23 164.206,297.633 164.646,298.005 165.127,298.451 165.638,298.949 166.084,299.318 166.498,299.659 166.911,300 167.397,300.464 167.88,300.926 168.309,301.302 168.736,301.676 169.161,302.049 169.632,302.489 170.1,302.928 170.534,303.327 170.965,303.722 171.415,304.127 171.907,304.598 172.386,305.054 172.815,305.455 173.225,305.799 173.695,306.254 174.157,306.699 174.599,307.112 175.044,307.547 175.484,307.933 175.927,308.37 176.354,308.793 176.829,309.236 177.291,309.662 177.753,310.09 178.214,310.535 178.654,310.965 179.139,311.397 179.603,311.818 180.07,312.227 180.516,312.639 180.959,313.05 181.423,313.471 181.883,313.889 182.336,314.323 182.784,314.752 183.256,315.165 183.723,315.6 184.185,316.029 184.632,316.457 185.078,316.88 185.536,317.315 185.995,317.75 186.457,318.162 186.909,318.581 187.355,319.041 187.797,319.448 188.263,319.863 188.728,320.301 189.2,320.744 189.678,321.174 190.099,321.54 190.57,321.966 191.053,322.41 191.494,322.805 191.932,323.195 192.374,323.625 192.823,324.06 193.257,324.463 193.697,324.871 194.15,325.3 194.568,325.731 194.988,326.164 195.431,326.576 195.875,326.989 196.329,327.427 196.781,327.865 197.215,328.249 197.663,328.669 198.109,329.088 198.56,329.495 199.01,329.901 199.476,330.351 199.941,330.8 200.363,331.158 200.81,331.556 201.293,332.053 201.742,332.443 202.196,332.84 202.672,333.269 203.159,333.709 203.608,334.092 204.058,334.473 204.466,334.798 204.874,335.124 205.378,335.599 205.868,336.06 206.303,336.441 206.732,336.817 207.198,337.251 207.662,337.706 208.125,338.159 208.569,338.58 209.011,339 209.464,339.433 209.914,339.863 210.369,340.303 210.822,340.742 211.238,341.167 211.673,341.573 212.109,341.981 212.583,342.413 213.059,342.846 213.491,343.246 213.924,343.645 214.383,344.067 214.867,344.512 215.346,344.954 215.789,345.386 216.245,345.803 216.695,346.217 217.142,346.628 217.597,347.111 218.027,347.526 218.453,347.899 218.861,348.263 219.315,348.67 219.771,349.078 220.181,349.449 220.626,349.869 221.057,350.271 221.532,350.71 222.008,351.15 222.441,351.565 222.874,351.981 223.331,352.397 223.789,352.814 224.208,353.202 224.663,353.641 225.118,354.08 225.57,354.496 226.02,354.912 226.492,355.374 226.963,355.836 227.43,356.28 227.899,356.725 228.364,357.152 228.826,357.572 229.238,357.941 229.713,358.392 230.189,358.845 230.618,359.222 231.047,359.601 231.459,359.96 231.922,360.408 232.37,360.824 232.81,361.236 233.241,361.62 233.67,362.002 234.127,362.459 234.581,362.896 235.019,363.318 235.464,363.727 235.903,364.131 236.38,364.606 236.85,365.074 237.299,365.498 237.745,365.922 238.157,366.372 238.608,366.845 239.039,367.286 239.482,367.722 239.927,368.16 240.38,368.609 240.835,369.061 241.276,369.508 241.718,369.958 242.155,370.376 242.597,370.799 243.052,371.242 243.494,371.669 243.935,372.096 244.361,372.497 244.785,372.898 245.213,373.339 245.643,373.77 246.103,374.23 246.534,374.641 246.965,375.055 247.406,375.517 247.849,375.982 248.281,376.42 248.714,376.861 249.162,377.322 249.595,377.797 250.092,378.278 250.516,378.697 250.944,379.121 251.372,379.587 251.802,380.057 252.218,380.48 252.638,380.908 253.066,381.351 253.496,381.819 253.934,382.276 254.348,382.708 254.766,383.144 255.194,383.591 255.625,384.062 256.048,384.511 256.459,384.936 256.87,385.368 257.289,385.825 257.705,386.276 258.119,386.727 258.517,387.151 258.914,387.586 259.377,388.085 259.778,388.55 260.175,389.011 260.574,389.459 260.973,389.909 261.389,390.389 261.804,390.868 262.225,391.327 262.648,391.787 263.044,392.228 263.453,392.687 263.854,393.142 264.265,393.593 264.674,394.042 265.026,394.47 265.412,394.918 265.866,395.393 266.255,395.858 266.661,396.307 267.062,396.751 267.429,397.194 267.768,397.689 268.106,398.181 268.478,398.63 268.847,399.073 269.301,399.559 269.75,400.044 270.1,400.461 270.405,400.88 270.687,401.303 270.965,401.724 271.327,402.178 271.607,402.581 271.843,402.998 272.118,403.463 272.397,403.923 272.654,404.412 272.908,404.899 273.157,405.398 272.968,405.892 273.03,406.517 273.246,407.066 273.086,407.611 " fill="none" stroke-width="1" stroke="rgb(0,0,255)" />
	<polyline points="114.96,253.023 112.904,251.09 111.5,250.5 " fill="none" stroke-width="1" stroke="rgb(0,0,255)" />
	<polyline points="273.086,407.611 273.374,407.787 273.663,407.962 273.939,408.105 274.241,408.275 274.543,408.447 274.843,408.621 275.143,408.798 275.431,408.98 275.721,409.145 276.009,409.312 276.292,409.497 276.575,409.684 276.856,409.872 277.138,410.062 277.42,410.257 277.702,410.452 277.985,410.648 278.265,410.83 278.545,411.012 278.841,411.217 279.137,411.421 279.43,411.618 279.723,411.814 280.018,412.01 280.292,412.184 280.566,412.358 280.841,412.534 281.115,412.71 281.396,412.897 281.677,413.086 281.96,413.272 282.235,413.456 282.51,413.64 282.786,413.825 283.062,414.009 283.343,414.197 283.625,414.385 283.908,414.573 284.182,414.752 284.456,414.931 284.726,415.109 284.997,415.286 285.273,415.464 285.549,415.643 285.825,415.821 286.101,415.999 286.369,416.176 286.638,416.352 286.906,416.528 287.181,416.712 287.455,416.897 287.73,417.081 288.001,417.252 288.267,417.424 288.533,417.597 288.798,417.769 289.062,417.941 289.333,418.122 289.602,418.303 289.871,418.484 290.135,418.659 290.397,418.833 290.659,419.007 290.921,419.18 291.188,419.353 291.454,419.526 291.719,419.698 291.984,419.869 292.243,420.041 292.51,420.218 292.776,420.394 293.041,420.569 293.31,420.751 293.578,420.931 293.843,421.106 294.107,421.279 294.368,421.451 294.628,421.621 294.887,421.79 295.151,421.962 295.426,422.14 295.7,422.318 295.972,422.494 296.243,422.672 296.513,422.849 296.782,423.025 297.047,423.198 297.315,423.377 297.583,423.553 297.85,423.729 298.116,423.903 298.378,424.076 298.645,424.255 298.912,424.434 299.181,424.611 299.449,424.788 299.717,424.964 299.982,425.142 300.241,425.321 300.5,425.5 " fill="none" stroke-width="1" stroke="rgb(0,0,255)" />
	<polyline points="280.829,217.256 280.545,217.697 280.243,218.127 279.87,218.392 279.517,218.637 279.161,218.876 278.839,219.117 278.488,219.317 278.134,219.511 277.801,219.688 277.466,219.864 277.129,220.036 276.772,220.231 276.409,220.409 276.032,220.561 275.674,220.679 275.314,220.799 274.954,220.918 274.571,221.026 274.196,221.14 273.819,221.253 273.448,221.355 273.076,221.456 272.707,221.572 272.336,221.687 271.963,221.802 271.592,221.903 271.218,222.003 270.837,222.107 270.452,222.212 270.065,222.316 269.67,222.423 269.274,222.53 268.876,222.636 268.475,222.741 268.071,222.846 267.65,222.961 267.227,223.065 266.803,223.168 266.375,223.264 265.947,223.36 265.5,223.468 265.053,223.576 264.616,223.681 264.181,223.787 263.712,223.89 263.242,223.992 262.805,224.107 262.364,224.212 261.923,224.317 261.502,224.428 261.081,224.539 260.634,224.647 260.186,224.752 259.773,224.861 259.36,224.97 258.944,225.076 258.492,225.185 258.038,225.292 257.6,225.382 257.161,225.47 256.706,225.547 256.249,225.622 255.791,225.697 255.323,225.77 254.854,225.844 254.401,225.912 253.947,225.981 253.501,226.072 253.054,226.162 252.625,226.237 252.195,226.311 251.736,226.392 251.276,226.474 250.816,226.555 250.396,226.622 249.976,226.689 249.522,226.764 249.066,226.839 248.653,226.905 248.24,226.97 247.83,227.033 247.39,227.107 246.951,227.182 246.54,227.242 246.131,227.302 245.69,227.369 245.249,227.437 244.81,227.505 244.39,227.565 243.971,227.625 243.519,227.689 243.068,227.754 242.634,227.815 242.2,227.877 241.746,227.941 241.293,228.007 240.835,228.092 240.397,228.181 239.958,228.271 239.514,228.35 239.07,228.43 238.631,228.512 238.191,228.594 237.757,228.678 237.322,228.763 236.888,228.848 236.456,228.937 236.025,229.026 235.588,229.1 235.151,229.174 234.712,229.244 234.273,229.313 233.834,229.382 233.397,229.456 232.959,229.529 232.522,229.599 232.085,229.669 231.646,229.741 231.206,229.813 230.758,229.882 230.309,229.951 229.861,230.02 229.419,230.105 228.976,230.189 228.539,230.278 228.1,230.366 227.651,230.451 227.202,230.535 226.753,230.626 226.302,230.717 225.849,230.806 225.39,230.888 224.93,230.97 224.465,231.057 224,231.145 223.55,231.224 223.098,231.304 222.665,231.389 222.23,231.475 221.793,231.561 221.356,231.639 220.916,231.718 220.484,231.8 220.049,231.881 219.622,231.967 219.191,232.057 218.762,232.149 218.33,232.242 217.895,232.336 217.466,232.426 217.035,232.516 216.597,232.6 216.156,232.685 215.721,232.769 215.285,232.853 214.846,232.937 214.398,233.016 213.948,233.095 213.51,233.18 213.07,233.266 212.632,233.348 212.193,233.431 211.749,233.517 211.303,233.604 210.856,233.691 210.422,233.776 209.988,233.861 209.533,233.948 209.077,234.035 208.646,234.119 208.214,234.203 207.774,234.298 207.334,234.392 206.894,234.486 206.466,234.573 206.039,234.659 205.598,234.75 205.158,234.84 204.732,234.929 204.308,235.016 203.884,235.103 203.441,235.192 203.001,235.279 202.568,235.359 202.137,235.437 201.684,235.512 201.233,235.587 200.784,235.66 200.341,235.73 199.899,235.8 199.435,235.867 198.973,235.932 198.509,235.999 198.065,236.067 197.622,236.138 197.181,236.208 196.738,236.276 196.297,236.343 195.857,236.41 195.404,236.475 194.952,236.54 194.503,236.597 194.056,236.655 193.588,236.717 193.121,236.78 192.676,236.838 192.232,236.896 191.79,236.954 191.326,237.024 190.874,237.093 190.441,237.158 190.01,237.222 189.561,237.288 189.113,237.353 188.681,237.407 188.25,237.46 187.819,237.514 187.363,237.568 186.906,237.623 186.46,237.666 186.011,237.71 185.54,237.755 185.066,237.801 184.607,237.845 184.146,237.89 183.689,237.944 183.231,237.999 182.779,238.07 182.337,238.132 181.893,238.194 181.445,238.258 180.996,238.322 180.555,238.379 180.113,238.436 179.658,238.488 179.203,238.541 178.753,238.596 178.303,238.652 177.853,238.707 177.403,238.762 176.952,238.817 176.497,238.878 176.041,238.94 175.596,239.003 175.152,239.064 174.702,239.13 174.251,239.196 173.801,239.263 173.359,239.333 172.918,239.404 172.466,239.483 172.015,239.563 171.572,239.644 171.129,239.725 170.68,239.809 170.231,239.895 169.782,239.98 169.328,240.059 168.874,240.139 168.41,240.214 167.947,240.29 167.486,240.368 167.026,240.447 166.566,240.524 166.107,240.601 165.659,240.679 165.212,240.758 164.748,240.833 164.285,240.908 163.822,240.983 163.365,241.054 162.908,241.125 162.454,241.196 162.001,241.268 161.551,241.338 161.102,241.407 160.641,241.48 160.18,241.552 159.731,241.626 159.282,241.7 158.834,241.774 158.379,241.856 157.924,241.938 157.483,242.024 157.041,242.097 156.596,242.18 156.151,242.261 155.707,242.338 155.264,242.414 154.823,242.491 154.377,242.569 153.932,242.646 153.478,242.719 153.024,242.792 152.581,242.869 152.139,242.946 151.618,242.997 151.177,243.064 150.739,243.129 150.3,243.195 149.861,243.26 149.411,243.323 148.96,243.386 148.514,243.449 148.067,243.511 147.616,243.578 147.165,243.644 146.728,243.715 146.291,243.785 145.855,243.855 145.403,243.931 144.952,244.007 144.492,244.067 144.033,244.127 143.572,244.19 143.112,244.252 142.658,244.315 142.205,244.377 141.748,244.446 141.292,244.515 140.836,244.584 140.396,244.656 139.956,244.728 139.514,244.808 139.072,244.889 138.637,244.974 138.213,245.063 137.769,245.147 137.325,245.23 136.88,245.314 136.447,245.391 136.013,245.469 135.575,245.546 135.135,245.623 134.701,245.702 134.268,245.781 133.834,245.861 133.402,245.946 132.97,246.031 132.512,246.107 132.054,246.183 131.623,246.256 131.192,246.329 130.755,246.407 130.318,246.485 129.881,246.563 129.465,246.641 129.051,246.72 128.631,246.8 128.212,246.881 127.796,246.961 127.382,247.044 126.969,247.126 126.552,247.203 126.137,247.281 125.729,247.359 125.323,247.436 124.918,247.513 124.514,247.59 124.111,247.665 123.707,247.742 123.305,247.818 122.904,247.893 122.505,247.969 122.098,248.047 121.688,248.124 121.281,248.201 120.876,248.278 120.459,248.364 120.045,248.45 119.633,248.544 119.222,248.637 118.814,248.729 118.381,248.823 117.951,248.916 117.54,249.007 117.122,249.097 116.686,249.18 116.253,249.262 115.823,249.342 115.398,249.428 114.976,249.514 114.53,249.587 114.086,249.661 113.65,249.742 113.218,249.828 112.783,249.951 112.355,250.134 111.926,250.315 111.5,250.5 " fill="none" stroke-width="1" stroke="rgb(0,0,255)" />
	<polyline points="280.829,217.256 281.259,217.327 281.69,217.4 282.12,217.472 282.547,217.543 282.974,217.614 283.396,217.683 283.819,217.753 284.266,217.782 284.714,217.812 285.162,217.843 285.573,217.904 285.984,217.965 286.427,217.971 286.872,217.979 287.311,218.009 287.753,218.036 288.196,218.065 288.643,218.094 289.091,218.123 289.528,218.162 289.966,218.202 290.414,218.233 290.863,218.266 291.295,218.309 291.728,218.352 292.161,218.396 292.605,218.434 293.049,218.472 293.478,218.517 293.908,218.563 294.341,218.606 294.776,218.65 295.212,218.695 295.629,218.745 296.047,218.796 296.472,218.845 296.898,218.894 297.304,218.944 297.71,218.995 298.135,219.049 298.564,219.101 298.992,219.154 299.414,219.21 299.836,219.266 300.251,219.326 300.667,219.386 301.082,219.447 301.5,219.5 " fill="none" stroke-width="1" stroke="rgb(0,0,255)" />
	<polyline points="148.5,259.5 148.963,259.494 149.412,259.474 149.861,259.455 150.305,259.44 150.749,259.426 151.194,259.411 151.618,259.384 152.042,259.357 152.475,259.335 152.908,259.312 153.325,259.284 153.744,259.255 154.162,259.225 154.592,259.196 155.022,259.166 155.441,259.134 155.861,259.101 156.295,259.066 156.73,259.03 157.167,258.993 157.601,258.957 158.036,258.92 158.481,258.885 158.928,258.848 159.37,258.812 159.815,258.776 160.259,258.734 160.705,258.69 161.155,258.647 161.585,258.602 162.018,258.557 162.464,258.506 162.912,258.454 163.334,258.402 163.758,258.35 164.185,258.297 164.632,258.238 165.08,258.178 165.494,258.114 165.911,258.049 166.36,257.987 166.817,257.922 167.234,257.86 167.653,257.796 168.073,257.733 168.51,257.665 168.948,257.596 169.374,257.532 169.801,257.468 170.247,257.404 170.694,257.34 171.14,257.275 171.58,257.211 172.019,257.147 172.471,257.082 172.923,257.018 173.367,256.958 173.81,256.897 174.264,256.832 174.717,256.767 175.168,256.702 175.613,256.64 176.057,256.578 176.508,256.514 176.957,256.451 177.403,256.384 177.847,256.316 178.298,256.252 178.746,256.188 179.192,256.123 179.636,256.062 180.079,256.002 180.547,255.943 181.013,255.884 181.462,255.825 181.911,255.767 182.363,255.71 182.813,255.653 183.253,255.595 183.691,255.537 184.128,255.479 184.574,255.423 185.018,255.368 185.459,255.311 185.898,255.255 186.35,255.202 186.801,255.149 187.253,255.096 187.703,255.042 188.153,254.988 188.571,254.912 188.989,254.837 189.409,254.765 189.829,254.693 190.242,254.616 190.654,254.54 191.066,254.464 191.488,254.393 191.911,254.323 192.327,254.247 192.744,254.172 193.16,254.096 193.588,254.025 194.067,253.97 194.53,253.919 194.996,253.869 195.51,253.817 196.028,253.765 196.489,253.712 196.954,253.659 197.423,253.594 197.897,253.529 198.323,253.459 198.753,253.389 199.188,253.318 199.628,253.241 200.073,253.163 200.482,253.086 200.895,253.009 201.331,252.936 201.771,252.862 202.216,252.788 202.633,252.706 203.054,252.623 203.478,252.539 203.906,252.454 204.318,252.366 204.733,252.278 205.151,252.189 205.576,252.099 206.003,252.008 206.423,251.918 206.844,251.827 207.277,251.73 207.71,251.634 208.143,251.538 208.567,251.443 208.991,251.349 209.429,251.26 209.866,251.171 210.299,251.081 210.731,250.991 211.16,250.904 211.594,250.821 212.027,250.739 212.463,250.654 212.896,250.569 213.331,250.487 213.762,250.404 214.19,250.322 214.622,250.236 215.051,250.15 215.482,250.068 215.909,249.986 216.364,249.9 216.813,249.815 217.244,249.732 217.67,249.65 218.09,249.569 218.563,249.485 219.03,249.401 219.467,249.324 219.897,249.246 220.428,249.174 220.952,249.103 221.402,249.028 221.851,248.956 222.308,248.884 222.763,248.812 223.249,248.744 223.736,248.676 224.225,248.608 224.655,248.531 225.086,248.453 225.547,248.372 226.01,248.29 226.423,248.203 226.837,248.116 227.279,248.023 227.75,247.929 228.221,247.834 228.636,247.74 229.052,247.646 229.507,247.555 229.961,247.464 230.366,247.373 230.768,247.283 231.239,247.216 231.715,247.149 232.2,247.082 232.649,247.004 233.084,246.922 233.485,246.845 233.888,246.768 234.377,246.69 234.868,246.611 235.268,246.532 235.669,246.453 236.073,246.374 236.541,246.301 237.013,246.227 237.42,246.149 237.829,246.07 238.28,245.994 238.739,245.918 239.203,245.841 239.619,245.754 240.038,245.667 240.476,245.582 240.916,245.497 241.327,245.408 241.739,245.319 242.152,245.23 242.58,245.143 243.008,245.056 243.431,244.979 243.844,244.898 244.275,244.82 244.707,244.742 245.139,244.665 245.569,244.59 245.999,244.516 246.435,244.441 246.87,244.366 247.304,244.291 247.737,244.216 248.168,244.141 248.609,244.067 249.047,243.993 249.499,243.925 249.949,243.858 250.404,243.791 250.856,243.724 251.291,243.651 251.724,243.579 252.154,243.508 252.599,243.437 253.042,243.367 253.476,243.299 253.909,243.231 254.372,243.163 254.832,243.094 255.287,243.03 255.707,242.948 256.126,242.867 256.559,242.786 256.992,242.706 257.441,242.634 257.889,242.562 258.335,242.494 258.782,242.426 259.244,242.364 259.707,242.302 260.17,242.241 260.611,242.179 261.053,242.118 261.505,242.054 261.957,241.99 262.398,241.926 262.837,241.863 263.288,241.8 263.737,241.738 264.184,241.676 264.609,241.609 265.032,241.543 265.48,241.48 265.926,241.416 266.355,241.353 266.782,241.29 267.277,241.256 267.771,241.222 268.246,241.176 268.721,241.13 269.195,241.084 269.656,241.032 270.117,240.98 270.563,240.93 271.007,240.88 271.448,240.83 271.89,240.78 272.34,240.728 272.791,240.676 273.221,240.618 273.65,240.559 274.08,240.501 274.53,240.446 274.98,240.391 275.413,240.336 275.845,240.282 276.296,240.236 276.744,240.189 277.191,240.143 277.625,240.093 278.058,240.043 278.508,239.996 278.965,239.933 279.387,239.855 279.807,239.776 280.255,239.711 280.701,239.647 281.146,239.582 281.583,239.525 282.018,239.468 282.517,239.427 283.016,239.386 283.438,239.317 283.86,239.247 284.315,239.182 284.77,239.116 285.225,239.05 285.655,238.982 286.091,238.913 286.556,238.836 287.021,238.759 287.453,238.688 287.886,238.617 288.339,238.539 288.791,238.461 289.221,238.389 289.65,238.318 290.08,238.246 290.517,238.166 290.954,238.086 291.382,238.012 291.846,237.954 292.335,237.881 292.824,237.807 293.282,237.741 293.74,237.675 294.199,237.61 294.654,237.536 295.109,237.462 295.564,237.388 296.02,237.314 296.453,237.237 296.886,237.161 297.333,237.084 297.78,237.007 298.197,236.913 298.595,236.825 298.992,236.738 299.403,236.65 299.813,236.561 300.223,236.468 300.632,236.375 301.04,236.282 301.442,236.192 301.844,236.101 302.276,236.012 302.713,235.929 303.149,235.846 303.576,235.752 304.002,235.659 304.462,235.569 304.92,235.479 305.344,235.385 305.768,235.291 306.238,235.212 306.707,235.133 307.175,235.056 307.596,234.971 307.996,234.859 308.445,234.756 308.892,234.654 309.31,234.557 309.726,234.46 310.14,234.363 310.603,234.295 311.064,234.227 311.508,234.147 311.951,234.066 312.394,234.02 312.852,233.962 313.31,233.909 313.766,233.857 314.222,233.805 314.681,233.74 315.14,233.675 315.595,233.62 316.048,233.565 316.5,233.5 " fill="none" stroke-width="1" stroke="rgb(0,0,255)" />
	<polyline points="320.988,232.19 320.853,232.226 320.717,232.262 320.582,232.298 320.447,232.334 320.312,232.371 320.176,232.408 320.041,232.445 319.901,232.484 319.761,232.523 319.622,232.562 319.482,232.601 319.341,232.64 319.201,232.68 319.06,232.719 318.914,232.763 318.767,232.806 318.62,232.85 318.473,232.894 318.325,232.938 318.178,232.982 318.028,233.028 317.876,233.074 317.725,233.121 317.572,233.167 317.42,233.214 317.268,233.261 317.115,233.308 316.963,233.355 316.808,233.403 316.654,233.451 316.5,233.5 " fill="none" stroke-width="1" stroke="rgb(0,0,255)" />
	<polyline points="148.5,259.5 148.924,259.881 149.348,260.306 149.776,260.729 150.208,261.152 150.656,261.588 151.11,262.024 151.595,262.486 152.086,262.949 152.604,263.426 153.13,263.908 153.678,264.397 154.237,264.893 154.763,265.301 155.286,265.716 155.818,266.14 156.312,266.531 156.813,266.927 157.264,267.269 157.717,267.613 158.173,267.961 158.609,268.289 159.046,268.618 159.534,269.006 159.972,269.343 160.421,269.699 160.87,270.057 161.308,270.395 161.746,270.734 162.183,271.073 162.614,271.413 163.043,271.754 163.53,272.168 163.959,272.495 164.361,272.801 164.76,273.106 165.319,273.627 165.879,274.15 166.315,274.504 166.766,274.87 167.215,275.214 167.829,275.821 168.295,276.232 168.75,276.632 169.198,277.023 169.725,277.533 170.239,278.031 170.688,278.43 171.139,278.831 171.612,279.249 172.085,279.668 172.538,280.052 173.048,280.523 173.526,280.982 174.002,281.425 174.5,281.88 175.006,282.335 175.468,282.759 175.931,283.186 176.42,283.66 176.909,284.137 177.326,284.514 177.744,284.891 178.183,285.33 178.62,285.756 179.058,286.184 179.494,286.595 179.93,287.006 180.372,287.45 180.815,287.893 181.26,288.344 181.706,288.795 182.124,289.231 182.559,289.688 182.994,290.145 183.377,290.578 183.758,291.011 184.165,291.448 184.577,291.901 185.031,292.361 185.49,292.848 185.939,293.325 186.414,293.819 186.871,294.257 187.322,294.666 187.771,295.075 188.262,295.537 188.752,295.997 189.218,296.432 189.659,296.832 190.128,297.224 190.609,297.66 191.094,298.099 191.545,298.507 192.001,298.92 192.466,299.333 192.936,299.751 193.373,300.132 193.834,300.546 194.336,300.995 194.784,301.395 195.259,301.816 195.744,302.253 196.232,302.69 196.707,303.089 197.151,303.482 197.613,303.88 198.109,304.346 198.58,304.749 199.05,305.15 199.511,305.556 199.971,305.962 200.459,306.413 200.947,306.864 201.432,307.306 201.919,307.748 202.381,308.177 202.858,308.617 203.295,308.99 203.768,309.421 204.25,309.877 204.724,310.318 205.196,310.755 205.638,311.132 206.099,311.544 206.584,311.997 207.053,312.445 207.498,312.842 207.998,313.295 208.49,313.731 208.975,314.163 209.418,314.571 209.854,314.974 210.358,315.45 210.857,315.919 211.311,316.355 211.762,316.788 212.212,317.213 212.703,317.679 213.193,318.144 213.619,318.585 214.045,319.026 214.544,319.48 215.043,319.935 215.467,320.372 215.886,320.81 216.365,321.261 216.845,321.714 217.304,322.141 217.744,322.559 218.189,322.983 218.641,323.413 219.101,323.852 219.546,324.288 219.999,324.734 220.457,325.153 220.949,325.61 221.393,325.998 221.871,326.462 222.323,326.865 222.797,327.285 223.221,327.646 223.642,328.004 224.101,328.421 224.562,328.839 225.046,329.298 225.497,329.704 225.945,330.107 226.42,330.574 226.891,331.037 227.337,331.5 227.778,331.961 228.201,332.406 228.658,332.85 229.121,333.339 229.58,333.808 230,334.235 230.445,334.649 230.891,335.067 231.341,335.514 231.794,335.961 232.269,336.428 232.746,336.898 233.166,337.346 233.569,337.771 234.054,338.265 234.528,338.734 235.007,339.209 235.451,339.675 235.899,340.15 236.337,340.584 236.782,341.025 237.214,341.426 237.695,341.922 238.176,342.389 238.61,342.823 239.043,343.233 239.511,343.705 239.981,344.178 240.417,344.614 240.853,345.049 241.341,345.527 241.83,346.004 242.259,346.395 242.687,346.785 243.112,347.172 243.659,347.715 244.195,348.245 244.591,348.593 244.987,348.939 245.525,349.458 246.064,349.976 246.479,350.368 246.898,350.762 247.362,351.235 247.857,351.708 248.3,352.11 248.719,352.527 249.143,352.948 249.624,353.393 250.109,353.841 250.553,354.291 250.999,354.744 251.473,355.193 251.909,355.584 252.366,355.99 252.856,356.445 253.36,356.927 253.8,357.325 254.25,357.714 254.701,358.104 255.159,358.506 255.684,359.01 256.124,359.408 256.588,359.833 257.057,360.273 257.541,360.741 258.019,361.204 258.467,361.644 258.911,362.08 259.369,362.506 259.821,362.927 260.262,363.386 260.696,363.836 261.192,364.316 261.675,364.771 262.145,365.215 262.576,365.662 263.012,366.116 263.507,366.58 264.004,367.047 264.449,367.482 264.898,367.922 265.369,368.356 265.844,368.791 266.286,369.182 266.728,369.594 267.167,370.003 267.646,370.466 268.119,370.922 268.57,371.351 269.016,371.775 269.512,372.261 270.006,372.745 270.46,373.175 270.905,373.599 271.333,374.079 271.849,374.563 272.308,375.004 272.75,375.413 273.194,375.826 273.687,376.272 274.183,376.72 274.619,377.137 275.061,377.556 275.528,378.006 275.965,378.401 276.399,378.824 276.833,379.238 277.281,379.69 277.73,380.143 278.166,380.563 278.587,380.998 279.029,381.409 279.492,381.877 279.916,382.288 280.375,382.743 280.835,383.201 281.314,383.68 281.796,384.163 282.247,384.597 282.701,385.034 283.144,385.462 283.622,385.941 284.036,386.37 284.481,386.807 284.943,387.243 285.43,387.695 285.921,388.153 286.385,388.601 286.852,389.054 287.273,389.412 287.694,389.77 288.114,390.128 288.589,390.571 289.058,391.008 289.483,391.385 289.912,391.764 290.412,392.228 290.934,392.732 291.358,393.141 291.798,393.558 292.247,393.985 292.744,394.492 293.235,394.991 293.67,395.425 294.102,395.855 294.58,396.34 295.057,396.823 295.489,397.266 295.922,397.711 296.324,398.119 296.749,398.57 297.175,399.022 297.622,399.475 298.071,399.929 298.472,400.352 298.873,400.776 299.273,401.176 299.742,401.641 300.209,402.103 300.623,402.509 301.036,402.913 301.509,403.384 301.981,403.855 302.433,404.295 302.885,404.735 303.296,405.161 303.758,405.615 304.221,406.068 304.703,406.545 305.186,407.025 305.625,407.464 306.067,407.907 306.543,408.367 307.024,408.834 307.432,409.252 307.843,409.676 308.284,410.124 308.719,410.559 309.158,410.999 309.566,411.428 309.977,411.86 310.407,412.282 310.838,412.706 311.292,413.147 311.712,413.588 312.132,414.029 312.567,414.437 313.002,414.845 313.463,415.316 313.923,415.784 314.346,416.195 314.817,416.653 315.282,417.077 315.741,417.54 316.198,418.001 316.642,418.453 317.084,418.903 317.531,419.356 317.977,419.807 318.385,420.236 318.79,420.663 319.279,421.16 319.754,421.646 320.223,422.125 320.613,422.54 321.009,422.961 321.532,423.477 322.058,423.995 322.508,424.426 322.96,424.855 323.465,425.321 323.969,425.788 324.389,426.174 324.811,426.551 325.258,426.95 325.7,427.345 326.141,427.74 326.551,428.116 326.978,428.501 327.455,428.932 327.887,429.305 328.318,429.676 328.756,430.054 329.239,430.485 329.768,430.982 330.201,431.33 330.677,431.73 331.151,432.127 331.651,432.631 332.149,433.133 332.604,433.58 333.057,434.027 333.5,434.5 " fill="none" stroke-width="1" stroke="rgb(0,0,255)" />
	<polyline points="27.5,427.5 27.3925,426.818 27.3026,426.129 27.1969,425.472 27.0907,424.813 26.9975,424.14 26.8971,423.468 26.7967,422.797 26.7129,422.12 26.6196,421.476 26.5257,420.829 26.4477,420.156 26.3671,419.502 26.2865,418.849 26.2169,418.168 26.1482,417.494 26.0799,416.823 26.013,416.158 25.9505,415.482 25.8894,414.819 25.8601,414.118 25.7909,413.482 25.7226,412.853 25.6801,412.181 25.6174,411.54 25.5548,410.9 25.5289,410.203 25.5,409.5 " fill="none" stroke-width="1" stroke="rgb(0,0,255)" />
	<polyline points="27.5,427.5 29.3598,428.094 31.1825,429.324 " fill="none" stroke-width="1" stroke="rgb(0,0,255)" />
	<polyline points="31.1825,429.324 31.5079,429.574 31.8333,429.824 32.1588,430.074 32.4721,430.314 32.7856,430.555 33.0995,430.796 33.41,431.029 33.7107,431.255 34.0116,431.481 34.3255,431.728 34.6403,431.976 34.9519,432.213 35.246,432.431 35.5406,432.65 35.8357,432.87 36.1313,433.091 36.4471,433.332 36.7643,433.571 37.0827,433.811 37.3749,434.025 37.6688,434.242 37.9637,434.458 38.2987,434.715 38.635,434.971 38.9722,435.255 39.2723,435.476 39.5737,435.697 39.8766,435.917 40.198,436.155 40.5211,436.394 40.846,436.635 41.1592,436.864 41.4733,437.094 41.7769,437.309 42.0809,437.524 42.4203,437.779 42.7608,438.035 43.0694,438.253 43.3894,438.485 43.7105,438.718 44.0327,438.953 44.3645,439.191 44.6975,439.429 45.0317,439.669 45.3326,439.889 45.6346,440.109 45.9444,440.325 46.2575,440.54 46.5715,440.756 46.8863,440.972 47.187,441.188 47.4886,441.404 47.7909,441.622 48.094,441.839 48.4008,442.05 48.7225,442.272 49.0447,442.494 49.3473,442.693 49.6504,442.892 49.9537,443.091 50.2634,443.295 50.5733,443.499 50.8835,443.702 51.1813,443.902 51.4917,444.112 51.8019,444.323 52.1119,444.534 52.4557,444.78 52.7992,445.026 53.1128,445.235 53.4158,445.44 53.7182,445.645 54.0201,445.848 54.3297,446.055 54.6654,446.287 54.9998,446.518 55.3247,446.742 55.6485,446.966 55.9554,447.168 56.2647,447.379 56.5727,447.59 56.8793,447.8 57.1888,448.004 57.5305,448.244 57.8707,448.483 58.1888,448.703 58.5056,448.922 58.8157,449.132 59.1244,449.343 59.4473,449.556 59.7689,449.769 60.0894,449.981 60.4029,450.207 60.7154,450.432 61.0273,450.656 61.3832,450.912 61.7137,451.149 62.0438,451.386 62.376,451.633 62.7125,451.884 63.0235,452.119 63.3606,452.369 63.6929,452.617 64.0236,452.865 64.3164,453.086 64.637,453.33 64.9579,453.574 65.2606,453.792 65.5635,454.011 65.8616,454.234 66.1465,454.452 66.4308,454.669 66.7145,454.886 67.0275,455.118 67.332,455.329 67.6381,455.541 67.9456,455.755 68.2736,456 68.5589,456.213 68.8449,456.425 69.1316,456.637 69.4227,456.85 69.7141,457.062 70.0447,457.277 70.3788,457.535 70.7129,457.793 71.0469,458.049 71.3356,458.263 71.6238,458.477 71.9114,458.692 72.2009,458.906 72.5184,459.158 72.8354,459.41 73.1516,459.661 73.4724,459.924 73.7584,460.142 74.0433,460.36 74.3445,460.59 74.6449,460.82 74.9446,461.049 75.2631,461.295 75.581,461.541 75.8984,461.786 76.2127,462.028 76.5206,462.268 76.8286,462.508 77.1368,462.748 77.4316,462.981 77.7471,463.21 78.0633,463.439 78.3915,463.686 78.7208,463.934 79.0618,464.213 79.37,464.449 79.6793,464.687 79.9898,464.927 80.3068,465.161 80.6254,465.397 80.9456,465.633 81.2553,465.86 81.5667,466.088 81.8713,466.305 82.1783,466.534 82.4869,466.763 82.7972,466.994 83.1026,467.215 83.4113,467.439 83.7214,467.665 84.0328,467.891 84.3394,468.117 84.6471,468.343 84.9559,468.57 85.2663,468.793 85.5777,469.017 85.8953,469.24 86.2095,469.459 86.5243,469.679 86.8394,469.9 87.1509,470.118 87.4648,470.333 87.7792,470.547 88.0939,470.76 88.407,470.975 88.7324,471.199 89.0581,471.423 89.3885,471.649 89.7192,471.876 90.0503,472.104 90.3722,472.337 90.695,472.569 91.0188,472.799 91.3293,473.005 91.6394,473.202 91.9502,473.4 92.2951,473.645 92.6409,473.891 92.9687,474.127 93.279,474.343 93.5896,474.559 93.9005,474.775 94.2321,475.026 94.5539,475.255 94.8762,475.484 95.1748,475.675 95.4737,475.866 95.7729,476.058 96.0822,476.269 96.4154,476.517 96.7489,476.765 97.0827,477.015 97.3807,477.211 97.6787,477.407 97.9766,477.605 98.2872,477.825 98.5977,478.045 98.928,478.289 99.2395,478.511 99.5505,478.734 99.8613,478.958 100.17,479.185 100.479,479.412 100.787,479.637 101.095,479.861 101.392,480.064 101.697,480.275 102.002,480.484 102.334,480.732 102.665,480.979 102.967,481.192 103.268,481.404 103.568,481.616 103.866,481.827 104.163,482.034 104.469,482.256 104.773,482.476 105.076,482.695 105.373,482.91 105.668,483.122 105.962,483.333 106.256,483.54 106.548,483.746 106.838,483.949 107.124,484.156 107.417,484.378 107.708,484.597 107.994,484.812 108.271,485.012 108.561,485.218 108.845,485.421 109.126,485.621 109.406,485.823 109.68,486.021 109.956,486.226 110.222,486.422 110.484,486.613 110.74,486.798 110.993,486.978 111.274,487.177 111.549,487.371 111.819,487.56 112.085,487.743 112.341,487.915 112.592,488.082 112.839,488.245 113.081,488.404 113.333,488.565 113.58,488.721 113.824,488.873 114.064,489.022 114.303,489.17 114.538,489.315 114.77,489.457 114.998,489.596 115.232,489.73 115.464,489.86 115.692,489.988 115.917,490.114 116.14,490.238 116.361,490.361 116.58,490.482 116.798,490.601 117.013,490.719 117.229,490.834 117.443,490.948 117.655,491.059 117.866,491.169 118.077,491.278 118.289,491.389 118.5,491.5 " fill="none" stroke-width="1" stroke="rgb(0,0,255)" />
	<polyline points="118.5,491.5 119.013,491.421 119.513,491.348 120.015,491.276 120.491,491.18 120.969,491.084 121.424,490.992 121.89,490.897 122.343,490.805 122.799,490.711 123.227,490.615 123.658,490.518 124.089,490.42 124.5,490.324 124.912,490.228 125.312,490.125 125.714,490.021 126.104,489.917 126.495,489.814 126.887,489.711 127.263,489.607 127.641,489.502 128.02,489.397 128.402,489.295 128.785,489.193 129.169,489.09 129.547,488.984 129.934,488.872 130.32,488.772 130.706,488.671 131.095,488.57 131.49,488.462 131.886,488.353 132.279,488.257 132.674,488.16 133.071,488.063 133.486,487.956 133.883,487.851 134.273,487.745 134.665,487.638 135.058,487.532 135.452,487.419 135.848,487.306 136.235,487.196 136.624,487.085 137.014,486.973 137.42,486.867 137.827,486.76 138.222,486.651 138.617,486.542 139.013,486.432 139.412,486.323 139.811,486.213 140.207,486.101 140.603,485.989 140.995,485.873 141.386,485.757 141.777,485.64 142.168,485.524 142.563,485.407 142.957,485.291 143.349,485.176 143.741,485.062 144.132,484.948 144.533,484.838 144.934,484.727 145.331,484.621 145.728,484.515 146.124,484.409 146.533,484.301 146.941,484.194 147.343,484.091 147.744,483.987 148.135,483.872 148.543,483.758 148.95,483.645 149.351,483.533 149.75,483.421 150.149,483.309 150.573,483.202 150.995,483.095 151.397,482.984 151.797,482.881 152.203,482.775 152.611,482.663 153.018,482.553 153.411,482.448 153.804,482.345 154.202,482.232 154.599,482.119 154.996,482.006 155.391,481.902 155.787,481.797 156.181,481.693 156.591,481.585 157,481.477 157.397,481.379 157.794,481.282 158.19,481.185 158.605,481.08 159.019,480.976 159.414,480.875 159.808,480.775 160.217,480.668 160.625,480.563 161.031,480.458 161.424,480.353 161.815,480.249 162.218,480.136 162.621,480.024 163.029,479.92 163.418,479.823 163.806,479.726 164.218,479.628 164.628,479.529 165.038,479.431 165.434,479.336 165.829,479.242 166.238,479.146 166.647,479.049 167.055,478.953 167.461,478.85 167.867,478.747 168.283,478.643 168.699,478.539 169.116,478.435 169.535,478.331 169.954,478.226 170.384,478.112 170.814,477.998 171.24,477.898 171.667,477.798 172.095,477.696 172.506,477.586 172.919,477.476 173.318,477.36 173.718,477.243 174.12,477.125 174.521,477.008 174.924,476.884 175.318,476.755 175.714,476.626 176.111,476.495 176.506,476.367 176.902,476.239 177.288,476.107 177.676,475.975 178.064,475.855 178.458,475.729 178.853,475.602 179.235,475.48 179.618,475.357 180.002,475.235 180.401,475.102 180.8,474.97 181.194,474.836 181.579,474.71 181.964,474.584 182.364,474.456 182.764,474.328 183.165,474.2 183.553,474.081 183.942,473.961 184.347,473.835 184.753,473.708 185.158,473.581 185.547,473.463 185.935,473.346 186.341,473.224 186.746,473.103 187.15,472.981 187.542,472.857 187.933,472.732 188.333,472.612 188.732,472.491 189.13,472.37 189.526,472.244 189.92,472.118 190.317,471.994 190.718,471.861 191.117,471.727 191.514,471.598 191.908,471.468 192.313,471.335 192.716,471.202 193.116,471.07 193.519,470.947 193.921,470.815 194.324,470.678 194.724,470.542 195.122,470.407 195.528,470.27 195.932,470.133 196.348,469.996 196.758,469.868 197.166,469.742 197.564,469.632 197.959,469.524 198.37,469.41 198.778,469.296 199.183,469.183 199.591,469.085 199.996,468.988 200.435,468.897 200.87,468.808 201.323,468.728 201.772,468.649 202.22,468.57 202.632,468.469 203.045,468.371 203.452,468.269 203.86,468.168 204.246,468.058 204.634,467.949 205.031,467.847 205.423,467.744 205.816,467.641 206.197,467.538 206.579,467.435 206.961,467.333 207.343,467.227 207.725,467.121 208.108,467.016 208.494,466.909 208.881,466.802 209.274,466.694 209.669,466.587 210.063,466.48 210.466,466.375 210.869,466.269 211.27,466.172 211.673,466.074 212.076,465.976 212.474,465.874 212.874,465.771 213.263,465.67 213.654,465.568 214.046,465.467 214.458,465.365 214.872,465.262 215.257,465.158 215.643,465.054 216.029,464.949 216.483,464.857 216.938,464.764 217.336,464.668 217.735,464.571 218.135,464.475 218.554,464.374 218.974,464.274 219.354,464.171 219.735,464.067 220.117,463.963 220.516,463.858 220.915,463.753 221.296,463.646 221.678,463.538 222.061,463.43 222.462,463.326 222.863,463.222 223.263,463.122 223.665,463.022 224.057,462.912 224.445,462.799 224.835,462.685 225.24,462.574 225.646,462.463 226.054,462.352 226.441,462.232 226.83,462.112 227.248,461.992 227.667,461.885 228.087,461.778 228.486,461.672 228.887,461.565 229.299,461.458 229.711,461.35 230.124,461.242 230.517,461.132 230.909,461.022 231.311,460.909 231.712,460.796 232.113,460.682 232.502,460.568 232.891,460.453 233.287,460.341 233.683,460.23 234.078,460.119 234.479,460.006 234.872,459.899 235.268,459.79 235.661,459.682 236.052,459.575 236.455,459.476 236.856,459.379 237.256,459.284 237.654,459.19 238.05,459.097 238.465,459.004 238.979,458.934 239.373,458.845 239.766,458.757 240.158,458.669 240.597,458.581 241.036,458.493 241.425,458.406 241.814,458.319 242.236,458.232 242.659,458.144 243.084,458.057 243.474,457.969 243.874,457.875 244.278,457.784 244.684,457.693 245.092,457.601 245.493,457.509 245.895,457.416 246.299,457.323 246.704,457.23 247.11,457.136 247.514,457.044 247.918,456.951 248.341,456.856 248.764,456.762 249.185,456.667 249.589,456.571 249.992,456.474 250.407,456.376 250.82,456.278 251.224,456.173 251.627,456.067 252.028,455.963 252.42,455.869 252.81,455.776 253.223,455.68 253.634,455.585 254.044,455.49 254.43,455.401 254.814,455.312 255.24,455.217 255.665,455.123 256.089,455.029 256.471,454.935 256.852,454.841 257.266,454.744 257.679,454.646 258.093,454.549 258.477,454.458 258.863,454.368 259.3,454.283 259.739,454.198 260.18,454.112 260.584,454.028 260.983,453.941 261.409,453.858 261.835,453.774 262.242,453.69 262.65,453.606 263.059,453.521 263.474,453.431 263.89,453.342 264.285,453.25 264.681,453.159 265.078,453.068 265.486,452.97 265.889,452.872 266.288,452.777 266.686,452.682 267.084,452.588 267.497,452.491 267.909,452.395 268.314,452.3 268.719,452.205 269.123,452.11 269.545,452.017 269.964,451.93 270.388,451.846 270.811,451.761 271.229,451.677 271.646,451.592 272.063,451.507 272.48,451.416 272.896,451.324 273.298,451.231 273.699,451.137 274.099,451.043 274.517,450.929 274.935,450.815 275.342,450.712 275.749,450.609 276.155,450.505 276.594,450.394 277.032,450.283 277.437,450.18 277.843,450.077 278.325,449.972 278.742,449.865 279.158,449.757 279.547,449.652 279.936,449.547 280.339,449.443 280.743,449.34 281.148,449.237 281.534,449.128 281.921,449.018 282.33,448.912 282.739,448.806 283.15,448.699 283.534,448.595 283.919,448.49 284.315,448.382 284.713,448.274 285.113,448.166 285.502,448.057 285.892,447.949 286.29,447.845 286.69,447.741 287.091,447.637 287.484,447.532 287.878,447.426 288.288,447.317 288.698,447.209 289.11,447.1 289.512,446.995 289.91,446.882 290.31,446.768 290.711,446.653 291.113,446.539 291.519,446.429 291.925,446.319 292.331,446.207 292.737,446.095 293.144,445.983 293.548,445.879 293.952,445.775 294.365,445.668 294.779,445.561 295.193,445.454 295.594,445.35 295.995,445.246 296.398,445.142 296.801,445.038 297.209,444.933 297.618,444.828 298.026,444.723 298.427,444.621 298.827,444.518 299.232,444.41 299.637,444.302 300.042,444.194 300.443,444.089 300.843,443.984 301.247,443.878 301.649,443.771 302.051,443.665 302.447,443.565 302.841,443.464 303.25,443.357 303.658,443.25 304.064,443.143 304.459,443.044 304.862,442.94 305.261,442.829 305.658,442.719 306.054,442.608 306.453,442.506 306.851,442.404 307.245,442.299 307.637,442.195 308.027,442.09 308.425,441.987 308.818,441.889 309.218,441.789 309.617,441.688 310.014,441.588 310.412,441.488 310.808,441.389 311.213,441.284 311.615,441.179 312.016,441.074 312.42,440.974 312.832,440.875 313.226,440.771 313.618,440.666 314.009,440.562 314.411,440.453 314.811,440.343 315.208,440.236 315.604,440.128 315.997,440.019 316.402,439.897 316.806,439.775 317.204,439.652 317.601,439.529 317.996,439.407 318.393,439.281 318.788,439.155 319.182,439.029 319.578,438.922 319.972,438.814 320.377,438.696 320.781,438.577 321.184,438.458 321.572,438.344 321.96,438.229 322.373,438.112 322.785,437.996 323.182,437.874 323.578,437.752 323.972,437.63 324.376,437.508 324.779,437.386 325.181,437.263 325.587,437.142 325.992,437.022 326.419,436.898 326.844,436.775 327.238,436.639 327.63,436.504 328.022,436.368 328.419,436.232 328.816,436.095 329.211,435.958 329.652,435.82 330.092,435.682 330.544,435.536 330.995,435.39 331.439,435.252 331.883,435.113 332.319,434.966 332.705,434.81 333.092,434.653 333.5,434.5 " fill="none" stroke-width="1" stroke="rgb(0,0,255)" />
	<polyline points="27.5,427.5 28.9847,428.392 31.1825,429.324 " fill="none" stroke-width="1" stroke="rgb(0,0,255)" />
	<polyline points="333.5,434.5 333.795,434.413 334.09,434.326 334.383,434.239 334.676,434.151 334.969,434.064 335.278,433.983 335.597,433.911 335.916,433.84 336.221,433.759 336.526,433.677 336.831,433.596 337.136,433.515 337.455,433.444 337.774,433.373 338.093,433.302 338.408,433.228 338.722,433.155 339.037,433.082 339.357,433.012 339.677,432.942 339.991,432.857 340.264,432.708 340.5,432.5 " fill="none" stroke-width="1" stroke="rgb(0,0,255)" />
</g></svg>
