<?xml version="1.0" standalone="no" ?>
<!DOCTYPE svg PUBLIC "-//W3C//DTD SVG 1.1//EN" "http://www.w3.org/Graphics/SVG/1.1/DTD/svg11.dtd">
<svg width="512px" height="512px" xmlns="http://www.w3.org/2000/svg" xmlns:xlink="http://www.w3.org/1999/xlink" version="1.1" >

<g>	<image style="overflow: visible; opacity: 0.4" width="512" height="512" xlink:href="goblet_0_clean_512_erode.png" />

</g>
<g>	<polyline points="98.5,206.5 98.8307,206.257 99.1613,206.014 99.4959,205.728 99.8308,205.443 100.166,205.157 100.496,204.891 100.822,204.64 101.148,204.39 101.484,204.137 101.806,203.844 102.129,203.551 102.448,203.287 102.766,203.025 103.081,202.767 103.405,202.527 103.726,202.289 104.047,202.053 104.352,201.816 104.657,201.58 104.962,201.345 105.285,201.082 105.585,200.865 105.885,200.649 106.189,200.416 106.497,200.181 106.807,199.944 107.11,199.727 107.42,199.489 107.73,199.251 108.04,199.014 108.348,198.781 108.657,198.548 108.967,198.314 109.269,198.1 109.589,197.861 109.912,197.619 110.218,197.401 110.524,197.184 110.829,196.968 111.126,196.736 111.438,196.5 111.751,196.264 112.064,196.028 112.373,195.798 112.685,195.568 112.999,195.336 113.316,195.1 113.622,194.875 113.929,194.65 114.228,194.432 114.527,194.213 114.828,193.995 115.137,193.775 115.445,193.56 115.755,193.345 116.067,193.13 116.37,192.924 116.678,192.718 116.986,192.512 117.292,192.319 117.599,192.127 117.905,191.934 118.22,191.735 118.535,191.536 118.85,191.336 119.187,191.12 119.524,190.904 119.88,190.689 120.222,190.462 120.562,190.237 120.9,190.013 121.257,189.784 121.613,189.555 121.968,189.327 122.305,189.115 122.667,188.873 123.03,188.632 123.375,188.407 123.717,188.183 124.058,187.961 124.399,187.734 124.741,187.507 125.084,187.28 125.412,187.038 125.728,186.823 126.047,186.606 126.388,186.368 126.728,186.13 127.068,185.893 127.393,185.656 127.718,185.419 128.045,185.181 128.366,184.964 128.684,184.744 129.001,184.525 129.31,184.32 129.619,184.115 129.929,183.909 130.243,183.706 130.559,183.503 130.876,183.3 131.194,183.092 131.512,182.901 131.831,182.71 132.15,182.519 132.486,182.313 132.822,182.108 133.16,181.902 133.491,181.691 133.824,181.479 134.159,181.267 134.511,181.063 134.863,180.849 135.197,180.664 135.53,180.48 135.864,180.296 136.211,180.09 136.543,179.905 136.877,179.72 137.236,179.51 137.596,179.299 137.956,179.089 138.295,178.897 138.633,178.705 138.971,178.513 139.322,178.325 139.675,178.136 140.029,177.947 140.356,177.771 140.684,177.595 141.012,177.419 141.368,177.216 141.725,177.012 142.071,176.815 142.399,176.633 142.728,176.451 143.057,176.268 143.396,176.075 143.742,175.87 144.088,175.664 144.42,175.473 144.751,175.282 145.084,175.089 145.421,174.895 145.758,174.7 146.094,174.506 146.445,174.301 146.795,174.095 147.137,173.896 147.479,173.682 147.824,173.47 148.174,173.256 148.535,173.051 148.891,172.835 149.22,172.644 149.547,172.454 149.873,172.264 150.221,172.046 150.548,171.843 150.876,171.639 151.216,171.41 151.556,171.181 151.896,170.952 152.246,170.716 152.598,170.478 152.951,170.24 153.279,170.027 153.632,169.789 153.985,169.55 154.319,169.343 154.652,169.137 154.983,168.932 155.306,168.727 155.629,168.522 155.952,168.318 156.283,168.119 156.615,167.921 156.933,167.74 157.267,167.545 157.602,167.349 157.938,167.154 158.258,166.975 158.602,166.785 158.946,166.597 159.277,166.419 159.609,166.242 159.942,166.066 160.287,165.886 160.634,165.707 160.983,165.527 161.35,165.331 161.716,165.136 162.081,164.942 162.452,164.769 162.822,164.597 163.189,164.421 163.557,164.246 163.926,164.071 164.269,163.91 164.613,163.749 164.958,163.588 165.325,163.418 165.691,163.248 166.056,163.078 166.409,162.916 166.762,162.754 167.116,162.591 167.463,162.421 167.81,162.251 168.157,162.08 168.498,161.925 168.833,161.771 169.18,161.608 169.528,161.445 169.874,161.282 170.213,161.124 170.552,160.966 170.89,160.808 171.227,160.646 171.566,160.484 171.904,160.321 172.252,160.153 172.598,159.985 172.94,159.823 173.303,159.638 173.666,159.453 174.029,159.267 174.367,159.097 174.704,158.927 175.054,158.736 175.396,158.559 175.737,158.382 176.078,158.205 176.43,158.01 176.758,157.838 177.084,157.666 177.446,157.467 177.807,157.268 178.166,157.07 178.512,156.863 178.858,156.655 179.202,156.471 179.544,156.287 179.885,156.103 180.227,155.898 180.559,155.716 180.891,155.534 181.258,155.326 181.625,155.118 181.991,154.909 182.328,154.723 182.663,154.536 182.998,154.349 183.355,154.16 183.714,153.97 184.075,153.773 184.395,153.601 184.715,153.428 185.035,153.254 185.386,153.054 185.741,152.849 186.096,152.643 186.417,152.467 186.737,152.289 187.058,152.112 187.402,151.912 187.744,151.709 188.086,151.505 188.406,151.31 188.727,151.115 189.048,150.92 189.383,150.697 189.718,150.475 190.053,150.252 190.386,150.042 190.712,149.816 191.037,149.591 191.354,149.352 191.671,149.113 191.99,148.884 192.31,148.649 192.631,148.415 192.951,148.181 193.269,147.952 193.597,147.71 193.924,147.469 194.266,147.222 194.607,146.977 194.928,146.759 195.253,146.541 195.577,146.324 195.899,146.108 196.218,145.911 196.549,145.699 196.882,145.487 197.198,145.275 197.516,145.064 197.837,144.855 198.158,144.646 198.487,144.446 198.815,144.246 199.143,144.046 199.471,143.836 199.798,143.627 200.123,143.419 200.436,143.235 200.746,143.052 201.065,142.863 201.369,142.677 201.673,142.492 201.976,142.307 202.29,142.134 202.605,141.961 202.923,141.793 203.272,141.609 203.621,141.426 203.969,141.242 204.307,141.073 204.64,140.905 204.973,140.736 205.317,140.564 205.661,140.393 206.004,140.222 206.365,140.052 206.739,139.883 207.112,139.714 207.5,139.5 " fill="none" stroke-width="1" stroke="rgb(0,0,255)" />
	<polyline points="207.5,139.5 207.884,139.678 208.27,139.841 208.656,140.005 209.029,140.185 209.398,140.372 209.769,140.559 210.139,140.746 210.494,140.918 210.865,141.09 211.225,141.259 211.585,141.426 211.946,141.594 212.332,141.792 212.72,141.989 213.079,142.15 213.453,142.316 213.829,142.483 214.187,142.639 214.545,142.795 214.904,142.951 215.259,143.101 215.615,143.252 215.971,143.402 216.336,143.559 216.701,143.716 217.067,143.873 217.417,144.017 217.788,144.181 218.159,144.344 218.507,144.492 218.855,144.64 219.219,144.806 219.583,144.972 219.935,145.119 220.308,145.279 220.682,145.439 221.057,145.599 221.418,145.741 221.78,145.882 222.143,146.024 222.495,146.153 222.848,146.283 223.233,146.417 223.62,146.551 224.007,146.686 224.355,146.81 224.705,146.934 225.055,147.056 225.412,147.182 225.769,147.308 226.126,147.435 226.481,147.555 226.837,147.674 227.181,147.795 227.525,147.916 227.869,148.035 228.215,148.158 228.561,148.281 228.907,148.404 229.266,148.542 229.625,148.679 229.984,148.817 230.342,148.954 230.696,149.086 231.05,149.216 231.397,149.347 231.745,149.477 232.092,149.605 232.46,149.739 232.827,149.873 233.187,150.002 233.577,150.148 233.966,150.294 234.363,150.419 234.759,150.545 235.152,150.672 235.568,150.808 235.982,150.945 236.382,151.051 236.754,151.18 237.126,151.31 237.493,151.43 237.86,151.55 238.233,151.683 238.606,151.816 238.978,151.948 239.356,152.079 239.734,152.208 240.113,152.338 240.475,152.465 240.839,152.592 241.222,152.728 241.607,152.863 241.993,152.996 242.371,153.128 242.75,153.261 243.129,153.393 243.536,153.521 243.943,153.649 244.333,153.768 244.723,153.887 245.114,154.007 245.497,154.117 245.881,154.229 246.249,154.325 246.617,154.42 246.986,154.515 247.361,154.609 247.737,154.702 248.112,154.796 248.48,154.881 248.848,154.966 249.248,155.055 249.647,155.145 250.046,155.235 250.427,155.326 250.808,155.418 251.19,155.509 251.571,155.611 251.952,155.712 252.309,155.814 252.667,155.917 253.025,156.02 253.385,156.135 253.745,156.252 254.106,156.37 254.451,156.488 254.796,156.607 255.141,156.728 255.518,156.86 255.895,156.993 256.238,157.115 256.58,157.237 256.923,157.36 257.287,157.504 257.652,157.648 258.015,157.793 258.36,157.913 258.705,158.034 259.061,158.166 259.461,158.319 259.86,158.473 260.207,158.607 260.554,158.741 260.9,158.874 261.284,159.037 261.664,159.207 262.043,159.377 262.391,159.512 262.738,159.647 263.085,159.782 263.459,159.943 263.832,160.096 264.18,160.237 264.527,160.378 264.873,160.517 265.238,160.661 265.601,160.806 265.962,160.951 266.32,161.091 266.678,161.228 267.034,161.363 267.392,161.501 267.749,161.638 268.103,161.774 268.472,161.91 268.84,162.044 269.208,162.167 269.574,162.289 269.939,162.411 270.313,162.543 270.685,162.674 271.055,162.804 271.444,162.924 271.832,163.045 272.197,163.174 272.563,163.303 272.93,163.431 273.307,163.548 273.687,163.663 274.068,163.778 274.448,163.89 274.829,164.003 275.227,164.106 275.625,164.21 276.024,164.314 276.41,164.42 276.796,164.527 277.183,164.635 277.549,164.752 277.915,164.869 278.284,164.991 278.674,165.137 279.065,165.285 279.421,165.419 279.778,165.555 280.135,165.691 280.502,165.846 280.869,166.002 281.21,166.146 281.551,166.293 281.892,166.441 282.231,166.59 282.571,166.739 282.911,166.888 283.257,167.052 283.587,167.201 283.917,167.349 284.282,167.523 284.647,167.698 285.013,167.873 285.345,168.019 285.697,168.187 286.049,168.356 286.393,168.509 286.737,168.662 287.081,168.817 287.435,168.987 287.78,169.136 288.126,169.285 288.503,169.453 288.879,169.621 289.238,169.768 289.597,169.915 289.957,170.062 290.32,170.209 290.684,170.357 291.048,170.505 291.435,170.665 291.822,170.825 292.191,170.977 292.58,171.139 292.971,171.3 293.337,171.449 293.704,171.599 294.072,171.749 294.453,171.911 294.835,172.074 295.219,172.245 295.604,172.417 295.99,172.59 296.35,172.746 296.711,172.903 297.073,173.062 297.429,173.22 297.788,173.378 298.148,173.537 298.523,173.713 298.9,173.891 299.259,174.044 299.621,174.203 299.984,174.363 300.333,174.512 300.683,174.663 301.034,174.816 301.387,174.971 301.744,175.13 302.102,175.288 302.459,175.448 302.816,175.608 303.175,175.769 303.528,175.926 303.876,176.08 304.216,176.234 304.556,176.388 304.896,176.542 305.246,176.701 305.597,176.859 305.947,177.018 306.293,177.165 306.639,177.312 306.986,177.46 307.332,177.615 307.679,177.77 308.026,177.924 308.377,178.066 308.736,178.222 309.096,178.378 309.483,178.545 309.87,178.712 310.243,178.877 310.615,179.043 310.986,179.197 311.355,179.355 311.722,179.514 312.09,179.672 312.485,179.835 312.881,179.998 313.278,180.163 313.676,180.328 314.072,180.493 314.44,180.652 314.807,180.812 315.174,180.971 315.544,181.137 315.913,181.303 316.297,181.465 316.681,181.627 317.063,181.788 317.419,181.944 317.775,182.092 318.129,182.24 318.48,182.396 318.83,182.552 319.186,182.713 319.542,182.874 319.897,183.035 320.252,183.199 320.605,183.363 320.957,183.527 321.302,183.698 321.646,183.868 321.99,184.037 322.334,184.201 322.677,184.366 323.019,184.531 323.383,184.732 323.744,184.932 324.077,185.112 324.42,185.298 324.761,185.484 325.101,185.669 325.429,185.848 325.754,186.027 326.1,186.217 326.422,186.38 326.742,186.543 327.061,186.706 327.398,186.891 327.733,187.074 328.066,187.261 328.399,187.451 328.73,187.639 329.059,187.828 329.407,188.029 329.768,188.234 330.127,188.435 330.475,188.633 330.823,188.83 331.169,189.026 331.541,189.235 331.909,189.442 332.256,189.621 332.601,189.798 332.945,189.973 333.319,190.171 333.691,190.368 334.061,190.565 334.428,190.735 334.794,190.904 335.159,191.072 335.522,191.23 335.884,191.386 336.242,191.531 336.6,191.675 336.958,191.817 337.321,191.946 337.713,192.083 338.105,192.219 338.485,192.333 " fill="none" stroke-width="1" stroke="rgb(0,0,255)" />
	<polyline points="337.5,192.5 337.5,192.5 337.5,192.5 337.5,192.5 337.5,192.5 337.5,192.5 337.5,192.5 337.5,192.5 337.5,192.5 337.5,192.5 337.5,192.5 " fill="none" stroke-width="1" stroke="rgb(0,0,255)" />
	<polyline points="337.5,192.5 337.74,192.977 337.901,193.472 338.057,193.969 338.222,194.421 338.381,194.877 338.505,195.38 338.565,195.883 338.577,196.388 338.579,196.896 338.588,197.406 338.6,197.92 338.619,198.429 338.637,198.943 338.64,199.464 338.642,199.99 338.635,200.52 338.625,201.055 338.611,201.594 338.595,202.138 338.577,202.689 338.557,203.245 338.533,203.787 338.467,204.286 338.399,204.786 338.336,205.288 338.273,205.791 338.205,206.282 338.136,206.773 338.076,207.278 338.017,207.777 337.982,208.321 337.946,208.887 337.918,209.463 337.889,210.043 337.867,210.625 337.844,211.21 337.824,211.785 337.805,212.366 337.786,212.949 337.763,213.522 337.738,214.095 337.714,214.681 337.688,215.266 337.65,215.833 337.61,216.42 337.568,217.007 337.505,217.545 337.441,218.081 337.374,218.646 337.306,219.21 337.23,219.728 337.153,220.245 337.087,220.781 337.029,221.312 336.971,221.871 336.908,222.405 336.845,222.942 336.786,223.503 336.727,224.064 336.666,224.603 336.605,225.143 336.552,225.713 336.499,226.282 336.444,226.853 336.389,227.437 336.333,228.019 336.267,228.591 336.203,229.163 336.146,229.751 336.085,230.326 336.026,230.899 335.983,231.49 335.954,232.085 335.917,232.676 335.88,233.267 335.834,233.848 335.783,234.427 335.732,235.006 335.663,235.547 335.593,236.09 335.524,236.651 335.454,237.214 335.384,237.757 335.327,238.314 335.27,238.875 335.224,239.439 335.178,240.007 335.14,240.581 335.101,241.158 335.068,241.729 335.036,242.315 335.005,242.9 334.973,243.488 334.941,244.075 334.906,244.646 334.87,245.215 334.828,245.789 334.778,246.353 334.727,246.914 334.663,247.471 334.599,248.026 334.521,248.559 334.444,249.094 334.364,249.65 334.285,250.206 334.202,250.737 334.131,251.315 334.06,251.896 333.986,252.474 333.912,253.025 333.834,253.576 333.755,254.13 333.67,254.654 333.583,255.18 333.498,255.716 333.413,256.254 333.333,256.788 333.262,257.339 333.19,257.892 333.125,258.446 333.061,259.001 333.004,259.569 332.933,260.161 332.86,260.715 332.791,261.287 332.724,261.859 332.657,262.407 332.591,262.956 332.533,263.533 332.476,264.109 332.421,264.686 332.366,265.26 332.31,265.844 332.246,266.421 332.182,266.993 332.116,267.566 332.051,268.135 331.986,268.702 331.958,269.299 331.931,269.888 331.901,270.486 331.872,271.079 331.844,271.667 331.816,272.251 331.786,272.827 331.745,273.389 331.702,273.95 331.658,274.508 331.613,275.067 331.551,275.596 331.487,276.128 331.433,276.682 331.378,277.241 331.324,277.798 331.282,278.355 331.24,278.921 331.205,279.494 331.171,280.075 331.143,280.647 331.115,281.227 331.091,281.805 331.069,282.382 331.048,282.962 331.027,283.535 331.006,284.109 330.986,284.701 330.964,285.293 330.94,285.869 330.912,286.464 330.884,287.057 330.852,287.626 330.819,288.193 330.78,288.792 330.731,289.346 330.682,289.898 330.618,290.478 330.554,291.058 330.483,291.579 330.414,292.102 330.331,292.66 330.25,293.217 330.17,293.727 330.097,294.319 330.024,294.909 329.95,295.42 329.877,295.929 329.801,296.498 329.725,297.064 329.661,297.596 329.597,298.126 329.546,298.705 329.495,299.281 329.464,299.848 329.443,300.438 329.425,301.025 329.419,301.602 329.414,302.175 329.422,302.75 329.441,303.322 329.461,303.892 329.497,304.435 329.533,304.977 329.553,305.548 329.573,306.12 329.596,306.676 329.618,307.234 329.604,307.799 329.589,308.38 329.573,308.964 329.525,309.493 329.477,310.023 329.43,310.595 329.383,311.17 329.331,311.703 329.278,312.238 329.237,312.804 329.206,313.358 329.175,313.916 329.152,314.483 329.129,315.053 329.111,315.611 329.094,316.171 329.08,316.739 329.067,317.296 329.054,317.855 329.044,318.431 329.035,319.006 329.023,319.57 329.012,320.133 329.002,320.724 328.974,321.277 328.946,321.828 328.906,322.382 328.865,322.935 328.82,323.471 328.775,324.005 328.72,324.552 328.663,325.097 328.605,325.633 328.548,326.168 328.49,326.744 328.435,327.295 328.379,327.844 328.339,328.443 328.3,329.041 328.254,329.606 328.209,330.17 328.194,330.739 328.146,331.279 328.1,331.818 328.063,332.405 328.028,332.992 328.018,333.583 328.009,334.174 327.978,334.742 327.944,335.303 327.909,335.863 327.869,336.4 327.828,336.938 327.792,337.498 327.756,338.058 327.711,338.569 327.667,339.081 327.678,339.647 327.69,340.213 327.66,340.744 327.655,341.316 327.65,341.889 327.616,342.394 327.578,342.897 327.615,343.434 327.651,343.971 327.607,344.455 327.564,344.939 327.557,345.474 327.55,346.01 327.5,346.5 " fill="none" stroke-width="1" stroke="rgb(0,0,255)" />
	<polyline points="248.5,437.5 248.644,437.242 248.788,436.983 248.93,436.725 249.074,436.459 249.218,436.192 249.362,435.924 249.505,435.647 249.648,435.37 249.792,435.093 249.934,434.82 250.077,434.555 250.221,434.287 250.366,434.019 250.512,433.741 250.658,433.462 " fill="none" stroke-width="1" stroke="rgb(0,0,255)" />
	<polyline points="242.5,275.5 242.792,275.181 243.084,274.861 243.39,274.535 243.697,274.207 244.004,273.879 244.357,273.55 244.712,273.22 245.067,272.889 245.422,272.557 245.778,272.222 246.138,271.884 246.502,271.573 246.865,271.262 247.23,270.922 247.579,270.608 247.929,270.294 248.258,269.997 248.611,269.687 248.969,269.373 249.319,269.063 249.655,268.78 249.991,268.497 250.342,268.19 250.694,267.882 251.037,267.591 251.375,267.293 251.708,266.998 252.028,266.734 252.378,266.435 252.73,266.133 253.062,265.863 253.407,265.566 253.751,265.27 254.096,264.974 254.423,264.681 254.75,264.389 255.077,264.097 255.418,263.8 255.76,263.502 256.104,263.202 256.423,262.934 256.744,262.638 257.064,262.342 257.374,262.035 257.701,261.731 258.03,261.426 258.344,261.15 258.658,260.873 258.972,260.577 259.288,260.264 259.605,259.949 259.938,259.636 260.258,259.355 260.578,259.075 260.904,258.777 261.262,258.444 261.624,258.107 261.998,257.765 262.354,257.459 262.71,257.154 263.066,256.848 263.426,256.515 263.787,256.183 264.148,255.851 264.503,255.529 264.86,255.206 265.214,254.875 265.535,254.57 265.854,254.266 266.179,253.963 266.49,253.665 266.802,253.367 267.114,253.069 267.437,252.768 267.759,252.468 268.081,252.168 268.41,251.867 268.717,251.576 269.025,251.285 269.363,250.987 269.715,250.704 270.068,250.421 270.422,250.113 270.745,249.824 271.07,249.534 271.409,249.24 271.745,248.95 272.095,248.676 272.447,248.367 272.804,248.056 273.133,247.762 273.466,247.456 273.798,247.152 274.145,246.844 274.467,246.54 274.79,246.234 275.116,245.926 275.445,245.615 275.774,245.304 276.103,244.993 276.423,244.687 276.742,244.382 277.06,244.078 277.41,243.76 277.758,243.443 278.106,243.127 278.437,242.82 278.765,242.516 279.09,242.213 279.453,241.91 279.834,241.591 280.18,241.312 280.521,241.038 280.852,240.743 281.215,240.432 281.572,240.125 281.942,239.805 282.291,239.514 282.641,239.222 282.992,238.929 283.328,238.619 283.659,238.312 283.987,238.008 284.313,237.706 284.641,237.403 284.971,237.098 285.339,236.769 285.701,236.446 286.06,236.126 286.416,235.803 286.775,235.477 287.137,235.148 287.47,234.852 287.839,234.536 288.216,234.214 288.592,233.893 288.965,233.558 289.28,233.269 289.598,232.978 289.962,232.661 290.321,232.357 290.678,232.053 291.042,231.738 291.37,231.442 291.698,231.148 292.024,230.856 292.381,230.57 292.739,230.282 293.098,229.995 293.445,229.71 293.791,229.426 294.136,229.143 294.483,228.889 294.838,228.61 295.174,228.329 295.51,228.049 295.863,227.76 296.218,227.492 296.572,227.224 296.927,226.957 297.29,226.653 297.652,226.351 298.013,226.051 298.381,225.747 298.75,225.442 299.12,225.136 299.481,224.855 299.843,224.574 300.231,224.275 300.617,223.976 300.981,223.683 301.326,223.391 301.673,223.097 302.022,222.807 302.395,222.486 302.77,222.163 303.147,221.837 303.478,221.532 303.811,221.225 304.146,220.915 304.482,220.599 304.819,220.282 305.157,219.964 305.499,219.652 305.842,219.339 306.181,219.033 306.508,218.721 306.836,218.408 307.181,218.092 307.538,217.779 307.896,217.464 308.234,217.171 308.571,216.879 308.906,216.565 309.25,216.237 309.59,215.914 309.941,215.603 310.27,215.321 310.597,215.04 310.929,214.734 311.274,214.402 311.618,214.073 311.971,213.753 312.301,213.471 312.629,213.191 312.956,212.912 313.34,212.576 313.725,212.24 314.111,211.903 314.463,211.615 314.814,211.328 315.165,211.042 315.537,210.763 315.908,210.486 316.276,210.181 316.641,209.879 316.984,209.604 317.348,209.316 317.713,209.029 318.067,208.76 318.417,208.464 318.768,208.168 319.119,207.871 319.482,207.576 319.845,207.28 320.171,207.013 320.494,206.722 320.816,206.431 321.137,206.141 321.497,205.836 321.855,205.532 322.186,205.261 322.515,204.991 322.826,204.713 323.195,204.386 323.566,204.058 323.949,203.737 324.308,203.443 324.665,203.151 325.019,202.861 325.371,202.549 325.721,202.239 326.068,201.932 326.418,201.632 326.771,201.328 327.126,201.023 327.449,200.734 327.769,200.447 328.087,200.162 328.41,199.877 328.736,199.588 329.062,199.298 329.409,199.001 329.755,198.726 330.1,198.452 330.468,198.146 330.842,197.846 331.217,197.544 331.587,197.246 331.953,196.953 332.345,196.658 332.736,196.363 333.126,196.069 333.526,195.755 333.926,195.442 334.329,195.157 334.733,194.873 335.134,194.589 335.527,194.351 335.92,194.112 336.314,193.893 336.647,193.581 336.981,193.262 337.295,192.969 337.694,192.75 338.094,192.529 338.485,192.333 " fill="none" stroke-width="1" stroke="rgb(0,0,255)" />
	<polyline points="242.5,275.5 242.368,276.32 242.26,277.135 242.162,278.004 242.091,278.866 242.034,279.904 241.968,280.9 242.039,281.981 241.99,283.211 242,284.512 242.003,286.233 242.019,287.926 242.037,289.441 242.058,290.826 242.079,292.128 242.1,293.379 242.121,294.612 242.143,295.826 242.164,297.044 242.186,298.267 242.207,299.492 242.229,300.714 242.25,301.939 242.272,303.165 242.294,304.389 242.316,305.616 242.339,306.845 242.363,308.073 242.387,309.309 242.415,310.55 242.453,311.798 242.496,313.082 242.559,314.284 242.635,315.476 242.725,316.514 242.818,317.584 242.898,318.8 242.968,320.048 243.026,321.316 243.083,322.607 243.156,323.879 243.244,325.03 243.354,326.194 243.481,327.136 243.605,328.303 243.716,329.304 243.792,330.594 243.834,331.928 243.873,333.168 243.896,334.428 243.912,335.664 243.927,336.892 243.938,338.118 243.949,339.346 243.958,340.569 243.966,341.798 243.973,343.031 243.981,344.279 243.988,345.532 243.994,346.761 244.037,348.045 244.093,349.329 244.173,350.547 244.272,351.642 244.369,352.765 244.457,353.918 244.527,355.177 244.581,356.475 244.629,357.787 244.686,359.057 244.754,360.293 244.843,361.392 244.939,362.513 245.022,363.768 245.117,364.923 245.225,366.115 245.346,367.083 245.477,368.084 245.609,369.021 245.737,370.107 245.847,371.252 245.933,372.562 245.987,373.948 246.028,375.303 246.074,376.664 246.145,377.962 246.233,379.224 246.345,380.344 246.475,381.378 246.611,382.326 246.737,383.368 246.854,384.475 246.943,385.821 247.012,387.104 247.103,388.406 247.206,389.545 247.34,390.476 247.467,391.607 247.585,392.601 247.67,393.906 247.747,395.09 247.798,396.419 247.832,397.726 247.864,398.971 247.889,400.226 247.914,401.46 247.936,402.679 247.958,403.905 247.979,405.125 248.001,406.351 248.022,407.575 248.042,408.799 248.061,410.021 248.079,411.247 248.094,412.464 248.104,413.674 248.11,414.868 248.112,416.042 248.113,417.224 248.118,418.43 248.143,419.711 248.178,421.014 248.225,422.332 248.283,423.634 248.363,424.824 248.446,426.015 248.522,427.165 248.59,428.303 248.65,429.345 248.796,430.335 249.152,431.32 249.596,432.279 250.658,433.462 " fill="none" stroke-width="1" stroke="rgb(0,0,255)" />
	<polyline points="250.658,433.462 251.003,433.231 251.35,433.042 251.703,432.849 252.057,432.655 252.36,432.426 252.667,432.192 252.977,431.953 253.294,431.723 253.611,431.492 253.927,431.261 254.219,431.03 254.486,430.816 254.753,430.601 255.02,430.385 255.295,430.154 255.571,429.922 255.847,429.699 256.122,429.475 256.393,429.24 256.665,429.002 256.925,428.779 257.182,428.547 257.439,428.314 257.697,428.08 257.968,427.843 258.229,427.587 258.493,427.327 258.758,427.063 259.039,426.808 259.297,426.562 259.557,426.313 259.818,426.061 260.087,425.796 260.356,425.52 260.626,425.241 260.896,424.961 261.155,424.714 261.414,424.464 261.675,424.213 261.936,423.959 262.205,423.696 262.473,423.432 262.743,423.166 263.012,422.898 263.27,422.644 263.528,422.388 263.787,422.132 264.045,421.873 264.307,421.612 264.567,421.349 264.827,421.087 265.092,420.818 265.349,420.557 265.605,420.297 265.858,420.038 266.131,419.762 266.384,419.502 266.636,419.242 266.887,418.982 267.149,418.713 267.411,418.443 267.67,418.175 267.928,417.907 268.187,417.638 268.442,417.372 268.694,417.108 268.944,416.844 269.224,416.555 269.501,416.267 269.777,415.981 270.069,415.684 270.345,415.399 270.616,415.118 270.878,414.841 271.172,414.539 271.464,414.238 271.753,413.939 272.059,413.632 272.353,413.334 272.645,413.038 272.894,412.77 273.173,412.477 273.45,412.187 273.724,411.899 274.008,411.602 274.283,411.313 274.559,411.022 274.806,410.747 275.048,410.475 275.294,410.187 275.54,409.9 275.792,409.615 276.046,409.328 276.291,409.039 276.54,408.748 276.792,408.452 277.049,408.15 277.305,407.849 277.562,407.547 277.82,407.243 278.078,406.939 278.341,406.629 278.605,406.318 278.87,406.006 279.107,405.706 279.363,405.407 279.621,405.106 279.902,404.796 280.159,404.498 280.415,404.199 280.671,403.901 280.908,403.607 281.16,403.307 281.41,403.007 281.677,402.694 281.942,402.38 282.187,402.087 282.422,401.79 282.656,401.496 282.887,401.203 283.132,400.904 283.393,400.588 283.653,400.273 283.911,399.959 284.163,399.65 284.412,399.342 284.659,399.037 284.903,398.741 285.156,398.423 285.407,398.108 285.669,397.795 285.931,397.481 286.184,397.166 286.437,396.851 286.692,396.543 286.948,396.234 287.221,395.908 287.474,395.604 287.729,395.299 287.986,394.991 288.272,394.672 288.559,394.351 288.848,394.029 289.108,393.713 289.368,393.415 289.629,393.115 289.911,392.814 290.197,392.509 290.486,392.203 290.777,391.895 291.052,391.579 291.307,391.287 291.562,390.995 291.827,390.697 292.093,390.398 292.377,390.08 292.635,389.761 292.895,389.44 293.143,389.144 293.396,388.851 293.65,388.558 293.905,388.263 294.171,387.954 294.42,387.647 294.669,387.34 294.918,387.034 295.168,386.747 295.419,386.46 295.67,386.172 295.922,385.884 296.172,385.596 296.422,385.309 296.671,385.022 296.917,384.73 297.157,384.431 297.398,384.132 297.651,383.833 297.906,383.532 298.147,383.244 298.388,382.957 298.636,382.658 298.887,382.357 299.128,382.049 299.387,381.743 299.645,381.439 299.902,381.136 300.165,380.825 300.428,380.513 300.692,380.201 300.956,379.888 301.213,379.589 301.47,379.29 301.727,378.99 301.992,378.678 302.267,378.354 302.541,378.029 302.781,377.729 303.02,377.428 303.279,377.12 303.565,376.794 303.849,376.47 304.131,376.146 304.389,375.834 304.646,375.522 304.903,375.211 305.181,374.89 305.449,374.58 305.718,374.27 305.987,373.959 306.25,373.651 306.512,373.344 306.771,373.039 307.029,372.738 307.266,372.444 307.504,372.149 307.767,371.841 308.03,371.532 308.273,371.233 308.514,370.936 308.764,370.636 309.018,370.331 309.249,370.034 309.506,369.725 309.767,369.413 310.03,369.098 310.294,368.784 310.558,368.471 310.821,368.158 311.083,367.846 311.333,367.549 311.583,367.251 311.834,366.952 312.085,366.638 312.357,366.317 312.625,366 312.858,365.698 313.092,365.394 313.333,365.101 313.581,364.796 313.83,364.489 314.081,364.179 314.349,363.86 314.589,363.556 314.827,363.253 315.064,362.952 315.295,362.657 315.528,362.361 315.761,362.063 316.018,361.753 316.26,361.449 316.5,361.148 316.742,360.852 316.986,360.554 317.206,360.26 317.425,359.969 317.676,359.661 317.929,359.351 318.161,359.048 318.411,358.742 318.659,358.438 318.907,358.134 319.158,357.828 319.409,357.522 319.661,357.216 319.913,356.909 320.182,356.578 320.449,356.249 320.714,355.922 320.948,355.617 321.218,355.3 321.483,354.987 321.714,354.68 321.944,354.373 322.212,354.034 322.454,353.717 322.696,353.402 322.935,353.088 323.161,352.78 323.387,352.474 323.611,352.168 323.835,351.863 324.075,351.549 324.303,351.234 324.53,350.919 324.773,350.59 325.016,350.261 325.232,349.955 325.451,349.64 325.671,349.325 325.891,349.009 326.094,348.697 326.317,348.369 326.538,348.042 326.727,347.733 326.915,347.426 327.122,347.111 327.311,346.805 327.5,346.5 " fill="none" stroke-width="1" stroke="rgb(0,0,255)" />
	<polyline points="141.377,202.48 141.743,202.27 142.108,202.06 142.469,201.839 142.83,201.617 143.179,201.376 143.528,201.134 143.877,200.892 144.202,200.673 144.527,200.454 144.851,200.235 145.161,200.034 145.479,199.821 145.797,199.608 146.116,199.394 146.421,199.197 146.727,199 147.023,198.796 147.317,198.602 147.612,198.408 147.909,198.213 148.203,198.019 148.498,197.829 148.794,197.639 149.092,197.448 149.387,197.261 149.683,197.073 149.975,196.891 150.281,196.696 150.588,196.5 150.897,196.304 151.186,196.13 151.475,195.955 151.766,195.782 152.058,195.608 152.364,195.42 152.67,195.232 152.976,195.045 153.261,194.877 153.546,194.71 153.831,194.542 154.117,194.374 154.435,194.185 154.754,193.996 155.065,193.814 155.356,193.649 155.647,193.484 155.939,193.319 156.253,193.132 156.567,192.945 156.886,192.751 157.178,192.578 157.47,192.404 157.763,192.231 158.055,192.058 158.368,191.867 158.68,191.678 158.992,191.488 159.301,191.301 159.611,191.114 159.922,190.927 160.24,190.725 160.558,190.524 160.875,190.323 161.175,190.135 161.475,189.948 161.783,189.752 162.092,189.557 162.397,189.367 162.703,189.176 163.008,188.986 163.315,188.799 163.621,188.612 163.927,188.426 164.246,188.226 164.565,188.027 164.879,187.836 165.185,187.635 165.491,187.434 165.797,187.231 166.105,187.029 166.427,186.815 166.751,186.6 167.075,186.384 167.398,186.167 167.72,185.95 168.033,185.731 168.356,185.516 168.679,185.301 169.001,185.086 169.304,184.875 169.607,184.663 169.911,184.451 170.211,184.245 170.51,184.038 170.816,183.828 171.121,183.617 171.415,183.416 171.709,183.213 172.004,183.01 172.301,182.806 172.597,182.602 172.892,182.398 173.191,182.189 173.491,181.98 173.784,181.771 174.078,181.563 174.376,181.35 174.674,181.136 174.972,180.923 175.27,180.713 175.569,180.502 175.867,180.292 176.171,180.065 176.472,179.849 176.773,179.631 177.076,179.414 177.373,179.191 177.669,178.969 177.961,178.773 178.268,178.546 178.573,178.321 178.877,178.097 179.165,177.906 179.465,177.685 179.766,177.463 180.067,177.241 180.359,177.047 180.67,176.822 180.981,176.596 181.273,176.403 181.563,176.211 181.851,176.02 182.147,175.805 182.441,175.613 182.736,175.42 183.032,175.226 183.332,175.006 183.62,174.809 183.911,174.61 184.229,174.384 184.546,174.159 184.861,173.936 185.167,173.715 185.473,173.496 185.778,173.277 186.082,173.058 186.382,172.851 186.68,172.644 186.977,172.438 187.262,172.248 187.546,172.059 187.841,171.862 188.135,171.665 188.427,171.477 188.719,171.289 189.011,171.101 189.3,170.91 189.591,170.729 189.882,170.549 190.189,170.359 190.495,170.169 190.801,169.98 191.104,169.796 191.398,169.603 191.693,169.41 191.988,169.216 192.311,169.025 192.63,168.835 192.948,168.645 193.261,168.457 193.573,168.269 193.884,168.082 194.194,167.897 194.503,167.711 194.813,167.527 195.122,167.342 195.417,167.152 195.711,166.963 196.029,166.776 196.352,166.593 196.676,166.41 197.001,166.227 197.312,166.07 197.609,165.887 197.905,165.705 198.227,165.527 198.548,165.349 198.869,165.172 199.163,164.992 199.457,164.827 199.751,164.663 200.045,164.499 200.359,164.328 200.671,164.159 200.983,163.99 201.278,163.813 201.572,163.638 201.865,163.464 202.19,163.295 202.513,163.128 202.835,162.962 203.144,162.802 203.432,162.643 203.72,162.485 204.007,162.328 204.325,162.181 204.642,162.035 204.944,161.89 205.259,161.74 205.573,161.589 205.886,161.44 206.2,161.293 206.513,161.147 206.824,161.002 207.145,160.862 207.476,160.719 207.807,160.576 208.138,160.433 208.47,160.298 208.801,160.163 209.133,160.028 209.477,159.897 209.821,159.766 210.165,159.636 210.5,159.5 " fill="none" stroke-width="1" stroke="rgb(0,0,255)" />
	<polyline points="210.5,159.5 210.864,159.59 211.214,159.667 211.564,159.743 211.914,159.818 212.269,159.913 212.624,160.009 212.976,160.096 213.312,160.185 213.649,160.273 213.986,160.362 214.326,160.454 214.666,160.548 215.007,160.642 215.329,160.743 215.651,160.844 215.974,160.946 216.301,161.051 216.634,161.166 216.967,161.282 217.283,161.386 217.6,161.489 217.917,161.592 218.252,161.705 218.586,161.818 218.921,161.931 219.242,162.033 219.572,162.143 219.902,162.253 220.236,162.36 220.571,162.468 220.906,162.577 221.253,162.688 221.601,162.8 221.949,162.913 222.29,163.022 222.634,163.131 222.979,163.241 223.325,163.343 223.672,163.446 224.02,163.549 224.37,163.651 224.722,163.753 225.074,163.855 225.429,163.952 225.793,164.049 226.161,164.148 226.515,164.247 226.87,164.348 227.22,164.452 227.572,164.557 227.924,164.663 228.266,164.777 228.608,164.891 228.951,165.007 229.289,165.131 229.628,165.257 229.968,165.383 230.304,165.51 230.64,165.638 230.977,165.767 231.301,165.89 231.625,166.013 231.939,166.125 232.247,166.243 232.556,166.363 232.865,166.483 233.174,166.599 233.483,166.717 233.793,166.835 234.103,166.954 234.42,167.076 234.737,167.198 235.055,167.321 235.367,167.441 235.681,167.56 235.994,167.68 236.321,167.797 236.648,167.914 236.975,168.031 237.301,168.145 237.627,168.26 237.953,168.374 238.289,168.486 238.625,168.597 238.963,168.708 239.303,168.822 239.645,168.935 239.988,169.046 240.349,169.16 240.71,169.274 241.072,169.389 241.424,169.509 241.777,169.629 242.131,169.75 242.485,169.883 242.839,170.018 243.165,170.16 243.491,170.304 243.817,170.45 244.144,170.598 244.481,170.743 244.818,170.89 245.155,171.039 245.477,171.183 245.8,171.328 246.123,171.474 246.448,171.622 246.773,171.772 247.099,171.924 247.418,172.075 247.731,172.219 248.045,172.363 248.361,172.504 248.677,172.646 248.995,172.788 249.31,172.935 249.628,173.092 249.948,173.25 250.268,173.402 250.589,173.556 250.911,173.709 251.232,173.87 251.554,174.031 251.872,174.18 252.19,174.325 252.51,174.471 252.83,174.617 253.15,174.764 253.469,174.912 253.789,175.06 254.112,175.217 254.434,175.365 254.756,175.512 255.077,175.659 255.398,175.81 255.718,175.959 256.035,176.098 256.355,176.24 256.673,176.38 256.991,176.519 257.31,176.659 257.628,176.797 257.945,176.934 258.263,177.068 258.58,177.201 258.896,177.332 259.211,177.462 259.525,177.591 259.837,177.717 260.148,177.841 260.464,177.96 260.793,178.087 261.119,178.213 261.453,178.332 261.785,178.451 262.114,178.568 262.466,178.691 262.814,178.813 263.16,178.934 263.507,179.048 263.835,179.159 264.164,179.272 264.497,179.39 264.827,179.507 265.155,179.623 265.492,179.741 265.83,179.859 266.167,179.976 266.521,180.095 266.871,180.211 267.234,180.326 267.595,180.44 267.954,180.553 268.302,180.668 268.65,180.782 268.996,180.895 269.363,181.006 269.699,181.12 270.035,181.233 270.376,181.353 270.716,181.473 271.056,181.592 271.392,181.705 271.729,181.817 272.067,181.929 272.417,182.044 272.758,182.151 273.099,182.258 273.451,182.37 273.805,182.481 274.159,182.593 274.488,182.703 274.818,182.812 275.148,182.922 275.495,183.043 275.825,183.156 276.154,183.27 276.504,183.392 276.854,183.513 277.175,183.619 277.496,183.724 277.817,183.831 278.139,183.939 278.487,184.061 278.809,184.169 279.128,184.277 279.454,184.387 279.779,184.498 280.104,184.608 280.419,184.706 280.735,184.804 281.049,184.903 281.385,185.01 281.704,185.108 282.022,185.206 282.339,185.311 282.656,185.417 282.972,185.523 283.29,185.628 283.607,185.732 283.925,185.835 284.238,185.942 284.551,186.049 284.856,186.148 285.197,186.26 285.538,186.373 285.878,186.486 286.196,186.587 286.514,186.688 286.831,186.788 287.177,186.899 287.523,187.009 287.842,187.108 288.176,187.217 288.511,187.326 288.846,187.435 289.174,187.541 289.501,187.647 289.829,187.754 290.156,187.86 290.499,187.976 290.828,188.09 291.176,188.214 291.525,188.339 291.874,188.465 292.204,188.585 292.534,188.706 292.864,188.828 293.212,188.957 293.543,189.081 293.874,189.206 294.216,189.339 294.558,189.472 294.9,189.605 295.23,189.733 295.56,189.861 295.89,189.989 296.222,190.134 296.555,190.28 296.888,190.427 297.238,190.586 297.589,190.746 297.941,190.905 298.266,191.06 298.589,191.21 298.912,191.359 299.234,191.499 299.556,191.639 299.878,191.779 300.195,191.922 300.522,192.089 300.851,192.256 301.193,192.421 301.535,192.588 301.877,192.756 302.202,192.909 302.528,193.062 302.849,193.209 303.174,193.355 303.5,193.5 " fill="none" stroke-width="1" stroke="rgb(0,0,255)" />
	<polyline points="136.5,204.5 136.981,204.343 137.455,204.124 137.791,203.804 138.259,203.514 138.737,203.211 139.262,202.962 139.775,202.791 140.289,202.658 140.828,202.567 141.377,202.48 " fill="none" stroke-width="1" stroke="rgb(0,0,255)" />
	<polyline points="141.377,202.48 141.602,202.761 141.826,203.044 142.074,203.251 142.332,203.495 142.589,203.743 142.844,203.994 143.087,204.271 143.352,204.529 143.625,204.777 143.9,205.026 144.166,205.248 144.435,205.472 144.705,205.697 144.978,205.923 145.233,206.126 145.491,206.329 145.752,206.53 146.016,206.731 146.274,206.93 146.558,207.158 146.846,207.386 147.137,207.614 147.394,207.794 147.653,207.973 147.939,208.181 148.214,208.363 148.492,208.543 148.772,208.721 149.055,208.897 149.34,209.077 149.627,209.257 149.917,209.435 150.236,209.656 150.558,209.877 150.884,210.098 151.184,210.264 151.489,210.43 151.797,210.597 152.11,210.766 152.408,210.921 152.71,211.077 153.033,211.246 153.344,211.4 153.657,211.552 153.972,211.703 154.295,211.855 154.621,212.005 154.94,212.153 155.277,212.316 155.615,212.478 155.954,212.64 156.289,212.802 156.624,212.963 156.966,213.126 157.302,213.288 157.639,213.449 157.978,213.607 158.333,213.781 158.688,213.954 159.032,214.121 159.409,214.319 159.787,214.515 160.164,214.711 160.506,214.881 160.847,215.053 161.189,215.227 161.531,215.402 161.872,215.576 162.213,215.757 162.554,215.936 162.885,216.099 163.235,216.274 163.584,216.447 163.932,216.62 164.261,216.776 164.59,216.931 164.932,217.083 165.265,217.224 165.597,217.365 165.928,217.505 166.281,217.642 166.634,217.778 166.986,217.914 167.326,218.045 167.681,218.184 168.035,218.321 168.397,218.458 168.758,218.593 169.119,218.728 169.49,218.873 169.861,219.018 170.262,219.158 170.662,219.296 171.063,219.434 171.421,219.567 171.78,219.699 172.139,219.832 172.522,219.982 172.887,220.127 173.259,220.292 173.631,220.457 174.003,220.622 174.359,220.77 174.715,220.919 175.091,221.089 175.444,221.237 175.799,221.387 176.158,221.538 176.551,221.709 176.946,221.882 177.312,222.033 177.679,222.188 178.047,222.344 178.406,222.493 178.766,222.644 179.128,222.795 179.486,222.941 179.856,223.1 180.243,223.256 180.631,223.413 181.021,223.57 181.383,223.719 181.746,223.869 182.111,224.019 182.463,224.157 182.817,224.296 183.171,224.436 183.519,224.566 183.869,224.697 184.216,224.83 184.564,224.963 184.918,225.103 185.266,225.246 185.613,225.389 185.961,225.532 186.313,225.677 186.665,225.823 187.016,225.969 187.361,226.112 187.706,226.255 188.049,226.399 188.394,226.553 188.737,226.707 189.08,226.861 189.426,227.022 189.771,227.192 190.114,227.362 190.486,227.552 190.856,227.741 191.203,227.917 191.56,228.11 191.917,228.304 192.275,228.491 192.633,228.678 192.99,228.862 193.356,229.066 193.708,229.245 194.059,229.422 194.453,229.628 194.846,229.834 195.196,230.001 195.558,230.181 195.919,230.359 196.27,230.523 196.618,230.689 196.966,230.855 197.314,231.022 197.658,231.185 198,231.347 198.373,231.533 198.744,231.718 199.114,231.903 199.454,232.066 199.802,232.242 200.148,232.417 200.494,232.593 200.839,232.767 201.193,232.956 201.536,233.126 201.879,233.295 202.272,233.491 202.663,233.687 203.054,233.882 203.403,234.047 203.76,234.22 204.116,234.391 204.462,234.553 204.807,234.715 205.152,234.876 205.498,235.032 205.855,235.198 206.228,235.374 206.6,235.549 206.972,235.724 207.337,235.886 207.701,236.048 208.049,236.198 208.408,236.375 208.766,236.553 209.123,236.732 209.489,236.901 209.854,237.071 210.227,237.283 210.6,237.495 210.972,237.709 211.351,237.897 211.73,238.086 212.103,238.281 212.5,238.5 " fill="none" stroke-width="1" stroke="rgb(0,0,255)" />
	<polyline points="212.5,238.5 212.738,238.636 212.976,238.772 213.212,238.907 213.449,239.042 213.681,239.171 213.913,239.3 214.139,239.44 214.366,239.58 214.593,239.72 214.821,239.861 215.049,240.002 215.284,240.149 215.52,240.296 215.756,240.444 215.993,240.594 216.231,240.744 216.471,240.896 216.711,241.048 216.932,241.185 217.163,241.327 217.394,241.47 217.626,241.613 217.859,241.757 218.094,241.901 218.321,242.043 218.559,242.191 218.799,242.34 219.04,242.489 219.283,242.643 219.528,242.798 219.774,242.953 220.027,243.112 220.268,243.263 220.509,243.415 220.751,243.568 220.993,243.722 221.248,243.888 221.503,244.055 221.757,244.219 222.012,244.384 222.263,244.54 222.514,244.695 222.766,244.851 223.019,245.006 223.285,245.181 223.552,245.356 223.82,245.531 224.088,245.706 224.352,245.874 224.616,246.04 224.88,246.203 225.152,246.373 225.424,246.542 225.696,246.712 225.969,246.881 226.237,247.056 226.511,247.222 226.786,247.386 227.061,247.551 227.337,247.696 227.614,247.841 227.891,247.985 228.166,248.138 228.442,248.292 228.717,248.445 228.993,248.598 229.258,248.738 229.524,248.877 229.79,249.017 230.061,249.155 230.332,249.303 230.603,249.451 230.874,249.599 231.146,249.745 231.419,249.891 231.691,250.037 231.962,250.184 232.231,250.342 232.5,250.5 " fill="none" stroke-width="1" stroke="rgb(0,0,255)" />
	<polyline points="212.5,238.5 212.592,237.734 212.707,237.019 212.774,236.157 212.841,235.343 212.874,234.391 212.904,233.484 212.931,232.516 212.952,231.534 212.948,230.379 212.937,229.18 212.912,227.955 212.874,226.76 212.825,225.631 212.761,224.602 212.7,223.582 212.638,222.601 212.594,221.539 212.571,220.416 212.553,219.293 212.542,218.185 212.532,217.078 212.524,215.983 212.515,214.873 212.507,213.753 212.5,212.58 212.487,211.335 212.461,210.026 212.419,208.647 212.351,207.353 212.257,206.39 212.16,205.504 212.064,204.626 211.959,203.839 211.855,203.058 211.758,202.202 211.663,201.275 211.571,200.24 211.487,199.005 211.412,197.756 211.343,196.552 211.272,195.507 211.21,194.472 211.166,193.37 211.134,192.238 211.114,191.099 211.101,189.955 211.093,188.833 211.089,187.711 211.088,186.606 211.087,185.505 211.088,184.417 211.09,183.324 211.091,182.245 211.093,181.152 211.095,180.08 211.096,178.982 211.098,177.911 211.099,176.8 211.1,175.714 211.101,174.578 211.102,173.414 211.098,172.222 211.097,170.991 211.084,169.657 211.079,168.391 211.067,167.304 211.018,166.12 210.925,165.249 210.862,164.27 210.773,163.508 210.685,162.756 210.653,161.852 210.578,161.141 210.558,160.249 210.5,159.5 " fill="none" stroke-width="1" stroke="rgb(0,0,255)" />
	<polyline points="232.5,250.5 232.831,250.208 233.163,249.916 233.494,249.624 233.826,249.331 234.158,249.038 234.467,248.757 234.778,248.474 235.091,248.188 235.399,247.91 235.69,247.638 235.982,247.364 236.277,247.083 236.557,246.818 236.838,246.552 237.12,246.285 237.404,246.019 237.667,245.759 237.931,245.499 238.211,245.23 238.492,244.96 238.761,244.7 239.032,244.439 239.305,244.178 239.579,243.916 239.845,243.654 240.111,243.391 240.4,243.123 240.675,242.86 240.95,242.596 241.228,242.336 241.506,242.076 241.803,241.803 242.099,241.531 242.404,241.278 242.708,241.025 242.992,240.766 243.266,240.509 243.54,240.253 243.813,239.998 244.108,239.729 244.412,239.473 244.716,239.216 245.021,238.96 245.285,238.702 245.549,238.444 245.812,238.187 246.075,237.931 246.35,237.668 246.625,237.405 246.9,237.142 247.175,236.88 247.443,236.621 247.711,236.363 247.977,236.106 248.251,235.844 248.525,235.582 248.799,235.32 249.074,235.058 249.37,234.802 249.664,234.548 249.956,234.296 250.267,234.018 250.566,233.757 250.867,233.495 251.148,233.241 251.421,232.992 251.707,232.759 251.994,232.524 252.3,232.261 252.602,232.001 252.895,231.761 253.17,231.511 253.445,231.262 253.719,231.013 254.002,230.779 254.287,230.531 254.57,230.285 254.85,230.041 255.131,229.812 255.417,229.561 255.704,229.311 255.99,229.061 256.275,228.815 256.56,228.569 256.844,228.325 257.126,228.081 257.442,227.818 257.757,227.556 258.071,227.294 258.378,227.054 258.679,226.801 258.982,226.546 259.306,226.279 259.629,226.015 259.955,225.751 260.276,225.493 260.598,225.234 260.92,224.975 261.243,224.72 261.566,224.467 261.888,224.215 262.208,223.962 262.531,223.71 262.858,223.454 263.16,223.213 263.461,222.971 263.77,222.742 264.082,222.512 264.408,222.27 264.735,222.026 265.054,221.789 265.355,221.553 265.659,221.316 265.965,221.077 266.273,220.843 266.583,220.608 266.894,220.372 267.19,220.153 267.488,219.932 267.791,219.702 268.097,219.47 268.405,219.243 268.715,219.016 269.018,218.777 269.316,218.546 269.614,218.315 269.913,218.083 270.228,217.83 270.543,217.576 270.859,217.322 271.159,217.075 271.452,216.838 271.746,216.601 272.039,216.364 272.34,216.113 272.643,215.852 272.947,215.59 273.245,215.33 273.543,215.071 273.838,214.829 274.132,214.587 274.434,214.334 274.736,214.083 275.032,213.835 275.343,213.573 275.653,213.311 275.962,213.05 276.262,212.799 276.561,212.55 276.859,212.302 277.158,212.052 277.472,211.798 277.786,211.545 278.1,211.292 278.394,211.063 278.698,210.816 279,210.571 279.317,210.315 279.633,210.059 279.955,209.802 280.264,209.565 280.573,209.327 280.883,209.09 281.202,208.853 281.519,208.617 281.834,208.384 282.148,208.152 282.474,207.898 282.789,207.667 283.105,207.434 283.412,207.189 283.716,206.947 284.009,206.732 284.324,206.491 284.638,206.251 284.95,206.012 285.246,205.778 285.542,205.543 285.841,205.307 286.14,205.07 286.442,204.833 286.745,204.597 287.047,204.361 287.349,204.146 287.652,203.931 287.974,203.691 288.274,203.48 288.574,203.27 288.872,203.061 289.184,202.854 289.495,202.648 289.805,202.443 290.114,202.239 290.435,202.012 290.743,201.81 291.053,201.608 291.377,201.379 291.699,201.153 292.018,200.929 292.344,200.708 292.668,200.487 292.991,200.268 293.3,200.078 293.631,199.86 293.963,199.642 294.275,199.448 294.585,199.255 294.894,199.064 295.203,198.881 295.512,198.698 295.82,198.517 296.127,198.337 296.438,198.134 296.749,197.93 297.065,197.735 297.386,197.526 297.708,197.317 298.029,197.11 298.347,196.906 298.671,196.693 298.996,196.481 299.321,196.288 299.648,196.096 299.984,195.871 300.323,195.643 300.663,195.414 301.004,195.184 301.331,194.973 301.69,194.755 302.049,194.537 302.405,194.262 302.762,193.987 303.129,193.737 303.5,193.5 " fill="none" stroke-width="1" stroke="rgb(0,0,255)" />
	<polyline points="98.5,206.5 98.6633,206.662 98.8265,206.824 98.9896,206.987 99.1584,207.152 99.3272,207.317 99.4959,207.482 99.6646,207.648 99.8331,207.813 100.002,207.979 100.168,208.143 100.334,208.308 100.499,208.473 100.665,208.638 100.83,208.804 100.994,208.97 101.163,209.137 101.332,209.304 101.5,209.471 101.669,209.639 101.837,209.806 102.005,209.974 102.173,210.143 102.341,210.313 102.509,210.482 102.676,210.652 102.843,210.823 103.01,210.993 103.18,211.162 103.35,211.331 103.52,211.5 103.69,211.669 103.861,211.837 104.032,212.005 104.205,212.171 104.38,212.336 104.555,212.501 104.73,212.666 " fill="none" stroke-width="1" stroke="rgb(0,0,255)" />
	<polyline points="104.73,212.666 104.652,212.985 104.58,213.301 104.508,213.617 104.437,213.933 104.378,214.262 104.321,214.592 104.264,214.921 104.21,215.252 104.157,215.583 104.104,215.914 104.059,216.249 104.014,216.584 103.986,216.93 103.959,217.273 103.933,217.616 103.907,217.96 103.89,218.306 103.873,218.653 103.857,219 103.845,219.348 103.849,219.695 103.861,220.041 103.869,220.39 103.88,220.739 103.892,221.09 103.911,221.438 103.932,221.788 103.953,222.139 103.98,222.498 104.022,222.84 104.055,223.19 104.092,223.54 104.133,223.89 104.185,224.232 104.239,224.574 104.296,224.916 104.353,225.265 104.413,225.614 104.475,225.965 104.536,226.316 104.6,226.668 104.665,227.022 104.729,227.383 104.796,227.746 104.865,228.11 104.933,228.477 105.001,228.845 105.07,229.205 105.14,229.566 105.211,229.93 105.28,230.3 105.349,230.672 105.42,231.046 105.486,231.426 105.552,231.807 105.61,232.198 105.667,232.593 105.725,232.992 105.775,233.401 105.825,233.814 105.869,234.238 105.913,234.665 105.957,235.095 106.002,235.53 106.055,235.945 106.114,236.359 106.175,236.774 106.238,237.19 106.304,237.6 106.372,238.011 106.443,238.415 106.514,238.819 106.586,239.214 106.657,239.61 106.727,240.007 106.8,240.391 106.874,240.775 106.948,241.159 107.027,241.532 107.093,241.946 107.164,242.332 107.235,242.719 107.306,243.106 107.379,243.491 107.452,243.877 107.53,244.24 107.608,244.604 107.686,244.968 107.767,245.325 107.849,245.682 107.93,246.039 108.009,246.397 108.09,246.754 108.172,247.11 108.248,247.475 108.324,247.841 108.394,248.222 108.463,248.602 108.533,248.982 108.597,249.373 108.661,249.764 108.725,250.153 108.782,250.555 108.839,250.956 108.89,251.369 108.941,251.781 108.991,252.192 109.046,252.586 109.1,252.978 109.157,253.365 109.215,253.751 109.272,254.135 109.337,254.526 109.401,254.917 109.467,255.303 109.534,255.687 109.6,256.071 109.67,256.478 109.739,256.885 109.805,257.285 109.87,257.684 109.936,258.081 109.995,258.512 110.057,258.949 110.119,259.355 110.18,259.76 110.242,260.163 110.309,260.588 110.376,261.01 110.442,261.411 110.508,261.811 110.571,262.218 110.634,262.624 110.697,263.031 110.758,263.419 110.819,263.806 110.881,264.193 110.943,264.594 111.005,264.995 111.069,265.385 111.134,265.775 111.2,266.165 111.265,266.549 111.331,266.933 111.404,267.325 111.478,267.718 111.553,268.11 111.628,268.492 111.703,268.874 111.785,269.284 111.865,269.696 111.945,270.108 112.017,270.491 112.093,270.896 112.166,271.319 112.24,271.741 112.314,272.163 112.393,272.549 112.471,272.936 112.552,273.336 112.634,273.736 112.716,274.135 112.797,274.52 112.879,274.904 112.958,275.308 113.036,275.712 113.12,276.113 113.204,276.489 113.289,276.864 113.373,277.254 113.457,277.644 113.542,278.034 113.627,278.428 113.71,278.822 113.791,279.219 113.871,279.615 113.951,280.01 114.027,280.43 114.103,280.857 114.178,281.253 114.253,281.648 114.327,282.042 114.408,282.451 114.489,282.858 114.568,283.244 114.646,283.629 114.724,284.014 114.797,284.414 114.869,284.815 114.937,285.209 115.003,285.605 115.072,286.012 115.141,286.401 115.21,286.79 115.28,287.181 115.354,287.583 115.429,287.985 115.504,288.375 115.58,288.767 115.656,289.158 115.736,289.573 115.816,289.988 115.889,290.386 115.962,290.785 116.035,291.183 116.11,291.607 116.186,292.03 116.27,292.421 116.353,292.812 116.441,293.212 116.53,293.61 116.622,294.007 116.717,294.383 116.812,294.76 116.907,295.136 117.003,295.528 117.103,295.916 117.198,296.317 117.293,296.718 117.388,297.12 117.489,297.502 117.591,297.883 117.689,298.284 117.787,298.685 117.885,299.085 117.987,299.471 118.093,299.86 118.201,300.243 118.311,300.626 118.422,301.008 118.532,301.376 118.642,301.745 118.752,302.114 118.86,302.501 118.968,302.889 119.069,303.266 119.17,303.644 119.27,304.023 119.372,304.407 119.474,304.793 119.574,305.179 119.669,305.551 119.764,305.923 119.858,306.33 119.95,306.737 120.042,307.144 120.13,307.514 120.218,307.884 120.313,308.28 120.409,308.675 120.505,309.07 120.593,309.45 120.682,309.828 120.773,310.223 120.863,310.617 120.952,311.012 121.032,311.408 121.117,311.796 121.202,312.183 121.287,312.574 121.37,312.964 121.452,313.358 121.534,313.752 121.615,314.146 121.694,314.539 121.771,314.933 121.843,315.336 121.913,315.739 121.982,316.143 122.05,316.549 122.119,316.955 122.192,317.345 122.266,317.736 122.339,318.126 122.413,318.526 122.486,318.925 122.559,319.312 122.633,319.698 122.708,320.083 122.777,320.481 122.846,320.879 122.912,321.27 122.977,321.661 123.045,322.062 123.112,322.46 123.18,322.859 123.256,323.248 123.331,323.636 123.407,324.024 123.489,324.412 123.571,324.8 123.653,325.188 123.737,325.575 123.82,325.963 123.9,326.359 123.98,326.756 124.062,327.149 124.144,327.544 124.226,327.938 124.313,328.321 124.401,328.702 124.49,329.083 124.578,329.463 124.666,329.844 124.754,330.22 124.84,330.596 124.927,330.972 125.008,331.362 125.091,331.748 125.174,332.135 125.258,332.513 125.341,332.893 125.428,333.274 125.514,333.656 125.599,334.039 125.681,334.427 125.763,334.815 125.846,335.203 125.928,335.592 126.01,335.981 126.093,336.361 126.178,336.741 126.263,337.121 126.344,337.503 126.424,337.885 126.498,338.264 126.572,338.643 126.645,339.023 126.71,339.409 126.774,339.796 126.837,340.182 126.901,340.571 126.964,340.959 127.024,341.345 127.087,341.726 127.151,342.106 127.222,342.48 127.293,342.854 127.362,343.227 127.43,343.6 127.498,343.973 127.567,344.36 127.635,344.748 127.701,345.136 127.764,345.517 127.827,345.896 127.886,346.297 127.945,346.698 128.002,347.098 128.062,347.478 128.122,347.858 128.187,348.253 128.253,348.648 128.319,349.041 128.386,349.417 128.452,349.792 128.518,350.166 128.58,350.558 128.64,350.949 128.699,351.335 128.756,351.721 128.813,352.106 128.863,352.501 128.913,352.895 128.945,353.292 128.975,353.689 129.027,354.08 129.079,354.462 129.131,354.843 129.17,355.234 129.207,355.624 129.242,356.013 129.282,356.402 129.32,356.791 129.356,357.18 129.382,357.565 129.406,357.949 129.435,358.341 129.462,358.731 129.487,359.122 129.5,359.5 " fill="none" stroke-width="1" stroke="rgb(0,0,255)" />
	<polyline points="104.73,212.666 105.066,212.799 105.404,212.923 105.742,213.048 106.07,213.181 106.383,213.305 106.696,213.43 107.01,213.558 107.342,213.695 107.675,213.835 108.008,213.977 108.343,214.115 108.679,214.255 109.016,214.396 109.359,214.546 109.704,214.697 110.052,214.847 110.396,214.991 110.735,215.118 111.075,215.248 111.419,215.404 111.764,215.562 112.111,215.723 112.452,215.883 112.795,216.046 113.135,216.201 113.481,216.372 113.83,216.547 114.174,216.706 114.518,216.865 114.863,217.025 115.186,217.176 115.511,217.329 115.836,217.482 116.163,217.636 116.488,217.773 116.814,217.91 117.141,218.048 117.476,218.181 117.812,218.314 118.149,218.448 118.475,218.566 118.801,218.685 119.128,218.803 119.46,218.924 119.793,219.044 120.114,219.164 120.439,219.277 120.764,219.39 121.09,219.504 121.419,219.621 121.749,219.739 122.079,219.856 122.411,219.966 122.755,220.075 123.099,220.184 123.454,220.291 123.81,220.398 124.166,220.506 124.53,220.616 124.894,220.726 125.274,220.835 125.652,220.944 126.029,221.053 126.392,221.163 126.758,221.273 127.125,221.382 127.502,221.49 127.879,221.597 128.263,221.703 128.646,221.809 129.03,221.914 129.419,222.013 129.827,222.117 130.238,222.221 130.647,222.326 131.057,222.431 131.433,222.542 131.81,222.653 132.187,222.765 132.599,222.884 133.012,223.005 133.377,223.124 133.742,223.243 134.108,223.363 134.503,223.497 134.898,223.631 135.254,223.746 135.61,223.861 135.967,223.977 136.358,224.11 136.75,224.245 137.142,224.382 137.485,224.497 137.828,224.613 138.193,224.752 138.558,224.893 138.926,225.036 139.27,225.171 139.616,225.308 139.964,225.445 140.334,225.592 140.705,225.742 141.077,225.893 141.418,226.036 141.748,226.17 142.079,226.306 142.414,226.457 142.75,226.61 143.086,226.765 143.417,226.919 143.748,227.074 144.08,227.238 144.421,227.407 144.763,227.577 145.104,227.748 145.437,227.919 145.773,228.093 146.109,228.268 146.451,228.444 146.794,228.619 147.136,228.796 147.48,228.982 147.816,229.161 148.152,229.339 148.506,229.532 148.859,229.724 149.195,229.899 149.56,230.109 149.923,230.317 150.291,230.511 150.655,230.702 151.014,230.888 151.39,231.104 151.719,231.269 152.05,231.434 152.416,231.627 152.784,231.823 153.153,232.019 153.516,232.215 153.879,232.41 154.229,232.583 154.579,232.757 154.928,232.932 155.263,233.095 155.598,233.258 155.934,233.42 156.285,233.602 156.637,233.785 156.989,233.968 157.338,234.149 157.688,234.33 158.038,234.511 158.378,234.676 158.718,234.841 159.058,235.006 159.395,235.172 159.733,235.336 160.07,235.5 160.419,235.682 160.767,235.864 161.113,236.046 161.457,236.228 161.8,236.41 162.141,236.59 162.479,236.759 162.815,236.928 163.161,237.122 163.502,237.304 163.841,237.486 164.188,237.686 164.535,237.887 164.879,238.088 165.221,238.292 165.562,238.496 165.902,238.698 166.243,238.889 166.583,239.078 166.936,239.291 167.279,239.474 167.62,239.655 167.959,239.835 168.335,240.063 168.68,240.235 169.025,240.406 169.385,240.585 169.745,240.763 170.105,240.941 170.462,241.112 170.819,241.282 171.177,241.453 171.517,241.608 171.857,241.763 172.203,241.93 172.537,242.082 172.871,242.235 173.215,242.411 173.56,242.588 173.905,242.765 174.233,242.923 174.571,243.105 174.91,243.29 175.232,243.46 175.556,243.632 175.88,243.806 176.225,244 176.549,244.167 176.874,244.336 177.212,244.54 177.552,244.746 177.893,244.955 178.248,245.176 178.605,245.399 178.964,245.624 179.288,245.819 179.613,246.016 179.962,246.246 180.299,246.438 180.638,246.631 180.978,246.823 181.332,247.061 181.659,247.261 181.987,247.461 182.363,247.699 182.74,247.938 183.083,248.133 183.448,248.372 183.814,248.612 184.181,248.852 184.522,249.045 184.877,249.261 185.203,249.457 185.53,249.653 185.857,249.851 186.197,250.049 186.522,250.225 186.848,250.402 187.185,250.599 187.522,250.795 187.859,250.99 188.201,251.194 188.542,251.398 188.883,251.602 189.228,251.814 189.574,252.026 189.903,252.223 190.245,252.432 190.586,252.641 190.927,252.849 191.263,253.062 191.627,253.301 191.992,253.539 192.362,253.79 192.732,254.041 193.074,254.255 193.41,254.462 193.746,254.67 194.082,254.878 194.416,255.078 194.765,255.29 195.114,255.5 195.446,255.686 195.777,255.871 196.109,256.055 196.443,256.239 196.777,256.422 197.11,256.606 197.457,256.81 197.803,257.014 198.128,257.194 198.465,257.385 198.802,257.575 199.137,257.764 199.467,257.947 199.837,258.18 200.204,258.39 200.571,258.597 200.938,258.803 201.332,259.047 201.671,259.227 202.009,259.405 202.375,259.603 202.74,259.8 203.106,259.997 203.474,260.198 203.843,260.397 204.195,260.573 204.547,260.749 204.901,260.925 205.244,261.093 205.589,261.26 205.934,261.428 206.298,261.614 206.662,261.8 207.028,261.987 207.379,262.152 207.732,262.316 208.085,262.48 208.425,262.633 208.766,262.786 209.106,262.941 209.454,263.105 209.803,263.268 210.152,263.431 210.502,263.597 210.852,263.763 211.191,263.921 211.531,264.078 211.868,264.224 212.197,264.375 212.527,264.526 212.857,264.678 213.196,264.838 213.535,264.998 213.871,265.165 214.228,265.346 214.584,265.527 214.94,265.707 215.281,265.878 215.621,266.049 215.976,266.234 216.327,266.409 216.678,266.582 217.028,266.753 217.399,266.945 217.757,267.122 218.116,267.295 218.491,267.462 218.865,267.628 219.234,267.798 219.603,267.965 219.981,268.129 220.327,268.268 220.672,268.405 221.017,268.541 221.386,268.693 221.754,268.845 222.12,268.997 222.472,269.14 222.824,269.283 223.176,269.424 223.525,269.576 223.873,269.725 224.214,269.85 224.554,269.974 224.898,270.101 225.273,270.241 225.648,270.381 226.021,270.519 226.372,270.651 226.723,270.781 227.072,270.911 227.49,271.045 227.845,271.176 228.19,271.286 228.535,271.394 228.879,271.502 229.251,271.631 229.623,271.759 229.995,271.886 230.35,271.991 230.715,272.107 231.079,272.223 231.478,272.349 231.876,272.475 232.252,272.6 232.625,272.723 232.996,272.846 233.421,272.946 233.845,273.044 234.202,273.143 234.561,273.242 234.921,273.34 235.305,273.448 235.69,273.555 236.075,273.661 236.443,273.758 236.811,273.855 237.179,273.951 237.581,274.061 237.983,274.169 238.361,274.274 238.739,274.377 239.116,274.48 239.498,274.592 239.88,274.703 240.257,274.814 240.634,274.924 241.011,275.035 241.384,275.152 241.756,275.268 242.129,275.385 242.5,275.5 " fill="none" stroke-width="1" stroke="rgb(0,0,255)" />
	<polyline points="129.5,359.5 129.882,359.674 130.267,359.859 130.653,360.044 131.03,360.237 131.427,360.472 131.824,360.707 132.192,360.908 132.566,361.131 132.94,361.354 133.298,361.554 133.655,361.755 134.012,361.958 134.341,362.165 134.671,362.373 135.001,362.581 135.357,362.815 135.713,363.051 136.045,363.25 136.39,363.485 136.736,363.721 137.084,363.958 137.435,364.188 137.787,364.419 138.14,364.651 138.455,364.85 138.77,365.052 139.094,365.272 139.412,365.467 139.729,365.665 140.048,365.864 140.362,366.069 140.667,366.255 140.972,366.441 141.295,366.646 141.62,366.852 141.945,367.058 142.261,367.259 142.577,367.46 142.894,367.662 143.198,367.845 143.502,368.028 143.82,368.232 144.138,368.436 144.451,368.635 144.764,368.833 145.077,369.031 145.405,369.256 145.733,369.481 146.061,369.704 146.404,369.963 146.736,370.197 147.068,370.432 147.404,370.695 147.739,370.959 148.072,371.219 148.397,371.489 148.723,371.758 149.048,372.028 149.378,372.3 149.707,372.572 150.037,372.845 150.373,373.106 150.705,373.373 151.037,373.639 151.364,373.886 151.714,374.148 152.065,374.411 152.399,374.639 152.733,374.867 153.068,375.097 153.386,375.313 153.703,375.529 154.021,375.746 154.34,375.953 154.65,376.143 154.961,376.333 155.282,376.539 155.605,376.746 155.927,376.951 156.249,377.157 156.571,377.363 156.893,377.569 157.204,377.759 157.514,377.948 157.834,378.155 158.152,378.362 158.47,378.577 158.787,378.79 159.103,379.003 159.436,379.228 159.767,379.452 160.098,379.674 160.446,379.931 160.772,380.168 161.096,380.404 161.429,380.664 161.76,380.923 162.087,381.168 162.421,381.432 162.754,381.695 163.086,381.955 163.423,382.209 163.758,382.463 164.093,382.715 164.417,382.936 164.755,383.182 165.093,383.427 165.407,383.639 165.721,383.851 166.034,384.062 166.352,384.261 166.668,384.458 166.984,384.652 167.314,384.88 167.643,385.107 167.954,385.302 168.295,385.534 168.635,385.766 168.975,385.998 169.32,386.235 169.663,386.471 170.006,386.706 170.319,386.903 170.658,387.14 170.996,387.377 171.33,387.597 171.664,387.816 171.997,388.037 172.323,388.25 172.649,388.462 172.974,388.674 173.328,388.914 173.661,389.125 173.994,389.336 174.339,389.567 174.684,389.798 175.029,390.03 175.364,390.254 175.699,390.478 176.035,390.701 176.347,390.9 176.678,391.132 177.011,391.364 177.342,391.589 177.675,391.816 178.008,392.045 178.313,392.245 178.618,392.446 178.924,392.648 179.25,392.882 179.576,393.116 179.906,393.346 180.227,393.576 180.549,393.807 180.87,394.04 181.184,394.263 181.498,394.487 181.812,394.713 182.126,394.94 182.444,395.172 182.762,395.404 183.08,395.636 183.401,395.872 183.722,396.108 184.033,396.342 184.339,396.573 184.645,396.804 184.951,397.034 185.267,397.269 185.583,397.505 185.899,397.74 186.234,398.001 186.553,398.242 186.872,398.481 187.194,398.728 187.515,398.977 187.824,399.189 188.134,399.4 188.476,399.655 188.818,399.911 189.133,400.126 189.471,400.377 189.81,400.628 190.151,400.879 190.464,401.09 190.806,401.345 191.148,401.599 191.466,401.812 191.785,402.026 192.126,402.282 192.449,402.502 192.773,402.721 193.098,402.939 193.414,403.152 193.731,403.364 194.049,403.574 194.394,403.824 194.741,404.075 195.069,404.295 195.401,404.541 195.734,404.787 196.068,405.032 196.399,405.261 196.73,405.489 197.062,405.718 197.386,405.921 197.719,406.138 198.052,406.355 198.384,406.558 198.717,406.761 199.05,406.963 199.377,407.153 199.705,407.342 200.032,407.53 200.368,407.73 200.705,407.93 201.043,408.119 201.379,408.305 201.714,408.49 202.05,408.675 202.398,408.873 202.745,409.072 203.089,409.268 203.415,409.441 203.74,409.613 204.063,409.785 204.414,409.98 204.759,410.166 205.103,410.352 205.431,410.527 205.758,410.702 206.084,410.875 206.417,411.06 206.764,411.27 207.109,411.479 207.434,411.672 207.758,411.865 208.079,412.056 208.401,412.241 208.721,412.427 209.039,412.613 209.364,412.828 209.687,413.043 210.001,413.254 210.331,413.486 210.658,413.718 210.983,413.948 211.31,414.185 211.634,414.422 211.957,414.659 212.29,414.896 212.613,415.138 212.935,415.381 213.272,415.645 213.609,415.908 213.947,416.167 214.293,416.443 214.639,416.72 214.986,417 215.33,417.246 215.675,417.493 216.023,417.741 216.34,417.952 216.671,418.182 217.005,418.412 217.336,418.64 217.668,418.867 218.003,419.096 218.318,419.296 218.634,419.498 218.952,419.7 219.277,419.905 219.596,420.115 219.917,420.324 220.235,420.527 220.555,420.731 220.877,420.935 221.199,421.147 221.523,421.359 221.847,421.572 222.171,421.79 222.495,422.01 222.819,422.222 223.144,422.434 223.473,422.672 223.803,422.911 224.13,423.143 224.461,423.388 224.794,423.635 225.128,423.882 225.475,424.134 225.824,424.387 226.175,424.641 226.509,424.856 226.845,425.073 227.174,425.282 227.504,425.49 227.831,425.696 228.172,425.922 228.49,426.116 228.812,426.312 229.135,426.508 229.494,426.74 229.854,426.972 230.207,427.208 230.562,427.444 230.917,427.679 231.254,427.874 231.591,428.066 231.961,428.297 232.283,428.487 232.603,428.677 232.921,428.867 233.304,429.116 233.628,429.303 233.952,429.49 234.269,429.68 234.587,429.869 234.906,430.058 235.237,430.247 235.568,430.436 235.899,430.623 236.202,430.786 236.504,430.948 236.809,431.111 237.112,431.272 237.418,431.434 237.723,431.594 238.027,431.753 238.328,431.908 238.627,432.062 238.923,432.214 239.232,432.376 239.54,432.536 239.846,432.695 240.15,432.851 240.444,433.001 240.752,433.168 241.059,433.334 241.386,433.519 241.711,433.701 242.033,433.881 242.352,434.059 242.658,434.229 242.96,434.397 243.29,434.575 243.618,434.751 243.943,434.926 244.26,435.113 244.574,435.3 244.886,435.486 245.236,435.653 245.584,435.82 245.929,435.985 246.247,436.182 246.563,436.379 246.877,436.575 247.203,436.754 247.528,436.932 247.858,437.108 248.179,437.304 248.5,437.5 " fill="none" stroke-width="1" stroke="rgb(0,0,255)" />
</g></svg>
