<?xml version="1.0" ?>
<svg xmlns="http://www.w3.org/2000/svg" xmlns:ev="http://www.w3.org/2001/xml-events" xmlns:xlink="http://www.w3.org/1999/xlink" baseProfile="full" height="600px" version="1.1" viewBox="74.3445 109.551 288.376 357.898" width="484px">
	<defs/>
	<path d="M 242.5,275.5 L 241.968,280.9 L 242.415,310.55 L 243.156,323.879 L 243.792,330.594 L 244.093,349.329 L 245.022,363.768 L 245.847,371.252 L 246.233,379.224 L 246.854,384.475 L 247.747,395.09 L 248.143,419.711 L 248.65,429.345 L 248.796,430.335 L 249.596,432.279 L 248.5,437.5" fill="none" stroke="rgb(31,119,180)" stroke-width="3"/>
	<path d="M 338.485,192.333 L 338.565,195.883 L 338.533,203.787 L 338.017,207.777 L 337.568,217.007 L 336.026,230.899 L 335.224,239.439 L 334.727,246.914 L 333.19,257.892 L 331.986,268.702 L 331.205,279.494 L 330.78,288.792 L 329.495,299.281 L 329.414,302.175 L 329.573,308.964 L 329.175,313.916 L 328.946,321.828 L 328.379,327.844 L 327.667,339.081 L 327.5,346.5" fill="none" stroke="rgb(174,199,232)" stroke-width="3"/>
	<path d="M 98.5,206.5 L 111.075,215.248 L 118.149,218.448 L 123.099,220.184 L 135.967,223.977 L 142.75,226.61 L 162.815,236.928 L 168.335,240.063 L 176.874,244.336 L 195.114,255.5 L 201.332,259.047 L 207.028,261.987 L 218.116,267.295 L 223.873,269.725 L 232.996,272.846 L 242.5,275.5" fill="none" stroke="rgb(255,127,14)" stroke-width="3"/>
	<path d="M 98.5,206.5 L 103.907,217.96 L 103.953,222.139 L 104.353,225.265 L 105.552,231.807 L 106.372,238.011 L 108.533,248.982 L 111.331,266.933 L 116.186,292.03 L 120.952,311.012 L 123.407,324.024 L 126.645,339.023 L 128.813,352.106 L 129.5,359.5" fill="none" stroke="rgb(255,187,120)" stroke-width="3"/>
	<path d="M 129.5,359.5 L 134.012,361.958 L 146.061,369.704 L 152.065,374.411 L 160.098,379.674 L 165.093,383.427 L 178.924,392.648 L 191.148,401.599 L 197.062,405.718 L 209.039,412.613 L 216.023,417.741 L 223.144,422.434 L 226.175,424.641 L 230.917,427.679 L 235.899,430.623 L 248.5,437.5" fill="none" stroke="rgb(44,160,44)" stroke-width="3"/>
	<path d="M 207.5,139.5 L 212.72,141.989 L 221.057,145.599 L 233.966,150.294 L 245.114,154.007 L 254.106,156.37 L 259.461,158.319 L 268.84,162.044 L 272.93,163.431 L 277.915,164.869 L 280.135,165.691 L 288.879,169.621 L 294.835,172.074 L 319.897,183.035 L 323.019,184.531 L 334.061,190.565 L 338.485,192.333" fill="none" stroke="rgb(152,223,138)" stroke-width="3"/>
	<path d="M 98.5,206.5 L 103.081,202.767 L 115.137,193.775 L 125.084,187.28 L 129.929,183.909 L 134.159,181.267 L 147.137,173.896 L 158.602,166.785 L 162.081,164.942 L 174.704,158.927 L 187.058,152.112 L 190.386,150.042 L 194.607,146.977 L 200.123,143.419 L 202.605,141.961 L 207.5,139.5" fill="none" stroke="rgb(214,39,40)" stroke-width="3"/>
	<path d="M 242.5,275.5 L 246.138,271.884 L 256.423,262.934 L 279.09,242.213 L 282.992,238.929 L 292.024,230.856 L 302.022,222.807 L 311.971,213.753 L 320.171,207.013 L 329.409,199.001 L 333.926,195.442 L 336.314,193.893 L 337.295,192.969 L 338.485,192.333" fill="none" stroke="rgb(255,152,150)" stroke-width="3"/>
	<path d="M 248.5,437.5 L 253.927,431.261 L 257.968,427.843 L 265.605,420.297 L 275.048,410.475 L 287.986,394.991 L 292.377,390.08 L 312.625,366.0 L 322.696,353.402 L 325.891,349.009 L 327.5,346.5" fill="none" stroke="rgb(148,103,189)" stroke-width="3"/>
	<path d="M 210.5,159.5 L 215.007,160.642 L 222.979,163.241 L 227.924,164.663 L 235.994,167.68 L 242.131,169.75 L 260.148,177.841 L 266.521,180.095 L 291.874,188.465 L 295.89,189.989 L 303.5,193.5" fill="none" stroke="rgb(197,176,213)" stroke-width="3"/>
	<path d="M 232.5,250.5 L 249.074,235.058 L 260.92,224.975 L 269.913,218.083 L 279.633,210.059 L 287.047,204.361 L 292.991,200.268 L 303.5,193.5" fill="none" stroke="rgb(140,86,75)" stroke-width="3"/>
	<path d="M 141.377,202.48 L 150.897,196.304 L 165.491,187.434 L 173.491,181.98 L 186.977,172.438 L 191.988,169.216 L 196.029,166.776 L 204.007,162.328 L 210.5,159.5" fill="none" stroke="rgb(196,156,148)" stroke-width="3"/>
	<path d="M 141.377,202.48 L 143.9,205.026 L 147.137,207.614 L 150.884,210.098 L 153.033,211.246 L 164.932,217.083 L 172.887,220.127 L 189.08,226.861 L 203.054,233.882 L 209.854,237.071 L 212.5,238.5" fill="none" stroke="rgb(227,119,194)" stroke-width="3"/>
	<path d="M 212.5,238.5 L 212.948,230.379 L 212.594,221.539 L 212.461,210.026 L 212.351,207.353 L 211.571,200.24 L 211.166,193.37 L 211.067,167.304 L 210.5,159.5" fill="none" stroke="rgb(247,182,210)" stroke-width="3"/>
	<path d="M 212.5,238.5 L 226.511,247.222 L 232.5,250.5" fill="none" stroke="rgb(127,127,127)" stroke-width="3"/>
</svg>
