<?xml version="1.0" ?>
<svg xmlns="http://www.w3.org/2000/svg" xmlns:ev="http://www.w3.org/2001/xml-events" xmlns:xlink="http://www.w3.org/1999/xlink" baseProfile="full" height="492px" version="1.1" viewBox="-16.396553550000004 -10.364643550000004 537.4320071 440.1382871" width="600px">
	<defs/>
	<path d="M 373.5,26.5 L 374.239,26.6926 L 376.229,27.7276 L 383.832,32.5781 L 387.36,35.0776 L 396.36,43.1654 L 402.321,47.7547 L 403.296,48.6745 L 408.002,52.3191 L 412.175,55.8299 L 421.201,62.9106 L 423.977,65.2575 L 439.265,79.8355 L 446.384,88.0406 L 449.989,91.7654 L 455.317,96.9062 L 460.405,101.229 L 462.156,102.972 L 469.917,112.056 L 471.637,114.749 L 472.367,117.732 L 472.804,122.018 L 473.204,140.963 L 474.017,156.489 L 473.573,167.069 L 473.72,177.948 L 475.33,195.305 L 476.063,209.633 L 475.956,214.019 L 475.246,226.147 L 474.576,232.198 L 473.647,244.341 L 473.569,254.5 L 473.996,264.336 L 473.176,279.826 L 472.773,298.791 L 472.286,303.097 L 471.843,304.917 L 470.924,307.119 L 462.966,316.767 L 460.74,319.033 L 456.284,322.877 L 450.962,328.015 L 446.376,332.825 L 440.094,340.001 L 433.881,346.141 L 430.875,348.823 L 426.034,353.533 L 418.401,359.956 L 413.288,363.889 L 401.858,373.351 L 398.489,375.881 L 387.825,385.224 L 383.716,388.033 L 378.67,391.168 L 376.477,392.45 L 375.114,392.853 L 374.318,392.909 L 370.189,392.337 L 361.069,390.814 L 350.217,388.753" fill="none" stroke="rgb(31,119,180)" stroke-width="3"/>
	<path d="M 356.175,30.7814 L 355.328,29.7512 L 353.956,29.73 L 348.003,30.1601 L 340.253,31.1998 L 327.939,33.4554 L 310.015,35.9531 L 306.206,36.9275 L 302.132,38.1937 L 299.936,38.678 L 277.083,42.2084 L 269.225,44.171 L 257.931,45.6754 L 247.777,48.4092 L 240.089,49.8096 L 234.085,51.2248 L 225.992,53.4112 L 220.581,55.08 L 218.843,55.4548 L 209.073,56.8684 L 200.181,58.772 L 190.973,61.0005 L 175.978,63.2913 L 169.923,64.5022 L 164.208,66.2466 L 157.991,67.8671 L 155.97,68.5633 L 152.569,70.1099 L 145.966,73.6234 L 143.936,74.535 L 135.845,77.8653 L 126.841,81.052 L 121.104,83.3153 L 117.789,84.3701 L 107.885,86.9371 L 96.3481,90.9948 L 88.165,94.6404 L 78.9214,98.2456 L 70.8918,102.245 L 69.2417,103.338 L 69.2032,104.068 L 68.2688,104.734" fill="none" stroke="rgb(174,199,232)" stroke-width="3"/>
	<path d="M 68.6903,316.031 L 70.4375,318.089 L 71.3127,318.565 L 79.8337,322.865 L 89.9394,326.895 L 96.8354,330.039 L 107.041,333.683 L 117.05,336.253 L 121.088,337.461 L 126.979,339.824 L 137.055,343.284 L 141.92,345.248 L 145.625,346.948 L 151.795,350.247 L 155.984,352.193 L 170.485,356.412 L 175.204,357.385 L 191.707,359.976 L 199.222,361.833 L 208.128,363.678 L 219.434,365.407 L 236.931,370.148 L 248.147,372.217 L 259.038,375.109 L 264.757,375.771 L 269.058,376.463 L 276.024,378.249 L 278.098,378.637 L 299.751,381.834 L 308.458,383.96 L 319.524,386.04 L 329.865,387.526 L 338.838,389.108 L 344.021,389.721 L 346.727,389.754 L 349.839,389.201 L 350.217,388.753" fill="none" stroke="rgb(255,127,14)" stroke-width="3"/>
	<path d="M 262.5,346.5 L 262.574,320.257 L 263.312,310.346 L 263.619,294.95 L 264.096,289.008 L 264.809,270.357 L 264.51,240.99 L 264.721,226.336 L 264.593,211.652 L 264.662,193.236 L 264.363,182.385 L 264.343,174.89 L 264.731,149.227 L 264.368,134.498 L 263.758,124.741 L 263.514,109.213 L 262.627,99.3272 L 262.441,95.3939 L 262.334,77.9381 L 262.5,73.5" fill="none" stroke="rgb(255,187,120)" stroke-width="3"/>
	<path d="M 376.321,108.366 L 371.837,109.751 L 369.988,110.528 L 366.914,112.088 L 365.571,112.975 L 361.054,116.776 L 355.705,122.187 L 353.536,124.936 L 348.05,132.924 L 344.543,138.798 L 341.955,143.933 L 339.659,149.875 L 336.304,160.105 L 333.741,169.142 L 332.687,173.753 L 331.745,179.699 L 330.654,190.066 L 330.373,198.149 L 329.517,206.805 L 329.457,213.574 L 330.202,221.254 L 330.726,231.752 L 331.74,240.854 L 333.138,249.113 L 333.982,252.631 L 335.777,258.894 L 339.416,270.068 L 341.609,276.028 L 343.918,280.854 L 348.991,289.204 L 353.178,295.08 L 355.326,297.836 L 359.727,302.676 L 364.974,307.297 L 367.22,308.835 L 368.961,309.718 L 373.131,311.103 L 375.847,311.694 L 378.957,312.11 L 381.688,312.236 L 384.078,312.081" fill="none" stroke="rgb(44,160,44)" stroke-width="3"/>
	<path d="M 376.321,108.366 L 379.257,108.366 L 382.29,108.608 L 387.93,109.933 L 392.097,111.572 L 395.887,114.025 L 398.99,116.534 L 400.805,118.258 L 403.629,121.191 L 407.039,125.153 L 411.948,132.198 L 414.766,136.689 L 416.919,140.474 L 419.422,146.206 L 421.741,152.762 L 425.028,163.059 L 427.18,171.134 L 428.341,178.09 L 429.449,188.006 L 429.782,191.914 L 430.088,198.739 L 430.824,207.267 L 430.863,214.126 L 430.188,222.261 L 429.784,230.789 L 428.815,238.98 L 427.398,247.981 L 426.526,252.151 L 424.226,260.117 L 420.7,270.857 L 418.396,276.893 L 416.081,281.59 L 411.908,288.454 L 406.075,296.631 L 404.176,298.868 L 400.088,303.142 L 395.159,307.394 L 393.057,308.708 L 390.946,309.739 L 387.803,311.001 L 384.078,312.081" fill="none" stroke="rgb(152,223,138)" stroke-width="3"/>
	<path d="M 47.5,310.5 L 44.7854,302.765 L 43.4706,298.194 L 40.7591,289.878 L 38.8802,282.202 L 36.3903,270.07 L 34.4275,254.705 L 32.6456,244.048 L 30.9564,235.08 L 30.3067,228.83 L 28.8656,220.17 L 28.5881,215.414 L 28.5759,205.933 L 28.7622,201.084 L 30.2626,191.946 L 30.8523,186.252 L 34.4403,165.907 L 35.2347,160.177 L 35.9679,153.278 L 38.5765,139.976 L 41.1381,130.028 L 43.0243,125.056 L 45.3646,117.855 L 47.9816,111.7 L 48.5,109.5" fill="none" stroke="rgb(214,39,40)" stroke-width="3"/>
	<path d="M 68.2688,104.734 L 69.7971,105.631 L 72.1689,105.958 L 73.9292,106.007 L 80.0008,105.878 L 89.1563,104.905 L 98.9538,103.251 L 115.884,100.941 L 124.319,100.304 L 128.047,99.8431 L 139.177,97.754 L 143.773,97.1548 L 160.251,94.2671 L 167.3,92.8748 L 171.902,92.1918 L 180.049,90.3892 L 193.605,87.0042 L 204.915,85.3564 L 216.187,83.1909 L 222.203,81.7136 L 230.315,79.9753 L 240.225,77.3387 L 247.765,76.0175 L 252.791,74.9246 L 260.032,74.134 L 262.5,73.5" fill="none" stroke="rgb(255,152,150)" stroke-width="3"/>
	<path d="M 68.6903,316.031 L 69.8623,314.943 L 73.1556,314.687 L 79.1418,314.949 L 86.201,315.569 L 89.7505,315.991 L 104.264,318.339 L 113.841,319.517 L 126.958,320.763 L 139.042,322.994 L 144.135,323.65 L 154.107,325.294 L 174.133,329.026 L 181.059,330.552 L 191.855,333.371 L 196.107,334.15 L 205.923,335.505 L 213.395,336.954 L 229.872,340.662 L 238.715,343.011 L 243.408,343.948 L 252.177,345.377 L 262.5,346.5" fill="none" stroke="rgb(148,103,189)" stroke-width="3"/>
	<path d="M 262.5,73.5 L 271.201,69.5452 L 282.148,64.7646 L 295.041,58.1818 L 298.89,56.3694 L 320.11,47.2729 L 331.779,42.4389 L 336.886,40.541 L 341.082,38.6865 L 350.041,34.3487 L 353.864,32.6716 L 354.865,32.0192 L 356.175,30.7814" fill="none" stroke="rgb(197,176,213)" stroke-width="3"/>
	<path d="M 350.217,388.753 L 349.001,386.831 L 347.655,385.707 L 346.01,384.708 L 340.598,382.08 L 337.137,380.486 L 330.066,377.644 L 311.004,369.551 L 296.275,363.1 L 282.807,356.19 L 271.652,351.117 L 262.5,346.5" fill="none" stroke="rgb(140,86,75)" stroke-width="3"/>
	<path d="M 47.5,310.5 L 58.8546,312.968 L 68.6903,316.031" fill="none" stroke="rgb(196,156,148)" stroke-width="3"/>
	<path d="M 48.5,109.5 L 58.0452,107.521 L 68.2688,104.734" fill="none" stroke="rgb(227,119,194)" stroke-width="3"/>
	<path d="M 356.175,30.7814 L 361.943,29.4931 L 368.95,27.465 L 373.5,26.5" fill="none" stroke="rgb(247,182,210)" stroke-width="3"/>
</svg>
