<?xml version="1.0" standalone="no" ?>
<!DOCTYPE svg PUBLIC "-//W3C//DTD SVG 1.1//EN" "http://www.w3.org/Graphics/SVG/1.1/DTD/svg11.dtd">
<svg width="512px" height="512px" xmlns="http://www.w3.org/2000/svg" xmlns:xlink="http://www.w3.org/1999/xlink" version="1.1" >

<g>	<image style="overflow: visible; opacity: 0.4" width="512" height="512" xlink:href="Nuts_013_1_512_erode.png" />

</g>
<g>	<polyline points="262.5,73.5 262.981,73.3056 263.497,73.1035 264.015,72.9002 264.437,72.7136 264.859,72.5268 265.298,72.3351 265.739,72.1429 266.181,71.95 266.584,71.7606 266.989,71.5705 267.41,71.3742 267.834,71.1767 268.247,70.9733 268.643,70.7789 269.042,70.5827 269.458,70.3702 269.875,70.1563 270.282,69.9651 270.739,69.7559 271.201,69.5452 271.675,69.3406 272.153,69.1348 272.649,68.9174 273.094,68.7173 273.555,68.529 274.017,68.3404 274.463,68.1274 274.912,67.9127 275.334,67.7367 275.757,67.5601 276.183,67.3829 276.602,67.2153 277.022,67.0473 277.428,66.879 277.835,66.7105 278.229,66.5359 278.625,66.3606 279.023,66.1848 279.424,66.0132 279.823,65.84 280.205,65.66 280.588,65.4796 280.971,65.2989 281.364,65.1212 281.757,64.9431 282.148,64.7646 282.533,64.5664 282.918,64.3678 283.313,64.1862 283.709,64.0043 284.105,63.8176 284.485,63.6181 284.866,63.4183 285.266,63.2159 285.67,63.0116 286.146,62.744 286.529,62.5432 286.913,62.3413 287.323,62.1223 287.735,61.9028 288.139,61.6891 288.516,61.497 288.894,61.3048 289.293,61.099 289.693,60.8951 290.093,60.6911 290.476,60.4932 290.859,60.2952 291.268,60.0906 291.686,59.8814 292.105,59.6722 292.497,59.4741 292.89,59.2765 293.38,59.0228 293.815,58.8206 294.223,58.6076 294.632,58.3947 295.041,58.1818 295.484,57.9756 295.932,57.7636 296.339,57.5728 296.747,57.3824 297.154,57.1922 297.639,56.9432 298.077,56.748 298.483,56.5588 298.89,56.3694 299.32,56.1926 299.75,56.0159 300.177,55.8407 300.585,55.667 300.993,55.4934 301.414,55.3088 301.836,55.1243 302.247,54.9542 302.657,54.7844 303.067,54.6144 303.478,54.4245 303.89,54.2347 304.299,54.0582 304.707,53.8826 305.117,53.707 305.544,53.5105 305.972,53.314 306.388,53.1346 306.805,52.9553 307.216,52.7722 307.627,52.5898 308.035,52.4082 308.46,52.2259 308.886,52.043 309.302,51.8644 309.718,51.6857 310.135,51.507 310.575,51.3085 311.016,51.1101 311.43,50.9411 311.845,50.774 312.272,50.5893 312.697,50.405 313.122,50.2212 313.531,50.0581 313.94,49.8949 314.355,49.7315 314.771,49.5683 315.185,49.4052 315.591,49.2351 315.996,49.0651 316.403,48.8978 316.81,48.7307 317.217,48.5484 317.624,48.3662 318.03,48.184 318.435,48.0173 318.838,47.8509 319.263,47.6577 319.687,47.4651 320.11,47.2729 320.512,47.1103 320.912,46.9484 321.335,46.7809 321.756,46.6142 322.174,46.4483 322.569,46.2863 322.962,46.1248 323.382,45.9644 323.801,45.8033 324.202,45.6368 324.601,45.4708 324.999,45.3052 325.411,45.1369 325.823,44.9689 326.245,44.7874 326.664,44.6063 327.081,44.4256 327.497,44.2441 327.909,44.0635 328.346,43.8861 328.779,43.7099 329.207,43.5347 329.612,43.3541 330.016,43.1737 330.463,43.0008 330.922,42.7988 331.351,42.6187 331.779,42.4389 332.235,42.2667 332.69,42.0943 333.145,41.9216 333.611,41.7425 334.077,41.5631 334.543,41.3936 335.009,41.2236 335.495,41.0502 335.979,40.8987 336.433,40.7202 336.886,40.541 337.331,40.3466 337.775,40.1521 338.251,39.9436 338.673,39.7636 339.094,39.5835 339.498,39.3982 339.904,39.2119 340.3,39.0361 340.69,38.8617 341.082,38.6865 341.479,38.49 341.877,38.2927 342.252,38.1233 342.627,37.9534 342.999,37.7837 343.375,37.609 343.749,37.4343 344.123,37.2597 344.481,37.0893 344.84,36.9184 345.207,36.7467 345.574,36.5749 345.941,36.403 346.301,36.2224 346.661,36.0415 347.017,35.8573 347.384,35.6809 347.75,35.5042 348.117,35.3274 348.476,35.147 348.834,34.9668 349.237,34.7607 349.64,34.5546 350.041,34.3487 350.413,34.1768 350.785,34.0048 351.152,33.8389 351.532,33.6646 351.91,33.4906 352.291,33.3269 352.671,33.1633 353.049,32.9998 353.461,32.8349 353.864,32.6716 354.225,32.4812 354.554,32.2498 354.865,32.0192 355.153,31.7476 355.423,31.4898 355.678,31.2447 355.92,31.0112 356.175,30.7814 " fill="none" stroke-width="1" stroke="rgb(0,0,255)" />
	<polyline points="373.5,26.5 374.239,26.6926 374.929,27.0425 375.579,27.3852 376.229,27.7276 376.871,28.1316 377.455,28.4904 378.038,28.8491 378.584,29.2025 379.13,29.5565 379.598,29.8399 380.065,30.1244 380.565,30.4584 381.064,30.7929 381.52,31.0796 381.97,31.3612 382.463,31.6946 382.955,32.0271 383.394,32.3033 383.832,32.5781 384.302,32.8967 384.934,33.3751 385.404,33.694 385.872,34.0101 386.369,34.3667 386.863,34.7222 387.36,35.0776 388.133,35.7567 388.673,36.1886 389.401,36.8587 389.965,37.3524 390.549,37.8736 391.089,38.3451 391.701,38.9095 392.221,39.4454 392.785,39.9616 393.379,40.5037 393.987,41.0596 394.529,41.532 395.087,42.0184 395.79,42.677 396.36,43.1654 396.864,43.5716 397.367,43.9662 397.912,44.4023 398.443,44.8292 398.939,45.2169 399.396,45.5527 399.854,45.8903 400.355,46.2725 400.856,46.6539 401.336,47.0135 401.806,47.3591 402.321,47.7547 403.296,48.6745 403.79,49.0486 404.328,49.4725 404.863,49.8934 405.35,50.2544 405.836,50.6148 406.344,51.0078 406.932,51.4902 407.533,51.9884 408.002,52.3191 408.538,52.7502 409.154,53.2722 409.836,53.8749 410.443,54.3943 411.056,54.9192 411.61,55.3683 412.175,55.8299 412.735,56.2806 413.27,56.7013 413.803,57.1211 414.299,57.4917 414.796,57.8616 415.292,58.2418 415.79,58.6248 416.529,59.2552 416.992,59.5906 417.446,59.9262 417.937,60.3045 418.499,60.7539 419.061,61.2027 419.595,61.6313 420.123,62.0544 420.667,62.4858 421.201,62.9106 421.713,63.3248 422.212,63.7315 422.873,64.3311 423.363,64.7424 423.977,65.2575 424.528,65.7629 425.1,66.3364 425.655,66.8479 426.104,67.2168 426.636,67.7063 427.159,68.1872 427.701,68.7201 428.235,69.25 428.781,69.8032 429.192,70.2615 429.729,70.7875 430.282,71.3389 430.832,71.8867 431.327,72.3281 431.826,72.7737 432.353,73.256 432.878,73.7367 433.407,74.2198 433.9,74.6488 434.402,75.0946 434.947,75.6227 435.484,76.1712 436.039,76.7109 436.542,77.1756 437.076,77.6806 437.616,78.2171 438.144,78.7514 438.7,79.289 439.265,79.8355 439.811,80.4045 440.309,80.9516 440.803,81.5014 441.288,82.0501 441.733,82.5677 442.184,83.0945 442.633,83.6171 443.089,84.1493 443.494,84.6363 443.905,85.1295 444.323,85.6205 444.743,86.1141 445.168,86.6152 445.557,87.0804 445.955,87.5485 446.384,88.0406 446.931,88.6222 447.408,89.141 447.87,89.6471 448.387,90.1743 448.92,90.7005 449.448,91.2303 449.989,91.7654 450.506,92.2658 451.022,92.7642 451.541,93.2517 452.061,93.7396 452.589,94.2627 453.119,94.7876 453.637,95.2656 454.158,95.7463 454.714,96.2707 455.317,96.9062 455.86,97.399 456.334,97.7978 456.825,98.2085 457.319,98.62 457.814,99.0339 458.349,99.4945 458.877,99.9499 459.368,100.357 459.858,100.762 460.405,101.229 461.022,101.817 461.594,102.399 462.156,102.972 462.688,103.531 463.231,104.104 463.613,104.567 463.997,105.035 464.449,105.56 464.908,106.094 465.274,106.554 465.639,107.018 466.124,107.578 466.63,108.164 467.028,108.668 467.443,109.178 467.974,109.771 468.458,110.336 468.923,110.888 469.428,111.48 469.917,112.056 470.291,112.574 470.652,113.083 470.987,113.592 471.319,114.143 471.637,114.749 471.822,115.287 472,115.83 472.128,116.469 472.252,117.11 472.367,117.732 472.461,118.423 472.551,119.114 472.633,119.805 472.696,120.549 472.755,121.285 472.804,122.018 472.84,122.778 472.869,123.514 472.897,124.244 472.918,124.994 472.936,125.712 472.951,126.448 472.965,127.188 472.977,127.899 472.988,128.63 472.999,129.365 473.009,130.078 473.019,130.81 473.029,131.526 473.039,132.241 473.049,132.971 473.059,133.69 473.068,134.422 473.078,135.149 473.09,135.868 473.1,136.603 473.11,137.332 473.125,138.055 473.136,138.794 473.158,139.516 473.182,140.232 473.204,140.963 473.245,141.652 473.288,142.338 473.324,143.048 473.373,143.718 473.415,144.419 473.458,145.127 473.502,145.825 473.544,146.542 473.584,147.264 473.624,147.978 473.651,148.716 473.682,149.441 473.711,150.163 473.731,150.899 473.763,151.616 473.794,152.331 473.827,153.036 473.87,153.727 473.911,154.412 473.951,155.095 473.982,155.802 474.017,156.489 474.039,157.187 474.027,157.911 473.989,158.606 473.922,159.252 473.887,159.949 473.834,160.632 473.779,161.315 473.749,162.014 473.712,162.74 473.685,163.431 473.658,164.136 473.627,164.9 473.606,165.594 473.585,166.293 473.573,167.069 473.567,167.753 473.566,168.505 473.565,169.265 473.566,169.95 473.569,170.704 473.574,171.405 473.58,172.107 473.588,172.862 473.598,173.574 473.608,174.276 473.622,175.021 473.639,175.732 473.663,176.483 473.688,177.226 473.72,177.948 473.769,178.69 473.834,179.383 473.9,180.074 473.981,180.777 474.058,181.446 474.137,182.113 474.22,182.81 474.286,183.495 474.352,184.181 474.403,184.924 474.449,185.645 474.489,186.389 474.53,187.137 474.581,187.859 474.641,188.562 474.702,189.27 474.774,189.947 474.853,190.58 474.934,191.223 475.014,191.929 475.087,192.576 475.16,193.224 475.213,193.956 475.272,194.632 475.33,195.305 475.367,196.05 475.401,196.774 475.425,197.516 475.448,198.25 475.471,198.973 475.493,199.711 475.52,200.438 475.546,201.165 475.579,201.903 475.62,202.615 475.66,203.327 475.716,204.009 475.771,204.688 475.839,205.346 475.906,206.007 475.947,206.724 475.976,207.446 476.03,208.137 476.053,208.878 476.063,209.633 476.061,210.37 476.057,211.101 476.042,211.844 476.016,212.577 475.988,213.319 475.956,214.019 475.903,214.723 475.847,215.387 475.791,216.052 475.735,216.74 475.69,217.442 475.644,218.149 475.608,218.879 475.581,219.616 475.554,220.355 475.524,221.08 475.493,221.809 475.46,222.529 475.426,223.256 475.391,223.992 475.346,224.709 475.296,225.428 475.246,226.147 475.174,226.796 475.109,227.495 475.043,228.201 474.953,228.809 474.871,229.498 474.793,230.187 474.716,230.825 474.646,231.516 474.576,232.198 474.518,232.912 474.467,233.639 474.425,234.387 474.384,235.127 474.337,235.843 474.284,236.581 474.229,237.316 474.158,237.991 474.076,238.687 474.027,239.413 473.947,240.068 473.872,240.774 473.813,241.463 473.754,242.155 473.709,242.893 473.678,243.613 473.647,244.341 473.624,245.083 473.608,245.799 473.594,246.525 473.581,247.261 473.572,247.975 473.563,248.707 473.558,249.42 473.553,250.135 473.549,250.873 473.549,251.59 473.549,252.299 473.551,253.038 473.557,253.752 473.569,254.5 473.582,255.241 473.606,255.948 473.635,256.688 473.666,257.398 473.697,258.104 473.729,258.839 473.774,259.515 473.819,260.188 473.866,260.885 473.904,261.577 473.941,262.261 474.004,262.911 474.004,263.627 473.996,264.336 473.93,264.985 473.885,265.66 473.84,266.337 473.793,267.022 473.741,267.692 473.712,268.406 473.682,269.125 473.653,269.843 473.633,270.58 473.612,271.322 473.585,272.057 473.553,272.785 473.513,273.495 473.474,274.208 473.436,274.927 473.398,275.626 473.36,276.32 473.32,277.021 473.279,277.698 473.244,278.409 473.209,279.123 473.176,279.826 473.155,280.554 473.135,281.285 473.116,282.017 473.102,282.739 473.089,283.473 473.077,284.212 473.067,284.928 473.057,285.665 473.048,286.379 473.04,287.097 473.031,287.833 473.022,288.551 473.013,289.268 473.004,289.999 472.995,290.719 472.984,291.449 472.973,292.173 472.961,292.897 472.947,293.625 472.932,294.346 472.915,295.076 472.894,295.8 472.871,296.546 472.845,297.292 472.813,298.02 472.773,298.791 472.72,299.51 472.664,300.237 472.595,301.019 472.506,301.695 472.401,302.399 472.286,303.097 472.148,303.703 471.997,304.316 471.843,304.917 471.619,305.47 471.39,306.018 471.16,306.572 470.924,307.119 470.528,307.679 470.126,308.236 469.669,308.797 469.172,309.373 468.767,309.884 468.259,310.464 467.753,311.037 467.271,311.583 466.768,312.149 466.332,312.675 465.884,313.216 465.433,313.763 465.045,314.236 464.672,314.717 464.289,315.203 463.774,315.796 463.364,316.291 462.966,316.767 462.392,317.343 461.84,317.895 461.292,318.463 460.74,319.033 460.267,319.44 459.667,320.045 459.175,320.457 458.727,320.815 458.269,321.179 457.815,321.539 457.283,321.989 456.736,322.5 456.284,322.877 455.712,323.411 455.153,323.935 454.589,324.483 454.039,325.018 453.53,325.496 453.026,325.969 452.515,326.491 452.009,327.009 451.485,327.511 450.962,328.015 450.456,328.531 449.95,329.047 449.419,329.584 448.883,330.126 448.366,330.665 447.836,331.218 447.377,331.73 446.909,332.252 446.376,332.825 445.996,333.276 445.571,333.769 445.005,334.371 444.603,334.849 443.892,335.57 443.492,336.047 443.143,336.484 442.779,336.932 442.361,337.425 441.942,337.919 441.466,338.458 440.997,338.989 440.54,339.502 440.094,340.001 439.532,340.562 438.996,341.097 438.479,341.623 437.976,342.135 437.473,342.633 436.973,343.128 436.481,343.613 435.982,344.103 435.469,344.593 434.945,345.093 434.419,345.611 433.881,346.141 433.411,346.55 432.939,346.962 432.405,347.452 431.877,347.936 431.372,348.383 430.875,348.823 430.301,349.397 429.735,349.962 429.188,350.485 428.611,351.005 428.119,351.522 427.654,352.009 427.099,352.541 426.607,352.989 426.034,353.533 425.502,354.007 424.944,354.504 424.431,354.941 423.862,355.439 423.357,355.855 422.872,356.24 422.398,356.609 421.924,356.978 421.367,357.445 420.808,357.912 420.299,358.315 419.79,358.716 419.286,359.112 418.401,359.956 417.893,360.344 417.371,360.753 416.845,361.164 416.373,361.504 415.899,361.848 415.357,362.274 414.813,362.703 414.324,363.077 413.817,363.472 413.288,363.889 412.682,364.405 412.089,364.906 411.57,365.326 411.057,365.743 410.419,366.305 409.786,366.862 409.239,367.318 408.661,367.8 408.117,368.244 407.602,368.658 407.085,369.074 406.45,369.617 405.809,370.166 405.288,370.581 404.767,370.998 404.229,371.429 403.743,371.808 403.221,372.222 402.688,372.649 401.858,373.351 401.38,373.721 400.909,374.075 400.41,374.453 399.916,374.825 399.453,375.162 399.009,375.474 398.489,375.881 397.789,376.497 397.288,376.878 396.713,377.443 396.154,377.922 395.548,378.476 394.958,379.017 394.412,379.499 393.872,379.977 393.314,380.478 392.754,380.981 392.18,381.507 391.578,382.049 390.964,382.601 390.397,383.08 389.769,383.625 389.038,384.267 388.4,384.792 387.825,385.224 387.3,385.596 386.779,385.965 386.247,386.345 385.744,386.674 385.255,386.993 384.76,387.321 384.223,387.694 383.716,388.033 383.245,388.322 382.773,388.61 382.19,389.022 381.716,389.302 381.244,389.581 380.721,389.922 380.207,390.244 379.708,390.544 379.212,390.842 378.67,391.168 378.131,391.491 377.62,391.785 377.113,392.076 376.477,392.45 375.857,392.729 375.114,392.853 374.318,392.909 373.627,392.821 372.945,392.732 372.265,392.637 371.564,392.538 370.874,392.438 370.189,392.337 369.52,392.221 368.861,392.106 368.183,391.998 367.527,391.882 366.879,391.766 366.182,391.651 365.543,391.539 364.911,391.428 364.248,391.315 363.603,391.209 362.964,391.102 362.298,391.002 361.681,390.909 361.069,390.814 360.516,390.685 359.965,390.556 359.349,390.47 358.736,390.384 358.159,390.275 357.602,390.174 357.047,390.072 356.53,389.956 355.992,389.85 355.479,389.75 354.963,389.652 354.446,389.546 353.929,389.44 353.438,389.317 352.947,389.195 352.375,389.119 351.803,389.045 351.211,388.992 350.713,388.873 350.217,388.753 " fill="none" stroke-width="1" stroke="rgb(0,0,255)" />
	<polyline points="48.5,109.5 48.9125,109.426 49.3212,109.351 49.7298,109.276 50.1384,109.201 50.5259,109.125 50.9134,109.049 51.3026,108.971 51.6904,108.902 52.0775,108.833 52.4412,108.754 52.8042,108.674 53.1666,108.594 53.5505,108.515 53.9336,108.436 54.2968,108.358 54.6591,108.279 55.0203,108.199 55.406,108.118 55.7891,108.035 56.1843,107.96 56.5388,107.874 56.8943,107.787 57.2781,107.698 57.6618,107.61 58.0452,107.521 58.4068,107.432 58.768,107.343 59.1288,107.253 59.5096,107.158 59.8901,107.063 60.2536,106.97 60.6127,106.877 60.9714,106.782 61.3456,106.688 61.7194,106.593 62.0928,106.496 62.4533,106.398 62.8135,106.3 63.1734,106.201 63.5556,106.108 63.9374,106.014 64.3033,105.905 64.6686,105.795 65.0334,105.685 65.3972,105.577 65.7605,105.468 66.1235,105.359 66.4921,105.256 66.8602,105.152 67.2369,105.056 67.6135,104.959 67.9418,104.847 68.2688,104.734 " fill="none" stroke-width="1" stroke="rgb(0,0,255)" />
	<polyline points="47.5,310.5 47.9255,310.594 48.3629,310.691 48.8004,310.788 49.2217,310.866 49.6432,310.944 50.0648,311.022 50.4762,311.111 50.8876,311.201 51.2846,311.288 51.6817,311.376 52.0787,311.463 52.4738,311.55 52.8689,311.637 53.2593,311.72 53.65,311.802 54.041,311.884 54.4445,311.964 54.8568,312.045 55.2528,312.132 55.6487,312.219 56.0446,312.306 56.4469,312.397 56.8492,312.488 57.2481,312.584 57.6471,312.681 58.0461,312.777 58.4504,312.872 58.8546,312.968 59.2484,313.076 59.6419,313.185 60.035,313.294 60.4347,313.408 60.8342,313.521 61.2242,313.649 61.6134,313.777 62.002,313.907 62.4025,314.043 62.7786,314.179 63.154,314.316 63.5517,314.433 63.9497,314.549 64.3392,314.675 64.7285,314.802 65.1177,314.928 65.5126,315.049 65.8922,315.179 66.2855,315.315 66.6784,315.451 67.0711,315.587 67.4699,315.704 67.8688,315.821 68.2794,315.926 68.6903,316.031 " fill="none" stroke-width="1" stroke="rgb(0,0,255)" />
	<polyline points="68.6903,316.031 68.7402,316.701 69.1448,317.074 69.5741,317.435 70.0011,317.787 70.4375,318.089 70.9098,318.346 71.3127,318.565 71.7184,318.779 72.1276,318.986 72.5529,319.182 72.9805,319.378 73.3789,319.577 73.7794,319.777 74.182,319.978 74.6111,320.19 75.0433,320.401 75.4475,320.599 75.8545,320.797 76.2868,321.03 76.7287,321.267 77.1746,321.504 77.6029,321.738 78.0348,321.974 78.4862,322.196 78.941,322.42 79.3857,322.642 79.8337,322.865 80.2728,323.041 80.7172,323.215 81.1641,323.39 81.6152,323.579 82.0689,323.768 82.5164,323.938 82.964,324.109 83.419,324.299 83.8759,324.489 84.3257,324.657 84.7772,324.825 85.2341,325.014 85.6953,325.193 86.1586,325.373 86.6226,325.548 87.0884,325.724 87.5638,325.907 88.0323,326.1 88.4975,326.292 88.9643,326.486 89.4507,326.691 89.9394,326.895 90.4008,327.095 90.8772,327.318 91.3963,327.569 91.9145,327.82 92.3911,328.039 92.8614,328.253 93.3517,328.484 93.8423,328.713 94.3217,328.94 94.8086,329.156 95.2996,329.363 95.7909,329.571 96.3129,329.805 96.8354,330.039 97.3262,330.216 97.8174,330.393 98.3145,330.577 98.8114,330.761 99.3021,330.933 99.7885,331.105 100.269,331.282 100.75,331.459 101.229,331.637 101.703,331.814 102.177,331.99 102.652,332.158 103.125,332.325 103.604,332.505 104.082,332.684 104.555,332.846 105.028,333.006 105.532,333.174 106.035,333.34 106.539,333.512 107.041,333.683 107.617,333.848 108.192,334.011 108.701,334.161 109.208,334.311 109.789,334.446 110.303,334.581 110.815,334.717 111.385,334.843 111.954,334.968 112.452,335.096 112.949,335.224 113.494,335.352 114.038,335.48 114.535,335.605 115.031,335.729 115.545,335.864 116.059,335.999 116.555,336.126 117.05,336.253 117.564,336.396 118.077,336.538 118.574,336.673 119.07,336.808 119.581,336.969 120.088,337.154 120.588,337.308 121.088,337.461 121.583,337.641 122.077,337.82 122.569,338.004 123.059,338.214 123.561,338.426 124.062,338.638 124.54,338.836 125.019,339.033 125.515,339.229 126.011,339.427 126.495,339.625 126.979,339.824 127.47,339.995 127.962,340.162 128.461,340.34 128.961,340.519 129.448,340.68 129.935,340.842 130.452,341.021 130.989,341.237 131.481,341.397 131.973,341.558 132.502,341.743 133.029,341.929 133.515,342.094 133.999,342.259 134.514,342.421 135.028,342.583 135.518,342.762 136.007,342.941 136.531,343.113 137.055,343.284 137.546,343.472 138.037,343.661 138.528,343.855 139.021,344.047 139.509,344.255 139.998,344.464 140.484,344.663 140.97,344.863 141.448,345.056 141.92,345.248 142.386,345.455 142.852,345.664 143.32,345.873 143.79,346.082 144.247,346.3 144.705,346.518 145.164,346.738 145.625,346.948 146.109,347.202 146.56,347.428 147.01,347.654 147.48,347.898 148.017,348.226 148.456,348.45 148.895,348.673 149.374,348.938 149.855,349.201 150.319,349.452 150.782,349.702 151.329,350.006 151.795,350.247 152.253,350.473 152.71,350.697 153.166,350.92 153.632,351.149 154.097,351.378 154.57,351.587 155.042,351.793 155.513,352.009 155.984,352.193 156.488,352.37 156.993,352.546 157.466,352.699 157.939,352.85 158.437,352.992 158.934,353.132 159.427,353.269 159.919,353.404 160.417,353.532 160.915,353.66 161.448,353.791 161.982,353.921 162.473,354.049 162.961,354.201 163.506,354.342 164.051,354.483 164.538,354.623 165.026,354.763 165.516,354.915 166.007,355.066 166.494,355.213 166.982,355.359 167.462,355.527 167.941,355.693 168.443,355.843 168.945,355.99 169.449,356.133 169.952,356.276 170.485,356.412 171.017,356.546 171.518,356.668 172.018,356.789 172.555,356.897 173.091,357.004 173.6,357.102 174.108,357.2 174.657,357.293 175.204,357.385 175.725,357.466 176.284,357.555 176.844,357.643 177.351,357.722 177.858,357.801 178.4,357.898 178.947,357.993 179.455,358.068 179.964,358.144 180.506,358.245 181.05,358.345 181.555,358.424 182.061,358.504 182.599,358.594 183.138,358.686 183.637,358.774 184.136,358.862 184.66,358.952 185.184,359.043 185.7,359.128 186.214,359.213 186.772,359.289 187.326,359.358 187.88,359.427 188.459,359.493 189.039,359.56 189.58,359.634 190.124,359.709 190.661,359.794 191.203,359.88 191.707,359.976 192.196,360.085 192.693,360.193 193.193,360.302 193.688,360.419 194.187,360.537 194.677,360.661 195.17,360.787 195.675,360.916 196.183,361.046 196.677,361.174 197.172,361.304 197.698,361.44 198.224,361.577 198.723,361.705 199.222,361.833 199.79,361.957 200.304,362.072 200.816,362.188 201.377,362.301 201.936,362.414 202.457,362.526 202.977,362.638 203.499,362.751 204.018,362.864 204.534,362.975 205.05,363.083 205.558,363.188 206.062,363.293 206.591,363.391 207.115,363.489 207.624,363.584 208.128,363.678 208.678,363.766 209.223,363.853 209.728,363.944 210.23,364.035 210.783,364.115 211.307,364.198 211.826,364.28 212.376,364.354 212.92,364.428 213.465,364.501 214.006,364.574 214.55,364.647 215.09,364.72 215.636,364.796 216.184,364.871 216.734,364.948 217.283,365.028 217.84,365.11 218.369,365.203 218.902,365.298 219.434,365.407 219.973,365.519 220.476,365.639 220.988,365.762 221.478,365.897 221.977,366.035 222.454,366.177 222.937,366.322 223.419,366.484 223.907,366.647 224.399,366.791 224.896,366.937 225.397,367.092 225.901,367.248 226.404,367.38 226.908,367.512 227.412,367.654 227.915,367.797 228.411,367.926 228.907,368.055 229.408,368.191 229.909,368.327 230.395,368.458 230.88,368.589 231.381,368.725 231.882,368.86 232.368,368.997 232.863,369.119 233.376,369.25 233.888,369.38 234.394,369.505 234.899,369.63 235.405,369.75 235.909,369.869 236.423,370.028 236.931,370.148 237.445,370.258 237.955,370.367 238.469,370.482 238.979,370.596 239.501,370.693 240.017,370.79 240.546,370.891 241.069,370.991 241.593,371.082 242.113,371.172 242.662,371.263 243.206,371.353 243.753,371.438 244.309,371.531 244.862,371.623 245.432,371.712 245.999,371.8 246.52,371.901 247.041,372.002 247.593,372.109 248.147,372.217 248.634,372.335 249.125,372.454 249.629,372.578 250.137,372.703 250.614,372.822 251.094,372.943 251.584,373.076 252.076,373.21 252.557,373.34 253.04,373.47 253.534,373.617 254.028,373.763 254.522,373.9 255.014,374.035 255.502,374.181 255.986,374.325 256.492,374.466 256.995,374.605 257.495,374.731 257.989,374.855 258.494,374.989 259.038,375.109 259.588,375.198 260.131,375.285 260.724,375.361 261.306,375.42 261.88,375.477 262.475,375.533 263.068,375.589 263.626,375.646 264.189,375.703 264.757,375.771 265.284,375.847 265.817,375.925 266.38,376.001 266.93,376.083 267.443,376.174 267.961,376.268 268.507,376.364 269.058,376.463 269.575,376.571 270.097,376.68 270.628,376.803 271.162,376.926 271.651,377.053 272.125,377.201 272.619,377.337 273.11,377.473 273.583,377.614 274.055,377.754 274.548,377.879 275.038,378.004 275.533,378.127 276.024,378.249 276.532,378.348 277.034,378.445 277.569,378.541 278.098,378.637 278.609,378.715 279.114,378.792 279.677,378.87 280.237,378.946 280.739,379.015 281.31,379.085 281.879,379.154 282.379,379.222 282.879,379.29 283.421,379.364 283.966,379.438 284.475,379.504 284.986,379.571 285.522,379.647 286.062,379.724 286.569,379.796 287.078,379.869 287.596,379.955 288.115,380.045 288.615,380.124 289.116,380.203 289.631,380.294 290.146,380.385 290.667,380.458 291.186,380.531 291.717,380.611 292.245,380.691 292.782,380.761 293.292,380.847 293.799,380.932 294.324,381.01 294.856,381.086 295.372,381.171 295.884,381.255 296.429,381.336 296.969,381.416 297.519,381.495 298.065,381.575 298.629,381.662 299.191,381.749 299.751,381.834 300.291,381.942 300.803,382.085 301.347,382.197 301.891,382.309 302.404,382.441 302.915,382.573 303.432,382.7 303.949,382.827 304.431,382.959 304.913,383.09 305.41,383.218 305.905,383.346 306.395,383.478 306.885,383.609 307.399,383.722 307.914,383.834 308.458,383.96 308.997,384.061 309.524,384.157 310.049,384.253 310.614,384.339 311.179,384.425 311.708,384.513 312.237,384.601 312.793,384.693 313.3,384.788 313.809,384.883 314.336,384.99 314.895,385.11 315.379,385.213 315.863,385.317 316.397,385.42 316.933,385.523 317.432,385.627 317.932,385.731 318.484,385.826 319.039,385.922 319.524,386.04 320.047,386.129 320.623,386.2 321.202,386.27 321.734,386.344 322.296,386.417 322.864,386.49 323.386,386.562 323.913,386.633 324.457,386.726 325.005,386.818 325.534,386.893 326.067,386.968 326.615,387.06 327.167,387.155 327.707,387.224 328.251,387.294 328.822,387.377 329.342,387.452 329.865,387.526 330.384,387.614 330.905,387.703 331.387,387.792 331.87,387.88 332.356,387.968 332.839,388.056 333.303,388.147 333.767,388.237 334.232,388.328 334.702,388.412 335.169,388.495 335.624,388.576 336.078,388.657 336.536,388.74 336.991,388.822 337.448,388.892 337.903,388.961 338.365,389.039 338.838,389.108 339.302,389.17 339.762,389.232 340.249,389.294 340.732,389.354 341.209,389.412 341.666,389.472 342.118,389.531 342.612,389.577 343.1,389.623 343.558,389.677 344.021,389.721 344.542,389.747 345.079,389.762 345.616,389.769 346.159,389.765 346.727,389.754 347.297,389.715 347.904,389.643 348.547,389.518 349.194,389.374 349.839,389.201 350.217,388.753 " fill="none" stroke-width="1" stroke="rgb(0,0,255)" />
	<polyline points="68.6903,316.031 69.2306,315.847 69.4419,315.557 69.6525,315.255 69.8623,314.943 70.5504,314.854 71.2322,314.779 71.8783,314.735 72.5303,314.696 73.1556,314.687 73.7447,314.707 74.3436,314.725 74.9458,314.745 75.5409,314.769 76.1387,314.793 76.729,314.82 77.3415,314.845 77.9596,314.87 78.5475,314.909 79.1418,314.949 79.7447,314.994 80.2692,315.064 80.7932,315.136 81.4087,315.169 82.0227,315.202 82.5861,315.265 83.1503,315.328 83.7619,315.369 84.3706,315.419 84.9817,315.47 85.5906,315.518 86.201,315.569 86.8044,315.632 87.4046,315.692 88.007,315.754 88.5951,315.833 89.1854,315.912 89.7505,315.991 90.3016,316.112 90.8536,316.236 91.4116,316.323 91.9713,316.41 92.557,316.514 93.1442,316.618 93.7376,316.697 94.3754,316.784 95.0162,316.872 95.605,316.954 96.1791,317.046 96.7802,317.178 97.3421,317.272 97.9045,317.367 98.4876,317.476 99.07,317.586 99.6431,317.672 100.216,317.759 100.795,317.849 101.369,317.932 101.941,318.015 102.525,318.095 103.108,318.176 103.687,318.257 104.264,318.339 104.859,318.41 105.481,318.485 106.099,318.559 106.686,318.629 107.342,318.701 107.994,318.773 108.556,318.849 109.115,318.925 109.737,319.004 110.301,319.078 110.862,319.152 111.467,319.232 112.069,319.312 112.654,319.379 113.236,319.444 113.841,319.517 114.454,319.576 115.066,319.635 115.686,319.699 116.305,319.761 116.938,319.809 117.583,319.855 118.226,319.901 118.873,319.938 119.514,319.985 120.162,320.031 120.789,320.079 121.414,320.143 122.044,320.206 122.661,320.264 123.283,320.324 123.899,320.397 124.512,320.462 125.136,320.528 125.768,320.603 126.359,320.682 126.958,320.763 127.562,320.861 128.172,320.961 128.694,321.071 129.218,321.183 129.791,321.294 130.347,321.393 130.904,321.494 131.507,321.594 132.108,321.696 132.671,321.796 133.231,321.896 133.835,321.993 134.385,322.102 134.929,322.212 135.512,322.32 136.09,322.427 136.654,322.542 137.214,322.655 137.786,322.766 138.416,322.88 139.042,322.994 139.652,323.085 140.26,323.176 140.901,323.256 141.555,323.326 142.216,323.398 142.85,323.483 143.486,323.566 144.135,323.65 144.717,323.75 145.299,323.849 145.888,323.949 146.448,324.052 147.013,324.156 147.594,324.254 148.181,324.352 148.77,324.448 149.369,324.536 149.974,324.626 150.583,324.718 151.197,324.81 151.781,324.903 152.37,324.998 152.961,325.097 153.532,325.195 154.107,325.294 154.681,325.399 155.26,325.506 155.842,325.607 156.4,325.724 156.961,325.841 157.536,325.95 158.112,326.059 158.692,326.172 159.272,326.285 159.86,326.394 160.442,326.504 161.023,326.614 161.615,326.722 162.204,326.828 162.761,326.942 163.325,327.06 163.884,327.176 164.446,327.293 165.005,327.408 165.579,327.524 166.148,327.639 166.751,327.747 167.378,327.853 168.002,327.959 168.636,328.053 169.269,328.146 169.905,328.247 170.505,328.353 171.105,328.459 171.736,328.569 172.291,328.686 172.848,328.803 173.489,328.915 174.133,329.026 174.686,329.147 175.241,329.267 175.856,329.388 176.422,329.513 176.991,329.639 177.573,329.762 178.158,329.886 178.738,330.018 179.299,330.148 179.861,330.28 180.459,330.416 181.059,330.552 181.62,330.698 182.184,330.845 182.757,330.995 183.326,331.144 183.896,331.294 184.476,331.444 185.057,331.594 185.666,331.737 186.276,331.879 186.839,332.023 187.423,332.174 188.005,332.324 188.549,332.471 189.092,332.616 189.637,332.772 190.182,332.927 190.732,333.07 191.295,333.222 191.855,333.371 192.47,333.493 193.083,333.613 193.674,333.734 194.26,333.853 194.898,333.948 195.505,334.051 196.107,334.15 196.732,334.238 197.353,334.323 197.968,334.407 198.574,334.492 199.178,334.577 199.8,334.655 200.402,334.739 201.003,334.824 201.633,334.901 202.266,334.977 202.849,335.069 203.484,335.147 204.119,335.227 204.707,335.321 205.314,335.412 205.923,335.505 206.484,335.606 207.047,335.707 207.599,335.823 208.155,335.94 208.701,336.049 209.251,336.158 209.815,336.277 210.384,336.383 210.955,336.489 211.576,336.606 212.201,336.723 212.777,336.828 213.395,336.954 214.059,337.115 214.624,337.231 215.192,337.347 215.782,337.483 216.347,337.598 216.913,337.713 217.467,337.849 218.022,337.984 218.583,338.106 219.145,338.229 219.689,338.365 220.233,338.501 220.786,338.637 221.352,338.765 221.918,338.893 222.477,339.042 223.064,339.176 223.685,339.296 224.307,339.416 224.936,339.542 225.562,339.681 226.188,339.819 226.796,339.957 227.418,340.097 228.04,340.238 228.64,340.384 229.242,340.529 229.872,340.662 230.448,340.815 231.024,340.969 231.6,341.118 232.177,341.267 232.721,341.425 233.265,341.582 233.823,341.729 234.355,341.904 234.886,342.078 235.441,342.203 235.995,342.328 236.538,342.466 237.078,342.604 237.626,342.728 238.171,342.852 238.715,343.011 239.287,343.132 239.856,343.253 240.447,343.362 241.033,343.47 241.62,343.591 242.203,343.712 242.807,343.811 243.408,343.948 244.023,344.055 244.634,344.147 245.239,344.239 245.88,344.329 246.48,344.421 247.074,344.512 247.668,344.602 248.257,344.692 248.798,344.798 249.36,344.893 249.918,344.988 250.47,345.094 251.018,345.199 251.6,345.288 252.177,345.377 252.804,345.458 253.431,345.532 254.052,345.603 254.735,345.654 255.407,345.708 256.072,345.761 256.747,345.806 257.399,345.871 258.045,345.936 258.683,345.993 259.318,346.072 259.951,346.148 260.606,346.222 261.259,346.295 261.9,346.39 262.5,346.5 " fill="none" stroke-width="1" stroke="rgb(0,0,255)" />
	<polyline points="350.217,388.753 349.66,388.339 349.135,387.935 349.078,387.371 349.001,386.831 348.643,386.539 348.302,386.248 347.978,385.959 347.655,385.707 347.321,385.488 346.986,385.274 346.66,385.077 346.339,384.883 346.01,384.708 345.67,384.538 345.33,384.366 344.99,384.193 344.658,384.037 344.328,383.877 343.998,383.717 343.668,383.563 343.337,383.41 343.005,383.256 342.668,383.088 342.331,382.919 341.989,382.756 341.649,382.594 341.309,382.433 340.967,382.271 340.598,382.08 340.239,381.911 339.877,381.742 339.499,381.566 339.12,381.389 338.736,381.215 338.351,381.04 337.96,380.858 337.549,380.672 337.137,380.486 336.715,380.308 336.291,380.13 335.866,379.952 335.403,379.782 334.939,379.612 334.495,379.441 334.05,379.269 333.569,379.084 333.117,378.91 332.693,378.735 332.267,378.56 331.837,378.384 331.363,378.185 330.886,377.986 330.477,377.815 330.066,377.644 329.663,377.471 329.258,377.298 328.851,377.124 328.461,376.939 328.074,376.775 327.693,376.608 327.312,376.442 326.93,376.276 326.551,376.109 326.17,375.941 325.781,375.767 325.39,375.592 324.998,375.417 324.614,375.256 324.228,375.096 323.842,374.935 323.453,374.776 323.063,374.616 322.671,374.453 322.279,374.289 321.887,374.125 321.495,373.967 321.103,373.809 320.7,373.635 320.296,373.46 319.892,373.285 319.5,373.117 319.107,372.948 318.71,372.777 318.311,372.605 317.91,372.432 317.511,372.26 317.112,372.088 316.714,371.918 316.308,371.747 315.902,371.576 315.505,371.412 315.109,371.248 314.701,371.088 314.294,370.929 313.887,370.768 313.481,370.599 313.075,370.43 312.653,370.252 312.23,370.074 311.818,369.887 311.411,369.719 311.004,369.551 310.595,369.368 310.186,369.185 309.782,369.014 309.379,368.844 308.977,368.673 308.571,368.487 308.165,368.3 307.771,368.129 307.378,367.959 306.985,367.789 306.593,367.607 306.202,367.425 305.811,367.243 305.412,367.074 305.011,366.906 304.621,366.724 304.23,366.542 303.839,366.359 303.432,366.186 303.026,366.013 302.627,365.846 302.229,365.678 301.831,365.511 301.427,365.334 301.022,365.158 300.631,364.994 300.237,364.829 299.843,364.663 299.445,364.496 299.048,364.328 298.652,364.154 298.256,363.981 297.866,363.816 297.463,363.633 297.061,363.451 296.668,363.275 296.275,363.1 295.83,362.882 295.433,362.693 295.035,362.504 294.642,362.311 294.247,362.116 293.851,361.92 293.465,361.735 293.077,361.549 292.697,361.36 292.317,361.17 291.937,360.981 291.559,360.788 291.181,360.596 290.799,360.395 290.417,360.194 290.037,359.993 289.659,359.792 289.281,359.591 288.905,359.391 288.531,359.199 288.158,359.008 287.777,358.796 287.397,358.585 287.018,358.373 286.643,358.181 286.269,357.989 285.894,357.796 285.521,357.595 285.149,357.395 284.764,357.195 284.381,356.997 283.99,356.797 283.598,356.596 283.203,356.393 282.807,356.19 282.362,355.982 281.956,355.792 281.575,355.605 281.197,355.418 280.794,355.235 280.396,355.053 279.961,354.854 279.576,354.679 279.194,354.504 278.807,354.327 278.42,354.15 278.035,353.973 277.656,353.809 277.278,353.645 276.902,353.481 276.515,353.313 276.13,353.145 275.737,352.978 275.357,352.806 274.98,352.634 274.576,352.453 274.176,352.273 273.777,352.098 273.334,351.9 272.891,351.703 272.473,351.506 272.056,351.308 271.652,351.117 271.25,350.925 270.857,350.71 270.463,350.517 270.07,350.323 269.685,350.116 269.301,349.91 268.936,349.715 268.561,349.509 268.186,349.304 267.807,349.104 267.428,348.904 267.045,348.715 266.663,348.523 266.282,348.33 265.901,348.138 265.508,347.948 265.101,347.773 264.707,347.564 264.311,347.356 263.915,347.146 263.455,346.962 262.967,346.694 262.5,346.5 " fill="none" stroke-width="1" stroke="rgb(0,0,255)" />
	<polyline points="356.175,30.7814 355.825,30.3809 355.635,30.1008 355.328,29.7512 354.635,29.737 353.956,29.73 353.338,29.7373 352.775,29.7711 352.232,29.8147 351.71,29.8635 351.186,29.9121 350.648,29.9466 350.105,29.9822 349.566,30.0185 349.032,30.0627 348.515,30.1075 348.003,30.1601 347.519,30.2229 347.029,30.2868 346.535,30.3525 346.034,30.4191 345.539,30.4866 345.045,30.5592 344.545,30.6336 344.039,30.7086 343.533,30.7797 343.02,30.8516 342.484,30.9218 341.94,30.9929 341.409,31.0611 340.867,31.1308 340.253,31.1998 339.728,31.2871 339.205,31.3758 338.654,31.4647 338.106,31.5533 337.606,31.6475 337.105,31.7421 336.577,31.8392 336.048,31.9369 335.548,32.0374 335.048,32.1389 334.518,32.2436 333.988,32.3485 333.479,32.4506 332.972,32.5527 332.429,32.671 331.888,32.7889 331.359,32.8863 330.833,32.9834 330.274,33.0977 329.717,33.1803 329.164,33.2622 328.548,33.3593 327.939,33.4554 327.378,33.5322 326.823,33.6083 326.202,33.7016 325.657,33.7883 325.115,33.8745 324.458,33.9656 323.84,34.0547 323.292,34.1407 322.748,34.2265 322.098,34.3011 321.53,34.3745 320.969,34.4471 320.36,34.517 319.758,34.5863 319.193,34.6552 318.601,34.7229 318.012,34.7904 317.447,34.8658 316.882,34.9408 316.294,35.0106 315.704,35.089 315.114,35.1671 314.545,35.2437 313.978,35.3209 313.406,35.4065 312.834,35.4924 312.276,35.5733 311.701,35.6718 311.124,35.7706 310.571,35.8615 310.015,35.9531 309.424,36.1093 308.827,36.2666 308.292,36.3827 307.754,36.5 307.207,36.6517 306.708,36.7891 306.206,36.9275 305.691,37.078 305.176,37.2306 304.683,37.3969 304.189,37.5631 303.677,37.7105 303.167,37.858 302.647,38.0442 302.132,38.1937 301.594,38.3198 301.058,38.4454 300.496,38.5619 299.936,38.678 299.351,38.7812 298.768,38.8834 298.21,38.9803 297.604,39.0704 297.002,39.1604 296.466,39.253 295.932,39.3453 295.337,39.4351 294.743,39.5246 294.213,39.6118 293.605,39.6994 292.996,39.7869 292.467,39.8753 291.937,39.9638 291.316,40.0494 290.693,40.1341 290.158,40.2234 289.577,40.3146 288.995,40.4062 288.45,40.4982 287.904,40.5901 287.327,40.6773 286.75,40.7644 286.17,40.8543 285.598,40.9381 285.027,41.022 284.455,41.1117 283.884,41.2021 283.317,41.2824 282.75,41.3627 282.186,41.4487 281.619,41.5245 281.049,41.6005 280.482,41.6835 279.912,41.7667 279.339,41.8459 278.759,41.9255 278.198,42.0173 277.643,42.1124 277.083,42.2084 276.533,42.3192 275.977,42.4304 275.45,42.5469 274.919,42.6637 274.399,42.7999 273.876,42.9355 273.368,43.0657 272.858,43.1954 272.35,43.3495 271.842,43.5026 271.332,43.6309 270.821,43.7572 270.297,43.9113 269.775,44.0624 269.225,44.171 268.625,44.2675 268.036,44.3614 267.469,44.4455 266.912,44.5274 266.309,44.6078 265.717,44.6867 265.152,44.7593 264.509,44.8297 263.871,44.9002 263.316,44.9769 262.654,45.0208 262.018,45.0756 261.403,45.1363 260.782,45.1983 260.187,45.2743 259.611,45.3674 259.028,45.4638 258.484,45.5681 257.931,45.6754 257.409,45.8089 256.877,45.9459 256.366,46.0762 255.846,46.2098 255.333,46.3594 254.813,46.5126 254.298,46.6575 253.777,46.8045 253.243,46.9491 252.713,47.0988 252.18,47.2495 251.637,47.3936 251.095,47.538 250.55,47.6862 250.007,47.8333 249.467,47.9978 248.912,48.132 248.342,48.2713 247.777,48.4092 247.191,48.5276 246.586,48.6454 245.984,48.7615 245.388,48.8634 244.793,48.9641 244.167,49.0684 243.578,49.1665 242.986,49.2651 242.398,49.3711 241.806,49.4783 241.226,49.5841 240.66,49.6961 240.089,49.8096 239.528,49.9277 238.96,50.0466 238.427,50.1702 237.89,50.2952 237.338,50.4271 236.784,50.5601 236.252,50.6936 235.706,50.8273 235.159,50.9614 234.621,51.0926 234.085,51.2248 233.544,51.3685 233.005,51.5122 232.47,51.649 231.937,51.7859 231.406,51.9314 230.87,52.1138 230.335,52.2548 229.801,52.3958 229.271,52.545 228.741,52.6941 228.185,52.8338 227.653,52.9798 227.122,53.1261 226.555,53.2689 225.992,53.4112 225.458,53.575 224.927,53.738 224.379,53.8992 223.824,54.1029 223.283,54.2693 222.747,54.4334 222.222,54.6075 221.672,54.7622 221.123,54.9133 220.581,55.08 220.024,55.2096 219.428,55.3329 218.843,55.4548 218.255,55.5528 217.637,55.6395 217.029,55.7249 216.442,55.8018 215.859,55.8778 215.288,55.954 214.709,56.0258 214.145,56.1014 213.582,56.1775 213.011,56.2547 212.442,56.3363 211.863,56.4198 211.306,56.5023 210.737,56.5868 210.166,56.6796 209.624,56.773 209.073,56.8684 208.516,56.9737 207.957,57.0818 207.404,57.1833 206.847,57.2862 206.29,57.4039 205.729,57.5228 205.179,57.633 204.626,57.7649 204.071,57.8975 203.527,58.0156 202.982,58.135 202.418,58.2681 201.853,58.402 201.302,58.5232 200.75,58.6445 200.181,58.772 199.638,58.9024 199.095,59.0324 198.548,59.1673 198.002,59.3016 197.476,59.4389 196.951,59.5753 196.412,59.7159 195.876,59.8549 195.354,59.9846 194.844,60.1327 194.296,60.2683 193.756,60.4017 193.224,60.5227 192.637,60.6532 192.061,60.7805 191.513,60.8917 190.973,61.0005 190.355,61.1024 189.748,61.2029 189.186,61.2986 188.528,61.3777 187.875,61.4558 187.278,61.5348 186.655,61.6192 186.032,61.7034 185.476,61.7872 184.918,61.871 184.372,61.9752 183.847,62.0828 183.321,62.1704 182.795,62.2582 182.251,62.3593 181.728,62.4425 181.206,62.5258 180.622,62.6173 180.04,62.7088 179.517,62.7896 178.996,62.8705 178.376,62.9548 177.756,63.039 177.247,63.1254 176.611,63.2071 175.978,63.2913 175.456,63.3814 174.931,63.4719 174.341,63.5682 173.749,63.6656 173.224,63.7702 172.646,63.8753 172.064,63.9811 171.545,64.108 171.022,64.2359 170.474,64.3684 169.923,64.5022 169.4,64.6583 168.874,64.8151 168.356,64.967 167.84,65.1218 167.326,65.2864 166.813,65.4524 166.304,65.616 165.795,65.7793 165.272,65.9356 164.747,66.0909 164.208,66.2466 163.65,66.395 163.093,66.5435 162.509,66.6772 161.925,66.8117 161.37,66.9599 160.777,67.1337 160.192,67.2699 159.658,67.4252 159.121,67.5823 158.557,67.7237 157.991,67.8671 157.492,68.0289 157.008,68.2084 156.49,68.3845 155.97,68.5633 155.497,68.762 155.021,68.9631 154.529,69.1758 154.034,69.3915 153.557,69.6255 153.076,69.8623 152.569,70.1099 152.047,70.3767 151.559,70.6287 151.069,70.8834 150.544,71.1748 150.019,71.4694 149.505,71.7602 148.993,72.0487 148.495,72.3114 147.998,72.5722 147.489,72.8354 146.981,73.0968 146.473,73.3605 145.966,73.6234 145.46,73.8513 144.953,74.0786 144.445,74.3066 143.936,74.535 143.406,74.7591 142.876,74.9821 142.326,75.1985 141.776,75.4148 141.201,75.6573 140.635,75.8796 140.067,76.102 139.534,76.3365 138.998,76.5727 138.472,76.7931 137.942,77.0141 137.414,77.2314 136.884,77.4497 136.366,77.6577 135.845,77.8653 135.337,78.0587 134.82,78.2475 134.285,78.4352 133.749,78.6225 133.238,78.8061 132.699,78.9944 132.16,79.1841 131.635,79.3717 131.11,79.5587 130.564,79.7473 130.018,79.9353 129.494,80.1226 128.97,80.3094 128.43,80.4893 127.892,80.6685 127.366,80.8608 126.841,81.052 126.324,81.2519 125.808,81.4507 125.288,81.6713 124.77,81.8899 124.258,82.0991 123.732,82.3155 123.209,82.5304 122.685,82.7273 122.162,82.9226 121.632,83.1195 121.104,83.3153 120.564,83.4794 120.026,83.6434 119.438,83.8573 118.851,84.0699 118.32,84.2202 117.789,84.3701 117.208,84.5129 116.679,84.6547 116.15,84.7964 115.589,84.9358 115.029,85.0753 114.498,85.2105 113.966,85.3459 113.402,85.4876 112.837,85.6293 112.306,85.7664 111.774,85.9038 111.208,86.0512 110.664,86.1859 110.118,86.3211 109.544,86.4822 108.968,86.6437 108.427,86.7901 107.885,86.9371 107.307,87.1472 106.729,87.3588 106.197,87.5191 105.665,87.7075 105.133,87.8966 104.618,88.0638 104.081,88.28 103.571,88.4522 103.06,88.6249 102.548,88.8213 102.037,89.0183 101.527,89.1942 101.018,89.3704 100.517,89.5484 100.018,89.7275 99.4915,89.9053 98.9658,90.0831 98.4596,90.2618 97.9545,90.4409 97.4055,90.6228 96.8581,90.8053 96.3481,90.9948 95.8483,91.195 95.3038,91.4125 94.7599,91.6304 94.2544,91.8546 93.6898,92.1107 92.9221,92.509 92.41,92.7503 91.8973,92.9916 91.3323,93.2449 90.7673,93.5005 90.2527,93.7485 89.7217,93.9663 89.1977,94.175 88.6815,94.4076 88.165,94.6404 87.666,94.8296 87.1673,95.0194 86.6547,95.2151 86.1427,95.4116 85.6637,95.5858 85.1853,95.7601 84.6778,95.9607 84.1508,96.1985 83.6787,96.3726 83.2076,96.5462 82.7052,96.7524 82.2044,96.9582 81.7417,97.1311 81.2805,97.3037 80.821,97.4759 80.331,97.6695 79.8432,97.8627 79.3781,98.0532 78.9214,98.2456 78.3643,98.5623 77.8109,98.8775 77.36,99.0873 76.8802,99.3515 76.4022,99.5958 75.9265,99.8393 75.4689,100.066 75.0302,100.27 74.5638,100.482 74.0994,100.694 73.6527,100.898 73.2082,101.102 72.7402,101.321 72.2737,101.54 71.8104,101.762 71.352,101.992 70.8918,102.245 70.3381,102.59 69.7689,102.973 69.2417,103.338 69.2032,104.068 68.8136,104.343 68.2688,104.734 " fill="none" stroke-width="1" stroke="rgb(0,0,255)" />
	<polyline points="356.175,30.7814 356.563,30.7043 356.95,30.6267 357.344,30.5496 357.737,30.4723 358.131,30.3945 358.526,30.3167 358.921,30.2385 359.313,30.1466 359.704,30.0547 360.096,29.9628 360.455,29.8707 360.815,29.7788 361.174,29.6868 361.559,29.59 361.943,29.4931 362.295,29.3918 362.648,29.2905 363,29.1892 363.371,29.0939 363.742,28.9986 364.105,28.904 364.434,28.804 364.763,28.7039 365.092,28.6037 365.446,28.4976 365.801,28.3912 366.156,28.2847 366.485,28.1874 366.814,28.09 367.144,27.9925 367.505,27.8838 367.865,27.7749 368.227,27.6716 368.588,27.5683 368.95,27.465 369.34,27.378 369.73,27.2911 370.121,27.2041 370.487,27.1184 370.854,27.0326 371.232,26.9541 371.609,26.8751 371.987,26.7957 372.361,26.719 372.735,26.6419 373.109,26.5645 373.5,26.5 " fill="none" stroke-width="1" stroke="rgb(0,0,255)" />
	<polyline points="68.2688,104.734 68.5861,105.195 69.1988,105.349 69.7971,105.631 70.4108,105.714 71.0162,105.784 71.6043,105.897 72.1689,105.958 72.769,105.969 73.3497,105.99 73.9292,106.007 74.5473,106.02 75.1687,106.032 75.7568,106.041 76.3664,106.03 76.9799,106.018 77.5852,106.005 78.1997,105.991 78.8075,105.963 79.4044,105.923 80.0008,105.878 80.5163,105.788 81.0347,105.696 81.6137,105.632 82.1968,105.567 82.7629,105.488 83.3766,105.433 83.9952,105.377 84.6357,105.322 85.2806,105.267 85.9138,105.212 86.5652,105.155 87.2208,105.097 87.816,105.025 88.4852,104.968 89.1563,104.905 89.6694,104.785 90.1855,104.663 90.8278,104.572 91.356,104.464 91.8867,104.356 92.5179,104.268 93.1522,104.179 93.7032,104.081 94.2562,103.983 94.9023,103.907 95.4721,103.815 96.0426,103.723 96.6537,103.634 97.264,103.545 97.8348,103.45 98.3949,103.351 98.9538,103.251 99.5737,103.168 100.193,103.085 100.736,102.987 101.369,102.91 101.999,102.832 102.574,102.747 103.146,102.662 103.776,102.582 104.367,102.504 104.955,102.426 105.588,102.343 106.218,102.26 106.826,102.189 107.499,102.111 108.169,102.033 108.774,101.961 109.402,101.88 110.029,101.798 110.623,101.724 111.217,101.649 111.834,101.565 112.406,101.484 112.979,101.404 113.564,101.309 114.148,101.215 114.72,101.135 115.284,101.026 115.884,100.941 116.503,100.881 117.116,100.821 117.781,100.767 118.436,100.728 119.086,100.688 119.761,100.646 120.418,100.608 121.078,100.571 121.749,100.525 122.373,100.472 123.005,100.417 123.657,100.361 124.319,100.304 124.956,100.24 125.601,100.175 126.26,100.11 126.847,100.022 127.442,99.933 128.047,99.8431 128.607,99.7396 129.174,99.6347 129.764,99.5351 130.353,99.4329 130.947,99.3296 131.565,99.2342 132.188,99.138 132.769,99.0259 133.366,98.9223 133.964,98.8184 134.534,98.6937 135.103,98.5689 135.67,98.4532 136.234,98.3377 136.806,98.2106 137.384,98.0981 137.957,97.986 138.569,97.8697 139.177,97.754 139.825,97.6674 140.504,97.5854 141.18,97.5034 141.864,97.4258 142.498,97.3407 143.135,97.2552 143.773,97.1548 144.335,97.055 144.899,96.9546 145.471,96.8375 146.043,96.7193 146.595,96.6137 147.147,96.508 147.734,96.3984 148.33,96.2973 148.927,96.1962 149.552,96.1014 150.18,96.0069 150.776,95.9053 151.406,95.8132 152.037,95.7196 152.636,95.6194 153.239,95.5186 153.846,95.4202 154.41,95.313 154.979,95.2052 155.572,95.1049 156.169,95.0041 156.717,94.8922 157.292,94.7867 157.871,94.6809 158.451,94.5766 159.035,94.4722 159.643,94.3695 160.251,94.2671 160.814,94.1564 161.405,94.0513 161.991,93.9451 162.564,93.8295 163.134,93.7148 163.703,93.604 164.305,93.478 164.902,93.3533 165.469,93.2398 166.031,93.1273 166.678,92.9885 167.3,92.8748 167.91,92.7752 168.599,92.6831 169.289,92.5912 169.963,92.5031 170.619,92.4048 171.278,92.306 171.902,92.1918 172.488,92.073 173.077,91.9536 173.676,91.8309 174.277,91.7065 174.853,91.5775 175.444,91.4528 176.038,91.3268 176.612,91.1901 177.188,91.0526 177.761,90.9244 178.328,90.7836 178.895,90.6424 179.472,90.5158 180.049,90.3892 180.611,90.2528 181.172,90.1164 181.725,89.9816 182.27,89.8157 182.814,89.6757 183.387,89.532 183.957,89.388 184.55,89.2586 185.141,89.1291 185.77,88.9938 186.357,88.8648 186.942,88.7354 187.507,88.5982 188.069,88.4611 188.605,88.3121 189.139,88.1638 189.659,88.0208 190.176,87.8786 190.71,87.7197 191.243,87.5618 191.758,87.425 192.419,87.2797 193.075,87.1357 193.605,87.0042 194.173,86.8931 194.871,86.7993 195.495,86.7091 196.114,86.6194 196.808,86.5332 197.422,86.4498 198.033,86.3666 198.713,86.2807 199.292,86.19 199.871,86.0993 200.512,86.0015 201.196,85.909 201.79,85.8242 202.428,85.7258 203.071,85.6265 203.672,85.541 204.278,85.4549 204.915,85.3564 205.494,85.2578 206.076,85.1581 206.657,85.0474 207.27,84.9509 207.806,84.8307 208.39,84.7133 208.98,84.5961 209.543,84.4761 210.109,84.3558 210.723,84.2404 211.354,84.1332 211.988,84.0257 212.62,83.9094 213.256,83.7924 213.88,83.682 214.443,83.5529 215.009,83.4234 215.597,83.3074 216.187,83.1909 216.725,83.0588 217.302,82.9442 217.85,82.8162 218.389,82.6838 218.929,82.5511 219.464,82.4075 219.998,82.2639 220.534,82.1295 221.07,81.9949 221.637,81.8544 222.203,81.7136 222.783,81.5892 223.427,81.4584 224.069,81.3281 224.676,81.2058 225.281,81.0838 225.924,80.9143 226.527,80.7795 227.13,80.6452 227.76,80.5018 228.398,80.3668 229.037,80.2323 229.676,80.1038 230.315,79.9753 230.977,79.8022 231.564,79.6493 232.152,79.4965 232.706,79.3371 233.26,79.1778 233.821,79.025 234.336,78.8717 234.851,78.7183 235.409,78.5719 235.966,78.4255 236.477,78.2869 236.987,78.1485 237.553,77.9757 238.097,77.8405 238.612,77.7121 239.126,77.584 239.676,77.4612 240.225,77.3387 240.789,77.2278 241.325,77.1154 241.861,77.0036 242.488,76.9094 243.114,76.8155 243.696,76.7153 244.275,76.6157 244.909,76.5216 245.489,76.4266 246.062,76.3323 246.647,76.2262 247.227,76.1208 247.765,76.0175 248.303,75.8906 248.837,75.7642 249.366,75.6443 249.891,75.525 250.471,75.3969 251.047,75.2696 251.604,75.1526 252.155,75.0361 252.791,74.9246 253.401,74.828 254.004,74.7318 254.713,74.6597 255.395,74.5944 256.066,74.5292 256.753,74.476 257.431,74.4178 258.101,74.3597 258.727,74.3037 259.384,74.2237 260.032,74.134 260.641,73.9869 261.241,73.7628 261.905,73.6869 262.5,73.5 " fill="none" stroke-width="1" stroke="rgb(0,0,255)" />
	<polyline points="262.5,346.5 262.408,343.503 262.411,340.641 262.45,335.781 262.478,331.929 262.495,328.237 262.51,324.471 262.574,320.257 262.817,316.8 263.125,313.862 263.312,310.346 263.377,306.719 263.475,303.022 263.537,299.225 263.619,294.95 263.826,292.029 264.096,289.008 264.279,285.048 264.355,280.968 264.523,277.3 264.691,274.243 264.809,270.357 264.758,266.561 264.706,262.868 264.685,259.155 264.669,255.483 264.688,252.106 264.642,248.279 264.535,244.676 264.51,240.99 264.507,237.3 264.572,233.554 264.687,230.068 264.721,226.336 264.713,222.667 264.645,218.981 264.608,215.331 264.593,211.652 264.604,208.116 264.605,204.337 264.647,200.656 264.667,196.891 264.662,193.236 264.564,189.911 264.452,186.163 264.363,182.385 264.357,178.644 264.343,174.89 264.456,171.476 264.48,168.046 264.447,164.232 264.482,160.507 264.534,156.696 264.679,153.166 264.731,149.227 264.661,145.794 264.554,142.522 264.441,138.608 264.368,134.498 264.172,130.913 263.953,128.776 263.758,124.741 263.704,120.575 263.657,116.859 263.572,113.179 263.514,109.213 263.228,105.156 262.973,103.485 262.627,99.3272 262.441,95.3939 262.369,91.6799 262.369,87.9266 262.354,83.7475 262.334,77.9381 262.361,75.5758 262.5,73.5 " fill="none" stroke-width="1" stroke="rgb(0,0,255)" />
	<polyline points="47.5,310.5 47.3378,309.5 47.054,308.596 46.8095,307.91 46.5469,307.274 46.3212,306.681 46.0949,306.086 45.8638,305.525 45.6324,304.963 45.4281,304.42 45.2235,303.876 44.9913,303.321 44.7854,302.765 44.6126,302.227 44.4419,301.657 44.2701,301.082 44.1128,300.532 43.9544,299.978 43.7901,299.374 43.6249,298.765 43.4706,298.194 43.2802,297.612 43.0894,297.027 42.922,296.478 42.7506,295.934 42.5376,295.381 42.3248,294.827 42.1482,294.29 41.9716,293.752 41.7814,293.214 41.6091,292.673 41.4353,292.127 41.2677,291.568 41.1003,291.009 40.9262,290.455 40.7591,289.878 40.6142,289.296 40.4697,288.715 40.3234,288.12 40.1829,287.537 40.0432,286.957 39.9032,286.351 39.7643,285.749 39.6197,285.178 39.4709,284.587 39.3217,283.994 39.177,283.398 39.0335,282.806 38.8802,282.202 38.7483,281.556 38.6176,280.914 38.4786,280.261 38.3489,279.581 38.2194,278.9 38.0835,278.188 37.9453,277.522 37.8235,276.806 37.6875,276.156 37.5567,275.486 37.4274,274.824 37.284,274.228 37.1507,273.599 37.019,272.976 36.8814,272.407 36.7465,271.849 36.6289,271.221 36.509,270.643 36.3903,270.07 36.2877,269.402 36.1855,268.735 36.0733,268.163 36.0032,267.421 35.9141,266.724 35.8264,266.089 35.7455,265.375 35.6653,264.669 35.593,264.007 35.5253,263.275 35.452,262.611 35.3786,261.945 35.304,261.232 35.2201,260.594 35.1362,259.956 35.0521,259.278 34.963,258.638 34.8759,257.997 34.7881,257.335 34.7,256.669 34.6096,256.027 34.5188,255.369 34.4275,254.705 34.3251,254.119 34.224,253.472 34.1227,252.823 34.0091,252.27 33.9048,251.621 33.8004,250.972 33.6855,250.411 33.5701,249.846 33.4629,249.197 33.3562,248.58 33.2491,247.96 33.148,247.279 33.0542,246.616 32.9605,245.951 32.856,245.293 32.7501,244.667 32.6456,244.048 32.5347,243.437 32.4236,242.823 32.3125,242.249 32.1885,241.67 32.0617,241.076 31.9627,240.455 31.8562,239.863 31.7309,239.247 31.6295,238.646 31.5287,238.045 31.4104,237.446 31.2935,236.85 31.1974,236.244 31.0764,235.661 30.9564,235.08 30.874,234.426 30.7938,233.787 30.7136,233.09 30.6504,232.387 30.5886,231.698 30.525,230.954 30.4686,230.244 30.3906,229.53 30.3067,228.83 30.2165,228.209 30.0988,227.582 29.9797,226.942 29.8647,226.34 29.7498,225.734 29.6243,225.118 29.5151,224.499 29.4075,223.884 29.3017,223.283 29.2032,222.673 29.1061,222.065 29.0272,221.422 28.9458,220.798 28.8656,220.17 28.8056,219.499 28.7475,218.841 28.6993,218.165 28.6648,217.47 28.6317,216.787 28.6043,216.105 28.5881,215.414 28.5788,214.724 28.5747,214.034 28.5795,213.35 28.5848,212.671 28.5941,211.996 28.6012,211.332 28.6015,210.663 28.6026,209.994 28.5962,209.325 28.5878,208.652 28.5799,207.98 28.5725,207.303 28.5739,206.62 28.5759,205.933 28.5832,205.239 28.5964,204.545 28.6104,203.842 28.6301,203.139 28.6601,202.441 28.7003,201.738 28.7622,201.084 28.8389,200.448 28.9165,199.804 29.002,199.217 29.0956,198.613 29.1906,198.001 29.2956,197.428 29.401,196.855 29.5047,196.238 29.6226,195.634 29.7399,195.032 29.8501,194.449 29.9609,193.864 30.0729,193.219 30.1678,192.583 30.2626,191.946 30.3431,191.216 30.4093,190.507 30.4757,189.794 30.5422,189.044 30.6098,188.331 30.6886,187.634 30.7689,186.922 30.8523,186.252 30.9542,185.643 31.0659,185.063 31.1649,184.443 31.2648,183.819 31.3744,183.234 31.4792,182.632 31.5848,182.027 31.6954,181.442 31.8068,180.853 31.9168,180.248 32.0323,179.668 32.1491,179.087 32.2696,178.475 32.3899,177.866 32.501,177.25 32.6127,176.575 32.7236,175.908 32.827,175.255 32.9261,174.574 33.0249,173.897 33.1234,173.24 33.231,172.586 33.3394,171.933 33.4453,171.286 33.5655,170.699 33.6851,170.115 33.7919,169.499 33.8984,168.884 34.0132,168.298 34.1272,167.709 34.2336,167.111 34.3374,166.505 34.4403,165.907 34.536,165.284 34.6282,164.633 34.7197,163.991 34.8105,163.353 34.9004,162.724 34.9866,162.105 35.0694,161.454 35.1505,160.795 35.2347,160.177 35.3071,159.496 35.3794,158.813 35.4496,158.151 35.5139,157.436 35.578,156.716 35.6447,156.03 35.7175,155.311 35.8014,154.659 35.8863,153.996 35.9679,153.278 36.0739,152.689 36.1804,152.101 36.2839,151.431 36.3934,150.768 36.5102,150.194 36.6306,149.575 36.7526,148.947 36.8877,148.39 37.0228,147.833 37.1518,147.231 37.2896,146.651 37.4289,146.066 37.556,145.427 37.6847,144.779 37.8175,144.111 37.9359,143.433 38.055,142.753 38.185,142.015 38.3049,141.322 38.4402,140.651 38.5765,139.976 38.7125,139.339 38.8492,138.7 38.9934,138.091 39.1802,137.517 39.3687,136.941 39.5157,136.355 39.6641,135.766 39.8226,135.195 39.9624,134.598 40.0921,133.979 40.2375,133.405 40.3829,132.833 40.5205,132.248 40.6709,131.682 40.8206,131.123 40.9739,130.582 41.1381,130.028 41.377,129.429 41.6172,128.834 41.8026,128.282 41.9886,127.731 42.2083,127.197 42.3992,126.664 42.5878,126.136 42.8072,125.593 43.0243,125.056 43.2061,124.53 43.3862,124.009 43.5797,123.452 43.7719,122.9 43.9392,122.37 44.0962,121.809 44.2605,121.201 44.444,120.638 44.6257,120.083 44.8063,119.511 44.9844,118.95 45.1709,118.413 45.3646,117.855 45.6196,117.273 45.8509,116.693 46.0773,116.126 46.3683,115.541 46.6541,114.966 46.8955,114.379 47.132,113.795 47.3889,113.189 47.694,112.422 47.9816,111.7 48.245,110.593 48.5,109.5 " fill="none" stroke-width="1" stroke="rgb(0,0,255)" />
	<polyline points="376.321,108.366 376.883,108.353 377.469,108.353 378.055,108.353 378.655,108.359 379.257,108.366 379.871,108.394 380.481,108.436 381.095,108.477 381.69,108.542 382.29,108.608 382.85,108.695 383.387,108.812 383.927,108.93 384.423,109.054 384.938,109.162 385.476,109.283 386.015,109.405 386.478,109.533 386.943,109.66 387.436,109.797 387.93,109.933 388.359,110.076 388.786,110.223 389.211,110.374 389.631,110.542 390.05,110.712 390.469,110.872 390.887,111.033 391.292,111.209 391.695,111.389 392.097,111.572 392.504,111.784 392.911,112 393.335,112.278 393.758,112.558 394.182,112.838 394.609,113.114 395.037,113.407 395.462,113.715 395.887,114.025 396.363,114.43 396.843,114.846 397.265,115.164 397.685,115.479 398.103,115.794 398.564,116.2 398.99,116.534 399.477,116.986 399.933,117.42 400.376,117.835 400.805,118.258 401.226,118.68 401.648,119.103 402.007,119.497 402.439,119.925 402.82,120.333 403.222,120.758 403.629,121.191 403.971,121.587 404.387,122.037 404.732,122.442 405.078,122.852 405.481,123.302 405.89,123.762 406.213,124.17 406.623,124.657 407.039,125.153 407.338,125.55 407.638,125.952 407.913,126.339 408.179,126.724 408.445,127.113 408.732,127.517 409.019,127.924 409.298,128.328 409.577,128.735 409.857,129.145 410.163,129.58 410.469,130.017 410.764,130.444 411.058,130.873 411.358,131.315 411.655,131.757 411.948,132.198 412.202,132.608 412.453,133.017 412.747,133.473 413.039,133.929 413.292,134.354 413.545,134.778 413.95,135.352 414.222,135.792 414.495,136.24 414.766,136.689 415.035,137.141 415.283,137.582 415.531,138.025 415.816,138.513 416.101,139.003 416.34,139.447 416.581,139.893 416.919,140.474 417.152,140.952 417.382,141.412 417.612,141.876 417.805,142.34 417.998,142.806 418.221,143.29 418.443,143.776 418.636,144.256 418.829,144.738 419.022,145.222 419.222,145.713 419.422,146.206 419.609,146.696 419.796,147.188 419.976,147.693 420.154,148.202 420.336,148.7 420.517,149.201 420.699,149.714 420.88,150.23 421.05,150.733 421.219,151.236 421.397,151.759 421.569,152.26 421.741,152.762 421.91,153.28 422.079,153.796 422.245,154.305 422.41,154.812 422.583,155.317 422.755,155.822 422.917,156.339 423.078,156.854 423.243,157.363 423.406,157.868 423.578,158.405 423.75,158.939 423.905,159.445 424.06,159.946 424.23,160.485 424.4,161.019 424.552,161.513 424.703,162.003 424.867,162.533 425.028,163.059 425.171,163.561 425.311,164.06 425.463,164.586 425.612,165.107 425.759,165.605 425.904,166.098 426.042,166.606 426.178,167.106 426.313,167.608 426.447,168.106 426.58,168.601 426.712,169.092 426.832,169.615 426.95,170.134 427.066,170.636 427.18,171.134 427.284,171.671 427.387,172.205 427.489,172.729 427.591,173.25 427.682,173.809 427.772,174.362 427.86,174.909 427.944,175.439 428.027,175.964 428.106,176.524 428.182,177.083 428.262,177.587 428.341,178.09 428.411,178.656 428.48,179.22 428.552,179.729 428.623,180.236 428.694,180.813 428.759,181.337 428.823,181.857 428.883,182.469 428.944,183.076 428.995,183.618 429.047,184.156 429.097,184.741 429.154,185.283 429.212,185.823 429.266,186.394 429.32,186.965 429.385,187.485 429.449,188.006 429.504,188.562 429.559,189.118 429.613,189.665 429.667,190.211 429.711,190.774 429.747,191.345 429.782,191.914 429.812,192.483 429.841,193.051 429.866,193.622 429.891,194.193 429.913,194.759 429.936,195.33 429.959,195.9 429.979,196.471 429.999,197.043 430.027,197.61 430.056,198.177 430.088,198.739 430.13,199.288 430.173,199.836 430.215,200.381 430.259,200.92 430.312,201.446 430.365,201.968 430.415,202.48 430.466,202.988 430.519,203.522 430.571,204.054 430.621,204.565 430.67,205.076 430.716,205.63 430.76,206.186 430.792,206.727 430.824,207.267 430.824,207.84 430.814,208.414 430.803,208.986 430.805,209.56 430.805,210.131 430.807,210.7 430.807,211.27 430.824,211.84 430.839,212.412 430.853,212.985 430.858,213.555 430.863,214.126 430.835,214.69 430.803,215.254 430.754,215.796 430.707,216.331 430.66,216.868 430.606,217.395 430.552,217.925 430.501,218.455 430.451,218.988 430.402,219.517 430.352,220.048 430.31,220.605 430.269,221.164 430.228,221.713 430.188,222.261 430.158,222.833 430.132,223.399 430.105,223.965 430.084,224.538 430.063,225.11 430.043,225.681 430.023,226.253 430.002,226.823 429.98,227.396 429.957,227.971 429.927,228.535 429.897,229.101 429.864,229.67 429.83,230.24 429.784,230.789 429.728,231.328 429.666,231.862 429.602,232.389 429.538,232.917 429.467,233.426 429.395,233.936 429.333,234.485 429.27,235.035 429.202,235.558 429.135,236.085 429.08,236.667 429.026,237.256 428.943,237.754 428.879,238.365 428.815,238.98 428.739,239.482 428.662,239.985 428.584,240.539 428.505,241.098 428.427,241.597 428.348,242.1 428.269,242.637 428.189,243.179 428.103,243.681 428.015,244.185 427.931,244.717 427.844,245.251 427.756,245.779 427.669,246.323 427.581,246.868 427.49,247.423 427.398,247.981 427.296,248.482 427.193,248.985 427.095,249.547 426.995,250.114 426.876,250.593 426.756,251.075 426.642,251.611 426.526,252.151 426.385,252.639 426.243,253.133 426.117,253.633 425.989,254.138 425.842,254.632 425.693,255.132 425.559,255.617 425.424,256.107 425.276,256.609 425.125,257.116 424.988,257.61 424.848,258.109 424.692,258.607 424.534,259.11 424.381,259.611 424.226,260.117 424.068,260.624 423.871,261.155 423.71,261.661 423.548,262.171 423.387,262.679 423.224,263.19 423.058,263.698 422.877,264.208 422.721,264.712 422.565,265.219 422.391,265.729 422.217,266.241 422.061,266.748 421.902,267.251 421.731,267.772 421.565,268.278 421.399,268.784 421.221,269.309 421.042,269.833 420.871,270.345 420.7,270.857 420.514,271.374 420.328,271.891 420.147,272.4 419.966,272.908 419.784,273.42 419.602,273.931 419.412,274.425 419.22,274.918 419.018,275.419 418.777,275.94 418.587,276.417 418.396,276.893 418.171,277.38 417.946,277.865 417.741,278.328 417.535,278.791 417.292,279.266 417.048,279.74 416.796,280.211 416.566,280.67 416.335,281.127 416.081,281.59 415.801,282.067 415.53,282.538 415.259,283.007 414.988,283.471 414.715,283.933 414.453,284.382 414.19,284.827 413.909,285.29 413.616,285.763 413.326,286.227 413.046,286.677 412.803,287.091 412.503,287.554 412.202,288.013 411.908,288.454 411.496,289.002 411.186,289.46 410.878,289.914 410.577,290.347 410.275,290.778 409.974,291.207 409.439,291.869 409.158,292.275 408.88,292.678 408.629,293.058 408.337,293.471 408.046,293.882 407.775,294.272 407.506,294.659 407.236,295.044 406.935,295.454 406.666,295.836 406.37,296.235 406.075,296.631 405.714,297.071 405.337,297.523 404.965,297.968 404.567,298.423 404.176,298.868 403.738,299.321 403.311,299.762 402.892,300.193 402.469,300.619 402.049,301.042 401.683,301.452 401.316,301.86 400.906,302.288 400.497,302.716 400.088,303.142 399.668,303.541 399.247,303.941 398.807,304.371 398.381,304.744 397.959,305.098 397.563,305.408 397.164,305.719 396.712,306.104 396.234,306.51 395.754,306.889 395.159,307.394 394.731,307.687 394.301,307.977 393.889,308.217 393.473,308.463 393.057,308.708 392.642,308.924 392.218,309.132 391.793,309.338 391.37,309.539 390.946,309.739 390.51,309.915 390.072,310.097 389.619,310.266 389.167,310.435 388.713,310.624 388.258,310.813 387.803,311.001 387.3,311.159 386.797,311.316 386.273,311.471 385.748,311.626 385.199,311.779 384.647,311.933 384.078,312.081 " fill="none" stroke-width="1" stroke="rgb(0,0,255)" />
	<polyline points="376.321,108.366 375.725,108.526 375.153,108.693 374.579,108.855 374.006,109.018 373.443,109.207 372.88,109.395 372.358,109.573 371.837,109.751 371.345,109.946 370.886,110.14 370.437,110.333 369.988,110.528 369.538,110.734 369.09,110.942 368.657,111.162 368.226,111.382 367.796,111.602 367.354,111.845 366.914,112.088 366.458,112.394 366.006,112.697 365.571,112.975 365.112,113.306 364.414,113.933 363.889,114.377 363.357,114.841 362.9,115.208 362.46,115.569 362.022,115.929 361.536,116.354 361.054,116.776 360.572,117.228 360.093,117.679 359.605,118.145 359.139,118.602 358.684,119.071 358.261,119.534 357.826,119.998 357.354,120.486 356.869,120.989 356.309,121.565 355.705,122.187 355.327,122.647 354.938,123.122 354.574,123.58 354.202,124.05 353.848,124.507 353.536,124.936 353.266,125.336 352.996,125.74 352.67,126.19 352.375,126.617 352.079,127.048 351.772,127.49 351.465,127.937 351.071,128.467 350.742,128.942 350.375,129.451 350.004,129.969 349.668,130.46 349.332,130.957 349.008,131.44 348.699,131.917 348.375,132.418 348.05,132.924 347.751,133.401 347.452,133.881 347.167,134.355 346.881,134.833 346.582,135.324 346.282,135.818 345.986,136.309 345.691,136.806 345.41,137.295 345.128,137.786 344.836,138.291 344.543,138.798 344.267,139.298 343.991,139.799 343.721,140.31 343.45,140.824 343.172,141.348 342.894,141.875 342.651,142.386 342.409,142.899 342.182,143.415 341.955,143.933 341.724,144.465 341.493,144.998 341.279,145.532 341.066,146.068 340.855,146.6 340.645,147.132 340.45,147.678 340.257,148.226 340.059,148.772 339.859,149.323 339.659,149.875 339.467,150.436 339.276,150.998 339.087,151.566 338.896,152.136 338.703,152.703 338.51,153.269 338.312,153.858 338.132,154.422 337.954,154.985 337.757,155.569 337.561,156.152 337.385,156.707 337.21,157.261 337.027,157.841 336.853,158.395 336.681,158.946 336.491,159.527 336.304,160.105 336.138,160.661 335.974,161.212 335.797,161.791 335.635,162.348 335.475,162.902 335.317,163.48 335.16,164.051 335.003,164.616 334.847,165.18 334.693,165.731 334.525,166.314 334.359,166.891 334.21,167.444 334.063,167.991 333.901,168.57 333.741,169.142 333.601,169.708 333.463,170.27 333.317,170.841 333.182,171.417 333.049,171.988 332.929,172.574 332.809,173.152 332.687,173.753 332.584,174.367 332.483,174.973 332.38,175.575 332.278,176.17 332.189,176.789 332.088,177.353 331.99,177.91 331.908,178.526 331.829,179.132 331.745,179.699 331.673,180.325 331.602,180.937 331.536,181.558 331.472,182.167 331.412,182.807 331.354,183.447 331.297,184.077 331.235,184.689 331.173,185.294 331.107,185.892 331.037,186.489 330.968,187.092 330.893,187.669 330.819,188.242 330.755,188.836 330.704,189.452 330.654,190.066 330.616,190.688 330.59,191.325 330.564,191.963 330.543,192.578 330.523,193.195 330.507,193.83 330.491,194.428 330.476,195.027 330.46,195.663 330.444,196.297 330.426,196.878 330.403,197.518 330.373,198.149 330.328,198.694 330.271,199.313 330.214,199.932 330.154,200.454 330.094,200.975 330.037,201.615 329.981,202.247 329.908,202.739 329.845,203.356 329.783,203.968 329.718,204.485 329.655,204.998 329.605,205.625 329.557,206.251 329.517,206.805 329.488,207.434 329.461,208.068 329.437,208.65 329.415,209.237 329.402,209.881 329.398,210.488 329.396,211.094 329.404,211.737 329.42,212.34 329.437,212.938 329.457,213.574 329.485,214.202 329.53,214.776 329.581,215.391 329.635,216.009 329.7,216.553 329.766,217.107 329.826,217.738 329.904,218.28 329.981,218.823 330.036,219.468 330.087,220.112 330.144,220.684 330.202,221.254 330.246,221.897 330.283,222.492 330.32,223.088 330.347,223.74 330.371,224.342 330.395,224.944 330.414,225.58 330.433,226.216 330.453,226.824 330.474,227.447 330.494,228.071 330.519,228.694 330.548,229.312 330.576,229.93 330.622,230.552 330.671,231.171 330.726,231.752 330.797,232.356 330.867,232.961 330.939,233.511 331.011,234.062 331.085,234.666 331.16,235.271 331.224,235.852 331.284,236.484 331.344,237.125 331.401,237.739 331.463,238.377 331.527,239.032 331.593,239.631 331.661,240.247 331.74,240.854 331.827,241.408 331.916,241.972 332.001,242.562 332.088,243.156 332.185,243.715 332.274,244.301 332.364,244.899 332.466,245.499 332.57,246.108 332.668,246.716 332.79,247.317 332.913,247.924 333.024,248.518 333.138,249.113 333.274,249.699 333.411,250.29 333.538,250.884 333.685,251.464 333.836,252.05 333.982,252.631 334.171,253.217 334.328,253.785 334.484,254.353 334.643,254.926 334.806,255.489 334.97,256.056 335.124,256.623 335.279,257.194 335.447,257.772 335.611,258.331 335.777,258.894 335.949,259.466 336.163,260.054 336.334,260.614 336.507,261.177 336.693,261.735 336.865,262.286 337.039,262.841 337.214,263.396 337.391,263.953 337.567,264.5 337.744,265.049 337.928,265.604 338.143,266.176 338.316,266.733 338.502,267.293 338.689,267.854 338.872,268.408 339.057,268.963 339.236,269.515 339.416,270.068 339.605,270.618 339.794,271.168 339.981,271.71 340.177,272.248 340.367,272.788 340.556,273.332 340.746,273.874 340.948,274.403 341.183,274.947 341.396,275.488 341.609,276.028 341.839,276.566 342.07,277.101 342.307,277.641 342.544,278.179 342.785,278.691 343.028,279.202 343.417,279.863 343.668,280.36 343.918,280.854 344.208,281.372 344.498,281.887 344.801,282.404 345.104,282.918 345.395,283.415 345.685,283.909 345.969,284.39 346.396,285.008 346.677,285.481 346.957,285.949 347.236,286.413 347.515,286.874 347.818,287.354 348.12,287.83 348.411,288.292 348.702,288.751 348.991,289.204 349.571,289.937 349.867,290.39 350.179,290.845 350.494,291.3 350.805,291.748 351.28,292.368 351.749,292.98 352.037,293.403 352.304,293.806 352.599,294.236 352.894,294.665 353.178,295.08 353.573,295.58 353.965,296.074 354.298,296.511 354.629,296.945 355.006,297.412 355.326,297.836 355.734,298.324 356.134,298.8 356.529,299.264 356.91,299.711 357.421,300.241 357.825,300.694 358.314,301.203 358.768,301.692 359.221,302.178 359.727,302.676 360.231,303.169 360.703,303.606 361.176,304.042 361.66,304.476 362.149,304.913 362.624,305.332 363.105,305.754 363.64,306.239 364.084,306.596 364.508,306.925 364.974,307.297 365.385,307.582 365.793,307.847 366.232,308.143 366.725,308.489 367.22,308.835 367.647,309.066 368.079,309.283 368.52,309.501 368.961,309.718 369.395,309.892 369.83,310.062 370.285,310.228 370.746,310.379 371.214,310.515 371.685,310.682 372.155,310.848 372.636,310.979 373.131,311.103 373.669,311.225 374.204,311.346 374.738,311.462 375.294,311.579 375.847,311.694 376.463,311.782 377.078,311.868 377.685,311.957 378.302,312.043 378.957,312.11 379.645,312.155 380.325,312.199 381.013,312.23 381.688,312.236 382.319,312.22 382.935,312.19 383.507,312.135 384.078,312.081 " fill="none" stroke-width="1" stroke="rgb(0,0,255)" />
</g></svg>
