<?xml version="1.0" ?>
<svg xmlns="http://www.w3.org/2000/svg" xmlns:ev="http://www.w3.org/2001/xml-events" xmlns:xlink="http://www.w3.org/1999/xlink" baseProfile="full" height="548px" version="1.1" viewBox="100.08931449999999 105.09271449999999 344.892371 314.7195710000001" width="600px">
	<defs/>
	<path d="M 411.5,180.5 L 411.356,177.887 L 411.01,176.156 L 409.006,172.909 L 406.127,169.081 L 399.735,162.168 L 393.798,156.086 L 390.786,153.225 L 386.769,149.823 L 381.314,146.088 L 377.114,143.885 L 373.245,142.414 L 364.573,139.487 L 356.155,137.197 L 352.978,136.459 L 341.843,134.388 L 332.009,133.184 L 316.946,132.16 L 306.021,131.857 L 298.806,131.439 L 274.773,131.51 L 270.231,131.821 L 262.182,132.06 L 251.215,132.732 L 239.983,133.516 L 235.003,134.079 L 229.051,134.936 L 220.128,136.492 L 204.923,138.42 L 199.036,139.603 L 192.791,141.218 L 185.09,143.624 L 179.815,145.454 L 162.005,150.988 L 155.969,153.073 L 153.131,154.287 L 149.025,156.403 L 146.22,158.149 L 142.804,160.763 L 132.639,171.005 L 130.463,174.028 L 129.4,176.143 L 129.127,177.064 L 128.95,180.039 L 128.977,183.265 L 130.459,192.875 L 132.941,212.741 L 133.825,216.191 L 134.092,217.945" fill="none" stroke="rgb(31,119,180)" stroke-width="3"/>
	<path d="M 134.092,217.945 L 135.186,218.153 L 137.9,220.167 L 146.31,229.059 L 149.956,232.402 L 155.86,236.932 L 159.931,239.668 L 164.433,242.08 L 168.577,243.906 L 180.804,247.761 L 187.944,249.429 L 199.96,251.141 L 208.014,252.496 L 214.982,253.349 L 227.907,254.445 L 238.145,256.318 L 242.078,256.844 L 248.246,257.183 L 259.966,257.264 L 268.147,257.178 L 273.763,256.819 L 279.118,256.048 L 287.176,254.233 L 295.091,252.168 L 300.962,250.413 L 306.252,249.125 L 316.044,246.267 L 322.042,244.282 L 340.043,237.499 L 348.906,233.538 L 359.93,227.303 L 365.202,223.975 L 370.016,219.847 L 377.412,213.068 L 388.942,201.723 L 393.146,198.47 L 400.028,193.792 L 403.232,191.906 L 406.055,189.968 L 407.17,189.401 L 411.5,180.5" fill="none" stroke="rgb(174,199,232)" stroke-width="3"/>
	<path d="M 414.473,346.764 L 409.138,354.027 L 404.967,355.917 L 398.934,358.923 L 396.363,359.944 L 391.806,361.435 L 390.052,362.241 L 387.127,363.85 L 381.092,367.562 L 376.944,369.613 L 370.965,372.167 L 358.04,376.937 L 354.061,378.728 L 349.039,381.646 L 344.82,383.023 L 335.429,384.825 L 323.876,387.593 L 298.949,391.66 L 289.656,392.656 L 276.949,393.334 L 269.857,393.466 L 258.139,393.384 L 250.191,392.908 L 240.492,392.709 L 226.099,391.729 L 213.826,390.251 L 200.868,388.041 L 195.107,386.732 L 190.14,384.99 L 169.08,376.354 L 162.031,373.14 L 155.092,369.176 L 147.898,364.707 L 137.52,358.978 L 135.112,357.498 L 129.5,353.5" fill="none" stroke="rgb(255,127,14)" stroke-width="3"/>
	<path d="M 356.207,187.644 L 353.937,191.834 L 349.133,197.949 L 342.821,206.981 L 340.146,210.167 L 338.427,211.879 L 335.951,213.814 L 331.035,216.969 L 327.872,218.698 L 324.526,220.001 L 320.999,220.815 L 318.912,221.085 L 314.297,221.314 L 300.892,221.569 L 294.914,221.987 L 284.767,223.106 L 278.76,223.437 L 266.04,223.334 L 263.004,223.019 L 259.779,222.423 L 254.833,221.244 L 247.963,219.328 L 237.851,216.237 L 228.263,213.078 L 222.035,210.663 L 218.077,208.658 L 209.137,203.361 L 199.487,197.046 L 191.115,192.303" fill="none" stroke="rgb(255,187,120)" stroke-width="3"/>
	<path d="M 356.207,187.644 L 354.66,182.8 L 353.528,180.108 L 352.493,178.105 L 351.043,176.072 L 346.827,172.606 L 342.675,170.254 L 339.382,168.692 L 336.016,167.369 L 333.071,166.457 L 327.771,165.096 L 325.9,164.805 L 316.543,164.369 L 304.182,164.318 L 288.722,165.238 L 275.843,166.758 L 265.971,167.581 L 257.925,167.731 L 249.28,167.276 L 241.859,167.248 L 235.668,167.759 L 230.186,168.811 L 222.566,171.014 L 218.27,172.076 L 208.209,175.084 L 204.8,176.234 L 203.231,176.952 L 201.185,178.316 L 198.219,180.816 L 196.808,182.123 L 195.149,184.105 L 194.36,185.188 L 193.3,187.204 L 191.115,192.303" fill="none" stroke="rgb(44,160,44)" stroke-width="3"/>
	<path d="M 411.5,180.5 L 409.015,193.328 L 410.589,211.734 L 410.94,218.819 L 413.73,247.452 L 414.57,263.913 L 414.833,282.199 L 416.121,304.615 L 416.101,310.096 L 415.582,319.946 L 415.386,337.213 L 415.138,341.537 L 414.473,346.764" fill="none" stroke="rgb(152,223,138)" stroke-width="3"/>
	<path d="M 134.092,217.945 L 132.754,219.761 L 132.472,222.242 L 132.409,228.962 L 132.084,236.822 L 132.455,244.768 L 132.568,253.692 L 132.967,261.232 L 133.228,276.315 L 133.583,282.8 L 133.739,296.346 L 134.108,302.825 L 134.044,306.345 L 133.47,312.188 L 133.071,320.329 L 131.799,332.32 L 130.655,339.728 L 129.019,346.292 L 129.5,353.5" fill="none" stroke="rgb(214,39,40)" stroke-width="3"/>
</svg>
