<?xml version="1.0" standalone="no" ?>
<!DOCTYPE svg PUBLIC "-//W3C//DTD SVG 1.1//EN" "http://www.w3.org/Graphics/SVG/1.1/DTD/svg11.dtd">
<svg width="512px" height="512px" xmlns="http://www.w3.org/2000/svg" xmlns:xlink="http://www.w3.org/1999/xlink" version="1.1" >

<g>	<image style="overflow: visible; opacity: 0.4" width="512" height="512" xlink:href="myflange2c_512_erode.png" />

</g>
<g>	<polyline points="411.5,180.5 411.379,180.807 411.258,181.113 411.13,181.435 411.003,181.757 410.872,182.075 410.748,182.378 410.624,182.681 410.5,182.984 410.37,183.29 410.239,183.597 410.109,183.903 409.984,184.204 409.869,184.501 409.753,184.797 409.638,185.094 409.506,185.414 409.374,185.735 409.243,186.055 409.126,186.349 409.009,186.644 408.88,186.943 408.742,187.264 408.603,187.584 408.464,187.905 408.329,188.227 408.194,188.549 408.058,188.871 407.917,189.203 " fill="none" stroke-width="1" stroke="rgb(0,0,255)" />
	<polyline points="414.473,346.764 414.368,349.648 " fill="none" stroke-width="1" stroke="rgb(0,0,255)" />
	<polyline points="414.368,349.648 414.245,349.914 414.122,350.182 413.999,350.449 413.874,350.712 413.749,350.975 413.624,351.238 413.5,351.5 " fill="none" stroke-width="1" stroke="rgb(0,0,255)" />
	<polyline points="413.5,351.5 412.99,351.84 412.494,352.16 412,352.452 411.506,352.746 411.01,353.04 410.535,353.299 410.058,353.558 409.599,353.792 409.138,354.027 408.711,354.228 408.282,354.43 407.852,354.632 407.424,354.831 406.994,355.031 406.598,355.194 406.201,355.359 405.802,355.524 405.385,355.72 404.967,355.917 404.511,356.176 404.053,356.437 403.627,356.65 403.198,356.864 402.773,357.083 402.38,357.276 401.985,357.471 401.552,357.683 401.116,357.894 400.703,358.103 400.28,358.305 399.854,358.507 399.395,358.715 398.934,358.923 398.511,359.104 398.087,359.286 397.654,359.453 397.22,359.619 396.786,359.786 396.363,359.944 395.865,360.096 395.428,360.244 394.991,360.394 394.517,360.546 394.043,360.699 393.6,360.847 393.157,360.995 392.707,361.14 392.256,361.286 391.806,361.435 391.371,361.63 390.935,361.827 390.508,362.031 390.052,362.241 389.634,362.454 389.214,362.669 388.793,362.884 388.375,363.122 387.955,363.361 387.542,363.605 387.127,363.85 386.7,364.112 386.266,364.379 385.831,364.647 385.405,364.907 384.978,365.18 384.54,365.465 384.1,365.752 383.668,366.025 383.243,366.28 382.817,366.536 382.385,366.799 381.949,367.064 381.522,367.312 381.092,367.562 380.676,367.789 380.257,368.017 379.832,368.244 379.422,368.447 379.01,368.652 378.596,368.847 378.181,369.043 377.771,369.233 377.358,369.422 376.944,369.613 376.531,369.796 376.116,369.98 375.696,370.162 375.275,370.345 374.852,370.529 374.431,370.707 374.009,370.885 373.573,371.078 373.14,371.264 372.712,371.447 372.282,371.63 371.851,371.814 371.412,371.985 370.965,372.167 370.528,372.328 370.091,372.488 369.645,372.653 369.198,372.819 368.757,372.974 368.315,373.137 367.872,373.299 367.425,373.454 366.978,373.608 366.533,373.773 366.089,373.937 365.641,374.102 365.196,374.267 364.752,374.423 364.31,374.579 363.869,374.734 363.42,374.905 362.973,375.074 362.53,375.245 362.09,375.414 361.635,375.591 361.183,375.766 360.738,375.945 360.295,376.104 359.856,376.262 359.385,376.446 358.918,376.627 358.477,376.783 358.04,376.937 357.576,377.135 357.117,377.331 356.69,377.511 356.267,377.69 355.848,377.866 355.397,378.086 354.93,378.303 354.492,378.517 354.061,378.728 353.581,379.002 353.123,379.278 352.692,379.528 352.268,379.774 351.849,380.016 351.358,380.308 350.876,380.592 350.418,380.846 349.965,381.094 349.499,381.372 349.039,381.646 348.614,381.812 348.19,381.975 347.707,382.141 347.223,382.305 346.749,382.445 346.275,382.584 345.798,382.722 345.311,382.873 344.82,383.023 344.334,383.127 343.843,383.231 343.326,383.328 342.801,383.425 342.303,383.511 341.798,383.597 341.291,383.687 340.777,383.777 340.296,383.862 339.81,383.947 339.319,384.034 338.806,384.126 338.329,384.225 337.848,384.325 337.363,384.424 336.874,384.524 336.391,384.623 335.905,384.722 335.429,384.825 334.95,384.93 334.46,385.041 334.008,385.146 333.55,385.25 333.089,385.354 332.634,385.464 332.178,385.574 331.729,385.68 331.279,385.786 330.828,385.892 330.372,386.007 329.9,386.144 329.449,386.269 328.998,386.394 328.531,386.52 328.065,386.646 327.611,386.766 327.158,386.885 326.686,387.004 326.227,387.111 325.763,387.21 325.301,387.308 324.841,387.405 324.357,387.5 323.876,387.593 323.398,387.683 322.922,387.771 322.437,387.86 321.957,387.947 321.479,388.035 320.947,388.104 320.451,388.174 319.961,388.243 319.472,388.312 318.988,388.38 318.516,388.449 318.046,388.519 317.584,388.591 317.122,388.663 316.628,388.73 316.131,388.797 315.662,388.865 315.189,388.933 314.645,389.001 314.161,389.078 313.702,389.158 313.24,389.238 312.775,389.319 312.284,389.402 311.792,389.486 311.328,389.568 310.863,389.651 310.392,389.737 309.92,389.823 309.469,389.915 309.019,390.007 308.544,390.095 308.07,390.182 307.602,390.269 307.135,390.356 306.666,390.436 306.199,390.515 305.708,390.608 305.217,390.701 304.735,390.774 304.255,390.847 303.778,390.919 303.256,391.008 302.774,391.091 302.308,391.16 301.847,391.228 301.354,391.304 300.868,391.38 300.409,391.445 299.955,391.509 299.45,391.585 298.949,391.66 298.479,391.716 298.012,391.773 297.485,391.837 296.959,391.9 296.464,391.951 295.971,392.003 295.457,392.071 294.945,392.139 294.49,392.193 294.037,392.247 293.525,392.306 293.017,392.365 292.564,392.413 292.113,392.46 291.613,392.506 291.114,392.551 290.641,392.588 290.166,392.624 289.656,392.656 289.144,392.687 288.65,392.711 288.155,392.733 287.64,392.753 287.125,392.773 286.626,392.792 286.127,392.81 285.613,392.834 285.101,392.859 284.591,392.888 284.084,392.918 283.585,392.962 283.088,393.006 282.542,393.036 281.997,393.065 281.503,393.09 281.006,393.114 280.487,393.145 279.963,393.177 279.472,393.204 278.978,393.231 278.476,393.259 277.968,393.287 277.462,393.31 276.949,393.334 276.448,393.353 275.937,393.372 275.431,393.387 274.916,393.401 274.418,393.412 273.911,393.422 273.406,393.43 272.893,393.439 272.393,393.445 271.886,393.451 271.38,393.455 270.868,393.46 270.365,393.463 269.857,393.466 269.35,393.468 268.838,393.47 268.333,393.471 267.824,393.472 267.316,393.472 266.805,393.472 266.297,393.471 265.788,393.471 265.279,393.469 264.77,393.467 264.261,393.465 263.752,393.463 263.244,393.459 262.733,393.456 262.223,393.452 261.714,393.446 261.206,393.441 260.693,393.435 260.181,393.428 259.672,393.419 259.165,393.41 258.65,393.397 258.139,393.384 257.639,393.365 257.142,393.346 256.641,393.321 256.141,393.295 255.659,393.264 255.176,393.234 254.686,393.196 254.194,393.158 253.714,393.125 253.232,393.092 252.728,393.059 252.223,393.026 251.728,393.001 251.237,392.966 250.714,392.937 250.191,392.908 249.685,392.89 249.18,392.873 248.657,392.86 248.134,392.846 247.631,392.837 247.127,392.828 246.612,392.82 246.096,392.812 245.592,392.806 245.087,392.799 244.575,392.792 244.062,392.786 243.555,392.778 243.047,392.77 242.534,392.761 242.021,392.752 241.51,392.74 241.001,392.727 240.492,392.709 239.989,392.688 239.496,392.66 239.005,392.632 238.522,392.596 238.041,392.561 237.566,392.521 237.091,392.481 236.619,392.44 236.147,392.399 235.656,392.362 235.165,392.325 234.674,392.291 234.181,392.256 233.669,392.227 233.157,392.198 232.65,392.17 232.142,392.142 231.62,392.114 231.098,392.086 230.594,392.055 230.089,392.024 229.577,391.987 229.061,391.957 228.563,391.924 228.064,391.892 227.566,391.853 227.066,391.814 226.584,391.772 226.099,391.729 225.617,391.68 225.13,391.631 224.653,391.581 224.17,391.531 223.679,391.48 223.181,391.428 222.685,391.378 222.183,391.326 221.691,391.269 221.195,391.212 220.704,391.152 220.21,391.092 219.727,391.029 219.24,390.964 218.74,390.905 218.239,390.846 217.753,390.782 217.266,390.718 216.78,390.654 216.278,390.592 215.775,390.53 215.291,390.465 214.805,390.398 214.317,390.325 213.826,390.251 213.366,390.172 212.905,390.092 212.439,390.002 211.981,389.915 211.529,389.827 211.076,389.738 210.613,389.651 210.149,389.564 209.677,389.481 209.205,389.398 208.713,389.319 208.22,389.241 207.736,389.162 207.253,389.083 206.77,389.004 206.222,388.936 205.742,388.86 205.263,388.784 204.783,388.707 204.276,388.629 203.768,388.55 203.305,388.466 202.839,388.381 202.34,388.297 201.835,388.212 201.356,388.127 200.868,388.041 200.378,387.941 199.886,387.841 199.4,387.744 198.913,387.647 198.418,387.547 197.921,387.445 197.438,387.336 196.952,387.226 196.491,387.107 196.027,386.987 195.568,386.86 195.107,386.732 194.649,386.59 194.188,386.446 193.733,386.302 193.277,386.157 192.819,386.01 192.381,385.857 191.942,385.702 191.48,385.517 191.017,385.331 190.579,385.161 190.14,384.99 189.689,384.808 189.238,384.624 188.788,384.441 188.347,384.257 187.904,384.073 187.423,383.875 186.94,383.676 186.506,383.505 186.071,383.334 185.594,383.133 185.116,382.93 184.663,382.731 184.209,382.531 183.757,382.34 183.304,382.147 182.848,381.953 182.4,381.765 181.952,381.577 181.502,381.393 181.051,381.207 180.608,381.033 180.13,380.836 179.688,380.666 179.246,380.495 178.804,380.325 178.341,380.144 177.879,379.963 177.444,379.786 177.009,379.609 176.559,379.421 176.109,379.234 175.674,379.049 175.242,378.872 174.81,378.695 174.354,378.49 173.899,378.284 173.468,378.111 173.038,377.937 172.59,377.754 172.142,377.571 171.712,377.399 171.283,377.228 170.854,377.057 170.395,376.874 169.936,376.69 169.508,376.522 169.08,376.354 168.603,376.147 168.128,375.941 167.699,375.754 167.271,375.567 166.844,375.38 166.414,375.191 165.983,375.003 165.543,374.805 165.104,374.608 164.657,374.405 164.21,374.201 163.749,373.976 163.313,373.771 162.878,373.565 162.454,373.353 162.031,373.14 161.581,372.896 161.104,372.616 160.67,372.382 160.229,372.142 159.773,371.893 159.323,371.627 158.883,371.367 158.467,371.132 158.053,370.897 157.613,370.641 157.175,370.386 156.756,370.148 156.339,369.91 155.928,369.67 155.51,369.423 155.092,369.176 154.675,368.921 154.253,368.663 153.833,368.406 153.396,368.128 152.967,367.859 152.549,367.599 152.132,367.339 151.691,367.054 151.258,366.777 150.827,366.501 150.408,366.236 149.99,365.971 149.551,365.695 149.113,365.419 148.708,365.184 148.304,364.949 147.898,364.707 147.499,364.485 147.102,364.264 146.708,364.042 146.315,363.827 145.922,363.612 145.489,363.371 145.057,363.13 144.668,362.916 144.276,362.696 143.886,362.475 143.483,362.258 143.081,362.041 142.691,361.833 142.304,361.626 141.92,361.42 141.513,361.202 141.109,360.985 140.723,360.78 140.339,360.575 139.957,360.372 139.527,360.14 139.1,359.909 138.701,359.673 138.303,359.439 137.909,359.206 137.52,358.978 137.073,358.702 136.679,358.46 136.289,358.22 135.904,357.983 135.508,357.74 135.112,357.498 134.656,357.179 134.208,356.866 133.765,356.548 133.334,356.239 132.911,355.938 132.425,355.567 131.945,355.201 131.475,354.877 131.008,354.555 130.506,354.209 130.005,353.864 129.5,353.5 " fill="none" stroke-width="1" stroke="rgb(0,0,255)" />
	<polyline points="414.473,346.764 420.5,347.5 " fill="none" stroke-width="1" stroke="rgb(0,0,255)" />
	<polyline points="414.368,349.648 415.034,349.4 415.725,349.183 416.389,348.945 417.115,348.724 417.85,348.505 418.5,348.224 419.149,347.94 419.819,347.736 420.5,347.5 " fill="none" stroke-width="1" stroke="rgb(0,0,255)" />
	<polyline points="411.5,180.5 411.496,180.076 411.465,179.622 411.434,179.168 411.408,178.741 411.382,178.314 411.356,177.887 411.302,177.443 411.248,176.996 411.169,176.571 411.01,176.156 410.815,175.779 410.601,175.4 410.376,175.018 410.164,174.657 409.951,174.293 409.702,173.934 409.47,173.591 409.238,173.25 409.006,172.909 408.765,172.58 408.522,172.251 408.276,171.919 408.049,171.585 407.766,171.243 407.476,170.897 407.213,170.54 406.935,170.171 406.675,169.815 406.406,169.452 406.127,169.081 405.757,168.69 405.373,168.29 404.978,167.883 404.646,167.491 404.302,167.09 403.927,166.688 403.537,166.271 403.142,165.852 402.783,165.45 402.417,165.043 402.033,164.642 401.647,164.226 401.26,163.811 400.897,163.407 400.52,162.997 400.129,162.585 399.735,162.168 399.324,161.744 398.914,161.323 398.525,160.915 398.148,160.512 397.753,160.098 397.344,159.69 396.937,159.286 396.543,158.89 396.148,158.492 395.753,158.079 395.357,157.676 394.964,157.278 394.574,156.888 394.163,156.495 393.798,156.086 393.372,155.672 392.94,155.252 392.516,154.846 392.099,154.466 391.667,154.061 391.229,153.645 390.786,153.225 390.36,152.853 389.949,152.497 389.511,152.106 389.022,151.667 388.598,151.33 388.168,150.988 387.715,150.61 387.25,150.223 386.769,149.823 386.339,149.505 385.899,149.18 385.48,148.904 384.99,148.528 384.563,148.23 384.128,147.926 383.659,147.605 383.178,147.277 382.744,147.013 382.284,146.714 381.82,146.415 381.314,146.088 380.838,145.797 380.393,145.553 379.944,145.309 379.479,145.059 378.991,144.793 378.534,144.573 378.073,144.355 377.592,144.118 377.114,143.885 376.653,143.698 376.186,143.509 375.699,143.32 375.208,143.131 374.733,142.946 374.246,142.77 373.748,142.592 373.245,142.414 372.747,142.247 372.247,142.081 371.73,141.912 371.213,141.744 370.707,141.576 370.2,141.409 369.68,141.229 369.16,141.05 368.66,140.883 368.162,140.716 367.641,140.529 367.121,140.344 366.624,140.174 366.128,140.007 365.607,139.828 365.088,139.652 364.573,139.487 364.06,139.324 363.526,139.175 362.994,139.026 362.469,138.883 361.946,138.741 361.396,138.597 360.847,138.454 360.317,138.318 359.789,138.183 359.257,138.033 358.734,137.891 358.213,137.75 357.694,137.615 357.179,137.481 356.666,137.338 356.155,137.197 355.639,137.066 355.124,136.936 354.6,136.811 354.081,136.689 353.527,136.573 352.978,136.459 352.431,136.354 351.889,136.249 351.318,136.149 350.751,136.049 350.207,135.949 349.648,135.853 349.093,135.758 348.548,135.662 348.006,135.568 347.457,135.474 346.913,135.38 346.396,135.279 345.882,135.178 345.369,135.079 344.858,134.98 344.359,134.874 343.862,134.768 343.362,134.672 342.865,134.577 342.353,134.482 341.843,134.388 341.309,134.306 340.776,134.226 340.228,134.145 339.687,134.068 339.15,133.992 338.561,133.927 337.977,133.862 337.423,133.796 336.876,133.731 336.329,133.665 335.788,133.6 335.255,133.537 334.715,133.476 334.18,133.415 333.636,133.355 333.096,133.295 332.551,133.239 332.009,133.184 331.443,133.133 330.881,133.082 330.304,133.039 329.733,132.997 329.148,132.951 328.576,132.913 328.011,132.875 327.415,132.844 326.826,132.813 326.253,132.786 325.667,132.76 325.082,132.734 324.518,132.705 323.956,132.674 323.39,132.64 322.827,132.606 322.294,132.565 321.766,132.524 321.236,132.478 320.733,132.43 320.231,132.382 319.702,132.339 319.17,132.296 318.628,132.258 318.08,132.221 317.514,132.191 316.946,132.16 316.372,132.136 315.798,132.113 315.226,132.094 314.648,132.078 314.072,132.062 313.502,132.048 312.934,132.034 312.355,132.022 311.777,132.01 311.209,131.997 310.63,131.986 310.051,131.974 309.485,131.962 308.918,131.95 308.337,131.936 307.754,131.921 307.188,131.903 306.606,131.88 306.021,131.857 305.466,131.827 304.91,131.797 304.342,131.76 303.775,131.724 303.245,131.685 302.701,131.644 302.159,131.602 301.623,131.567 301.083,131.533 300.516,131.505 299.944,131.477 299.376,131.458 298.806,131.439 298.223,131.425 297.653,131.415 297.081,131.406 296.505,131.399 295.926,131.393 295.357,131.388 294.785,131.384 294.21,131.381 293.641,131.38 293.07,131.378 292.497,131.377 291.922,131.377 291.352,131.377 290.78,131.377 290.206,131.377 289.635,131.377 289.064,131.378 288.491,131.379 287.917,131.38 287.346,131.381 286.776,131.381 286.202,131.382 285.631,131.383 285.061,131.384 284.486,131.386 283.913,131.387 283.343,131.388 282.777,131.389 282.201,131.391 281.631,131.393 281.066,131.395 280.486,131.398 279.913,131.401 279.347,131.405 278.788,131.409 278.208,131.417 277.638,131.426 277.078,131.435 276.485,131.451 275.901,131.468 275.334,131.489 274.773,131.51 274.184,131.545 273.625,131.585 273.07,131.624 272.491,131.672 271.915,131.719 271.364,131.754 270.819,131.789 270.231,131.821 269.667,131.842 269.11,131.864 268.513,131.88 267.923,131.897 267.362,131.908 266.805,131.92 266.219,131.933 265.652,131.945 265.086,131.958 264.485,131.975 263.87,131.993 263.302,132.014 262.747,132.035 262.182,132.06 261.626,132.089 261.078,132.119 260.533,132.155 259.996,132.192 259.459,132.234 258.926,132.276 258.417,132.316 257.908,132.356 257.386,132.394 256.861,132.432 256.325,132.468 255.785,132.504 255.231,132.535 254.666,132.562 254.098,132.589 253.529,132.613 252.958,132.638 252.378,132.667 251.795,132.696 251.215,132.732 250.648,132.779 250.08,132.826 249.506,132.878 248.933,132.93 248.399,132.995 247.825,133.027 247.25,133.06 246.699,133.095 246.147,133.13 245.602,133.164 245.056,133.2 244.498,133.233 243.936,133.268 243.385,133.299 242.827,133.33 242.252,133.362 241.693,133.395 241.129,133.429 240.558,133.472 239.983,133.516 239.432,133.567 238.876,133.619 238.326,133.683 237.77,133.749 237.219,133.812 236.666,133.877 236.109,133.943 235.544,134.008 235.003,134.079 234.475,134.159 233.947,134.24 233.419,134.316 232.891,134.392 232.377,134.47 231.86,134.549 231.307,134.621 230.748,134.693 230.219,134.775 229.639,134.855 229.051,134.936 228.521,135.03 227.998,135.123 227.459,135.212 226.917,135.303 226.389,135.395 225.86,135.489 225.343,135.584 224.827,135.68 224.319,135.784 223.812,135.887 223.302,135.983 222.773,136.073 222.245,136.162 221.711,136.245 221.186,136.327 220.654,136.411 220.128,136.492 219.587,136.568 219.051,136.642 218.488,136.709 217.929,136.776 217.353,136.839 216.782,136.901 216.186,136.959 215.584,137.017 215.046,137.082 214.49,137.146 213.931,137.211 213.378,137.275 212.825,137.34 212.26,137.409 211.723,137.477 211.183,137.544 210.626,137.613 210.064,137.682 209.524,137.758 208.974,137.833 208.408,137.914 207.831,137.995 207.23,138.075 206.665,138.158 206.091,138.244 205.513,138.331 204.923,138.42 204.378,138.513 203.824,138.609 203.292,138.714 202.752,138.821 202.226,138.927 201.703,139.041 201.162,139.145 200.628,139.256 200.088,139.369 199.564,139.485 199.036,139.603 198.516,139.724 197.991,139.847 197.472,139.975 196.959,140.108 196.437,140.238 195.912,140.369 195.393,140.504 194.873,140.64 194.35,140.781 193.825,140.923 193.307,141.069 192.791,141.218 192.272,141.37 191.753,141.523 191.242,141.693 190.723,141.867 190.206,142.041 189.704,142.205 189.205,142.37 188.674,142.531 188.147,142.691 187.649,142.844 187.155,142.996 186.62,143.164 186.089,143.331 185.588,143.478 185.09,143.624 184.549,143.821 184.009,144.016 183.511,144.187 183.014,144.357 182.473,144.532 181.933,144.705 181.43,144.88 180.926,145.054 180.371,145.253 179.815,145.454 179.286,145.61 178.754,145.766 178.239,145.945 177.725,146.101 177.208,146.257 176.676,146.415 176.141,146.573 175.617,146.72 175.091,146.867 174.52,147.028 174.006,147.201 173.5,147.368 172.993,147.537 172.475,147.714 171.954,147.891 171.449,148.066 170.937,148.223 170.35,148.411 169.76,148.601 169.258,148.755 168.754,148.91 168.2,149.084 167.693,149.244 167.183,149.405 166.668,149.56 166.15,149.716 165.643,149.876 165.134,150.038 164.611,150.197 164.086,150.358 163.568,150.516 163.048,150.675 162.527,150.831 162.005,150.988 161.493,151.156 160.981,151.324 160.471,151.493 159.962,151.663 159.457,151.835 158.953,152.008 158.445,152.175 157.94,152.342 157.444,152.524 156.95,152.705 156.458,152.889 155.969,153.073 155.484,153.268 155.004,153.462 154.534,153.665 154.068,153.868 153.594,154.072 153.131,154.287 152.663,154.521 152.202,154.754 151.743,154.984 151.274,155.216 150.812,155.446 150.364,155.671 149.925,155.894 149.47,156.15 149.025,156.403 148.59,156.659 148.164,156.912 147.668,157.23 147.186,157.542 146.697,157.848 146.22,158.149 145.709,158.538 145.215,158.916 144.704,159.261 144.204,159.605 143.719,160.022 143.258,160.393 142.804,160.763 142.357,161.182 141.94,161.624 141.537,162.023 141.113,162.449 140.737,162.84 140.364,163.242 139.996,163.64 139.623,164.01 139.215,164.412 138.82,164.804 138.42,165.21 138.021,165.616 137.669,165.956 137.266,166.331 136.869,166.703 136.485,167.071 136.077,167.499 135.727,167.837 135.342,168.263 134.964,168.686 134.602,169.035 134.262,169.35 133.926,169.666 133.593,170.001 133.276,170.318 132.964,170.637 132.639,171.005 132.35,171.371 132.07,171.736 131.772,172.106 131.511,172.478 131.257,172.849 130.995,173.216 130.726,173.622 130.463,174.028 130.223,174.445 129.985,174.862 129.792,175.288 129.597,175.715 129.4,176.143 129.246,176.598 129.127,177.064 129.067,177.549 129.012,178.042 129.005,178.514 129.007,178.987 128.977,179.512 128.95,180.039 128.939,180.562 128.932,181.092 128.931,181.64 128.933,182.2 128.953,182.726 128.977,183.265 129.04,183.735 129.108,184.206 129.174,184.667 129.242,185.128 129.317,185.587 129.394,186.047 129.467,186.515 129.542,186.985 129.624,187.448 129.707,187.915 129.784,188.402 129.862,188.89 129.946,189.371 130.031,189.853 130.102,190.343 130.175,190.833 130.241,191.356 130.307,191.879 130.383,192.377 130.459,192.875 130.522,193.413 130.586,193.952 130.659,194.47 130.732,194.989 130.793,195.543 130.854,196.096 130.925,196.632 130.996,197.167 131.063,197.706 131.129,198.244 131.201,198.788 131.264,199.339 131.327,199.887 131.395,200.44 131.463,200.99 131.525,201.54 131.586,202.088 131.653,202.636 131.72,203.181 131.783,203.721 131.847,204.258 131.916,204.796 131.983,205.327 132.058,205.872 132.126,206.422 132.193,206.972 132.259,207.551 132.325,208.131 132.393,208.701 132.46,209.271 132.564,209.794 132.644,210.413 132.724,211.033 132.813,211.563 132.901,212.093 132.941,212.741 133.059,213.232 133.181,213.691 133.312,214.143 133.451,214.673 133.593,215.201 133.709,215.696 133.825,216.191 133.888,216.8 133.939,217.417 134.092,217.945 " fill="none" stroke-width="1" stroke="rgb(0,0,255)" />
	<polyline points="134.092,217.945 134.638,218.055 135.186,218.153 135.606,218.473 136.032,218.794 136.443,219.103 136.803,219.366 137.174,219.63 137.557,219.903 137.9,220.167 138.218,220.461 138.525,220.758 138.832,221.059 139.092,221.325 139.352,221.601 139.612,221.878 139.87,222.16 140.135,222.445 140.4,222.734 140.665,223.025 140.925,223.313 141.201,223.618 141.48,223.927 141.858,224.317 142.152,224.639 142.449,224.963 142.746,225.281 143.044,225.599 143.345,225.923 143.665,226.262 143.985,226.602 144.3,226.934 144.631,227.283 144.962,227.634 145.292,227.99 145.623,228.34 145.956,228.692 146.31,229.059 146.721,229.451 147.135,229.846 147.507,230.219 147.882,230.594 148.289,230.974 148.692,231.311 149.096,231.65 149.54,232.027 149.956,232.402 150.352,232.73 150.751,233.059 151.136,233.35 151.529,233.643 151.924,233.937 152.306,234.234 152.69,234.533 153.078,234.835 153.484,235.158 153.878,235.457 154.252,235.727 154.629,235.999 155.019,236.284 155.437,236.606 155.86,236.932 156.245,237.201 156.633,237.472 157.025,237.745 157.425,238.015 157.849,238.313 158.244,238.574 158.643,238.836 159.044,239.099 159.486,239.383 159.931,239.668 160.329,239.89 160.729,240.125 161.13,240.36 161.538,240.586 161.949,240.811 162.331,240.995 162.745,241.211 163.162,241.428 163.572,241.626 163.985,241.824 164.433,242.08 164.829,242.269 165.231,242.454 165.636,242.639 166.043,242.824 166.458,243.029 166.89,243.228 167.304,243.398 167.721,243.567 168.14,243.736 168.577,243.906 169.016,244.074 169.451,244.228 169.887,244.381 170.337,244.528 170.789,244.675 171.232,244.82 171.676,244.965 172.122,245.097 172.577,245.236 173.031,245.374 173.476,245.512 173.921,245.648 174.372,245.797 174.822,245.945 175.269,246.093 175.715,246.24 176.16,246.387 176.631,246.528 177.1,246.668 177.561,246.805 178.02,246.941 178.485,247.085 178.948,247.227 179.407,247.356 179.866,247.484 180.335,247.624 180.804,247.761 181.261,247.881 181.716,248 182.17,248.126 182.698,248.269 183.223,248.41 183.68,248.519 184.135,248.625 184.633,248.737 185.129,248.847 185.586,248.948 186.043,249.047 186.521,249.15 186.996,249.252 187.471,249.341 187.944,249.429 188.44,249.512 188.933,249.594 189.441,249.672 189.947,249.749 190.458,249.819 190.967,249.888 191.491,249.96 192.013,250.032 192.518,250.095 193.023,250.159 193.538,250.229 194.053,250.299 194.545,250.365 195.037,250.43 195.54,250.502 196.044,250.575 196.536,250.642 197.031,250.709 197.524,250.779 198.02,250.851 198.506,250.924 198.996,250.997 199.477,251.069 199.96,251.141 200.446,251.228 200.934,251.315 201.405,251.393 201.877,251.47 202.366,251.557 202.855,251.644 203.32,251.721 203.783,251.799 204.279,251.884 204.772,251.969 205.231,252.045 205.686,252.121 206.139,252.196 206.622,252.278 207.102,252.358 207.559,252.427 208.014,252.496 208.515,252.569 209.013,252.642 209.492,252.703 209.97,252.762 210.488,252.83 211.003,252.897 211.483,252.957 211.962,253.016 212.483,253.075 213.002,253.133 213.488,253.185 213.97,253.236 214.478,253.293 214.982,253.349 215.461,253.391 215.938,253.433 216.443,253.477 216.945,253.521 217.417,253.56 217.887,253.6 218.371,253.647 218.856,253.694 219.326,253.738 219.797,253.782 220.287,253.825 220.779,253.868 221.269,253.907 221.761,253.945 222.275,253.979 222.791,254.012 223.293,254.051 223.797,254.09 224.324,254.128 224.854,254.167 225.364,254.205 225.877,254.243 226.401,254.289 226.928,254.336 227.416,254.39 227.907,254.445 228.4,254.513 228.895,254.582 229.348,254.655 229.803,254.73 230.272,254.812 230.743,254.895 231.216,254.979 231.662,255.067 232.111,255.156 232.579,255.244 233.05,255.332 233.501,255.422 233.954,255.513 234.415,255.603 234.877,255.692 235.338,255.79 235.798,255.887 236.265,255.969 236.73,256.061 237.193,256.152 237.671,256.236 238.145,256.318 238.619,256.394 239.087,256.468 239.588,256.541 240.083,256.612 240.566,256.673 241.045,256.732 241.564,256.788 242.078,256.844 242.574,256.887 243.067,256.93 243.595,256.965 244.122,256.999 244.624,257.031 245.125,257.063 245.66,257.09 246.195,257.116 246.694,257.135 247.195,257.153 247.719,257.168 248.246,257.183 248.746,257.193 249.25,257.203 249.77,257.212 250.27,257.219 250.773,257.225 251.288,257.231 251.806,257.236 252.309,257.24 252.814,257.243 253.328,257.247 253.843,257.25 254.349,257.252 254.855,257.254 255.369,257.256 255.883,257.258 256.39,257.259 256.897,257.26 257.411,257.261 257.925,257.262 258.432,257.263 258.939,257.263 259.453,257.263 259.966,257.264 260.474,257.263 260.98,257.263 261.495,257.262 262.007,257.262 262.515,257.26 263.02,257.258 263.536,257.256 264.049,257.253 264.556,257.248 265.061,257.243 265.579,257.237 266.093,257.229 266.601,257.22 267.106,257.209 267.628,257.194 268.147,257.178 268.658,257.158 269.166,257.136 269.688,257.106 270.207,257.075 270.705,257.038 271.193,256.999 271.717,256.974 272.244,256.948 272.753,256.911 273.258,256.866 273.763,256.819 274.24,256.762 274.717,256.704 275.194,256.646 275.66,256.578 276.128,256.509 276.603,256.438 277.086,256.366 277.551,256.291 278.024,256.214 278.564,256.132 279.118,256.048 279.585,255.952 280.034,255.852 280.508,255.746 280.986,255.637 281.433,255.528 281.883,255.417 282.35,255.307 282.819,255.196 283.28,255.084 283.742,254.972 284.259,254.87 284.776,254.768 285.26,254.664 285.743,254.559 286.224,254.454 286.7,254.344 287.176,254.233 287.613,254.109 288.049,253.985 288.499,253.856 288.949,253.726 289.392,253.6 289.835,253.473 290.323,253.354 290.812,253.235 291.275,253.118 291.738,253.001 292.174,252.883 292.658,252.767 293.143,252.651 293.593,252.536 294.045,252.421 294.567,252.295 295.091,252.168 295.526,252.038 295.97,251.902 296.433,251.759 296.899,251.616 297.334,251.479 297.77,251.342 298.209,251.205 298.665,251.066 299.144,250.931 299.582,250.8 300.021,250.669 300.491,250.541 300.962,250.413 301.42,250.291 301.879,250.169 302.358,250.046 302.852,249.931 303.342,249.824 303.835,249.716 304.334,249.603 304.838,249.49 305.309,249.373 305.784,249.254 306.252,249.125 306.723,248.995 307.202,248.854 307.674,248.718 308.149,248.582 308.618,248.445 309.09,248.307 309.555,248.175 310.022,248.043 310.477,247.909 310.934,247.775 311.395,247.64 311.857,247.505 312.317,247.371 312.778,247.235 313.24,247.097 313.703,246.957 314.17,246.819 314.639,246.681 315.109,246.541 315.576,246.404 316.044,246.267 316.509,246.122 316.976,245.976 317.44,245.829 317.906,245.681 318.367,245.538 318.828,245.394 319.292,245.238 319.757,245.082 320.222,244.925 320.675,244.766 321.128,244.606 321.585,244.444 322.042,244.282 322.491,244.113 322.941,243.945 323.397,243.773 323.853,243.601 324.298,243.438 324.744,243.274 325.189,243.11 325.64,242.945 326.089,242.773 326.53,242.599 326.971,242.424 327.421,242.245 327.872,242.066 328.312,241.898 328.753,241.73 329.193,241.562 329.649,241.379 330.105,241.195 330.548,241.029 330.989,240.855 331.443,240.676 331.897,240.498 332.34,240.328 332.784,240.157 333.237,239.992 333.694,239.821 334.152,239.649 334.606,239.49 335.061,239.33 335.515,239.166 335.968,239.001 336.421,238.836 336.873,238.671 337.325,238.512 337.777,238.353 338.229,238.184 338.68,238.015 339.152,237.841 339.598,237.67 340.043,237.499 340.529,237.299 341.014,237.098 341.459,236.91 341.902,236.728 342.342,236.527 342.781,236.326 343.221,236.136 343.66,235.945 344.097,235.749 344.559,235.538 345.02,235.326 345.451,235.138 345.882,234.949 346.31,234.756 346.737,234.564 347.163,234.371 347.608,234.162 348.051,233.952 348.48,233.745 348.906,233.538 349.334,233.319 349.76,233.099 350.205,232.864 350.628,232.638 351.05,232.413 351.494,232.167 351.936,231.92 352.366,231.676 352.794,231.433 353.232,231.176 353.668,230.918 354.103,230.664 354.526,230.418 354.947,230.171 355.369,229.928 355.8,229.679 356.209,229.448 356.616,229.216 357.019,228.986 357.432,228.749 357.841,228.514 358.248,228.274 358.651,228.036 359.048,227.803 359.492,227.552 359.93,227.303 360.328,227.064 360.723,226.819 361.112,226.575 361.515,226.337 361.915,226.099 362.321,225.848 362.72,225.599 363.114,225.352 363.607,225.031 364.003,224.803 364.399,224.532 364.792,224.259 365.202,223.975 365.658,223.585 366.096,223.211 366.467,222.893 366.844,222.589 367.26,222.239 367.678,221.887 368.114,221.492 368.495,221.154 368.885,220.824 369.266,220.497 369.642,220.171 370.016,219.847 370.377,219.523 370.742,219.194 371.112,218.861 371.485,218.515 371.857,218.169 372.228,217.841 372.571,217.522 372.914,217.201 373.285,216.84 373.662,216.484 374.037,216.13 374.386,215.818 374.736,215.505 375.088,215.19 375.469,214.835 375.867,214.483 376.232,214.161 376.622,213.798 377.009,213.438 377.412,213.068 377.839,212.663 378.199,212.319 378.548,211.986 378.896,211.628 379.284,211.259 379.667,210.894 380.03,210.528 380.363,210.2 380.703,209.867 381.039,209.531 381.395,209.184 381.754,208.833 382.108,208.485 382.442,208.149 382.783,207.818 383.126,207.489 383.493,207.118 383.884,206.748 384.22,206.399 384.552,206.058 384.892,205.722 385.229,205.364 385.565,205.009 385.963,204.636 386.3,204.288 386.645,203.932 387.016,203.573 387.362,203.199 387.713,202.82 388.147,202.422 388.549,202.061 388.942,201.723 389.331,201.424 389.722,201.124 390.128,200.785 390.506,200.488 390.887,200.189 391.278,199.875 391.661,199.582 392.045,199.289 392.409,199.018 392.778,198.744 393.146,198.47 393.506,198.219 393.866,197.968 394.222,197.72 394.576,197.473 394.93,197.227 395.307,196.953 395.671,196.701 396.033,196.451 396.374,196.235 396.714,196.022 397.064,195.787 397.43,195.552 397.795,195.319 398.157,195.088 398.499,194.87 398.838,194.656 399.243,194.349 399.647,194.044 400.028,193.792 400.38,193.587 400.731,193.383 401.081,193.181 401.441,192.953 401.801,192.742 402.16,192.531 402.512,192.325 402.863,192.119 403.232,191.906 403.606,191.649 403.977,191.396 404.362,191.119 404.751,190.84 405.135,190.559 405.586,190.247 406.055,189.968 406.603,189.672 407.17,189.401 407.917,189.203 " fill="none" stroke-width="1" stroke="rgb(0,0,255)" />
	<polyline points="407.917,189.203 408.363,190.179 408.685,191.038 408.853,192.093 409.015,193.328 409.173,195.046 409.314,196.604 409.442,198.072 409.567,199.498 409.684,200.82 409.8,202.114 409.892,203.466 409.976,204.776 410.072,205.996 410.173,207.168 410.276,208.301 410.381,209.42 410.487,210.534 410.589,211.734 410.684,213.019 410.772,214.315 410.837,215.78 410.867,217.391 410.94,218.819 411.053,219.728 411.157,220.671 411.262,221.697 411.37,222.911 411.478,224.26 411.591,225.672 411.712,226.901 411.841,228.245 411.976,229.285 412.1,230.505 412.218,231.732 412.336,233.053 412.455,234.517 412.578,235.825 412.705,236.981 412.833,238.123 412.962,239.234 413.091,240.295 413.218,241.347 413.339,242.581 413.448,243.854 413.55,245.08 413.642,246.243 413.73,247.452 413.803,248.827 413.864,250.173 413.916,251.521 413.965,252.889 414.02,254.199 414.07,255.595 414.133,256.878 414.202,258.113 414.28,259.243 414.36,260.265 414.441,261.365 414.517,262.577 414.57,263.913 414.608,265.264 414.636,266.569 414.654,267.879 414.669,269.181 414.681,270.467 414.692,271.751 414.703,273.039 414.713,274.321 414.723,275.607 414.735,276.897 414.748,278.187 414.764,279.506 414.792,280.841 414.833,282.199 414.895,283.655 414.984,284.717 415.074,285.942 415.168,287.126 415.259,288.261 415.343,289.369 415.411,290.707 415.464,292.064 415.51,293.437 415.562,294.793 415.622,296.117 415.695,297.355 415.774,298.462 415.856,299.597 415.932,300.818 415.995,302.093 416.066,303.27 416.121,304.615 416.142,306.029 416.15,307.4 416.134,308.776 416.101,310.096 416.047,311.386 415.982,312.578 415.926,313.878 415.857,315.145 415.781,316.244 415.699,317.365 415.622,318.626 415.582,319.946 415.552,321.296 415.531,322.607 415.518,323.902 415.507,325.198 415.497,326.473 415.488,327.745 415.479,329.014 415.471,330.292 415.462,331.567 415.451,332.88 415.439,334.256 415.421,335.684 415.386,337.213 415.321,338.795 415.245,340.165 415.138,341.537 415.013,342.8 414.883,343.766 414.741,344.86 414.633,345.803 414.473,346.764 " fill="none" stroke-width="1" stroke="rgb(0,0,255)" />
	<polyline points="134.092,217.945 133.885,218.644 133.757,219.41 133.256,219.585 132.754,219.761 132.655,220.572 132.558,221.407 132.472,222.242 132.406,223.078 132.381,223.769 132.387,224.393 132.396,225.025 132.404,225.635 132.413,226.25 132.421,226.891 132.42,227.556 132.42,228.227 132.409,228.962 132.386,229.721 132.352,230.505 132.318,231.295 132.279,232.074 132.237,232.854 132.195,233.634 132.155,234.422 132.117,235.225 132.091,236.03 132.084,236.822 132.096,237.579 132.111,238.368 132.144,239.076 132.19,239.734 132.228,240.435 132.268,241.141 132.313,241.824 132.351,242.548 132.39,243.265 132.427,243.994 132.455,244.768 132.472,245.603 132.482,246.439 132.491,247.25 132.496,248.07 132.499,248.877 132.501,249.685 132.506,250.486 132.511,251.291 132.522,252.102 132.541,252.905 132.568,253.692 132.604,254.446 132.642,255.209 132.686,255.952 132.735,256.655 132.784,257.386 132.833,258.115 132.874,258.865 132.912,259.656 132.939,260.453 132.967,261.232 132.989,262.038 133.004,262.828 133.026,263.639 133.041,264.43 133.057,265.218 133.069,266.019 133.079,266.803 133.088,267.594 133.097,268.387 133.104,269.17 133.112,269.959 133.12,270.746 133.129,271.536 133.137,272.331 133.148,273.13 133.161,273.931 133.18,274.731 133.204,275.519 133.228,276.315 133.261,277.083 133.298,277.825 133.343,278.526 133.387,279.227 133.434,279.907 133.476,280.608 133.519,281.307 133.555,282.035 133.583,282.8 133.603,283.592 133.622,284.378 133.635,285.18 133.643,285.976 133.648,286.774 133.652,287.56 133.655,288.342 133.657,289.131 133.659,289.91 133.661,290.708 133.665,291.495 133.667,292.282 133.674,293.1 133.683,293.907 133.699,294.742 133.719,295.543 133.739,296.346 133.777,297.104 133.82,297.804 133.874,298.486 133.928,299.164 133.979,299.823 134.021,300.53 134.062,301.238 134.09,301.985 134.108,302.825 134.107,303.679 134.09,304.558 134.074,305.441 134.044,306.345 133.953,307.05 133.875,307.829 133.806,308.506 133.736,309.177 133.656,309.911 133.591,310.619 133.531,311.405 133.47,312.188 133.429,312.993 133.391,313.814 133.362,314.642 133.331,315.464 133.299,316.286 133.267,317.116 133.229,317.939 133.184,318.752 133.128,319.537 133.071,320.329 133.004,321.095 132.912,321.753 132.857,322.524 132.798,323.297 132.692,323.935 132.615,324.71 132.528,325.428 132.44,326.147 132.365,326.942 132.277,327.662 132.193,328.409 132.107,329.148 132.008,329.825 131.939,330.639 131.871,331.473 131.799,332.32 131.684,333.037 131.531,333.769 131.428,334.515 131.325,335.27 131.2,336.031 131.089,336.741 130.962,337.46 130.872,338.247 130.763,339.014 130.655,339.728 130.51,340.37 130.364,341.008 130.212,341.622 130.061,342.234 129.916,342.799 129.776,343.379 129.636,343.954 129.476,344.519 129.315,345.083 129.168,345.689 129.019,346.292 128.916,347.007 128.827,347.767 128.773,348.528 128.711,349.291 128.549,349.989 " fill="none" stroke-width="1" stroke="rgb(0,0,255)" />
	<polyline points="190.5,193.5 190.5,193.5 190.5,193.5 " fill="none" stroke-width="1" stroke="rgb(0,0,255)" />
	<polyline points="356.207,187.644 356.007,187.007 355.821,186.383 355.636,185.753 355.446,185.136 355.247,184.541 355.046,183.938 354.853,183.369 354.66,182.8 354.447,182.263 354.225,181.711 354.002,181.157 353.764,180.629 353.528,180.108 353.272,179.594 353.019,179.091 352.751,178.587 352.493,178.105 352.105,177.538 351.786,177.063 351.413,176.555 351.043,176.072 350.454,175.521 349.903,175.029 349.417,174.636 348.938,174.249 348.437,173.837 347.837,173.313 347.298,172.911 346.827,172.606 346.325,172.306 345.794,171.991 345.313,171.717 344.818,171.442 344.307,171.159 343.718,170.809 343.214,170.54 342.675,170.254 342.121,169.963 341.596,169.699 341.061,169.432 340.494,169.179 339.92,168.924 339.382,168.692 338.838,168.461 338.271,168.247 337.718,168.032 337.156,167.804 336.584,167.585 336.016,167.369 335.436,167.174 334.862,166.983 334.274,166.808 333.669,166.63 333.071,166.457 332.491,166.295 331.92,166.137 331.308,165.955 330.702,165.806 330.138,165.661 329.502,165.511 328.88,165.367 328.319,165.229 327.771,165.096 327.161,164.964 326.497,164.881 325.9,164.805 325.217,164.745 324.595,164.698 323.994,164.652 323.35,164.616 322.714,164.58 322.114,164.549 321.489,164.523 320.86,164.498 320.255,164.475 319.634,164.455 319.009,164.435 318.397,164.417 317.782,164.4 317.158,164.384 316.543,164.369 315.927,164.356 315.305,164.343 314.688,164.331 314.072,164.32 313.452,164.31 312.833,164.301 312.218,164.293 311.596,164.286 310.978,164.279 310.359,164.274 309.746,164.269 309.125,164.265 308.504,164.263 307.891,164.262 307.269,164.263 306.648,164.269 306.037,164.277 305.411,164.289 304.796,164.301 304.182,164.318 303.555,164.343 302.933,164.367 302.318,164.402 301.704,164.438 301.078,164.482 300.466,164.529 299.853,164.575 299.238,164.616 298.616,164.657 297.998,164.698 297.381,164.735 296.767,164.772 296.143,164.803 295.526,164.832 294.911,164.861 294.286,164.889 293.672,164.922 293.058,164.955 292.433,164.991 291.813,165.024 291.195,165.06 290.582,165.102 289.965,165.144 289.347,165.191 288.722,165.238 288.113,165.292 287.495,165.349 286.867,165.406 286.277,165.47 285.649,165.543 285.01,165.617 284.423,165.694 283.827,165.772 283.18,165.862 282.598,165.95 282.03,166.034 281.367,166.111 280.72,166.186 280.139,166.245 279.514,166.319 278.885,166.395 278.291,166.462 277.674,166.54 277.058,166.617 276.448,166.689 275.843,166.758 275.223,166.819 274.601,166.873 273.989,166.927 273.364,166.973 272.737,167.02 272.134,167.086 271.518,167.14 270.903,167.193 270.285,167.247 269.668,167.296 269.051,167.345 268.434,167.398 267.816,167.451 267.202,167.495 266.585,167.538 265.971,167.581 265.35,167.617 264.732,167.653 264.111,167.681 263.494,167.699 262.872,167.716 262.25,167.727 261.637,167.732 261.016,167.738 260.4,167.74 259.778,167.742 259.161,167.741 258.544,167.736 257.925,167.731 257.305,167.719 256.689,167.7 256.072,167.681 255.451,167.655 254.824,167.63 254.22,167.592 253.598,167.549 252.967,167.505 252.367,167.457 251.768,167.409 251.132,167.368 250.517,167.333 249.909,167.299 249.28,167.276 248.661,167.258 248.045,167.241 247.424,167.23 246.805,167.22 246.188,167.214 245.568,167.211 244.952,167.209 244.331,167.209 243.714,167.211 243.097,167.217 242.476,167.231 241.859,167.248 241.239,167.27 240.62,167.3 240.001,167.331 239.38,167.372 238.75,167.414 238.141,167.469 237.52,167.535 236.876,167.605 236.279,167.678 235.668,167.759 235.03,167.845 234.437,167.938 233.82,168.034 233.207,168.152 232.611,168.268 231.998,168.388 231.394,168.527 230.772,168.671 230.186,168.811 229.596,168.981 228.985,169.143 228.423,169.304 227.855,169.467 227.226,169.647 226.655,169.812 226.084,169.977 225.479,170.164 224.877,170.35 224.309,170.515 223.747,170.679 223.13,170.858 222.566,171.014 221.991,171.158 221.274,171.336 220.7,171.471 220.131,171.606 219.49,171.772 218.852,171.938 218.27,172.076 217.682,172.245 217.09,172.417 216.536,172.587 215.985,172.757 215.399,172.938 214.764,173.204 214.149,173.378 213.551,173.571 212.951,173.767 212.36,173.927 211.761,174.081 211.152,174.239 210.575,174.406 209.995,174.574 209.395,174.741 208.793,174.909 208.209,175.084 207.652,175.282 207.1,175.48 206.508,175.655 205.925,175.829 205.38,176.052 204.8,176.234 204.259,176.445 203.737,176.702 203.231,176.952 202.707,177.28 202.209,177.594 201.655,177.991 201.185,178.316 200.634,178.76 200.126,179.172 199.606,179.636 199.106,180.085 198.661,180.451 198.219,180.816 197.743,181.252 197.275,181.686 196.808,182.123 196.377,182.615 195.942,183.118 195.55,183.602 195.149,184.105 194.761,184.635 194.36,185.188 194.087,185.646 193.821,186.154 193.561,186.675 193.3,187.204 193.077,187.739 192.826,188.331 192.573,188.926 192.342,189.451 192.111,189.976 191.864,190.571 191.614,191.163 191.39,191.701 191.115,192.303 " fill="none" stroke-width="1" stroke="rgb(0,0,255)" />
	<polyline points="356.207,187.644 355.995,188.088 355.799,188.525 355.605,188.963 355.391,189.382 355.179,189.802 354.941,190.219 354.717,190.607 354.492,190.994 354.215,191.414 353.937,191.834 353.65,192.229 353.362,192.626 353.073,193.022 352.729,193.452 352.386,193.883 352.079,194.281 351.758,194.682 351.436,195.083 351.101,195.475 350.762,195.904 350.449,196.294 350.136,196.688 349.784,197.132 349.462,197.54 349.133,197.949 348.871,198.379 348.594,198.764 348.317,199.151 348.06,199.527 347.804,199.908 347.521,200.323 347.236,200.741 346.949,201.161 346.715,201.499 346.479,201.839 346.238,202.182 345.994,202.526 345.719,202.902 345.484,203.243 345.248,203.585 345.011,203.927 344.775,204.259 344.537,204.592 344.297,204.925 344.048,205.267 343.803,205.614 343.556,205.96 343.309,206.306 343.059,206.651 342.821,206.981 342.509,207.371 342.196,207.762 341.88,208.152 341.615,208.509 341.347,208.866 340.929,209.312 340.54,209.739 340.146,210.167 339.745,210.592 339.339,211.019 338.894,211.408 338.427,211.879 337.99,212.247 337.591,212.56 337.195,212.868 336.791,213.176 336.377,213.491 335.951,213.814 335.598,214.038 335.224,214.289 334.848,214.54 334.483,214.773 334.116,215.007 333.748,215.238 333.379,215.469 333.008,215.698 332.6,215.985 332.227,216.217 331.853,216.449 331.445,216.709 331.035,216.969 330.646,217.204 330.255,217.438 329.862,217.672 329.474,217.876 329.085,218.078 328.679,218.287 328.274,218.494 327.872,218.698 327.429,218.889 326.986,219.076 326.59,219.25 326.193,219.422 325.778,219.572 325.36,219.719 324.941,219.863 324.526,220.001 324.067,220.122 323.552,220.25 323.038,220.374 322.547,220.471 322.057,220.566 321.527,220.692 320.999,220.815 320.493,220.898 319.988,220.978 319.449,221.032 318.912,221.085 318.385,221.124 317.858,221.161 317.336,221.191 316.81,221.22 316.305,221.242 315.796,221.264 315.295,221.282 314.789,221.299 314.297,221.314 313.799,221.327 313.306,221.339 312.808,221.351 312.317,221.36 311.823,221.37 311.33,221.378 310.835,221.386 310.341,221.394 309.846,221.401 309.352,221.407 308.857,221.414 308.361,221.42 307.865,221.426 307.37,221.432 306.877,221.437 306.377,221.444 305.881,221.449 305.384,221.456 304.892,221.462 304.386,221.47 303.888,221.478 303.387,221.489 302.892,221.498 302.382,221.514 301.882,221.528 301.382,221.549 300.892,221.569 300.391,221.6 299.898,221.631 299.405,221.667 298.916,221.703 298.425,221.744 297.935,221.784 297.446,221.817 296.958,221.849 296.452,221.886 295.944,221.923 295.43,221.954 294.914,221.987 294.42,222.039 293.926,222.092 293.437,222.137 292.949,222.184 292.456,222.232 291.963,222.282 291.476,222.332 290.988,222.383 290.511,222.434 290.033,222.487 289.557,222.539 289.08,222.592 288.611,222.654 288.14,222.716 287.661,222.775 287.182,222.833 286.712,222.902 286.243,222.97 285.716,223.007 285.242,223.056 284.767,223.106 284.267,223.148 283.764,223.189 283.28,223.228 282.795,223.266 282.284,223.298 281.769,223.33 281.276,223.354 280.777,223.378 280.268,223.395 279.753,223.412 279.26,223.425 278.76,223.437 278.257,223.446 277.747,223.454 277.253,223.461 276.753,223.467 276.25,223.471 275.748,223.474 275.249,223.476 274.748,223.477 274.246,223.478 273.746,223.478 273.245,223.477 272.743,223.475 272.241,223.472 271.737,223.469 271.234,223.464 270.729,223.459 270.223,223.452 269.712,223.444 269.2,223.436 268.685,223.424 268.168,223.413 267.642,223.397 267.111,223.38 266.58,223.358 266.04,223.334 265.516,223.298 264.985,223.257 264.476,223.207 263.957,223.155 263.484,223.088 263.004,223.019 262.536,222.946 262.061,222.872 261.617,222.785 261.167,222.696 260.71,222.607 260.248,222.516 259.779,222.423 259.333,222.325 258.881,222.225 258.428,222.124 257.97,222.022 257.533,221.915 257.091,221.807 256.636,221.697 256.176,221.586 255.732,221.473 255.284,221.359 254.833,221.244 254.38,221.124 253.924,221.003 253.473,220.879 253.019,220.753 252.558,220.628 252.094,220.502 251.638,220.378 251.181,220.253 250.718,220.118 250.254,219.983 249.793,219.856 249.338,219.724 248.882,219.591 248.423,219.459 247.963,219.328 247.507,219.189 247.051,219.05 246.589,218.908 246.126,218.765 245.665,218.629 245.204,218.492 244.742,218.355 244.28,218.219 243.818,218.082 243.356,217.941 242.896,217.804 242.439,217.66 241.982,217.516 241.522,217.379 241.063,217.241 240.608,217.097 240.152,216.953 239.69,216.804 239.228,216.655 238.769,216.516 238.31,216.377 237.851,216.237 237.389,216.083 236.928,215.928 236.473,215.784 236.019,215.64 235.557,215.494 235.095,215.348 234.638,215.205 234.182,215.062 233.722,214.91 233.262,214.757 232.803,214.604 232.348,214.456 231.895,214.309 231.437,214.156 230.981,214.004 230.531,213.856 230.081,213.709 229.618,213.543 229.156,213.377 228.709,213.227 228.263,213.078 227.823,212.912 227.366,212.75 226.911,212.588 226.47,212.424 226.031,212.26 225.568,212.088 225.107,211.914 224.664,211.745 224.222,211.575 223.78,211.403 223.34,211.215 222.903,211.029 222.468,210.846 222.035,210.663 221.568,210.454 221.104,210.245 220.675,210.048 220.237,209.817 219.8,209.586 219.372,209.363 218.943,209.138 218.501,208.886 218.077,208.658 217.611,208.388 217.146,208.12 216.728,207.879 216.293,207.621 215.861,207.36 215.446,207.122 214.997,206.848 214.597,206.623 214.191,206.395 213.704,206.099 213.287,205.881 212.871,205.661 212.435,205.387 212.008,205.118 211.551,204.836 211.098,204.556 210.705,204.325 210.315,204.094 209.911,203.832 209.524,203.597 209.137,203.361 208.733,203.102 208.347,202.861 207.962,202.621 207.563,202.364 207.167,202.108 206.752,201.833 206.338,201.559 205.927,201.284 205.54,201.035 205.121,200.742 204.689,200.45 204.262,200.16 203.839,199.871 203.457,199.622 203.08,199.375 202.672,199.099 202.176,198.726 201.786,198.482 201.4,198.24 201.016,197.997 200.636,197.761 200.255,197.524 199.873,197.286 199.487,197.046 199.111,196.84 198.696,196.611 198.281,196.38 197.866,196.149 197.474,195.924 197.067,195.695 196.66,195.456 196.252,195.216 195.72,194.905 195.292,194.653 194.871,194.404 194.436,194.148 194.004,193.893 193.523,193.638 193.04,193.381 192.562,193.12 192.086,192.857 191.6,192.58 191.115,192.303 " fill="none" stroke-width="1" stroke="rgb(0,0,255)" />
	<polyline points="191.115,192.303 190.887,192.723 190.684,193.121 190.5,193.5 " fill="none" stroke-width="1" stroke="rgb(0,0,255)" />
</g></svg>
